<svg width="132" height="24" viewBox="0 0 132 24" fill="none" xmlns="http://www.w3.org/2000/svg">
<g clip-path="url(#clip0_0_3)">
<path d="M65.76 18.87H63.18L70 4.7L76.8 18.87H74.18L73.1 16.66H66.83L65.76 18.87ZM68 14.27H72L70 10.27L68 14.27Z" fill="white"/>
<path d="M32.5 11.54C33.1146 10.6918 33.3719 9.63634 33.2167 8.60045C33.0615 7.56456 32.5062 6.63087 31.67 6C30.9842 5.48383 30.1483 5.20637 29.29 5.21H22.86V18.87H30C30.8542 18.8708 31.6873 18.6041 32.3823 18.1074C33.0772 17.6107 33.5992 16.9088 33.875 16.1003C34.1507 15.2918 34.1664 14.4172 33.9198 13.5993C33.6732 12.7815 33.1767 12.0613 32.5 11.54V11.54ZM29.29 7.64C29.6458 7.69829 29.9693 7.88115 30.2027 8.15592C30.4361 8.43069 30.5642 8.77947 30.5642 9.14C30.5642 9.50053 30.4361 9.84931 30.2027 10.1241C29.9693 10.3989 29.6458 10.5817 29.29 10.64H25.43V7.64H29.29ZM30 16.4H25.43V13.16H30C30.4297 13.1467 30.847 13.3047 31.1602 13.5991C31.4733 13.8936 31.6567 14.3003 31.67 14.73C31.6833 15.1597 31.5253 15.577 31.2309 15.8902C30.9364 16.2033 30.5297 16.3867 30.1 16.4H30Z" fill="white"/>
<path d="M42.43 5.11C41.0621 5.10803 39.7243 5.51212 38.5862 6.27108C37.4481 7.03005 36.5609 8.10973 36.037 9.37336C35.513 10.637 35.3759 12.0277 35.6431 13.3693C35.9102 14.7109 36.5695 15.9431 37.5375 16.9096C38.5055 17.8762 39.7385 18.5337 41.0805 18.7989C42.4225 19.0641 43.8131 18.925 45.0759 18.3992C46.3388 17.8734 47.4172 16.9847 48.1745 15.8455C48.9318 14.7063 49.334 13.3679 49.33 12V12C49.33 10.17 48.603 8.41496 47.309 7.12096C46.015 5.82696 44.26 5.1 42.43 5.1V5.11ZM42.43 16.32C41.5776 16.322 40.7437 16.0711 40.0338 15.5992C39.3239 15.1272 38.77 14.4554 38.4419 13.6686C38.1139 12.8818 38.0265 12.0154 38.1909 11.179C38.3553 10.3425 38.764 9.57362 39.3653 8.96946C39.9667 8.3653 40.7337 7.95303 41.5694 7.78479C42.405 7.61655 43.2718 7.69989 44.0601 8.02427C44.8484 8.34866 45.5228 8.89951 45.9981 9.60719C46.4733 10.3149 46.728 11.1476 46.73 12V12C46.7313 12.566 46.6211 13.1267 46.4058 13.6501C46.1904 14.1735 45.874 14.6494 45.4747 15.0506C45.0754 15.4517 44.601 15.7703 44.0786 15.9881C43.5562 16.2059 42.996 16.3187 42.43 16.32V16.32Z" fill="white"/>
<path d="M59 14C59.9891 13.6028 60.8086 12.8731 61.3175 11.9365C61.8263 11 61.9926 9.91531 61.7877 8.86936C61.5828 7.8234 61.0194 6.88167 60.1948 6.2064C59.3702 5.53113 58.3358 5.16462 57.27 5.17H51.27V18.87H53.75V14.31H56.09L59.29 18.87H62.29L59 14ZM57.27 11.83H53.78V7.66H57.25C57.5231 7.65278 57.795 7.69943 58.0502 7.79728C58.3053 7.89514 58.5386 8.04229 58.7369 8.23033C58.9351 8.41837 59.0944 8.64361 59.2056 8.8932C59.3168 9.1428 59.3778 9.41185 59.385 9.685C59.3922 9.95815 59.3456 10.23 59.2477 10.4852C59.1499 10.7403 59.0027 10.9736 58.8147 11.1719C58.6266 11.3701 58.4014 11.5294 58.1518 11.6406C57.9022 11.7518 57.6332 11.8128 57.36 11.82L57.27 11.83Z" fill="white"/>
<path d="M11.43 20.7V14.1L17.14 10.8V17.4L11.43 20.7Z" fill="url(#paint0_linear_0_3)"/>
<path d="M0 3.3V20.7L5.71 17.4V0L0 3.3Z" fill="url(#paint1_linear_0_3)"/>
<path d="M11.43 20.7L5.71 17.4L0 20.7L5.71 24L11.43 20.7Z" fill="url(#paint2_linear_0_3)"/>
<path d="M17.14 10.8L11.43 7.5L5.71 10.8L11.43 14.1L17.14 10.8Z" fill="url(#paint3_linear_0_3)"/>
<path d="M81.43 18.18C80.8533 17.9509 80.3562 17.5581 80 17.05C79.7 16.5999 79.5399 16.071 79.54 15.53C79.5331 15.4201 79.5331 15.3099 79.54 15.2C79.5431 15.1634 79.5431 15.1266 79.54 15.09H81.3V15.29C81.2839 15.5687 81.3444 15.8464 81.4748 16.0932C81.6052 16.34 81.8007 16.5463 82.04 16.69C82.6207 17.03 83.2879 17.1934 83.96 17.16C84.5507 17.1852 85.1365 17.043 85.65 16.75C85.9559 16.5706 86.1781 16.2772 86.2681 15.9342C86.3581 15.5912 86.3084 15.2265 86.13 14.92C86.0806 14.8213 86.0127 14.733 85.93 14.66C85.6628 14.4003 85.3419 14.2023 84.99 14.08C84.4928 13.8998 83.9852 13.7496 83.47 13.63C82.8282 13.4694 82.1969 13.269 81.58 13.03C81.1064 12.833 80.6853 12.5282 80.35 12.14C79.9916 11.7134 79.8092 11.1663 79.84 10.61C79.8319 10.178 79.9343 9.75101 80.1372 9.36954C80.3402 8.98807 80.6372 8.6647 81 8.43C81.7645 7.98821 82.6171 7.7206 83.497 7.64628C84.3768 7.57195 85.2622 7.69273 86.09 8C86.6147 8.20853 87.074 8.55383 87.42 9C87.7173 9.4247 87.8746 9.93161 87.87 10.45V10.83H86.14V10.65C86.1451 10.4272 86.098 10.2062 86.0025 10.0048C85.907 9.80341 85.7657 9.62711 85.59 9.49C85.0694 9.13997 84.4451 8.97773 83.82 9.03C83.2298 8.96895 82.6373 9.12151 82.15 9.46C82.0001 9.58001 81.8791 9.7322 81.7961 9.9053C81.713 10.0784 81.6699 10.268 81.67 10.46C81.6675 10.6029 81.6957 10.7447 81.7526 10.8758C81.8095 11.0069 81.8939 11.1243 82 11.22C82.2462 11.433 82.5315 11.596 82.84 11.7C83.2994 11.8577 83.7667 11.9912 84.24 12.1C84.9183 12.2713 85.586 12.4816 86.24 12.73C86.7502 12.936 87.2055 13.2578 87.57 13.67C87.9463 14.1434 88.1413 14.7356 88.12 15.34C88.1599 15.8117 88.0779 16.2857 87.8818 16.7165C87.6856 17.1473 87.382 17.5204 87 17.8C86.0703 18.3811 84.985 18.6638 83.89 18.61C83.0491 18.6384 82.2114 18.492 81.43 18.18V18.18Z" fill="white"/>
<path d="M90.73 17.29C89.8841 16.0721 89.4882 14.5978 89.61 13.12C89.4945 11.6569 89.8942 10.1994 90.74 9C91.1858 8.52874 91.7317 8.16365 92.3375 7.93172C92.9433 7.69978 93.5935 7.60692 94.24 7.66C94.8069 7.60478 95.3792 7.66492 95.9223 7.83678C96.4654 8.00864 96.968 8.28867 97.4 8.66C98.127 9.52221 98.4861 10.6355 98.4 11.76H96.6C96.6511 11.0557 96.4721 10.3538 96.09 9.76C95.8484 9.52324 95.5568 9.34373 95.2366 9.23469C94.9164 9.12565 94.5759 9.08988 94.24 9.13C93.8394 9.08962 93.435 9.14777 93.062 9.2994C92.689 9.45104 92.3588 9.69155 92.1 10C91.5677 10.9343 91.3339 12.009 91.43 13.08V13.16C91.352 14.203 91.5815 15.246 92.09 16.16C92.346 16.4798 92.6773 16.7312 93.0542 16.8918C93.4312 17.0523 93.842 17.117 94.25 17.08C94.5935 17.116 94.9407 17.0745 95.2661 16.9585C95.5914 16.8426 95.8867 16.6551 96.13 16.41C96.5474 15.8298 96.7522 15.1235 96.71 14.41H98.4C98.45 15.4994 98.0936 16.5685 97.4 17.41C96.9912 17.8218 96.4978 18.1398 95.9538 18.3418C95.4099 18.5439 94.8285 18.6251 94.25 18.58C93.6042 18.6418 92.9527 18.5579 92.3435 18.3347C91.7344 18.1114 91.183 17.7545 90.73 17.29V17.29Z" fill="white"/>
<path d="M100.82 17.26C99.9139 16.0791 99.4791 14.6036 99.6 13.12C99.4889 11.6437 99.9229 10.1778 100.82 9C101.831 8.1293 103.121 7.65039 104.455 7.65039C105.789 7.65039 107.079 8.1293 108.09 9C108.999 10.1835 109.433 11.6631 109.31 13.15C109.431 14.6336 108.996 16.1091 108.09 17.29C107.079 18.1607 105.789 18.6396 104.455 18.6396C103.121 18.6396 101.831 18.1607 100.82 17.29V17.26ZM106.82 16.26C107.362 15.3577 107.61 14.3094 107.53 13.26V13C107.61 11.9506 107.362 10.9023 106.82 10C106.195 9.40337 105.364 9.07047 104.5 9.07047C103.636 9.07047 102.805 9.40337 102.18 10C101.638 10.9023 101.39 11.9506 101.47 13V13.16C101.39 14.2094 101.638 15.2577 102.18 16.16C102.466 16.4861 102.826 16.7395 103.229 16.8995C103.633 17.0594 104.068 17.1213 104.5 17.08C104.92 17.1192 105.344 17.0621 105.739 16.9131C106.134 16.7641 106.49 16.5271 106.78 16.22L106.82 16.26Z" fill="white"/>
<path d="M111.35 7.86H112.67L112.89 9.28H113C113.325 8.72768 113.805 8.28268 114.38 8C114.968 7.71149 115.616 7.5675 116.27 7.58C116.859 7.55481 117.446 7.67049 117.982 7.91745C118.517 8.1644 118.986 8.53551 119.35 9C120.157 10.2267 120.537 11.6855 120.43 13.15C120.536 14.6068 120.16 16.0579 119.36 17.28C119.017 17.726 118.571 18.0831 118.062 18.3215C117.552 18.5598 116.992 18.6725 116.43 18.65C115.78 18.6682 115.133 18.5524 114.53 18.31C114.002 18.0723 113.552 17.6912 113.23 17.21H113.11V21.86H111.35V7.86ZM117.45 16.77C117.88 16.4731 118.192 16.034 118.33 15.53C118.538 14.7681 118.633 13.9795 118.61 13.19V13.11C118.637 12.3071 118.542 11.5048 118.33 10.73C118.189 10.2193 117.874 9.77383 117.44 9.47C116.951 9.19147 116.393 9.05632 115.83 9.08C115.429 9.05225 115.028 9.12996 114.667 9.30541C114.305 9.48086 113.996 9.74792 113.77 10.08C113.276 10.9993 113.047 12.0381 113.11 13.08V13.16C113.038 14.2014 113.264 15.2418 113.76 16.16C113.985 16.4959 114.295 16.7656 114.659 16.9414C115.023 17.1172 115.427 17.1927 115.83 17.16C116.395 17.1886 116.957 17.0569 117.45 16.78V16.77Z" fill="white"/>
<path d="M123.14 17.27C122.222 16.0867 121.78 14.6028 121.9 13.11C121.792 11.634 122.234 10.1702 123.14 9C123.642 8.52603 124.238 8.16274 124.889 7.93363C125.54 7.70452 126.232 7.6147 126.92 7.67C127.541 7.62217 128.164 7.70418 128.751 7.91079C129.339 8.1174 129.876 8.44408 130.33 8.87C131.178 9.98068 131.581 11.3679 131.46 12.76V13.64H123.72C123.705 14.6082 124.011 15.5542 124.59 16.33C124.894 16.6332 125.259 16.8677 125.661 17.0178C126.063 17.1679 126.492 17.23 126.92 17.2C127.632 17.2269 128.333 17.0235 128.92 16.62C129.185 16.4092 129.395 16.1369 129.531 15.8267C129.667 15.5165 129.725 15.1778 129.7 14.84H131.41C131.441 15.379 131.342 15.9177 131.121 16.4103C130.9 16.903 130.563 17.335 130.14 17.67C129.199 18.3653 128.049 18.7181 126.88 18.67C126.193 18.7104 125.506 18.6068 124.862 18.3656C124.218 18.1245 123.631 17.7513 123.14 17.27V17.27ZM129.62 12.13C129.62 10.09 128.72 9.07 126.92 9.07C126.107 9.00939 125.301 9.26357 124.67 9.78C124.101 10.4288 123.779 11.2573 123.76 12.12L129.62 12.13Z" fill="white"/>
</g>
<defs>
<linearGradient id="paint0_linear_0_3" x1="12.86" y1="13.28" x2="15.71" y2="18.23" gradientUnits="userSpaceOnUse">
<stop stop-color="#FF00FF"/>
<stop offset="1" stop-color="#9D00FF"/>
</linearGradient>
<linearGradient id="paint1_linear_0_3" x1="6.62" y1="16.88" x2="-0.91" y2="3.82" gradientUnits="userSpaceOnUse">
<stop stop-color="#00FFBE"/>
<stop offset="1" stop-color="#603CF7"/>
</linearGradient>
<linearGradient id="paint2_linear_0_3" x1="7.14" y1="23.18" x2="4.29" y2="18.23" gradientUnits="userSpaceOnUse">
<stop stop-color="#00FFBE"/>
<stop offset="1" stop-color="#508CFF"/>
</linearGradient>
<linearGradient id="paint3_linear_0_3" x1="10" y1="8.33" x2="12.86" y2="13.28" gradientUnits="userSpaceOnUse">
<stop stop-color="#FF00FF"/>
<stop offset="1" stop-color="#9D00FF"/>
</linearGradient>
<clipPath id="clip0_0_3">
<rect width="131.46" height="24" fill="white"/>
</clipPath>
</defs>
</svg>
