<?xml version="1.0" encoding="UTF-8"?>
<svg width="146px" height="26px" viewBox="0 0 146 26" version="1.1" xmlns="http://www.w3.org/2000/svg" xmlns:xlink="http://www.w3.org/1999/xlink">
    <title>gray-light</title>
    <g id="Page-1" stroke="none" stroke-width="1" fill="none" fill-rule="evenodd">
        <g id="Metabora" transform="translate(-648.000000, -3838.000000)" fill-rule="nonzero">
            <g id="gray-light" transform="translate(648.000000, 3838.000000)">
                <g id="Group" transform="translate(87.282000, 5.096000)" fill="#8A91A8">
                    <path d="M46.4815,15.3465 L43.68,15.3465 L51.038,0 L58.396,15.3465 L55.5945,15.3465 L54.418,12.9545 L47.632,12.9545 L46.475,15.3465 L46.4815,15.3465 Z M48.8735,10.3545 L53.1505,10.3545 L50.986,5.967 L48.867,10.3545 L48.8735,10.3545 Z" id="Shape"></path>
                    <path d="M10.4455,7.41 C10.9785,6.6885 11.297,5.798 11.297,4.8295 C11.297,2.4375 9.3535,0.494 6.9615,0.494 L0,0.494 L0,15.3465 L7.735,15.3465 C10.1855,15.3465 12.168,13.364 12.168,10.9135 C12.168,9.4835 11.492,8.216 10.4455,7.41 Z M6.9615,3.185 L6.9615,3.185 C7.8715,3.185 8.606,3.9195 8.606,4.8295 C8.606,5.7395 7.8715,6.474 6.9615,6.474 C6.8705,6.474 2.795,6.474 2.795,6.474 L2.795,3.1785 L6.9615,3.1785 L6.9615,3.185 Z M7.735,12.6685 L2.7885,12.6685 L2.7885,9.165 L7.735,9.165 C8.7035,9.165 9.4835,9.9515 9.4835,10.9135 C9.4835,11.8755 8.697,12.662 7.735,12.662 L7.735,12.6685 Z" id="Shape"></path>
                    <path d="M21.203,0.442 C17.0755,0.442 13.7215,3.7895 13.7215,7.9235 C13.7215,12.0575 17.069,15.405 21.203,15.405 C25.337,15.405 28.6845,12.0575 28.6845,7.9235 C28.6845,3.7895 25.337,0.442 21.203,0.442 Z M21.203,12.584 C18.629,12.584 16.5425,10.4975 16.5425,7.9235 C16.5425,5.3495 18.629,3.263 21.203,3.263 C23.777,3.263 25.8635,5.3495 25.8635,7.9235 C25.8635,10.4975 23.777,12.584 21.203,12.584 L21.203,12.584 Z" id="Shape"></path>
                    <path d="M39.13,10.0555 C40.9435,9.3145 42.224,7.5335 42.224,5.4535 C42.224,2.7105 40.001,0.4875 37.258,0.4875 L30.8035,0.4875 L30.8035,15.3465 L33.4945,15.3465 L33.4945,10.4 L36.0295,10.4 L39.494,15.3465 L42.7505,15.3465 L39.1235,10.0555 L39.13,10.0555 Z M37.258,7.709 L33.4945,7.709 L33.4945,3.1915 L37.258,3.1915 C38.506,3.1915 39.5135,4.199 39.5135,5.447 C39.5135,6.695 38.506,7.7025 37.258,7.7025 L37.258,7.709 Z" id="Shape"></path>
                </g>
                <g id="Group" transform="translate(62.517000, 0.000000)">
                    <polygon id="Path" fill="#6C7593" points="12.3825 22.425 12.3825 22.425 12.3825 15.275 18.577 11.7065 18.577 18.85"></polygon>
                    <polygon id="Path" fill="#6C7593" points="0 3.575 0 22.425 6.1945 18.85 6.1945 0"></polygon>
                    <polygon id="Path" fill="#8A91A8" points="12.3825 22.425 6.1945 18.85 0 22.425 6.1945 26"></polygon>
                    <polygon id="Path" fill="#8A91A8" points="18.577 11.7065 12.3825 8.1315 6.1945 11.7065 12.3825 15.275"></polygon>
                </g>
                <g id="Group" transform="translate(0.000000, 5.414500)" fill="#8A91A8">
                    <polygon id="Path" points="1.43 0.169 1.4495 0.169 7.7285 10.3285 14.0075 0.169 15.4375 0.169 15.4375 15.028 14.0205 15.028 14.0205 2.7625 7.7285 12.948 1.43 2.7625 1.43 15.028 0 15.028 0 0.169"></polygon>
                    <polygon id="Path" points="20.098 1.5925 20.098 6.7795 28.015 6.7795 28.015 8.203 20.098 8.203 20.098 13.5915 29.3475 13.5915 29.3475 15.0215 18.6745 15.0215 18.6745 0.169 29.3475 0.169 29.3475 1.5925 20.098 1.5925"></polygon>
                    <polygon id="Path" points="36.608 15.028 36.608 1.6055 31.3105 1.6055 31.3105 0.1755 43.3485 0.1755 43.3485 1.6055 38.0445 1.6055 38.0445 15.028 36.6145 15.028"></polygon>
                    <path d="M57.0505,15.028 L55.562,15.028 L53.95,11.778 L45.708,11.778 L44.148,15.028 L42.64,15.028 L49.842,0 L57.0505,15.028 Z M53.2415,10.348 L49.7705,3.289 L46.3905,10.348 L53.248,10.348 L53.2415,10.348 Z" id="Shape"></path>
                </g>
            </g>
        </g>
    </g>
</svg>