<?xml version="1.0" encoding="UTF-8"?>
<svg width="202px" height="36px" viewBox="0 0 202 36" version="1.1" xmlns="http://www.w3.org/2000/svg" xmlns:xlink="http://www.w3.org/1999/xlink">
    <title>logo_mono</title>
    <g id="Page-1" stroke="none" stroke-width="1" fill="none" fill-rule="evenodd">
        <g id="logo_mono" fill-rule="nonzero">
            <g id="Group" transform="translate(120.852000, 7.056000)" fill="#8A91A8">
                <path d="M64.359,21.249 L60.48,21.249 L70.668,0 L80.856,21.249 L76.977,21.249 L75.348,17.937 L65.952,17.937 L64.35,21.249 L64.359,21.249 Z M67.671,14.337 L73.593,14.337 L70.596,8.262 L67.662,14.337 L67.671,14.337 Z" id="Shape"></path>
                <path d="M14.463,10.26 C15.201,9.261 15.642,8.028 15.642,6.687 C15.642,3.375 12.951,0.684 9.639,0.684 L0,0.684 L0,21.249 L10.71,21.249 C14.103,21.249 16.848,18.504 16.848,15.111 C16.848,13.131 15.912,11.376 14.463,10.26 Z M9.639,4.41 L9.639,4.41 C10.899,4.41 11.916,5.427 11.916,6.687 C11.916,7.947 10.899,8.964 9.639,8.964 C9.513,8.964 3.87,8.964 3.87,8.964 L3.87,4.401 L9.639,4.401 L9.639,4.41 Z M10.71,17.541 L3.861,17.541 L3.861,12.69 L10.71,12.69 C12.051,12.69 13.131,13.779 13.131,15.111 C13.131,16.443 12.042,17.532 10.71,17.532 L10.71,17.541 Z" id="Shape"></path>
                <path d="M29.358,0.612 C23.643,0.612 18.999,5.247 18.999,10.971 C18.999,16.695 23.634,21.33 29.358,21.33 C35.082,21.33 39.717,16.695 39.717,10.971 C39.717,5.247 35.082,0.612 29.358,0.612 Z M29.358,17.424 C25.794,17.424 22.905,14.535 22.905,10.971 C22.905,7.407 25.794,4.518 29.358,4.518 C32.922,4.518 35.811,7.407 35.811,10.971 C35.811,14.535 32.922,17.424 29.358,17.424 L29.358,17.424 Z" id="Shape"></path>
                <path d="M54.18,13.923 C56.691,12.897 58.464,10.431 58.464,7.551 C58.464,3.753 55.386,0.675 51.588,0.675 L42.651,0.675 L42.651,21.249 L46.377,21.249 L46.377,14.4 L49.887,14.4 L54.684,21.249 L59.193,21.249 L54.171,13.923 L54.18,13.923 Z M51.588,10.674 L46.377,10.674 L46.377,4.419 L51.588,4.419 C53.316,4.419 54.711,5.814 54.711,7.542 C54.711,9.27 53.316,10.665 51.588,10.665 L51.588,10.674 Z" id="Shape"></path>
            </g>
            <g id="Group" transform="translate(86.562000, 0.000000)">
                <polygon id="Path" fill="#6C7593" points="17.145 31.05 17.145 31.05 17.145 21.15 25.722 16.209 25.722 26.1"></polygon>
                <polygon id="Path" fill="#6C7593" points="0 4.95 0 31.05 8.577 26.1 8.577 0"></polygon>
                <polygon id="Path" fill="#8A91A8" points="17.145 31.05 8.577 26.1 0 31.05 8.577 36"></polygon>
                <polygon id="Path" fill="#8A91A8" points="25.722 16.209 17.145 11.259 8.577 16.209 17.145 21.15"></polygon>
            </g>
            <g id="Group" transform="translate(0.000000, 7.497000)" fill="#8A91A8">
                <polygon id="Path" points="1.98 0.234 2.007 0.234 10.701 14.301 19.395 0.234 21.375 0.234 21.375 20.808 19.413 20.808 19.413 3.825 10.701 17.928 1.98 3.825 1.98 20.808 0 20.808 0 0.234"></polygon>
                <polygon id="Path" points="27.828 2.205 27.828 9.387 38.79 9.387 38.79 11.358 27.828 11.358 27.828 18.819 40.635 18.819 40.635 20.799 25.857 20.799 25.857 0.234 40.635 0.234 40.635 2.205"></polygon>
                <polygon id="Path" points="50.688 20.808 50.688 2.223 43.353 2.223 43.353 0.243 60.021 0.243 60.021 2.223 52.677 2.223 52.677 20.808 50.697 20.808"></polygon>
                <path d="M78.993,20.808 L76.932,20.808 L74.7,16.308 L63.288,16.308 L61.128,20.808 L59.04,20.808 L69.012,0 L78.993,20.808 Z M73.719,14.328 L68.913,4.554 L64.233,14.328 L73.728,14.328 L73.719,14.328 Z" id="Shape"></path>
            </g>
        </g>
    </g>
</svg>