<?xml version="1.0" encoding="UTF-8"?>
<svg width="146px" height="26px" viewBox="0 0 146 26" version="1.1" xmlns="http://www.w3.org/2000/svg" xmlns:xlink="http://www.w3.org/1999/xlink">
    <title>logo_mono</title>
    <g id="Page-1" stroke="none" stroke-width="1" fill="none" fill-rule="evenodd">
        <g id="logo_mono" fill-rule="nonzero">
            <g id="Group" transform="translate(87.474924, 5.096000)" fill="#767676">
                <path d="M46.5842406,15.3465 L43.7765482,15.3465 L51.150812,0 L58.5250758,15.3465 L55.7173835,15.3465 L54.538283,12.9545 L47.7372836,12.9545 L46.5777262,15.3465 L46.5842406,15.3465 Z M48.9815277,10.3545 L53.2679814,10.3545 L51.0986971,5.967 L48.9750133,10.3545 L48.9815277,10.3545 Z" id="Shape"></path>
                <path d="M10.4685883,7.41 C11.0027663,6.6885 11.3219703,5.798 11.3219703,4.8295 C11.3219703,2.4375 9.3741745,0.494 6.97688737,0.494 L-1.09875873e-23,0.494 L-1.09875873e-23,15.3465 L7.75209709,15.3465 C10.2080135,15.3465 12.1948956,13.364 12.1948956,10.9135 C12.1948956,9.4835 11.5174014,8.216 10.4685883,7.41 Z M6.97688737,3.185 L6.97688737,3.185 C7.8888988,3.185 8.62502227,3.9195 8.62502227,4.8295 C8.62502227,5.7395 7.8888988,6.474 6.97688737,6.474 C6.88568623,6.474 2.80117794,6.474 2.80117794,6.474 L2.80117794,3.1785 L6.97688737,3.1785 L6.97688737,3.185 Z M7.75209709,12.6685 L2.79466357,12.6685 L2.79466357,9.165 L7.75209709,9.165 C8.72273783,9.165 9.50446187,9.9515 9.50446187,10.9135 C9.50446187,11.8755 8.71622341,12.662 7.75209709,12.662 L7.75209709,12.6685 Z" id="Shape"></path>
                <path d="M21.2498661,0.442 C17.1132429,0.442 13.7518294,3.7895 13.7518294,7.9235 C13.7518294,12.0575 17.1067286,15.405 21.2498661,15.405 C25.3930037,15.405 28.7479029,12.0575 28.7479029,7.9235 C28.7479029,3.7895 25.3930037,0.442 21.2498661,0.442 Z M21.2498661,12.584 C18.6701767,12.584 16.5790647,10.4975 16.5790647,7.9235 C16.5790647,5.3495 18.6701767,3.263 21.2498661,3.263 C23.8295556,3.263 25.9206674,5.3495 25.9206674,7.9235 C25.9206674,10.4975 23.8295556,12.584 21.2498661,12.584 L21.2498661,12.584 Z" id="Shape"></path>
                <path d="M39.2164911,10.0555 C41.0339996,9.3145 42.31733,7.5335 42.31733,5.4535 C42.31733,2.7105 40.0894163,0.4875 37.3403533,0.4875 L30.8715866,0.4875 L30.8715866,15.3465 L33.5685347,15.3465 L33.5685347,10.4 L36.1091379,10.4 L39.5812957,15.3465 L42.8449937,15.3465 L39.2099768,10.0555 L39.2164911,10.0555 Z M37.3403533,7.709 L33.5685347,7.709 L33.5685347,3.1915 L37.3403533,3.1915 C38.5911118,3.1915 39.6008388,4.199 39.6008388,5.447 C39.6008388,6.695 38.5911118,7.7025 37.3403533,7.7025 L37.3403533,7.709 Z" id="Shape"></path>
            </g>
            <g id="Group" transform="translate(62.655184, 0.000000)">
                <polygon id="Path" fill="#929292" points="12.4098697 22.425 12.4098697 22.425 12.4098697 15.275 18.6180617 11.7065 18.6180617 18.85"></polygon>
                <polygon id="Path" fill="#929292" points="0 3.575 0 22.425 6.20819203 18.85 6.20819203 0"></polygon>
                <polygon id="Path" fill="#ADADAD" points="12.4098697 22.425 6.20819203 18.85 0 22.425 6.20819203 26"></polygon>
                <polygon id="Path" fill="#ADADAD" points="18.6180617 11.7065 12.4098697 8.1315 6.20819203 11.7065 12.4098697 15.275"></polygon>
            </g>
            <g id="Group" transform="translate(0.000000, 5.414500)" fill="#767676">
                <polygon id="Path" points="1.4331608 0.169 1.45270391 0.169 7.74558274 10.3285 14.0384615 0.169 15.4716223 0.169 15.4716223 15.028 14.0514903 15.028 14.0514903 2.7625 7.74558274 12.948 1.4331608 2.7625 1.4331608 15.028 0 15.028 0 0.169"></polygon>
                <polygon id="Path" points="20.1424236 1.5925 20.1424236 6.7795 28.076923 6.7795 28.076923 8.203 20.1424236 8.203 20.1424236 13.5915 29.4123683 13.5915 29.4123683 15.0215 18.7157773 15.0215 18.7157773 0.169 29.4123683 0.169 29.4123683 1.5925"></polygon>
                <polygon id="Path" points="36.6889166 15.028 36.6889166 1.6055 31.3797073 1.6055 31.3797073 0.1755 43.4443155 0.1755 43.4443155 1.6055 38.1285918 1.6055 38.1285918 15.028 36.695431 15.028"></polygon>
                <path d="M57.1766018,15.028 L55.6848116,15.028 L54.0692486,11.778 L45.8090309,11.778 L44.2455827,15.028 L42.7342495,15.028 L49.9521684,0 L57.1766018,15.028 Z M53.3591826,10.348 L49.8805104,3.289 L46.4930394,10.348 L53.3656969,10.348 L53.3591826,10.348 Z" id="Shape"></path>
            </g>
        </g>
    </g>
</svg>