<?xml version="1.0" encoding="UTF-8"?>
<svg width="202px" height="36px" viewBox="0 0 202 36" version="1.1" xmlns="http://www.w3.org/2000/svg" xmlns:xlink="http://www.w3.org/1999/xlink">
    <title>logo_black</title>
    <defs>
        <linearGradient x1="41.6170579%" y1="24.9848393%" x2="58.3477935%" y2="75.0151607%" id="linearGradient-1">
            <stop stop-color="#FF00FF" offset="0%"></stop>
            <stop stop-color="#9D00FF" offset="100%"></stop>
        </linearGradient>
        <linearGradient x1="55.0468045%" y1="81.5362319%" x2="44.9612254%" y2="18.4637681%" id="linearGradient-2">
            <stop stop-color="#00FFBE" offset="0%"></stop>
            <stop stop-color="#603CF7" offset="100%"></stop>
        </linearGradient>
        <linearGradient x1="62.519685%" y1="62.4823479%" x2="37.5328084%" y2="37.5478757%" id="linearGradient-3">
            <stop stop-color="#00FFBE" offset="0%"></stop>
            <stop stop-color="#508CFF" offset="100%"></stop>
        </linearGradient>
        <linearGradient x1="37.480315%" y1="37.5440977%" x2="62.4671916%" y2="62.4559023%" id="linearGradient-4">
            <stop stop-color="#FF00FF" offset="0%"></stop>
            <stop stop-color="#9D00FF" offset="100%"></stop>
        </linearGradient>
    </defs>
    <g id="Page-1" stroke="none" stroke-width="1" fill="none" fill-rule="evenodd">
        <g id="logo_black" fill-rule="nonzero">
            <g id="Group" transform="translate(121.026950, 7.056000)" fill="#1A1A1A">
                <path d="M64.4521685,21.249 L60.5675531,21.249 L70.7703016,1.59872116e-15 L80.9730502,21.249 L77.0884348,21.249 L75.4570766,17.937 L66.0474746,17.937 L64.4431555,21.249 L64.4521685,21.249 Z M67.7689631,14.337 L73.699536,14.337 L70.6981974,8.262 L67.75995,14.337 L67.7689631,14.337 Z" id="Shape"></path>
                <path d="M14.4839372,10.26 C15.2230055,9.261 15.6646439,8.028 15.6646439,6.687 C15.6646439,3.375 12.9697483,0.684 9.65295377,0.684 L2.56165684e-14,0.684 L2.56165684e-14,21.249 L10.7255042,21.249 C14.123416,21.249 16.8723898,18.504 16.8723898,15.111 C16.8723898,13.131 15.9350348,11.376 14.4839372,10.26 Z M9.65295377,4.41 L9.65295377,4.41 C10.9147778,4.41 11.93325,5.427 11.93325,6.687 C11.93325,7.947 10.9147778,8.964 9.65295377,8.964 C9.52677137,8.964 3.87560236,8.964 3.87560236,8.964 L3.87560236,4.401 L9.65295377,4.401 L9.65295377,4.41 Z M10.7255042,17.541 L3.86658933,17.541 L3.86658933,12.69 L10.7255042,12.69 C12.0684455,12.69 13.1500089,13.779 13.1500089,15.111 C13.1500089,16.443 12.0594324,17.532 10.7255042,17.532 L10.7255042,17.541 Z" id="Shape"></path>
                <path d="M29.4004997,0.612 C23.6772265,0.612 19.0265037,5.247 19.0265037,10.971 C19.0265037,16.695 23.6682135,21.33 29.4004997,21.33 C35.132786,21.33 39.7744958,16.695 39.7744958,10.971 C39.7744958,5.247 35.132786,0.612 29.4004997,0.612 Z M29.4004997,17.424 C25.8313404,17.424 22.9381581,14.535 22.9381581,10.971 C22.9381581,7.407 25.8313404,4.518 29.4004997,4.518 C32.9696591,4.518 35.8628413,7.407 35.8628413,10.971 C35.8628413,14.535 32.9696591,17.424 29.4004997,17.424 L29.4004997,17.424 Z" id="Shape"></path>
                <path d="M54.258433,13.923 C56.773068,12.897 58.5486347,10.431 58.5486347,7.551 C58.5486347,3.753 55.4661788,0.675 51.6626807,0.675 L42.7127432,0.675 L42.7127432,21.249 L46.4441371,21.249 L46.4441371,14.4 L49.9592183,14.4 L54.7631626,21.249 L59.27869,21.249 L54.24942,13.923 L54.258433,13.923 Z M51.6626807,10.674 L46.4441371,10.674 L46.4441371,4.419 L51.6626807,4.419 C53.3931822,4.419 54.7902017,5.814 54.7902017,7.542 C54.7902017,9.27 53.3931822,10.665 51.6626807,10.665 L51.6626807,10.674 Z" id="Shape"></path>
            </g>
            <g id="Group" transform="translate(86.687310, 0.000000)">
                <polygon id="Path" fill="url(#linearGradient-1)" points="17.1698197 31.05 17.1698197 31.05 17.1698197 21.15 25.7592361 16.209 25.7592361 26.1"></polygon>
                <polygon id="Path" fill="url(#linearGradient-2)" points="0 4.95 0 31.05 8.58941638 26.1 8.58941638 0"></polygon>
                <polygon id="Path" fill="url(#linearGradient-3)" points="17.1698197 31.05 8.58941638 26.1 0 31.05 8.58941638 36"></polygon>
                <polygon id="Path" fill="url(#linearGradient-4)" points="25.7592361 16.209 17.1698197 11.259 8.58941638 16.209 17.1698197 21.15"></polygon>
            </g>
            <g id="Group" transform="translate(0.000000, 7.497000)" fill="#1A1A1A">
                <polygon id="Path" points="1.98286632 0.234 2.00990541 0.234 10.7164912 14.301 19.4230769 0.234 21.4059432 0.234 21.4059432 20.808 19.441103 20.808 19.441103 3.825 10.7164912 17.928 1.98286632 3.825 1.98286632 20.808 0 20.808 0 0.234"></polygon>
                <polygon id="Path" points="27.8682848 2.205 27.8682848 9.387 38.8461538 9.387 38.8461538 11.358 27.8682848 11.358 27.8682848 18.819 40.6938247 18.819 40.6938247 20.799 25.8944316 20.799 25.8944316 0.234 40.6938247 0.234 40.6938247 2.205 27.8682848 2.205"></polygon>
                <polygon id="Path" points="50.7613778 20.808 50.7613778 2.223 43.4157594 2.223 43.4157594 0.243 60.1078886 0.243 60.1078886 2.223 52.7532572 2.223 52.7532572 20.808 50.7703909 20.808"></polygon>
                <path d="M79.1073532,20.808 L77.0433696,20.808 L74.8081385,16.308 L63.3796181,16.308 L61.2164912,20.808 L59.1254685,20.808 L69.1119043,0 L79.1073532,20.808 Z M73.8257184,14.328 L69.012761,4.554 L64.3259861,14.328 L73.8347314,14.328 L73.8257184,14.328 Z" id="Shape"></path>
            </g>
        </g>
    </g>
</svg>