<svg width="194" height="32" viewBox="0 0 194 32" fill="none" xmlns="http://www.w3.org/2000/svg">
<g clip-path="url(#clip0_13_5)">
<path d="M20.8315 11.1071L20.3238 13.2175H36.8902L34.7402 21.1842H18.1738L15.8458 31.2348H1.06665L8.56505 0.99054H43.2873L40.6558 11.1071H20.8315Z" fill="white"/>
<path d="M75.5564 20.9533L68.4932 31.2348H36.5078L46.077 0.99054H61.6015L54.5845 20.9468H75.5564V20.9533Z" fill="white"/>
<path d="M100.558 26.4403H88.3372L85.5607 31.2348H71.9817L91.4499 0.99054H106.11L113.49 31.2348H101.356L100.558 26.4403ZM98.955 17.4118L97.8866 11.2786H97.194L93.6196 17.4118H98.955Z" fill="white"/>
<path d="M113.49 21.1907C117.731 21.1907 125.328 21.1907 125.328 21.1907C124.86 23.2154 126.673 23.9672 128.711 24.0528C130.802 24.1848 132.826 23.5319 132.998 22.457C133.176 21.2105 131.316 20.3334 128.296 19.6079C118.647 17.3261 114.895 14.6749 116.557 8.73293C118.852 0.548635 131.29 0.772843 137.852 1.12897C145.205 1.52467 151.78 6.14769 151.088 11.1005C146.26 11.1005 138.96 11.1005 138.96 11.1005C139.369 9.55066 137.41 8.48229 135.504 8.17893C133.862 7.91513 131.25 7.84918 131.052 9.74192C130.808 12.0963 136.566 12.4854 140.404 13.3889C144.592 14.3782 150.039 16.9766 149.096 22.6218C147.85 30.074 139.131 31.6766 128.639 31.4458C116.695 31.1687 113.774 25.1081 113.49 21.1907Z" fill="white"/>
<path d="M179.209 16.8974L185.111 31.2348H171.81L167.924 21.2567H164.251L161.81 31.2348H149.465L157.023 0.99054H169.368L166.869 10.9686H169.89L178.688 0.99054H193.282L179.209 16.8974Z" fill="white"/>
</g>
<defs>
<clipPath id="clip0_13_5">
<rect width="193.524" height="32" fill="white"/>
</clipPath>
</defs>
</svg>
