<svg xmlns="http://www.w3.org/2000/svg" width="87.36" height="20.836" viewBox="0 0 87.36 20.836"><path d="M20.517,19.451H15.672L14.19,15.876H6.116l-1.35,3.575H0L7.28,1.4H12.5ZM9.954,5.71,7.307,12.725h5.56ZM38.117,1.4h3.918V19.451h-4.5V8.173l-4.871,5.665h-.688L27.1,8.173V19.451H22.6V1.4h3.918l5.8,6.7Zm15.323,0c6.592,0,9.98,4.1,9.98,9.054,0,5.189-3.282,9-10.483,9H45.47V1.4ZM49.971,16.142h2.938c4.527,0,5.877-3.072,5.877-5.72,0-3.1-1.668-5.718-5.93-5.718H49.971V16.142Zm22.4-10.465L66.7,0H87.36V20.662l-5.675-5.676V5.676Zm-.007,1.137-5.843,5.843v8.179H74.7l5.843-5.843H72.368Z" fill="#043c39"/></svg>