<svg height="24.9" viewBox="0 0 127.433 24.9" width="127.433" xmlns="http://www.w3.org/2000/svg"><g fill="#032826" fill-rule="evenodd"><path d="m17.113 8.666a9.561 9.561 0 0 1 13.537 1 10.014 10.014 0 0 1 .5 13.537l-7.52 7.52c-1.5-1-4.01-3.008-3.008-5.014 2.005-2.506 4.509-4.509 6.518-7.019 1.5-2.005.5-6.016-2.506-6.518a4.176 4.176 0 0 0 -5.515 4.509c0 2.506 2.005 4.01 3.509 5.515-1.5 1.5-3.509 2.506-3.509 4.509-1.5-2.005-4.01-3.509-5.014-6.016a10.043 10.043 0 0 1 3.008-12.023z" transform="translate(-13.232 -6.322)"/><path d="m74.213 9.923c.5-1.5 2.005-1 3.008-1v18.542h-3.008v-1.5a6.789 6.789 0 0 1 -8.523 0 7.131 7.131 0 0 1 -.5-10.027 6.9 6.9 0 0 1 9.024-1zm-4.513 6.518c-2.506.5-4.509 4.01-2.506 6.518a3.775 3.775 0 0 0 6.518-.5c1.5-2.507-1.007-6.017-4.014-6.017z" transform="translate(-38.245 -7.58)"/><path d="m96 18.7h3.008v1c1-1.5 3.008-1.5 5.014-1-.5 1-1 1.5-1 2.506-2.005-.5-4.01.5-4.01 2.005v7.52c-.506 1.512-2.012 1.512-3.012 1.512z" transform="translate(-54.519 -12.348)"/><path d="m116.223 18.55c5.014-2.005 10.027 3.008 9.024 8.021s-8.021 7.52-11.536 4.01c-4.01-3.509-2.506-11.029 2.506-12.032zm1.5 2.506a4.953 4.953 0 0 0 -3.509 3.509 3.837 3.837 0 0 0 4.01 4.509c2.005 0 4.01-1.5 4.01-3.509 0-2.5-2.505-5.011-4.51-4.509z" transform="translate(-62.209 -12.195)"/><path d="m143 18.767h3.008v1a6.9 6.9 0 0 1 9.024 1 6.538 6.538 0 0 1 -.5 9.525c-2.005 2.506-6.016 2.506-8.523 1v4.509c-.5 1.5-2.005 1.5-3.008 1.5v-18.534zm6.518 2.506c-3.008.5-4.509 4.01-3.008 6.016 1.5 2.506 5.515 2.506 6.518 0 2.004-2.507-.503-6.016-3.51-6.016z" transform="translate(-77.955 -12.412)"/><path d="m177.6 19.13a6.81 6.81 0 0 1 8.021 1c-.5.5-1 1.5-2.005 2.005a3.88 3.88 0 0 0 -6.016 1.5 4.113 4.113 0 0 0 3.509 5.515c1 0 2.005-.5 3.008-.5a3.915 3.915 0 0 1 2.005 2.005c-3.509 3.008-9.525 2.005-11.029-2.506-2.007-3.003-.503-7.016 2.507-9.019z" transform="translate(-93.504 -12.274)"/><path d="m197.648 27.525c-1.5-4.511 2.005-9.525 6.518-9.525a8.008 8.008 0 0 1 7.52 6.518v7.52c-1.5 0-2.506 0-3.509-1-3.509 2.506-9.024.5-10.528-3.509zm6.518-6.518a4.4 4.4 0 0 0 -3.008 6.518c2.005 2.506 6.016 2.005 7.019-.5a4.418 4.418 0 0 0 -4.011-6.016z" transform="translate(-105.031 -12.147)"/><path d="m230 18.725h3.008v1c1.5-2.005 5.014-1.5 7.019.5 2.506-3.008 7.52-2.005 8.523 1.5.5 3.008 0 6.518 0 9.525 0 1-1.5 1-3.008 1 0-3.008.5-6.016 0-9.024a2.293 2.293 0 0 0 -4.509 0v9.034h-3.008a60.669 60.669 0 0 0 -.5-9.525c-.5-2.005-4.01-1.5-4.01.5a54.494 54.494 0 0 0 -.5 9.024h-3.015z" transform="translate(-121.339 -12.37)"/></g></svg>