<svg height="27.434" viewBox="0 0 76.225 27.434" width="76.225" xmlns="http://www.w3.org/2000/svg"><path d="m33.054 70.27c-4.96 5.825-9.716 13.049-9.764 18.448a6.392 6.392 0 0 0 2.186 5.148 10.6 10.6 0 0 0 7.16 2.621c3.587.005 7.149-1.442 9.938-2.558 4.698-1.878 56.62-24.429 56.62-24.429.5-.251.407-.564-.22-.408-.253.063-56.525 15.313-56.525 15.313a12.434 12.434 0 0 1 -3.275.469c-4.325.026-8.174-2.374-8.142-7.43a16.589 16.589 0 0 1 2.022-7.174z" fill="#043c39" fill-rule="evenodd" transform="translate(-23.29 -69.054)"/></svg>