<svg width="56" height="56" viewBox="0 0 56 56" fill="none" xmlns="http://www.w3.org/2000/svg">
<path d="M28 56C43.464 56 56 43.464 56 28C56 12.536 43.464 0 28 0C12.536 0 0 12.536 0 28C0 43.464 12.536 56 28 56Z" fill="#4F46E5"/>
<mask id="mask0_23_58875" style="mask-type:luminance" maskUnits="userSpaceOnUse" x="0" y="0" width="56" height="56">
<path d="M28 56C43.464 56 56 43.464 56 28C56 12.536 43.464 0 28 0C12.536 0 0 12.536 0 28C0 43.464 12.536 56 28 56Z" fill="white"/>
</mask>
<g mask="url(#mask0_23_58875)">
<path d="M0 0H28V56H0V0Z" fill="#3730A3"/>
</g>
<path d="M3 28L20 11V21L13 28H3ZM53 28L36 11V21L43 28H53Z" fill="#E0E7FF"/>
<path d="M36 45L53 28H43L36 35V45ZM20 45L3 28H13L20 35V45Z" fill="#818CF8"/>
<path d="M21 28L28 21L35 28L28 35L21 28Z" fill="#1E1B4B"/>
</svg>
