<svg width="56" height="56" viewBox="0 0 56 56" fill="none" xmlns="http://www.w3.org/2000/svg">
<path d="M28 56C43.464 56 56 43.464 56 28C56 12.536 43.464 0 28 0C12.536 0 0 12.536 0 28C0 43.464 12.536 56 28 56Z" fill="#4F46E5"/>
<path d="M28 7L46.187 17.5V38.5L29.5 48.134C29.0439 48.3973 28.5266 48.5359 28 48.5359C27.4734 48.5359 26.956 48.3973 26.5 48.134L9.81299 38.5V17.5L28 7Z" fill="#1E1B4B"/>
<path d="M28 28L46.186 38.5L29.5 48.134C29.0439 48.3973 28.5266 48.5359 28 48.5359C27.4734 48.5359 26.956 48.3973 26.5 48.134L9.81299 38.5L28 28Z" fill="#3730A3"/>
<path d="M28 17.5L46.186 28L29.5 37.634C29.0439 37.8973 28.5266 38.0359 28 38.0359C27.4734 38.0359 26.956 37.8973 26.5 37.634L9.81299 28L28 17.5Z" fill="#818CF8"/>
<path d="M28 7L46.186 17.5L29.5 27.134C29.0439 27.3973 28.5266 27.5359 28 27.5359C27.4734 27.5359 26.956 27.3973 26.5 27.134L9.81299 17.5L28 7Z" fill="#E0E7FF"/>
</svg>
