<svg width="56" height="56" viewBox="0 0 56 56" fill="none" xmlns="http://www.w3.org/2000/svg">
<path d="M28 56C43.464 56 56 43.464 56 28C56 12.536 43.464 0 28 0C12.536 0 0 12.536 0 28C0 43.464 12.536 56 28 56Z" fill="#4F46E5"/>
<mask id="mask0_23_59003" style="mask-type:luminance" maskUnits="userSpaceOnUse" x="0" y="0" width="56" height="56">
<path d="M28 56C43.464 56 56 43.464 56 28C56 12.536 43.464 0 28 0C12.536 0 0 12.536 0 28C0 43.464 12.536 56 28 56Z" fill="white"/>
</mask>
<g mask="url(#mask0_23_59003)">
<path d="M31.5 34.33C31.5 32.767 32.817 31.5 34.441 31.5H56.5V56.5H31.5V34.33Z" fill="#3730A3"/>
</g>
<path fill-rule="evenodd" clip-rule="evenodd" d="M45.66 31.5C45.8867 30.3471 46.0006 29.1749 46 28C46 18.059 37.941 10 28 10C18.059 10 10 18.059 10 28C10 37.941 18.059 46 28 46C29.1749 46.0006 30.3471 45.8867 31.5 45.66V34.5C31.5 33.7044 31.8161 32.9413 32.3787 32.3787C32.9413 31.8161 33.7044 31.5 34.5 31.5H45.66Z" fill="#E0E7FF"/>
<path d="M31.5 18C31.5 18.9283 31.1313 19.8185 30.4749 20.4749C29.8185 21.1313 28.9283 21.5 28 21.5C27.0717 21.5 26.1815 21.1313 25.5251 20.4749C24.8687 19.8185 24.5 18.9283 24.5 18C24.5 17.0717 24.8687 16.1815 25.5251 15.5251C26.1815 14.8687 27.0717 14.5 28 14.5C28.9283 14.5 29.8185 14.8687 30.4749 15.5251C31.1313 16.1815 31.5 17.0717 31.5 18V18Z" fill="#818CF8"/>
<path d="M21.5 24.5C21.5 25.4283 21.1313 26.3185 20.4749 26.9749C19.8185 27.6313 18.9283 28 18 28C17.0717 28 16.1815 27.6313 15.5251 26.9749C14.8687 26.3185 14.5 25.4283 14.5 24.5C14.5 23.5717 14.8687 22.6815 15.5251 22.0251C16.1815 21.3687 17.0717 21 18 21C18.9283 21 19.8185 21.3687 20.4749 22.0251C21.1313 22.6815 21.5 23.5717 21.5 24.5V24.5Z" fill="#4F46E5"/>
<path d="M24 35.5C24 36.4283 23.6313 37.3185 22.9749 37.9749C22.3185 38.6313 21.4283 39 20.5 39C19.5717 39 18.6815 38.6313 18.0251 37.9749C17.3687 37.3185 17 36.4283 17 35.5C17 34.5717 17.3687 33.6815 18.0251 33.0251C18.6815 32.3687 19.5717 32 20.5 32C21.4283 32 22.3185 32.3687 22.9749 33.0251C23.6313 33.6815 24 34.5717 24 35.5V35.5Z" fill="#1E1B4B"/>
</svg>
