<svg width="56" height="56" viewBox="0 0 56 56" fill="none" xmlns="http://www.w3.org/2000/svg">
<path d="M28 56C43.464 56 56 43.464 56 28C56 12.536 43.464 0 28 0C12.536 0 0 12.536 0 28C0 43.464 12.536 56 28 56Z" fill="#4F46E5"/>
<mask id="mask0_23_58851" style="mask-type:luminance" maskUnits="userSpaceOnUse" x="0" y="0" width="56" height="56">
<path d="M28 56C43.464 56 56 43.464 56 28C56 12.536 43.464 0 28 0C12.536 0 0 12.536 0 28C0 43.464 12.536 56 28 56Z" fill="white"/>
</mask>
<g mask="url(#mask0_23_58851)">
<path d="M0 0H28V56H0V0Z" fill="#3730A3"/>
</g>
<mask id="mask1_23_58851" style="mask-type:luminance" maskUnits="userSpaceOnUse" x="0" y="0" width="56" height="56">
<path d="M28 56C43.464 56 56 43.464 56 28C56 12.536 43.464 0 28 0C12.536 0 0 12.536 0 28C0 43.464 12.536 56 28 56Z" fill="white"/>
</mask>
<g mask="url(#mask1_23_58851)">
<path d="M20 46C19.2044 46 18.4413 45.6839 17.8787 45.1213C17.3161 44.5587 17 43.7956 17 43V13C17 12.2044 17.3161 11.4413 17.8787 10.8787C18.4413 10.3161 19.2044 10 20 10H36C36.7956 10 37.5587 10.3161 38.1213 10.8787C38.6839 11.4413 39 12.2044 39 13V43C39 43.7956 38.6839 44.5587 38.1213 45.1213C37.5587 45.6839 36.7956 46 36 46H20Z" fill="#E0E7FF"/>
</g>
<mask id="mask2_23_58851" style="mask-type:luminance" maskUnits="userSpaceOnUse" x="0" y="0" width="56" height="56">
<path d="M28 56C43.464 56 56 43.464 56 28C56 12.536 43.464 0 28 0C12.536 0 0 12.536 0 28C0 43.464 12.536 56 28 56Z" fill="white"/>
</mask>
<g mask="url(#mask2_23_58851)">
<path d="M20 46C19.2044 46 18.4413 45.6839 17.8787 45.1213C17.3161 44.5587 17 43.7956 17 43V38H39V43C39 43.7956 38.6839 44.5587 38.1213 45.1213C37.5587 45.6839 36.7956 46 36 46H20Z" fill="#818CF8"/>
</g>
<mask id="mask3_23_58851" style="mask-type:luminance" maskUnits="userSpaceOnUse" x="0" y="0" width="56" height="56">
<path d="M28 56C43.464 56 56 43.464 56 28C56 12.536 43.464 0 28 0C12.536 0 0 12.536 0 28C0 43.464 12.536 56 28 56Z" fill="white"/>
</mask>
<g mask="url(#mask3_23_58851)">
<path d="M28 44C29.1046 44 30 43.1046 30 42C30 40.8954 29.1046 40 28 40C26.8954 40 26 40.8954 26 42C26 43.1046 26.8954 44 28 44Z" fill="#1E1B4B"/>
</g>
<mask id="mask4_23_58851" style="mask-type:luminance" maskUnits="userSpaceOnUse" x="0" y="0" width="56" height="56">
<path d="M28 56C43.464 56 56 43.464 56 28C56 12.536 43.464 0 28 0C12.536 0 0 12.536 0 28C0 43.464 12.536 56 28 56Z" fill="white"/>
</mask>
<g mask="url(#mask4_23_58851)">
<path d="M26.354 19.08C26.843 18.7591 27.4151 18.5881 28 18.5881C28.5849 18.5881 29.157 18.7591 29.646 19.08L32.646 21.049C33.062 21.322 33.4035 21.6941 33.6399 22.1319C33.8762 22.5698 34 23.0595 34 23.557V26.443C34 26.9405 33.8762 27.4303 33.6399 27.8681C33.4035 28.3059 33.062 28.678 32.646 28.951L29.646 30.92C29.157 31.2409 28.5849 31.4119 28 31.4119C27.4151 31.4119 26.843 31.2409 26.354 30.92L23.354 28.951C22.938 28.678 22.5965 28.3059 22.3601 27.8681C22.1238 27.4303 22 26.9405 22 26.443V23.557C22 23.0595 22.1238 22.5698 22.3601 22.1319C22.5965 21.6941 22.938 21.322 23.354 21.049L26.354 19.08Z" fill="#3730A3"/>
</g>
</svg>
