<?xml version="1.0" encoding="UTF-8"?>
<svg width="153px" height="25px" viewBox="0 0 153 25" version="1.1" xmlns="http://www.w3.org/2000/svg" xmlns:xlink="http://www.w3.org/1999/xlink">
    <title>logo-black2</title>
    <g id="Page-1" stroke="none" stroke-width="1" fill="none" fill-rule="evenodd">
        <g id="logo-black2" fill-rule="nonzero">
            <path d="M149.14,11.58 C147.1,11.06 146.59,10.8 146.59,10.03 L146.59,9.99 C146.59,9.42 147.11,8.96 148.11,8.96 C148.92,8.96 149.73,9.25 150.59,9.75 C150.79,9.87 151,9.94 151.25,9.94 C151.92,9.94 152.46,9.42 152.46,8.74 C152.46,8.24 152.17,7.88 151.89,7.71 C150.83,7.04 149.58,6.67 148.15,6.67 C145.74,6.67 144.02,8.08 144.02,10.23 L144.02,10.27 C144.02,12.61 145.55,13.27 147.93,13.88 C149.9,14.38 150.31,14.72 150.31,15.38 L150.31,15.41 C150.31,16.1 149.67,16.52 148.61,16.52 C147.46,16.52 146.49,16.11 145.59,15.46 C145.42,15.34 145.18,15.22 144.85,15.22 C144.18,15.22 143.64,15.74 143.64,16.42 C143.64,16.83 143.84,17.2 144.13,17.4 C145.45,18.35 147.01,18.81 148.57,18.81 C151.12,18.81 152.9,17.49 152.9,15.15 L152.9,15.11 C152.89,13.06 151.54,12.2 149.14,11.58 M141.23,16.34 L135.88,16.34 L135.88,13.86 L140.38,13.86 C141.02,13.86 141.54,13.36 141.54,12.71 C141.54,12.06 141.02,11.55 140.38,11.55 L135.88,11.55 L135.88,9.15 L141.14,9.15 C141.78,9.15 142.3,8.65 142.3,8 C142.3,7.35 141.78,6.84 141.14,6.84 L134.6,6.84 C133.87,6.84 133.3,7.41 133.3,8.14 L133.3,17.35 C133.3,18.07 133.87,18.65 134.6,18.65 L141.23,18.65 C141.87,18.65 142.39,18.15 142.39,17.5 C142.4,16.86 141.87,16.34 141.23,16.34 M129.43,6.77 L129.14,6.77 C128.62,6.77 128.25,6.99 127.98,7.43 L124.83,12.56 L121.69,7.45 C121.45,7.06 121.07,6.78 120.51,6.78 L120.22,6.78 C119.49,6.78 118.92,7.35 118.92,8.08 L118.92,17.49 C118.92,18.2 119.48,18.75 120.18,18.75 C120.89,18.75 121.46,18.19 121.46,17.49 L121.46,11.62 L123.7,15.08 C123.97,15.49 124.31,15.74 124.78,15.74 C125.25,15.74 125.59,15.49 125.86,15.08 L128.14,11.57 L128.14,17.46 C128.14,18.17 128.71,18.76 129.42,18.76 C130.15,18.76 130.72,18.19 130.72,17.46 L130.72,8.09 C130.73,7.35 130.15,6.77 129.43,6.77 M109.63,13.7 L111.27,9.8 L112.91,13.7 L109.63,13.7 Z M112.88,7.68 C112.59,7.04 112.09,6.65 111.38,6.65 L111.23,6.65 C110.52,6.65 110,7.04 109.71,7.68 L105.6,16.97 C105.52,17.16 105.45,17.34 105.45,17.53 C105.45,18.2 105.97,18.74 106.65,18.74 C107.19,18.74 107.63,18.44 107.85,17.93 L108.68,15.99 L113.87,15.99 L114.66,17.85 C114.9,18.39 115.3,18.74 115.91,18.74 C116.6,18.74 117.14,18.18 117.14,17.49 C117.14,17.32 117.09,17.15 117.01,16.97 L112.88,7.68 Z M102.71,11.85 L99.74,11.85 C99.12,11.85 98.61,12.35 98.61,12.98 C98.61,13.61 99.11,14.09 99.74,14.09 L101.49,14.09 L101.49,15.78 C100.83,16.25 99.99,16.49 99.04,16.49 C96.95,16.49 95.47,14.91 95.47,12.75 L95.47,12.72 C95.47,10.71 96.97,9.04 98.86,9.04 C99.97,9.04 100.73,9.34 101.44,9.85 C101.63,9.98 101.86,10.12 102.23,10.12 C102.94,10.12 103.51,9.55 103.51,8.84 C103.51,8.34 103.22,7.98 102.97,7.8 C101.91,7.06 100.73,6.65 98.94,6.65 C95.37,6.65 92.75,9.4 92.75,12.75 L92.75,12.79 C92.75,16.28 95.28,18.86 98.96,18.86 C100.73,18.86 102.13,18.27 103.09,17.68 C103.71,17.31 104,16.79 104,16.03 L104,13.16 C104.01,12.42 103.44,11.85 102.71,11.85" id="Shape" fill="#787878"></path>
            <path d="M80.21,0.7 L8.56,0.7 C4,0.7 0.27,4.43 0.27,8.99 L0.27,16.41 C0.27,20.97 4,24.7 8.56,24.7 L80.21,24.7 C84.77,24.7 88.5,20.97 88.5,16.41 L88.5,8.99 C88.5,4.43 84.77,0.7 80.21,0.7" id="Path" fill="#FFBE00"></path>
            <path d="M63.5,15.73 C63,15.73 62.55,15.71 62.09,15.67 C62.07,14.82 62.06,13.88 62.06,12.77 C62.06,11.68 62.06,10.65 62.11,9.68 C62.51,9.63 62.96,9.62 63.33,9.62 C65.32,9.62 66.08,10.34 66.08,12.64 C66.08,15.08 65.29,15.73 63.5,15.73 M63.41,6.89 C62.24,6.89 61.11,6.97 60.26,7.08 C59.29,7.22 58.88,7.72 58.8,8.9 C58.78,9.5 58.77,9.88 58.77,10.38 L58.77,14 C58.77,15.24 58.79,16.09 58.82,16.99 C58.9,17.89 59.32,18.23 60.28,18.31 C61.76,18.42 62.61,18.44 63.37,18.44 C67.7,18.44 69.5,16.67 69.5,12.68 C69.49,8.6 67.7,6.89 63.41,6.89 M75.95,11.21 C74.4,11.03 74.05,10.89 74.05,10.26 C74.05,9.68 74.45,9.46 75.48,9.46 C76.98,9.46 77.64,9.93 78.65,9.93 C79.34,9.93 79.81,9.35 79.81,8.47 C79.81,7.95 79.62,7.58 78.86,7.28 C78.1,6.97 76.83,6.76 75.48,6.76 C72.52,6.76 70.77,8.02 70.77,10.46 C70.77,12.76 71.99,13.74 74.63,14.05 C76.22,14.23 76.62,14.29 76.62,15 C76.62,15.69 76.17,15.87 74.9,15.87 C73.44,15.87 72.86,15.4 71.89,15.4 C71.2,15.4 70.75,16.01 70.75,16.8 C70.75,17.43 70.94,17.83 71.7,18.13 C72.46,18.44 73.69,18.6 75.11,18.6 C77.73,18.6 80.0500466,17.62 80.0500466,14.79 C80.06,12.07 78.46,11.51 75.95,11.21 M55.04,6.89 C53.95,6.89 53.46,7.44 53.46,8.4 C53.46,9.04 53.51,9.88 53.51,11.55 C53.51,12.19 53.52,12.76 53.51,13.22 C52.4,11.64 51.1,9.54 50.45,8.59 C49.52,7.14 49.21,6.89 48.2,6.89 C46.96,6.89 46.46,7.66 46.41,8.63 C46.36,9.4 46.3,9.93 46.3,12.57 L46.3,14.29 C46.3,15.7 46.31,16.36 46.35,17.07 C46.43,17.91 46.93,18.45 48.02,18.45 C48.92,18.45 49.6,18.03 49.6,16.94 C49.6,16.3 49.52,15.43 49.52,13.66 L49.52,12.18 C50.76,14.11 52.13,16.27 52.61,16.83 C53.59,18.16 54.01,18.44 54.96,18.44 C56.12,18.44 56.44,17.84 56.62,16.27 C56.7,15.37 56.75,14 56.75,12.57 C56.75,9.93 56.72,9.4 56.72,8.63 C56.64,7.67 56.35,6.89 55.04,6.89 M23.71,12.14 L22.89,12.14 C22.63,12.14 22.37,12.12 22.13,12.11 C22.11,11.21 22.13,10.31 22.18,9.55 C22.65,9.53 23.21,9.52 23.74,9.52 C24.9,9.52 25.46,9.86 25.46,10.78 C25.46,11.73 24.87,12.14 23.71,12.14 M26.63,13.94 C27.98,13.38 28.66,12.31 28.66,10.75 C28.66,8.26 27.16,6.89 23.77,6.89 C22.48,6.89 21.49,6.94 20.58,7.07 C19.42,7.25 19.03,7.76 18.96,8.87 C18.88,9.64 18.85,11.56 18.85,12.72 C18.85,15.42 18.9,16.18 18.98,17.11 C19.06,17.95 19.56,18.44 20.65,18.44 C21.44,18.44 22.23,18.17 22.23,17.07 C22.23,16.59 22.18,16.09 22.13,14.64 C22.34,14.65 22.55,14.67 22.76,14.67 L23.56,14.67 C23.9,15.3 24.91,16.73 25.52,17.42 C26.16,18.19 26.61,18.43 27.26,18.43 C28.18,18.43 28.87,17.77 28.87,17.11 C28.87,16.71 28.76,16.45 28.44,16.08 C28,15.58 27.39,14.97 26.63,13.94 M43.33,15.74 C41.64,15.74 40.26,15.75 38.97,15.75 C38.95,15.32 38.92,14.71 38.92,14 L40,14 C40.6,14 41.06,13.99 41.56,13.99 L42.48,13.99 C43.52,13.99 43.83,13.56 43.83,12.66 C43.83,11.76 43.46,11.4 42.3,11.4 C41.24,11.4 40.11,11.42 38.92,11.45 C38.93,10.69 38.95,10.13 39,9.63 C40.37,9.61 41.88,9.57 43.17,9.57 C44.2,9.57 44.57,9.14 44.57,8.24 C44.57,7.2 43.91,7 42.87,7 C41.49,7 38.32,7.05 37.11,7.13 C36.02,7.21 35.78,7.93 35.73,8.88 C35.68,9.67 35.62,11.21 35.62,12.58 C35.62,15.28 35.67,15.94 35.75,16.89 C35.83,17.73 36.15,18.26 37.13,18.27 C38.09,18.28 39.29,18.3 40.4,18.3 L43.49,18.3 C44.58,18.3 44.9,17.93 44.9,16.97 C44.89,16.06 44.59,15.74 43.33,15.74 M16.18,7.01 L14.8,7.01 C13.3,7.01 11.53,7.04 10.66,7.14 C9.42,7.27 9.1,7.88 9.02,8.99 C9,9.78 8.99,11.16 8.99,12.58 L8.99,14.3 C8.99,15.71 9,16.37 9.04,17.08 C9.15,18 9.68,18.45 10.78,18.45 C11.68,18.45 12.39,18.08 12.39,16.99 C12.39,16.47 12.36,15.99 12.31,14.58 C13.31,14.55 13.95,14.53 14.8,14.53 L15.75,14.53 C16.71,14.53 17.05,14.08 17.05,13.16 C17.05,12.26 16.71,11.89 15.75,11.89 L14.69,11.89 C13.74,11.89 13.05,11.91 12.31,11.94 C12.31,10.93 12.34,10.36 12.36,9.73 C13.29,9.7 13.98,9.67 15.03,9.67 L16.24,9.67 C17.27,9.67 17.64,9.25 17.64,8.35 C17.63,7.42 17.29,7.01 16.18,7.01 M32.03,6.89 C30.68,6.89 30.31,7.66 30.26,8.63 C30.26,9.4 30.23,9.93 30.23,12.57 L30.23,14.29 C30.23,15.7 30.25,16.33 30.28,17.04 C30.36,17.88 30.84,18.44 32,18.44 C32.9,18.44 33.62,18.01 33.62,16.91 C33.62,16.25 33.52,15.54 33.52,12.81 C33.52,10.14 33.62,9.05 33.62,8.4 C33.62,7.44 33.05,6.89 32.03,6.89" id="Shape" fill="#FFFFFF"></path>
        </g>
    </g>
</svg>