<svg height="408.5" viewBox="0 0 960 408.5" width="960" xmlns="http://www.w3.org/2000/svg" xmlns:xlink="http://www.w3.org/1999/xlink"><linearGradient id="a" gradientUnits="objectBoundingBox" x1=".5" x2=".5" y2="1"><stop offset="0" stop-color="#211f36"/><stop offset="1" stop-color="#373e5c"/></linearGradient><path d="m265.274 371.59h-222.11c-11.1 0-19.043-9.633-19.081-23.778q-.158-65.85-.019-131.712c.01-9.8 3.954-16.638 10.455-21.418 14.725-10.807 29.383-21.748 44.146-32.457 7.248-5.257 10.56-13.069 10.541-23.582-.048-33.313.019-66.626-.038-99.939-.01-7.787 1.867-14.389 6.549-19.5a16.881 16.881 0 0 1 11.393-5.648c.479-.037.957-.037 1.436-.037h378.636c11.633 0 21.235 8.692 24.912 22.714a41.114 41.114 0 0 1 1.273 10.183q.1 146.242.029 292.471c0 18.619-11.4 32.677-26.262 32.677q-110.94.018-221.87 0z" fill="#d9d9f7" transform="translate(446.574 36.909)"/><path d="m277.542 13.52h226.917c11.337 0 19.455 9.633 19.494 23.778q.161 65.85.02 131.712c-.01 9.8-4.04 16.638-10.681 21.418-15.044 10.807-30.019 21.748-45.1 32.457-7.4 5.257-10.789 13.069-10.769 23.582.049 33.313-.02 66.626.039 99.939.01 7.787-1.907 14.389-6.69 19.5a17.388 17.388 0 0 1 -11.64 5.648c-.489.037-.978.037-1.467.037h-386.834c-11.884 0-21.695-8.692-25.451-22.714a40.29 40.29 0 0 1 -1.3-10.183q-.1-146.241-.029-292.471c0-18.619 11.65-32.677 26.83-32.677q113.341-.018 226.673 0z" fill="url(#a)" transform="translate(-24.019 -13.52)"/></svg>