<?xml version="1.0" encoding="UTF-8"?>
<svg width="116px" height="24px" viewBox="0 0 116 24" version="1.1" xmlns="http://www.w3.org/2000/svg" xmlns:xlink="http://www.w3.org/1999/xlink">
    <title>todayis_BI</title>
    <g id="Page-1" stroke="none" stroke-width="1" fill="none" fill-rule="evenodd">
        <g id="todayis_BI">
            <g id="Group-3" fill-rule="nonzero">
                <path d="M0,12 C0,4.902 5.373,0 12,0 C18.627,0 24,4.902 24,12 C24,19.098 18.627,24 12,24 C5.373,24 0,19.098 0,12 Z" id="Path" fill="#FF6347"></path>
                <path d="M13.713,19.695 C13.659,20.115 12.354,22.281 12.252,22.395 C12.1912148,22.4740185 12.0994594,22.5231732 12,22.53 L12,22.53 C11.9005406,22.5231732 11.8087852,22.4740185 11.748,22.395 C11.646,22.275 10.341,20.109 10.287,19.695 C6.477,19.023 4.179,16.062 4.179,12 C4.179,7.362 7.221,4.161 12,4.161 C16.779,4.161 19.821,7.362 19.821,12 C19.821,16.062 17.523,19.023 13.713,19.695 Z" id="Path" fill="#FFFFFF"></path>
                <path d="M8.15592039,9.47994713 L13.4539204,9.47994713 C13.583155,9.47994713 13.6879204,9.5847125 13.6879204,9.71394713 L13.6879204,11.8619471 C13.6879204,11.9911818 13.583155,12.0959471 13.4539204,12.0959471 L8.15592039,12.0959471 C7.4381924,12.0959773 6.85450505,11.5176449 6.84786527,10.7999471 L6.84786527,10.7999471 C6.84471863,10.4509695 6.98111062,10.1151834 7.22675609,9.86728432 C7.47240156,9.61938523 7.80692804,9.47994713 8.15592039,9.47994713 Z" id="Path" fill="#6D6DDF" transform="translate(10.267893, 10.787947) rotate(-145.000000) translate(-10.267893, -10.787947) "></path>
                <path d="M11.5937419,9.51616404 L17.5337419,9.51616404 C18.1036998,9.51616404 18.5657419,9.97820618 18.5657419,10.548164 C18.5657419,11.1181219 18.1036998,11.580164 17.5337419,11.580164 L11.5937419,11.580164 C11.0237841,11.580164 10.5617419,11.1181219 10.5617419,10.548164 C10.5617419,9.97820618 11.0237841,9.51616404 11.5937419,9.51616404 Z" id="Rectangle" fill="#191970" transform="translate(14.563742, 10.548164) rotate(150.000000) translate(-14.563742, -10.548164) "></path>
            </g>
            <g id="Group" transform="translate(31.200000, 4.800000)" fill="#FFFFFF">
                <path d="M10.8277,1.4404 C10.8191456,2.16190044 10.2310497,2.7418767 9.50950003,2.7404 L6.85490003,2.7404 L6.85490003,13 C6.82205948,13.7738464 6.18514297,14.3843067 5.41060003,14.3843067 C4.63605709,14.3843067 3.99914058,13.7738464 3.96630003,13 L3.96630003,2.7508 L1.31170003,2.7508 C0.843074747,2.75080001 0.410047126,2.5007914 0.175734482,2.09495001 C-0.0585781608,1.68910861 -0.0585781608,1.18909139 0.175734482,0.783249992 C0.410047126,0.377408596 0.843074747,0.127397422 1.31170003,0.127397422 L9.50950003,0.127397422 C9.85841905,0.126709755 10.1933214,0.264655675 10.440532,0.510891087 C10.6877426,0.757126499 10.8270111,1.09148098 10.8277,1.4404 Z" id="Path"></path>
                <path d="M11.4907,7.28 C11.4907,2.9744 14.7329,0 18.7343,0 C22.7357,0 25.9779,2.9744 25.9779,7.28 C25.9779,11.5856 22.7357,14.56 18.7343,14.56 C14.7329,14.56 11.4907,11.5856 11.4907,7.28 Z M23.0893,7.28 C23.0893,4.5266 21.1393,2.6234 18.7343,2.6234 C16.3293,2.6234 14.3793,4.5266 14.3793,7.28 C14.3793,10.0334 16.3293,11.9366 18.7343,11.9366 C21.1393,11.9366 23.0893,10.0334 23.0893,7.28 L23.0893,7.28 Z" id="Shape"></path>
                <path d="M40.2779,7.28 C40.2779,11.5102 37.1995,14.4326025 33.1617,14.4326025 L29.8259,14.4326025 C29.0319833,14.4340511 28.3860206,13.7938974 28.3803,13 L28.3803,1.56 C28.383167,0.764068872 29.029965,0.120760717 29.8259,0.12219759 L33.1617,0.12219759 C37.1995,0.1274 40.2779,3.0498 40.2779,7.28 Z M37.3893,7.28 C37.3893,4.602 35.6031,2.7508 33.1617,2.7508 L31.2715,2.7508 L31.2715,11.8092 L33.1617,11.8092 C35.6135,11.8092 37.3893,9.958 37.3893,7.28 L37.3893,7.28 Z" id="Shape"></path>
                <path d="M53.1791,14.4118 C52.441747,14.7124111 51.5996763,14.3649266 51.2889,13.6318 L50.5271,11.7572 L44.9553,11.7572 L44.1935,13.6292 C44.0109325,14.1236501 43.5724537,14.4785718 43.050819,14.55413 C42.5291842,14.6296883 42.0080199,14.4137701 41.6926583,13.9914444 C41.3772967,13.5691188 41.3182953,13.0080914 41.5389,12.5294 L46.3593,0.9516 C46.598848,0.402849637 47.1465089,0.0534974644 47.7451,0.0676 C48.3426992,0.0501936079 48.8897838,0.40115357 49.1231,0.9516 L53.9643,12.5294 C54.2488976,13.2658933 53.902699,14.0958528 53.1791,14.4118 L53.1791,14.4118 Z M49.4585,9.1312 L47.7425,4.9088 L46.0135,9.1312 L49.4585,9.1312 Z" id="Shape"></path>
                <path d="M64.3201,2.236 L60.5423,8.5462 L60.5423,13 C60.5094595,13.7738464 59.872543,14.3843067 59.098,14.3843067 C58.3234571,14.3843067 57.6865406,13.7738464 57.6537,13 L57.6537,8.5462 L53.8759,2.236 C53.4849069,1.55478428 53.7105708,0.685961224 54.3836504,0.281122602 C55.05673,-0.123716021 55.9299851,0.0841378876 56.3485,0.7488 L59.0967,5.5952 L61.8449,0.7488 C62.1105627,0.306648106 62.5919304,0.0398122666 63.1076765,0.0488069603 C63.6234226,0.0578016539 64.0951931,0.341260373 64.3452765,0.79240696 C64.5953599,1.24355355 64.5857627,1.79384811 64.3201,2.236 L64.3201,2.236 Z" id="Path"></path>
                <path d="M67.1515,13 L67.1515,1.56 C67.1843406,0.786153591 67.8212571,0.175693311 68.5958,0.175693311 C69.370343,0.175693311 70.0072595,0.786153591 70.0401,1.56 L70.0401,13 C70.0072595,13.7738464 69.370343,14.3843067 68.5958,14.3843067 C67.8212571,14.3843067 67.1843406,13.7738464 67.1515,13 Z" id="Path"></path>
                <path d="M77.8505,14.56 C76.1085,14.5808 74.2599,13.988 73.3889,13.3328 C72.8633369,13.0160215 72.6157166,12.3859991 72.784942,11.7961449 C72.9541675,11.2062907 73.4981329,10.8033692 74.1117,10.8134 C74.3339611,10.8216481 74.5515814,10.8793841 74.7487,10.9824 C75.5989,11.427 76.4907,11.8924 77.7855,11.9366 C79.4235,11.999 80.2945,11.3438 80.2945,10.5586 C80.2945,8.1042 72.6037,9.5004 72.6062994,4.3394 C72.6062994,1.3546 75.1517,0.0208 77.8297,0.0208 C79.4132833,0.0711586466 80.9542283,0.546193558 82.2913,1.3962 C82.6708096,1.62379904 82.9043185,2.03268588 82.9075,2.4752 C82.8796866,3.1477987 82.3274699,3.67939312 81.6543,3.6816 C81.4382412,3.67602363 81.2267738,3.61802624 81.0381,3.5126 C79.9331,2.9198 79.2727,2.6676 77.7647,2.6676 C76.2983,2.6676 75.4923,3.3644 75.4975,4.186 C75.4975,6.773 83.2039,5.4184 83.1935105,10.3714 C83.1935105,13.312 80.4427,14.5314 77.8505,14.56 L77.8505,14.56 Z" id="Path"></path>
            </g>
        </g>
    </g>
</svg>