<svg width="106" height="20" viewBox="0 0 106 20" fill="none" xmlns="http://www.w3.org/2000/svg">
<path fill-rule="evenodd" clip-rule="evenodd" d="M6.92 9.928C7.12 9.84 7.26 9.776 7.336 9.736C7.416 9.696 7.552 9.6 7.752 9.444C8.34 8.996 8.636 8.316 8.636 7.404C8.636 6.648 8.376 5.964 7.856 5.364C7.568 5.04 7.136 4.784 6.568 4.596C5.996 4.408 5.316 4.312 4.532 4.312H0V16.008H5.092C6.688 16.008 7.808 15.644 8.452 14.92C9.004 14.296 9.284 13.576 9.284 12.76C9.284 12.024 9.072 11.408 8.644 10.912C8.216 10.416 7.64 10.088 6.92 9.932V9.928ZM2.596 6.516H3.844C4.608 6.516 5.152 6.6 5.476 6.768C5.796 6.936 5.96 7.28 5.96 7.796C5.96 8.312 5.784 8.652 5.436 8.808C5.088 8.964 4.552 9.044 3.832 9.044H2.6V6.516H2.596ZM6.048 13.516C5.676 13.7 5.12 13.792 4.376 13.792H2.596V11.1H4.128C4.992 11.1 5.62 11.188 6.016 11.36C6.408 11.532 6.608 11.892 6.608 12.432C6.608 12.972 6.424 13.336 6.052 13.52L6.048 13.516ZM20.896 8.188C20.896 6.828 20.512 5.84 19.74 5.228C18.968 4.616 17.68 4.308 15.872 4.308H11.464V16.004H14.06V12.272H15.856L18.432 16.004H21.628L18.684 11.82C20.156 11.272 20.896 10.064 20.896 8.188ZM17.768 9.576C17.448 9.864 16.844 10.012 15.956 10.012H14.06V6.548H16.008C16.84 6.548 17.42 6.664 17.752 6.9C18.084 7.136 18.252 7.568 18.252 8.196C18.252 8.824 18.092 9.288 17.768 9.576ZM27.068 4.308L22.044 16.004H24.804L25.884 13.476H30.756L31.836 16.004H34.596L29.572 4.308H27.064H27.068ZM26.868 11.184L28.332 7.788L29.78 11.184H26.868ZM50.064 11.836L44.36 4.308H41.932V16.004H44.528V8.676L50.068 16.004H52.664V4.304H50.068V11.832L50.064 11.836ZM61.036 6.4C62.256 6.4 63.276 6.912 64.096 7.94L65.712 6.1C64.428 4.636 62.828 3.908 60.92 3.908C59.212 3.908 57.768 4.488 56.588 5.648C55.404 6.808 54.816 8.256 54.816 9.988C54.816 11.72 55.396 13.16 56.552 14.296C57.708 15.432 59.188 16.004 60.976 16.004C62.764 16.004 64.324 15.256 65.64 13.76L63.976 12.036C63.164 13.052 62.124 13.56 60.848 13.56C59.916 13.56 59.124 13.232 58.472 12.572C57.82 11.916 57.488 11.04 57.488 9.952C57.488 8.864 57.836 8 58.528 7.36C59.22 6.72 60.056 6.396 61.032 6.396L61.036 6.4ZM74.912 9.196H70.288V4.312H67.692V16.008H70.288V11.408H74.912V16.008H77.508V4.304H74.912V9.188V9.196ZM80.368 16.004H82.964V4.304H80.368V15.996V16.004ZM88.416 4.312H85.82V16.008H93.372V13.684H88.416V4.304V4.312ZM104.152 5.844C103.044 4.824 101.452 4.312 99.38 4.312H95.272V16.008H99.248C101.464 16.008 103.116 15.48 104.196 14.42C105.28 13.36 105.82 11.924 105.82 10.104C105.82 8.284 105.264 6.864 104.156 5.844H104.152ZM102.248 12.792C101.608 13.396 100.696 13.696 99.512 13.696H97.864V6.584H99.312C100.632 6.584 101.612 6.892 102.248 7.512C102.888 8.132 103.204 9.016 103.204 10.164C103.204 11.316 102.888 12.188 102.248 12.792ZM38.584 13.024H36.176C36.012 13.024 35.884 13.156 35.884 13.316V15.708C35.884 15.872 36.016 16 36.176 16H38.584C38.748 16 38.876 15.868 38.876 15.708V13.316C38.876 13.152 38.744 13.024 38.584 13.024ZM36.22 10.944H38.492C38.648 10.944 38.768 10.82 38.768 10.668V0.276C38.768 0.12 38.644 0 38.492 0H36.22C36.064 0 35.944 0.124 35.944 0.276V10.66C35.944 10.812 36.068 10.936 36.22 10.936V10.944Z" fill="black"/>
</svg>
