<svg width="114" height="24" viewBox="0 0 114 24" fill="none" xmlns="http://www.w3.org/2000/svg">
<mask id="mask0_1217_8175" style="mask-type:luminance" maskUnits="userSpaceOnUse" x="0" y="0" width="114" height="24">
<path d="M113.129 0.479492H0.272705V23.5195H113.129V0.479492Z" fill="white"/>
</mask>
<g mask="url(#mask0_1217_8175)">
<path d="M15.5167 17.6743C15.4807 16.8463 15.4435 15.9847 15.4039 15.1615C15.0883 15.5215 14.7211 15.8347 14.3119 16.0879L10.1971 14.7427C8.00226 16.2187 4.73468 18.2515 2.67188 19.5895C6.96906 23.0239 13.1059 19.6147 13.1059 19.6147L13.6171 19.2031H15.5827C15.5611 18.7159 15.5395 18.2011 15.5167 17.6755V17.6743Z" fill="white"/>
<path d="M17.1658 6.81028C16.363 7.32148 15.5626 7.83508 14.8486 8.29828C15.3586 8.71948 15.7786 9.24388 16.0798 9.83908L15.2398 12.1803C15.4222 14.8491 15.535 18.3819 15.6754 21.1203C20.7982 19.1163 20.9146 12.0963 20.9146 12.0963L17.1658 6.80908V6.81028Z" fill="white"/>
<path d="M10.4817 4.38884L9.97048 4.80044H8.00488C8.06248 6.11204 8.12128 7.51844 8.18368 8.84084C8.49928 8.48084 8.86648 8.16764 9.27568 7.91444L13.3905 9.25965C14.5497 8.47845 15.8877 7.62524 17.1669 6.80804C18.5613 5.91884 19.9593 5.03324 20.9157 4.41284C16.6185 0.978445 10.4817 4.38764 10.4817 4.38764V4.38884Z" fill="white"/>
<path d="M7.50666 14.162L8.34666 11.8208C8.16426 9.15207 8.05146 5.61927 7.91106 2.88086C2.78708 4.88487 2.67188 11.9048 2.67188 11.9048L6.42066 17.192C7.22226 16.6808 8.02386 16.1672 8.73786 15.704C8.22786 15.2828 7.80786 14.7584 7.50666 14.1632V14.162Z" fill="white"/>
<path d="M44.9372 8.01155L46.3532 4.60355L45.8276 3.36035C43.1024 4.52675 37.3652 4.54715 33.8024 4.42835L33.7856 3.55595C33.206 3.50795 31.634 3.40115 31.034 3.36035L29.5472 4.44035C29.8256 4.81235 29.0852 19.6732 29.072 20.6404C29.4596 20.6404 33.884 20.6404 34.1108 20.6404V20.6368L44.936 20.5684L46.352 17.1604L45.8264 15.9172C43.1612 17.0584 37.616 17.1028 34.0412 16.9936L33.98 13.7824C37.5608 13.2112 40.604 12.9244 43.9064 15.1492V9.09275C40.5992 11.3236 37.4996 11.0368 33.9164 10.444L33.8672 7.83395C38.7692 8.26355 44.936 8.01275 44.936 8.01275L44.9372 8.01155Z" fill="white"/>
<path d="M90.2973 8.01155L91.7133 4.60355L91.1877 3.36035C88.4625 4.52675 82.7253 4.54715 79.1625 4.42835L79.1457 3.55595C78.5661 3.50795 76.9941 3.40115 76.3941 3.36035L74.9073 4.44035C75.1857 4.81235 74.4453 19.6732 74.4321 20.6404C74.8197 20.6404 79.2441 20.6404 79.4709 20.6404V20.6368L90.2961 20.5684L91.7121 17.1604L91.1865 15.9172C88.5213 17.0584 82.9761 17.1028 79.4013 16.9936L79.3401 13.7824C82.9209 13.2112 85.9641 12.9244 89.2665 15.1492V9.09275C85.9593 11.3236 82.8597 11.0368 79.2765 10.444L79.2273 7.83395C84.1293 8.26355 90.2961 8.01275 90.2961 8.01275L90.2973 8.01155Z" fill="white"/>
<path d="M109.721 20.6404H112.885L112.56 3.55595C111.98 3.50795 110.409 3.40115 109.808 3.36035L108.321 4.44035C108.543 5.63675 108.159 12.5068 108.121 13.8568L97.0411 3.36035L95.4727 3.55595C95.0887 4.07555 94.2655 5.18915 93.8767 5.71595L93.9151 18.4792L96.9391 20.6392H98.2879C97.3519 16.2784 97.0459 11.8912 96.9703 8.62835L109.721 20.6392V20.6404Z" fill="white"/>
<path d="M72.0981 7.58355C72.1473 7.58595 73.0761 4.67955 73.0761 4.67955L72.2049 3.88995C67.4385 3.21075 59.2797 3.50835 59.3613 3.51435C55.6257 6.13995 56.9169 11.8207 56.9169 11.8207L58.3329 15.2287C61.4913 13.0975 64.0221 13.3699 67.4781 13.6999C67.6173 14.0911 68.1837 16.0219 68.3133 16.4575C65.0457 16.7491 59.7201 17.4271 56.2077 15.9691L55.6821 17.2123L57.1353 20.6395H69.5565C70.0677 20.2951 70.4385 19.8739 70.8129 19.4563L70.8045 19.4347C73.6797 14.4115 71.6925 12.0055 70.5753 8.96955C69.3393 10.8331 64.1337 11.3239 61.4733 10.6351C61.3005 10.1504 60.7065 8.09595 60.5493 7.56435C64.2669 6.83715 69.8253 7.44915 72.0969 7.58235L72.0981 7.58355Z" fill="white"/>
<path d="M51.9571 3.48635L50.1175 3.36035L48.6307 4.44035C48.9091 4.81235 48.1687 19.6732 48.1555 20.6404H53.1943L52.8691 3.55595L51.9571 3.48635Z" fill="white"/>
</g>
</svg>
