<svg width="42" height="41" viewBox="0 0 42 41" fill="none" xmlns="http://www.w3.org/2000/svg">
<path fill-rule="evenodd" clip-rule="evenodd" d="M35.5997 25.3461C36.6002 26.7581 37.4921 28.1395 38.2554 29.469C41.0728 34.3696 41.8401 38.0391 40.4168 39.8008C39.8377 40.5187 38.9286 40.875 37.7359 40.875C36.0012 40.875 33.6636 40.1212 30.8528 38.6308C26.2186 36.1738 20.7945 32.003 15.5785 26.8871C4.54355 16.0634 -1.83333 4.78101 1.06092 1.19927C2.48418 -0.562355 5.88067 -0.146213 10.6249 2.36526C13.1931 3.7267 16.0039 5.61728 18.8875 7.90009H37.9294C38.4449 7.90009 38.8637 8.37472 38.8637 8.95838V13.8923C38.8637 14.4772 38.4462 14.9506 37.9294 14.9506H15.666C12.2271 14.9506 9.43886 11.7943 9.43886 7.90141H16.6466C15.2843 6.92687 13.9697 6.07996 12.7293 5.38728C10.4129 4.09231 8.52181 3.42623 7.24167 3.42623C6.55919 3.42623 6.0503 3.61502 5.74153 3.99792C4.85099 5.1001 5.60107 7.82829 7.80223 11.4845C9.56873 14.4175 12.1078 17.6947 15.1187 20.9494C15.9602 19.4205 17.4576 18.4034 19.1672 18.4034H38.1056C38.5231 18.4034 38.8623 18.7876 38.8623 19.2609V24.4886C38.8623 24.962 38.5231 25.3461 38.1056 25.3461H35.5997ZM35.8594 35.5649C36.5406 35.5649 37.0468 35.3787 37.3503 35.0025H37.349C38.2395 33.9003 37.4894 31.1721 35.2883 27.5159C34.8629 26.8113 34.3938 26.0853 33.8849 25.3461H23.8491C22.9665 25.3461 22.2496 26.1572 22.2496 27.1582V27.811C28.2302 32.9044 33.2872 35.5649 35.8594 35.5649ZM14.3978 35.0562V27.6694C14.4428 27.7139 14.4879 27.7589 14.5329 27.8041C14.5886 27.86 14.6442 27.916 14.7012 27.9711C17.1992 30.4215 19.745 32.659 22.2483 34.6108V35.0562C22.2483 35.5295 21.909 35.9137 21.4916 35.9137H15.1544C14.737 35.9137 14.3978 35.5295 14.3978 35.0562Z" fill="white"/>
</svg>
