<svg width="84" height="42" viewBox="0 0 84 42" fill="none" xmlns="http://www.w3.org/2000/svg">
<path d="M58.1044 5.42514C59.8644 7.00014 60.9204 9.10014 61.0965 11.5501C61.0965 11.9001 61.0965 12.0751 61.0965 12.4251V28.0001C61.0965 29.0501 60.7444 29.9251 60.0404 30.6251C59.3364 31.3251 58.4564 31.6751 57.4004 31.6751H53.7043V9.27514C53.7043 8.22514 53.3523 7.17514 52.4722 6.47514C51.7682 5.60014 50.7122 5.25014 49.6562 5.25014H49.3042C48.2481 5.25014 47.1921 5.60014 46.4881 6.47514C45.7841 7.17514 45.2561 8.22514 45.2561 9.27514V28.1751C45.2561 29.2251 44.9041 30.1001 44.2 30.8001C43.496 31.5001 42.616 31.8501 41.56 31.8501H37.8639V9.45014C37.8639 8.40014 37.5119 7.35014 36.6319 6.65014C35.9278 5.95014 34.8718 5.42514 33.8158 5.60014H33.4638C32.4078 5.60014 31.3517 5.95014 30.6477 6.82514C29.9437 7.52514 29.4157 8.57514 29.4157 9.62514V32.0251H26.7756C25.5436 32.0251 24.4876 31.5001 23.6075 30.6251C22.7275 29.7501 22.1995 28.7001 22.3755 27.4751V14.7001C22.3755 11.5501 23.4315 8.92514 25.7196 6.65014C28.0077 4.37514 30.6477 3.32514 33.8158 3.32514H35.9278C38.3919 3.32514 40.504 4.20014 42.44 5.77514C44.5521 4.02514 46.8401 3.32514 49.6562 3.32514H51.7682C54.0563 2.97514 56.1683 3.85014 58.1044 5.42514Z" fill="white"/>
<path d="M7.76709 31.6751H14.9833V12.6001H7.76709V31.6751Z" fill="white"/>
<path d="M14.9833 2.9751H13.2232C11.6392 2.9751 10.4072 3.5001 9.35113 4.5501C8.2951 5.7751 7.76709 7.0001 7.76709 8.5751V10.1501H15.1593V2.9751H14.9833Z" fill="white"/>
<path d="M75.5287 31.6751H68.3125V12.6001H75.7047L75.5287 31.6751Z" fill="white"/>
<path d="M68.3125 2.9751H70.2486C71.8326 2.9751 73.0646 3.5001 74.1206 4.5501C75.1767 5.6001 75.7047 7.0001 75.7047 8.5751V10.1501H68.3125V2.9751Z" fill="white"/>
<path d="M8.2951 34.4751V39.0251H7.76709V34.4751H8.2951Z" fill="white"/>
<path d="M9.35107 36.75C9.35107 36.4 9.35107 36.225 9.35107 35.875H9.87909V36.4C10.0551 36.05 10.4071 35.875 10.9351 35.875C11.2871 35.875 11.9911 36.05 11.9911 37.1V38.85H11.2871V37.1C11.2871 36.575 11.1111 36.225 10.5831 36.225C10.2311 36.225 9.87909 36.4 9.87909 36.75V36.925V38.675H9.35107V36.75Z" fill="white"/>
<path d="M13.3993 35.3501V36.0501H14.1033V36.4001H13.3993V37.9751C13.3993 38.3251 13.5753 38.5001 13.7513 38.5001C13.9273 38.5001 13.9273 38.5001 14.1033 38.5001V38.8501C13.9273 38.8501 13.7513 38.8501 13.5753 38.8501C13.3993 38.8501 13.0473 38.8501 13.0473 38.6751C12.8713 38.5001 12.8713 38.3251 12.8713 37.9751V36.4001H12.3433V36.0501H12.8713V35.5251L13.3993 35.3501Z" fill="white"/>
<path d="M14.9834 37.625C14.9834 38.325 15.5114 38.675 16.0394 38.675C16.3914 38.675 16.7434 38.675 16.9194 38.5L17.0954 38.85C16.9194 38.85 16.5674 39.025 16.0394 39.025C15.1594 39.025 14.6313 38.5 14.6313 37.625C14.6313 36.75 15.1594 36.05 16.0394 36.05C16.9194 36.05 17.2714 36.925 17.2714 37.45C17.2714 37.625 17.2714 37.625 17.2714 37.625H14.9834ZM16.5674 37.1C16.5674 36.75 16.3914 36.225 15.8634 36.225C15.3354 36.225 15.1594 36.75 14.9834 37.1H16.5674Z" fill="white"/>
<path d="M17.7993 36.925C17.7993 36.575 17.7993 36.225 17.7993 36.05H18.3273V36.575C18.5033 36.225 18.8553 35.875 19.2074 35.875H19.3834V36.4H19.2074C18.8553 36.4 18.5033 36.75 18.5033 37.1V37.275V38.85H17.7993V36.925Z" fill="white"/>
<path d="M19.7354 36.75C19.7354 36.4 19.7354 36.225 19.7354 35.875H20.2634V36.4C20.4394 36.05 20.7914 35.875 21.3194 35.875C21.6714 35.875 22.3754 36.05 22.3754 37.1V38.85H21.8474V37.1C21.8474 36.575 21.6714 36.225 21.1434 36.225C20.7914 36.225 20.4394 36.4 20.4394 36.75V36.925V38.675H19.7354V36.75Z" fill="white"/>
<path d="M23.4316 37.625C23.4316 38.325 23.9596 38.675 24.4876 38.675C24.8396 38.675 25.1916 38.675 25.3676 38.5L25.5437 38.85C25.3676 38.85 25.0156 39.025 24.4876 39.025C23.6076 39.025 23.0796 38.5 23.0796 37.625C23.0796 36.75 23.6076 36.05 24.4876 36.05C25.3676 36.05 25.7197 36.925 25.7197 37.45C25.7197 37.625 25.7197 37.625 25.7197 37.625H23.4316ZM25.0156 37.1C25.0156 36.75 24.8396 36.225 24.3116 36.225C23.7836 36.225 23.6076 36.75 23.4316 37.1H25.0156Z" fill="white"/>
<path d="M26.7758 35.3501V36.0501H27.4798V36.4001H26.7758V37.9751C26.7758 38.3251 26.9518 38.5001 27.1278 38.5001C27.3038 38.5001 27.3038 38.5001 27.4798 38.5001V38.8501C27.3038 38.8501 27.1278 38.8501 26.9518 38.8501C26.7758 38.8501 26.4237 38.8501 26.4237 38.6751C26.2477 38.5001 26.2477 38.3251 26.2477 37.9751V36.4001H25.7197V36.0501H26.2477V35.5251L26.7758 35.3501Z" fill="white"/>
<path d="M49.8322 34.4751V39.0251H49.1282V34.4751H49.8322Z" fill="white"/>
<path d="M50.8882 36.75C50.8882 36.4 50.8882 36.225 50.8882 35.875H51.4162V36.4C51.5922 36.05 51.9442 35.875 52.4722 35.875C52.8242 35.875 53.5282 36.05 53.5282 37.1V38.85H53.0002V37.1C53.0002 36.575 52.8242 36.225 52.2962 36.225C51.9442 36.225 51.5922 36.4 51.5922 36.75V36.925V38.675H51.0642V36.75" fill="white"/>
<path d="M54.7604 35.3501V36.0501H55.4644V36.4001H54.7604V37.9751C54.7604 38.3251 54.9364 38.5001 55.1124 38.5001C55.2884 38.5001 55.2884 38.5001 55.4644 38.5001V38.8501C55.2884 38.8501 55.1124 38.8501 54.9364 38.8501C54.7604 38.8501 54.4084 38.8501 54.4084 38.6751C54.2324 38.5001 54.2324 38.3251 54.2324 37.9751V36.4001H53.7043V36.0501H54.2324V35.5251L54.7604 35.3501Z" fill="white"/>
<path d="M56.5205 37.625C56.5205 38.325 57.0485 38.675 57.5765 38.675C57.9285 38.675 58.2805 38.675 58.4565 38.5L58.6325 38.85C58.4565 38.85 58.1045 39.025 57.5765 39.025C56.6965 39.025 56.1685 38.5 56.1685 37.625C56.1685 36.75 56.6965 36.05 57.5765 36.05C58.4565 36.05 58.8085 36.925 58.8085 37.45C58.8085 37.625 58.8085 37.625 58.8085 37.625H56.5205ZM58.1045 37.1C58.1045 36.75 57.9285 36.225 57.4005 36.225C56.8725 36.225 56.6965 36.75 56.5205 37.1H58.1045Z" fill="white"/>
<path d="M59.1604 36.925C59.1604 36.575 59.1604 36.225 59.1604 36.05H59.6884V36.575C59.8644 36.225 60.2164 35.875 60.5684 35.875H60.7444V36.4H60.5684C60.2164 36.4 59.8644 36.75 59.8644 37.1V37.275V38.85H59.3364L59.1604 36.925Z" fill="white"/>
<path d="M63.2085 38.15C63.2085 38.325 63.2085 38.675 63.2085 38.85H62.6805V38.5C62.5044 38.675 62.1524 38.85 61.8004 38.85C61.2724 38.85 60.9204 38.5 60.9204 37.975C60.9204 37.275 61.6244 36.925 62.6805 36.925C62.6805 36.75 62.6805 36.225 61.9764 36.225C61.6244 36.225 61.4484 36.225 61.2724 36.4L61.0964 36.05C61.2724 35.875 61.6244 35.875 62.1524 35.875C63.0325 35.875 63.2085 36.4 63.2085 37.1V38.15ZM62.6805 37.45C62.1524 37.45 61.4484 37.625 61.4484 38.15C61.4484 38.5 61.6244 38.675 61.9764 38.675C62.3284 38.675 62.6805 38.5 62.6805 38.15V37.975V37.45Z" fill="white"/>
<path d="M66.2007 38.85C66.0247 38.85 65.6726 39.025 65.3206 39.025C64.4406 39.025 63.9126 38.5 63.9126 37.45C63.9126 36.4 64.6166 35.875 65.4966 35.875C65.8486 35.875 66.0247 35.875 66.2007 36.05L66.0247 36.4C65.8486 36.4 65.6726 36.225 65.3206 36.225C64.6166 36.225 64.2646 36.75 64.2646 37.275C64.2646 37.975 64.6166 38.325 65.3206 38.325C65.6726 38.325 65.8486 38.325 66.0247 38.15L66.2007 38.85Z" fill="white"/>
<path d="M67.6085 35.3501V36.0501H68.3125V36.4001H67.6085V37.9751C67.6085 38.3251 67.7845 38.5001 67.9605 38.5001C68.1365 38.5001 68.1365 38.5001 68.3125 38.5001V38.8501C68.1365 38.8501 67.9605 38.8501 67.7845 38.8501C67.6085 38.8501 67.2565 38.8501 67.2565 38.6751C67.0805 38.5001 67.0805 38.3251 67.0805 37.9751V36.4001H66.5525V36.0501H67.0805V35.5251L67.6085 35.3501Z" fill="white"/>
<path d="M69.1926 35.525C69.0166 35.525 68.8406 35.35 68.8406 35.175C68.8406 35 69.0166 34.825 69.1926 34.825C69.3686 34.825 69.5446 35 69.5446 35.175C69.5446 35.35 69.3686 35.525 69.1926 35.525ZM68.8406 38.85V35.875H69.3686V38.85H68.8406Z" fill="white"/>
<path d="M70.6007 36.05L71.1287 37.625C71.3047 37.975 71.3047 38.15 71.3047 38.325C71.3047 38.15 71.4807 37.8 71.4807 37.625L72.0088 36.05H72.5368L71.3047 39.025H70.7767L69.7207 36.05H70.6007Z" fill="white"/>
<path d="M73.4167 37.625C73.4167 38.325 73.9447 38.675 74.4727 38.675C74.8247 38.675 75.1767 38.675 75.3528 38.5L75.5288 38.85C75.3528 38.85 75.0007 39.025 74.4727 39.025C73.5927 39.025 73.0647 38.5 73.0647 37.625C73.0647 36.75 73.5927 36.05 74.4727 36.05C75.3528 36.05 75.7048 36.925 75.7048 37.45C75.7048 37.625 75.7048 37.625 75.7048 37.625H73.4167ZM75.0007 37.1C75.0007 36.75 74.8247 36.225 74.2967 36.225C73.7687 36.225 73.5927 36.75 73.4167 37.1H75.0007Z" fill="white"/>
<path d="M38.5678 38.15C38.5678 38.325 38.5678 38.675 38.5678 38.85H38.0398V38.5C37.8638 38.675 37.5118 38.85 37.1598 38.85C36.6318 38.85 36.2798 38.5 36.2798 37.975C36.2798 37.275 36.9838 36.925 38.0398 36.925C38.0398 36.75 38.0398 36.225 37.3358 36.225C36.9838 36.225 36.8078 36.225 36.6318 36.4L36.4558 36.05C36.6318 35.875 36.9838 35.875 37.5118 35.875C38.3918 35.875 38.5678 36.4 38.5678 37.1V38.15ZM38.0398 37.45C37.5118 37.45 36.8078 37.625 36.8078 38.15C36.8078 38.5 36.9838 38.675 37.3358 38.675C37.6878 38.675 38.0398 38.5 38.0398 38.15V37.975V37.45Z" fill="white"/>
<path d="M39.448 36.75C39.448 36.4 39.448 36.225 39.448 35.875H39.976V36.4C40.152 36.05 40.504 35.875 41.032 35.875C41.384 35.875 42.0881 36.05 42.0881 37.1V38.85H41.56V37.1C41.56 36.575 41.384 36.225 40.856 36.225C40.504 36.225 40.152 36.4 40.152 36.75V36.925V38.675H39.624V36.75" fill="white"/>
<path d="M42.968 35.525C42.792 35.525 42.616 35.35 42.616 35.175C42.616 35 42.792 34.825 42.968 34.825C43.144 34.825 43.32 35 43.32 35.175C43.32 35.35 43.32 35.525 42.968 35.525ZM42.792 38.85V35.875H43.32V38.85H42.792Z" fill="white"/>
<path d="M46.3122 38.15C46.3122 38.325 46.3122 38.675 46.3122 38.85H45.7842V38.5C45.6082 38.675 45.2562 38.85 44.9042 38.85C44.3762 38.85 44.0242 38.5 44.0242 37.975C44.0242 37.275 44.7282 36.925 45.7842 36.925C45.7842 36.75 45.7842 36.225 45.0802 36.225C44.7282 36.225 44.5522 36.225 44.3762 36.4L44.2002 36.05C44.3762 35.875 44.7282 35.875 45.2562 35.875C46.1362 35.875 46.3122 36.4 46.3122 37.1V38.15ZM45.7842 37.45C45.2562 37.45 44.5522 37.625 44.5522 38.15C44.5522 38.5 44.7282 38.675 45.0802 38.675C45.4322 38.675 45.7842 38.5 45.7842 38.15V37.975V37.45Z" fill="white"/>
<path d="M34.8719 34.4751L33.2878 37.9751L31.8798 34.4751H30.9998V39.0251H31.7038V35.3501L33.1118 39.0251H33.4638L35.0479 35.3501V39.0251H35.7519V34.4751H34.8719Z" fill="white"/>
</svg>
