<svg width="110" height="24" viewBox="0 0 110 24" fill="none" xmlns="http://www.w3.org/2000/svg">
<g clip-path="url(#clip0_1217_8293)">
<path d="M0 0.585449H4.9103V3.92505H0V0.585449ZM0 5.44726H4.9103V18.2132H0V5.44515V5.44726Z" fill="white"/>
<path d="M14.069 0.585449V5.44726H16.7698V9.03142H14.069V13.539C14.069 14.0809 14.1217 14.4414 14.2271 14.6143C14.3874 14.8863 14.672 15.0212 15.0747 15.0212C15.4373 15.0212 15.9475 14.9179 16.6011 14.7113L16.9658 18.1078C15.7514 18.3734 14.6172 18.5084 13.563 18.5084C12.3402 18.5084 11.4378 18.3524 10.8601 18.0403C10.2803 17.7283 9.85233 17.2539 9.57403 16.6172C9.29573 15.9805 9.15869 14.9495 9.15869 13.5243V9.03142H7.34131V5.44726H9.15869V3.10069L14.069 0.585449Z" fill="white"/>
<path d="M33.3684 13.0075H23.5478C23.6364 13.7981 23.8472 14.3885 24.1845 14.7743C24.6568 15.3309 25.2745 15.6092 26.0356 15.6092C26.5163 15.6092 26.9739 15.489 27.4061 15.2444C27.6696 15.0905 27.9542 14.8186 28.2599 14.4306L33.0711 14.8734C32.3353 16.17 31.4477 17.0998 30.4062 17.6627C29.3668 18.2256 27.8741 18.5081 25.9302 18.5081C24.2415 18.5081 22.9132 18.2699 21.9455 17.7934C20.9778 17.3169 20.1766 16.5579 19.5399 15.5185C18.9032 14.4791 18.5869 13.2584 18.5869 11.8542C18.5869 9.85765 19.2257 8.24056 20.5034 7.00508C21.781 5.7696 23.5457 5.15186 25.7953 5.15186C27.6211 5.15186 29.0632 5.42805 30.1216 5.97832C31.1779 6.5286 31.9832 7.32764 32.5377 8.37337C33.0901 9.41912 33.3663 10.7811 33.3663 12.4572V13.0075H33.3684ZM28.4096 10.6504C28.3126 9.72061 28.0575 9.05437 27.6422 8.65168C27.2269 8.24898 26.6808 8.0487 26.004 8.0487C25.2218 8.0487 24.5978 8.3523 24.1297 8.9595C23.8324 9.339 23.6427 9.90193 23.5605 10.6504H28.4096Z" fill="white"/>
<path d="M35.7763 5.44507H40.3493V7.31305C41.0092 6.53297 41.6733 5.97637 42.3458 5.64536C43.0163 5.31435 43.828 5.1499 44.7767 5.1499C45.7972 5.1499 46.6068 5.33122 47.2013 5.69385C47.7959 6.05648 48.2829 6.59622 48.6603 7.31305C49.4298 6.47604 50.1319 5.90679 50.7644 5.60319C51.399 5.3017 52.1791 5.1499 53.1089 5.1499C54.4814 5.1499 55.5503 5.55681 56.322 6.37063C57.0915 7.18444 57.4773 8.45787 57.4773 10.1888V18.211H52.567V10.9288C52.567 10.3512 52.4553 9.92316 52.2297 9.64065C51.9008 9.20001 51.4918 8.97863 51.0026 8.97863C50.425 8.97863 49.9611 9.18736 49.609 9.60481C49.2569 10.0223 49.0798 10.6927 49.0798 11.614V18.2089H44.1695V11.1861C44.1695 10.6252 44.1379 10.2457 44.0726 10.0454C43.9671 9.72498 43.7858 9.46776 43.5286 9.27169C43.2693 9.07561 42.9678 8.97652 42.6199 8.97652C42.0549 8.97652 41.5911 9.18946 41.2284 9.61324C40.8637 10.037 40.6845 10.7328 40.6845 11.7026V18.2089H35.7742V5.44507H35.7763Z" fill="white"/>
<path d="M60.8169 0.585449H71.0065C72.7058 0.585449 74.0087 1.00712 74.9195 1.84834C75.8282 2.69167 76.2836 3.73319 76.2836 4.97499C76.2836 6.01862 75.9568 6.91255 75.3075 7.6589C74.8731 8.15647 74.2385 8.54862 73.4036 8.83746C74.6771 9.14106 75.6153 9.66603 76.2161 10.4061C76.817 11.1482 77.1185 12.078 77.1185 13.1996C77.1185 14.1146 76.9056 14.9369 76.4818 15.6642C76.0559 16.3937 75.4761 16.9693 74.7361 17.3952C74.2786 17.6587 73.5892 17.8527 72.6678 17.9729C71.4408 18.1331 70.627 18.2132 70.2264 18.2132H60.819V0.585449H60.8169ZM66.3154 7.50921H68.6704C69.5159 7.50921 70.102 7.36373 70.4351 7.07068C70.7661 6.77762 70.9306 6.35595 70.9306 5.80357C70.9306 5.29124 70.764 4.89066 70.4351 4.60393C70.1041 4.31509 69.5285 4.17172 68.7084 4.17172H66.3175V7.51132L66.3154 7.50921ZM66.3154 14.433H69.1005C70.0408 14.433 70.705 14.2664 71.0908 13.9312C71.4766 13.5981 71.6685 13.149 71.6685 12.5861C71.6685 12.0632 71.4766 11.6436 71.095 11.3253C70.7134 11.0069 70.0451 10.8488 69.0879 10.8488H66.3154V14.433Z" fill="white"/>
<path d="M84.2196 9.57092L79.556 9.07968C79.7331 8.26375 79.9861 7.62071 80.3192 7.15266C80.6523 6.68461 81.1309 6.2777 81.755 5.93405C82.204 5.68526 82.8197 5.49341 83.6061 5.35636C84.3904 5.22143 85.24 5.15186 86.1529 5.15186C87.6182 5.15186 88.7968 5.23408 89.6865 5.39853C90.5762 5.56298 91.3162 5.90453 91.9087 6.4274C92.324 6.78792 92.6529 7.30024 92.8933 7.96014C93.1336 8.62216 93.2538 9.25255 93.2538 9.85343V15.4932C93.2538 16.0941 93.2917 16.5664 93.3676 16.9058C93.4435 17.2474 93.6101 17.6817 93.8673 18.2109H89.2522C89.0666 17.8862 88.9444 17.6374 88.8895 17.4666C88.8326 17.2958 88.7778 17.0281 88.7209 16.6633C88.0799 17.2769 87.4453 17.7175 86.8149 17.9789C85.9505 18.3289 84.947 18.506 83.8043 18.506C82.2863 18.506 81.1309 18.1518 80.3445 17.4455C79.5581 16.7371 79.1638 15.8664 79.1638 14.8291C79.1638 13.855 79.4484 13.056 80.0156 12.4298C80.5827 11.8036 81.6306 11.3356 83.157 11.032C84.987 10.663 86.174 10.4037 86.718 10.254C87.2619 10.1043 87.8375 9.91035 88.4447 9.67C88.4447 9.06912 88.3203 8.64958 88.0736 8.40923C87.8269 8.16888 87.3926 8.0487 86.7707 8.0487C85.9737 8.0487 85.375 8.17731 84.9765 8.43453C84.6644 8.63693 84.4136 9.01432 84.2238 9.56881L84.2196 9.57092ZM88.4426 12.1241C87.7742 12.3687 87.0785 12.5837 86.3532 12.7693C85.3665 13.037 84.7404 13.3027 84.4789 13.562C84.2091 13.8297 84.072 14.1355 84.072 14.477C84.072 14.867 84.2048 15.1854 84.4726 15.4342C84.7404 15.683 85.1325 15.8053 85.649 15.8053C86.1656 15.8053 86.6948 15.6724 87.1607 15.4026C87.6267 15.1348 87.9556 14.808 88.1516 14.4201C88.3456 14.0343 88.4447 13.5325 88.4447 12.9147V12.122L88.4426 12.1241Z" fill="white"/>
<path d="M94.8748 5.44531H100.046L102.707 13.944L105.17 5.44531H110L104.919 19.0904C104.341 20.6527 103.753 21.7069 103.152 22.255C102.302 23.0288 101.008 23.4146 99.2685 23.4146C98.5622 23.4146 97.4743 23.3197 95.9985 23.1321L95.6148 19.7693C96.3169 20.0054 97.099 20.1256 97.9614 20.1256C98.5348 20.1256 99.0008 19.9865 99.355 19.7082C99.7092 19.4278 100.013 18.9302 100.259 18.2113L94.8769 5.44531H94.8748Z" fill="white"/>
</g>
<defs>
<clipPath id="clip0_1217_8293">
<rect width="110" height="24" fill="white"/>
</clipPath>
</defs>
</svg>
