<svg width="92" height="42" viewBox="0 0 92 42" fill="none" xmlns="http://www.w3.org/2000/svg">
<path d="M42.0625 38.6752C39.4375 38.6752 36.8125 38.6752 34.1875 38.6752C34.1875 31.3252 34.1875 23.9752 34.1875 16.8002C34.1875 16.8002 34.1875 16.8002 34.0125 16.8002C30.5125 22.2252 27.0125 27.8252 23.5125 33.2502C17.3875 23.2752 11.2625 13.3002 5.13745 3.3252C5.31245 3.3252 5.48745 3.3252 5.48745 3.3252C7.23745 3.3252 8.98745 3.3252 10.5625 3.3252C12.8375 3.3252 14.4125 4.3752 15.6375 6.3002C18.2625 10.5002 20.8875 14.7002 23.5125 18.9002C23.5125 18.9002 23.5124 18.9002 23.6875 19.0752V18.9002C26.1374 14.8752 28.5875 10.8502 31.2125 7.0002C31.7375 6.3002 32.0875 5.4252 32.7875 4.9002C33.6625 3.8502 34.8875 3.5002 36.1125 3.5002C38.0375 3.5002 40.1375 3.5002 42.2375 3.5002C42.0625 15.0502 42.0625 26.9502 42.0625 38.6752Z" fill="white"/>
<path d="M44.5125 9.6252C44.5125 7.5252 44.5125 5.4252 44.5125 3.3252C46.6125 3.3252 48.7125 3.3252 50.8125 3.3252C50.8125 5.4252 50.8125 7.5252 50.8125 9.6252C48.7125 9.6252 46.6125 9.6252 44.5125 9.6252Z" fill="white"/>
<path d="M50.8125 22.2253C48.7125 22.2253 46.6125 22.2253 44.5125 22.2253C44.5125 20.1253 44.5125 18.0253 44.5125 15.9253C46.6125 15.9253 48.7125 15.9253 50.8125 15.9253C50.8125 18.0253 50.8125 20.1253 50.8125 22.2253Z" fill="white"/>
<path d="M50.8125 32.375C50.8125 34.475 50.8125 36.575 50.8125 38.675C48.7125 38.675 46.6125 38.675 44.5125 38.675C44.5125 36.575 44.5125 34.475 44.5125 32.375C46.6125 32.375 48.7125 32.375 50.8125 32.375Z" fill="white"/>
<path d="M47.6625 28.875C46.9625 28 46.4375 27.125 45.7375 26.25C45.7375 27.65 45.7375 28.875 45.7375 30.1C45.3875 30.1 45.0375 30.1 44.6875 30.1C44.6875 28.35 44.6875 26.425 44.6875 24.675C45.0375 24.675 45.3875 24.675 45.7375 24.675C45.9125 24.675 45.9125 24.85 46.0875 24.85C46.6125 25.55 47.3125 26.425 47.8375 27.125C48.3625 26.425 48.8875 25.725 49.4125 25.025C49.5875 24.675 49.9375 24.5 50.4625 24.5C50.6375 24.5 50.8125 24.5 50.9875 24.5C50.9875 26.425 50.9875 28.175 50.9875 29.925C50.6375 29.925 50.2875 29.925 49.9375 29.925C49.9375 28.7 49.9375 27.475 49.9375 26.075C48.8875 27.125 48.3625 28 47.6625 28.875Z" fill="white"/>
<path d="M71.6373 29.9253C71.2873 29.9253 71.1123 29.9253 70.7623 29.9253C70.7623 29.7503 70.7623 29.5753 70.7623 29.4003L70.5874 29.5753C69.8874 30.2753 69.0124 30.2753 68.3124 29.5753C67.6124 28.7003 67.6124 27.1253 68.3124 26.2503C68.8374 25.5503 69.8874 25.3753 70.5874 26.0753C70.5874 26.0753 70.5873 26.2503 70.7623 26.2503C70.7623 26.2503 70.7624 26.2503 70.9374 26.2503C70.9374 25.7253 70.9374 25.2003 70.9374 24.6753C71.2874 24.6753 71.4624 24.6753 71.8124 24.6753C71.6374 26.4253 71.6373 28.1753 71.6373 29.9253ZM68.4874 27.8253C68.4874 28.1753 68.4873 28.3503 68.6623 28.5253C68.8373 28.8753 69.1873 29.2253 69.5373 29.2253C70.0623 29.2253 70.2373 29.0503 70.4123 28.5253C70.5873 28.0003 70.5873 27.4753 70.4123 26.9503C70.0623 26.2503 69.0123 26.2503 68.6623 26.9503C68.6623 27.3003 68.6624 27.6503 68.4874 27.8253Z" fill="white"/>
<path d="M63.5874 24.6753C64.8124 24.6753 65.8624 24.6753 67.0874 24.6753C67.0874 25.0253 67.0874 25.2003 67.0874 25.5503C66.2124 25.5503 65.3374 25.5503 64.4624 25.5503C64.4624 26.0753 64.4624 26.4253 64.4624 26.9503C65.1624 26.9503 66.0374 26.9503 66.7374 26.9503C66.7374 27.3003 66.7374 27.4753 66.7374 27.8253C66.0374 27.8253 65.1624 27.8253 64.4624 27.8253C64.4624 28.3503 64.4624 28.7003 64.4624 29.2253C65.3374 29.2253 66.2124 29.2253 67.0874 29.2253C67.0874 29.5753 67.0874 29.7503 67.0874 30.1003C65.8624 30.1003 64.8124 30.1003 63.5874 30.1003C63.5874 28.3503 63.5874 26.6003 63.5874 24.6753Z" fill="white"/>
<path d="M59.5626 26.7753C59.5626 26.6003 59.3875 26.2503 59.3875 26.0753C60.0875 25.7253 60.7876 25.5503 61.4876 25.9003C62.1876 26.0753 62.3626 26.6003 62.3626 27.3003C62.3626 28.1753 62.3626 29.2253 62.3626 30.2753C62.0126 30.2753 61.8376 30.2753 61.4876 30.2753C61.4876 30.1003 61.4876 30.1003 61.4876 29.9253C61.4876 29.7503 61.4876 29.7503 61.3126 29.7503C60.7876 30.1003 60.0876 30.1003 59.5626 29.7503C59.0376 29.4003 58.8625 28.7003 59.0375 28.1753C59.2125 27.6503 59.7375 27.3003 60.2625 27.3003C60.6125 27.3003 60.9626 27.3003 61.4876 27.3003C61.6626 26.6003 61.1376 26.4253 59.5626 26.7753ZM60.7875 28.0003C60.6125 28.0003 60.4375 28.0003 60.2625 28.1753C60.0875 28.3503 59.9125 28.5253 59.9125 28.7003C59.9125 28.8753 60.0875 29.0503 60.2625 29.2253C60.6125 29.4003 61.3126 29.2253 61.4876 28.8753C61.6626 28.3503 61.6625 28.1753 61.1375 28.1753C61.1375 28.0003 60.9625 28.0003 60.7875 28.0003Z" fill="white"/>
<path d="M83.1876 27.8254C83.1876 28.3504 83.0125 29.0504 82.4875 29.4004C81.6125 30.2754 80.3875 30.2754 79.5125 29.2254C78.8125 28.3504 78.8125 27.1254 79.5125 26.2504C80.0375 25.5504 80.9125 25.3754 81.6125 25.5504C82.3125 25.7254 83.0125 26.6004 83.0125 27.4754C83.1875 27.8254 83.1876 27.8254 83.1876 27.8254ZM80.0375 27.8254C80.0375 28.0004 80.0376 28.3504 80.2126 28.5254C80.3876 29.0504 80.9125 29.2254 81.2625 29.2254C81.7875 29.2254 82.1376 28.8754 82.3126 28.3504C82.4876 28.0004 82.4876 27.4754 82.3126 27.1254C82.1376 26.6004 81.7875 26.4254 81.2625 26.4254C80.7375 26.4254 80.3876 26.7754 80.2126 27.1254C80.0376 27.4754 80.0375 27.6504 80.0375 27.8254Z" fill="white"/>
<path d="M54.6625 28.8751C54.8375 29.0501 55.0125 29.2251 55.1875 29.4001C54.6625 30.4501 53.0875 30.6251 52.2125 29.5751C51.3375 28.7001 51.5125 27.1251 52.3875 26.2501C53.0875 25.5501 54.4875 25.5501 55.0125 26.6001C55.3625 27.1251 55.3625 27.6501 55.3625 28.3501C54.8375 28.3501 54.4875 28.3501 53.9625 28.3501C53.4375 28.3501 53.0875 28.3501 52.5625 28.3501C52.5625 28.8751 52.7375 29.0501 53.0875 29.2251C53.7875 29.4001 54.3125 29.2251 54.6625 28.8751ZM54.4875 27.4751C54.4875 26.7751 53.9625 26.2501 53.4375 26.4251C52.9125 26.4251 52.5625 26.9501 52.5625 27.4751C53.2625 27.4751 53.9625 27.4751 54.4875 27.4751Z" fill="white"/>
<path d="M84.7625 26.2504C85.1125 26.0754 85.4625 25.9004 85.8125 25.7254C86.5125 25.5504 87.2125 26.0754 87.2125 26.9504C87.2125 28.0004 87.2125 29.0504 87.2125 30.1004C87.0375 30.1004 86.6875 30.1004 86.3375 30.1004C86.3375 29.9254 86.3375 29.7504 86.3375 29.7504C86.3375 29.0504 86.3375 28.3504 86.3375 27.6504C86.3375 27.1254 85.9875 26.7754 85.6375 26.7754C85.1125 26.7754 84.7625 27.1254 84.7625 27.6504C84.7625 28.3504 84.7625 29.0504 84.7625 29.7504C84.7625 29.9254 84.7625 29.9254 84.7625 30.1004C84.4125 30.1004 84.2375 30.1004 83.8875 30.1004C83.8875 28.7004 83.8875 27.3004 83.8875 25.7254C84.2375 25.7254 84.4125 25.7254 84.7625 25.7254C84.7625 25.9004 84.7625 26.0754 84.7625 26.2504Z" fill="white"/>
<path d="M55.8875 26.425C55.8875 26.075 55.8875 25.9 55.8875 25.55C56.0625 25.55 56.2374 25.55 56.4124 25.55C56.4124 25.2 56.4124 24.85 56.4124 24.5C56.7624 24.5 56.9374 24.5 57.2874 24.5C57.2874 24.85 57.2874 25.2 57.2874 25.55C57.6374 25.55 57.9875 25.55 58.3375 25.55C58.3375 25.9 58.3375 26.075 58.3375 26.425C57.9875 26.425 57.6374 26.425 57.2874 26.425C57.2874 27.3 57.2874 28 57.2874 28.7C57.2874 29.05 57.4625 29.225 57.8125 29.05C57.9875 29.05 58.1625 29.05 58.3375 28.875C58.3375 29.05 58.3375 29.225 58.3375 29.575C58.3375 29.575 58.3374 29.75 58.1624 29.75C57.2874 30.275 56.4124 29.75 56.4124 28.875C56.4124 28 56.4124 27.3 56.4124 26.425C56.2374 26.6 56.0625 26.425 55.8875 26.425Z" fill="white"/>
<path d="M74.7874 26.6003C74.6124 26.6003 74.4375 26.6003 74.2625 26.6003C74.2625 26.2503 74.2625 26.0753 74.2625 25.7253C74.4375 25.7253 74.6124 25.7253 74.7874 25.7253C74.7874 25.3753 74.7874 25.0253 74.7874 24.6753C75.1374 24.6753 75.3124 24.6753 75.6624 24.6753C75.6624 25.0253 75.6624 25.3753 75.6624 25.7253C76.0124 25.7253 76.3625 25.7253 76.7125 25.7253C76.7125 26.0753 76.7125 26.2503 76.7125 26.6003C76.3625 26.6003 76.0124 26.6003 75.6624 26.6003C75.6624 27.4753 75.6624 28.1753 75.6624 28.8753C75.6624 29.2253 75.8375 29.2253 76.1875 29.2253C76.3625 29.2253 76.5375 29.2253 76.7125 29.0503C76.7125 29.2253 76.7125 29.4003 76.7125 29.5753C76.7125 29.7503 76.5374 29.7503 76.5374 29.9253C75.6624 30.2753 74.9624 29.9253 74.7874 28.8753C74.7874 28.1753 74.7874 27.4753 74.7874 26.7753V26.6003Z" fill="white"/>
<path d="M72.6875 26.4253C73.0375 26.4253 73.2125 26.4253 73.5625 26.4253C73.5625 27.6503 73.5625 28.8753 73.5625 30.1003C73.2125 30.1003 73.0375 30.1003 72.6875 30.1003C72.6875 28.8753 72.6875 27.6503 72.6875 26.4253Z" fill="white"/>
<path d="M77.5874 26.4253C77.9374 26.4253 78.1124 26.4253 78.4624 26.4253C78.4624 27.6503 78.4624 28.8753 78.4624 29.9253C78.1124 29.9253 77.9374 29.9253 77.5874 29.9253C77.5874 28.8753 77.5874 27.6503 77.5874 26.4253Z" fill="white"/>
<path d="M78.4624 25.5503C78.1124 25.5503 77.9374 25.5503 77.5874 25.5503C77.5874 25.2003 77.5874 25.0253 77.5874 24.6753C77.9374 24.6753 78.1124 24.6753 78.4624 24.6753C78.4624 25.0253 78.4624 25.2003 78.4624 25.5503Z" fill="white"/>
<path d="M72.6875 24.6753C73.0375 24.6753 73.2125 24.6753 73.5625 24.6753C73.5625 25.0253 73.5625 25.2003 73.5625 25.5503C73.2125 25.5503 73.0375 25.5503 72.6875 25.5503C72.6875 25.2003 72.6875 25.0253 72.6875 24.6753Z" fill="white"/>
</svg>
