<svg width="142" height="22" viewBox="0 0 142 22" fill="none" xmlns="http://www.w3.org/2000/svg">
<path d="M20.3541 20.7166C19.2541 20.7166 18.1541 20.7166 17.0541 20.7166C16.7791 20.7166 16.5041 20.3499 16.3207 20.1666C13.5707 16.7749 10.8207 13.4749 8.07072 10.0832C7.88739 9.8999 7.70405 9.6249 7.33739 9.25824C7.33739 13.1999 7.33739 16.9582 7.33739 20.7166C5.87072 20.7166 4.49572 20.7166 3.02905 20.7166C3.02905 14.3916 3.02905 8.06657 3.02905 1.6499C4.12905 1.6499 5.22905 1.6499 6.32905 1.6499C6.60405 1.6499 6.87905 2.01657 7.06239 2.1999C9.81239 5.4999 12.5624 8.89157 15.3124 12.2832C15.4957 12.5582 15.6791 12.7416 16.0457 13.1999C16.0457 9.25823 16.0457 5.4999 16.0457 1.74157C17.6041 1.74157 18.9791 1.74157 20.3541 1.74157C20.3541 7.9749 20.3541 14.2999 20.3541 20.7166Z" fill="white"/>
<path d="M108.079 20.6248C106.521 20.6248 105.146 20.6248 103.771 20.6248C103.771 14.2998 103.771 7.97479 103.771 1.64979L103.862 1.55812C107.162 1.55812 110.462 1.46646 113.762 1.74146C116.971 1.92479 119.446 4.12479 119.996 6.87479C120.637 10.2665 119.629 12.4665 116.329 14.5748C117.704 16.5915 119.079 18.5165 120.546 20.6248C118.987 20.6248 117.521 20.6248 116.054 20.6248C115.871 20.6248 115.596 20.3498 115.504 20.0748C114.496 18.6998 113.579 17.2331 112.571 15.8581C112.387 15.5831 111.929 15.3998 111.654 15.3998C110.554 15.3081 109.362 15.3998 108.171 15.3998C108.079 17.1415 108.079 18.8831 108.079 20.6248ZM108.079 11.8248C109.637 11.8248 111.104 11.9165 112.571 11.8248C114.404 11.7331 115.596 10.4498 115.687 8.79979C115.779 6.87479 114.862 5.59146 112.846 5.40812C111.287 5.22479 109.637 5.40812 108.079 5.40812C108.079 7.42479 108.079 9.53312 108.079 11.8248Z" fill="white"/>
<path d="M137.596 12.7416C134.662 12.7416 131.821 12.7416 128.887 12.7416C128.887 14.2082 128.887 15.6749 128.887 17.1416C132.371 17.1416 135.671 17.1416 139.154 17.1416C139.154 18.3332 139.154 19.4332 139.154 20.6249C134.296 20.6249 129.437 20.6249 124.579 20.6249C124.579 14.2999 124.579 7.9749 124.579 1.6499C129.346 1.6499 134.021 1.6499 138.787 1.6499C138.787 2.7499 138.787 3.94157 138.787 5.13324C135.487 5.13324 132.187 5.13324 128.887 5.13324C128.887 6.50824 128.887 7.88324 128.887 9.25824C131.821 9.25824 134.662 9.25824 137.596 9.25824C137.596 10.4499 137.596 11.4582 137.596 12.7416Z" fill="white"/>
<path d="M30.1623 9.3499C33.0957 9.3499 36.029 9.3499 38.9623 9.3499C38.9623 10.5416 38.9623 11.5499 38.9623 12.7416C36.029 12.7416 33.0957 12.7416 30.1623 12.7416C30.1623 14.2999 30.1623 15.6749 30.1623 17.1416C33.554 17.1416 36.9457 17.1416 40.429 17.1416C40.429 18.3332 40.429 19.4332 40.429 20.6249C35.5707 20.6249 30.7123 20.6249 25.854 20.6249C25.854 14.2999 25.854 7.9749 25.854 1.6499C30.6207 1.6499 35.3873 1.6499 40.154 1.6499C40.154 2.84157 40.154 3.94157 40.154 5.13324C36.854 5.13324 33.554 5.13324 30.254 5.13324C30.1623 6.50824 30.1623 7.88323 30.1623 9.3499Z" fill="white"/>
<path d="M95.2457 1.6499C96.7124 1.6499 98.0874 1.6499 99.4624 1.6499C99.4624 1.74157 99.5541 1.83324 99.5541 1.83324C99.5541 5.7749 99.6457 9.6249 99.4624 13.5666C99.1874 18.1499 96.3457 20.8082 91.6707 20.9916C90.4791 21.0832 89.1957 20.8999 88.0041 20.6249C84.7041 19.7999 82.7791 17.4166 82.5041 14.1166C82.2291 9.99157 82.4124 5.86657 82.4124 1.6499C83.7874 1.6499 85.1624 1.6499 86.6291 1.6499C86.6291 1.9249 86.6291 2.29157 86.6291 2.56657C86.6291 5.59157 86.6291 8.61657 86.6291 11.6416C86.6291 12.2832 86.6291 12.9249 86.7207 13.6582C87.0874 16.1332 88.5541 17.4166 91.0291 17.3249C93.3207 17.2332 94.8791 15.8582 94.9707 13.4749C95.0624 10.7249 95.0624 8.06657 95.0624 5.31657C95.2457 4.03324 95.2457 2.84157 95.2457 1.6499Z" fill="white"/>
<path d="M43.3624 1.55811C45.0124 1.55811 46.4791 1.55811 47.9457 1.55811C48.2207 1.55811 48.4957 1.83311 48.6791 2.01644C49.8707 3.66644 50.9707 5.31644 52.1624 6.96644C52.3457 7.14977 52.5291 7.42477 52.7124 7.69977C53.3541 6.78311 53.9957 5.86644 54.5457 5.04144C55.2791 4.03311 55.9207 3.02477 56.6541 2.01644C56.8374 1.83311 57.1124 1.55811 57.3874 1.55811C58.7624 1.55811 60.1374 1.55811 61.6957 1.55811C61.5124 1.92477 61.3291 2.10811 61.1457 2.38311C59.3124 4.94977 57.3874 7.60811 55.5541 10.1748C55.1874 10.6331 55.1874 10.9998 55.5541 11.4581C57.5707 14.2998 59.5874 17.0498 61.6041 19.8914C61.7874 20.0748 61.8791 20.3498 62.1541 20.7164C60.5041 20.7164 58.9457 20.7164 57.4791 20.7164C57.2957 20.7164 56.9291 20.4414 56.8374 20.1664C55.5541 18.4248 54.3624 16.5914 53.0791 14.8498C52.8957 14.6664 52.8041 14.3914 52.5291 14.1164C51.1541 16.1331 49.8707 17.9664 48.5874 19.8914C48.2207 20.5331 47.7624 20.8081 47.0291 20.7164C45.7457 20.6248 44.4624 20.7164 43.0874 20.7164C43.2707 20.3498 43.4541 20.1664 43.6374 19.8914C45.6541 17.1414 47.6707 14.3914 49.6874 11.6414C50.0541 11.1831 50.0541 10.8164 49.6874 10.3581C47.7624 7.79144 45.9291 5.13311 44.0957 2.47477C43.8207 2.19977 43.6374 2.01644 43.3624 1.55811Z" fill="white"/>
<path d="M63.0708 5.2249C63.0708 3.94157 63.0708 2.84157 63.0708 1.6499C68.5708 1.6499 74.0708 1.6499 79.5708 1.6499C79.5708 2.84157 79.5708 3.94157 79.5708 5.2249C77.5541 5.2249 75.6291 5.2249 73.5208 5.2249C73.5208 10.4499 73.5208 15.4916 73.5208 20.7166C72.0541 20.7166 70.6791 20.7166 69.1208 20.7166C69.1208 15.5832 69.1208 10.5416 69.1208 5.31657C67.1041 5.2249 65.0875 5.2249 63.0708 5.2249Z" fill="white"/>
</svg>
