<svg width="196" height="28" viewBox="0 0 196 28" fill="none" xmlns="http://www.w3.org/2000/svg">
<g clip-path="url(#clip0_1217_8252)">
<path d="M39.2014 22.2683C38.7316 22.2683 38.3692 22.1341 38.1141 21.8791C37.8725 21.6106 37.7517 21.2348 37.7517 20.765V7.53008C37.7517 7.04686 37.8859 6.68445 38.141 6.44284C38.396 6.1878 38.7584 6.05357 39.2282 6.05357H44.7047C46.4631 6.05357 47.8188 6.49653 48.7718 7.36901C49.7249 8.25492 50.2081 9.47639 50.2081 11.0603C50.2081 12.6442 49.7249 13.8791 48.7718 14.765C47.8188 15.6509 46.4631 16.0804 44.7047 16.0804H40.651V20.765C40.651 21.2348 40.5302 21.6106 40.2886 21.8791C40.047 22.1341 39.6846 22.2683 39.2014 22.2683ZM40.6645 13.7851H44.2618C45.2953 13.7851 46.0739 13.5569 46.6108 13.1006C47.1477 12.6308 47.4027 11.9462 47.4027 11.0469C47.4027 10.1475 47.1343 9.47639 46.6108 9.02002C46.0739 8.56364 45.2953 8.33545 44.2618 8.33545H40.6645V13.7717V13.7851ZM56.1141 22.3086C54.8524 22.3086 53.9128 21.9462 53.2685 21.2348C52.6376 20.5099 52.3155 19.4495 52.3155 18.0536V7.3019C52.3155 6.8321 52.4363 6.46968 52.6779 6.22807C52.9195 5.98646 53.2685 5.86565 53.7249 5.86565C54.1812 5.86565 54.5302 5.98646 54.7718 6.22807C55.0269 6.46968 55.1611 6.8321 55.1611 7.3019V17.9328C55.1611 18.6308 55.3088 19.1408 55.5906 19.4764C55.8994 19.812 56.3155 19.973 56.8658 19.973H57.2014C57.3088 19.9596 57.4161 19.9462 57.5235 19.9328C57.7383 19.9059 57.8859 19.9596 57.9531 20.1207C58.0336 20.2549 58.0604 20.5502 58.0604 20.9797C58.0604 21.3556 57.9799 21.6509 57.8322 21.8657C57.6846 22.0804 57.4296 22.2012 57.0806 22.2549C56.9329 22.2683 56.7718 22.2818 56.5973 22.2952C56.4363 22.3086 56.2618 22.322 56.1007 22.322L56.1141 22.3086ZM63.2416 22.3086C62.4363 22.3086 61.7114 22.161 61.0806 21.8522C60.4631 21.5301 59.9665 21.114 59.6041 20.5771C59.2551 20.0402 59.0806 19.4495 59.0806 18.7784C59.0806 17.9596 59.2953 17.3153 59.7114 16.8455C60.141 16.3623 60.8255 16.0133 61.7786 15.7985C62.7316 15.5838 64.0202 15.4764 65.6175 15.4764H66.7584V17.114H65.6443C64.7047 17.114 63.9531 17.1542 63.3893 17.2482C62.8255 17.3422 62.4228 17.5032 62.1812 17.7314C61.9531 17.9462 61.8457 18.2415 61.8457 18.6442C61.8457 19.1408 62.0202 19.5569 62.3692 19.8791C62.7182 20.2012 63.2014 20.3623 63.8188 20.3623C64.3155 20.3623 64.7584 20.2549 65.1343 20.0267C65.5235 19.7851 65.8457 19.463 66.0604 19.0469C66.2886 18.6308 66.396 18.161 66.396 17.6375V15.02C66.396 14.2683 66.2349 13.718 65.8994 13.3824C65.5638 13.0469 65 12.8858 64.2215 12.8858C63.7786 12.8858 63.3088 12.9395 62.7853 13.0469C62.2886 13.1542 61.7517 13.3287 61.188 13.5972C60.9061 13.7314 60.6376 13.7717 60.4094 13.7046C60.1947 13.6375 60.0336 13.5167 59.9128 13.3422C59.792 13.1408 59.7249 12.9261 59.7249 12.7113C59.7249 12.4965 59.792 12.2683 59.9128 12.0536C60.0336 11.8254 60.2349 11.6643 60.5302 11.5569C61.2282 11.275 61.8994 11.0603 62.5302 10.9395C63.188 10.8187 63.7786 10.7516 64.302 10.7516C65.3893 10.7516 66.2886 10.9126 66.9866 11.2482C67.698 11.5838 68.2349 12.0938 68.5839 12.7784C68.9329 13.4495 69.1074 14.3086 69.1074 15.369V20.8321C69.1074 21.3019 69 21.6643 68.7718 21.9193C68.5437 22.161 68.2215 22.2818 67.792 22.2818C67.3624 22.2818 67.0403 22.161 66.7853 21.9193C66.5571 21.6643 66.4497 21.3019 66.4497 20.8321V19.7448H66.6376C66.5302 20.2818 66.3155 20.7381 66.0067 21.1274C65.698 21.5032 65.3222 21.7985 64.8524 22.0133C64.3826 22.2281 63.8457 22.3355 63.2416 22.3355V22.3086ZM74.7316 26.3623C74.396 26.3623 74.1276 26.2683 73.9128 26.0938C73.698 25.9328 73.5772 25.7046 73.5235 25.4093C73.4967 25.1274 73.5504 24.8187 73.6846 24.4965L75.2282 21.0603V22.2415L71.094 12.6576C70.9598 12.322 70.9061 12.0133 70.9598 11.7314C71 11.4495 71.1477 11.2214 71.3759 11.0469C71.6175 10.8589 71.9396 10.7784 72.3557 10.7784C72.7047 10.7784 72.9866 10.8589 73.2014 11.0334C73.4161 11.1811 73.6041 11.4764 73.7651 11.9193L76.839 19.5838H76.1544L79.2953 11.8925C79.4564 11.463 79.6578 11.1811 79.8859 11.0334C80.1141 10.8724 80.4229 10.7784 80.7987 10.7784C81.1343 10.7784 81.4027 10.8724 81.5906 11.0469C81.792 11.2079 81.9128 11.4361 81.9531 11.7314C81.9933 11.9999 81.953 12.3086 81.792 12.6442L76.2618 25.275C76.0604 25.7046 75.8457 25.9865 75.6309 26.1341C75.4027 26.2818 75.1074 26.3623 74.745 26.3623H74.7316ZM89.1477 22.3086C87.8859 22.3086 86.7987 22.067 85.8994 21.5972C84.9866 21.1274 84.2886 20.4563 83.7786 19.5972C83.2953 18.7381 83.0537 17.7046 83.0537 16.5234C83.0537 15.3422 83.2953 14.3623 83.7651 13.5032C84.2484 12.6442 84.9061 11.9596 85.7383 11.4764C86.5839 10.9797 87.5504 10.7247 88.6242 10.7247C89.4161 10.7247 90.1141 10.8589 90.745 11.114C91.3759 11.369 91.9262 11.7448 92.3557 12.2281C92.8121 12.7113 93.1477 13.3019 93.3759 13.9999C93.6175 14.6844 93.7383 15.4495 93.7383 16.322C93.7383 16.5905 93.6443 16.8053 93.443 16.9529C93.2551 17.0871 93 17.1542 92.651 17.1542H85.349V15.5167H91.7383L91.3759 15.8522C91.3759 15.1542 91.2685 14.5771 91.0537 14.0938C90.8524 13.624 90.5571 13.2616 90.1678 13.02C89.792 12.765 89.3088 12.6308 88.7316 12.6308C88.1007 12.6308 87.5504 12.7784 87.094 13.0871C86.651 13.369 86.3155 13.7985 86.0739 14.3355C85.8457 14.8724 85.7383 15.5032 85.7383 16.2415V16.4026C85.7383 17.6509 86.0202 18.5771 86.5973 19.1945C87.188 19.7985 88.047 20.1073 89.188 20.1073C89.5772 20.1073 90.0202 20.067 90.5034 19.973C91 19.8657 91.4698 19.6912 91.9128 19.4495C92.2349 19.2616 92.5168 19.1945 92.7584 19.2214C93 19.2348 93.188 19.3153 93.3222 19.4764C93.4698 19.624 93.5638 19.812 93.5906 20.0402C93.6175 20.2549 93.5772 20.4697 93.4564 20.6979C93.349 20.9261 93.1611 21.1274 92.8926 21.2885C92.3557 21.624 91.7517 21.8791 91.0537 22.0401C90.3692 22.1878 89.7383 22.2683 89.1477 22.2683V22.3086ZM97.4564 22.2683C96.9866 22.2683 96.6242 22.1475 96.3692 21.9059C96.1275 21.6509 96.0067 21.2885 96.0067 20.8187V12.2146C96.0067 11.7448 96.1275 11.3824 96.3692 11.1408C96.6108 10.8992 96.9598 10.7784 97.3893 10.7784C97.8188 10.7784 98.1678 10.8992 98.4094 11.1408C98.651 11.3824 98.7718 11.7448 98.7718 12.2146V13.6509H98.5437C98.7584 12.7381 99.1745 12.0536 99.792 11.5838C100.409 11.114 101.242 10.8321 102.275 10.7381C102.597 10.7113 102.839 10.7918 103.027 10.9932C103.228 11.1811 103.336 11.463 103.362 11.8522C103.389 12.2281 103.295 12.5368 103.094 12.7784C102.893 13.0066 102.597 13.1408 102.181 13.1945L101.685 13.2348C100.758 13.3287 100.06 13.6106 99.5906 14.0938C99.1208 14.5636 98.8792 15.2348 98.8792 16.0938V20.8053C98.8792 21.2751 98.7584 21.6375 98.5168 21.8925C98.2752 22.1341 97.9128 22.2549 97.443 22.2549L97.4564 22.2683ZM105.336 22.2683C104.973 22.2683 104.678 22.1878 104.45 22.0133C104.235 21.8522 104.114 21.624 104.06 21.3556C104.02 21.0737 104.06 20.7516 104.222 20.4026L110.222 7.08713C110.423 6.64418 110.651 6.33545 110.933 6.16096C111.215 5.95961 111.55 5.86565 111.913 5.86565C112.275 5.86565 112.57 5.95961 112.839 6.16096C113.121 6.34888 113.376 6.6576 113.564 7.08713L119.591 20.4026C119.752 20.7516 119.819 21.0737 119.779 21.3556C119.738 21.6375 119.604 21.8657 119.389 22.0401C119.175 22.1878 118.893 22.2683 118.544 22.2683C118.114 22.2683 117.792 22.1744 117.537 21.973C117.309 21.7583 117.107 21.4361 116.919 21.02L115.443 17.5838L116.678 18.3757H107.081L108.315 17.5838L106.866 21.02C106.664 21.463 106.463 21.7717 106.248 21.973C106.034 22.1744 105.738 22.2683 105.336 22.2683ZM111.873 9.20794L108.691 16.7784L108.101 16.0536H115.698L115.134 16.7784L111.926 9.20794H111.886H111.873ZM125.859 22.3086C124.933 22.3086 124.168 22.1475 123.564 21.812C122.96 21.463 122.503 20.9529 122.195 20.2683C121.913 19.5838 121.765 18.7381 121.765 17.718V12.2146C121.765 11.7314 121.886 11.369 122.128 11.1408C122.369 10.8992 122.718 10.7784 123.175 10.7784C123.631 10.7784 123.98 10.8992 124.222 11.1408C124.477 11.369 124.611 11.7314 124.611 12.2146V17.7717C124.611 18.5636 124.772 19.1408 125.094 19.5301C125.416 19.9193 125.926 20.0938 126.624 20.0938C127.376 20.0938 128.007 19.8388 128.49 19.3153C128.973 18.7784 129.215 18.0804 129.215 17.2214V12.2146C129.215 11.7314 129.336 11.369 129.577 11.1408C129.819 10.8992 130.168 10.7784 130.624 10.7784C131.081 10.7784 131.43 10.8992 131.671 11.1408C131.926 11.369 132.06 11.7314 132.06 12.2146V20.8187C132.06 21.7851 131.604 22.2683 130.678 22.2683C130.235 22.2683 129.899 22.1475 129.658 21.9059C129.416 21.6509 129.295 21.2885 129.295 20.8187V19.0871L129.617 19.7717C129.295 20.5905 128.812 21.2214 128.168 21.6643C127.537 22.1073 126.772 22.322 125.899 22.322L125.859 22.3086ZM140.154 22.3086C138.987 22.3086 137.966 22.067 137.107 21.5972C136.248 21.114 135.577 20.4294 135.107 19.5435C134.638 18.6576 134.396 17.6375 134.396 16.4428C134.396 15.5435 134.53 14.7516 134.785 14.0536C135.054 13.3422 135.443 12.7381 135.94 12.2549C136.436 11.7583 137.04 11.369 137.765 11.114C138.477 10.8455 139.268 10.6979 140.154 10.6979C140.651 10.6979 141.188 10.765 141.765 10.8992C142.356 11.0334 142.906 11.2616 143.43 11.5838C143.671 11.7314 143.832 11.9193 143.913 12.1341C143.993 12.3489 144.007 12.5636 143.953 12.7918C143.913 13.0066 143.805 13.1945 143.658 13.3556C143.524 13.5032 143.349 13.6106 143.134 13.6509C142.919 13.6777 142.691 13.624 142.423 13.4898C142.087 13.2885 141.752 13.1542 141.403 13.0603C141.054 12.9529 140.718 12.8992 140.396 12.8992C139.899 12.8992 139.456 12.9797 139.081 13.1542C138.705 13.3019 138.369 13.5301 138.101 13.8388C137.846 14.1207 137.644 14.4965 137.51 14.9261C137.376 15.369 137.309 15.8791 137.309 16.4563C137.309 17.5838 137.577 18.4697 138.101 19.114C138.651 19.7448 139.416 20.067 140.396 20.067C140.718 20.067 141.04 20.0267 141.376 19.9328C141.725 19.8388 142.074 19.6912 142.423 19.5032C142.678 19.369 142.906 19.3153 143.107 19.369C143.322 19.4093 143.497 19.5167 143.631 19.6912C143.765 19.8388 143.846 20.0267 143.886 20.2549C143.913 20.4697 143.886 20.6844 143.792 20.8858C143.711 21.1006 143.564 21.275 143.336 21.4093C142.839 21.718 142.302 21.9328 141.738 22.067C141.175 22.2012 140.651 22.2683 140.141 22.2683L140.154 22.3086ZM150.879 22.3086C149.899 22.3086 149.067 22.1475 148.396 21.812C147.738 21.4764 147.255 20.9932 146.946 20.3623C146.624 19.7046 146.463 18.9126 146.463 17.9462V13.1006H145.282C144.92 13.1006 144.638 13.0066 144.436 12.8321C144.235 12.6308 144.141 12.3757 144.141 12.0402C144.141 11.7046 144.235 11.4227 144.436 11.2482C144.638 11.0603 144.92 10.9797 145.282 10.9797H146.463V8.91263C146.463 8.44283 146.584 8.08042 146.826 7.83881C147.081 7.5972 147.443 7.47639 147.899 7.47639C148.356 7.47639 148.705 7.5972 148.946 7.83881C149.188 8.08042 149.309 8.44283 149.309 8.91263V10.9797H151.725C152.087 10.9797 152.369 11.0737 152.571 11.2482C152.772 11.4361 152.866 11.6912 152.866 12.0402C152.866 12.3891 152.772 12.6442 152.571 12.8321C152.369 13.02 152.087 13.1006 151.725 13.1006H149.309V17.7851C149.309 18.5099 149.47 19.0603 149.792 19.4227C150.114 19.7851 150.624 19.973 151.336 19.973C151.591 19.973 151.819 19.9462 152.02 19.9059C152.222 19.8657 152.396 19.8254 152.544 19.812C152.732 19.7985 152.879 19.8522 153 19.9999C153.121 20.1207 153.188 20.3757 153.188 20.7784C153.188 21.0871 153.134 21.3556 153.027 21.5972C152.933 21.8254 152.758 21.9865 152.503 22.0804C152.302 22.1475 152.047 22.1878 151.725 22.2415C151.403 22.3086 151.121 22.3355 150.879 22.3355V22.3086ZM156.222 22.2415C155.765 22.2415 155.416 22.1073 155.175 21.8254C154.933 21.5569 154.812 21.1677 154.812 20.6844V12.3355C154.812 11.8388 154.933 11.4495 155.175 11.1945C155.416 10.9261 155.765 10.7784 156.222 10.7784C156.678 10.7784 157.027 10.9126 157.268 11.1945C157.524 11.4495 157.658 11.8254 157.658 12.3355V20.6844C157.658 21.1677 157.537 21.5435 157.295 21.8254C157.054 22.0938 156.691 22.2415 156.222 22.2415ZM156.222 8.68445C155.685 8.68445 155.268 8.55022 154.973 8.29518C154.691 8.02673 154.544 7.65089 154.544 7.18109C154.544 6.71129 154.691 6.32203 154.973 6.067C155.282 5.81196 155.698 5.67773 156.222 5.67773C156.745 5.67773 157.188 5.81196 157.47 6.067C157.752 6.32203 157.899 6.69787 157.899 7.18109C157.899 7.66431 157.752 8.02673 157.47 8.29518C157.188 8.55022 156.758 8.68445 156.222 8.68445ZM165.671 22.3086C164.517 22.3086 163.524 22.067 162.664 21.5972C161.819 21.1274 161.161 20.4563 160.691 19.5972C160.222 18.7113 159.98 17.6912 159.98 16.4965C159.98 15.5972 160.114 14.8053 160.369 14.1073C160.638 13.3959 161.027 12.7918 161.524 12.2818C162.02 11.7717 162.624 11.3824 163.322 11.1274C164.02 10.8589 164.799 10.7113 165.671 10.7113C166.826 10.7113 167.819 10.9529 168.678 11.4227C169.524 11.8925 170.181 12.5636 170.651 13.4227C171.121 14.2818 171.362 15.3153 171.362 16.4965C171.362 17.3959 171.228 18.2012 170.946 18.9126C170.691 19.624 170.315 20.2415 169.805 20.7516C169.309 21.2482 168.705 21.6375 168.007 21.9059C167.309 22.161 166.53 22.2952 165.658 22.2952L165.671 22.3086ZM165.671 20.1475C166.235 20.1475 166.732 20.0133 167.148 19.7314C167.564 19.4495 167.899 19.0603 168.128 18.5234C168.369 17.973 168.49 17.3019 168.49 16.4965C168.49 15.2885 168.235 14.3757 167.711 13.7851C167.201 13.1811 166.517 12.8724 165.658 12.8724C165.094 12.8724 164.597 13.0066 164.181 13.2885C163.752 13.5435 163.43 13.9462 163.175 14.4965C162.946 15.0334 162.839 15.6912 162.839 16.4965C162.839 17.6912 163.094 18.6039 163.617 19.2214C164.128 19.8254 164.812 20.1341 165.671 20.1341V20.1475ZM175.121 22.2683C174.664 22.2683 174.315 22.1475 174.074 21.9059C173.832 21.6509 173.711 21.2885 173.711 20.8187V12.2146C173.711 11.7448 173.832 11.3824 174.074 11.1408C174.315 10.8992 174.664 10.7784 175.094 10.7784C175.524 10.7784 175.873 10.8992 176.114 11.1408C176.356 11.3824 176.477 11.7448 176.477 12.2146V13.7583L176.222 13.1945C176.557 12.3891 177.067 11.7851 177.765 11.369C178.477 10.9395 179.282 10.7381 180.181 10.7381C181.081 10.7381 181.805 10.8992 182.383 11.2348C182.96 11.5704 183.389 12.0804 183.685 12.765C183.966 13.4361 184.114 14.2818 184.114 15.3153V20.8187C184.114 21.2885 183.993 21.6509 183.752 21.9059C183.51 22.1475 183.161 22.2683 182.705 22.2683C182.248 22.2683 181.899 22.1475 181.631 21.9059C181.389 21.6509 181.268 21.2885 181.268 20.8187V15.4495C181.268 14.5905 181.107 13.9596 180.772 13.5569C180.45 13.1677 179.953 12.9663 179.268 12.9663C178.436 12.9663 177.765 13.2348 177.268 13.7583C176.785 14.2683 176.544 14.9663 176.544 15.8254V20.8053C176.544 21.7717 176.06 22.2549 175.107 22.2549L175.121 22.2683ZM191.094 22.3086C190.436 22.3086 189.752 22.2415 189.027 22.1073C188.302 21.973 187.644 21.7314 187.067 21.3959C186.826 21.2482 186.651 21.0737 186.544 20.8724C186.45 20.6576 186.409 20.4563 186.436 20.2549C186.463 20.0402 186.544 19.8657 186.664 19.7046C186.799 19.5569 186.973 19.4495 187.161 19.4093C187.376 19.369 187.604 19.4093 187.846 19.5167C188.45 19.7985 189.027 20.0133 189.55 20.1341C190.087 20.2415 190.611 20.2952 191.121 20.2952C191.846 20.2952 192.383 20.1744 192.732 19.9328C193.094 19.6777 193.282 19.3422 193.282 18.9261C193.282 18.5771 193.161 18.3086 192.919 18.1341C192.691 17.9328 192.342 17.7985 191.873 17.7046L189.604 17.275C188.664 17.0871 187.94 16.7516 187.443 16.2549C186.96 15.7448 186.718 15.0737 186.718 14.2818C186.718 13.5569 186.919 12.9261 187.309 12.3891C187.725 11.8522 188.275 11.4495 188.987 11.1542C189.698 10.8724 190.517 10.7247 191.443 10.7247C192.114 10.7247 192.732 10.8053 193.309 10.9529C193.899 11.0871 194.463 11.3153 195.013 11.6106C195.242 11.7314 195.389 11.8925 195.47 12.0938C195.564 12.2952 195.577 12.4965 195.537 12.7113C195.497 12.9126 195.403 13.0871 195.268 13.2616C195.134 13.4093 194.96 13.5167 194.745 13.5569C194.544 13.5838 194.315 13.5435 194.06 13.4227C193.591 13.1811 193.134 13.0066 192.691 12.8992C192.262 12.7918 191.859 12.7381 191.456 12.7381C190.718 12.7381 190.154 12.8724 189.792 13.1274C189.443 13.3824 189.268 13.7314 189.268 14.1475C189.268 14.4697 189.376 14.7381 189.591 14.9395C189.805 15.1408 190.128 15.3019 190.571 15.369L192.839 15.7985C193.819 15.9865 194.571 16.3086 195.067 16.8053C195.577 17.2885 195.846 17.9462 195.846 18.765C195.846 19.8657 195.416 20.7381 194.544 21.3824C193.685 21.9999 192.53 22.3086 191.081 22.3086H191.094Z" fill="white"/>
<path d="M17.5234 17.2618C17.9395 17.1812 18.3556 17.1276 18.7717 17.0202C21.3355 16.3893 23.3892 15.0202 24.812 12.7517C25.0133 12.4296 25.0939 12.1074 25.067 11.7316C24.9462 9.94635 24.1945 8.42957 23.0133 7.11414C22.6241 6.68461 22.3019 6.22823 22.2482 5.6242C22.1811 4.87253 23.2013 4.01346 23.8858 4.28192C24.3422 4.45642 24.7583 4.76514 25.2147 5.02018C25.161 4.88595 25.1073 4.7383 25.0268 4.60407C24.7717 4.16112 24.5033 3.71816 24.2348 3.27521C24.1006 3.06044 23.9529 2.84568 23.8456 2.60407C23.2818 1.23494 23.7516 0.859102 24.718 0.107425C25.0133 -0.107341 25.3623 -0.0268036 25.6845 0.107425C26.369 0.416149 26.9462 0.899371 27.2684 1.58393C29.0133 5.26179 29.067 8.89937 26.9865 12.4698C26.9194 12.5772 26.8657 12.698 26.8388 12.8188C26.5435 14.0806 26.0066 15.2349 25.2147 16.2551C25.1744 16.3088 25.1476 16.3893 25.1073 16.4698C25.7247 16.2953 26.6509 15.396 28.2348 13.49C28.0603 13.8524 27.8858 14.2014 27.7113 14.5638C27.6308 14.7383 27.5368 14.9128 27.4831 15.0873C26.369 18.9531 23.765 21.1947 19.8724 21.9463C16.8925 22.5101 14.1543 21.8121 11.7113 20.0269C11.0805 19.5705 10.718 18.9665 10.6643 18.1745C10.6643 18.0672 10.557 17.9329 10.463 17.8524C10.02 17.4631 9.55025 17.0873 9.1073 16.698C8.57038 16.2282 8.28851 15.6108 8.1677 14.9128C8.04689 14.2417 8.27508 13.839 8.87911 13.5839C10.1945 13.0202 10.9462 13.2349 11.8053 14.4027C13.4429 16.6578 15.6308 17.9732 18.4093 18.2685C19.5234 18.3893 20.6375 18.3356 21.7113 18.0269C22.02 17.9464 22.3422 17.7719 22.5704 17.5571C23.0536 17.0604 23.4831 16.5101 23.9261 15.9732C24.02 15.8658 24.0603 15.7182 24.1006 15.5437C22.0737 16.8457 19.8724 17.3557 17.4966 17.2349L17.5234 17.2618ZM18.9462 20.2551C22.0603 20.7115 25.8053 18.5772 27.0805 15.7047C25.0268 18.4027 22.2617 19.8255 18.9462 20.2551Z" fill="white"/>
<path d="M19.1073 9.89268C18.906 9.22154 18.5167 8.6712 17.9261 8.32221C17.3623 7.98664 16.7583 7.73161 16.1811 7.42288C16.0603 7.35577 15.9127 7.24838 15.8724 7.12758C15.6577 6.42959 15.1879 5.94637 14.5436 5.66449C12.463 4.76516 10.3019 4.52355 8.10061 5.06046C4.48987 5.94637 1.91269 8.05375 0.852283 11.6913C0.463022 13.047 0.382485 14.4967 0.154297 15.9464C0.369062 15.4363 0.543559 14.9665 0.758324 14.5236C0.986512 14.0806 1.24155 13.6376 1.52342 13.2215C1.79188 12.8189 2.11403 12.4564 2.40933 12.0672C2.43618 12.094 2.46302 12.1074 2.48987 12.1343C2.46302 12.188 2.4496 12.2551 2.42275 12.3088C1.89926 13.4229 1.64423 14.6041 1.63081 15.8256C1.63081 16.0269 1.63081 16.2417 1.57712 16.4296C0.436176 20.3356 1.32208 23.7987 3.84557 26.8994C4.32879 27.49 4.97309 27.8524 5.72477 27.9732C5.99322 28.0135 6.34222 27.9732 6.5704 27.8524C7.3892 27.396 7.65765 26.2685 7.13416 25.49C6.83886 25.0605 6.43618 24.7115 6.07376 24.3222C5.72477 23.9464 5.37577 23.584 5.0402 23.2081C5.06705 23.1813 5.08047 23.1544 5.10732 23.1276C5.20128 23.1813 5.29524 23.235 5.40262 23.2618C5.83215 23.3692 6.26168 23.5303 6.70463 23.5571C6.9194 23.5705 7.2147 23.4095 7.36235 23.235C8.02007 22.4162 7.93953 21.7048 7.16101 20.9933C7.01336 20.8591 6.83886 20.7383 6.66436 20.6175C5.24154 19.6376 4.18114 18.3759 3.63081 16.7115C3.51 16.3625 3.52342 16.0403 3.63081 15.6913C4.55698 12.8591 6.47644 10.9531 9.17443 9.7853C9.30866 9.71818 9.45631 9.66449 9.59054 9.6108C7.25497 10.0269 5.25497 11.0873 3.60396 12.792C3.83215 11.7719 4.2751 10.886 4.90597 10.094C4.95967 10.0269 5.05363 9.98664 5.12074 9.94637C7.25497 8.81885 9.49658 8.45644 11.859 9.00677C13.3087 9.34234 14.557 10.0672 15.6979 11.0068C16.6107 11.7585 17.5368 12.1074 18.6375 11.1007C18.6509 11.0873 18.6778 11.0739 18.7046 11.0605C19.1342 10.7249 19.2684 10.4027 19.1073 9.87926V9.89268ZM0.744901 13.4497C0.865706 10.7249 5.24154 6.71147 7.77846 7.06046C4.47644 8.22825 2.08718 10.2819 0.744901 13.4497Z" fill="white"/>
</g>
<defs>
<clipPath id="clip0_1217_8252">
<rect width="195.691" height="28" fill="white" transform="translate(0.154297)"/>
</clipPath>
</defs>
</svg>
