<svg width="122" height="44" viewBox="0 0 122 44" fill="none" xmlns="http://www.w3.org/2000/svg">
<path fill-rule="evenodd" clip-rule="evenodd" d="M26.6672 20.35L33.9049 32.0834H23.5123L16.2746 20.5334C16.089 20.35 15.9034 20.35 15.7178 20.35H14.6043V32.0834H4.954V14.3C4.954 13.9334 5.13958 13.75 5.51075 13.75H22.2132C22.5844 13.75 22.77 13.5667 22.77 13.2V10.8167C22.77 10.45 22.5844 10.2667 22.2132 10.2667H5.51075C5.13958 10.2667 4.954 10.0834 4.954 9.7167V3.6667C4.954 3.30003 5.13958 3.1167 5.51075 3.1167H22.77H26.8528C29.6365 3.1167 32.0491 5.3167 32.0491 8.0667V9.7167V13.75V15.2167C32.0491 17.9667 29.6365 20.35 26.8528 20.35H26.6672ZM13.862 32.0834H14.6043V36.1167C14.9755 36.3 15.3466 36.6667 15.3466 37.0334C15.3466 37.5834 14.9755 38.1334 14.2331 38.1334C13.6764 38.1334 13.1196 37.7667 13.1196 37.0334C13.1196 36.6667 13.4908 36.3 13.862 36.1167V32.0834ZM9.77915 32.0834H9.03682V40.15C8.66566 40.3334 8.29449 40.7 8.29449 41.0667C8.29449 41.6167 8.66566 42.1667 9.40799 42.1667C9.96474 42.1667 10.5215 41.8 10.5215 41.0667C10.5215 40.7 10.1503 40.3334 9.77915 40.15V32.0834ZM28.3374 32.0834H29.0798V40.15C29.4509 40.3334 29.8221 40.7 29.8221 41.0667C29.8221 41.6167 29.4509 42.1667 28.7086 42.1667C28.1519 42.1667 27.5951 41.8 27.5951 41.0667C27.5951 40.7 27.9663 40.3334 28.3374 40.15V32.0834ZM24.2546 32.0834H23.5123V36.1167C23.1411 36.3 22.77 36.6667 22.77 37.0334C22.77 37.5834 23.1411 38.1334 23.8834 38.1334C24.6258 38.1334 24.9969 37.7667 24.9969 37.0334C24.9969 36.6667 24.6258 36.3 24.2546 36.1167V32.0834ZM33.1626 32.0834H33.9049V36.1167C34.2761 36.3 34.6473 36.6667 34.6473 37.0334C34.6473 37.5834 34.2761 38.1334 33.5338 38.1334C32.977 38.1334 32.4203 37.7667 32.4203 37.0334C32.4203 36.6667 32.7914 36.3 33.1626 36.1167V32.0834ZM5.51075 32.0834H4.954V36.1167C4.39725 36.3 4.21167 36.6667 4.21167 37.0334C4.21167 37.5834 4.58284 37.95 5.32517 37.95C5.88192 37.95 6.43866 37.5834 6.43866 37.0334C6.43866 36.6667 6.0675 36.3 5.69633 36.1167V32.0834H5.51075ZM84.3835 16.8667C84.0123 16.1334 84.0123 15.5834 84.0123 14.85C84.0123 14.1167 84.0123 13.5667 84.3835 12.8334C84.569 12.2834 84.9402 11.7334 85.4969 11.1834C86.0537 10.8167 86.6105 10.45 87.1672 10.0834C87.7239 9.90003 88.4663 9.7167 89.2086 9.7167C89.9509 9.7167 90.6933 9.90003 91.25 10.0834C91.8068 10.2667 92.3635 10.6334 92.9203 11.1834C93.2914 11.7334 93.6626 12.2834 93.8482 12.8334C94.0338 13.3834 94.2193 14.1167 94.2193 14.85C94.2193 15.5834 94.0338 16.1334 93.8482 16.8667C93.6626 17.4167 93.2914 17.9667 92.7347 18.3334C92.1779 18.7 91.8068 19.0667 91.0644 19.4334C90.5077 19.6167 89.7654 19.8 89.023 19.8C88.2807 19.8 87.5384 19.6167 86.9816 19.4334C86.4249 19.25 85.8681 18.8834 85.3114 18.3334C84.9402 17.9667 84.569 17.4167 84.3835 16.8667ZM92.1779 14.85C92.1779 14.3 91.9923 13.75 91.8068 13.2C91.4356 12.8334 91.0644 12.4667 90.6933 12.1C90.3221 11.9167 89.7654 11.7334 89.2086 11.7334C88.6519 11.7334 88.0951 11.9167 87.7239 12.1C87.3528 12.2834 86.9816 12.65 86.6105 13.2C86.4249 13.75 86.2393 14.3 86.2393 14.85C86.2393 15.4 86.4249 15.95 86.6105 16.5C86.796 17.05 87.1672 17.4167 87.7239 17.6C88.0951 17.7834 88.6519 17.9667 89.2086 17.9667C89.7654 17.9667 90.3221 17.7834 90.6933 17.6C91.0644 17.2334 91.4356 16.8667 91.8068 16.5C91.9923 15.95 92.1779 15.4 92.1779 14.85ZM43.9264 11.7334H46.8957V19.6167H48.9371V11.7334H52.092V10.0834H43.7408V11.7334H43.9264ZM55.6181 10.0834H53.5767V19.6167H55.6181V15.5834H60.0721V19.6167H62.1135V10.0834H60.0721V13.9334H55.6181V10.0834ZM64.3405 10.0834H70.8359V11.55H66.1963V13.9334H70.2792V15.4H66.1963V17.7834H71.0215V19.25H64.3405V10.0834ZM78.816 10.0834H75.4755V19.6167H77.5169V16.3167H79.0015H79.1871L81.2285 19.6167H83.4555L80.8574 15.7667C81.2285 15.5834 81.5997 15.2167 81.9709 14.6667C82.342 14.3 82.342 13.75 82.342 13.2C82.342 12.65 82.1565 12.1 81.9709 11.55C81.5997 11 81.2285 10.8167 80.6718 10.45C80.1151 10.2667 79.5583 10.0834 78.816 10.0834ZM80.3006 13.2C80.3006 14.3 79.7439 14.85 78.4448 14.85H77.5169V11.55H78.4448C79.7439 11.55 80.3006 12.1 80.3006 13.2ZM95.5184 14.85C95.5184 15.5834 95.704 16.1334 95.8896 16.8667C96.0752 17.4167 96.4463 17.9667 97.0031 18.5167C97.5598 18.8834 97.931 19.25 98.6733 19.6167C99.2301 19.8 99.9724 19.9834 100.715 19.9834C101.457 19.9834 102.199 19.8 102.756 19.6167C103.313 19.4334 103.87 19.0667 104.426 18.5167C104.983 18.15 105.354 17.6 105.54 16.8667C105.725 16.3167 105.911 15.5834 105.911 14.85C105.911 14.1167 105.725 13.5667 105.54 12.8334C105.354 12.2834 104.983 11.7334 104.426 11.3667C103.87 11 103.498 10.6334 102.756 10.2667C102.199 10.0834 101.457 9.90003 100.715 9.90003C99.9724 9.90003 99.2301 10.0834 98.6733 10.2667C98.1166 10.45 97.5598 10.8167 97.0031 11.3667C96.4463 11.7334 96.0752 12.2834 95.8896 13.0167C95.5184 13.5667 95.5184 14.1167 95.5184 14.85ZM103.313 13.2C103.498 13.75 103.684 14.3 103.684 14.85C103.684 15.4 103.498 15.95 103.313 16.5C103.127 17.05 102.756 17.4167 102.199 17.6C101.828 17.7834 101.271 17.9667 100.715 17.9667C100.158 17.9667 99.6012 17.7834 99.2301 17.6C98.8589 17.4167 98.4877 16.8667 98.1166 16.5C97.931 15.95 97.7454 15.4 97.7454 14.85C97.7454 14.3 97.931 13.75 98.1166 13.2C98.3022 12.65 98.6733 12.2834 99.2301 12.1C99.6012 11.9167 100.158 11.7334 100.715 11.7334C101.271 11.7334 101.828 11.9167 102.199 12.1C102.571 12.4667 102.942 12.8334 103.313 13.2ZM109.437 11.7334H106.282V10.0834H114.633V11.7334H111.479V19.6167H109.437V11.7334ZM46.339 22.55H44.4831V32.0834H46.339V25.6667L51.3497 32.0834H53.2055V22.55H51.3497V29.15L46.339 22.55ZM55.2469 22.55H61.7423V24.0167H57.1028V26.4H61.1856V27.8667H57.1028V30.25H61.9279V31.7167H55.2469V22.55ZM63.0414 24.2H66.1963V32.0834H68.2377V24.2H71.3927V22.55H63.0414V24.2ZM72.135 22.55H74.362L76.2178 29.5167L78.2592 22.55H80.1151L82.1565 29.3334L84.0123 22.3667H86.2393L83.27 31.9H81.2285L79.1871 25.1167L77.1457 31.9H75.1043L72.135 22.55ZM86.4249 27.3167C86.4249 28.05 86.6104 28.6 86.796 29.3334C86.9816 29.8834 87.3528 30.4334 87.9095 30.9834C88.4663 31.35 88.8374 31.7167 89.5798 32.0834C90.1365 32.2667 90.8788 32.45 91.6212 32.45C92.3635 32.45 93.1058 32.2667 93.6626 32.0834C94.2193 31.9 94.7761 31.5334 95.3328 30.9834C95.8896 30.6167 96.2608 30.0667 96.4463 29.3334C96.6319 28.7834 96.8175 28.05 96.8175 27.3167C96.8175 26.5834 96.6319 26.0334 96.4463 25.3C96.2608 24.75 95.8896 24.2 95.3328 23.8334C94.7761 23.4667 94.4049 23.1 93.6626 22.7334C93.1058 22.55 92.3635 22.3667 91.6212 22.3667C90.8788 22.3667 90.1365 22.55 89.5798 22.7334C89.023 22.9167 88.4663 23.2834 87.9095 23.8334C87.3528 24.2 86.9816 24.75 86.796 25.4834C86.4249 25.85 86.4249 26.5834 86.4249 27.3167ZM94.2193 25.6667C94.4049 26.2167 94.5905 26.7667 94.5905 27.3167C94.5905 27.8667 94.4049 28.4167 94.2193 28.9667C94.0338 29.5167 93.6626 29.8834 93.1059 30.0667C92.7347 30.25 92.1779 30.4334 91.6212 30.4334C91.0644 30.4334 90.5077 30.25 90.1365 30.0667C89.7654 29.8834 89.3942 29.3334 89.023 28.9667C88.8374 28.4167 88.6519 27.8667 88.6519 27.3167C88.6519 26.7667 88.8374 26.2167 89.023 25.6667C89.2086 25.1167 89.5798 24.75 90.1365 24.5667C90.5077 24.3834 91.0644 24.2 91.6212 24.2C92.1779 24.2 92.7347 24.3834 93.1059 24.5667C93.477 24.75 93.8482 25.1167 94.2193 25.6667ZM98.3022 22.55H101.643C102.385 22.55 103.127 22.7334 103.498 22.9167C104.055 23.1 104.426 23.4667 104.798 24.0167C105.169 24.3834 105.169 24.9334 105.169 25.6667C105.169 26.2167 104.983 26.7667 104.798 27.1334C104.426 27.5 104.055 27.8667 103.684 28.2334L106.282 32.0834H104.055L102.014 28.7834H101.828H100.344V32.0834H98.3022V22.55ZM101.271 27.1334C102.571 27.1334 103.127 26.5834 103.127 25.4834C103.127 24.3834 102.571 23.8334 101.271 23.8334H100.158V26.95H101.271V27.1334ZM109.623 22.55H107.581V32.0834H109.623V27.8667L113.706 32.0834H116.489L111.664 27.1334L116.118 22.55H113.52L109.623 26.5834V22.55Z" fill="white"/>
</svg>
