<?xml version="1.0" encoding="UTF-8" ?>
<svg xmlns="http://www.w3.org/2000/svg" xmlns:xlink="http://www.w3.org/1999/xlink" width="73.544" height="41.899" viewBox="0 0 73.544 41.899"><defs><clipPath id="a"><path d="M873.1-7789.18h73.544v-41.9H873.1Z" transform="translate(-873.097 7831.079)" fill="#fff"/></clipPath></defs><g transform="translate(-11.752 -12.761)"><path d="M241.374,301.437h-3.009V289.513h3.009Z" transform="translate(-205.719 -251.236)" fill="#fff"/><g transform="translate(11.752 12.761)"><g clip-path="url(#a)"><path d="M996.72-7553.024a5.266,5.266,0,0,0-2.531-.637,3.122,3.122,0,0,0-3.295,3.181,3.122,3.122,0,0,0,3.295,3.183,5.327,5.327,0,0,0,2.531-.633v3.2a9.654,9.654,0,0,1-2.742.424,6.076,6.076,0,0,1-6.355-6.176,6.078,6.078,0,0,1,6.355-6.171,9.144,9.144,0,0,1,2.742.428Zm-31.407,0a5.231,5.231,0,0,0-2.528-.637,3.122,3.122,0,0,0-3.3,3.181,3.123,3.123,0,0,0,3.3,3.183,5.292,5.292,0,0,0,2.528-.633v3.2a9.6,9.6,0,0,1-2.745.424,6.072,6.072,0,0,1-6.349-6.176,6.076,6.076,0,0,1,6.35-6.171,9.109,9.109,0,0,1,2.744.428Zm40.873-.592a3.082,3.082,0,0,0-3.111,3.136,3.082,3.082,0,0,0,3.111,3.139,3.085,3.085,0,0,0,3.113-3.139,3.085,3.085,0,0,0-3.113-3.136m6.3,3.136a6.122,6.122,0,0,1-6.3,6.175,6.12,6.12,0,0,1-6.3-6.176,6.121,6.121,0,0,1,6.3-6.171,6.124,6.124,0,0,1,6.3,6.172m-28.618-3.25a10.3,10.3,0,0,0-2.352-.364c-1.206,0-1.861.4-1.861.977,0,.727.884.98,1.379,1.136l.83.264a3.587,3.587,0,0,1,2.843,3.411c0,3-2.634,4-4.937,4a18.07,18.07,0,0,1-3.247-.326v-2.745a11.262,11.262,0,0,0,2.841.444c1.5,0,2.185-.438,2.185-1.113,0-.6-.6-.953-1.342-1.187-.181-.061-.456-.146-.642-.208-1.676-.53-3.073-1.515-3.073-3.488,0-2.23,1.67-3.728,4.443-3.728a12.874,12.874,0,0,1,2.933.379v2.545Z" transform="translate(-948.555 7581.957)" fill="#fff"/><path d="M892.19-7803.77a1.492,1.492,0,0,0-1.494-1.488,1.493,1.493,0,0,0-1.494,1.487v3.131a1.494,1.494,0,0,0,1.494,1.457,1.494,1.494,0,0,0,1.494-1.457Zm8.205-4.108a1.494,1.494,0,0,0-1.494-1.494,1.494,1.494,0,0,0-1.494,1.494v7.238a1.494,1.494,0,0,0,1.494,1.494,1.494,1.494,0,0,0,1.494-1.494v-7.239Zm8.206-5.622a1.493,1.493,0,0,0-1.493-1.489,1.493,1.493,0,0,0-1.494,1.489v15.834a1.494,1.494,0,0,0,1.494,1.457,1.494,1.494,0,0,0,1.494-1.457Zm8.205,5.622a1.494,1.494,0,0,0-1.494-1.494,1.494,1.494,0,0,0-1.494,1.494v7.238a1.494,1.494,0,0,0,1.494,1.494,1.494,1.494,0,0,0,1.494-1.494v-7.239Zm8.2,4.108a1.487,1.487,0,0,0-1.485-1.488,1.492,1.492,0,0,0-1.494,1.487v3.131a1.489,1.489,0,0,0,1.489,1.489A1.489,1.489,0,0,0,925-7800.64Zm8.209-4.108a1.49,1.49,0,0,0-1.489-1.452,1.49,1.49,0,0,0-1.489,1.452v7.238a1.489,1.489,0,0,0,1.489,1.489,1.489,1.489,0,0,0,1.489-1.489v-7.239Zm8.211-5.622a1.489,1.489,0,0,0-1.489-1.489,1.489,1.489,0,0,0-1.489,1.489v15.834a1.491,1.491,0,0,0,.725,1.345,1.492,1.492,0,0,0,1.528,0,1.491,1.491,0,0,0,.725-1.345Zm8.209,5.622a1.494,1.494,0,0,0-1.508-1.491,1.49,1.49,0,0,0-1.489,1.49v7.239a1.49,1.49,0,0,0,1.489,1.493,1.494,1.494,0,0,0,1.508-1.493v-7.239Zm8.194,4.108a1.491,1.491,0,0,0-1.491-1.491,1.491,1.491,0,0,0-1.491,1.491v3.13a1.492,1.492,0,0,0,1.491,1.494,1.492,1.492,0,0,0,1.49-1.494v-3.13Z" transform="translate(-887.718 7816.472)" fill="#fff"/><path d="M1602.168-7442.036v.187h-.532v1.383h-.219v-1.382h-.534v-.188h1.285Zm.111,0h.342l.47,1.288h.008l.455-1.287h.336v1.569h-.224v-1.287h-.008l-.476,1.287h-.207l-.465-1.287h-.01v1.287h-.219Z" transform="translate(-1533.781 7477.906)" fill="#fff"/></g></g></g></svg>