<?xml version="1.0" encoding="utf-8"?>
<svg xmlns="http://www.w3.org/2000/svg" width="48.459" height="20.358" viewBox="0 0 48.459 20.358"><path d="M-23.838-20.01V0h4.35V-8.555c0-2.175,1.218-3.857,3.277-3.857,1.566,0,2.32.928,2.32,2.552V0h4.35V-10.179c0-3.712-2.349-5.539-5.481-5.539a5.455,5.455,0,0,0-4.466,2.088v-6.38ZM-.232.348c4.466,0,7.018-2.117,7.018-6.061V-15.37H2.436v9.8A2.482,2.482,0,0,1-.232-2.9,2.46,2.46,0,0,1-2.871-5.568v-9.8h-4.35v9.657C-7.221-1.769-4.669.348-.232.348ZM9.251-20.01V0h4V-2.2A5.358,5.358,0,0,0,18.183.348c3.538,0,6.438-2.262,6.438-8.033s-2.9-8.033-6.438-8.033A5.514,5.514,0,0,0,13.6-13.659V-20.01ZM16.878-2.9c-1.885,0-3.364-1.16-3.364-4.785s1.479-4.785,3.364-4.785c2.146,0,3.306,1.305,3.306,4.785C20.184-4.176,18.995-2.9,16.878-2.9Z" transform="translate(23.838 20.01)"/></svg>