<?xml version="1.0" encoding="utf-8"?>
<svg xmlns="http://www.w3.org/2000/svg" width="80" height="64" viewBox="0 0 80 64"><g transform="translate(-302 -4525)"><path d="M-34.738-26.112c-3.725,0-5.262,1.325-5.262,4.475,0,3.4,1.35,4.662,5.137,4.662,2.738,0,3.775-.6,4.437-2.55h.125l-.162,2.388h4.787v-9.538a9.2,9.2,0,0,0-.5-2.962C-27.025-31.375-28.788-32-32.912-32c-3.4,0-4.85.375-5.763,1.475-.537.662-.687,1.312-.725,3.05h4.825c.087-1.287.475-1.6,1.887-1.6,1.637,0,2.238.512,2.238,1.925v2.863h-.1C-31.113-25.762-31.963-26.112-34.738-26.112ZM-32.6-20.1c-2.113,0-2.588-.312-2.575-1.613,0-1.137.6-1.512,2.238-1.512,1.912,0,2.45.313,2.45,1.45C-30.488-20.475-30.963-20.1-32.6-20.1Zm9.725-11.863v21.125h4.937v-8.787h.1c.575,1.963,1.675,2.65,4.225,2.65,2.1,0,3.3-.35,4.15-1.263C-8.325-19.462-7.95-21.1-7.95-24.85c0-3.463-.375-4.937-1.6-6.013A5.721,5.721,0,0,0-13.488-32c-2.7,0-3.55.475-4.687,2.613h-.1l.188-2.575Zm10.113,7.588c0,3.012-.475,3.713-2.525,3.713-2.213,0-2.65-.687-2.65-4.187,0-2.963.475-3.588,2.588-3.588C-13.175-28.437-12.763-27.812-12.763-24.375Zm7.237-7.588h-.012v21.125H-.6v-8.787h.1c.575,1.963,1.675,2.65,4.225,2.65,2.113,0,3.312-.35,4.162-1.263C9.025-19.462,9.4-21.1,9.4-24.85c0-3.463-.375-4.937-1.6-6.013A5.721,5.721,0,0,0,3.862-32c-2.7,0-3.55.475-4.687,2.613h-.1l.187-2.575ZM4.587-24.375c0,3.012-.475,3.713-2.525,3.713-2.213,0-2.65-.687-2.65-4.187,0-2.963.475-3.588,2.588-3.588C4.175-28.437,4.587-27.812,4.587-24.375Zm6.725-.475c0,3.687.35,5.287,1.412,6.35,1.125,1.125,2.888,1.537,6.325,1.537,3.087,0,4.625-.475,5.537-1.7a5.342,5.342,0,0,0,.85-3.088v-.287H20.75c0,1.362-.5,1.737-2.238,1.737-1.95,0-2.512-.625-2.512-2.737a4.145,4.145,0,0,1,.037-.6H25.45v-1.388c0-5.362-1.612-6.963-6.962-6.963-2.863,0-4.538.4-5.638,1.413C11.725-29.575,11.312-28.025,11.312-24.85Zm9.55-1.45H16.075l.038-.412c.125-1.512.462-1.887,2.262-1.887,2.037,0,2.45.287,2.45,1.825A2.867,2.867,0,0,0,20.862-26.3Zm6.95-5.662H27.8V-17.15h4.787v-8.5a4.164,4.164,0,0,1,.125-1.537A1.661,1.661,0,0,1,34.35-28.35c1.037,0,1.287.5,1.287,2.425a2.963,2.963,0,0,1-.037.5h4.375c-.025-.537-.025-.975-.025-1.162,0-2.45-.187-3.338-.85-4.25A3.461,3.461,0,0,0,36.175-32c-1.913,0-2.863.662-3.713,2.525h-.088l.225-2.488Z" transform="translate(342 4581)" fill="#000"/><path d="M0,0H80V64H0Z" transform="translate(302 4525)" fill="rgba(255,255,255,0)"/></g></svg>