<svg height="23" viewBox="0 0 135 23" width="135" xmlns="http://www.w3.org/2000/svg" xmlns:xlink="http://www.w3.org/1999/xlink"><clipPath id="a"><path d="m.651.796h135v23h-135z"/></clipPath><g clip-path="url(#a)" transform="translate(-.651 -.796)"><path d="m12 23.778v-4.444a7 7 0 0 0 6.512-9.561 6.616 6.616 0 0 0 -3.965-3.973 7 7 0 0 0 -9.465 6.531h-4.431a11.467 11.467 0 0 1 15.038-10.84 10.992 10.992 0 0 1 7.183 7.2 11.5 11.5 0 0 1 -10.872 15.087z" transform="translate(0 .012)"/><path d="m12.493 22.046h-4.43v-4.377h4.431zm-4.43 3.434h-3.357v-3.434h3.357zm-3.357-3.434h-2.819v-2.828h2.819zm36.855-11.784a8.514 8.514 0 0 0 -4.833-1.347h-4.1v13.13h4.1a8.2 8.2 0 0 0 4.833-1.414 5.148 5.148 0 0 0 1.678-2.087 7.5 7.5 0 0 0 .6-3.1 6.966 6.966 0 0 0 -.6-3.03 4.27 4.27 0 0 0 -1.678-2.152zm-6.512.875h1.276a6.493 6.493 0 0 1 3.558.875c1.007.606 1.477 1.751 1.477 3.434a4.155 4.155 0 0 1 -1.477 3.569 6.519 6.519 0 0 1 -3.491.875h-1.343zm11.681-2.423a1.364 1.364 0 0 0 -1.007.4 1.213 1.213 0 0 0 -.47 1.01 1.41 1.41 0 1 0 2.417-1.01 1.125 1.125 0 0 0 -.94-.4zm-1.208 4.04h2.35v9.225h-2.35zm10.741.808a3.545 3.545 0 0 0 -2.35-1.01 4.149 4.149 0 0 0 -3.155 1.348 4.7 4.7 0 0 0 -1.275 3.3 4.762 4.762 0 0 0 1.208 3.3 4.1 4.1 0 0 0 3.155 1.279 3.709 3.709 0 0 0 2.282-.741v.2a2.41 2.41 0 0 1 -.6 1.751 2.23 2.23 0 0 1 -1.678.606 2.846 2.846 0 0 1 -2.551-1.549l-1.611 1.549.067.067a6.439 6.439 0 0 0 1.544 1.414 4.374 4.374 0 0 0 2.551.673 4.2 4.2 0 0 0 3.289-1.279 4.744 4.744 0 0 0 1.272-3.37v-8.346h-2.283v.808zm-.6 5.454a2.264 2.264 0 0 1 -3.222 0 2.7 2.7 0 0 1 -.6-1.818 2.7 2.7 0 0 1 .6-1.818 2.264 2.264 0 0 1 3.222 0 2.7 2.7 0 0 1 .6 1.818 2.7 2.7 0 0 1 -.605 1.818zm4.9-6.262h2.35v9.225h-2.35zm1.137-4.04a1.379 1.379 0 1 0 1.007.4 1.364 1.364 0 0 0 -1.007-.4zm6.243 1.549h-2.282v2.491h-1.343v2.087h1.343v3.838a3.634 3.634 0 0 0 .738 2.559 3.532 3.532 0 0 0 2.484.741 6.484 6.484 0 0 0 1.141-.067h.134v-2.088l-.805.067c-.537 0-.94-.067-1.074-.269a1.785 1.785 0 0 1 -.269-1.212v-3.5h2.148v-2.089h-2.148zm13.024-1.347h2.349v13.13h-2.349zm25.778 9.831a7.765 7.765 0 0 1 -1.141 1.077 2.311 2.311 0 0 1 -1.208.337 2.286 2.286 0 0 1 -1.679-.741 2.77 2.77 0 0 1 -.671-1.953 2.769 2.769 0 0 1 .671-1.953 2.062 2.062 0 0 1 1.679-.741 3.084 3.084 0 0 1 2.215 1.279l1.544-1.481a4.638 4.638 0 0 0 -3.826-1.885 4.466 4.466 0 0 0 -3.29 1.414 4.9 4.9 0 0 0 -1.339 3.434 4.786 4.786 0 0 0 1.343 3.434 4.361 4.361 0 0 0 3.29 1.414 4.639 4.639 0 0 0 3.961-2.087zm9.465-4.647a3.535 3.535 0 0 0 -1.343-1.077 4.37 4.37 0 0 0 -1.947-.4 3.984 3.984 0 0 0 -3.155 1.414 5.422 5.422 0 0 0 -1.141 3.434 4.63 4.63 0 0 0 1.276 3.429 4.491 4.491 0 0 0 3.357 1.347 4.639 4.639 0 0 0 3.826-1.885l.067-.067-1.544-1.481a4.058 4.058 0 0 1 -.537.539 2.045 2.045 0 0 1 -.671.471 2.2 2.2 0 0 1 -1.141.269 2.581 2.581 0 0 1 -1.612-.539 2.026 2.026 0 0 1 -.671-1.414h6.176v-.875a5.032 5.032 0 0 0 -.269-1.751 3.055 3.055 0 0 0 -.671-1.414zm-5.035 2.155a2.391 2.391 0 0 1 .6-1.077 1.616 1.616 0 0 1 1.208-.471 1.577 1.577 0 0 1 1.276.471 1.973 1.973 0 0 1 .47 1.077zm13.963-2.761a4.232 4.232 0 0 0 -2.887-.875 5.864 5.864 0 0 0 -2.148.471 3.637 3.637 0 0 0 -1.544 1.481l1.477 1.414a2.346 2.346 0 0 1 2.215-1.347 1.871 1.871 0 0 1 1.208.4 1.214 1.214 0 0 1 .47 1.01v.471a5.126 5.126 0 0 0 -1.678-.269 4.661 4.661 0 0 0 -2.819.808 2.7 2.7 0 0 0 -1.074 2.289 2.611 2.611 0 0 0 .873 2.087 3.161 3.161 0 0 0 2.215.741 4.088 4.088 0 0 0 2.483-.943v.741h2.283v-5.92a3.131 3.131 0 0 0 -1.073-2.559zm-4.1 4.983a1.7 1.7 0 0 1 1.074-.269 5.692 5.692 0 0 1 1.745.337v.875a2.965 2.965 0 0 1 -2.014.741 1.31 1.31 0 0 1 -.94-.269.938.938 0 0 1 -.335-.673 1.1 1.1 0 0 1 .476-.742zm14.1-4.848a3.391 3.391 0 0 0 -2.685-1.077 2.99 2.99 0 0 0 -2.215.808v-.539h-2.283v9.225h2.35v-5.118a2.633 2.633 0 0 1 .47-1.683 1.687 1.687 0 0 1 1.342-.606 1.473 1.473 0 0 1 1.208.539 2.432 2.432 0 0 1 .47 1.481v5.387h2.349v-5.387a5.1 5.1 0 0 0 -1.003-3.03zm-57.058-.135a4.235 4.235 0 0 0 -2.887-.875 5.867 5.867 0 0 0 -2.148.471 3.641 3.641 0 0 0 -1.545 1.482l1.477 1.414a2.345 2.345 0 0 1 2.215-1.347 1.87 1.87 0 0 1 1.208.4 1.213 1.213 0 0 1 .47 1.01v.471a5.13 5.13 0 0 0 -1.679-.269 4.662 4.662 0 0 0 -2.819.808 2.7 2.7 0 0 0 -1.072 2.293 2.611 2.611 0 0 0 .873 2.087 3.162 3.162 0 0 0 2.215.741 4.089 4.089 0 0 0 2.484-.943v.741h2.282v-5.925a3.347 3.347 0 0 0 -1.074-2.559zm-4.162 4.983a1.7 1.7 0 0 1 1.074-.269 5.7 5.7 0 0 1 1.745.337v.875a2.967 2.967 0 0 1 -2.014.741 1.309 1.309 0 0 1 -.94-.269.936.936 0 0 1 -.336-.673 2.007 2.007 0 0 1 .471-.742zm17.789 3.771a6.733 6.733 0 1 1 6.713-6.733 6.743 6.743 0 0 1 -6.712 6.733zm0-11.177a4.377 4.377 0 1 0 4.364 4.377 4.361 4.361 0 0 0 -4.363-4.378z" transform="translate(-.43 -2.693)"/></g></svg>