<svg height="67.089" viewBox="0 0 85.067 67.089" width="85.067" xmlns="http://www.w3.org/2000/svg"><path d="m43.373-18.591q-9.208 0-14.689-6.468t-5.484-17.649a41.277 41.277 0 0 1 8.881-25.652q8.879-11.62 30.365-17.32v11.4q-9.647 3.508-14.47 7.125a11.78 11.78 0 0 0 -4.823 9.976 5.362 5.362 0 0 0 2.412 4.714q2.412 1.644 5.591 3.508a18.12 18.12 0 0 1 5.591 5.262q2.412 3.4 2.412 9.976 0 7.454-4.495 11.291a16.781 16.781 0 0 1 -11.291 3.837zm-45.822 0q-9.208 0-14.689-6.468t-5.482-17.649a40.957 40.957 0 0 1 8.989-25.652q8.989-11.62 30.256-17.32v11.4q-9.425 3.509-14.361 7.126a11.689 11.689 0 0 0 -4.933 9.976 5.362 5.362 0 0 0 2.412 4.714q2.412 1.644 5.591 3.508a18.12 18.12 0 0 1 5.591 5.262q2.412 3.4 2.412 9.976 0 7.454-4.495 11.291a16.781 16.781 0 0 1 -11.292 3.836z" fill="#fff" opacity=".064" transform="translate(22.62 85.68)"/></svg>