<svg height="20.648" viewBox="0 0 73.582 20.648" width="73.582" xmlns="http://www.w3.org/2000/svg"><path d="m-23.838-20.01v19.47h4.233v-8.324c0-2.116 1.185-3.753 3.189-3.753 1.524 0 2.257.9 2.257 2.483v9.594h4.233v-9.9c0-3.612-2.286-5.39-5.333-5.39a5.308 5.308 0 0 0 -4.346 2.03v-6.21zm22.969 19.81c4.346 0 6.829-2.061 6.829-5.9v-9.4h-4.233v9.538a2.415 2.415 0 0 1 -2.6 2.6 2.394 2.394 0 0 1 -2.568-2.6v-9.538h-4.228v9.4c0 3.839 2.483 5.9 6.8 5.9zm9.228-19.81v19.47h3.894v-2.144a5.214 5.214 0 0 0 4.797 2.484c3.443 0 6.264-2.2 6.264-7.816s-2.822-7.816-6.264-7.816a5.365 5.365 0 0 0 -4.458 2v-6.18zm7.421 16.649c-1.834 0-3.273-1.129-3.273-4.656s1.439-4.656 3.273-4.656c2.088 0 3.22 1.273 3.22 4.656 0 3.417-1.16 4.656-3.22 4.656z" fill="#fff" transform="translate(50.267 20.849)"/><g fill="#fad55b"><circle cx="6.5" cy="6.5" opacity=".811" r="6.5"/><circle cx="13.5" cy="6.5" opacity=".316" r="6.5"/></g></svg>