<svg xmlns="http://www.w3.org/2000/svg" width="110" height="19" viewBox="0 0 110 19"><g transform="translate(-163 -4219)"><rect width="110" height="19" rx="9.5" transform="translate(163 4219)" fill="#1d1d1d"/><path d="M-40.375-7.1v1.15h-2.06V0h-1.21V-5.95H-45.7V-7.1Zm7.51,0V0h-1.21V-3.04h-3.37V0h-1.21V-7.1h1.21v2.94h3.37V-7.1Zm7.48,5.98V0h-4.99V-7.1h4.99v1.12h-3.78v1.82h3.61v1.12h-3.61v1.92Zm3.29-5.98,2.24,2.94L-17.6-7.1h1.11V0h-1.19V-5.19l-2.15,2.78h-.04l-2.14-2.78V0H-23.2V-7.1Zm13.08,5.98V0H-14V-7.1h4.99v1.12h-3.78v1.82h3.61v1.12h-3.61v1.92Zm7.15-4.27a2.55,2.55,0,0,0-.67,1.84,2.55,2.55,0,0,0,.67,1.84,2.276,2.276,0,0,0,1.72.7,2.276,2.276,0,0,0,1.72-.7,2.55,2.55,0,0,0,.67-1.84,2.55,2.55,0,0,0-.67-1.84,2.276,2.276,0,0,0-1.72-.7A2.276,2.276,0,0,0-1.865-5.39ZM-2.785-.9a3.651,3.651,0,0,1-1.03-2.65,3.634,3.634,0,0,1,1.03-2.645A3.529,3.529,0,0,1-.145-7.25,3.529,3.529,0,0,1,2.5-6.195,3.634,3.634,0,0,1,3.525-3.55,3.634,3.634,0,0,1,2.5-.9,3.529,3.529,0,0,1-.145.15,3.538,3.538,0,0,1-2.785-.9Zm9.62-3.02h1.74a1.217,1.217,0,0,0,.865-.27.983.983,0,0,0,.285-.75,1.007,1.007,0,0,0-.29-.76,1.192,1.192,0,0,0-.86-.28H6.835Zm0,1.12V0H5.625V-7.1h2.94a2.418,2.418,0,0,1,1.8.595,2.136,2.136,0,0,1,.585,1.565,2.077,2.077,0,0,1-.6,1.55,2.44,2.44,0,0,1-1.78.59Zm10.58-4.3v1.15h-2.06V0h-1.21V-5.95h-2.06V-7.1Zm2.93,0V0h-1.21V-7.1ZM24.4-5.39a2.55,2.55,0,0,0-.67,1.84,2.55,2.55,0,0,0,.67,1.84,2.276,2.276,0,0,0,1.72.7,2.276,2.276,0,0,0,1.72-.7,2.55,2.55,0,0,0,.67-1.84,2.55,2.55,0,0,0-.67-1.84,2.276,2.276,0,0,0-1.72-.7A2.276,2.276,0,0,0,24.4-5.39ZM23.475-.9a3.651,3.651,0,0,1-1.03-2.65,3.634,3.634,0,0,1,1.03-2.645,3.529,3.529,0,0,1,2.64-1.055,3.529,3.529,0,0,1,2.64,1.055,3.634,3.634,0,0,1,1.03,2.645A3.634,3.634,0,0,1,28.755-.9,3.529,3.529,0,0,1,26.115.15,3.538,3.538,0,0,1,23.475-.9Zm9.6-4.2V0h-1.19V-7.1h1.23l3.45,5.11V-7.1h1.19V0h-1.24Zm9.45,4.15a2.1,2.1,0,0,0,1.13-.255.82.82,0,0,0,.4-.735.771.771,0,0,0-.22-.57,1.37,1.37,0,0,0-.57-.33,7.61,7.61,0,0,0-.77-.195q-.42-.085-.845-.21a3.607,3.607,0,0,1-.775-.325,1.5,1.5,0,0,1-.57-.6,2.009,2.009,0,0,1-.22-.98,1.909,1.909,0,0,1,.695-1.49,2.7,2.7,0,0,1,1.845-.61A2.594,2.594,0,0,1,44.51-6.6,2.323,2.323,0,0,1,45.2-4.9h-1.19a1.251,1.251,0,0,0-.37-.905,1.391,1.391,0,0,0-1.02-.355,1.663,1.663,0,0,0-.985.255.84.84,0,0,0-.355.725.674.674,0,0,0,.22.515,1.418,1.418,0,0,0,.575.31q.355.105.78.19a7.969,7.969,0,0,1,.85.22,3.607,3.607,0,0,1,.78.35,1.594,1.594,0,0,1,.575.62,2.039,2.039,0,0,1,.22.985,1.843,1.843,0,0,1-.77,1.55,3.325,3.325,0,0,1-2.05.58,2.6,2.6,0,0,1-1.97-.69,2.442,2.442,0,0,1-.69-1.67H41a1.293,1.293,0,0,0,.43.93A1.605,1.605,0,0,0,42.525-.95Z" transform="translate(217 4232)" fill="#fff"/></g></svg>