<?xml version="1.0" encoding="UTF-8"?>
<svg width="329px" height="51px" viewBox="0 0 329 51" version="1.1" xmlns="http://www.w3.org/2000/svg" xmlns:xlink="http://www.w3.org/1999/xlink">
    <title>brainchild</title>
    <g id="Page-1" stroke="none" stroke-width="1" fill="none" fill-rule="evenodd">
        <g id="brainchild" transform="translate(0.560000, 0.800000)" fill="#FFFFFF" fill-rule="nonzero">
            <path d="M21.6207951,31.0214067 C22.2446483,30.7461774 22.6788991,30.5443425 22.9174312,30.4220183 C23.1620795,30.2996942 23.5963303,29.9938838 24.2201835,29.5045872 C26.0550459,28.1100917 26.9785933,25.9816514 26.9785933,23.1253823 C26.9785933,20.7584098 26.1651376,18.6299694 24.5382263,16.7461774 C23.6391437,15.7370031 22.293578,14.9357798 20.5076453,14.3425076 C18.7217125,13.7492355 16.5993884,13.4556575 14.1406728,13.4556575 L0,13.4556575 L0,50 L15.9082569,50 C20.8990826,50 24.3975535,48.8685015 26.4097859,46.5993884 C28.1406728,44.648318 29.0091743,42.3975535 29.0091743,39.853211 C29.0091743,37.5535168 28.3425076,35.6269113 27.0091743,34.0795107 C25.6697248,32.5259939 23.8776758,31.5045872 21.6207951,31.0214067 Z M8.10397554,20.3547401 L12,20.3547401 C14.3914373,20.3547401 16.0917431,20.617737 17.0948012,21.1376147 C18.0978593,21.6636086 18.6055046,22.733945 18.6055046,24.3547401 C18.6055046,25.9755352 18.0611621,27.0275229 16.9663609,27.5168196 C15.8776758,28.0061162 14.2018349,28.2507645 11.9510703,28.2507645 L8.10397554,28.2507645 L8.10397554,20.3547401 Z M18.8929664,42.2324159 C17.7308869,42.8073394 15.9877676,43.0948012 13.6697248,43.0948012 L8.10397554,43.0948012 L8.10397554,34.6788991 L12.8868502,34.6788991 C15.5902141,34.6788991 17.5535168,34.9480122 18.7889908,35.4923547 C20.0183486,36.030581 20.6360856,37.1498471 20.6360856,38.8379205 C20.6360856,40.5259939 20.0550459,41.6574924 18.8929664,42.2324159 Z M65.2905199,25.5840979 C65.2905199,21.3333333 64.0856269,18.2507645 61.675841,16.3302752 C59.266055,14.4159021 55.235474,13.4556575 49.5902141,13.4556575 L35.8165138,13.4556575 L35.8165138,50 L43.9266055,50 L43.9266055,38.3425076 L49.5412844,38.3425076 L57.5963303,50 L67.5779817,50 L58.3792049,36.9296636 C62.9847095,35.2171254 65.2905199,31.4373089 65.2905199,25.5840979 Z M55.5168196,29.9204893 C54.5137615,30.8256881 52.6238532,31.2782875 49.853211,31.2782875 L43.9266055,31.2782875 L43.9266055,20.4587156 L50.0122324,20.4587156 C52.6116208,20.4587156 54.4281346,20.8256881 55.4678899,21.5535168 C56.5076453,22.2874618 57.0275229,23.6391437 57.0275229,25.6024465 C57.0275229,27.5779817 56.5259939,29.0152905 55.5168196,29.9204893 Z M84.5749235,13.4556575 L68.8746177,50 L77.5045872,50 L80.8807339,42.1039755 L96.1100917,42.1039755 L99.4862385,50 L108.116208,50 L92.4159021,13.4556575 L84.5749235,13.4556575 Z M83.9510703,34.941896 L88.5259939,24.3302752 L93.0458716,34.941896 L83.9510703,34.941896 Z M153.314985,36.9785933 L135.486239,13.4556575 L127.896024,13.4556575 L127.896024,50 L136.006116,50 L136.006116,27.0948012 L153.314985,49.9938838 L161.425076,49.9938838 L161.425076,13.4556575 L153.314985,13.4556575 L153.314985,36.9785933 Z M187.608563,19.9877676 C191.41896,19.9877676 194.605505,21.5902141 197.174312,24.8012232 L202.220183,19.0519878 C198.201835,14.4831804 193.211009,12.2018349 187.247706,12.2018349 C181.908257,12.2018349 177.394495,14.0183486 173.706422,17.6391437 C170.012232,21.266055 168.171254,25.7859327 168.171254,31.204893 C168.171254,36.6238532 169.981651,41.1131498 173.602446,44.6666667 C177.223242,48.2201835 181.834862,50 187.431193,50 C193.027523,50 197.889908,47.6636086 202.012232,42.9908257 L196.813456,37.6085627 C194.281346,40.7828746 191.027523,42.3669725 187.039755,42.3669725 C184.12844,42.3669725 181.651376,41.3394495 179.608563,39.2844037 C177.565749,37.2293578 176.538226,34.5015291 176.538226,31.1009174 C176.538226,27.7003058 177.620795,25.0030581 179.785933,22.9969419 C181.95107,20.9908257 184.562691,19.9877676 187.608563,19.9877676 Z M230.966361,28.7217125 L216.513761,28.7217125 L216.513761,13.4556575 L208.40367,13.4556575 L208.40367,50 L216.513761,50 L216.513761,35.6207951 L230.966361,35.6207951 L230.966361,50 L239.076453,50 L239.076453,13.4556575 L230.966361,13.4556575 L230.966361,28.7217125 L230.966361,28.7217125 Z M248.018349,49.9938838 L256.12844,49.9938838 L256.12844,13.4556575 L248.018349,13.4556575 L248.018349,49.9938838 Z M273.174312,13.4556575 L265.06422,13.4556575 L265.06422,50 L288.666667,50 L288.666667,42.733945 L273.174312,42.733945 L273.174312,13.4556575 Z M322.35474,18.2385321 C318.88685,15.0519878 313.914373,13.4556575 307.437309,13.4556575 L294.599388,13.4556575 L294.599388,50 L307.021407,50 C313.95107,50 319.107034,48.3486239 322.489297,45.0336391 C325.87156,41.7247706 327.559633,37.2293578 327.559633,31.5474006 C327.553517,25.8593272 325.82263,21.4250765 322.35474,18.2385321 Z M316.40367,39.9571865 C314.409786,41.8409786 311.559633,42.7767584 307.853211,42.7767584 L302.703364,42.7767584 L302.703364,20.5565749 L307.223242,20.5565749 C311.345566,20.5565749 314.409786,21.5229358 316.397554,23.4556575 C318.391437,25.3883792 319.388435,28.1529052 319.388435,31.7431193 C319.394495,35.3394495 318.397554,38.0733945 316.40367,39.9571865 Z M120.574924,40.6788991 L113.045872,40.6788991 C112.538226,40.6788991 112.12844,41.088685 112.12844,41.5963303 L112.12844,49.0764526 C112.12844,49.5840979 112.538226,49.9938838 113.045872,49.9938838 L120.574924,49.9938838 C121.082569,49.9938838 121.492355,49.5840979 121.492355,49.0764526 L121.492355,41.5963303 C121.492355,41.088685 121.076453,40.6788991 120.574924,40.6788991 Z M113.192661,34.1834862 L120.293578,34.1834862 C120.776758,34.1834862 121.16208,33.7920489 121.16208,33.3149847 L121.16208,0.868501529 C121.16208,0.385321101 120.770642,0 120.293578,0 L113.192661,0 C112.70948,0 112.324159,0.391437309 112.324159,0.868501529 L112.324159,33.3149847 C112.324159,33.7920489 112.70948,34.1834862 113.192661,34.1834862 Z" id="Shape"></path>
        </g>
    </g>
</svg>