<svg xmlns="http://www.w3.org/2000/svg" width="93.043" height="27.102" viewBox="0 0 93.043 27.102"><path d="M6.586,30.275c0-1.346-.024-2.473-.1-3.481H9.036l.121,1.73h.071a4.045,4.045,0,0,1,3.6-2,3.373,3.373,0,0,1,3.242,2.162h.049a4.417,4.417,0,0,1,1.439-1.464,3.9,3.9,0,0,1,2.354-.7c1.946,0,3.913,1.321,3.913,5.069v6.89H20.946v-6.46c0-1.944-.673-3.1-2.089-3.1a2.254,2.254,0,0,0-2.065,1.563,4.225,4.225,0,0,0-.144.983v7.014H13.766V31.714c0-1.63-.648-2.784-2.018-2.784A2.315,2.315,0,0,0,9.635,30.61a2.563,2.563,0,0,0-.168.96v6.918H6.586Zm28.47,5.405a18.973,18.973,0,0,0,.167,2.809H32.557l-.191-1.3h-.073a4.341,4.341,0,0,1-3.456,1.559,3.47,3.47,0,0,1-3.675-3.481c0-2.956,2.615-4.443,6.94-4.419V30.66c0-.77-.313-2.042-2.379-2.042a6.207,6.207,0,0,0-3.146.864L26,27.56a8.412,8.412,0,0,1,4.226-1.033c3.748,0,4.83,2.38,4.83,4.923v4.23Zm-2.883-2.905c-2.09-.049-4.082.407-4.082,2.184a1.552,1.552,0,0,0,1.682,1.682,2.4,2.4,0,0,0,2.305-1.61,2.171,2.171,0,0,0,.1-.648V32.775Zm4.923-2.5c0-1.346-.025-2.473-.094-3.481h2.591l.143,1.756h.073a4.214,4.214,0,0,1,3.722-2.021c2.042,0,4.154,1.321,4.154,5.021v6.938H44.731v-6.6c0-1.681-.626-2.958-2.234-2.958a2.48,2.48,0,0,0-2.305,1.731,2.994,2.994,0,0,0-.12.958v6.87H37.095V30.275Zm23.4-8.18V35.2c0,1.2.049,2.5.1,3.29h-2.64l-.121-1.848h-.049a4.208,4.208,0,0,1-3.817,2.112c-2.786,0-4.994-2.377-4.994-5.977-.026-3.916,2.423-6.247,5.235-6.247a3.718,3.718,0,0,1,3.289,1.541h.05V22.1h2.952ZM57.54,31.668a4.094,4.094,0,0,0-.073-.769,2.587,2.587,0,0,0-2.545-2.088c-1.9,0-2.955,1.682-2.955,3.866,0,2.135,1.057,3.7,2.932,3.7a2.606,2.606,0,0,0,2.544-2.09,3.255,3.255,0,0,0,.1-.864V31.668Zm5.041,6.821v-11.7h2.98v11.7Zm5.067-7.924c0-1.585-.022-2.715-.094-3.77h2.569l.094,2.232h.1a3.216,3.216,0,0,1,3.2-2.232,3.264,3.264,0,0,1,.694,0v2.6a4.076,4.076,0,0,0-.863-.1A2.6,2.6,0,0,0,70.7,31.525a5.306,5.306,0,0,0-.1.915v6.05H67.649V30.564Zm7.927,7.924v-11.7h2.976v11.7Z" transform="translate(-6.49 -11.651)"></path><path d="M94.76,15.1c-1.474-1.682-3.042-.921-4.288-.3-.524.259-4.306,2.4-4.306,2.4a3.681,3.681,0,0,1-4.319-.863,1.859,1.859,0,0,1-.164-.236l-.148-.256a11.5,11.5,0,0,0-.83-1.241,7.012,7.012,0,0,0-.6-.681c-1.418-1.432-3.684-2.434-7.471-.614C70.846,14.35,65,17.687,65,17.687a3.637,3.637,0,0,1-4.419-1,.586.586,0,0,1-.064-.1l-.072-.122-.37-.605q-.25-.4-.537-.771a7.756,7.756,0,0,0-.6-.68c-1.408-1.423-3.662-2.423-7.416-.637-2.27,1.3-7.55,4.314-7.55,4.314l0,0-3.864,2.208,2,2.455a4.069,4.069,0,0,0,4.869,1.008s6.752-3.91,6.779-3.922c5.773-3.168,8.621-.141,9.881,1.877.044.063.079.132.119.192l0,0c.016.025.026.047.04.071l.142.233a3.159,3.159,0,0,0,2.735,1.5,3.375,3.375,0,0,0,1.7-.57l6.533-3.789.014-.006c5.846-3.207,8.742.018,9.979,2.036a4.843,4.843,0,0,0,.318.5,3,3,0,0,0,2.531,1.348,3.838,3.838,0,0,0,1.622-.518l7.832-4.521A32.394,32.394,0,0,0,94.76,15.1Z" transform="translate(-4.162 -12.327)"></path></svg>