<svg xmlns="http://www.w3.org/2000/svg" width="46.574" height="33.87" viewBox="0 0 46.574 33.87"><path d="M17.183,16.6c0,1.192-.125,1.787-.99,1.787-.9,0-1.045-.541-1.045-1.623V7.25H8.139V18.427a7,7,0,0,0,1.566,4.8,5.232,5.232,0,0,0,4.147,1.886,6.808,6.808,0,0,0,3.49-1.057C16.683,26.553,15.2,27.8,12.985,27.8a7.3,7.3,0,0,1-2.453-.585A13.322,13.322,0,0,1,8.139,26.1V31.9a16.823,16.823,0,0,0,2.394,1.239,10.617,10.617,0,0,0,3.8.729,9.581,9.581,0,0,0,7.341-3.319,10.393,10.393,0,0,0,2.514-7.329V7.25H17.183ZM33.074.085c-8.318.749-7.752,9.644-7.752,9.644V25.283c4.522,0,6.783-2.171,6.783-5.177V18.075H35.44V11.309H32.1V10.4a3.762,3.762,0,0,1,.749-2.443,2.475,2.475,0,0,1,1.967-.854c.558.006,1.583.191,1.79,1l.015.064v7.051a11.052,11.052,0,0,0,1.537,6.237,8.8,8.8,0,0,0,3.281,2.918,9.25,9.25,0,0,0,4.362,1.074c.171,0,.481,0,.768-.018V18.262c-1.434,0-2.049-.265-2.505-.813a4.975,4.975,0,0,1-.678-2.983h2.441V7.25H43.52C43.085,4.545,41.46.468,35.432.014c0,0-.714-.027-1.273-.007-.436.016-1.085.078-1.085.078ZM9.378,24.72l.005.011a9.186,9.186,0,0,1-2.374.984v.037l-.023-.033a5.724,5.724,0,0,1-1.223.141,5.276,5.276,0,0,1-4.183-1.9A7.062,7.062,0,0,1,0,19.11V.469H7.009V19.111a7.054,7.054,0,0,0,1.575,4.845,6.126,6.126,0,0,0,.794.764Z" fill="#97a2ac"></path></svg>