<svg height="13.095" viewBox="0 0 92.5 13.095" width="92.5" xmlns="http://www.w3.org/2000/svg"><path d="m-11.852-21.217h8.484l3.223-4.365h-8.484zm-34.4-2.645v.925h11.823l.679-.925zm24.989-1.72c-1.257 0-.867-.52-.665-.795.4-.549 1.1-1.5 1.5-2.038s.4-.853-.4-.853h-7.372l-5.94 8.065h14.468a10.251 10.251 0 0 0 8.272-4.379zm45.889-1 5.68-7.718h-8.99l-5.68 7.718zm-57.1 1h-13.776v.925h13.094zm16.043-3.844c-.4.549-1.084 1.5-1.489 2.052-.2.289-.593.795.665.795h6.591s1.055-1.445 1.951-2.659c1.214-1.648.1-5.059-4.22-5.059h-17.04l-2.948 4.018h16.1c.807 0 .792.318.388.853zm-29.819 8.209h10.565l.679-.925h-11.244zm46.683 0h8.484l3.223-4.365h-8.484c-.014 0-3.223 4.365-3.223 4.365zm32.086.014h13.731v-.925h-13.05zm3.223-4.379-.679.925h11.187v-.925zm-1.951 2.645h12.459v-.925h-11.779zm-23.732-11.363-3.252 4.425h-3.786l3.252-4.425h-8.484l-5.68 7.718h20.754l5.68-7.718zm4.841 8.718s-.621.853-.925 1.257c-1.07 1.445-.13 3.122 3.353 3.122h13.63l3.223-4.379z" fill="#99a2ab" transform="translate(46.25 34.297)"/></svg>