<svg height="30.5" viewBox="0 0 68.747 30.5" width="68.747" xmlns="http://www.w3.org/2000/svg"><path d="m34.375-22.537-10 .666-3.406 8.851-1.461-8.529-3.255.215 2.556 12.654 3.427-.215 5.081-12.4-1.364 12.164 6.95-.44.322-2.8-3.7.236.247-2.159 3.7-.236.344-3.029-3.706.247.215-1.944 3.706-.247zm-22.902 14.319 3.04-.193 1.386-12.9-3.051.2zm-28.446 1.783 13.557-.827.859-1.751 4.232-.269.462 1.676 6.231-.394 1.042-9.875 2.61-.172.322-3.008-8.057.526-.312 3 2.4-.15-.956 9.2-3.451-11.888-2.557.167-5.909 12.595.226-2.234-3.9.247.2-2.138 3.91-.247.29-3-3.91.247.184-1.92 3.91-.258.29-3-6.961.451-.279 2.857c-.408-2.148-2.406-2.686-4.565-2.546l-4.179.269-.3 3.309a5.261 5.261 0 0 0 -5.511-3.094 7.808 7.808 0 0 0 -7.251 7.025 5.486 5.486 0 0 0 6.059 6.252 8 8 0 0 0 6.112-3.846l-.29 3.126 3.029-.183.376-4.018zm-4.759-7.541-.29 3.2-2.9.183a4.171 4.171 0 0 1 -3.1 2.03c-2.3.14-3.233-1.633-3.083-3.352a4.077 4.077 0 0 1 3.717-3.577 2.684 2.684 0 0 1 2.825 1.7zm6.026-.827c-.14 1.5-1.568 1.633-3.094 1.729l.29-3.062c1.988-.128 2.934-.052 2.805 1.336zm2.268 7.603-2.374-3.588a4.878 4.878 0 0 0 3-2.857zm14.544-4.831-2.546.161 1.7-4.222zm-18.272-8.014 6.1-.4.677-7.111 4.039 6.8 2.686-.172.43-4.329c1.053 3.1 3.137 4.393 5.951 4.211a7.64 7.64 0 0 0 6.4-4.082l-.355 3.384 3.051-.2.43-4.114 2.063 3.953 3.91-.258-2.707-4.168a5.171 5.171 0 0 0 3.437-5.328l1.7 4.619-.516 4.759 3.051-.2.516-4.759 4.684-8.422-3.33.236-2.471 4.903-1.386-4.641-3.459.236.473 1.278c-.913-1.01-2.535-1.139-3.9-1.042l-4.222.29-.355 3.437a5.6 5.6 0 0 0 -5.731-3.253c-4.372.3-6.037 3.652-6.832 5.1l.43-4.426-3.062.2-.7 7.154-4.061-6.832-2.9.193-1.065 11.255-3.3-10.957-2.567.172-6.123 13.095 3.427-.226.87-1.955 4.254-.279zm29.713-8.819.312-3.094a4.884 4.884 0 0 1 2.46.215c.3.172.43.548.365 1.117a1.545 1.545 0 0 1 -.816 1.3 6.338 6.338 0 0 1 -2.321.462zm-11.72 3.727a2.932 2.932 0 0 1 -.773-2.5 3.721 3.721 0 0 1 1.386-2.621 4.013 4.013 0 0 1 2.36-.991 2.846 2.846 0 0 1 1.31.269 5.147 5.147 0 0 1 1.192.87l3.352-.226-.129 1.289-6.778.462-.258 2.567 3.674-.247a5.069 5.069 0 0 1 -1.622 1.536 3.412 3.412 0 0 1 -1.429.44 2.732 2.732 0 0 1 -2.285-.848zm-21.624.881 1.665-4.211.892 4.039z" fill="#a9b5c0" transform="translate(34.372 35.868)"/></svg>