<svg height="18.536" viewBox="0 0 75.81 18.536" width="75.81" xmlns="http://www.w3.org/2000/svg"><circle cx="9.268" cy="9.268" fill="#597ffb" r="9.268"/><circle cx="18.536" cy="9.268" fill="#f85976" opacity=".316" r="9.268"/><path d="m-23.838-20.01v17.39h3.781v-7.435c0-1.89 1.059-3.352 2.848-3.352 1.361 0 2.016.807 2.016 2.218v8.569h3.781v-8.846a4.421 4.421 0 0 0 -4.763-4.814 4.741 4.741 0 0 0 -3.881 1.815v-5.545zm20.516 17.693c3.881 0 6.1-1.84 6.1-5.268v-8.393h-3.778v8.519a2.157 2.157 0 0 1 -2.322 2.319 2.138 2.138 0 0 1 -2.294-2.319v-8.519h-3.784v8.393c0 3.428 2.222 5.268 6.078 5.268zm8.241-17.693v17.39h3.481v-1.915a4.657 4.657 0 0 0 4.285 2.218c3.075 0 5.6-1.966 5.6-6.981s-2.52-6.981-5.6-6.981a4.792 4.792 0 0 0 -3.985 1.789v-5.52zm6.629 14.87c-1.638 0-2.924-1.008-2.924-4.16s1.285-4.159 2.924-4.159c1.865 0 2.873 1.134 2.873 4.159 0 3.051-1.033 4.16-2.873 4.16z" fill="#191922" transform="translate(57.533 20.01)"/></svg>