<svg height="14.968" viewBox="0 0 199.352 14.968" width="199.352" xmlns="http://www.w3.org/2000/svg"><g transform="translate(-37.521 -198.043)"><g fill="none" stroke="#dd902d" stroke-linecap="round" stroke-linejoin="round" stroke-miterlimit="10"><path d="m55.751 205.527h-1.306c-2.6.1-4.024 1.414-4.2 3.558a2.879 2.879 0 0 0 2.635 3.1 2.13 2.13 0 0 0 2.3-1.949 1.575 1.575 0 0 0 -1.441-1.7"/><path d="m55.751 205.527h-1.306c-2.6-.1-4.024-1.414-4.2-3.558a2.879 2.879 0 0 1 2.635-3.1 2.129 2.129 0 0 1 2.3 1.949 1.575 1.575 0 0 1 -1.441 1.7"/><path d="m55.751 205.531h73.975"/></g><path d="m45.835 203.081-8.314 2.45 8.314 2.451 2.686-2.451z" fill="#dd902d"/><path d="m218.643 205.527h1.306c2.6.1 4.024 1.414 4.2 3.558a2.879 2.879 0 0 1 -2.635 3.1 2.13 2.13 0 0 1 -2.3-1.949 1.575 1.575 0 0 1 1.441-1.7" fill="none" stroke="#dd902d" stroke-linecap="round" stroke-linejoin="round" stroke-miterlimit="10"/><path d="m218.643 205.527h1.306c2.6-.1 4.024-1.414 4.2-3.558a2.879 2.879 0 0 0 -2.635-3.1 2.129 2.129 0 0 0 -2.3 1.949 1.575 1.575 0 0 0 1.441 1.7" fill="none" stroke="#dd902d" stroke-linecap="round" stroke-linejoin="round" stroke-miterlimit="10"/><path d="m218.643 205.531h-73.976" fill="none" stroke="#dd902d" stroke-linecap="round" stroke-linejoin="round" stroke-miterlimit="10"/><path d="m228.559 203.081 8.314 2.45-8.314 2.451-2.686-2.451z" fill="#dd902d"/><path d="m137.2 198.543-4.25 6.984 4.25 6.984 4.249-6.984z" fill="none" stroke="#dd902d" stroke-linecap="round" stroke-linejoin="round" stroke-miterlimit="10"/></g></svg>