<svg height="11.325" viewBox="0 0 80 11.325" width="80" xmlns="http://www.w3.org/2000/svg"><path d="m-10.25-18.35h7.338l2.787-3.775h-7.338zm-29.75-2.287v.8h10.225l.588-.8zm21.612-1.488c-1.088 0-.75-.45-.575-.687.35-.475.95-1.3 1.3-1.762s.35-.738-.35-.738h-6.375l-5.138 6.975h12.513a8.865 8.865 0 0 0 7.15-3.787zm39.688-.862 4.912-6.675h-7.775l-4.912 6.675zm-49.387.863h-11.913v.8h11.325zm13.875-3.325c-.35.475-.937 1.3-1.287 1.775-.175.25-.512.687.575.687h5.7s.912-1.25 1.687-2.3c1.05-1.425.088-4.375-3.65-4.375h-14.738l-2.55 3.475h13.925c.7 0 .687.275.337.737zm-25.788 7.099h9.137l.588-.8h-9.725zm40.375 0h7.337l2.788-3.775h-7.338c-.012 0-2.787 3.775-2.787 3.775zm27.75.012h11.875v-.8h-11.288zm2.787-3.787-.588.8h9.676v-.8zm-1.687 2.287h10.775v-.8h-10.188zm-20.525-9.824-2.813 3.825h-3.275l2.812-3.825h-7.337l-4.912 6.675h17.95l4.912-6.675zm4.187 7.537s-.537.738-.8 1.088c-.925 1.25-.113 2.7 2.9 2.7h11.788l2.787-3.787z" transform="translate(40 29.662)"/></svg>