<?xml version="1.0" encoding="utf-8"?>
<svg xmlns="http://www.w3.org/2000/svg" width="51.695" height="23.324" viewBox="0 0 51.695 23.324"><g transform="translate(-866.801 -539.144)"><path d="M866.8,539.946c6.907-1.909,11.146.01,13.945,6.251,2.359,5.261,5.77,10.05,8.754,15.112-7.452,2.165-9.023,1.607-12.585-4.352C873.6,551.409,870.307,545.846,866.8,539.946Z"/><path d="M904.765,561.677c-6.878,1.847-11.029.074-13.793-6.026-2.442-5.39-5.952-10.3-9.046-15.509,8.75-1.837,9.037-1.709,13.211,5.346C898.255,550.758,901.4,556.016,904.765,561.677Z"/><path d="M907.567,558.009c-2.378-4.024-4.492-7.2-6.2-10.589-2.125-4.216-.064-7.593,4.622-8,.659-.057,1.325-.021,1.988-.021,3.141,0,6.282,0,10.518,0Z"/></g></svg>