<svg height="33.11" viewBox="0 0 64.68 33.11" width="64.68" xmlns="http://www.w3.org/2000/svg"><path d="m55.02-18.16c-.98.07-1.4.28-2.66 1.4a37.236 37.236 0 0 1 -7.14 4.34 14.132 14.132 0 0 1 -6.16 1.33 13.458 13.458 0 0 1 -3.99-.56c-1.61-.42-1.61-.42-4.48-1.05-1.54-.35-3.29-1.75-5.25-4.06a70.48 70.48 0 0 0 -9.24-1.05c-8.12-.49-8.89-.56-10.5-.84-2.73-.56-4.06-1.82-4.06-3.78a2.951 2.951 0 0 1 1.19-2.38c1.61-1.26 3.92-1.61 10.22-1.61h7.84a5.646 5.646 0 0 1 -1.05-3.22 4.167 4.167 0 0 1 4.13-4.27 6.666 6.666 0 0 1 -.42-1.89 4.613 4.613 0 0 1 4.34-4.62 4.137 4.137 0 0 1 1.54.35 2.4 2.4 0 0 1 -.14-.91c0-1.68 1.89-3.22 3.92-3.22a12.625 12.625 0 0 1 3.5.77c1.26-.07 2.38-.14 2.87-.14 3.29 0 5.11.7 11.13 4.34a20.15 20.15 0 0 0 4.2 2.17 5.142 5.142 0 0 1 1.96-1.4 16.528 16.528 0 0 1 3.92-.42c1.96 0 2.8.28 3.29 1.12 1.47 2.59 2.24 6.93 2.24 12.39 0 6.3-.98 9.17-3.29 9.45-.56.07-2.87.21-3.36.21-1.82 0-2.38-.35-4.55-2.45zm-36.26-6.3c-9.1 0-12.53.14-13.72.49-.77.21-1.54.91-1.54 1.47 0 1.26 1.4 2.03 3.92 2.24 5.88.35 13.51.98 16.52 1.33-.98-1.61-1.54-2.38-1.54-2.52a7.945 7.945 0 0 1 -.77-3.01zm28.21-14.63a16.6 16.6 0 0 0 -7.56-2.73c3.08 2.45 4.41 4.34 4.41 6.3a3.247 3.247 0 0 1 -.91 2.59 3.22 3.22 0 0 1 -2.52 1.12 10.452 10.452 0 0 1 .14 1.19c0 1.89-1.33 3.15-3.57 3.43a3.752 3.752 0 0 1 .49 1.33 26.035 26.035 0 0 1 4.34-2.1 30.668 30.668 0 0 1 5.25-.7c1.68 0 2.87.56 2.87 1.33 0 .49-.35.77-.91.77h-.28c-2.03-.21-2.03-.21-2.24-.21a11.08 11.08 0 0 0 -6.58 1.68 20.8 20.8 0 0 0 -5.18 4.48 16.855 16.855 0 0 1 -2.38-.84c-1.26-.42-1.26-.42-1.75-1.19-1.4-1.96-3.01-2.94-4.9-2.94-1.26 0-2.1.56-2.1 1.4a6.873 6.873 0 0 0 1.26 2.87c1.82 3.22 3.57 5.25 5.18 6.09a33.335 33.335 0 0 0 9.1 2.24 12.311 12.311 0 0 0 4.41-.84 45.8 45.8 0 0 0 7.91-4.69c1.61-1.26 2.59-1.75 3.71-1.75.07 0 .28.07.56.14a6.45 6.45 0 0 0 .77-2.52c.07-.84.21-4.13.21-5.04a21.09 21.09 0 0 0 -.35-3.36 6.608 6.608 0 0 0 -1.54-3.78c-1.19-.7-1.19-.7-4.55-2.38zm-23.94 12.25c1.61-.63 1.61-.63 2.45-.63a9.9 9.9 0 0 1 3.08.56 7.921 7.921 0 0 1 3.43 2.8c.63.91.91 1.12 1.47 1.12a2.6 2.6 0 0 0 2.24-2.1 3.755 3.755 0 0 0 -1.33-2.45 24.717 24.717 0 0 0 -3.99-2.38 13.405 13.405 0 0 0 -3.08-1.4 11.71 11.71 0 0 0 -3.08-.84 2.667 2.667 0 0 0 -2.59 2.52 4.378 4.378 0 0 0 1.4 2.8zm15.68-4.2c0-1.26-1.26-2.52-4.69-4.55-3.15-1.89-5.04-2.73-6.23-2.73a2.429 2.429 0 0 0 -2.31 2.31 2.562 2.562 0 0 0 .84 1.75c.49.56.49.56 2.1 1.33 1.05.42 4.9 2.45 5.74 2.94 1.33.84 1.75.98 2.45.98a2.142 2.142 0 0 0 2.1-2.03zm3.22-4.34c0-.98-.91-2.45-2.31-3.71-2.38-2.17-4.41-3.29-6.23-3.29-1.26 0-2.31.7-2.31 1.61a1.675 1.675 0 0 0 .7 1.26c.63.7.7.7 3.85 2.59a19.23 19.23 0 0 1 3.29 2.38c.56.56.84.7 1.26.7a1.654 1.654 0 0 0 1.75-1.54zm15.54 16.73c0 .49.84.98 1.61.98a4.647 4.647 0 0 0 .91-.07h1.4c1.47 0 1.96-.21 2.31-1.05a24.478 24.478 0 0 0 .7-7 25.853 25.853 0 0 0 -1.33-9.38c-.56-1.4-.77-1.61-2.17-1.61-3.29 0-4.06.14-4.06.84a7.249 7.249 0 0 0 .63 1.75 20.788 20.788 0 0 1 1.19 7.77c0 3.36-.28 5.39-1.05 7.21a2.164 2.164 0 0 0 -.14.56z" fill="#fff" transform="matrix(-1 0 0 -1 66.22 -11.09)"/></svg>