<svg width="564" height="1190" viewBox="0 0 564 1190" fill="none" xmlns="http://www.w3.org/2000/svg">
<g clip-path="url(#clip0_5_811)">
<path d="M435.81 1187.99C432.85 1187.99 430.1 1186.27 428.81 1183.6L418.68 1162.71C417.93 1161.16 416.33 1160.16 414.61 1160.16H149.08C147.36 1160.16 145.77 1161.16 145.02 1162.71L134.89 1183.6C133.6 1186.26 130.85 1187.98 127.89 1187.98H55.8599C53.5499 1187.98 51.3699 1186.96 49.8899 1185.19C48.4099 1183.42 47.7899 1181.1 48.1999 1178.82L54.9399 1141.36C55.1299 1141.36 55.31 1141.36 55.49 1141.36H508.2C508.38 1141.36 508.57 1141.36 508.75 1141.36L515.49 1178.82C515.9 1181.09 515.28 1183.41 513.8 1185.19C512.32 1186.96 510.14 1187.98 507.83 1187.98H435.8L435.81 1187.99Z" fill="#03FFCC"/>
<path d="M507.09 1143.38L513.53 1179.19C513.83 1180.88 513.38 1182.6 512.28 1183.92C511.18 1185.24 509.56 1185.99 507.85 1185.99H435.82C433.62 1185.99 431.58 1184.71 430.62 1182.73L420.49 1161.84C419.41 1159.61 417.11 1158.17 414.63 1158.17H149.08C146.6 1158.17 144.3 1159.61 143.22 1161.84L133.09 1182.73C132.13 1184.71 130.09 1185.99 127.89 1185.99H55.86C54.14 1185.99 52.53 1185.23 51.43 1183.92C50.33 1182.6 49.87 1180.88 50.18 1179.19L56.62 1143.38H507.09ZM510.42 1139.3C509.69 1139.35 508.95 1139.38 508.21 1139.38H55.49C54.75 1139.38 54.01 1139.35 53.28 1139.3L46.23 1178.48C45.72 1181.34 46.49 1184.25 48.35 1186.48C50.21 1188.71 52.95 1189.99 55.85 1189.99H127.88C131.6 1189.99 135.05 1187.83 136.68 1184.48L146.81 1163.59C147.23 1162.72 148.11 1162.17 149.08 1162.17H414.62C415.58 1162.17 416.46 1162.72 416.89 1163.59L427.02 1184.48C428.64 1187.83 432.1 1189.99 435.82 1189.99H507.85C510.75 1189.99 513.49 1188.71 515.35 1186.48C517.21 1184.25 517.99 1181.34 517.47 1178.48L510.42 1139.29V1139.3Z" fill="black"/>
<path d="M64.85 1141.29C39.49 1141.29 18.85 1120.65 18.85 1095.29V743.29C18.85 719.43 37.29 700.01 59.96 700.01C61.5 700.01 63.07 700.1 64.63 700.28C64.71 700.28 64.78 700.29 64.86 700.29H498.86C498.94 700.29 499.01 700.29 499.09 700.28C500.64 700.1 502.21 700.01 503.76 700.01C526.43 700.01 544.87 719.43 544.87 743.29V1095.29C544.87 1120.65 524.23 1141.29 498.87 1141.29H64.85ZM331.21 812.79C316.01 812.79 303.65 825.8 303.65 841.79V952.79C303.65 968.78 316.02 981.79 331.21 981.79H472.28C487.48 981.79 499.84 968.78 499.84 952.79V841.79C499.84 825.8 487.47 812.79 472.28 812.79H331.21Z" fill="#9966FF"/>
<path d="M503.74 702.01C525.3 702.01 542.85 720.53 542.85 743.29V1095.29C542.85 1119.55 523.11 1139.29 498.85 1139.29H64.85C40.59 1139.29 20.85 1119.55 20.85 1095.29V743.29C20.85 732.28 24.9 721.92 32.27 714.11C39.63 706.3 49.47 702.01 59.96 702.01C61.43 702.01 62.92 702.1 64.4 702.26C64.55 702.28 64.7 702.29 64.85 702.29H498.85C499 702.29 499.15 702.29 499.3 702.26C500.78 702.09 502.27 702.01 503.74 702.01ZM331.21 983.79H472.28C488.58 983.79 501.84 969.88 501.84 952.79V841.79C501.84 824.7 488.58 810.79 472.28 810.79H331.21C314.91 810.79 301.65 824.7 301.65 841.79V952.79C301.65 969.88 314.91 983.79 331.21 983.79ZM503.74 698.01C502.13 698.01 500.5 698.1 498.85 698.29H64.85C63.2 698.1 61.56 698.01 59.96 698.01C35.83 698.01 16.85 718.54 16.85 743.29V1095.29C16.85 1121.69 38.45 1143.29 64.85 1143.29H498.85C525.25 1143.29 546.85 1121.69 546.85 1095.29V743.29C546.85 718.54 527.87 698.01 503.74 698.01ZM331.21 979.79C317.09 979.79 305.65 967.7 305.65 952.79V841.79C305.65 826.88 317.09 814.79 331.21 814.79H472.28C486.4 814.79 497.84 826.88 497.84 841.79V952.79C497.84 967.7 486.4 979.79 472.28 979.79H331.21Z" fill="black"/>
<path d="M189.56 951.71H88.5599C79.7234 951.71 72.5599 958.873 72.5599 967.71V998.71C72.5599 1007.55 79.7234 1014.71 88.5599 1014.71H189.56C198.396 1014.71 205.56 1007.55 205.56 998.71V967.71C205.56 958.873 198.396 951.71 189.56 951.71Z" fill="white"/>
<path d="M189.56 953.71C197.28 953.71 203.56 959.99 203.56 967.71V998.71C203.56 1006.43 197.28 1012.71 189.56 1012.71H88.5599C80.8399 1012.71 74.5599 1006.43 74.5599 998.71V967.71C74.5599 959.99 80.8399 953.71 88.5599 953.71H189.56ZM189.56 949.71H88.5599C78.6199 949.71 70.5599 957.77 70.5599 967.71V998.71C70.5599 1008.65 78.6199 1016.71 88.5599 1016.71H189.56C199.5 1016.71 207.56 1008.65 207.56 998.71V967.71C207.56 957.77 199.5 949.71 189.56 949.71Z" fill="black"/>
<path d="M140.06 920.71C174.578 920.71 202.56 892.728 202.56 858.21C202.56 823.692 174.578 795.71 140.06 795.71C105.542 795.71 77.5599 823.692 77.5599 858.21C77.5599 892.728 105.542 920.71 140.06 920.71Z" fill="#0066FF" stroke="#0066FF" stroke-width="4" stroke-linecap="round" stroke-linejoin="round"/>
<path d="M138.06 909.71C104.7 909.71 77.5599 882.57 77.5599 849.21C77.5599 815.85 104.7 788.71 138.06 788.71C171.42 788.71 198.56 815.85 198.56 849.21C198.56 882.57 171.42 909.71 138.06 909.71Z" fill="#03FFCC"/>
<path d="M138.06 790.71C170.32 790.71 196.56 816.95 196.56 849.21C196.56 881.47 170.32 907.71 138.06 907.71C105.8 907.71 79.5599 881.47 79.5599 849.21C79.5599 816.95 105.8 790.71 138.06 790.71ZM138.06 786.71C103.54 786.71 75.5599 814.69 75.5599 849.21C75.5599 883.73 103.54 911.71 138.06 911.71C172.58 911.71 200.56 883.73 200.56 849.21C200.56 814.69 172.58 786.71 138.06 786.71Z" fill="black"/>
<path fill-rule="evenodd" clip-rule="evenodd" d="M336.01 1010.46C318.17 1010.46 303.65 993.93 303.65 973.61C303.65 973.61 303.65 936.9 303.65 936.73C305.06 951.43 322.02 963.66 336.01 963.66H467.29C481.28 963.66 498.24 951.43 499.65 936.73C499.65 936.9 499.65 973.61 499.65 973.61C499.65 993.93 485.13 1010.46 467.29 1010.46H336.01Z" fill="#9966FF"/>
<path d="M497.65 948.34V973.61C497.65 992.83 484.03 1008.46 467.29 1008.46H336.01C319.27 1008.46 305.65 992.83 305.65 973.61V948.34C307.58 951.41 310.15 954.29 313.33 956.87C320.07 962.37 328.55 965.65 336.01 965.65H467.29C474.75 965.65 483.23 962.37 489.97 956.87C493.15 954.28 495.72 951.4 497.65 948.34ZM500.47 928.14C499.32 928.14 497.75 934.75 497.75 934.75C497.75 949.6 480.43 961.65 467.29 961.65H336.01C322.87 961.65 305.55 949.61 305.55 934.75C305.55 934.75 303.98 928.14 302.83 928.14C302.17 928.14 301.65 930.33 301.65 937.25V973.61C301.65 995.07 317.03 1012.46 336.01 1012.46H467.29C486.27 1012.46 501.65 995.07 501.65 973.61V937.25C501.65 930.34 501.13 928.14 500.47 928.14Z" fill="black"/>
<path d="M196.76 150.36L229.02 242.18L342.62 238.43L366.28 143.38C366.54 113.74 357.38 86.48 357.38 86.48C357.38 86.48 294.33 83.54 206.58 88.85C206.58 88.85 198.26 105.4 196.76 150.36Z" fill="#CCCCCC"/>
<mask id="mask0_5_811" style="mask-type:luminance" maskUnits="userSpaceOnUse" x="196" y="85" width="171" height="158">
<path d="M196.76 150.36L229.02 242.18L342.62 238.43L366.28 143.38C366.54 113.74 357.38 86.48 357.38 86.48C357.38 86.48 294.33 83.54 206.58 88.85C206.58 88.85 198.26 105.4 196.76 150.36Z" fill="white"/>
</mask>
<g mask="url(#mask0_5_811)">
<g style="mix-blend-mode:multiply">
<path d="M190.35 149.52C190.35 149.52 289.38 139.38 360.04 144.51C365.06 111.03 352.18 71.6 352.18 71.6L366.64 85.4L373.89 146.61L345.88 248.24L226.56 252.18L190.34 149.52H190.35Z" fill="#0066FF"/>
<path d="M190.35 149.52C190.35 149.52 289.38 139.38 360.04 144.51C365.06 111.03 352.18 71.6 352.18 71.6L366.64 85.4L373.89 146.61L345.88 248.24L226.56 252.18L190.34 149.52H190.35Z" stroke="#0066FF" stroke-width="3" stroke-linecap="round" stroke-linejoin="round"/>
</g>
</g>
<path d="M196.76 150.36L229.02 242.18L342.62 238.43L366.28 143.38C366.54 113.74 357.38 86.48 357.38 86.48C357.38 86.48 294.33 83.54 206.58 88.85C206.58 88.85 198.26 105.4 196.76 150.36Z" stroke="black" stroke-width="3" stroke-linecap="round" stroke-linejoin="round"/>
<path d="M270.64 114.28C270.05 123.74 260.88 132.12 250.17 133.01C239.46 133.9 231.25 126.95 231.85 117.49C232.44 108.03 241.61 99.65 252.32 98.76C263.03 97.87 271.24 104.82 270.64 114.28Z" fill="black" stroke="black" stroke-width="3" stroke-linecap="round" stroke-linejoin="round"/>
<path d="M332.73 111.76C334.72 121.85 326.69 130.82 314.79 131.8C302.89 132.78 291.63 125.4 289.64 115.32C287.65 105.23 295.68 96.26 307.58 95.28C319.48 94.3 330.74 101.68 332.73 111.76Z" fill="black" stroke="black" stroke-width="3" stroke-linecap="round" stroke-linejoin="round"/>
<path d="M209.66 153.83L212.35 176.56L236.73 254.8C236.73 254.8 282.63 257.19 334.13 250.01C334.13 250.01 350.8 193.84 352.5 171.78L351.66 149.69C351.66 149.69 281.5 147.48 209.65 153.83H209.66Z" fill="#CCCCCC"/>
<mask id="mask1_5_811" style="mask-type:luminance" maskUnits="userSpaceOnUse" x="209" y="149" width="144" height="107">
<path d="M209.66 153.83L212.35 176.56L236.73 254.8C236.73 254.8 282.63 257.19 334.13 250.01C334.13 250.01 350.8 193.84 352.5 171.78L351.66 149.69C351.66 149.69 281.5 147.48 209.65 153.83H209.66Z" fill="white"/>
</mask>
<g mask="url(#mask1_5_811)">
<g style="mix-blend-mode:multiply">
<path d="M176.41 175.78C176.41 175.78 275.44 165.64 346.1 170.77C348.45 148.76 346.61 140.23 346.61 140.23L356.9 147.07L359.96 172.86L331.95 274.49L212.63 278.43L176.41 175.77V175.78Z" fill="#0066FF"/>
<path d="M176.41 175.78C176.41 175.78 275.44 165.64 346.1 170.77C348.45 148.76 346.61 140.23 346.61 140.23L356.9 147.07L359.96 172.86L331.95 274.49L212.63 278.43L176.41 175.77V175.78Z" stroke="#0066FF" stroke-width="3" stroke-linecap="round" stroke-linejoin="round"/>
</g>
</g>
<path d="M209.66 153.83L212.35 176.56L236.73 254.8C236.73 254.8 282.63 257.19 334.13 250.01C334.13 250.01 350.8 193.84 352.5 171.78L351.66 149.69C351.66 149.69 281.5 147.48 209.65 153.83H209.66Z" stroke="black" stroke-width="3" stroke-linecap="round" stroke-linejoin="round"/>
<path d="M284.1 147.64C281.74 147.92 280.28 150.39 281.22 152.57C282.94 156.56 286.09 162.38 290.99 166.07C299.62 172.57 310.27 164.47 309.61 158.88C308.94 153.22 305.7 148.9 303.83 146.82C303.05 145.96 301.91 145.53 300.75 145.67L284.1 147.64Z" fill="#EF4D75" stroke="black" stroke-width="3" stroke-linecap="round" stroke-linejoin="round"/>
<path opacity="0.2" d="M511.14 249.79H57.59C48.06 249.79 39.12 252.32 31.49 256.71C23.49 261.31 16.95 267.95 12.65 275.84V383.92L17.6 388.22L356.32 682.49L366.62 691.44H521.37C535.99 688.56 548.35 679.66 555.38 667.64C559.37 660.82 561.64 653 561.64 644.69V297.54C561.64 271.28 538.91 249.79 511.13 249.79H511.14ZM551.13 639.95L116.53 259.73H171.21L551.13 586.5V639.95ZM551.13 540.59L222.43 259.73H511.14C533.19 259.73 551.13 276.69 551.13 297.53V540.58V540.59Z" fill="white"/>
<path d="M510.99 261.33C533.26 261.33 551.37 278.22 551.37 298.99V649.85C551.37 670.61 533.26 687.51 510.99 687.51H53.01C30.74 687.51 12.63 670.62 12.63 649.85V298.99C12.63 278.23 30.74 261.33 53.01 261.33H511M510.99 251.42H53.01C24.96 251.42 2 272.83 2 298.99V649.85C2 676.01 24.95 697.42 53.01 697.42H511C539.05 697.42 562.01 676.01 562.01 649.85V298.99C562.01 272.83 539.06 251.42 511 251.42H510.99Z" fill="#9966FF"/>
<path d="M510.99 261.33C533.26 261.33 551.37 278.22 551.37 298.99V649.85C551.37 670.61 533.26 687.51 510.99 687.51H53.01C30.74 687.51 12.63 670.62 12.63 649.85V298.99C12.63 278.23 30.74 261.33 53.01 261.33H511M510.99 251.42H53.01C24.96 251.42 2 272.83 2 298.99V649.85C2 676.01 24.95 697.42 53.01 697.42H511C539.05 697.42 562.01 676.01 562.01 649.85V298.99C562.01 272.83 539.06 251.42 511 251.42H510.99Z" stroke="black" stroke-width="4" stroke-linecap="round" stroke-linejoin="round"/>
<path d="M54.35 249.79V220.79C54.35 195.43 74.99 174.79 100.35 174.79H463.35C488.71 174.79 509.35 195.43 509.35 220.79V249.79H54.35Z" fill="#03FFCC"/>
<path d="M463.35 176.79C487.61 176.79 507.35 196.53 507.35 220.79V247.79H56.35V220.79C56.35 196.53 76.09 176.79 100.35 176.79H463.35ZM463.35 172.79H100.35C73.95 172.79 52.35 194.39 52.35 220.79V251.79H511.35V220.79C511.35 194.39 489.75 172.79 463.35 172.79Z" fill="black"/>
<g style="mix-blend-mode:multiply">
<path d="M318.11 175.72C318.11 175.72 324.88 207.95 354.66 207.6C375.41 207.36 382.07 191.66 378.91 176.71L318.11 175.72Z" fill="#0066FF"/>
<path d="M318.11 175.72C318.11 175.72 324.88 207.95 354.66 207.6C375.41 207.36 382.07 191.66 378.91 176.71L318.11 175.72Z" stroke="#0066FF" stroke-width="3" stroke-linecap="round" stroke-linejoin="round"/>
</g>
<g style="mix-blend-mode:multiply">
<path d="M191.53 175.72C191.53 175.72 198.3 207.95 228.08 207.6C248.83 207.36 255.49 191.66 252.33 176.71L191.53 175.72Z" fill="#0066FF"/>
<path d="M191.53 175.72C191.53 175.72 198.3 207.95 228.08 207.6C248.83 207.36 255.49 191.66 252.33 176.71L191.53 175.72Z" stroke="#0066FF" stroke-width="3" stroke-linecap="round" stroke-linejoin="round"/>
</g>
<path d="M212.46 205.23C228.211 205.23 240.98 192.461 240.98 176.71C240.98 160.959 228.211 148.19 212.46 148.19C196.709 148.19 183.94 160.959 183.94 176.71C183.94 192.461 196.709 205.23 212.46 205.23Z" fill="#4C4C4C"/>
<mask id="mask2_5_811" style="mask-type:luminance" maskUnits="userSpaceOnUse" x="183" y="148" width="58" height="58">
<path d="M212.46 205.23C228.211 205.23 240.98 192.461 240.98 176.71C240.98 160.959 228.211 148.19 212.46 148.19C196.709 148.19 183.94 160.959 183.94 176.71C183.94 192.461 196.709 205.23 212.46 205.23Z" fill="white"/>
</mask>
<g mask="url(#mask2_5_811)">
<g style="mix-blend-mode:multiply">
<path d="M225.96 148.94C225.96 148.94 240.98 165.82 228.99 189.12C220.91 204.83 206.11 204.5 206.11 204.5C206.11 204.5 224.74 216.66 241.82 191.66C258.91 166.65 225.96 148.94 225.96 148.94Z" fill="#0066FF"/>
<path d="M225.96 148.94C225.96 148.94 240.98 165.82 228.99 189.12C220.91 204.83 206.11 204.5 206.11 204.5C206.11 204.5 224.74 216.66 241.82 191.66C258.91 166.65 225.96 148.94 225.96 148.94Z" stroke="#0066FF" stroke-width="3" stroke-linecap="round" stroke-linejoin="round"/>
</g>
</g>
<path d="M212.46 205.23C228.211 205.23 240.98 192.461 240.98 176.71C240.98 160.959 228.211 148.19 212.46 148.19C196.709 148.19 183.94 160.959 183.94 176.71C183.94 192.461 196.709 205.23 212.46 205.23Z" stroke="black" stroke-width="3" stroke-linecap="round" stroke-linejoin="round"/>
<path d="M346.35 200.07C362.101 200.07 374.87 187.301 374.87 171.55C374.87 155.799 362.101 143.03 346.35 143.03C330.599 143.03 317.83 155.799 317.83 171.55C317.83 187.301 330.599 200.07 346.35 200.07Z" fill="#4C4C4C"/>
<mask id="mask3_5_811" style="mask-type:luminance" maskUnits="userSpaceOnUse" x="317" y="143" width="58" height="58">
<path d="M346.35 200.07C362.101 200.07 374.87 187.301 374.87 171.55C374.87 155.799 362.101 143.03 346.35 143.03C330.599 143.03 317.83 155.799 317.83 171.55C317.83 187.301 330.599 200.07 346.35 200.07Z" fill="white"/>
</mask>
<g mask="url(#mask3_5_811)">
<g style="mix-blend-mode:multiply">
<path d="M359.85 143.78C359.85 143.78 374.87 160.66 362.88 183.96C354.8 199.67 340 199.34 340 199.34C340 199.34 358.63 211.5 375.71 186.5C392.8 161.49 359.85 143.78 359.85 143.78Z" fill="#0066FF"/>
<path d="M359.85 143.78C359.85 143.78 374.87 160.66 362.88 183.96C354.8 199.67 340 199.34 340 199.34C340 199.34 358.63 211.5 375.71 186.5C392.8 161.49 359.85 143.78 359.85 143.78Z" stroke="#0066FF" stroke-width="3" stroke-linecap="round" stroke-linejoin="round"/>
</g>
</g>
<path d="M346.35 200.07C362.101 200.07 374.87 187.301 374.87 171.55C374.87 155.799 362.101 143.03 346.35 143.03C330.599 143.03 317.83 155.799 317.83 171.55C317.83 187.301 330.599 200.07 346.35 200.07Z" stroke="black" stroke-width="3" stroke-linecap="round" stroke-linejoin="round"/>
<path d="M180.08 44.23L151.67 47.45L138.62 64.13L127.31 43.48L102.12 34.09L122.5 22.77L118.8 1.5L142.7 15.15L166.66 6.73L161.06 26.49L180.08 44.23Z" fill="#FFFF00" stroke="black" stroke-width="3" stroke-linecap="round" stroke-linejoin="round"/>
<path d="M161.86 61.1L180.81 84.79" stroke="black" stroke-width="3" stroke-linecap="round" stroke-linejoin="round"/>
</g>
<defs>
<clipPath id="clip0_5_811">
<rect width="564" height="1189.99" fill="white"/>
</clipPath>
</defs>
</svg>
