<svg width="527" height="1209" viewBox="0 0 527 1209" fill="none" xmlns="http://www.w3.org/2000/svg">
<mask id="mask0_134_78" style="mask-type:alpha" maskUnits="userSpaceOnUse" x="109" y="0" width="310" height="177">
<rect x="109" width="310" height="177" fill="#C4C4C4"/>
</mask>
<g mask="url(#mask0_134_78)">
<circle cx="263" cy="177" r="110" stroke="#AD8BD6" stroke-width="10"/>
<circle cx="263" cy="177" r="120" stroke="#86DBFE" stroke-width="10"/>
<circle cx="263" cy="177" r="130" stroke="#51F1D2" stroke-width="10"/>
<circle cx="263" cy="167" r="130" stroke="#FDFAD4" stroke-width="10"/>
<circle cx="263" cy="167" r="140" stroke="#FB91C9" stroke-width="10"/>
<circle cx="263" cy="167" r="150" stroke="#AD8BD6" stroke-width="10"/>
<path d="M365.791 35.1155L366.795 21.1976C367.068 17.4224 362.841 15.0178 359.735 17.1809L348.284 25.1553L335.358 19.8991C331.852 18.4733 328.259 21.7498 329.356 25.3722L333.402 38.727L324.408 49.3963C321.969 52.2904 323.975 56.7199 327.759 56.7957L341.71 57.0749L349.078 68.9252C351.077 72.1395 355.909 71.6007 357.151 68.025L361.728 54.8429L375.275 51.4974C378.949 50.5899 379.93 45.8274 376.913 43.5417L365.791 35.1155Z" fill="#FEFACC" stroke="#AD8BD6" stroke-width="6"/>
<circle cx="280" cy="15" r="10" fill="white" stroke="#AD8BD6" stroke-width="6"/>
<circle cx="216" cy="78" r="9" fill="white" stroke="#AD8BD6" stroke-width="6"/>
</g>
<mask id="path-11-inside-1_134_78" fill="white">
<path fill-rule="evenodd" clip-rule="evenodd" d="M0 753C0 719.311 27.3106 692 61 692H259H463.88C498.74 692 527 720.26 527 755.12V1069.88C527 1104.74 498.74 1133 463.88 1133H259H61C27.3106 1133 0 1105.69 0 1072V753ZM470 952V915.5C470 859.443 424.557 814 368.5 814C312.443 814 267 859.443 267 915.5V952C267 966.912 279.088 979 294 979H443C457.912 979 470 966.912 470 952Z"/>
</mask>
<path fill-rule="evenodd" clip-rule="evenodd" d="M0 753C0 719.311 27.3106 692 61 692H259H463.88C498.74 692 527 720.26 527 755.12V1069.88C527 1104.74 498.74 1133 463.88 1133H259H61C27.3106 1133 0 1105.69 0 1072V753ZM470 952V915.5C470 859.443 424.557 814 368.5 814C312.443 814 267 859.443 267 915.5V952C267 966.912 279.088 979 294 979H443C457.912 979 470 966.912 470 952Z" fill="#FB91C9"/>
<path d="M61 680C20.6832 680 -12 712.683 -12 753H12C12 725.938 33.938 704 61 704V680ZM259 680H61V704H259V680ZM463.88 680H259V704H463.88V680ZM539 755.12C539 713.632 505.368 680 463.88 680V704C492.113 704 515 726.887 515 755.12H539ZM539 1069.88V755.12H515V1069.88H539ZM463.88 1145C505.368 1145 539 1111.37 539 1069.88H515C515 1098.11 492.113 1121 463.88 1121V1145ZM259 1145H463.88V1121H259V1145ZM61 1145H259V1121H61V1145ZM-12 1072C-12 1112.32 20.6832 1145 61 1145V1121C33.938 1121 12 1099.06 12 1072H-12ZM-12 753V1072H12V753H-12ZM458 915.5V952H482V915.5H458ZM368.5 826C417.929 826 458 866.071 458 915.5H482C482 852.816 431.184 802 368.5 802V826ZM279 915.5C279 866.071 319.071 826 368.5 826V802C305.816 802 255 852.816 255 915.5H279ZM279 952V915.5H255V952H279ZM294 967C285.716 967 279 960.284 279 952H255C255 973.539 272.461 991 294 991V967ZM443 967H294V991H443V967ZM458 952C458 960.284 451.284 967 443 967V991C464.539 991 482 973.539 482 952H458Z" fill="#AD8BD6" mask="url(#path-11-inside-1_134_78)"/>
<mask id="path-13-inside-2_134_78" fill="white">
<path fill-rule="evenodd" clip-rule="evenodd" d="M64.7726 1116C54.5184 1116 44.8853 1120.91 38.866 1129.22L32.1341 1138.5L24.2242 1150L12.8537 1166.5L6.9212 1176L1.97749 1185.5L0.494371 1189.5L0 1194V1199.5L0.988743 1205L3.4606 1209H192.805H194.782H523.539L526.011 1205L527 1199.5V1194L526.506 1189.5L525.023 1185.5L520.079 1176L514.146 1166.5L502.776 1150L494.866 1138.5L488.134 1129.22C482.115 1120.91 472.482 1116 462.227 1116H194.782H192.805H64.7726Z"/>
</mask>
<path fill-rule="evenodd" clip-rule="evenodd" d="M64.7726 1116C54.5184 1116 44.8853 1120.91 38.866 1129.22L32.1341 1138.5L24.2242 1150L12.8537 1166.5L6.9212 1176L1.97749 1185.5L0.494371 1189.5L0 1194V1199.5L0.988743 1205L3.4606 1209H192.805H194.782H523.539L526.011 1205L527 1199.5V1194L526.506 1189.5L525.023 1185.5L520.079 1176L514.146 1166.5L502.776 1150L494.866 1138.5L488.134 1129.22C482.115 1120.91 472.482 1116 462.227 1116H194.782H192.805H64.7726Z" fill="#3DF5DD"/>
<path d="M38.866 1129.22L29.151 1122.17L29.151 1122.17L38.866 1129.22ZM32.1341 1138.5L22.4192 1131.46L22.3316 1131.58L22.2471 1131.7L32.1341 1138.5ZM24.2242 1150L34.1052 1156.81L34.1112 1156.8L24.2242 1150ZM12.8537 1166.5L2.97265 1159.69L2.81883 1159.91L2.67525 1160.14L12.8537 1166.5ZM6.9212 1176L-3.25721 1169.64L-3.50646 1170.04L-3.7237 1170.46L6.9212 1176ZM1.97749 1185.5L-8.66741 1179.96L-9.01342 1180.63L-9.274 1181.33L1.97749 1185.5ZM0.494371 1189.5L-10.7571 1185.33L-11.2721 1186.72L-11.4339 1188.19L0.494371 1189.5ZM0 1194L-11.9282 1192.69L-12 1193.34V1194H0ZM0 1199.5H-12V1200.57L-11.8107 1201.62L0 1199.5ZM0.988743 1205L-10.8219 1207.12L-10.4184 1209.37L-9.21938 1211.31L0.988743 1205ZM3.4606 1209L-6.74753 1215.31L-3.23023 1221H3.4606V1209ZM523.539 1209V1221H530.23L533.748 1215.31L523.539 1209ZM526.011 1205L536.219 1211.31L537.418 1209.37L537.822 1207.12L526.011 1205ZM527 1199.5L538.811 1201.62L539 1200.57V1199.5H527ZM527 1194H539V1193.34L538.928 1192.69L527 1194ZM526.506 1189.5L538.434 1188.19L538.272 1186.72L537.757 1185.33L526.506 1189.5ZM525.023 1185.5L536.274 1181.33L536.013 1180.63L535.667 1179.96L525.023 1185.5ZM520.079 1176L530.724 1170.46L530.506 1170.04L530.257 1169.64L520.079 1176ZM514.146 1166.5L524.325 1160.14L524.181 1159.91L524.027 1159.69L514.146 1166.5ZM502.776 1150L492.889 1156.8L492.895 1156.81L502.776 1150ZM494.866 1138.5L504.753 1131.7L504.668 1131.58L504.581 1131.46L494.866 1138.5ZM488.134 1129.22L478.419 1136.26L478.419 1136.26L488.134 1129.22ZM48.5809 1136.26C52.343 1131.07 58.3637 1128 64.7726 1128V1104C50.6731 1104 37.4276 1110.76 29.151 1122.17L48.5809 1136.26ZM41.8491 1145.54L48.5809 1136.26L29.151 1122.17L22.4192 1131.46L41.8491 1145.54ZM34.1112 1156.8L42.0212 1145.3L22.2471 1131.7L14.3372 1143.2L34.1112 1156.8ZM22.7347 1173.31L34.1052 1156.81L14.3432 1143.19L2.97265 1159.69L22.7347 1173.31ZM17.0996 1182.36L23.0321 1172.86L2.67525 1160.14L-3.25721 1169.64L17.0996 1182.36ZM12.6224 1191.04L17.5661 1181.54L-3.7237 1170.46L-8.66741 1179.96L12.6224 1191.04ZM11.7459 1193.67L13.229 1189.67L-9.274 1181.33L-10.7571 1185.33L11.7459 1193.67ZM11.9282 1195.31L12.4226 1190.81L-11.4339 1188.19L-11.9282 1192.69L11.9282 1195.31ZM12 1199.5V1194H-12V1199.5H12ZM12.7994 1202.88L11.8107 1197.38L-11.8107 1201.62L-10.8219 1207.12L12.7994 1202.88ZM13.6687 1202.69L11.1969 1198.69L-9.21938 1211.31L-6.74753 1215.31L13.6687 1202.69ZM192.805 1197H3.4606V1221H192.805V1197ZM192.805 1221H194.782V1197H192.805V1221ZM194.782 1221H523.539V1197H194.782V1221ZM533.748 1215.31L536.219 1211.31L515.803 1198.69L513.331 1202.69L533.748 1215.31ZM537.822 1207.12L538.811 1201.62L515.189 1197.38L514.201 1202.88L537.822 1207.12ZM539 1199.5V1194H515V1199.5H539ZM538.928 1192.69L538.434 1188.19L514.577 1190.81L515.072 1195.31L538.928 1192.69ZM537.757 1185.33L536.274 1181.33L513.771 1189.67L515.254 1193.67L537.757 1185.33ZM535.667 1179.96L530.724 1170.46L509.434 1181.54L514.378 1191.04L535.667 1179.96ZM530.257 1169.64L524.325 1160.14L503.968 1172.86L509.9 1182.36L530.257 1169.64ZM524.027 1159.69L512.657 1143.19L492.895 1156.81L504.265 1173.31L524.027 1159.69ZM512.663 1143.2L504.753 1131.7L484.979 1145.3L492.889 1156.8L512.663 1143.2ZM504.581 1131.46L497.849 1122.17L478.419 1136.26L485.151 1145.54L504.581 1131.46ZM497.849 1122.17C489.572 1110.76 476.327 1104 462.227 1104V1128C468.636 1128 474.657 1131.07 478.419 1136.26L497.849 1122.17ZM462.227 1104H194.782V1128H462.227V1104ZM194.782 1104H192.805V1128H194.782V1104ZM64.7726 1128H192.805V1104H64.7726V1128Z" fill="#AD8BD6" mask="url(#path-13-inside-2_134_78)"/>
<path d="M482 264H488V258V223C488 198.699 468.301 179 444 179H84C59.6995 179 40 198.699 40 223V258V264H46H482Z" fill="#FB91C9" stroke="#AD8BD6" stroke-width="12"/>
<mask id="path-16-inside-3_134_78" fill="white">
<path fill-rule="evenodd" clip-rule="evenodd" d="M61 258C27.3106 258 0 285.311 0 319V638C0 671.689 27.3106 699 61 699H259H463.88C498.74 699 527 670.74 527 635.88V321.12C527 286.26 498.74 258 463.88 258H259H61Z"/>
</mask>
<path fill-rule="evenodd" clip-rule="evenodd" d="M61 258C27.3106 258 0 285.311 0 319V638C0 671.689 27.3106 699 61 699H259H463.88C498.74 699 527 670.74 527 635.88V321.12C527 286.26 498.74 258 463.88 258H259H61Z" fill="#34ACD9" fill-opacity="0.19"/>
<path d="M12 319C12 291.938 33.938 270 61 270V246C20.6832 246 -12 278.683 -12 319H12ZM12 638V319H-12V638H12ZM61 687C33.938 687 12 665.062 12 638H-12C-12 678.317 20.6832 711 61 711V687ZM259 687H61V711H259V687ZM259 711H463.88V687H259V711ZM463.88 711C505.368 711 539 677.368 539 635.88H515C515 664.113 492.113 687 463.88 687V711ZM539 635.88V321.12H515V635.88H539ZM539 321.12C539 279.632 505.368 246 463.88 246V270C492.113 270 515 292.887 515 321.12H539ZM463.88 246H259V270H463.88V246ZM61 270H259V246H61V270Z" fill="#AD8BD6" mask="url(#path-16-inside-3_134_78)"/>
<path d="M379.071 746.139L373.061 733.545C371.431 730.129 366.569 730.129 364.939 733.545L358.929 746.139L345.095 747.962C341.342 748.457 339.84 753.082 342.585 755.688L352.705 765.295L350.165 779.015C349.475 782.737 353.409 785.595 356.736 783.79L369 777.133L381.264 783.79C384.591 785.595 388.525 782.737 387.835 779.015L385.295 765.295L395.415 755.688C398.16 753.082 396.658 748.457 392.905 747.962L379.071 746.139Z" fill="#FEFACC" stroke="#AD8BD6" stroke-width="6"/>
<circle cx="418" cy="771" r="10" fill="#FEFACC" stroke="#AD8BD6" stroke-width="6"/>
<circle cx="319" cy="771" r="10" fill="#FEFACC" stroke="#AD8BD6" stroke-width="6"/>
<circle cx="290.5" cy="789.5" r="6.5" fill="#FEFACC" stroke="#AD8BD6" stroke-width="6"/>
<circle cx="447.5" cy="789.5" r="6.5" fill="#FEFACC" stroke="#AD8BD6" stroke-width="6"/>
<rect x="238" y="1033" width="261" height="9" rx="4.5" fill="#FEFACC"/>
<rect x="238" y="1050" width="261" height="13" rx="6.5" fill="#3DF5DD"/>
<rect x="50" y="283" width="349" height="15" rx="7.5" fill="white"/>
<path d="M437.5 290C457 288.667 496 292.5 496 318.5" stroke="white" stroke-width="12" stroke-linecap="round"/>
<rect x="65" y="972" width="137" height="67" rx="18" fill="white" stroke="#B687D4" stroke-width="12"/>
<circle cx="134.5" cy="880.5" r="62.5" fill="#C4C4C4" stroke="#B687D4" stroke-width="12"/>
<circle cx="132.5" cy="871.5" r="62.5" fill="#FB91C9" stroke="#B687D4" stroke-width="12"/>
<path d="M35.5 562V608.5C36.6667 627.167 46.1 664.5 74.5 664.5C102.9 664.5 125.667 664.5 133.5 664.5" stroke="white" stroke-width="12" stroke-linecap="round"/>
<mask id="path-31-inside-4_134_78" fill="white">
<path fill-rule="evenodd" clip-rule="evenodd" d="M470 947V910.5C470 905.884 469.692 901.339 469.095 896.886C477.338 912.614 482 930.512 482 949.5V986C482 1007.54 464.539 1025 443 1025H294C272.461 1025 255 1007.54 255 986V949.5C255 930.512 259.662 912.614 267.905 896.886C267.308 901.339 267 905.884 267 910.5V947C267 961.911 279.088 974 294 974H443C457.912 974 470 961.911 470 947Z"/>
</mask>
<path fill-rule="evenodd" clip-rule="evenodd" d="M470 947V910.5C470 905.884 469.692 901.339 469.095 896.886C477.338 912.614 482 930.512 482 949.5V986C482 1007.54 464.539 1025 443 1025H294C272.461 1025 255 1007.54 255 986V949.5C255 930.512 259.662 912.614 267.905 896.886C267.308 901.339 267 905.884 267 910.5V947C267 961.911 279.088 974 294 974H443C457.912 974 470 961.911 470 947Z" fill="#FF9FD0"/>
<path d="M469.095 896.886L479.724 891.316L457.201 898.481L469.095 896.886ZM267.905 896.886L279.799 898.481L257.276 891.316L267.905 896.886ZM458 910.5V947H482V910.5H458ZM457.201 898.481C457.728 902.407 458 906.418 458 910.5H482C482 905.349 481.656 900.272 480.989 895.292L457.201 898.481ZM458.466 902.457C465.83 916.507 470 932.499 470 949.5H494C494 928.526 488.845 908.721 479.724 891.316L458.466 902.457ZM470 949.5V986H494V949.5H470ZM470 986C470 1000.91 457.912 1013 443 1013V1037C471.167 1037 494 1014.17 494 986H470ZM443 1013H294V1037H443V1013ZM294 1013C279.088 1013 267 1000.91 267 986H243C243 1014.17 265.833 1037 294 1037V1013ZM267 986V949.5H243V986H267ZM267 949.5C267 932.499 271.17 916.507 278.534 902.457L257.276 891.316C248.155 908.721 243 928.526 243 949.5H267ZM279 910.5C279 906.418 279.272 902.407 279.799 898.481L256.011 895.292C255.344 900.272 255 905.349 255 910.5H279ZM279 947V910.5H255V947H279ZM294 962C285.716 962 279 955.284 279 947H255C255 968.539 272.461 986 294 986V962ZM443 962H294V986H443V962ZM458 947C458 955.284 451.284 962 443 962V986C464.539 986 482 968.539 482 947H458Z" fill="#B687D4" mask="url(#path-31-inside-4_134_78)"/>
</svg>
