<svg width="571" height="1200" viewBox="0 0 571 1200" fill="none" xmlns="http://www.w3.org/2000/svg">
<g clip-path="url(#clip0_6_1414)">
<path d="M97.11 694.61H476.94C482.8 694.61 487.56 699.37 487.56 705.23V730.61C487.56 736.47 482.8 741.24 476.93 741.24H97.11C91.25 741.24 86.49 736.48 86.49 730.62V705.24C86.49 699.38 91.25 694.61 97.12 694.61H97.11Z" fill="#4A3773"/>
<path d="M46 1120.61C31.66 1120.61 20 1108.95 20 1094.61V746.61C20 732.27 31.66 720.61 46 720.61H529C543.34 720.61 555 732.27 555 746.61V1094.61C555 1108.95 543.34 1120.61 529 1120.61H46ZM341.83 834.78C328.84 834.78 318.27 845.99 318.27 859.78V970.78C318.27 984.57 328.84 995.78 341.83 995.78H482.9C495.89 995.78 506.46 984.57 506.46 970.78V859.78C506.46 845.99 495.89 834.78 482.9 834.78H341.83Z" fill="#7748DB"/>
<path d="M529 722.61C542.2 722.61 553 733.41 553 746.61V1094.61C553 1107.81 542.2 1118.61 529 1118.61H46C32.8 1118.61 22 1107.81 22 1094.61V746.61C22 733.41 32.8 722.61 46 722.61H529ZM341.83 997.78H482.9C497.02 997.78 508.46 985.69 508.46 970.78V859.78C508.46 844.87 497.02 832.78 482.9 832.78H341.83C327.71 832.78 316.27 844.87 316.27 859.78V970.78C316.27 985.69 327.71 997.78 341.83 997.78ZM529 718.61H46C30.56 718.61 18 731.17 18 746.61V1094.61C18 1110.05 30.56 1122.61 46 1122.61H529C544.44 1122.61 557 1110.05 557 1094.61V746.61C557 731.17 544.44 718.61 529 718.61ZM341.83 993.78C329.94 993.78 320.27 983.46 320.27 970.78V859.78C320.27 847.1 329.94 836.78 341.83 836.78H482.9C494.79 836.78 504.46 847.1 504.46 859.78V970.78C504.46 983.46 494.79 993.78 482.9 993.78H341.83Z" fill="black"/>
<path opacity="0.3" d="M540.41 728.54H515.6V1118.54L539.82 1117.54L547.82 1112.54L552.82 1103.54L553.01 755.07C553.01 740.57 551.6 728.54 540.42 728.54H540.41Z" fill="#8B54FF"/>
<g style="mix-blend-mode:multiply" opacity="0.2">
<path d="M86 722.54H46.2C32.74 722.54 21.82 734.63 21.82 749.54V1094.55C21.82 1094.55 22.81 1110.55 28.81 1114.55C33.28 1117.53 45.81 1119.55 45.81 1119.55H61.63V749.54C61.63 734.63 72.54 722.54 86 722.54Z" fill="#503194"/>
</g>
<path d="M24 738.24H551.81C546.37 729.02 543.81 722.54 525.15 722.54H50.66C39.11 722.54 29.44 729.03 24 738.24Z" fill="#8B54FF"/>
<path d="M4 1197.74C2.9 1197.74 2 1196.84 2 1195.74V1163.13C2 1143.78 33.27 1122.24 54.46 1122.24H513.54C534.73 1122.24 566 1143.78 566 1163.13V1195.74C566 1196.84 565.1 1197.74 564 1197.74H4Z" fill="#7748DB"/>
<path d="M513.54 1124.24C534.66 1124.24 564 1145.57 564 1163.13V1195.74H4V1163.13C4 1145.57 33.34 1124.24 54.46 1124.24H513.54ZM513.54 1120.24H54.46C43.53 1120.24 30.24 1125.35 18.9 1133.91C6.89 1142.97 0 1153.63 0 1163.13V1195.74C0 1197.95 1.79 1199.74 4 1199.74H564C566.21 1199.74 568 1197.95 568 1195.74V1163.13C568 1153.62 561.11 1142.97 549.1 1133.91C537.76 1125.35 524.47 1120.24 513.54 1120.24Z" fill="black"/>
<path d="M54.46 1124.24C44.7 1124.24 33.27 1128.9 23.7 1135.53H544.3C534.74 1128.9 523.3 1124.24 513.54 1124.24H54.46Z" fill="#8B54FF"/>
<path d="M196.39 969.71H95.39C86.5534 969.71 79.39 976.873 79.39 985.71V1016.71C79.39 1025.55 86.5534 1032.71 95.39 1032.71H196.39C205.227 1032.71 212.39 1025.55 212.39 1016.71V985.71C212.39 976.873 205.227 969.71 196.39 969.71Z" fill="white"/>
<path d="M196.39 971.71C204.11 971.71 210.39 977.99 210.39 985.71V1016.71C210.39 1024.43 204.11 1030.71 196.39 1030.71H95.39C87.67 1030.71 81.39 1024.43 81.39 1016.71V985.71C81.39 977.99 87.67 971.71 95.39 971.71H196.39ZM196.39 967.71H95.39C85.45 967.71 77.39 975.77 77.39 985.71V1016.71C77.39 1026.65 85.45 1034.71 95.39 1034.71H196.39C206.33 1034.71 214.39 1026.65 214.39 1016.71V985.71C214.39 975.77 206.33 967.71 196.39 967.71Z" fill="black"/>
<path d="M146.89 942.71C181.408 942.71 209.39 914.728 209.39 880.21C209.39 845.692 181.408 817.71 146.89 817.71C112.372 817.71 84.39 845.692 84.39 880.21C84.39 914.728 112.372 942.71 146.89 942.71Z" fill="#0066FF" stroke="#0066FF" stroke-width="4" stroke-linecap="round" stroke-linejoin="round"/>
<path d="M144.89 931.71C111.53 931.71 84.39 904.57 84.39 871.21C84.39 837.85 111.53 810.71 144.89 810.71C178.25 810.71 205.39 837.85 205.39 871.21C205.39 904.57 178.25 931.71 144.89 931.71Z" fill="#03FFCC"/>
<path d="M144.89 812.71C177.15 812.71 203.39 838.95 203.39 871.21C203.39 903.47 177.15 929.71 144.89 929.71C112.63 929.71 86.39 903.47 86.39 871.21C86.39 838.95 112.63 812.71 144.89 812.71ZM144.89 808.71C110.37 808.71 82.39 836.69 82.39 871.21C82.39 905.73 110.37 933.71 144.89 933.71C179.41 933.71 207.39 905.73 207.39 871.21C207.39 836.69 179.41 808.71 144.89 808.71Z" fill="black"/>
<path fill-rule="evenodd" clip-rule="evenodd" d="M348.97 1010.46C331.79 1010.46 317.81 993.93 317.81 973.61V937.88C319.9 952.06 335.79 963.65 348.97 963.65H475.65C488.82 963.65 504.72 952.06 506.81 937.88V973.61C506.81 993.93 492.83 1010.46 475.65 1010.46H348.97Z" fill="#9966FF"/>
<path d="M504.81 948.76V973.61C504.81 992.83 491.73 1008.46 475.65 1008.46H348.97C332.89 1008.46 319.81 992.83 319.81 973.61V948.76C321.64 951.65 324.03 954.37 326.94 956.83C333.48 962.35 341.72 965.65 348.97 965.65H475.65C482.9 965.65 491.14 962.35 497.68 956.83C500.59 954.37 502.98 951.65 504.81 948.76ZM507.67 928.14C506.56 928.14 505.04 934.75 505.04 934.75C505.04 949.6 488.33 961.65 475.65 961.65H348.97C336.29 961.65 319.58 949.61 319.58 934.75C319.58 934.75 318.06 928.14 316.95 928.14C316.31 928.14 315.81 930.33 315.81 937.24V973.6C315.81 995.06 330.66 1012.45 348.97 1012.45H475.65C493.96 1012.45 508.81 995.06 508.81 973.6V937.24C508.81 930.33 508.31 928.13 507.67 928.14Z" fill="black"/>
<path d="M203.59 150.36L235.85 242.18L349.45 238.43L373.11 143.38C373.37 113.74 364.21 86.48 364.21 86.48C364.21 86.48 301.16 83.54 213.41 88.85C213.41 88.85 205.09 105.4 203.59 150.36Z" fill="#CCCCCC"/>
<mask id="mask0_6_1414" style="mask-type:luminance" maskUnits="userSpaceOnUse" x="203" y="85" width="171" height="158">
<path d="M203.59 150.36L235.85 242.18L349.45 238.43L373.11 143.38C373.37 113.74 364.21 86.48 364.21 86.48C364.21 86.48 301.16 83.54 213.41 88.85C213.41 88.85 205.09 105.4 203.59 150.36Z" fill="white"/>
</mask>
<g mask="url(#mask0_6_1414)">
<g style="mix-blend-mode:multiply">
<path d="M197.18 149.52C197.18 149.52 296.21 139.38 366.87 144.51C371.89 111.03 359.01 71.6 359.01 71.6L373.47 85.4L380.72 146.61L352.71 248.24L233.39 252.18L197.17 149.52H197.18Z" fill="#0066FF"/>
<path d="M197.18 149.52C197.18 149.52 296.21 139.38 366.87 144.51C371.89 111.03 359.01 71.6 359.01 71.6L373.47 85.4L380.72 146.61L352.71 248.24L233.39 252.18L197.17 149.52H197.18Z" stroke="#0066FF" stroke-width="3" stroke-linecap="round" stroke-linejoin="round"/>
</g>
</g>
<path d="M203.59 150.36L235.85 242.18L349.45 238.43L373.11 143.38C373.37 113.74 364.21 86.48 364.21 86.48C364.21 86.48 301.16 83.54 213.41 88.85C213.41 88.85 205.09 105.4 203.59 150.36Z" stroke="black" stroke-width="3" stroke-linecap="round" stroke-linejoin="round"/>
<path d="M277.47 114.28C276.88 123.74 267.71 132.12 257 133.01C246.29 133.9 238.08 126.95 238.68 117.49C239.27 108.03 248.44 99.65 259.15 98.76C269.86 97.87 278.07 104.82 277.47 114.28Z" fill="black" stroke="black" stroke-width="3" stroke-linecap="round" stroke-linejoin="round"/>
<path d="M339.56 111.76C341.55 121.85 333.52 130.82 321.62 131.8C309.72 132.78 298.46 125.4 296.47 115.32C294.48 105.23 302.51 96.26 314.41 95.28C326.31 94.3 337.57 101.68 339.56 111.76Z" fill="black" stroke="black" stroke-width="3" stroke-linecap="round" stroke-linejoin="round"/>
<path d="M216.49 153.83L219.18 176.56L243.56 254.8C243.56 254.8 289.46 257.19 340.96 250.01C340.96 250.01 357.63 193.84 359.33 171.78L358.49 149.69C358.49 149.69 288.33 147.48 216.48 153.83H216.49Z" fill="#CCCCCC"/>
<mask id="mask1_6_1414" style="mask-type:luminance" maskUnits="userSpaceOnUse" x="216" y="149" width="144" height="107">
<path d="M216.49 153.83L219.18 176.56L243.56 254.8C243.56 254.8 289.46 257.19 340.96 250.01C340.96 250.01 357.63 193.84 359.33 171.78L358.49 149.69C358.49 149.69 288.33 147.48 216.48 153.83H216.49Z" fill="white"/>
</mask>
<g mask="url(#mask1_6_1414)">
<g style="mix-blend-mode:multiply">
<path d="M183.24 175.78C183.24 175.78 282.27 165.64 352.93 170.77C355.28 148.76 353.44 140.23 353.44 140.23L363.73 147.07L366.79 172.86L338.78 274.49L219.46 278.43L183.24 175.77V175.78Z" fill="#0066FF"/>
<path d="M183.24 175.78C183.24 175.78 282.27 165.64 352.93 170.77C355.28 148.76 353.44 140.23 353.44 140.23L363.73 147.07L366.79 172.86L338.78 274.49L219.46 278.43L183.24 175.77V175.78Z" stroke="#0066FF" stroke-width="3" stroke-linecap="round" stroke-linejoin="round"/>
</g>
</g>
<path d="M216.49 153.83L219.18 176.56L243.56 254.8C243.56 254.8 289.46 257.19 340.96 250.01C340.96 250.01 357.63 193.84 359.33 171.78L358.49 149.69C358.49 149.69 288.33 147.48 216.48 153.83H216.49Z" stroke="black" stroke-width="3" stroke-linecap="round" stroke-linejoin="round"/>
<path d="M290.93 147.64C288.57 147.92 287.11 150.39 288.05 152.57C289.77 156.56 292.92 162.38 297.82 166.07C306.45 172.57 317.1 164.47 316.44 158.88C315.77 153.22 312.53 148.9 310.66 146.82C309.88 145.96 308.74 145.53 307.58 145.67L290.93 147.64Z" fill="#EF4D75" stroke="black" stroke-width="3" stroke-linecap="round" stroke-linejoin="round"/>
<path d="M410.58 176.66H166.78C149.8 176.66 136.03 190.43 136.03 207.41V211.56H441.34V207.41C441.34 190.43 427.57 176.66 410.59 176.66H410.58Z" fill="#643CB8"/>
<path opacity="0.4" d="M410.58 176.66H166.78C157.71 176.66 149.76 180.76 144.13 187.01C148.35 184.83 152.94 183.3 158.02 183.3H401.82C417.93 183.3 430.75 195.81 432.08 211.57H441.33V207.42C441.33 190.44 427.56 176.66 410.58 176.66Z" fill="#8B54FF"/>
<g style="mix-blend-mode:multiply" opacity="0.3">
<path d="M164.81 197.41V193.26C164.81 187 167.14 181.51 170.35 176.65H166.77C149.79 176.65 136.02 190.42 136.02 207.41V211.56H441.33V207.41C441.33 203.86 440.42 200.58 439.31 197.41H164.81Z" fill="#643CB8"/>
</g>
<path d="M442.9 204.78H134.45C112.96 204.78 95.54 222.2 95.54 243.69V248.94H481.81V243.69C481.81 222.2 464.39 204.78 442.9 204.78Z" fill="#7748DB"/>
<path opacity="0.4" d="M442.9 204.78H134.45C119.45 204.78 106.59 213.36 100.1 225.79C107.23 217.17 117.88 211.57 129.94 211.57H438.39C459.35 211.57 476.32 228.18 477.15 248.95H481.81V243.7C481.81 222.21 464.39 204.79 442.9 204.79V204.78Z" fill="#8B54FF"/>
<g style="mix-blend-mode:multiply" opacity="0.3">
<path d="M134.78 238.27V233.02C134.78 221.86 139.53 211.87 147.06 204.78H134.46C112.97 204.78 95.55 222.2 95.55 243.69V248.94H481.82V243.69C481.82 241.83 481.52 240.06 481.27 238.27H134.78Z" fill="#643CB8"/>
</g>
<g style="mix-blend-mode:multiply" opacity="0.5">
<path d="M480.77 248.94H95.54V256.89H480.77V248.94Z" fill="#643CB8"/>
</g>
<g style="mix-blend-mode:multiply">
<path d="M410.58 176.66C426.5 176.66 439.6 188.76 441.17 204.27C441.19 204.44 441.19 204.61 441.21 204.78H442.9C464.39 204.78 481.81 222.2 481.81 243.69V248.94H480.77V256.89H95.54V243.69C95.54 224.1 110.02 207.89 128.87 205.18C128.95 205.17 129.03 205.16 129.11 205.15C129.84 205.05 130.58 204.97 131.32 204.91C131.52 204.89 131.73 204.88 131.94 204.86C132.77 204.81 133.61 204.77 134.46 204.77H136.15C136.16 204.6 136.17 204.43 136.19 204.26C137.71 189.32 149.92 177.55 165.04 176.7C165.06 176.7 165.08 176.7 165.1 176.7C165.66 176.67 166.21 176.65 166.78 176.65H410.58M410.58 172.66H166.78C166.17 172.66 165.55 172.68 164.89 172.71C164.86 172.71 164.82 172.71 164.78 172.71C156.55 173.18 148.72 176.58 142.75 182.31C137.53 187.31 134.02 193.79 132.66 200.82C132.35 200.83 132.03 200.85 131.69 200.87C131.48 200.88 131.27 200.9 131.06 200.92H131C130.17 200.99 129.35 201.08 128.57 201.19C128.45 201.2 128.37 201.21 128.3 201.23C118.19 202.68 108.89 207.74 102.13 215.48C95.3 223.29 91.54 233.31 91.54 243.7V256.9C91.54 259.11 93.33 260.9 95.54 260.9H480.77C482.98 260.9 484.77 259.11 484.77 256.9V251.64C485.42 250.93 485.81 249.98 485.81 248.95V243.7C485.81 220.64 467.53 201.78 444.71 200.83C441.61 184.58 427.45 172.67 410.58 172.67V172.66Z" fill="black"/>
</g>
<g style="mix-blend-mode:multiply">
<path d="M324.94 175.72C324.94 175.72 331.71 207.95 361.49 207.6C382.24 207.36 388.9 191.66 385.74 176.71L324.94 175.72Z" fill="#0066FF"/>
<path d="M324.94 175.72C324.94 175.72 331.71 207.95 361.49 207.6C382.24 207.36 388.9 191.66 385.74 176.71L324.94 175.72Z" stroke="#0066FF" stroke-width="3" stroke-linecap="round" stroke-linejoin="round"/>
</g>
<g style="mix-blend-mode:multiply">
<path d="M198.36 175.72C198.36 175.72 205.13 207.95 234.91 207.6C255.66 207.36 262.32 191.66 259.16 176.71L198.36 175.72Z" fill="#0066FF"/>
<path d="M198.36 175.72C198.36 175.72 205.13 207.95 234.91 207.6C255.66 207.36 262.32 191.66 259.16 176.71L198.36 175.72Z" stroke="#0066FF" stroke-width="3" stroke-linecap="round" stroke-linejoin="round"/>
</g>
<path d="M219.3 205.23C235.051 205.23 247.82 192.461 247.82 176.71C247.82 160.959 235.051 148.19 219.3 148.19C203.549 148.19 190.78 160.959 190.78 176.71C190.78 192.461 203.549 205.23 219.3 205.23Z" fill="#4C4C4C"/>
<mask id="mask2_6_1414" style="mask-type:luminance" maskUnits="userSpaceOnUse" x="190" y="148" width="58" height="58">
<path d="M219.3 205.23C235.051 205.23 247.82 192.461 247.82 176.71C247.82 160.959 235.051 148.19 219.3 148.19C203.549 148.19 190.78 160.959 190.78 176.71C190.78 192.461 203.549 205.23 219.3 205.23Z" fill="white"/>
</mask>
<g mask="url(#mask2_6_1414)">
<g style="mix-blend-mode:multiply">
<path d="M232.8 148.94C232.8 148.94 247.82 165.82 235.83 189.12C227.75 204.83 212.95 204.5 212.95 204.5C212.95 204.5 231.58 216.66 248.66 191.66C265.75 166.65 232.8 148.94 232.8 148.94Z" fill="#0066FF"/>
<path d="M232.8 148.94C232.8 148.94 247.82 165.82 235.83 189.12C227.75 204.83 212.95 204.5 212.95 204.5C212.95 204.5 231.58 216.66 248.66 191.66C265.75 166.65 232.8 148.94 232.8 148.94Z" stroke="#0066FF" stroke-width="3" stroke-linecap="round" stroke-linejoin="round"/>
</g>
</g>
<path d="M219.3 205.23C235.051 205.23 247.82 192.461 247.82 176.71C247.82 160.959 235.051 148.19 219.3 148.19C203.549 148.19 190.78 160.959 190.78 176.71C190.78 192.461 203.549 205.23 219.3 205.23Z" stroke="black" stroke-width="3" stroke-linecap="round" stroke-linejoin="round"/>
<path d="M353.18 200.07C368.931 200.07 381.7 187.301 381.7 171.55C381.7 155.799 368.931 143.03 353.18 143.03C337.429 143.03 324.66 155.799 324.66 171.55C324.66 187.301 337.429 200.07 353.18 200.07Z" fill="#4C4C4C"/>
<mask id="mask3_6_1414" style="mask-type:luminance" maskUnits="userSpaceOnUse" x="324" y="143" width="58" height="58">
<path d="M353.18 200.07C368.931 200.07 381.7 187.301 381.7 171.55C381.7 155.799 368.931 143.03 353.18 143.03C337.429 143.03 324.66 155.799 324.66 171.55C324.66 187.301 337.429 200.07 353.18 200.07Z" fill="white"/>
</mask>
<g mask="url(#mask3_6_1414)">
<g style="mix-blend-mode:multiply">
<path d="M366.68 143.78C366.68 143.78 381.7 160.66 369.71 183.96C361.63 199.67 346.83 199.34 346.83 199.34C346.83 199.34 365.46 211.5 382.54 186.5C399.63 161.49 366.68 143.78 366.68 143.78Z" fill="#0066FF"/>
<path d="M366.68 143.78C366.68 143.78 381.7 160.66 369.71 183.96C361.63 199.67 346.83 199.34 346.83 199.34C346.83 199.34 365.46 211.5 382.54 186.5C399.63 161.49 366.68 143.78 366.68 143.78Z" stroke="#0066FF" stroke-width="3" stroke-linecap="round" stroke-linejoin="round"/>
</g>
</g>
<path d="M353.18 200.07C368.931 200.07 381.7 187.301 381.7 171.55C381.7 155.799 368.931 143.03 353.18 143.03C337.429 143.03 324.66 155.799 324.66 171.55C324.66 187.301 337.429 200.07 353.18 200.07Z" stroke="black" stroke-width="3" stroke-linecap="round" stroke-linejoin="round"/>
<path d="M186.92 44.23L158.5 47.45L145.46 64.13L134.15 43.48L108.95 34.09L129.33 22.77L125.63 1.5L149.53 15.15L173.49 6.73L167.89 26.49L186.92 44.23Z" fill="#FFFF00" stroke="black" stroke-width="3" stroke-linecap="round" stroke-linejoin="round"/>
<path d="M168.69 61.1L187.65 84.79" stroke="black" stroke-width="3" stroke-linecap="round" stroke-linejoin="round"/>
<path d="M517.83 260.56C540.1 260.56 558.21 277.84 558.21 299.07V657.89C558.21 679.13 540.1 696.4 517.83 696.4H59.84C37.57 696.4 19.46 679.12 19.46 657.89V299.07C19.46 277.83 37.57 260.56 59.84 260.56H517.83Z" fill="#0066FF" fill-opacity="0.15"/>
<path opacity="0.2" d="M517.97 248.79H64.42C54.89 248.79 45.95 251.36 38.32 255.8C30.32 260.46 23.78 267.19 19.48 275.19V384.76L24.43 389.12L363.15 687.46L373.45 696.54H528.2C542.82 693.63 555.18 684.6 562.21 672.41C566.2 665.5 568.47 657.56 568.47 649.15V297.2C568.47 270.58 545.74 248.79 517.96 248.79H517.97ZM557.96 644.35L123.36 258.87H178.04L557.96 590.16V644.34V644.35ZM557.96 543.61L229.26 258.87H517.97C540.02 258.87 557.96 276.06 557.96 297.19V543.61Z" fill="white"/>
<path d="M517.53 260.18C539.8 260.18 557.91 277.46 557.91 298.69V657.51C557.91 678.75 539.8 696.02 517.53 696.02H59.54C37.27 696.02 19.16 678.74 19.16 657.51V298.69C19.16 277.45 37.27 260.18 59.54 260.18H517.53ZM517.53 250.05H59.54C31.49 250.05 8.53 271.94 8.53 298.7V657.52C8.53 684.28 31.48 706.17 59.54 706.17H517.53C545.58 706.17 568.54 684.28 568.54 657.52V298.7C568.54 271.94 545.59 250.05 517.53 250.05Z" fill="#9966FF" stroke="black" stroke-width="4" stroke-linecap="round" stroke-linejoin="round"/>
</g>
<defs>
<clipPath id="clip0_6_1414">
<rect width="570.54" height="1199.74" fill="white"/>
</clipPath>
</defs>
</svg>
