<svg width="125" height="50" viewBox="0 0 125 50" fill="none" xmlns="http://www.w3.org/2000/svg">
<g clip-path="url(#clip0_5_885)">
<path d="M106.5 2H18C9.16344 2 2 9.16344 2 18V31.32C2 40.1566 9.16344 47.32 18 47.32H106.5C115.337 47.32 122.5 40.1566 122.5 31.32V18C122.5 9.16344 115.337 2 106.5 2Z" fill="#03FFCC"/>
<path d="M106.5 4C114.22 4 120.5 10.28 120.5 18V31.32C120.5 39.04 114.22 45.32 106.5 45.32H18C10.28 45.32 4 39.04 4 31.32V18C4 10.28 10.28 4 18 4H106.5ZM106.5 0H18C8.06 0 0 8.06 0 18V31.32C0 41.26 8.06 49.32 18 49.32H106.5C116.44 49.32 124.5 41.26 124.5 31.32V18C124.5 8.06 116.44 0 106.5 0Z" fill="black"/>
</g>
<defs>
<clipPath id="clip0_5_885">
<rect width="124.5" height="49.32" fill="white"/>
</clipPath>
</defs>
</svg>
