<svg xmlns="http://www.w3.org/2000/svg" height="23.991" viewBox="0 0 79.689 23.991" width="79.689"><g fill="#94a4b4" fill-rule="evenodd"><path d="m241.856 321.319c-4.614 3.411-11.324 5.229-17.112 5.229a31.027 31.027 0 0 1 -20.915-7.969c-.419-.391-.056-.923.475-.615a41.542 41.542 0 0 0 36.881 2.265c.783-.308 1.426.53.671 1.09z" transform="translate(-192.421 -302.557)"></path><path d="m332.3 316.976c-.587-.755-3.915-.363-5.4-.168-.447.056-.531-.336-.112-.615 2.656-1.873 6.99-1.314 7.494-.7s-.14 4.977-2.628 7.046c-.391.308-.755.14-.587-.28.566-1.396 1.825-4.5 1.233-5.283z" transform="translate(-280.94 -300.423)"></path><path d="m209.552 265.728v-1.817a.426.426 0 0 1 .447-.447h8.109a.466.466 0 0 1 .475.447v1.538c0 .252-.224.587-.615 1.146l-4.194 5.984a9.109 9.109 0 0 1 4.614.979.833.833 0 0 1 .419.7v1.929c0 .28-.28.587-.587.419a9.25 9.25 0 0 0 -8.556.028.439.439 0 0 1 -.587-.419v-1.845a2.09 2.09 0 0 1 .308-1.23l4.865-6.962h-4.222a.466.466 0 0 1 -.475-.447zm-29.552 11.272h-2.461a.505.505 0 0 1 -.447-.419v-12.642a.466.466 0 0 1 .475-.447h2.293a.456.456 0 0 1 .447.419v1.65h.056a3.375 3.375 0 0 1 6.431 0 3.5 3.5 0 0 1 3.411-2.349 3.466 3.466 0 0 1 2.852 1.4c.783 1.062.615 2.6.615 3.97v8a.466.466 0 0 1 -.475.447h-2.433a.48.48 0 0 1 -.447-.447v-6.711a16.77 16.77 0 0 0 -.056-2.377 1.3 1.3 0 0 0 -1.454-1.09 1.647 1.647 0 0 0 -1.482 1.035 7.747 7.747 0 0 0 -.224 2.433v6.711a.466.466 0 0 1 -.475.447h-2.461a.48.48 0 0 1 -.447-.447v-6.711c0-1.4.224-3.5-1.51-3.5-1.762 0-1.706 2.013-1.706 3.5v6.711a.491.491 0 0 1 -.502.417zm45.577-13.785c3.663 0 5.648 3.132 5.648 7.13 0 3.859-2.181 6.934-5.648 6.934-3.579 0-5.536-3.132-5.536-7.046-.028-3.943 1.957-7.018 5.536-7.018zm0 2.6c-1.817 0-1.929 2.489-1.929 4.026s-.028 4.837 1.9 4.837c1.9 0 2.013-2.656 2.013-4.278a12.236 12.236 0 0 0 -.363-3.355 1.546 1.546 0 0 0 -1.624-1.233zm10.37 11.185h-2.461a.48.48 0 0 1 -.447-.447v-12.67a.483.483 0 0 1 .475-.419h2.293a.478.478 0 0 1 .447.363v1.929h.056c.7-1.734 1.65-2.544 3.355-2.544a3.256 3.256 0 0 1 2.88 1.482c.643 1.007.643 2.712.643 3.943v7.969a.46.46 0 0 1 -.475.391h-2.461a.509.509 0 0 1 -.447-.391v-6.878c0-1.4.168-3.411-1.538-3.411a1.619 1.619 0 0 0 -1.426 1.007 5.805 5.805 0 0 0 -.391 2.4v6.823a.512.512 0 0 1 -.5.447zm-32.854-6.04a5 5 0 0 1 -.447 2.628 1.979 1.979 0 0 1 -1.706 1.118c-.951 0-1.51-.727-1.51-1.789 0-2.1 1.873-2.489 3.663-2.489zm2.489 6.012a.506.506 0 0 1 -.587.056 6.174 6.174 0 0 1 -1.426-1.65 4.9 4.9 0 0 1 -4.054 1.79 3.5 3.5 0 0 1 -3.691-3.831 4.185 4.185 0 0 1 2.628-4.026 17.46 17.46 0 0 1 4.642-.867v-.308a3.02 3.02 0 0 0 -.308-1.79 1.656 1.656 0 0 0 -1.37-.643 1.862 1.862 0 0 0 -1.985 1.482c-.056.224-.2.447-.419.447l-2.377-.252a.43.43 0 0 1 -.363-.5c.559-2.908 3.16-3.775 5.508-3.775a5.534 5.534 0 0 1 3.719 1.23c1.2 1.118 1.09 2.628 1.09 4.25v3.831a3.464 3.464 0 0 0 .923 2.293c.168.224.2.5 0 .643-.532.414-1.427 1.197-1.93 1.617zm-34.782-6.015a5 5 0 0 1 -.447 2.628 1.979 1.979 0 0 1 -1.706 1.118c-.951 0-1.51-.727-1.51-1.789 0-2.1 1.873-2.489 3.663-2.489zm2.461 6.012a.506.506 0 0 1 -.587.056 6.174 6.174 0 0 1 -1.426-1.65 4.9 4.9 0 0 1 -4.054 1.79 3.5 3.5 0 0 1 -3.691-3.831 4.185 4.185 0 0 1 2.628-4.026 17.46 17.46 0 0 1 4.642-.867v-.308a3.02 3.02 0 0 0 -.308-1.79 1.656 1.656 0 0 0 -1.37-.643 1.862 1.862 0 0 0 -1.985 1.482c-.056.224-.2.447-.419.447l-2.377-.252a.43.43 0 0 1 -.363-.5c.559-2.908 3.16-3.775 5.508-3.775a5.534 5.534 0 0 1 3.719 1.23c1.2 1.118 1.09 2.628 1.09 4.25v3.831a3.464 3.464 0 0 0 .923 2.293c.168.224.2.5 0 .643-.531.419-1.426 1.2-1.929 1.622z" transform="translate(-163.5 -263.1)"></path></g></svg>