<svg xmlns="http://www.w3.org/2000/svg" height="22.517" viewBox="0 0 85.092 22.517" width="85.092"><path d="m-46.9-35.736c-3.963 0-5.6 1.41-5.6 4.761 0 3.617 1.436 4.961 5.466 4.961 2.913 0 4.017-.638 4.721-2.713h.133l-.173 2.54h5.094v-10.147a9.787 9.787 0 0 0 -.532-3.152c-.9-1.849-2.78-2.514-7.169-2.514-3.618 0-5.16.4-6.131 1.569-.572.7-.731 1.4-.771 3.245h5.134c.093-1.37.505-1.7 2.008-1.7 1.742 0 2.381.545 2.381 2.048v3.046h-.107c-.598-1.571-1.502-1.944-4.454-1.944zm2.274 6.4c-2.248 0-2.753-.332-2.74-1.716 0-1.21.638-1.609 2.381-1.609 2.035 0 2.607.332 2.607 1.543-.001 1.381-.506 1.78-2.248 1.78zm10.347-12.624v22.477h5.253v-9.35h.106c.612 2.088 1.782 2.82 4.5 2.82 2.234 0 3.511-.372 4.416-1.343 1.21-1.3 1.609-3.046 1.609-7.036 0-3.684-.4-5.253-1.7-6.4a6.087 6.087 0 0 0 -4.196-1.208c-2.873 0-3.777.505-4.987 2.78h-.106l.2-2.74zm10.76 8.073c0 3.205-.505 3.95-2.687 3.95-2.354 0-2.82-.731-2.82-4.455 0-3.152.505-3.817 2.753-3.817 2.314 0 2.753.665 2.753 4.322zm7.7-8.073h-.013v22.477h5.253v-9.35h.106c.612 2.088 1.782 2.82 4.5 2.82 2.248 0 3.524-.372 4.429-1.343 1.206-1.304 1.605-3.044 1.605-7.036 0-3.684-.4-5.253-1.7-6.4a6.088 6.088 0 0 0 -4.192-1.208c-2.873 0-3.777.505-4.987 2.78h-.107l.2-2.74zm10.76 8.073c0 3.205-.505 3.95-2.687 3.95-2.354 0-2.82-.731-2.82-4.455 0-3.152.505-3.817 2.753-3.817 2.313 0 2.753.665 2.753 4.322zm7.159-.505c0 3.923.372 5.626 1.5 6.756 1.2 1.197 3.071 1.636 6.728 1.636 3.285 0 4.921-.505 5.892-1.809a5.684 5.684 0 0 0 .9-3.285v-.306h-4.983c0 1.45-.532 1.849-2.381 1.849-2.075 0-2.673-.665-2.673-2.913a4.411 4.411 0 0 1 .04-.638h10.015v-1.476c0-5.706-1.716-7.408-7.408-7.408-3.046 0-4.828.426-6 1.5-1.195 1.066-1.63 2.715-1.63 6.094zm10.161-1.543h-5.098l.04-.439c.133-1.609.492-2.008 2.407-2.008 2.168 0 2.607.306 2.607 1.942a3.051 3.051 0 0 0 .04.505zm7.395-6.025h-.013v15.76h5.094v-9.044a4.43 4.43 0 0 1 .133-1.636 1.767 1.767 0 0 1 1.742-1.237c1.1 0 1.37.532 1.37 2.58a3.153 3.153 0 0 1 -.04.532h4.655c-.027-.572-.027-1.037-.027-1.237 0-2.607-.2-3.551-.9-4.522a3.682 3.682 0 0 0 -3.121-1.236c-2.035 0-3.046.7-3.95 2.687h-.093l.239-2.647z" fill="#94a4b4" transform="translate(52.5 42)"></path></svg>