<svg xmlns="http://www.w3.org/2000/svg" height="25.155" viewBox="0 0 75.989 25.155" width="75.989"><path d="m-29.713-19.6 4.548.095a31.617 31.617 0 0 1 -4.548-1.995zm6.852-.629v.629l-2.3.095c4.334 1.484 8.3 1.686 11.245.855a25.423 25.423 0 0 1 -8.946-1.582zm48.556-13.68a3.434 3.434 0 0 0 3.432-3.432c0-1.9-1.532-2.909-3.432-2.909s-3.432 1.021-3.432 2.909a3.433 3.433 0 0 0 3.431 3.43zm-3.444 14.309h6.876v-13.124h-6.876zm-8.752 0h6.875v-23.194l-6.874 3.242zm-3.681-14.181c-2.161-2.161-5.985-2.031-5.985-2.031s-3.833-.13-5.985 2.031-1.995 4.026-1.995 6.246-.166 4.073 1.995 6.234 5.985 2.031 5.985 2.031 3.836.131 5.985-2.031 1.995-4.014 1.995-6.234.154-4.096-1.995-6.246zm-4.726 8.538c0 .427-.214 1.484-1.271 1.484s-1.271-1.057-1.271-1.484v-4.8a1.247 1.247 0 0 1 1.271-1.294 1.239 1.239 0 0 1 1.271 1.297zm-12.611-8.538c-2.161-2.161-5.985-2.031-5.985-2.031s-3.824-.131-5.985 2.031a7.136 7.136 0 0 0 -.629.712 65.873 65.873 0 0 0 -12.124-7.255v-2.458l-2.672 1.259c-6.46-2.624-10.569-2.161-11.554.012 0 0-2.957 3.895 7.339 13.157v8.754h6.875v-3.4c-.772-.5-1.544-1.033-2.3-1.615-1.757-1.33-3.254-2.565-4.56-3.729v-3.681a57.657 57.657 0 0 0 6.341 5.973l.534.427v-3.539c0-.819.2-2.161 1.282-2.161s1.259.819 1.259 1.781v5.783a31.661 31.661 0 0 0 6.852 3.515v-11.15a4.439 4.439 0 0 0 -4.821-4.441 5.252 5.252 0 0 0 -4.572 2.6v-6.448a98.947 98.947 0 0 1 11.859 6.925c-1.211 1.734-1.1 3.337-1.1 5.189 0 2.221-.166 4.073 1.995 6.234s5.985 2.031 5.985 2.031 3.836.131 5.985-2.031 1.983-4.014 1.983-6.234c-.004-2.196.174-4.06-1.987-6.21zm-31.611-5.771v7.517c-5.783-6.472-4.619-9.025-4.18-9.393 1.6-1.354 4.453-.95 7.647.249zm26.9 14.309c0 .427-.214 1.484-1.271 1.484s-1.271-1.057-1.271-1.484v-4.8a1.247 1.247 0 0 1 1.272-1.292 1.239 1.239 0 0 1 1.271 1.294z" fill="#94a4b4" transform="translate(46.862 43.321)"></path></svg>