<svg xmlns="http://www.w3.org/2000/svg" width="92.67" height="22.102" viewBox="0 0 92.67 22.102"><path d="M21.764,20.633H16.625l-1.572-3.792H6.487L5.055,20.633H0L7.723,1.48h5.533ZM10.559,6.057,7.751,13.5h5.9ZM40.434,1.48H44.59V20.633H39.815V8.67l-5.167,6.009h-.73L28.751,8.67V20.633H23.977V1.48h4.156l6.15,7.105Zm16.254,0c6.992,0,10.587,4.352,10.587,9.6,0,5.5-3.482,9.549-11.12,9.549h-7.92V1.48ZM53.009,17.123h3.117c4.8,0,6.235-3.258,6.235-6.067,0-3.286-1.77-6.066-6.291-6.066H53.009V17.123Zm23.765-11.1L70.753,0H92.67V21.918L86.65,15.9V6.021Zm-.007,1.207-6.2,6.2V22.1h8.675l6.2-6.2H76.766Z" fill="#94a4b4"></path></svg>