<svg xmlns="http://www.w3.org/2000/svg" width="92.624" height="28.118" viewBox="0 0 92.624 28.118"><path d="M0,19.889V.412H3.421V19.889H0ZM12.179,5.759a7.257,7.257,0,1,0,.034,14.51,7.256,7.256,0,1,0-.034-14.51Zm-.04,3.3a3.951,3.951,0,1,1-3.9,3.951,3.919,3.919,0,0,1,3.9-3.951Zm16.034-3.3a7.257,7.257,0,1,0,.034,14.51,7.183,7.183,0,0,0,7.363-7.286,5.462,5.462,0,0,0-1.115-3.717l.948-.325V6.164H30.544A7.331,7.331,0,0,0,28.173,5.759Zm-.04,3.3a3.951,3.951,0,1,1-3.9,3.951,3.919,3.919,0,0,1,3.9-3.951Zm3.961,11.781a3.948,3.948,0,1,1-7.9,0H20.726a7.168,7.168,0,0,0,7.456,7.276,7.175,7.175,0,0,0,7.363-7.276Zm4.847-.952V6.164h3.421V19.889Zm6.744,0V9.238H41.849V6.164h1.835V1.949h3.421V6.164H48.99V9.238H47.105V19.889ZM40.91,2.266A2.266,2.266,0,1,1,38.644,0,2.266,2.266,0,0,1,40.91,2.266ZM56.681,5.75a7.1,7.1,0,0,0-7.249,7.366c0,4.125,2.851,7.162,7.32,7.162a8.123,8.123,0,0,0,6.22-2.6l-2.287-2.29A6.092,6.092,0,0,1,56.8,17.247,3.7,3.7,0,0,1,53.049,14.4H63.71v-.942c0-3.759-2.176-7.7-7.029-7.7Zm-.108,3.012a3.4,3.4,0,0,1,3.548,2.857H52.956A3.571,3.571,0,0,1,56.573,8.762ZM72.268,20.28a7.268,7.268,0,1,1-.014-14.533A7.524,7.524,0,0,1,78.12,8.486l-2.387,2.376a4.883,4.883,0,0,0-3.5-1.786A3.852,3.852,0,0,0,68.294,13a3.881,3.881,0,0,0,3.917,3.974,4.87,4.87,0,0,0,3.519-1.783l2.411,2.375a7.5,7.5,0,0,1-5.872,2.718h0Zm7.117-.381V.362h3.421V7.54a5.23,5.23,0,0,1,4.16-1.793c3.583,0,5.658,2.663,5.658,6.069V19.9H89.2V12.334a2.888,2.888,0,0,0-3-3.238,3.157,3.157,0,0,0-3.394,3.415V19.9H79.385Z" fill="#94a4b4"></path></svg>