<svg xmlns="http://www.w3.org/2000/svg" width="118.94" height="11.46" viewBox="0 0 118.94 11.46"><path d="M-51.35-3.84a.628.628,0,0,0-.17-.33.592.592,0,0,0-.43-.13h-3.72v1.86h6.42a.277.277,0,0,0,.24-.11,1.172,1.172,0,0,0,.12-.49h.24V.38h-.24a.523.523,0,0,0-.12-.32A.4.4,0,0,0-49.25,0h-9.98V-.24a.9.9,0,0,0,.47-.13.311.311,0,0,0,.09-.23V-9.92a.311.311,0,0,0-.09-.23.9.9,0,0,0-.47-.13v-.24h9.98a.277.277,0,0,0,.24-.11,1.064,1.064,0,0,0,.12-.45h.24V-7.6h-.24a1.064,1.064,0,0,0-.12-.45.277.277,0,0,0-.24-.11h-6.42V-6.5h3.72a.592.592,0,0,0,.43-.13.628.628,0,0,0,.17-.33h.24v3.12Zm8.8,3.6a.806.806,0,0,0,.24-.08.118.118,0,0,0,.06-.1,2.761,2.761,0,0,0-.16-.41q-.16-.37-.41-.97t-.59-1.36q-.34-.76-.69-1.58t-.71-1.62q-.36-.8-.66-1.48t-.51-1.18q-.21-.5-.29-.7a2.127,2.127,0,0,0-.22-.44.347.347,0,0,0-.24-.12v-.24h4.1v.24a.677.677,0,0,0-.32.08.19.19,0,0,0-.08.16.8.8,0,0,0,.09.25q.09.19.38.81l.84,1.8q.55,1.18,1.49,3.22.9-1.98,1.43-3.15t.82-1.79q.29-.62.37-.85a1.2,1.2,0,0,0,.08-.31.184.184,0,0,0-.06-.15.486.486,0,0,0-.24-.07v-.24h3.44v.24a1.084,1.084,0,0,0-.19.08.289.289,0,0,0-.11.18q-.04.12-.24.58t-.49,1.14q-.29.68-.64,1.51t-.72,1.69q-.37.86-.72,1.68t-.62,1.46q-.27.64-.43,1.06a3.712,3.712,0,0,0-.16.46q0,.18.28.18V0h-4.12Zm18.44-3.6a.628.628,0,0,0-.17-.33.592.592,0,0,0-.43-.13h-3.72v1.86h6.42a.277.277,0,0,0,.24-.11,1.172,1.172,0,0,0,.12-.49h.24V.38h-.24a.523.523,0,0,0-.12-.32A.4.4,0,0,0-22.01,0h-9.98V-.24a.9.9,0,0,0,.47-.13.311.311,0,0,0,.09-.23V-9.92a.311.311,0,0,0-.09-.23.9.9,0,0,0-.47-.13v-.24h9.98a.277.277,0,0,0,.24-.11,1.064,1.064,0,0,0,.12-.45h.24V-7.6h-.24a1.064,1.064,0,0,0-.12-.45.277.277,0,0,0-.24-.11h-6.42V-6.5h3.72a.592.592,0,0,0,.43-.13.628.628,0,0,0,.17-.33h.24v3.12Zm6.3-6.08a.311.311,0,0,0-.09-.23.9.9,0,0,0-.47-.13v-.24h4.82v.24a1.07,1.07,0,0,0-.45.09.2.2,0,0,0-.11.17,1.73,1.73,0,0,0,.26.36q.26.32.68.8t.95,1.07q.53.59,1.07,1.18t1.04,1.12l.86.91V-9.92q0-.34-.42-.36v-.24h3.66v.24a.9.9,0,0,0-.47.13.311.311,0,0,0-.09.23V-.6a.311.311,0,0,0,.09.23.9.9,0,0,0,.47.13V0h-3.8V-.24A.752.752,0,0,0-9.44-.3a.184.184,0,0,0,.09-.16.292.292,0,0,0-.06-.15,3.263,3.263,0,0,0-.26-.31q-.2-.22-.59-.63t-1.03-1.1q-.64-.69-1.58-1.72t-2.26-2.51V-.6a.311.311,0,0,0,.09.23.9.9,0,0,0,.47.13V0h-3.8V-.24a.9.9,0,0,0,.47-.13.311.311,0,0,0,.09-.23ZM-.11-.24A.9.9,0,0,0,.36-.37.311.311,0,0,0,.45-.6V-8.08H-2.99a.277.277,0,0,0-.24.11,1.064,1.064,0,0,0-.12.45h-.24v-3.56h.24a1.064,1.064,0,0,0,.12.45.277.277,0,0,0,.24.11H6.89a.277.277,0,0,0,.24-.11,1.064,1.064,0,0,0,.12-.45h.24v3.56H7.25a1.064,1.064,0,0,0-.12-.45.277.277,0,0,0-.24-.11H3.45V-.6a.311.311,0,0,0,.09.23.9.9,0,0,0,.47.13V0H-.11Zm11.52-2.8a1.518,1.518,0,0,1,1.11.47,1.518,1.518,0,0,1,.47,1.11,1.422,1.422,0,0,1-.47,1.08,1.57,1.57,0,0,1-1.11.44A1.57,1.57,0,0,1,10.3-.38a1.422,1.422,0,0,1-.47-1.08,1.518,1.518,0,0,1,.47-1.11A1.518,1.518,0,0,1,11.41-3.04ZM28.11-.6a.311.311,0,0,0,.09.23.9.9,0,0,0,.47.13V0H24.55V-.24a.9.9,0,0,0,.47-.13.311.311,0,0,0,.09-.23V-4.3h-5.2V-.6A.311.311,0,0,0,20-.37a.9.9,0,0,0,.47.13V0H16.35V-.24a.9.9,0,0,0,.47-.13.311.311,0,0,0,.09-.23V-9.92a.311.311,0,0,0-.09-.23.9.9,0,0,0-.47-.13v-.24h4.12v.24a.9.9,0,0,0-.47.13.311.311,0,0,0-.09.23v3.18h5.2V-9.92a.311.311,0,0,0-.09-.23.9.9,0,0,0-.47-.13v-.24h4.12v.24a.9.9,0,0,0-.47.13.311.311,0,0,0-.09.23ZM40.87-9.92a.311.311,0,0,0-.09-.23.9.9,0,0,0-.47-.13v-.24h4.12v.24a.9.9,0,0,0-.47.13.311.311,0,0,0-.09.23v5.36a5.129,5.129,0,0,1-.43,2.22A3.7,3.7,0,0,1,42.26-.9a4.56,4.56,0,0,1-1.76.75,10.548,10.548,0,0,1-2.15.21A10.548,10.548,0,0,1,36.2-.15,4.56,4.56,0,0,1,34.44-.9a3.7,3.7,0,0,1-1.18-1.44,5.129,5.129,0,0,1-.43-2.22V-9.92a.311.311,0,0,0-.09-.23.9.9,0,0,0-.47-.13v-.24h4.12v.24a.9.9,0,0,0-.47.13.311.311,0,0,0-.09.23v5.36a1.951,1.951,0,0,0,.66,1.66,3.026,3.026,0,0,0,1.86.5,3.026,3.026,0,0,0,1.86-.5,1.951,1.951,0,0,0,.66-1.66Zm14.04,7.8a3.093,3.093,0,0,0,1.52-.27,1,1,0,0,0,.44-.93,1,1,0,0,0-.44-.93,3.093,3.093,0,0,0-1.52-.27h-3.4v2.4Zm-.68-4.44q.64,0,1.06-.03a2.168,2.168,0,0,0,.66-.13A.66.66,0,0,0,56.29-7a.988.988,0,0,0,.1-.48.988.988,0,0,0-.1-.48.66.66,0,0,0-.34-.28,2.168,2.168,0,0,0-.66-.13q-.42-.03-1.06-.03H51.51v1.84ZM48.51-9.92a.311.311,0,0,0-.09-.23.9.9,0,0,0-.47-.13v-.24h7.62a6.552,6.552,0,0,1,1.5.16,3.634,3.634,0,0,1,1.18.49,2.3,2.3,0,0,1,.78.86,2.686,2.686,0,0,1,.28,1.27,1.981,1.981,0,0,1-.54,1.45,2.664,2.664,0,0,1-1.38.73v.04a4.09,4.09,0,0,1,1.67.86,2.16,2.16,0,0,1,.65,1.7,2.879,2.879,0,0,1-.23,1.14,2.44,2.44,0,0,1-.72.94,3.725,3.725,0,0,1-1.26.64A6.184,6.184,0,0,1,55.67,0H47.95V-.24a.9.9,0,0,0,.47-.13.311.311,0,0,0,.09-.23Z" transform="translate(59.23 11.08)" fill="#fff"></path></svg>