<svg xmlns="http://www.w3.org/2000/svg" height="321.901" viewBox="0 0 309.984 321.901" width="309.984"><g fill="none" stroke="#f3e3ee" stroke-dasharray="1274.4" stroke-miterlimit="10"><path d="m246.211 25.722c24.345 18.925 38.88 49.193 49.527 80.735 10.647 31.484 17.466 64.3 10.229 94.741s-28.592 58.569-56.346 73.848c-27.814 15.279-62.029 17.71-94.27 15.105-32.181-2.662-62.448-10.417-87.271-26.68-24.883-16.2-44.323-40.8-56.107-69.449-11.844-28.591-15.973-61.116-7.473-90.69s29.6-56.196 56.581-74.369c26.919-18.173 59.576-27.838 93.073-28.879 33.437-.984 67.652 6.655 92.057 25.638z" transform="translate(.509 30.35)"></path><path d="m62.756 265.333c-24.345-18.925-38.88-49.193-49.528-80.733-10.647-31.485-17.466-64.3-10.228-94.742s28.592-58.569 56.346-73.848c27.815-15.279 62.029-17.71 94.27-15.11 32.181 2.662 62.448 10.417 87.271 26.68 24.883 16.2 44.323 40.8 56.107 69.449 11.844 28.59 15.971 61.115 7.477 90.689s-29.609 56.2-56.586 74.369c-26.917 18.173-59.576 27.838-93.073 28.879-33.437.99-67.651-6.65-92.056-25.633z" transform="translate(.509 .498)"></path></g></svg>