<svg xmlns="http://www.w3.org/2000/svg" width="75.069" height="75.069" viewBox="0 0 75.069 75.069"><path d="M1.188,2.376A1.188,1.188,0,1,1,2.376,1.188,1.188,1.188,0,0,1,1.188,2.376Zm8.077,0a1.188,1.188,0,1,1,1.188-1.188A1.188,1.188,0,0,1,9.265,2.376Zm8.077,0A1.188,1.188,0,1,1,18.53,1.188,1.188,1.188,0,0,1,17.342,2.376Zm8.077,0a1.188,1.188,0,1,1,1.188-1.188A1.188,1.188,0,0,1,25.419,2.376Zm8.077,0a1.188,1.188,0,1,1,1.188-1.188A1.188,1.188,0,0,1,33.5,2.376Zm8.077,0a1.188,1.188,0,1,1,1.188-1.188A1.188,1.188,0,0,1,41.573,2.376Zm8.077,0a1.188,1.188,0,1,1,1.188-1.188A1.188,1.188,0,0,1,49.65,2.376Zm8.077,0a1.188,1.188,0,1,1,1.188-1.188A1.188,1.188,0,0,1,57.727,2.376Zm8.077,0a1.188,1.188,0,1,1,1.188-1.188A1.188,1.188,0,0,1,65.8,2.376Zm8.077,0a1.188,1.188,0,1,1,1.188-1.188A1.188,1.188,0,0,1,73.881,2.376ZM1.188,10.453A1.188,1.188,0,1,1,2.376,9.265,1.188,1.188,0,0,1,1.188,10.453Zm8.077,0a1.188,1.188,0,1,1,1.188-1.188A1.188,1.188,0,0,1,9.265,10.453Zm8.077,0A1.188,1.188,0,1,1,18.53,9.265,1.188,1.188,0,0,1,17.342,10.453Zm8.077,0a1.188,1.188,0,1,1,1.188-1.188A1.188,1.188,0,0,1,25.419,10.453Zm8.077,0a1.188,1.188,0,1,1,1.188-1.188A1.188,1.188,0,0,1,33.5,10.453Zm8.077,0a1.188,1.188,0,1,1,1.188-1.188A1.188,1.188,0,0,1,41.573,10.453Zm8.077,0a1.188,1.188,0,1,1,1.188-1.188A1.188,1.188,0,0,1,49.65,10.453Zm8.077,0a1.188,1.188,0,1,1,1.188-1.188A1.188,1.188,0,0,1,57.727,10.453Zm8.077,0a1.188,1.188,0,1,1,1.188-1.188A1.188,1.188,0,0,1,65.8,10.453Zm8.077,0a1.188,1.188,0,1,1,1.188-1.188A1.188,1.188,0,0,1,73.881,10.453ZM1.188,18.53a1.188,1.188,0,1,1,1.188-1.188A1.188,1.188,0,0,1,1.188,18.53Zm8.077,0a1.188,1.188,0,1,1,1.188-1.188A1.188,1.188,0,0,1,9.265,18.53Zm8.077,0a1.188,1.188,0,1,1,1.188-1.188A1.188,1.188,0,0,1,17.342,18.53Zm8.077,0a1.188,1.188,0,1,1,1.188-1.188A1.188,1.188,0,0,1,25.419,18.53Zm8.077,0a1.188,1.188,0,1,1,1.188-1.188A1.188,1.188,0,0,1,33.5,18.53Zm8.077,0a1.188,1.188,0,1,1,1.188-1.188A1.188,1.188,0,0,1,41.573,18.53Zm8.077,0a1.188,1.188,0,1,1,1.188-1.188A1.188,1.188,0,0,1,49.65,18.53Zm8.077,0a1.188,1.188,0,1,1,1.188-1.188A1.188,1.188,0,0,1,57.727,18.53Zm8.077,0a1.188,1.188,0,1,1,1.188-1.188A1.188,1.188,0,0,1,65.8,18.53Zm8.077,0a1.188,1.188,0,1,1,1.188-1.188A1.188,1.188,0,0,1,73.881,18.53ZM1.188,26.607a1.188,1.188,0,1,1,1.188-1.188A1.188,1.188,0,0,1,1.188,26.607Zm8.077,0a1.188,1.188,0,1,1,1.188-1.188A1.188,1.188,0,0,1,9.265,26.607Zm8.077,0a1.188,1.188,0,1,1,1.188-1.188A1.188,1.188,0,0,1,17.342,26.607Zm8.077,0a1.188,1.188,0,1,1,1.188-1.188A1.188,1.188,0,0,1,25.419,26.607Zm8.077,0a1.188,1.188,0,1,1,1.188-1.188A1.188,1.188,0,0,1,33.5,26.607Zm8.077,0a1.188,1.188,0,1,1,1.188-1.188A1.188,1.188,0,0,1,41.573,26.607Zm8.077,0a1.188,1.188,0,1,1,1.188-1.188A1.188,1.188,0,0,1,49.65,26.607Zm8.077,0a1.188,1.188,0,1,1,1.188-1.188A1.188,1.188,0,0,1,57.727,26.607Zm8.077,0a1.188,1.188,0,1,1,1.188-1.188A1.188,1.188,0,0,1,65.8,26.607Zm8.077,0a1.188,1.188,0,1,1,1.188-1.188A1.188,1.188,0,0,1,73.881,26.607ZM1.188,34.684A1.188,1.188,0,1,1,2.376,33.5,1.188,1.188,0,0,1,1.188,34.684Zm8.077,0A1.188,1.188,0,1,1,10.453,33.5,1.188,1.188,0,0,1,9.265,34.684Zm8.077,0A1.188,1.188,0,1,1,18.53,33.5,1.188,1.188,0,0,1,17.342,34.684Zm8.077,0A1.188,1.188,0,1,1,26.607,33.5,1.188,1.188,0,0,1,25.419,34.684Zm8.077,0A1.188,1.188,0,1,1,34.684,33.5,1.188,1.188,0,0,1,33.5,34.684Zm8.077,0A1.188,1.188,0,1,1,42.761,33.5,1.188,1.188,0,0,1,41.573,34.684Zm8.077,0A1.188,1.188,0,1,1,50.838,33.5,1.188,1.188,0,0,1,49.65,34.684Zm8.077,0A1.188,1.188,0,1,1,58.915,33.5,1.188,1.188,0,0,1,57.727,34.684Zm8.077,0A1.188,1.188,0,1,1,66.992,33.5,1.188,1.188,0,0,1,65.8,34.684Zm8.077,0A1.188,1.188,0,1,1,75.069,33.5,1.188,1.188,0,0,1,73.881,34.684ZM1.188,42.761a1.188,1.188,0,1,1,1.188-1.188A1.188,1.188,0,0,1,1.188,42.761Zm8.077,0a1.188,1.188,0,1,1,1.188-1.188A1.188,1.188,0,0,1,9.265,42.761Zm8.077,0a1.188,1.188,0,1,1,1.188-1.188A1.188,1.188,0,0,1,17.342,42.761Zm8.077,0a1.188,1.188,0,1,1,1.188-1.188A1.188,1.188,0,0,1,25.419,42.761Zm8.077,0a1.188,1.188,0,1,1,1.188-1.188A1.188,1.188,0,0,1,33.5,42.761Zm8.077,0a1.188,1.188,0,1,1,1.188-1.188A1.188,1.188,0,0,1,41.573,42.761Zm8.077,0a1.188,1.188,0,1,1,1.188-1.188A1.188,1.188,0,0,1,49.65,42.761Zm8.077,0a1.188,1.188,0,1,1,1.188-1.188A1.188,1.188,0,0,1,57.727,42.761Zm8.077,0a1.188,1.188,0,1,1,1.188-1.188A1.188,1.188,0,0,1,65.8,42.761Zm8.077,0a1.188,1.188,0,1,1,1.188-1.188A1.188,1.188,0,0,1,73.881,42.761ZM1.188,50.838A1.188,1.188,0,1,1,2.376,49.65,1.188,1.188,0,0,1,1.188,50.838Zm8.077,0a1.188,1.188,0,1,1,1.188-1.188A1.188,1.188,0,0,1,9.265,50.838Zm8.077,0A1.188,1.188,0,1,1,18.53,49.65,1.188,1.188,0,0,1,17.342,50.838Zm8.077,0a1.188,1.188,0,1,1,1.188-1.188A1.188,1.188,0,0,1,25.419,50.838Zm8.077,0a1.188,1.188,0,1,1,1.188-1.188A1.188,1.188,0,0,1,33.5,50.838Zm8.077,0a1.188,1.188,0,1,1,1.188-1.188A1.188,1.188,0,0,1,41.573,50.838Zm8.077,0a1.188,1.188,0,1,1,1.188-1.188A1.188,1.188,0,0,1,49.65,50.838Zm8.077,0a1.188,1.188,0,1,1,1.188-1.188A1.188,1.188,0,0,1,57.727,50.838Zm8.077,0a1.188,1.188,0,1,1,1.188-1.188A1.188,1.188,0,0,1,65.8,50.838Zm8.077,0a1.188,1.188,0,1,1,1.188-1.188A1.188,1.188,0,0,1,73.881,50.838ZM1.188,58.915a1.188,1.188,0,1,1,1.188-1.188A1.188,1.188,0,0,1,1.188,58.915Zm8.077,0a1.188,1.188,0,1,1,1.188-1.188A1.188,1.188,0,0,1,9.265,58.915Zm8.077,0a1.188,1.188,0,1,1,1.188-1.188A1.188,1.188,0,0,1,17.342,58.915Zm8.077,0a1.188,1.188,0,1,1,1.188-1.188A1.188,1.188,0,0,1,25.419,58.915Zm8.077,0a1.188,1.188,0,1,1,1.188-1.188A1.188,1.188,0,0,1,33.5,58.915Zm8.077,0a1.188,1.188,0,1,1,1.188-1.188A1.188,1.188,0,0,1,41.573,58.915Zm8.077,0a1.188,1.188,0,1,1,1.188-1.188A1.188,1.188,0,0,1,49.65,58.915Zm8.077,0a1.188,1.188,0,1,1,1.188-1.188A1.188,1.188,0,0,1,57.727,58.915Zm8.077,0a1.188,1.188,0,1,1,1.188-1.188A1.188,1.188,0,0,1,65.8,58.915Zm8.077,0a1.188,1.188,0,1,1,1.188-1.188A1.188,1.188,0,0,1,73.881,58.915ZM1.188,66.992A1.188,1.188,0,1,1,2.376,65.8,1.188,1.188,0,0,1,1.188,66.992Zm8.077,0A1.188,1.188,0,1,1,10.453,65.8,1.188,1.188,0,0,1,9.265,66.992Zm8.077,0A1.188,1.188,0,1,1,18.53,65.8,1.188,1.188,0,0,1,17.342,66.992Zm8.077,0A1.188,1.188,0,1,1,26.607,65.8,1.188,1.188,0,0,1,25.419,66.992Zm8.077,0A1.188,1.188,0,1,1,34.684,65.8,1.188,1.188,0,0,1,33.5,66.992Zm8.077,0A1.188,1.188,0,1,1,42.761,65.8,1.188,1.188,0,0,1,41.573,66.992Zm8.077,0A1.188,1.188,0,1,1,50.838,65.8,1.188,1.188,0,0,1,49.65,66.992Zm8.077,0A1.188,1.188,0,1,1,58.915,65.8,1.188,1.188,0,0,1,57.727,66.992Zm8.077,0A1.188,1.188,0,1,1,66.992,65.8,1.188,1.188,0,0,1,65.8,66.992Zm8.077,0A1.188,1.188,0,1,1,75.069,65.8,1.188,1.188,0,0,1,73.881,66.992ZM1.188,75.069a1.188,1.188,0,1,1,1.188-1.188A1.188,1.188,0,0,1,1.188,75.069Zm8.077,0a1.188,1.188,0,1,1,1.188-1.188A1.188,1.188,0,0,1,9.265,75.069Zm8.077,0a1.188,1.188,0,1,1,1.188-1.188A1.188,1.188,0,0,1,17.342,75.069Zm8.077,0a1.188,1.188,0,1,1,1.188-1.188A1.188,1.188,0,0,1,25.419,75.069Zm8.077,0a1.188,1.188,0,1,1,1.188-1.188A1.188,1.188,0,0,1,33.5,75.069Zm8.077,0a1.188,1.188,0,1,1,1.188-1.188A1.188,1.188,0,0,1,41.573,75.069Zm8.077,0a1.188,1.188,0,1,1,1.188-1.188A1.188,1.188,0,0,1,49.65,75.069Zm8.077,0a1.188,1.188,0,1,1,1.188-1.188A1.188,1.188,0,0,1,57.727,75.069Zm8.077,0a1.188,1.188,0,1,1,1.188-1.188A1.188,1.188,0,0,1,65.8,75.069Zm8.077,0a1.188,1.188,0,1,1,1.188-1.188A1.188,1.188,0,0,1,73.881,75.069Z" fill="#ea75c5" fill-rule="evenodd"></path></svg>