<svg xmlns="http://www.w3.org/2000/svg" width="106.584" height="110.616" viewBox="0 0 106.584 110.616"><path d="M1.338,84.4C.3,62.712,2.935,39.818,19.419,23.874c8.8-8.514,23.075-11.3,28.209,2.362,3.5,9.306,3.914,25.759-6.568,30.851-11.575,5.623-.766-21.864.934-24.591C49.95,19.731,59.777,11.612,72.27,3.783,76.95.85,73.711.477,70.095,1.135A38.732,38.732,0,0,0,60.529,3.82c-.877.422,5.206-1.087,6.154-1.372,4.064-1.221,8.8-2.47,9.27,3.16.075.9.043,9.376-1.2,9.688-.649.162-3.7-5.026-4.284-5.643C66.7,5.645,63.583,4.424,58.273,5.118" transform="translate(37.312 0.065) rotate(26)" fill="none" stroke="#001a72" stroke-linecap="round" stroke-width="2"></path></svg>