<svg height="47.582" viewBox="0 0 47.812 47.582" width="47.812" xmlns="http://www.w3.org/2000/svg"><g fill="#8653d8" fill-rule="evenodd"><path d="m11.052 30.925q-.272-.267-.549-.533c-1.878-1.8-3.741-3.6-5.49-5.533a9.81 9.81 0 0 0 -2.013-1.841 2.718 2.718 0 0 0 -1.7-.4 1.3 1.3 0 0 0 -1.1.878 2.059 2.059 0 0 0 -.113.545 10.46 10.46 0 0 0 .009 1.2c.14 1.424.279 2.786.535 4.2.235 1.3.4 2.6.65 3.9a33.268 33.268 0 0 0 1.579 5.647 1.33 1.33 0 0 0 2.482-.957 30.6 30.6 0 0 1 -1.45-5.2c-.251-1.283-.41-2.578-.644-3.863-.152-.836-.259-1.655-.351-2.48l.152.171c1.791 1.977 3.7 3.824 5.621 5.667.72.69 1.414 1.4 2.145 2.079a6.548 6.548 0 0 0 .467.618 1.593 1.593 0 0 0 .675.415 1.326 1.326 0 0 0 1.549-.5 3.107 3.107 0 0 0 .543-1.973 26.553 26.553 0 0 0 -.545-3.337c-.581-4.384-1.522-8.751-1.772-13.174a1.33 1.33 0 1 0 -2.655.15c.253 4.489 1.2 8.922 1.79 13.373.025.223.101.563.185.948z" transform="translate(-.065 -4.34)"/><path d="m29.115 11.76a10.148 10.148 0 0 0 -4.231 1.784 6.77 6.77 0 0 0 -2.141 4.416 26.1 26.1 0 0 0 .343 6.592 33.622 33.622 0 0 0 .454 3.4 5.311 5.311 0 0 0 1.248 2.512 3.492 3.492 0 0 0 3.945.468 8.881 8.881 0 0 0 3.958-3.289 1.33 1.33 0 0 0 -2.381-1.185 5.777 5.777 0 0 1 -2.575 2.009 2.529 2.529 0 0 1 -.723.193c-.12.01-.241.027-.323-.056a3.3 3.3 0 0 1 -.658-1.751c-.163-.939-.208-1.92-.307-2.658a23.223 23.223 0 0 1 -.344-5.895 4.156 4.156 0 0 1 1.234-2.739 7.553 7.553 0 0 1 3.186-1.229 1.33 1.33 0 0 0 -.681-2.572z" transform="translate(-6.507 -3.349)"/><path d="m29.741 21.52a26.889 26.889 0 0 1 -3.67 1.74 1.33 1.33 0 1 0 .9 2.5 29.582 29.582 0 0 0 4.044-1.907 1.33 1.33 0 0 0 -1.272-2.337z" transform="translate(-7.235 -6.101)"/><path d="m49.053 17.809a42.819 42.819 0 0 0 -3.081-3.386 13.049 13.049 0 0 0 -1.832-1.323 1.982 1.982 0 0 0 -1.054-.246 1.3 1.3 0 0 0 -1.231 1.035 7 7 0 0 0 -.215 1.825 28.1 28.1 0 0 1 -2.43-5.738 1.68 1.68 0 0 0 -.088-.256 1.213 1.213 0 0 0 -.539-.6 1.257 1.257 0 0 0 -1.218-.067 1.319 1.319 0 0 0 -.756 1.5c.018.086.171.7.216.936a1.327 1.327 0 0 0 .243.553 49.469 49.469 0 0 0 3.664 7.546 6.962 6.962 0 0 1 .667 1.646c.044.17.062.553.1.742a1.594 1.594 0 0 0 .279.641 1.251 1.251 0 0 0 1.456.48 1.292 1.292 0 0 0 .887-.813 8.794 8.794 0 0 0 .344-4.407c-.049-.451-.11-.9-.148-1.347a45.284 45.284 0 0 1 3.332 3.77 16.532 16.532 0 0 0 1.581 1.631 1.3 1.3 0 0 0 1.624-.1 2.721 2.721 0 0 0 .823-1.624 14.586 14.586 0 0 0 .021-2.745 53.275 53.275 0 0 0 -.998-10.549 1.33 1.33 0 1 0 -2.592.6 50.64 50.64 0 0 1 .928 10.018c.005.069.01.169.017.278z" transform="translate(-10.484 -1.684)"/><path d="m61.239 4.352c.482 2.331.965 4.64 1.28 7.037a1.33 1.33 0 1 0 2.637-.346c-.444-3.38-1.213-6.59-1.857-9.924a1.313 1.313 0 0 0 -1.548-1.1 1.281 1.281 0 0 0 -1.1 1.278c0 .065.041.521.049.7.016.4.008.8-.013 1.206a1.329 1.329 0 0 0 .552 1.149z" transform="translate(-17.355 -.008)"/><path d="m65.222 24.624a1.329 1.329 0 0 0 -2.093-1.454 1.572 1.572 0 0 0 -.558 1.569 1.33 1.33 0 0 0 2.651-.115z" transform="translate(-17.896 -6.535)"/><path d="m28.464 57.273c-.136-.287-.245-.514-.271-.563-1.236-2.311-2.576-4.591-4.036-6.768a1.33 1.33 0 0 0 -2.209 1.482c1.41 2.1 2.705 4.307 3.9 6.54a20.482 20.482 0 0 0 1.132 2.314 1.827 1.827 0 0 0 1.169.817 1.867 1.867 0 0 0 1.721-.855 21.958 21.958 0 0 0 1.868-4.086c.291-.81.538-1.66.767-2.486a36.7 36.7 0 0 0 .905-4.768 1.33 1.33 0 1 0 -2.635-.365 34.032 34.032 0 0 1 -.835 4.428c-.211.763-.438 1.548-.706 2.3-.081.215-.396 1.137-.77 2.01z" transform="translate(-6.245 -13.527)"/></g></svg>