<?xml version="1.0" encoding="UTF-8" ?>
<svg xmlns="http://www.w3.org/2000/svg" width="73.727" height="19.509" viewBox="0 0 73.727 19.509"><path d="M-32.024-24.072c-3.434,0-4.851,1.222-4.851,4.125,0,3.134,1.245,4.3,4.736,4.3,2.524,0,3.48-.553,4.091-2.351h.115l-.15,2.2h4.413v-8.792a8.48,8.48,0,0,0-.461-2.731c-.784-1.6-2.408-2.178-6.211-2.178-3.134,0-4.471.346-5.312,1.36-.5.611-.634,1.21-.668,2.812h4.448c.081-1.187.438-1.475,1.74-1.475,1.51,0,2.063.472,2.063,1.775v2.639h-.092C-28.682-23.75-29.465-24.072-32.024-24.072Zm1.971,5.543c-1.947,0-2.385-.288-2.374-1.487,0-1.049.553-1.394,2.063-1.394,1.763,0,2.259.288,2.259,1.337C-28.106-18.875-28.544-18.53-30.053-18.53Zm8.965-10.936V-9.991h4.552v-8.1h.092c.53,1.809,1.544,2.443,3.895,2.443,1.936,0,3.042-.323,3.826-1.164,1.049-1.129,1.394-2.639,1.394-6.1,0-3.192-.346-4.552-1.475-5.543a5.274,5.274,0,0,0-3.63-1.049c-2.489,0-3.273.438-4.321,2.408h-.092l.173-2.374Zm9.322,6.995c0,2.777-.438,3.422-2.328,3.422-2.04,0-2.443-.634-2.443-3.86,0-2.731.438-3.307,2.385-3.307C-12.146-26.216-11.765-25.64-11.765-22.471Zm6.672-6.995H-5.1V-9.991H-.553v-8.1h.092c.53,1.809,1.544,2.443,3.895,2.443,1.947,0,3.054-.323,3.837-1.164,1.049-1.129,1.394-2.639,1.394-6.1,0-3.192-.346-4.552-1.475-5.543A5.274,5.274,0,0,0,3.561-29.5c-2.489,0-3.273.438-4.321,2.408H-.853l.173-2.374Zm9.322,6.995c0,2.777-.438,3.422-2.328,3.422-2.04,0-2.443-.634-2.443-3.86,0-2.731.438-3.307,2.385-3.307C3.849-26.216,4.229-25.64,4.229-22.471Zm6.2-.438c0,3.4.323,4.874,1.3,5.854,1.037,1.037,2.662,1.417,5.831,1.417,2.846,0,4.264-.438,5.1-1.567a4.925,4.925,0,0,0,.784-2.846v-.265H19.129c0,1.256-.461,1.6-2.063,1.6-1.8,0-2.316-.576-2.316-2.524a3.822,3.822,0,0,1,.035-.553h8.677V-23.07c0-4.943-1.486-6.419-6.418-6.419-2.639,0-4.183.369-5.2,1.3C10.809-27.264,10.429-25.836,10.429-22.909Zm8.8-1.337H14.819l.035-.38c.115-1.394.426-1.74,2.086-1.74,1.878,0,2.259.265,2.259,1.682A2.643,2.643,0,0,0,19.233-24.245Zm6.407-5.22h-.011V-15.81h4.413v-7.836a3.838,3.838,0,0,1,.115-1.417,1.531,1.531,0,0,1,1.51-1.072c.956,0,1.187.461,1.187,2.235a2.731,2.731,0,0,1-.035.461h4.033c-.023-.5-.023-.9-.023-1.072,0-2.259-.173-3.077-.784-3.918a3.19,3.19,0,0,0-2.7-1.072c-1.763,0-2.639.611-3.422,2.328h-.081l.207-2.293Z" transform="translate(36.875 29.5)" fill="#8a8aa0"/></svg>