<?xml version="1.0" encoding="UTF-8" ?>
<svg xmlns="http://www.w3.org/2000/svg" width="79.825" height="24.032" viewBox="0 0 79.825 24.032"><path d="M241.922,321.325c-4.621,3.417-11.344,5.238-17.141,5.238a31.08,31.08,0,0,1-20.951-7.983c-.42-.392-.056-.924.476-.616a41.613,41.613,0,0,0,36.944,2.269C242.034,319.924,242.678,320.764,241.922,321.325Z" transform="translate(-192.402 -302.531)" fill="#8a8aa0" fill-rule="evenodd"/><path d="M332.314,316.98c-.588-.756-3.921-.364-5.406-.168-.448.056-.532-.336-.112-.616,2.661-1.877,7-1.316,7.506-.7s-.14,4.986-2.633,7.058c-.392.308-.756.14-.588-.28C331.642,320.873,332.9,317.764,332.314,316.98Z" transform="translate(-280.862 -300.398)" fill="#8a8aa0" fill-rule="evenodd"/><path d="M209.631,265.733v-1.821a.426.426,0,0,1,.448-.448H218.2a.467.467,0,0,1,.476.448v1.54c0,.252-.224.588-.616,1.148l-4.2,5.994a9.125,9.125,0,0,1,4.621.98.835.835,0,0,1,.42.7v1.933c0,.28-.28.588-.588.42a9.266,9.266,0,0,0-8.571.028.44.44,0,0,1-.588-.42v-1.849a2.093,2.093,0,0,1,.308-1.232l4.874-6.974h-4.229a.467.467,0,0,1-.476-.448ZM180.025,277.02H177.56a.506.506,0,0,1-.448-.42V263.94a.467.467,0,0,1,.476-.448h2.3a.456.456,0,0,1,.448.42v1.652h.056a3.381,3.381,0,0,1,6.442,0,3.51,3.51,0,0,1,3.417-2.353,3.472,3.472,0,0,1,2.857,1.4c.784,1.064.616,2.6.616,3.977V276.6a.467.467,0,0,1-.476.448h-2.437a.481.481,0,0,1-.448-.448v-6.722a16.8,16.8,0,0,0-.056-2.381,1.3,1.3,0,0,0-1.456-1.092,1.649,1.649,0,0,0-1.484,1.036,7.761,7.761,0,0,0-.224,2.437V276.6a.467.467,0,0,1-.476.448H184.2a.481.481,0,0,1-.448-.448v-6.722c0-1.4.224-3.5-1.512-3.5-1.765,0-1.709,2.017-1.709,3.5V276.6a.492.492,0,0,1-.5.42Zm45.654-13.808c3.669,0,5.658,3.137,5.658,7.142,0,3.865-2.185,6.946-5.658,6.946-3.585,0-5.546-3.137-5.546-7.058-.028-3.949,1.961-7.03,5.546-7.03Zm0,2.6c-1.821,0-1.933,2.493-1.933,4.033s-.028,4.846,1.9,4.846c1.9,0,2.017-2.661,2.017-4.285a12.257,12.257,0,0,0-.364-3.361A1.549,1.549,0,0,0,225.68,265.817Zm10.391,11.2h-2.465a.481.481,0,0,1-.448-.448V263.884a.484.484,0,0,1,.476-.42h2.3a.479.479,0,0,1,.448.364v1.933h.056c.7-1.737,1.653-2.549,3.361-2.549a3.262,3.262,0,0,1,2.885,1.484c.644,1.008.644,2.717.644,3.949v7.983a.461.461,0,0,1-.476.392h-2.465a.51.51,0,0,1-.448-.392v-6.89c0-1.4.168-3.417-1.541-3.417a1.622,1.622,0,0,0-1.428,1.008,5.815,5.815,0,0,0-.392,2.409v6.834a.513.513,0,0,1-.5.448Zm-32.91-6.05a5.008,5.008,0,0,1-.448,2.633,1.982,1.982,0,0,1-1.709,1.12c-.952,0-1.512-.728-1.512-1.793,0-2.1,1.877-2.493,3.669-2.493Zm2.493,6.022a.506.506,0,0,1-.588.056,6.185,6.185,0,0,1-1.428-1.653,4.907,4.907,0,0,1-4.061,1.793,3.508,3.508,0,0,1-3.7-3.837,4.193,4.193,0,0,1,2.633-4.033,17.49,17.49,0,0,1,4.649-.868v-.308a3.026,3.026,0,0,0-.308-1.793,1.659,1.659,0,0,0-1.372-.644,1.865,1.865,0,0,0-1.989,1.484c-.056.224-.2.448-.42.448l-2.381-.252a.431.431,0,0,1-.364-.5c.56-2.913,3.165-3.781,5.518-3.781a5.543,5.543,0,0,1,3.725,1.232c1.2,1.12,1.092,2.633,1.092,4.257v3.837a3.47,3.47,0,0,0,.924,2.3c.168.224.2.5,0,.644C207.054,275.788,206.157,276.572,205.653,276.992Zm-34.843-6.022a5.008,5.008,0,0,1-.448,2.633,1.982,1.982,0,0,1-1.709,1.12c-.952,0-1.512-.728-1.512-1.793,0-2.1,1.877-2.493,3.669-2.493Zm2.465,6.022a.506.506,0,0,1-.588.056,6.185,6.185,0,0,1-1.428-1.653,4.907,4.907,0,0,1-4.061,1.793,3.508,3.508,0,0,1-3.7-3.837,4.193,4.193,0,0,1,2.633-4.033,17.49,17.49,0,0,1,4.649-.868v-.308a3.026,3.026,0,0,0-.308-1.793,1.659,1.659,0,0,0-1.372-.644,1.865,1.865,0,0,0-1.989,1.484c-.056.224-.2.448-.42.448l-2.381-.252a.431.431,0,0,1-.364-.5c.56-2.913,3.165-3.781,5.518-3.781a5.543,5.543,0,0,1,3.725,1.232c1.2,1.12,1.092,2.633,1.092,4.257v3.837a3.47,3.47,0,0,0,.924,2.3c.168.224.2.5,0,.644-.532.42-1.428,1.2-1.933,1.625Z" transform="translate(-163.5 -263.1)" fill="#8a8aa0" fill-rule="evenodd"/></svg>