<?xml version="1.0" encoding="UTF-8"?>
<svg width="24px" height="24px" viewBox="0 0 24 24" version="1.1" xmlns="http://www.w3.org/2000/svg" xmlns:xlink="http://www.w3.org/1999/xlink">
    <title>discord</title>
    <g id="Concept2" stroke="none" stroke-width="1" fill="none" fill-rule="evenodd">
        <g id="TypeB_1" transform="translate(-250.000000, -1205.000000)">
            <g id="Group" transform="translate(171.000000, 1177.000000)">
                <g id="discord" transform="translate(79.000000, 28.000000)">
                    <rect id="Rectangle" x="0" y="0" width="24" height="24"></rect>
                    <g id="ic_sns_discord" transform="translate(2.000000, 2.000000)" fill="#FFFFFF">
                        <path d="M16.2546847,4.14534353 C15.0710588,3.60202221 13.8210397,3.21693075 12.5368632,3 C12.3611838,3.31197098 12.2033691,3.63367024 12.0641818,3.96354297 C10.6988703,3.76357999 9.31171052,3.76357999 7.94639907,3.96354297 C7.81913867,3.66357205 7.62824809,3.28179087 7.47371761,3 C6.18270922,3.21274016 4.92613529,3.5979672 3.73771609,4.14534353 C1.64392866,7.11339598 0.700577145,10.7414225 1.0834279,14.353445 L1.0834279,14.353445 C2.45908141,15.3645888 3.99572217,16.1359824 5.62844192,16.635042 C5.9991077,16.1410459 6.32462798,15.6147374 6.60107492,15.0624672 C6.07020758,14.865146 5.55894295,14.6186434 5.07395021,14.3261749 L5.44664136,14.035294 C8.32402098,15.3953962 11.6592898,15.3953962 14.5366694,14.035294 C14.6639298,14.1352843 14.7821001,14.2352746 14.9184506,14.3261749 C14.4262128,14.6169646 13.9090711,14.8633674 13.3731458,15.0624672 C13.6585412,15.6156251 13.9931951,16.1419444 14.3730489,16.635042 C16.0057686,16.1359824 17.5424094,15.3645888 18.9180629,14.353445 L18.9180629,14.353445 C19.2974439,10.7403606 18.3509107,7.11252162 16.2546847,4.14534353 L16.2546847,4.14534353 Z M7.01921621,12.3263688 C6.56328902,12.300608 6.13637657,12.0943923 5.83278025,11.7532728 C5.52918393,11.4121534 5.37388627,10.9642005 5.40119122,10.5083632 C5.37139808,10.0519258 5.52582763,9.60259564 5.82992545,9.26091269 C6.13402327,8.91922975 6.56240434,8.71371648 7.01921621,8.69035755 C7.4769211,8.71126708 7.90680259,8.91606403 8.21141469,9.25832482 C8.51602679,9.6005856 8.6695708,10.0513229 8.6372412,10.5083632 C8.67346374,11.4439165 7.95392403,12.2362186 7.01921621,12.2900086 L7.01921621,12.3263688 Z M12.9913646,12.3263688 C12.0441339,12.2678419 11.3215839,11.4559879 11.3733396,10.5083632 C11.3460347,10.0525258 11.5013323,9.60457293 11.8049287,9.26345347 C12.108525,8.922334 12.5354374,8.71611825 12.9913646,8.69035755 C13.4490695,8.71126708 13.878951,8.91606403 14.1835631,9.25832482 C14.4881752,9.6005856 14.6417192,10.0513229 14.6093896,10.5083632 C14.6505963,11.4457245 13.9283508,12.2410061 12.9913646,12.2900086 L12.9913646,12.3263688 Z" id="path"></path>
                    </g>
                </g>
            </g>
        </g>
    </g>
</svg>