<?xml version="1.0" encoding="UTF-8"?>
<svg width="25px" height="24px" viewBox="0 0 25 24" version="1.1" xmlns="http://www.w3.org/2000/svg" xmlns:xlink="http://www.w3.org/1999/xlink">
    <title>github</title>
    <g id="Concept2" stroke="none" stroke-width="1" fill="none" fill-rule="evenodd">
        <g id="TypeB_1" transform="translate(-200.000000, -1232.000000)">
            <g id="Group" transform="translate(171.000000, 1177.000000)">
                <g id="github" transform="translate(29.332353, 55.000000)">
                    <rect id="Rectangle" x="0" y="0" width="24" height="24"></rect>
                    <path d="M11.99998,2 C6.47720002,2 2,6.47700002 2,12.00004 C2,16.8160401 5.55141001,20.9400401 10.00128,21.7860401 L10.00001,18.6250401 C9.54391003,18.8430401 9.03900003,19.0000401 8.5,19.0000401 C8.03010003,19.0000401 7.59690002,18.9180401 7.18750002,18.7500401 C6.91410002,18.6380401 6.47500002,18.1730401 6.31250002,17.8440401 C5.96340002,17.1370401 5.98110002,16.3750401 5.37500001,16.3750401 C5.08960001,16.3750401 4.65390001,16.2570401 4.65620001,15.9690401 C4.65810001,15.7320401 5.01870001,15.6460401 5.31250001,15.6250401 C6.25420002,15.5570401 7.00350002,16.4600401 7.06250002,16.5940401 C7.11250002,16.7070401 7.22740002,16.9050401 7.31250002,17.0000401 C7.58580002,17.3070401 8.00660003,17.5000401 8.5,17.5000401 C9.08871003,17.5000401 9.59820003,17.2240401 9.84380003,16.8120401 C9.94370003,16.6450401 10.10508,16.2130401 10.24998,16.0000401 C7.76560002,15.8120401 6,14.4920401 6,11.50004 C6,10.62204 6.29550002,9.75399003 6.78120002,9.09399003 C6.66440002,8.41699003 6.56430002,7.28200002 7,6 C8.17991003,6 9.22021003,6.62600002 9.90621003,7.12500002 C10.25138,7.05700002 10.63228,7 10.99998,7 L12.99998,7 C13.33998,7 13.74158,7.05400002 14.0624801,7.12500002 C14.7825801,6.59200002 15.7773801,6 16.9999801,6 C17.4987801,7.46700002 17.2521801,8.82399003 17.1561801,9.34399003 C17.6217801,10.05604 18.0209801,11.04204 17.9914801,11.88804 C17.9008801,14.4790401 16.2195801,15.8790401 13.79218,16.0020401 C13.95428,16.3380401 13.99998,16.6150401 13.99998,17.0000401 L14.0028801,21.7739401 C18.5178801,20.8539401 21.9999801,16.8150401 21.9999801,12.00004 C21.9999801,6.47700002 17.5227801,2 11.99998,2 Z" id="2/G/github" fill="#FFFFFF"></path>
                </g>
            </g>
        </g>
    </g>
</svg>