<?xml version="1.0" encoding="UTF-8"?>
<svg width="20px" height="12px" viewBox="0 0 20 12" version="1.1" xmlns="http://www.w3.org/2000/svg" xmlns:xlink="http://www.w3.org/1999/xlink">
    <title>ic_sns_medium</title>
    <g id="Concept2" stroke="none" stroke-width="1" fill="none" fill-rule="evenodd">
        <g id="TypeB_1" transform="translate(-173.000000, -1183.000000)" fill="#FFFFFF">
            <g id="Group" transform="translate(171.000000, 1177.000000)">
                <g id="ic_sns_medium" transform="translate(2.000000, 6.000000)">
                    <path d="M10.6666667,5.78947368 C10.6666667,8.98178266 8.27416667,11.5789474 5.33333333,11.5789474 C2.3925,11.5789474 0,8.98178437 0,5.78947368 C0,2.597163 2.3925,0 5.33333333,0 C8.27416667,0 10.6666667,2.59716641 10.6666667,5.78947368 Z M14.6666667,0.340557276 C14.193115,0.340557276 13.3000492,0.575604799 12.6396892,2.14985294 C12.2271725,3.13319505 12,4.42583297 12,5.78947368 C12,7.1531144 12.2271725,8.44575402 12.6396892,9.42909443 C13.3000492,11.0033443 14.193115,11.2383901 14.6666667,11.2383901 C15.1402183,11.2383901 16.0332842,11.0033426 16.6936442,9.42909443 C17.1061608,8.44575573 17.3333333,7.1531178 17.3333333,5.78947368 C17.3333333,4.42582957 17.1061608,3.13319334 16.6936442,2.14985294 C16.0332842,0.575606502 15.1402183,0.340557276 14.6666667,0.340557276 Z M19.3333333,0.340557276 C18.9651509,0.340557276 18.6666846,0.645510243 18.6666667,1.02167183 L18.6666667,10.5572755 C18.6666667,10.9334447 18.9651435,11.2383901 19.3333333,11.2383901 C19.7015232,11.2383901 20,10.9334447 20,10.5572755 L20,1.02167183 C19.9999821,0.645510243 19.7015157,0.340557276 19.3333333,0.340557276 Z" id="Shape"></path>
                </g>
            </g>
        </g>
    </g>
</svg>