<?xml version="1.0" encoding="UTF-8"?>
<svg width="24px" height="24px" viewBox="0 0 24 24" version="1.1" xmlns="http://www.w3.org/2000/svg" xmlns:xlink="http://www.w3.org/1999/xlink">
    <title>icon_Liquidity</title>
    <g id="Concept2" stroke="none" stroke-width="1" fill="none" fill-rule="evenodd">
        <g id="TypeB_2_1-Copy" transform="translate(-660.000000, -163.000000)">
            <g id="sub" transform="translate(630.000000, 80.000000)">
                <g id="3" transform="translate(30.000000, 80.000000)">
                    <g id="icon_Liquidity" transform="translate(0.000000, 3.000000)">
                        <rect id="Rectangle" x="0" y="0" width="24" height="24"></rect>
                        <g transform="translate(2.000000, 2.000000)">
                            <path d="M19.7519544,12.2223358 C19.6296829,12.7609155 19.0939571,13.0984 18.5553774,12.9761285 C18.0167977,12.853857 17.6793132,12.3181312 17.8015847,11.7795514 C17.9330131,11.2006375 18,10.6050368 18,10 C18,5.58172202 14.4182781,2 10,2 C5.58172202,2 2,5.58172202 2,10 C2,14.4182781 5.58172202,18 10,18 C10.6062182,18 11.2029622,17.9327512 11.7829371,17.8008152 C12.3214634,17.6783083 12.8573367,18.0155586 12.9798436,18.5540848 C13.1023506,19.092611 12.7651003,19.6284843 12.2265741,19.7509912 C11.5012907,19.9159827 10.7557491,20 10,20 C4.47715252,20 0,15.5228476 0,10 C0,4.47715252 4.47715252,0 10,0 C15.5228476,0 20,4.47715252 20,10 C20,10.7542739 19.9163104,11.4983827 19.7519544,12.2223358 Z M15,10 C15,10.5522847 14.5522848,11 14,11 C13.4477154,11 13,10.5522847 13,10 C13,8.34314578 11.6568542,7.00000002 10,7.00000002 C8.34314578,7.00000002 7.00000002,8.34314578 7.00000002,10 C7.00000002,11.6568542 8.34314578,13 10,13 C10.5522847,13 11,13.4477154 11,14 C11,14.5522848 10.5522847,15 10,15 C7.23857628,15 5.00000002,12.7614238 5.00000002,10 C5.00000002,7.23857628 7.23857628,5.00000002 10,5.00000002 C12.7614238,5.00000002 15,7.23857628 15,10 Z" id="Combined-Shape" fill="#FFFFFF"></path>
                            <path d="M13.5059645,12.1145624 L19.1627277,14.0001501 C19.324734,14.0541522 19.4719423,14.1451319 19.5926946,14.2658842 C20.0222713,14.695461 20.0222713,15.3919424 19.5926946,15.8215192 L18.4142137,17.0000001 L19.7071069,18.2928933 C20.0976312,18.6834176 20.0976312,19.3165826 19.7071069,19.7071069 C19.3165826,20.0976312 18.6834176,20.0976312 18.2928933,19.7071069 L17.0000001,18.4142137 L15.8215192,19.5926946 C15.7007668,19.7134469 15.5535585,19.8044267 15.3915522,19.8584288 C14.8152146,20.0505413 14.1922626,19.7390653 14.0001501,19.1627277 L12.1145624,13.5059645 C12.0392979,13.280171 12.0392979,13.0360569 12.1145624,12.8102634 C12.3066749,12.2339258 12.9296269,11.9224497 13.5059645,12.1145624 Z M14.5811389,14.5811389 L15.4370161,17.1487705 L17.1487705,15.4370161 L14.5811389,14.5811389 Z" id="Shape-path-3" fill="#30E0A1"></path>
                        </g>
                    </g>
                </g>
            </g>
        </g>
    </g>
</svg>