<?xml version="1.0" encoding="UTF-8"?>
<svg width="24px" height="24px" viewBox="0 0 24 24" version="1.1" xmlns="http://www.w3.org/2000/svg" xmlns:xlink="http://www.w3.org/1999/xlink">
    <title>icon_farm</title>
    <g id="Concept2" stroke="none" stroke-width="1" fill="none" fill-rule="evenodd">
        <g id="TypeB_2_1-Copy" transform="translate(-660.000000, -213.000000)">
            <g id="sub" transform="translate(630.000000, 80.000000)">
                <g id="2" transform="translate(30.000000, 130.000000)">
                    <g id="icon_farm" transform="translate(0.000000, 3.000000)">
                        <rect id="Rectangle" x="0" y="0" width="24" height="24"></rect>
                        <g transform="translate(2.000000, 2.000000)" fill-rule="nonzero">
                            <path d="M9.89130435,0.10989011 C4.67391304,0.10989011 0.108695652,4.3956044 0.108695652,10 C0.108695652,12.3076923 0.869565217,14.5054945 2.2826087,16.1538462 L0.326086957,18.1318681 C0.326086957,18.1318681 0.217391304,18.2417582 0.217391304,18.2417582 L0.217391304,18.2417582 L0.217391304,18.2417582 C0.108695652,18.4615385 0,18.6813187 0,18.9010989 C0,19.5604396 0.543478261,20 1.08695652,20 C1.30434783,20 1.52173913,19.8901099 1.73913043,19.7802198 L1.73913043,19.7802198 L1.84782609,19.6703297 C1.84782609,19.6703297 1.84782609,19.6703297 1.95652174,19.5604396 L4.02173913,17.4725275 C5.76086957,18.9010989 7.93478261,19.6703297 10.1086957,19.6703297 C12.6086957,19.6703297 15.1086957,18.6813187 17.0652174,16.8131868 C17.9347826,15.9340659 18.6956522,14.8351648 19.2391304,13.6263736 C19.7826087,12.4175824 20,11.0989011 20,9.89010989 L20,0 L9.89130435,0 L9.89130435,0.10989011 Z M17.5,10 C17.5,12.0879121 16.7391304,13.956044 15.2173913,15.4945055 C14.5652174,16.2637363 13.6956522,16.8131868 12.7173913,17.1428571 C11.8478261,17.5824176 10.7608696,17.6923077 9.7826087,17.6923077 C5.54347826,17.6923077 2.17391304,14.2857143 2.17391304,10 C2.17391304,7.91208791 2.93478261,5.93406593 4.45652174,4.50549451 C5.86956522,3.07692308 7.82608696,2.30769231 9.7826087,2.30769231 L17.3913043,2.30769231 L17.3913043,10 L17.5,10 Z" id="Shape" fill="#FFFFFF"></path>
                            <path d="M5.97826087,10.6593407 L10.4347826,11.0989011 L7.82608696,14.7252747 C7.7173913,14.9450549 7.7173913,15.1648352 7.82608696,15.2747253 C7.93478261,15.4945055 8.26086957,15.4945055 8.47826087,15.2747253 L14.1304348,10.2197802 C14.4565217,9.89010989 14.2391304,9.34065934 13.8043478,9.23076923 L9.34782609,8.79120879 L11.9565217,5.16483516 C12.0652174,4.94505495 12.0652174,4.72527473 11.9565217,4.61538462 C11.8478261,4.50549451 11.7391304,4.50549451 11.6304348,4.50549451 C11.5217391,4.50549451 11.4130435,4.50549451 11.3043478,4.61538462 L5.65217391,9.67032967 C5.32608696,10 5.54347826,10.6593407 5.97826087,10.6593407 Z" id="Path" fill="#30E0A1"></path>
                        </g>
                    </g>
                </g>
            </g>
        </g>
    </g>
</svg>