<?xml version="1.0" encoding="UTF-8"?>
<svg width="24px" height="25px" viewBox="0 0 24 25" version="1.1" xmlns="http://www.w3.org/2000/svg" xmlns:xlink="http://www.w3.org/1999/xlink">
    <title>icon_docs</title>
    <g id="Concept2" stroke="none" stroke-width="1" fill="none" fill-rule="evenodd">
        <g id="TypeB_1" transform="translate(-373.000000, -122.000000)">
            <g id="icon_docs" transform="translate(372.999836, 122.110429)">
                <rect id="Rectangle" x="0" y="0" width="24" height="24"></rect>
                <path d="M22.0003287,13.9783361 C22.0003287,13.9922814 22.0003287,14.0062116 22.0003287,14.0201175 L22.0003287,18 C22.0003287,20.2091391 20.2093034,22 18.0001644,22 L6.00016431,22 C3.7910253,22 2,20.2091391 2,18 L2,14.0201175 C2,14.0062116 2,13.9922814 2,13.9783361 L2,6 C2,3.79086101 3.7910253,2 6.00016431,2 L18.0001644,2 C20.2093034,2 22.0003287,3.79086101 22.0003287,6 L22.0003287,13.9783359 L22.0003287,13.9783361 Z M20.0001643,15.5437092 L20.0001643,18.0000001 C20.0001643,19.1045696 19.1047339,20.0000001 18.0001643,20.0000001 L18.0001643,20.0000001 L6.0001643,20.0000001 C4.8955948,20.0000001 4.0001643,19.1045696 4.0001643,18.0000001 L4.0001643,18.0000001 L4.0001643,15.5437092 C6.43302787,16.5152411 9.10201851,17.0000001 12.0001643,17.0000001 C14.8983101,17.0000001 17.5673008,16.5152411 20.0001643,15.5437092 L20.0001643,15.5437092 Z M18.0001643,4.00000001 C19.1047339,4.00000001 20.0001643,4.89543051 20.0001643,6.00000001 L20.0001643,6.00000001 L20.0001643,13.3695456 C17.6157071,14.4555841 14.9522643,15 12.0001643,15 C9.0480643,15 6.38462158,14.4555841 4.0001643,13.3695456 L4.0001643,13.3695456 L4.0001643,6.00000001 C4.0001643,4.89543051 4.8955948,4.00000001 6.0001643,4.00000001 L6.0001643,4.00000001 Z" id="Combined-Shape" fill="#FFFFFF"></path>
                <path d="M7.00016431,8.00000002 C6.44787956,8.00000002 6.00016431,7.55228477 6.00016431,7.00000002 C6.00016431,6.44771527 6.44787956,6.00000002 7.00016431,6.00000002 L17.0001643,6.00000002 C17.5524491,6.00000002 18.0001643,6.44771527 18.0001643,7.00000002 C18.0001643,7.55228477 17.5524491,8.00000002 17.0001643,8.00000002 L7.00016431,8.00000002 Z" id="Shape-path" fill="#18F3B2"></path>
                <path d="M7.00016431,12 C6.44787956,12 6.00016431,11.5522848 6.00016431,11 C6.00016431,10.4477153 6.44787956,10 7.00016431,10 L17.0001643,10 C17.5524491,10 18.0001643,10.4477153 18.0001643,11 C18.0001643,11.5522848 17.5524491,12 17.0001643,12 L7.00016431,12 Z" id="Shape-path" fill="#18F3B2"></path>
            </g>
        </g>
    </g>
</svg>