<?xml version="1.0" encoding="UTF-8"?>
<svg width="24px" height="24px" viewBox="0 0 24 24" version="1.1" xmlns="http://www.w3.org/2000/svg" xmlns:xlink="http://www.w3.org/1999/xlink">
    <title>icon_swap</title>
    <g id="Concept2" stroke="none" stroke-width="1" fill="none" fill-rule="evenodd">
        <g id="TypeB_2_1-Copy" transform="translate(-896.000000, -110.000000)">
            <g id="icon_swap" transform="translate(896.000000, 110.000000)">
                <rect id="Rectangle" x="0" y="0" width="24" height="24"></rect>
                <g transform="translate(3.000000, 2.000000)" fill-rule="nonzero" id="Shape">
                    <path d="M10.8,17.1 L0.9,17.1 C0.36,17.1 0,16.74 0,16.2 C0,15.66 0.36,15.3 0.9,15.3 L10.8,15.3 C12.24,15.3 13.59,14.76 14.58,13.68 C15.57,12.69 16.2,11.34 16.2,9.9 C16.2,9.36 16.56,9 17.1,9 C17.64,9 18,9.36 18,9.9 C18,11.79 17.28,13.59 15.93,15.03 C14.49,16.38 12.69,17.1 10.8,17.1 Z M0.9,10.8 C0.36,10.8 0,10.44 0,9.9 C0,8.01 0.72,6.21 2.07,4.77 C3.51,3.42 5.31,2.7 7.2,2.7 L17.1,2.7 C17.64,2.7 18,3.06 18,3.6 C18,4.14 17.64,4.5 17.1,4.5 L7.2,4.5 C5.76,4.5 4.41,5.04 3.42,6.12 C2.34,7.11 1.8,8.46 1.8,9.9 C1.8,10.44 1.44,10.8 0.9,10.8 Z" fill="#FFFFFF"></path>
                    <path d="M3.6,19.8 C3.33,19.8 3.15,19.71 2.97,19.53 L0.27,16.83 C-0.09,16.47 -0.09,15.93 0.27,15.57 L2.97,12.87 C3.33,12.51 3.87,12.51 4.23,12.87 C4.59,13.23 4.59,13.77 4.23,14.13 L2.16,16.2 L4.23,18.27 C4.59,18.63 4.59,19.17 4.23,19.53 C4.05,19.71 3.87,19.8 3.6,19.8 Z M13.77,6.93 C13.41,6.57 13.41,6.03 13.77,5.67 L15.84,3.6 L13.77,1.53 C13.41,1.17 13.41,0.63 13.77,0.27 C14.13,-0.09 14.67,-0.09 15.03,0.27 L17.73,2.97 C18.09,3.33 18.09,3.87 17.73,4.23 L15.03,6.93 C14.85,7.11 14.67,7.2 14.4,7.2 C14.13,7.2 13.95,7.11 13.77,6.93 Z" fill="#30E0A1"></path>
                </g>
            </g>
        </g>
    </g>
</svg>