<?xml version="1.0" encoding="UTF-8"?>
<svg width="24px" height="24px" viewBox="0 0 24 24" version="1.1" xmlns="http://www.w3.org/2000/svg" xmlns:xlink="http://www.w3.org/1999/xlink">
    <title>ic_launch</title>
    <g id="Concept2" stroke="none" stroke-width="1" fill="none" fill-rule="evenodd">
        <g id="TypeB_2_1-Copy" transform="translate(-660.000000, -263.000000)">
            <g id="sub" transform="translate(630.000000, 80.000000)">
                <g id="4" transform="translate(30.000000, 180.000000)">
                    <g id="ic_launch" transform="translate(0.000000, 3.000000)">
                        <rect id="Rectangle" x="0" y="0" width="24" height="24"></rect>
                        <g transform="translate(2.000000, 2.000000)" fill-rule="nonzero">
                            <path d="M12.3735942,10.9375 C10.56076,10.9375 9.09173919,9.46875 9.09173919,7.65625 C9.09173919,5.84375 10.56076,4.375 12.3735942,4.375 C14.1864283,4.375 15.6554491,5.84375 15.6554491,7.65625 C15.6554491,9.46875 14.1864283,10.9375 12.3735942,10.9375 Z M12.3735942,6.25 C11.5922001,6.25 10.9670849,6.875 10.9670849,7.65625 C10.9670849,8.4375 11.5922001,9.0625 12.3735942,9.0625 C13.1549882,9.0625 13.7801034,8.4375 13.7801034,7.65625 C13.7801034,6.875 13.1549882,6.25 12.3735942,6.25 Z" id="Shape" fill="#30E0A1"></path>
                            <path d="M12.9987094,20 C12.9361979,20 12.8736863,20 12.7799191,19.96875 C12.2798269,19.84375 11.9672693,19.34375 12.0610365,18.84375 L13.3425228,13.1875 L18.1246543,6.875 L18.1246543,2.5 C18.1246543,2.15625 17.8433524,1.875 17.4995391,1.875 L13.1237324,1.875 L6.9663474,6.34375 L1.15277573,7.78125 C0.652683547,7.90625 0.152591361,7.59375 0.0275683142,7.09375 C-0.0974547323,6.59375 0.215102884,6.09375 0.71519507,5.96875 L6.15369759,4.59375 L12.4986172,0 L17.4995391,0 C18.8747926,0 20,1.125 20,2.5 L20,7.5 L15.0928454,14 L13.8738707,19.28125 C13.8113592,19.6875 13.4362901,20 12.9987094,20 Z" id="Path" fill="#FFFFFF"></path>
                            <path d="M8.15406634,19.125 C7.74774144,19.125 7.34141654,18.96875 7.06011468,18.65625 L1.37156606,12.96875 C0.777706593,12.375 0.777706593,11.375 1.37156606,10.75 L3.43444633,8.6875 C3.80951547,8.3125 4.40337494,8.3125 4.74718832,8.6875 C5.12225746,9.0625 5.12225746,9.65625 4.74718832,10 L2.90309838,11.84375 L8.15406634,17.09375 L9.99815628,15.25 C10.3732254,14.875 10.9670849,14.875 11.3108983,15.25 C11.6859674,15.625 11.6859674,16.21875 11.3108983,16.5625 L9.248018,18.625 C8.96671614,18.9375 8.56039124,19.125 8.15406634,19.125 Z" id="Path" fill="#FFFFFF"></path>
                            <path d="M0.965241163,20 C0.71519507,20 0.496404739,19.90625 0.308870169,19.71875 C-0.0661989707,19.34375 -0.0661989707,18.75 0.308870169,18.40625 L1.71537944,17 C2.09044858,16.625 2.68430805,16.625 3.02812143,17 C3.40319057,17.375 3.40319057,17.96875 3.02812143,18.3125 L1.62161216,19.71875 C1.43407759,19.90625 1.21528726,20 0.965241163,20 Z" id="Path" fill="#30E0A1"></path>
                            <path d="M5.40355932,19.28125 C5.15351322,19.28125 4.93472289,19.1875 4.74718832,19 C4.37211918,18.625 4.37211918,18.03125 4.74718832,17.6875 L5.43481508,17 C5.80988422,16.625 6.40374369,16.625 6.74755707,17 C7.12262621,17.375 7.12262621,17.96875 6.74755707,18.3125 L6.05993031,19 C5.9036515,19.1875 5.65360541,19.28125 5.40355932,19.28125 Z" id="Path" fill="#30E0A1"></path>
                            <path d="M0.965241163,16.25 C0.71519507,16.25 0.496404739,16.15625 0.308870169,15.96875 C-0.0661989707,15.59375 -0.0661989707,15 0.308870169,14.65625 L1.71537944,13.25 C2.09044858,12.875 2.68430805,12.875 3.02812143,13.25 C3.40319057,13.625 3.40319057,14.21875 3.02812143,14.5625 L1.62161216,15.96875 C1.43407759,16.15625 1.21528726,16.25 0.965241163,16.25 Z" id="Path" fill="#30E0A1"></path>
                        </g>
                    </g>
                </g>
            </g>
        </g>
    </g>
</svg>