<?xml version="1.0" encoding="UTF-8"?>
<svg width="24px" height="25px" viewBox="0 0 24 25" version="1.1" xmlns="http://www.w3.org/2000/svg" xmlns:xlink="http://www.w3.org/1999/xlink">
    <title>icon_dashboard</title>
    <g id="Concept2" stroke="none" stroke-width="1" fill="none" fill-rule="evenodd">
        <g id="TypeB_1" transform="translate(-504.000000, -122.000000)">
            <g id="icon_dashboard" transform="translate(504.000000, 122.110429)">
                <rect id="Rectangle" x="0" y="0" width="24" height="24"></rect>
                <g id="Group-3" transform="translate(2.000000, 2.000000)">
                    <path d="M10.5633447,0.00133810761 C13.2363815,0.114320138 15.4680491,1.04340634 17.2071069,2.78246411 C18.9461428,4.52150006 19.8752278,6.75313396 19.9882151,9.42580691 C20.0234792,10.2536877 19.3807578,10.9532357 18.5529269,10.9882322 L18.5212541,10.9892362 L18.5212541,10.9892362 L10.5,10.9895709 C9.67157292,10.9895709 9,10.317998 9,9.48957092 L9,3.98957089 C5.13400677,3.98957089 2,7.12357766 2,10.9895709 C2,14.8555641 5.13400677,17.989571 9,17.989571 C12.2123024,17.989571 14.9899602,15.8070679 15.7794013,12.740805 C15.9171022,12.2059621 16.4623066,11.8840148 16.9971495,12.0217157 C17.5319924,12.1594165 17.8539396,12.7046209 17.7162388,13.2394638 C16.7006188,17.1842266 13.1302748,19.989571 9,19.989571 C4.02943727,19.989571 0,15.9601336 0,10.9895709 C0,6.01900815 4.02943727,1.98957088 9,1.98957088 L9,1.50003662 C9,0.671591164 9.67156008,0 10.5,0 C10.5316818,0.000223067701 10.5316818,0.000223067701 10.5633447,0.00133810761 Z M11,2.03442445 L11,8.98957091 L17.9551465,8.98957091 C17.7754702,7.04445563 17.0563071,5.4600915 15.7928933,4.19667767 C14.5294797,2.93326402 12.9451155,2.21410076 11,2.03442445 Z" id="Combined-Shape" fill="#FFFFFF"></path>
                    <path d="M10.5633447,0.00133810761 C13.2363815,0.114320138 15.4680491,1.04340634 17.2071069,2.78246411 C18.9461428,4.52150006 19.8752278,6.75313396 19.9882151,9.42580691 C20.0234792,10.2536877 19.3807578,10.9532357 18.5529269,10.9882322 L18.5212541,10.9892362 L18.5212541,10.9892362 L10.5,10.9895709 C9.67157292,10.9895709 9.00000004,10.317998 9.00000004,9.48957092 L9.00000004,1.50003662 C9.00000004,0.671591164 9.67156008,0 10.5,0 C10.5316818,0.000223067701 10.5316818,0.000223067701 10.5633447,0.00133810761 Z M11,2.03442445 L11,8.98957091 L17.9551465,8.98957091 C17.7754702,7.04445563 17.0563071,5.4600915 15.7928933,4.19667767 C14.5294797,2.93326402 12.9451155,2.21410076 11,2.03442445 Z" id="Combined-Shape" fill="#18F3B2"></path>
                </g>
            </g>
        </g>
    </g>
</svg>