<?xml version="1.0" encoding="UTF-8"?>
<svg width="24px" height="24px" viewBox="0 0 24 24" version="1.1" xmlns="http://www.w3.org/2000/svg" xmlns:xlink="http://www.w3.org/1999/xlink">
    <title>icon_scope</title>
    <g id="Concept2" stroke="none" stroke-width="1" fill="none" fill-rule="evenodd">
        <g id="TypeB_1" transform="translate(-477.000000, -154.000000)">
            <g id="icon_scope" transform="translate(477.000000, 154.000000)">
                <rect id="Rectangle" x="0" y="0" width="24" height="24"></rect>
                <g id="Group-2" transform="translate(2.000000, 2.000000)">
                    <path d="M4,0 L16,0 C18.2091391,0 20,1.79086101 20,4 L20,16 C20,18.2091391 18.2091391,20 16,20 L4,20 C1.79086101,20 0,18.2091391 0,16 L0,4 C0,1.79086101 1.79086101,0 4,0 Z M4.00000001,2.00000001 C2.89543051,2.00000001 2.00000001,2.89543051 2.00000001,4.00000001 L2.00000001,16 C2.00000001,17.1045696 2.89543051,18 4.00000001,18 L16,18 C17.1045696,18 18,17.1045696 18,16 L18,4.00000001 C18,2.89543051 17.1045696,2.00000001 16,2.00000001 L4.00000001,2.00000001 Z" id="Combined-Shape" fill="#FFFFFF"></path>
                    <path d="M7.00000002,14 C7.00000002,14.5522848 6.55228478,15 6.00000002,15 C5.44771527,15 5.00000002,14.5522848 5.00000002,14 L5.00000002,12 C5.00000002,11.4477153 5.44771527,11 6.00000002,11 C6.55228478,11 7.00000002,11.4477153 7.00000002,12 L7.00000002,14 Z" id="Shape-path" fill="#18F3B2"></path>
                    <path d="M11,14 C11,14.5522848 10.5522847,15 10,15 C9.44771529,15 9.00000004,14.5522848 9.00000004,14 L9.00000004,9.00000003 C9.00000004,8.44771529 9.44771529,8.00000003 10,8.00000003 C10.5522847,8.00000003 11,8.44771529 11,9.00000003 L11,14 Z" id="Shape-path" fill="#18F3B2"></path>
                    <path d="M15.0000001,14 C15.0000001,14.5522848 14.5522848,15 14.0000001,15 C13.4477154,15 13.0000001,14.5522848 13.0000001,14 L13.0000001,6.00000002 C13.0000001,5.44771527 13.4477154,5.00000002 14.0000001,5.00000002 C14.5522848,5.00000002 15.0000001,5.44771527 15.0000001,6.00000002 L15.0000001,14 Z" id="Shape-path" fill="#18F3B2"></path>
                </g>
            </g>
        </g>
    </g>
</svg>