<?xml version="1.0" encoding="UTF-8"?>
<svg width="24px" height="24px" viewBox="0 0 24 24" version="1.1" xmlns="http://www.w3.org/2000/svg" xmlns:xlink="http://www.w3.org/1999/xlink">
    <title>medium</title>
    <g id="Concept2" stroke="none" stroke-width="1" fill="none" fill-rule="evenodd">
        <g id="TypeB_1" transform="translate(-171.000000, -1177.000000)">
            <g id="medium" transform="translate(171.000000, 1177.000000)">
                <rect id="Rectangle" x="0" y="0" width="24" height="24"></rect>
                <g id="ic_sns_medium" transform="translate(3.000000, 7.000000)" fill="#FFFFFF">
                    <path d="M9.6,5.21052632 C9.6,8.0836044 7.44675,10.4210526 4.8,10.4210526 C2.15325,10.4210526 0,8.08360593 0,5.21052632 C0,2.3374467 2.15325,0 4.8,0 C7.44675,0 9.6,2.33744977 9.6,5.21052632 Z M13.2,0.306501548 C12.7738035,0.306501548 11.9700443,0.518044319 11.3757203,1.93486765 C11.0044553,2.81987554 10.8,3.98324967 10.8,5.21052632 C10.8,6.43780296 11.0044553,7.60117862 11.3757203,8.48618498 C11.9700443,9.90300985 12.7738035,10.1145511 13.2,10.1145511 C13.6261965,10.1145511 14.4299558,9.90300831 15.0242798,8.48618498 C15.3955448,7.60118015 15.6,6.43780602 15.6,5.21052632 C15.6,3.98324661 15.3955448,2.81987401 15.0242798,1.93486765 C14.4299558,0.518045851 13.6261965,0.306501548 13.2,0.306501548 Z M17.4,0.306501548 C17.0686358,0.306501548 16.8000162,0.580959218 16.8,0.919504644 L16.8,9.50154799 C16.8,9.84010025 17.0686292,10.1145511 17.4,10.1145511 C17.7313708,10.1145511 18,9.84010025 18,9.50154799 L18,0.919504644 C17.9999838,0.580959218 17.7313642,0.306501548 17.4,0.306501548 Z" id="Shape"></path>
                </g>
            </g>
        </g>
    </g>
</svg>