<?xml version="1.0" encoding="UTF-8"?>
<svg width="24px" height="24px" viewBox="0 0 24 24" version="1.1" xmlns="http://www.w3.org/2000/svg" xmlns:xlink="http://www.w3.org/1999/xlink">
    <title>telegram</title>
    <g id="Concept2" stroke="none" stroke-width="1" fill="none" fill-rule="evenodd">
        <g id="TypeB_1" transform="translate(-291.000000, -1205.000000)">
            <g id="Group" transform="translate(171.000000, 1177.000000)">
                <g id="telegram" transform="translate(120.000000, 28.000000)">
                    <rect id="Rectangle" x="0" y="0" width="24" height="24"></rect>
                    <g id="ic_sns_telegram" transform="translate(2.000000, 2.000000)" fill="#FFFFFF" fill-rule="nonzero">
                        <path d="M18.70525,2.7245 C19.054,3.035 19.03375,3.436625 18.94375,3.8495 C18.33625,6.627125 17.7355,9.40475 17.131375,12.182375 C16.841125,13.51325 16.552,14.844125 16.258375,16.17275 C16.213375,16.37525 16.16275,16.583375 16.07725,16.772375 C15.87475,17.215625 15.529375,17.3675 15.063625,17.202125 C14.8360792,17.1165042 14.6214313,16.9999053 14.42575,16.855625 C13.148875,15.946625 11.87875,15.028625 10.45,13.99925 C9.827875,14.657375 9.2305,15.300875 8.61625,15.928625 C8.461,16.086125 8.2675,16.24025 8.06275,16.3145 C7.687,16.4495 7.327,16.39775 7.179625,15.91175 C6.7181038,14.4235024 6.22373299,12.9456413 5.696875,11.47925 C5.60536212,11.2716629 5.43430992,11.1095281 5.222125,11.02925 C4.10275,10.661375 2.969875,10.334 1.8415,9.990875 C1.69525,9.945875 1.532125,9.918875 1.412875,9.835625 C1.2475,9.71975 1.00225,9.558875 0.999979119,9.41375 C0.99775,9.237125 1.17775,9.01775 1.338625,8.88725 C1.522,8.739875 1.765,8.654375 1.99225,8.56775 L17.58475,2.712125 C17.965,2.56925 18.346375,2.403875 18.70525,2.723375 L18.70525,2.7245 Z M15.758875,5.177 C15.54175,5.250125 15.301,5.285 15.110875,5.39975 C12.237625,7.1525 9.373375,8.921 6.497875,10.6715 C6.261625,10.8155 6.24025,10.949375 6.320125,11.181125 C6.751,12.441125 7.1695,13.705625 7.595875,14.96675 C7.618375,15.035375 7.67575,15.093875 7.746625,15.203 C7.831,14.306375 7.890625,13.4705 8.000875,12.641375 C8.03125,12.416375 8.16625,12.157625 8.338375,12.004625 C10.709875,9.898625 13.094875,7.80725 15.48325,5.720375 C15.616,5.6045 15.81625,5.562875 15.983875,5.48525 L15.758875,5.177 L15.758875,5.177 Z" id="Shape"></path>
                    </g>
                </g>
            </g>
        </g>
    </g>
</svg>