<?xml version="1.0" encoding="UTF-8"?>
<svg width="24px" height="24px" viewBox="0 0 24 24" version="1.1" xmlns="http://www.w3.org/2000/svg" xmlns:xlink="http://www.w3.org/1999/xlink">
    <title>twitter</title>
    <g id="Concept2" stroke="none" stroke-width="1" fill="none" fill-rule="evenodd">
        <g id="TypeB_1" transform="translate(-209.000000, -1205.000000)">
            <g id="Group" transform="translate(171.000000, 1177.000000)">
                <g id="twitter" transform="translate(38.000000, 28.000000)">
                    <rect id="Rectangle" x="0" y="0" width="24" height="24"></rect>
                    <g id="ic_sns_twitter" transform="translate(2.000000, 2.000000)" fill="#FFFFFF" fill-rule="nonzero">
                        <path d="M6.18491392,17.5 C13.2313355,17.5 17.3063605,12.2253386 17.3063605,7.22065347 C17.3063605,7.08341553 18.3073257,6.25323849 18.7354775,4.52651526 C18.7786347,4.3705194 18.7237967,4.20456342 18.5950019,4.10139528 C18.4662071,3.99822714 18.2869588,3.97667347 18.1358316,4.04618247 C17.2806947,4.42527416 16.4127249,4.12492555 16.0359047,3.69408842 C15.3494087,2.96315336 14.3842072,2.53276786 13.3620134,2.50179441 C12.3398197,2.47082096 11.3484973,2.84192192 10.6157598,3.52985286 C9.61749034,4.46743612 9.19756354,5.83858215 9.50746504,7.14865979 C6.25024499,7.37364002 4.01265614,5.88427092 2.17405341,3.84370027 C1.93606169,3.5782236 1.49624365,3.71771134 1.44607873,4.0686805 C1.17425485,6.02038396 1.08909114,10.7652169 5.96558822,13.4897275 C5.11861767,14.6641242 3.46084199,15.3570633 1.61523951,15.6540372 C1.20692038,15.7204064 1.11009041,16.2659835 1.48341076,16.441468 C2.94519326,17.135532 4.55163739,17.4988751 6.18491392,17.4966253" id="Path"></path>
                    </g>
                </g>
            </g>
        </g>
    </g>
</svg>