<?xml version="1.0" encoding="UTF-8"?>
<svg width="209px" height="36px" viewBox="0 0 209 36" version="1.1" xmlns="http://www.w3.org/2000/svg" xmlns:xlink="http://www.w3.org/1999/xlink">
    <title>logo_white</title>
    <g id="Page-1" stroke="none" stroke-width="1" fill="none" fill-rule="evenodd">
        <g id="logo_white" fill-rule="nonzero">
            <g id="Group">
                <g transform="translate(34.280000, 7.050000)" fill="#FFFFFF" id="Shape">
                    <path d="M64.37,21.25 L60.49,21.25 L70.68,1.77635684e-15 L80.87,21.25 L76.99,21.25 L75.36,17.94 L65.97,17.94 L64.37,21.25 L64.37,21.25 L64.37,21.25 Z M67.68,14.34 L73.6,14.34 L70.61,8.27 L67.68,14.34 L67.68,14.34 Z"></path>
                    <path d="M14.47,10.26 C15.21,9.26 15.65,8.03 15.65,6.69 C15.65,3.37 12.96,0.68 9.64,0.68 L0,0.68 L0,21.25 L10.71,21.25 C14.1,21.25 16.85,18.5 16.85,15.11 C16.85,13.14 15.92,11.38 14.46,10.26 L14.47,10.26 Z M9.64,4.41 L9.64,4.41 C10.9,4.41 11.92,5.43 11.92,6.69 C11.92,7.95 10.9,8.97 9.64,8.97 L3.87,8.97 L3.87,4.41 L9.64,4.41 L9.64,4.41 Z M10.71,17.54 L3.86,17.54 L3.86,12.69 L10.71,12.69 C12.05,12.69 13.13,13.78 13.13,15.11 C13.13,16.44 12.04,17.53 10.71,17.53 L10.71,17.54 Z"></path>
                    <path d="M29.37,0.62 C23.65,0.62 19.01,5.25 19.01,10.98 C19.01,16.71 23.64,21.34 29.37,21.34 C35.1,21.34 39.73,16.7 39.73,10.98 C39.73,5.26 35.1,0.62 29.37,0.62 L29.37,0.62 Z M29.37,17.43 C25.8,17.43 22.92,14.54 22.92,10.98 C22.92,7.42 25.81,4.53 29.37,4.53 C32.93,4.53 35.82,7.42 35.82,10.98 C35.82,14.54 32.93,17.43 29.37,17.43 L29.37,17.43 Z"></path>
                    <path d="M54.19,13.93 C56.7,12.91 58.48,10.44 58.48,7.56 C58.48,3.76 55.4,0.69 51.61,0.69 L42.68,0.69 L42.68,21.25 L46.4,21.25 L46.4,14.4 L49.91,14.4 L54.71,21.25 L59.22,21.25 L54.2,13.93 L54.19,13.93 Z M51.6,10.68 L46.39,10.68 L46.39,4.43 L51.6,4.43 C53.33,4.43 54.73,5.83 54.73,7.56 C54.73,9.29 53.33,10.69 51.6,10.69 L51.6,10.69 L51.6,10.68 Z"></path>
                </g>
                <g id="Path">
                    <polygon fill="#FFFFFF" points="17.14 31.05 17.14 31.05 17.14 21.16 25.71 16.21 25.71 26.1"></polygon>
                    <polygon fill="#FFFFFF" points="0 4.95 0 31.05 8.57 26.1 8.57 0"></polygon>
                    <polygon fill="#D1D1D1" points="17.14 31.05 8.57 26.1 0 31.05 8.57 36"></polygon>
                    <polygon fill="#D1D1D1" points="25.71 16.21 17.14 11.26 8.57 16.21 17.14 21.16"></polygon>
                </g>
            </g>
            <g id="Group" transform="translate(118.740000, 7.500000)" fill="#FFFFFF">
                <path d="M17.1,8.04 L17.1,7.7 C16.85,4.48 14.26,1.69 9.92,1.69 C5.36,1.69 1.79,5.05 1.79,10.52 C1.79,15.99 5.36,19.35 9.92,19.35 C14.48,19.35 16.84,16.5 17.1,13.71 L17.1,13.34 L18.92,13.34 L18.92,13.54 C18.92,16.7 16.14,21.04 9.92,21.04 C4.37,21.04 1.42108547e-14,17 1.42108547e-14,10.52 C1.42108547e-14,4.04 4.37,0 9.92,0 C15.89,0 18.92,4.34 18.92,7.81 L18.92,8.05 L17.1,8.05 L17.1,8.04 Z" id="Path"></path>
                <path d="M59.05,16.12 L47.21,16.12 L45.02,20.7 L43.07,20.7 L52.76,0.33 L53.52,0.33 L63.21,20.7 L61.22,20.7 L59.03,16.12 L59.03,16.12 L59.05,16.12 Z M48.01,14.42 L58.25,14.42 L54.49,6.44 C53.85,5.08 53.21,3.18 53.21,3.18 L53.08,3.18 C53.08,3.18 52.44,5.08 51.8,6.44 L48,14.42 L48.01,14.42 Z" id="Shape"></path>
                <path d="M88.36,0.34 L88.36,17.62 L88.26,17.62 C88.26,17.62 86.66,15.65 85.45,14.33 L72.72,0.35 L71.5,0.35 L71.5,20.7 L73.29,20.7 L73.29,3.42 L73.35,3.42 C73.48,3.59 74.95,5.39 76.03,6.58 L88.92,20.7 L90.14,20.7 L90.14,0.34 L88.35,0.34 L88.36,0.34 Z" id="Path"></path>
                <rect id="Rectangle" x="65.32" y="0.34" width="1.79" height="20.37"></rect>
                <polygon id="Path" points="39.19 0.34 39.19 10.31 24.13 10.31 24.13 0.34 22.34 0.34 22.34 20.7 24.13 20.7 24.13 12.01 39.19 12.01 39.19 20.7 40.98 20.7 40.98 0.34"></polygon>
            </g>
        </g>
    </g>
</svg>