<?xml version="1.0" encoding="utf-8" ?>
<svg xmlns="http://www.w3.org/2000/svg" width="107.275" height="15.895" viewBox="0 0 107.275 15.895"><g transform="translate(-501.362 -1035.044)" style="isolation:isolate"><g style="isolation:isolate"><path d="M517.746,1040.832l-5.328-.774-2.382-4.828a.378.378,0,0,0-.651,0L507,1040.057l-5.329.775a.363.363,0,0,0-.2.619l3.856,3.758-.91,5.307a.363.363,0,0,0,.526.383l4.766-2.505,4.766,2.5a.363.363,0,0,0,.526-.383l-.91-5.306,3.856-3.758a.363.363,0,0,0-.2-.619Z"/></g><g style="isolation:isolate"><path d="M540.391,1040.832l-5.328-.774-2.382-4.828a.377.377,0,0,0-.651,0l-2.383,4.827-5.329.775a.363.363,0,0,0-.2.619l3.856,3.758-.91,5.307a.363.363,0,0,0,.526.383l4.765-2.505,4.766,2.5a.363.363,0,0,0,.526-.383l-.91-5.306,3.856-3.758a.363.363,0,0,0-.2-.619Z"/></g><g style="isolation:isolate"><path d="M563.036,1040.832l-5.328-.774-2.382-4.828a.378.378,0,0,0-.651,0l-2.383,4.827-5.329.775a.363.363,0,0,0-.2.619l3.856,3.758-.91,5.307a.363.363,0,0,0,.526.383l4.766-2.505,4.766,2.5a.363.363,0,0,0,.526-.383l-.91-5.306,3.857-3.758a.363.363,0,0,0-.2-.619Z"/></g><g style="isolation:isolate"><path d="M585.681,1040.832l-5.328-.774-2.382-4.828a.378.378,0,0,0-.651,0l-2.383,4.827-5.329.775a.363.363,0,0,0-.2.619l3.856,3.758-.91,5.307a.363.363,0,0,0,.526.383l4.765-2.505,4.766,2.5a.363.363,0,0,0,.526-.383l-.91-5.306,3.856-3.758a.363.363,0,0,0-.2-.619Z"/></g><g style="isolation:isolate"><path d="M608.326,1040.832l-5.328-.774-2.382-4.828a.378.378,0,0,0-.651,0l-2.383,4.827-5.329.775a.363.363,0,0,0-.2.619l3.856,3.758-.91,5.307a.363.363,0,0,0,.526.383l4.766-2.505,4.766,2.5a.363.363,0,0,0,.526-.383l-.91-5.306,3.856-3.758a.363.363,0,0,0-.2-.619Z"/></g></g></svg>