<svg height="35.299" viewBox="0 0 48.538 35.299" width="48.538" xmlns="http://www.w3.org/2000/svg"><path d="m17.907 17.3c0 1.242-.13 1.863-1.031 1.863-.941 0-1.089-.564-1.089-1.692v-9.915h-7.3v11.644a7.294 7.294 0 0 0 1.632 5.007 5.453 5.453 0 0 0 4.321 1.966 7.1 7.1 0 0 0 3.637-1.1c-.686 2.6-2.227 3.9-4.539 3.9a7.61 7.61 0 0 1 -2.556-.61 13.884 13.884 0 0 1 -2.5-1.163v6.052a17.532 17.532 0 0 0 2.495 1.291 11.064 11.064 0 0 0 3.965.76 9.985 9.985 0 0 0 7.65-3.459 10.831 10.831 0 0 0 2.62-7.638v-16.65h-7.3zm16.562-17.211c-8.669.781-8.079 10.05-8.079 10.05v16.21c4.713 0 7.069-2.262 7.069-5.4v-2.112h3.476v-7.051h-3.476v-.944a3.92 3.92 0 0 1 .78-2.542 2.579 2.579 0 0 1 2.05-.89c.581.007 1.65.2 1.866 1.037l.016.067v7.349a11.518 11.518 0 0 0 1.6 6.5 9.174 9.174 0 0 0 3.421 3.037 9.64 9.64 0 0 0 4.546 1.119c.178 0 .5-.005.8-.019v-7.467c-1.494 0-2.135-.276-2.611-.847a5.185 5.185 0 0 1 -.707-3.109h2.544v-7.521h-2.409c-.455-2.82-2.146-7.068-8.428-7.541 0 0-.744-.028-1.327-.008-.454.016-1.131.082-1.131.082zm-24.696 25.674.005.011a9.574 9.574 0 0 1 -2.478 1.026v.038l-.02-.038a5.965 5.965 0 0 1 -1.274.147 5.5 5.5 0 0 1 -4.36-1.983 7.36 7.36 0 0 1 -1.646-5.048v-19.428h7.3v19.429a7.351 7.351 0 0 0 1.641 5.05 6.384 6.384 0 0 0 .828.8z"/></svg>