<svg height="36.662" viewBox="0 0 86.426 36.662" width="86.426" xmlns="http://www.w3.org/2000/svg"><path d="m132.428 73.8c-31.449-2.367-57.44 5.024-63.285 7.778-3.237 1.449-3.478 3.285-3 4.3.435.773 1.981 1.256 3.671.386 12.464-6.618 37.729-11.884 62.609-10.386a1.039 1.039 0 1 0 0-2.077zm7.778-9.275c-1.3 1.449-3.237 2.56-3.865 2.029-.58-.531 0-2.271 0-2.271 3.092-1.981 9.082-7 9.082-10.87 0-3.575-3.237-4.686-6.667-1.353a24.852 24.852 0 0 0 -5.845 10.44c-1.787 1.739-4.589 3.961-7.15 3.961-1.3 0-1.691-.918-1.5-2.174 2.174-.048 8.164-1.691 8.164-6.667a3.122 3.122 0 0 0 -.966-2.174 3.043 3.043 0 0 0 -2.271-.773c-2.705 0-6.184 2.754-7.874 6.618a6.322 6.322 0 0 1 -1.353-.435 16.547 16.547 0 0 0 1.063-2.947c.386-2.029-.483-3.285-2.174-3.14-1.063.1-2.367 1.014-2.609 3.14a5.894 5.894 0 0 0 .58 3.14c-.725 2.271-3.768 5.121-4.783 5.024s.145-4.155 1.159-7.15a5.633 5.633 0 0 0 1.3-2.029 1.252 1.252 0 0 0 -.483-1.643 3.144 3.144 0 0 0 -3.961 1.643 13.834 13.834 0 0 0 -1.053 2.273c-.821 1.014-2.174 2.271-2.56 2.174-.58-.386 1.3-2.85 1.063-4.2a2.185 2.185 0 0 0 -2.367-1.836c-1.691.242-3.961 3.43-3.961 3.43a6.067 6.067 0 0 0 .483-1.836c-.1-1.208-2.367-1.739-3.478.435a32.715 32.715 0 0 0 -1.694 6.466c-.483 1.014-2.367 3.961-3.865 4.058-1.208.1.29-5.217.483-5.507.676-1.014 1.5-3.14 1.3-4.058a1.543 1.543 0 0 0 -.531-1.159 1.445 1.445 0 0 0 -1.256-.242 2.824 2.824 0 0 0 -1.787 1.353 2.356 2.356 0 0 0 -2.271-.821c-4.976.531-8.164 9.082-7.826 13.092.29 2.174 1.3 3.478 3.237 3.237 2.174-.29 3.961-3.382 3.961-3.382s.483 2.56 2.8 2.271a8.777 8.777 0 0 0 4.4-3.043 1.411 1.411 0 0 0 -.1.435c-.386 2.174 3.237 1.932 3.575.29 1.063-8.164 3.865-11.546 4.686-11.546.676 0-1.787 3.865-.386 5.314 1.063 1.3 3 .29 4.589-1.063a13.718 13.718 0 0 0 -.483 3.14c-.1 2.271.725 4.106 3 4.058 3-.1 6.184-3.768 8.261-7.246a5.8 5.8 0 0 0 1.787.725 8.71 8.71 0 0 0 -.242 2.512c.193 2.657 2.077 3.672 4.251 3.575 2.56-.1 5.556-2.029 7.585-3.768a.686.686 0 0 1 -.1.29c-.193 1.3.1 3.672 1.981 3.768 2.174.193 5.894-2.029 7.778-4.3 1.598-1.013.053-2.462-1.107-1.254zm2.029-11.063a.423.423 0 0 1 .386.435c0 2.271-5.845 7.15-5.845 7.15s3.817-7.581 5.459-7.581zm-14.058 4.783a.727.727 0 0 1 .531.193.545.545 0 0 1 .145.531c0 1.3-1.787 2.271-3.768 2.271 1.063-1.494 2.271-2.991 3.092-2.991zm-38.889 3.579c-.193 1.353-2.609 7.536-3.961 7.536-1.691.1.821-8.7 3.575-8.647.531-.001.531.387.386 1.111zm-21.159 1.642c1.594 0-1.3 8.164-.918 11.739s4.4 2.56 4.106.435c-.483-3.478 1.981-14.589 4.4-14.589 1.787 0-1.981 7.633-1.208 12.367.483 3.14 4.783 2.174 4.3.193-1.309-6.232 3.091-12.271 2.508-16.667-.29-1.836-1.3-2.85-2.56-2.85-4.058 0-7.343 8.068-7.343 8.068s.386-4.589-2.9-4.783c-4.733-.241-9.614 11.498-9.514 22.121.1 3.382 4.4 2.85 4.106.1-.243-4.733 2.559-16.134 5.023-16.134z" transform="translate(-58.997 -50.07)"/></svg>