<svg height="31.743" viewBox="0 0 88.201 31.743" width="88.201" xmlns="http://www.w3.org/2000/svg"><path d="m34.588 70.461c-5.739 6.74-11.242 15.1-11.3 21.346a7.4 7.4 0 0 0 2.529 5.957 12.269 12.269 0 0 0 8.285 3.033c4.151.006 8.273-1.669 11.5-2.96 5.435-2.174 65.515-28.263 65.515-28.263.58-.29.471-.652-.254-.472-.293.073-65.406 17.719-65.406 17.719a14.389 14.389 0 0 1 -3.79.543c-5 .03-9.457-2.748-9.421-8.6a19.2 19.2 0 0 1 2.342-8.303z" fill-rule="evenodd" opacity=".999" transform="translate(-23.29 -69.054)"/></svg>