<svg height="52.542" viewBox="0 0 52.542 52.542" width="52.542" xmlns="http://www.w3.org/2000/svg"><g fill-rule="evenodd"><path d="m29.064 2.865a26.271 26.271 0 1 0 26.271 26.271 26.271 26.271 0 0 0 -26.271-26.271zm0 50.187a23.916 23.916 0 1 1 23.916-23.916 23.915 23.915 0 0 1 -23.916 23.916z" transform="translate(-2.793 -2.865)"/><path d="m77.692 30.875a18.74 18.74 0 0 1 10.466 0l-5.23 11.593z" transform="translate(-56.657 -22.472)"/><path d="m58.662 40.477a18.731 18.731 0 0 1 5.038 4.731l-8.584 19-3.313-7.366h-6.271l-3.313 7.358-8.572-19.009a18.714 18.714 0 0 1 5.03-4.713l6.855 15.207h6.3zm-27.978 10.89a18.646 18.646 0 0 0 9.676 21.48z" transform="translate(-22.399 -29.914)"/><path d="m78 102.069a18.741 18.741 0 0 0 10.293 0l-5.143-11.421zm13.458-1.231a18.648 18.648 0 0 0 9.688-21.438z" transform="translate(-56.878 -57.905)"/></g></svg>