<?xml version="1.0" encoding="utf-8"?>
<!-- Generator: Adobe Illustrator 28.3.0, SVG Export Plug-In . SVG Version: 6.00 Build 0)  -->
<svg version="1.1" id="Layer_1" xmlns="http://www.w3.org/2000/svg" xmlns:xlink="http://www.w3.org/1999/xlink" x="0px" y="0px"
	 viewBox="0 0 212.5 29.4" style="enable-background:new 0 0 212.5 29.4;" xml:space="preserve">
<style type="text/css">
	.st0{display:none;fill:#00FFCC;}
	.st1{fill:#00FFCC;}
</style>
<path class="st0" d="M45.1,25.3L34.5,14.7L45.1,4l10.6,10.6L45.1,25.3z M35.9,14.7l9.2,9.2l9.2-9.2l-9.2-9.2L35.9,14.7z"/>
<path class="st0" d="M169.7,25.3l-10.6-10.6L169.7,4l10.6,10.6L169.7,25.3z M160.5,14.7l9.2,9.2l9.2-9.2l-9.2-9.2L160.5,14.7z"/>
<path class="st0" d="M31.5,8.7H181v1H31.5V8.7z"/>
<path class="st0" d="M31.5,19.2H181v1H31.5V19.2z"/>
<g>
	<g>
		<g>
			<polygon class="st1" points="121,6.8 120.1,6.8 120.1,1.1 114.4,1.1 114.4,0.2 121,0.2 			"/>
		</g>
		<g>
			<polygon class="st1" points="92.4,6.8 91.6,6.8 91.6,0.2 98.2,0.2 98.2,1.1 92.4,1.1 			"/>
		</g>
		<g>
			<polygon class="st1" points="98.2,29.2 91.6,29.2 91.6,22.5 92.4,22.5 92.4,28.3 98.2,28.3 			"/>
		</g>
		<g>
			<polygon class="st1" points="121,29.2 114.4,29.2 114.4,28.3 120.1,28.3 120.1,22.5 121,22.5 			"/>
		</g>
		<g>
			<path class="st1" d="M106.4,17.4l3-3l-3-3l-3,3L106.4,17.4z"/>
		</g>
	</g>
	<g>
		<rect x="1.2" y="13.9" class="st1" width="210" height="0.9"/>
	</g>
</g>
</svg>
