<?xml version="1.0" encoding="utf-8"?>
<!-- Generator: Adobe Illustrator 28.3.0, SVG Export Plug-In . SVG Version: 6.00 Build 0)  -->
<svg version="1.1" id="Layer_1" xmlns="http://www.w3.org/2000/svg" xmlns:xlink="http://www.w3.org/1999/xlink" x="0px" y="0px"
	 viewBox="0 0 1200 747" style="enable-background:new 0 0 1200 747;" xml:space="preserve">
<style type="text/css">
	.st0{fill:none;stroke:#00FFCC;stroke-width:2;stroke-miterlimit:10;}
</style>
<path class="st0" d="M1183.2,27.4l-12.7-12.7c-0.4-0.4-1.2-0.8-1.8-0.8H65.7c-0.6,0-1.4,0.3-1.8,0.8L16.8,61.8
	c-0.4,0.4-0.8,1.2-0.8,1.8v659c0,0.6,0.3,1.4,0.8,1.8l12.7,12.7c0.4,0.4,1.2,0.8,1.8,0.8h1103.1c0.6,0,1.4-0.3,1.8-0.8l47.1-47.1
	c0.4-0.4,0.8-1.2,0.8-1.8v-659C1184,28.7,1183.6,27.9,1183.2,27.4z"/>
</svg>
