<svg xmlns="http://www.w3.org/2000/svg" width="18" height="18" viewBox="0 0 18 18">
    <path fill="#FFF" fill-rule="evenodd" d="M6 3.375v2.25C6 5.832 5.832 6 5.625 6h-2.25C3.168 6 3 5.832 3 5.625v-2.25C3 3.168 3.168 3 3.375 3h2.25c.207 0 .375.168.375.375zM10.125 3h-2.25c-.207 0-.375.168-.375.375v2.25c0 .207.168.375.375.375h2.25c.207 0 .375-.168.375-.375v-2.25c0-.207-.168-.375-.375-.375zm4.5 0h-2.25c-.207 0-.375.168-.375.375v2.25c0 .207.168.375.375.375h2.25c.207 0 .375-.168.375-.375v-2.25c0-.207-.168-.375-.375-.375zm-9 4.5h-2.25c-.207 0-.375.168-.375.375v2.25c0 .207.168.375.375.375h2.25c.207 0 .375-.168.375-.375v-2.25c0-.207-.168-.375-.375-.375zm4.5 0h-2.25c-.207 0-.375.168-.375.375v2.25c0 .207.168.375.375.375h2.25c.207 0 .375-.168.375-.375v-2.25c0-.207-.168-.375-.375-.375zm4.5 0h-2.25c-.207 0-.375.168-.375.375v2.25c0 .207.168.375.375.375h2.25c.207 0 .375-.168.375-.375v-2.25c0-.207-.168-.375-.375-.375zm-9 4.5h-2.25c-.207 0-.375.168-.375.375v2.25c0 .207.168.375.375.375h2.25c.207 0 .375-.168.375-.375v-2.25c0-.207-.168-.375-.375-.375zm4.5 0h-2.25c-.207 0-.375.168-.375.375v2.25c0 .207.168.375.375.375h2.25c.207 0 .375-.168.375-.375v-2.25c0-.207-.168-.375-.375-.375zm4.5 0h-2.25c-.207 0-.375.168-.375.375v2.25c0 .207.168.375.375.375h2.25c.207 0 .375-.168.375-.375v-2.25c0-.207-.168-.375-.375-.375z"/>
</svg>
