<svg xmlns="http://www.w3.org/2000/svg" width="22" height="22" viewBox="0 0 22 22">
    <path fill="#FFF" fill-rule="evenodd" d="M11 1.833c-5.063 0-9.167 4.104-9.167 9.167S5.937 20.167 11 20.167s9.167-4.104 9.167-9.167c0-2.431-.966-4.763-2.685-6.482C15.762 2.8 13.432 1.833 11 1.833zm0 16.5c-4.05 0-7.333-3.283-7.333-7.333 0-4.05 3.283-7.333 7.333-7.333 4.05 0 7.333 3.283 7.333 7.333 0 1.945-.772 3.81-2.148 5.185-1.375 1.376-3.24 2.148-5.185 2.148zm3.502-10.55c-.179-.175-.464-.175-.642 0l-4.345 4.344-1.375-1.365c-.083-.089-.2-.14-.32-.14-.122 0-.238.051-.322.14l-.486.486c-.086.086-.135.203-.135.325s.049.24.135.325l2.155 2.173c.083.088.199.139.32.139.122 0 .238-.05.321-.14l5.152-5.15c.087-.087.136-.204.136-.326 0-.122-.05-.24-.136-.326l-.458-.486z"/>
</svg>
