<svg xmlns="http://www.w3.org/2000/svg" width="16" height="16" viewBox="0 0 16 16">
    <path fill="#FFF" fill-rule="evenodd" d="M12.667 12.333V13c0 .184-.15.333-.334.333H3.667c-.184 0-.334-.149-.334-.333v-.667c0-.184.15-.333.334-.333h8.666c.184 0 .334.15.334.333zm-4.9-1.766c.06.064.145.1.233.1.088 0 .173-.036.233-.1l3.86-3.86c.063-.063.099-.148.099-.237s-.036-.174-.099-.237L11.96 6.1c-.063-.065-.15-.101-.24-.1H10V2.333C10 2.15 9.85 2 9.667 2H6.333C6.15 2 6 2.15 6 2.333V6H4.28c-.09-.001-.177.035-.24.1l-.133.133c-.063.063-.099.148-.099.237s.036.174.099.237l3.86 3.86z"/>
</svg>
