<svg xmlns="http://www.w3.org/2000/svg" width="16" height="16" viewBox="0 0 16 16">
    <path fill="#BDBDBD" fill-rule="evenodd" d="M12 6.667V5.333c0-2.209-1.79-4-4-4s-4 1.791-4 4v1.334c-.736 0-1.333.597-1.333 1.333v5.333c0 .737.597 1.334 1.333 1.334h8c.736 0 1.333-.597 1.333-1.334V8c0-.736-.597-1.333-1.333-1.333zM5.333 5.333c0-1.472 1.194-2.666 2.667-2.666 1.473 0 2.667 1.194 2.667 2.666v1.334H5.333V5.333zm4 6c0 .369-.298.667-.666.667H7.333c-.368 0-.666-.298-.666-.667V10c0-.368.298-.667.666-.667h1.334c.368 0 .666.299.666.667v1.333z"/>
</svg>
