<svg xmlns="http://www.w3.org/2000/svg" width="16" height="16" viewBox="0 0 16 16">
    <path fill="#212121" fill-rule="evenodd" d="M13.667 4.667H2.333c-.184 0-.333-.15-.333-.334v-.666c0-.184.15-.334.333-.334h11.334c.184 0 .333.15.333.334v.666c0 .184-.15.334-.333.334zM14 8.333v-.666c0-.184-.15-.334-.333-.334H2.333c-.184 0-.333.15-.333.334v.666c0 .184.15.334.333.334h11.334c.184 0 .333-.15.333-.334zm0 4v-.666c0-.184-.15-.334-.333-.334H2.333c-.184 0-.333.15-.333.334v.666c0 .184.15.334.333.334h11.334c.184 0 .333-.15.333-.334z"/>
</svg>
