<svg xmlns="http://www.w3.org/2000/svg" width="24" height="24" viewBox="0 0 24 24">
    <path fill="#BDBDBD" fill-rule="evenodd" d="M17.85 16.44c.095.094.148.222.148.355 0 .133-.053.261-.148.355l-.7.7c-.094.095-.222.148-.355.148-.133 0-.261-.053-.355-.148L12 13.41l-4.44 4.44c-.094.095-.222.148-.355.148-.133 0-.261-.053-.355-.148l-.7-.7c-.095-.094-.148-.222-.148-.355 0-.133.053-.261.148-.355L10.59 12 6.15 7.56c-.095-.094-.148-.222-.148-.355 0-.133.053-.261.148-.355l.7-.7c.094-.095.222-.148.355-.148.133 0 .261.053.355.148L12 10.59l4.44-4.44c.094-.095.222-.148.355-.148.133 0 .261.053.355.148l.7.7c.095.094.148.222.148.355 0 .133-.053.261-.148.355L13.41 12l4.44 4.44z"/>
</svg>
