<svg xmlns="http://www.w3.org/2000/svg" width="16" height="16" viewBox="0 0 16 16">
    <path fill="#BDBDBD" fill-rule="evenodd" d="M6.857 1.524c-2.945 0-5.333 2.388-5.333 5.333 0 2.946 2.388 5.333 5.333 5.333 1.473 0 2.805-.596 3.771-1.562.966-.966 1.562-2.298 1.562-3.77 0-2.946-2.387-5.334-5.333-5.334zM0 6.857C0 3.07 3.07 0 6.857 0c3.787 0 6.857 3.07 6.857 6.857 0 1.619-.561 3.108-1.5 4.28l3.563 3.562c.297.298.297.78 0 1.078-.298.297-.78.297-1.078 0l-3.562-3.562c-1.172.938-2.661 1.5-4.28 1.5C3.07 13.714 0 10.644 0 6.856z"/>
</svg>
