<svg xmlns="http://www.w3.org/2000/svg" width="18" height="18" viewBox="0 0 18 18">
    <path fill="#BDBDBD" fill-rule="evenodd" d="M16.5 8.775C15.277 5.712 12.298 3.716 9 3.75c-3.276-.019-6.23 1.964-7.455 5.002-.029.08-.044.164-.045.248 0 .08.015.159.045.232C2.765 12.277 5.721 14.267 9 14.25c3.276.019 6.23-1.964 7.455-5.002.032-.079.047-.163.045-.248.012-.075.012-.15 0-.225zM9 11.25c-1.243 0-2.25-1.007-2.25-2.25S7.757 6.75 9 6.75 11.25 7.757 11.25 9c0 .597-.237 1.169-.659 1.591-.422.422-.994.659-1.591.659z"/>
</svg>
