<?xml version="1.0" encoding="UTF-8"?>
<svg width="200px" height="60px" viewBox="0 0 200 60" version="1.1" xmlns="http://www.w3.org/2000/svg" xmlns:xlink="http://www.w3.org/1999/xlink">
    <title>btn_appstore</title>
    <defs>
        <rect id="path-1" x="0" y="0" width="200" height="60" rx="6"></rect>
    </defs>
    <g id="Page-1" stroke="none" stroke-width="1" fill="none" fill-rule="evenodd">
        <g id="metapick.io" transform="translate(-640.000000, -1676.000000)">
            <g id="2" transform="translate(0.000000, 1080.000000)">
                <g id="Con" transform="translate(548.000000, 364.000000)">
                    <g id="btn_appstore" transform="translate(92.000000, 232.000000)">
                        <mask id="mask-2" fill="white">
                            <use xlink:href="#path-1"></use>
                        </mask>
                        <use id="Background-Black" fill="#000000" xlink:href="#path-1"></use>
                        <g id="app-store" mask="url(#mask-2)">
                            <g transform="translate(25.000000, 11.666667)" id="Group">
                                <g>
                                    <path d="M22.5468665,18.0634628 C22.5091499,13.7592841 25.97908,11.6652872 26.13775,11.5677989 C24.1725834,8.62578661 21.1266403,8.22381399 20.0562683,8.19176301 C17.4980402,7.91532337 15.016546,9.76359616 13.7133713,9.76359616 C12.3841852,9.76359616 10.3774003,8.21847216 8.2145466,8.2638777 C5.43131932,8.30794779 2.82757118,9.96257928 1.39954148,12.531999 C-1.54755807,17.7709976 0.650411142,25.4699085 3.4739562,29.7046433 C4.88637902,31.7786084 6.53680679,34.0942912 8.69705937,34.0128283 C10.8104913,33.9233526 11.5999394,32.6292946 14.150364,32.6292946 C16.6773783,32.6292946 17.4187052,34.0128283 19.6218767,33.9607455 C21.8900769,33.9233526 23.3181066,31.8774322 24.6811076,29.7847707 C26.3133274,27.4076569 26.9688164,25.0666004 26.9948279,24.9464092 C26.9415044,24.9277128 22.5897855,23.222334 22.5468665,18.0634628 Z" id="Path" fill="#FFFFFF" fill-rule="nonzero"></path>
                                    <path d="M18.5001858,5.66622691 C19.6443215,4.15163018 20.4271512,2.09105806 20.209844,0 C18.553858,0.0776005642 16.4828938,1.21250882 15.2903221,2.69384816 C14.2352038,3.9992005 13.2926663,6.13875892 13.5361552,8.15083069 C15.3963576,8.29771747 17.306305,7.15726632 18.5001858,5.66622691 Z" id="Path" fill="#FFFFFF" fill-rule="nonzero"></path>
                                </g>
                                <g transform="translate(37.792759, 14.966564)">
                                    <path d="M14.8471553,17.6877572 L11.8460081,17.6877572 L10.2020507,12.4922776 L4.48784509,12.4922776 L2.92185674,17.6877572 L0,17.6877572 L5.66134521,0 L9.15805843,0 L14.8471553,17.6877572 Z M9.70648473,10.3125419 L8.21978694,5.69389479 C8.06252735,5.22206177 7.76783081,4.11092824 7.33305429,2.36182331 L7.28019393,2.36182331 C7.10707623,3.11409792 6.8282378,4.22523145 6.44500014,5.69389479 L4.98473253,10.3125419 L9.70648473,10.3125419 L9.70648473,10.3125419 Z" id="Shape" fill="#FFFFFF" fill-rule="nonzero"></path>
                                    <path d="M29.6943107,10.376995 C29.6943107,12.4835716 29.1145981,14.1486965 27.9551731,15.3710789 C26.9166857,16.4592187 25.6271211,17.0026432 24.0877937,17.0026432 C22.426214,17.0026432 21.2326108,16.4166225 20.5056697,15.2445811 L20.4530881,15.2445811 L20.4530881,21.7695473 L17.6504869,21.7695473 L17.6504869,8.41369651 C17.6504869,7.08934134 17.6149943,5.73013472 17.5466381,4.33607664 L20.0114023,4.33607664 L20.1678327,6.2993751 L20.2204143,6.2993751 C21.1550529,4.82012458 22.5734426,4.08179012 24.4768978,4.08179012 C25.9649581,4.08179012 27.2071993,4.65877527 28.2009922,5.81403636 C29.1974142,6.97058824 29.6943107,8.49114418 29.6943107,10.376995 Z M26.8391278,10.4776769 C26.8391278,9.27207486 26.5630742,8.27816308 26.008338,7.49594161 C25.4023346,6.68015948 24.5886338,6.27226841 23.56855,6.27226841 C22.8771015,6.27226841 22.248751,6.49944824 21.687442,6.94735394 C21.1248185,7.39913202 20.756747,7.98902511 20.5845422,8.71961481 C20.4977825,9.06038456 20.4544026,9.33919617 20.4544026,9.55863124 L20.4544026,11.6239025 C20.4544026,12.524877 20.7357144,13.285155 21.2983379,13.9060272 C21.8609614,14.5268993 22.5918461,14.83669 23.4909921,14.83669 C24.5465685,14.83669 25.3681565,14.4365437 25.9557563,13.6388327 C26.5446707,12.8398309 26.8391278,11.7865426 26.8391278,10.4776769 Z" id="Shape" fill="#FFFFFF" fill-rule="nonzero"></path>
                                    <path d="M44.541466,10.376995 C44.541466,12.4835716 43.9616907,14.1486965 42.8008255,15.3710789 C41.7635405,16.4592187 40.4738363,17.0026432 38.9343423,17.0026432 C37.2725827,17.0026432 36.0788504,16.4166225 35.3531453,15.2445811 L35.300558,15.2445811 L35.300558,21.7695473 L32.4976534,21.7695473 L32.4976534,8.41369651 C32.4976534,7.08934134 32.462157,5.73013472 32.3937935,4.33607664 L34.8588244,4.33607664 L35.0152717,6.2993751 L35.0678591,6.2993751 C36.0012841,4.82012458 37.4198273,4.08179012 39.3248032,4.08179012 C40.8117099,4.08179012 42.0540855,4.65877527 43.0506153,5.81403636 C44.0432011,6.97058824 44.541466,8.49114418 44.541466,10.376995 Z M41.6859742,10.4776769 C41.6859742,9.27207486 41.408576,8.27816308 40.8537797,7.49594161 C40.2477108,6.68015948 39.4365512,6.27226841 38.4150424,6.27226841 C37.7222044,6.27226841 37.0951005,6.49944824 36.5324161,6.94735394 C35.9697317,7.39913202 35.6029351,7.98902511 35.4307116,8.71961481 C35.3452572,9.06038456 35.300558,9.33919617 35.300558,9.55863124 L35.300558,11.6239025 C35.300558,12.524877 35.5819002,13.285155 36.1419552,13.9060272 C36.7046396,14.5256085 37.4356035,14.83669 38.3374761,14.83669 C39.3931667,14.83669 40.2148437,14.4365437 40.8025071,13.6388327 C41.3914851,12.8398309 41.6859742,11.7865426 41.6859742,10.4776769 Z" id="Shape" fill="#FFFFFF" fill-rule="nonzero"></path>
                                    <path d="M59.3886214,12.615115 C59.3886214,14.0766144 58.874621,15.2656964 57.8426966,16.1836523 C56.7087569,17.1868193 55.130135,17.6877572 53.1015992,17.6877572 C51.2287022,17.6877572 49.7272457,17.3314199 48.5906902,16.6174542 L49.2367873,14.3232101 C50.4609714,15.0539598 51.8041734,15.4206257 53.2677011,15.4206257 C54.3179359,15.4206257 55.1353665,15.1856497 55.7226086,14.7182797 C56.307235,14.2509098 56.5988942,13.6234463 56.5988942,12.8410535 C56.5988942,12.1438718 56.3582427,11.5564317 55.8756317,11.0800243 C55.3956364,10.6036168 54.5939005,10.1607773 53.4743475,9.75150585 C50.4269663,8.62955979 48.9045836,6.98601856 48.9045836,4.82475538 C48.9045836,3.41231696 49.4382022,2.25422074 50.5067475,1.35304887 C51.5713691,0.450585932 52.9917365,0 54.7678497,0 C56.3517032,0 57.6674395,0.272417282 58.7176743,0.81596077 L58.0205695,3.05985289 C57.0396528,2.5330934 55.930563,2.26971366 54.6893764,2.26971366 C53.7084597,2.26971366 52.9420367,2.50856294 52.3927234,2.98367934 C51.9284228,3.40844372 51.6956186,3.92616567 51.6956186,4.53942732 C51.6956186,5.21853391 51.96112,5.78015248 52.4947387,6.22170087 C52.9590393,6.62968126 53.8026277,7.07122965 55.0268117,7.54763712 C56.5243446,8.1428237 57.6242792,8.83871429 58.3318471,9.63659998 C59.0367992,10.4319035 59.3886214,11.427324 59.3886214,12.615115 Z" id="Path" fill="#FFFFFF" fill-rule="nonzero"></path>
                                    <path d="M68.8368111,6.70917239 L65.5802482,6.70917239 L65.5802482,12.9529745 C65.5802482,14.5410632 66.1539576,15.3344375 67.3041479,15.3344375 C67.8321268,15.3344375 68.2700306,15.2902123 68.6164735,15.2017617 L68.698234,17.3714796 C68.11621,17.5818846 67.3498784,17.6877572 66.4006249,17.6877572 C65.2338054,17.6877572 64.3219677,17.3433363 63.6637263,16.6558346 C63.0082564,15.9669927 62.6784428,14.8117754 62.6784428,13.1888425 L62.6784428,6.70649207 L60.7383628,6.70649207 L60.7383628,4.56223722 L62.6784428,4.56223722 L62.6784428,2.20757737 L65.5802482,1.36059671 L65.5802482,4.56223722 L68.8368111,4.56223722 L68.8368111,6.70917239 Z" id="Path" fill="#FFFFFF" fill-rule="nonzero"></path>
                                    <path d="M82.3342251,11.4555745 C82.3342251,13.2601425 81.7888141,14.7417234 80.700577,15.9003173 C79.5593498,17.0931673 78.0446065,17.6877572 76.1563471,17.6877572 C74.3365873,17.6877572 72.8877586,17.1164126 71.8072762,15.9737234 C70.7267937,14.8310343 70.1865525,13.3886033 70.1865525,11.6501008 C70.1865525,9.83085156 70.7423031,8.34070658 71.8576814,7.18211274 C72.9704749,6.02229547 74.4722938,5.44238683 76.3605531,5.44238683 C78.180313,5.44238683 79.644651,6.01373142 80.7496899,7.15764403 C81.8069083,8.26730043 82.3342251,9.69994392 82.3342251,11.4555745 Z M79.475341,11.5399916 C79.475341,10.4572508 79.2310692,9.52866289 78.7360635,8.75422793 C78.1583415,7.817076 77.3324703,7.34972347 76.2623275,7.34972347 C75.1547037,7.34972347 74.3133233,7.81829944 73.7356012,8.75422793 C73.2405955,9.52988632 72.9963238,10.4731554 72.9963238,11.588929 C72.9963238,12.6716698 73.2405955,13.6002577 73.7356012,14.3734692 C74.3314175,15.3106212 75.1637508,15.7779737 76.237771,15.7779737 C77.2898197,15.7779737 78.1156908,15.3008337 78.7115071,14.3490005 C79.2194372,13.5598843 79.475341,12.621509 79.475341,11.5399916 Z" id="Shape" fill="#FFFFFF" fill-rule="nonzero"></path>
                                    <path d="M91.7824148,8.03325862 C91.5050527,7.98449221 91.2092874,7.95948379 90.8990625,7.95948379 C89.9131781,7.95948379 89.1507609,8.31335287 88.6144398,9.02234143 C88.1477879,9.6475518 87.9138047,10.4378177 87.9138047,11.3918887 L87.9138047,17.6877572 L85.1125786,17.6877572 L85.1388689,9.46749121 C85.1388689,8.08452587 85.103377,6.82535218 85.0337079,5.68997014 L87.4747575,5.68997014 L87.5772895,7.98574263 L87.6548457,7.98574263 C87.950611,7.19672714 88.4172629,6.5615134 89.056116,6.08510309 C89.6805094,5.65620878 90.3548543,5.44238683 91.0817797,5.44238683 C91.3407387,5.44238683 91.5747219,5.45989272 91.7824148,5.49115324 L91.7824148,8.03325862 Z" id="Path" fill="#FFFFFF" fill-rule="nonzero"></path>
                                    <path d="M103.930087,11.0311989 C103.930087,11.4994871 103.898433,11.8942223 103.831326,12.2166302 L95.7328775,12.2166302 C95.7645318,13.3787696 96.1557795,14.2675366 96.9078869,14.8804794 C97.5903546,15.4284502 98.4728778,15.7030486 99.5567227,15.7030486 C100.755789,15.7030486 101.849764,15.5179398 102.833581,15.1464965 L103.256483,16.9608071 C102.106797,17.4462578 100.749459,17.6877572 99.1832014,17.6877572 C97.2991346,17.6877572 95.8202435,17.1508193 94.7439956,16.0781695 C93.6702801,15.0055197 93.1321562,13.5651042 93.1321562,11.758149 C93.1321562,9.98429265 93.6322949,8.50710061 94.6338385,7.32902463 C95.6822305,6.0712661 97.0990791,5.44238683 98.881852,5.44238683 C100.632971,5.44238683 101.958655,6.0712661 102.858904,7.32902463 C103.57176,8.32812132 103.930087,9.56381392 103.930087,11.0311989 Z M101.355956,10.3532842 C101.373682,9.57852455 101.197684,8.90919106 100.83176,8.34405784 C100.364542,7.61710773 99.646621,7.25424562 98.6805303,7.25424562 C97.7980071,7.25424562 97.0800865,7.60852653 96.5318332,8.31954013 C96.0823415,8.88467335 95.8151788,9.56258803 95.7328775,10.3520583 L101.355956,10.3520583 L101.355956,10.3532842 Z" id="Shape" fill="#FFFFFF" fill-rule="nonzero"></path>
                                </g>
                                <g transform="translate(40.492242, 0.000000)">
                                    <path d="M6.74870697,5.89407627 C6.74870697,7.58105239 6.30540709,8.85094265 5.42006314,9.70374705 C4.60002115,10.4906204 3.43463222,10.8847737 1.92515218,10.8847737 C1.17669119,10.8847737 0.536229601,10.8475083 0,10.7729775 L0,1.55552343 C0.699484515,1.4265278 1.45296873,1.36059671 2.26673169,1.36059671 C3.70463074,1.36059671 4.7883922,1.7174846 5.51927189,2.43126039 C6.33805807,3.23819969 6.74870697,4.39199389 6.74870697,5.89407627 Z M5.36104021,5.93564153 C5.36104021,4.84204529 5.10736719,4.00357373 4.60002115,3.41879356 C4.09267511,2.83544668 3.35174896,2.5430566 2.3759869,2.5430566 C1.96157058,2.5430566 1.6086888,2.57458886 1.31608577,2.64051996 L1.31608577,9.64784895 C1.47808487,9.67651464 1.77445533,9.68941421 2.20519714,9.68941421 C3.21235438,9.68941421 3.98969893,9.36979172 4.5372308,8.73054673 C5.08476266,8.09130175 5.36104021,7.15966668 5.36104021,5.93564153 Z" id="Shape" fill="#FFFFFF" fill-rule="nonzero"></path>
                                    <path d="M13.4974139,7.4217133 C13.4974139,8.42479711 13.2553551,9.24663404 12.7712373,9.89137481 C12.2637322,10.5541019 11.5913464,10.8847737 10.7517412,10.8847737 C9.94253949,10.8847737 9.2982185,10.5679375 8.81760883,9.93149816 C8.33816852,9.29644234 8.09844837,8.49535886 8.09844837,7.52963128 C8.09844837,6.51962966 8.34518472,5.6908749 8.84099616,5.0475177 C9.33680759,4.4041605 10.0033466,4.08179012 10.8429518,4.08179012 C11.6521535,4.08179012 12.3023213,4.39862625 12.7946246,5.03368206 C13.2623713,5.65075155 13.4974139,6.44768434 13.4974139,7.4217133 Z M12.2263125,7.46875447 C12.2263125,6.86690419 12.116392,6.35083487 11.8977204,5.9205465 C11.6404598,5.40032649 11.274448,5.14021648 10.7985158,5.14021648 C10.3062125,5.14021648 9.93201519,5.40032649 9.67475454,5.9205465 C9.45491362,6.35083487 9.34616253,6.87520557 9.34616253,7.49504219 C9.34616253,8.09689247 9.45608299,8.61296179 9.67475454,9.04325015 C9.94020076,9.56347017 10.3097206,9.82358018 10.7868222,9.82358018 C11.2545688,9.82358018 11.6217499,9.55931948 11.8860268,9.02941452 C12.1128839,8.59082477 12.2263125,8.07060475 12.2263125,7.46875447 Z" id="Shape" fill="#FFFFFF" fill-rule="nonzero"></path>
                                    <path d="M24.2953451,4.08179012 L22.2549234,10.8847737 L20.9269202,10.8847737 L20.0817015,7.93065671 C19.8672843,7.19320983 19.6929839,6.46009239 19.5574169,5.73274752 L19.5311335,5.73274752 C19.4052498,6.48029641 19.2309494,7.21197071 19.0068488,7.93065671 L18.1090633,10.8847737 L16.7658434,10.8847737 L14.8471553,4.08179012 L16.337009,4.08179012 L17.0743275,7.31587712 C17.2527779,8.08074375 17.3994116,8.80953176 17.5169952,9.49935487 L17.5432786,9.49935487 C17.6511789,8.9307559 17.8296293,8.20629733 18.0813966,7.33030857 L19.0068488,4.08323327 L20.1882184,4.08323327 L21.0749372,7.26103763 C21.2893544,8.03600627 21.4636548,8.78211201 21.5978385,9.50079801 L21.6379553,9.50079801 C21.7361722,8.80087289 21.8841892,8.05476715 22.080623,7.26103763 L22.8718916,4.08323327 L24.2953451,4.08323327 L24.2953451,4.08179012 Z" id="Path" fill="#FFFFFF" fill-rule="nonzero"></path>
                                    <path d="M31.0440521,10.8847737 L29.6747113,10.8847737 L29.6747113,7.06843135 C29.6747113,5.89243253 29.2618185,5.30443312 28.4334196,5.30443312 C28.0270599,5.30443312 27.6990976,5.46556758 27.4443062,5.78924994 C27.1921279,6.11293231 27.0640789,6.49456654 27.0640789,6.93132572 L27.0640789,10.8833602 L25.6947382,10.8833602 L25.6947382,6.12565345 C25.6947382,5.54048096 25.6777521,4.90583737 25.6450865,4.21889575 L26.8484861,4.21889575 L26.9125107,5.26061586 L26.9504027,5.26061586 C27.1098107,4.93693349 27.3476161,4.66978953 27.6598989,4.45635705 C28.0309798,4.20758807 28.4464859,4.08179012 28.9011906,4.08179012 C29.4761047,4.08179012 29.9543286,4.28250146 30.3345559,4.68533759 C30.8075533,5.17863517 31.0440521,5.91504789 31.0440521,6.89316229 L31.0440521,10.8847737 L31.0440521,10.8847737 Z" id="Path" fill="#FFFFFF" fill-rule="nonzero"></path>
                                    <polygon id="Path" fill="#FFFFFF" fill-rule="nonzero" points="35.0932763 11 33.7435349 11 33.7435349 0 35.0932763 0"></polygon>
                                    <path d="M43.1917246,7.4217133 C43.1917246,8.42479711 42.9496657,9.24663404 42.465548,9.89137481 C41.9580429,10.5541019 41.2844877,10.8847737 40.4460519,10.8847737 C39.6356808,10.8847737 38.9913598,10.5679375 38.5119195,9.93149816 C38.0324792,9.29644234 37.7927591,8.49535886 37.7927591,7.52963128 C37.7927591,6.51962966 38.0394954,5.6908749 38.5353068,5.0475177 C39.0311183,4.4041605 39.6976572,4.08179012 40.5360931,4.08179012 C41.3464641,4.08179012 41.9954626,4.39862625 42.4889353,5.03368206 C42.9566819,5.65075155 43.1917246,6.44768434 43.1917246,7.4217133 Z M41.9194538,7.46875447 C41.9194538,6.86690419 41.8095333,6.35083487 41.5908618,5.9205465 C41.3347705,5.40032649 40.9675894,5.14021648 40.4928265,5.14021648 C39.9993538,5.14021648 39.6251565,5.40032649 39.3690652,5.9205465 C39.1492243,6.35083487 39.0404732,6.87520557 39.0404732,7.49504219 C39.0404732,8.09689247 39.1503937,8.61296179 39.3690652,9.04325015 C39.6345114,9.56347017 40.0040313,9.82358018 40.4811329,9.82358018 C40.9488795,9.82358018 41.3148912,9.55931948 41.5791681,9.02941452 C41.8071946,8.59082477 41.9194538,8.07060475 41.9194538,7.46875447 Z" id="Shape" fill="#FFFFFF" fill-rule="nonzero"></path>
                                    <path d="M49.9404316,10.7367323 L48.6276599,10.7367323 L48.5188435,9.98545715 L48.4783861,9.98545715 C48.0291699,10.5845403 47.3888275,10.8847737 46.5573589,10.8847737 C45.9365476,10.8847737 45.4343182,10.686924 45.0562511,10.2939919 C44.7130611,9.93703241 44.541466,9.49290841 44.541466,8.96577058 C44.541466,8.16883779 44.8762856,7.56145325 45.55011,7.14084984 C46.2225393,6.72024642 47.1684046,6.5140954 48.3863108,6.52378035 L48.3863108,6.40202673 C48.3863108,5.54283357 47.9315142,5.11392877 47.0205259,5.11392877 C46.371813,5.11392877 45.7998296,5.27580574 45.3059707,5.59679256 L45.0088183,4.64490062 C45.6198641,4.26995481 46.3746032,4.08179012 47.2646652,4.08179012 C48.9834057,4.08179012 49.8455661,4.98110664 49.8455661,6.77973967 L49.8455661,9.18160654 C49.8455661,9.83326512 49.8776529,10.3521016 49.9404316,10.7367323 Z M48.4225829,8.49535886 L48.4225829,7.48950793 C46.8098686,7.46183665 46.0035115,7.9004264 46.0035115,8.80389361 C46.0035115,9.14425032 46.0955869,9.39882607 46.2839229,9.56900442 C46.4722589,9.73918278 46.7122129,9.82358018 46.9982046,9.82358018 C47.3190734,9.82358018 47.6190159,9.72258001 47.8924519,9.52196325 C48.167283,9.31996293 48.3360878,9.06400361 48.3988665,8.74993461 C48.4142124,8.67937286 48.4225829,8.5935919 48.4225829,8.49535886 Z" id="Shape" fill="#FFFFFF" fill-rule="nonzero"></path>
                                    <path d="M56.6891386,10.7388563 L55.5733524,10.7388563 L55.5145636,9.70652497 L55.4797703,9.70652497 C55.1234386,10.4920241 54.5163549,10.8847737 53.6633183,10.8847737 C52.9818489,10.8847737 52.4143576,10.5806655 51.9644438,9.97244915 C51.51453,9.36423281 51.290173,8.57464254 51.290173,7.60504205 C51.290173,6.56452845 51.5337263,5.72175334 52.0232325,5.07808044 C52.4971417,4.47804638 53.0778305,4.17802935 53.7688981,4.17802935 C54.5283526,4.17802935 55.0598507,4.46850038 55.3621928,5.05080616 L55.3861882,5.05080616 L55.3861882,1.36059671 L56.6447471,1.36059671 L56.6447471,9.0069398 C56.6447471,9.63288442 56.6591443,10.2097353 56.6891386,10.7388563 Z M55.3861882,8.02779332 L55.3861882,6.9559143 C55.3861882,6.77044922 55.3741905,6.62044071 55.3513949,6.50588875 C55.2806084,6.16223288 55.1282376,5.87312557 54.896682,5.63993051 C54.6627268,5.40673546 54.3807808,5.28945607 54.0556431,5.28945607 C53.586533,5.28945607 53.2194034,5.50083171 52.9494551,5.92494669 C52.6819063,6.34906167 52.5463323,6.89045604 52.5463323,7.55185721 C52.5463323,8.18734783 52.6747077,8.70283163 52.9326583,9.09967234 C53.2050061,9.52242361 53.5721358,9.73379924 54.0316477,9.73379924 C54.4443687,9.73379924 54.7743055,9.55788017 55.0250574,9.2046783 C55.267411,8.87875071 55.3861882,8.48600114 55.3861882,8.02779332 Z" id="Shape" fill="#FFFFFF" fill-rule="nonzero"></path>
                                    <path d="M68.8368111,7.4217133 C68.8368111,8.42479711 68.5947522,9.24663404 68.1106345,9.89137481 C67.6031294,10.5541019 66.9319129,10.8847737 66.0911384,10.8847737 C65.283106,10.8847737 64.638785,10.5679375 64.157006,9.93149816 C63.6775657,9.29644234 63.4378456,8.49535886 63.4378456,7.52963128 C63.4378456,6.51962966 63.6845819,5.6908749 64.1803933,5.0475177 C64.6762048,4.4041605 65.3427437,4.08179012 66.1835183,4.08179012 C66.9915506,4.08179012 67.6428878,4.39862625 68.1340218,5.03368206 C68.6017684,5.65075155 68.8368111,6.44768434 68.8368111,7.4217133 Z M67.566879,7.46875447 C67.566879,6.86690419 67.4569585,6.35083487 67.238287,5.9205465 C66.979857,5.40032649 66.6150146,5.14021648 66.137913,5.14021648 C65.6467791,5.14021648 65.2725817,5.40032649 65.0141517,5.9205465 C64.7943108,6.35083487 64.6855597,6.87520557 64.6855597,7.49504219 C64.6855597,8.09689247 64.7954802,8.61296179 65.0141517,9.04325015 C65.2795979,9.56347017 65.6491178,9.82358018 66.1262194,9.82358018 C66.593966,9.82358018 66.9623165,9.55931948 67.2265933,9.02941452 C67.4522811,8.59082477 67.566879,8.07060475 67.566879,7.46875447 Z" id="Shape" fill="#FFFFFF" fill-rule="nonzero"></path>
                                    <path d="M76.9352595,10.8847737 L75.5668942,10.8847737 L75.5668942,7.06843135 C75.5668942,5.89243253 75.1539015,5.30443312 74.3239951,5.30443312 C73.917537,5.30443312 73.5894953,5.46556758 73.3359491,5.78924994 C73.0824029,6.11293231 72.9556298,6.49456654 72.9556298,6.93132572 L72.9556298,10.8833602 L71.5846507,10.8833602 L71.5846507,6.12565345 C71.5846507,5.54048096 71.5689674,4.90583737 71.5362939,4.21889575 L72.7386779,4.21889575 L72.8027179,5.26061586 L72.8406192,5.26061586 C73.0013727,4.93693349 73.2392356,4.66978953 73.5502871,4.45635705 C73.9227648,4.20758807 74.3370645,4.08179012 74.7931863,4.08179012 C75.3669325,4.08179012 75.8452723,4.28250146 76.2255915,4.68533759 C76.7000105,5.17863517 76.9352595,5.91504789 76.9352595,6.89316229 L76.9352595,10.8847737 L76.9352595,10.8847737 Z" id="Path" fill="#FFFFFF" fill-rule="nonzero"></path>
                                    <path d="M86.3834493,5.39328259 L84.7558614,5.39328259 L84.7558614,8.51685799 C84.7558614,9.3107099 85.044991,9.70763586 85.6176085,9.70763586 C85.8827615,9.70763586 86.102782,9.68581175 86.2762598,9.64079953 L86.3143402,10.7251849 C86.0223899,10.8315774 85.6387644,10.8847737 85.1662843,10.8847737 C84.5823837,10.8847737 84.1282387,10.7129088 83.7996183,10.3691791 C83.4695875,10.0254494 83.3059825,9.44711057 83.3059825,8.63552657 L83.3059825,5.39328259 L82.3342251,5.39328259 L82.3342251,4.32253731 L83.3059825,4.32253731 L83.3059825,3.1440355 L84.754451,2.72119342 L84.754451,4.3211733 L86.3820389,4.3211733 L86.3820389,5.39328259 L86.3834493,5.39328259 Z" id="Path" fill="#FFFFFF" fill-rule="nonzero"></path>
                                    <path d="M93.1321562,10.8847737 L91.7487867,10.8847737 L91.7487867,7.17315606 C91.7487867,6.00288857 91.3320615,5.41706236 90.4972922,5.41706236 C89.8563794,5.41706236 89.4185541,5.75637069 89.1785415,6.43498734 C89.1376602,6.57763533 89.1139227,6.75213675 89.1139227,6.95710668 L89.1139227,10.8833887 L87.7331907,10.8833887 L87.7331907,1.36059671 L89.1139227,1.36059671 L89.1139227,5.29518835 L89.1402977,5.29518835 C89.5754855,4.57917854 90.1992546,4.2218661 91.0076488,4.2218661 C91.5799866,4.2218661 92.0534181,4.41852643 92.4292621,4.81323204 C92.8974186,5.30488287 93.1321562,6.03612694 93.1321562,7.00280943 L93.1321562,10.8847737 L93.1321562,10.8847737 Z" id="Path" fill="#FFFFFF" fill-rule="nonzero"></path>
                                    <path d="M99.8808632,7.18590265 C99.8808632,7.44654273 99.862828,7.66559132 99.8306223,7.84443478 L95.7817202,7.84443478 C95.7997554,8.49048946 95.9929896,8.98265558 96.3678641,9.32370591 C96.7105329,9.62871027 97.1523953,9.78121244 97.6934512,9.78121244 C98.2924775,9.78121244 98.8386864,9.67862007 99.3307896,9.47204894 L99.5420591,10.4813361 C98.966221,10.7502945 98.2886128,10.8847737 97.5040817,10.8847737 C96.5636749,10.8847737 95.8229435,10.5867012 95.2870404,9.99055634 C94.7485609,9.39441146 94.4818976,8.59446822 94.4818976,7.59072661 C94.4818976,6.60500798 94.7305257,5.78426899 95.2316466,5.129896 C95.7546674,4.43115875 96.4619048,4.08179012 97.3546471,4.08179012 C98.2280661,4.08179012 98.8915037,4.43115875 99.3398072,5.129896 C99.7017994,5.68444938 99.8808632,6.37070918 99.8808632,7.18590265 Z M98.5926347,6.81019273 C98.6029406,6.37902748 98.5140528,6.00747672 98.3311243,5.69415406 C98.0966668,5.29071648 97.7398275,5.0883045 97.2567418,5.0883045 C96.8161676,5.0883045 96.4567519,5.28517095 96.1823592,5.68029023 C95.9582075,5.99499927 95.8255199,6.37070918 95.7817202,6.81019273 L98.5926347,6.81019273 Z" id="Shape" fill="#FFFFFF" fill-rule="nonzero"></path>
                                </g>
                            </g>
                        </g>
                    </g>
                </g>
            </g>
        </g>
    </g>
</svg>