<?xml version="1.0" encoding="UTF-8"?>
<svg width="530px" height="101px" viewBox="0 0 530 101" version="1.1" xmlns="http://www.w3.org/2000/svg" xmlns:xlink="http://www.w3.org/1999/xlink">
    <title>logo_test_h28_2</title>
    <defs>
        <linearGradient x1="71.6434138%" y1="28.0437457%" x2="23.6609073%" y2="71.9159548%" id="linearGradient-1">
            <stop stop-color="#FFB52D" offset="0%"></stop>
            <stop stop-color="#FF5777" offset="30%"></stop>
            <stop stop-color="#B75EDE" offset="51%"></stop>
            <stop stop-color="#166CEC" offset="75%"></stop>
            <stop stop-color="#17F1F6" offset="100%"></stop>
        </linearGradient>
        <linearGradient x1="173.680206%" y1="-27.2503065%" x2="39.8945268%" y2="59.4771134%" id="linearGradient-2">
            <stop stop-color="#C88E24" offset="3%"></stop>
            <stop stop-color="#C8455E" offset="30%"></stop>
            <stop stop-color="#8A47A7" offset="51%"></stop>
            <stop stop-color="#1154B5" offset="75%"></stop>
            <stop stop-color="#12BEBF" offset="100%"></stop>
        </linearGradient>
    </defs>
    <g id="Page-1" stroke="none" stroke-width="1" fill="none" fill-rule="evenodd">
        <g id="Desktop-HD-Copy-2" transform="translate(-680.000000, -490.000000)">
            <g id="logo_test_h28_2" transform="translate(680.000000, 490.000000)">
                <rect id="holder" x="0" y="0" width="530" height="101"></rect>
                <g id="word" transform="translate(150.082600, 21.362044)" fill="#FFFFFF">
                    <g id="Group-3" transform="translate(0.000000, 3.560341)">
                        <path d="M14.4905865,0.712068131 C15.3450682,2.24301461 16.3419636,4.27240878 17.4456692,6.37300977 C18.5493748,8.47361076 19.617477,11.1082628 21.0060099,13.7073115 C22.3945427,16.3063602 23.4270415,19.0834259 24.5663505,21.8248882 C25.7056595,24.5663505 26.8449685,27.2010026 27.8418639,29.5864308 C28.8031559,27.2010026 29.9068615,24.5663505 31.1173773,21.8248882 C32.3278931,19.0834259 33.4315987,16.3419636 34.677718,13.7073115 C35.9238372,11.0726594 37.0987496,8.68723119 38.2380586,6.58663021 C39.3773676,4.48602922 40.3030562,2.45663505 41.1931414,0.92568857 L51.1620952,0.92568857 C51.5893361,4.09439175 52.0165769,7.69033581 52.4438178,11.6067105 C52.8710587,15.5230852 53.2270928,19.8310974 53.5475234,24.1035062 C53.8679541,28.375915 54.1171779,32.7195306 54.4376086,37.0987496 C54.7580392,41.4779686 54.8648495,45.536757 55.0784699,49.3819249 L44.3974479,49.3819249 C44.3974479,44.6822752 44.0770173,39.5197813 43.8633968,33.9300464 C43.6497764,28.3403116 43.2937423,22.7861802 42.7596912,17.0896351 C41.8696061,19.0478225 41.0151243,21.2552337 39.9114187,23.5338517 C38.8077131,25.8124697 37.8464211,28.3403116 36.8495258,30.654533 C35.8526304,32.9687545 34.8913384,35.3541827 33.894443,37.4547837 C32.8975476,39.5553847 32.1498761,41.4779686 31.4734114,43.0089151 L23.5694551,43.0089151 C22.9285938,41.4779686 22.1453189,39.6265915 21.1484235,37.4547837 C20.1515281,35.2829759 19.2970463,32.9687545 18.1933407,30.654533 C17.0896351,28.3403116 16.1283432,25.8480731 15.1314478,23.5338517 C14.1345524,21.2196303 13.1732604,18.9410123 12.2831753,17.0896351 C11.8559344,22.7861802 11.5355037,28.3403116 11.2150731,33.9300464 C10.8946424,39.5197813 10.7522288,44.6110684 10.6454186,49.3819249 L0,49.3819249 C0.213620439,45.536757 0.427240878,41.4779686 0.640861318,37.0987496 C0.854481757,32.7195306 1.21051582,28.4827252 1.53094648,24.1035062 C1.85137714,19.7242872 2.20741121,15.6654989 2.63465208,11.6067105 C3.06189296,7.54792219 3.48913384,4.05878834 3.95197813,0.92568857 L14.3481728,0.92568857 L14.4905865,0.712068131 Z" id="Fill-1"></path>
                    </g>
                    <polygon id="Fill-4" points="64.4065624 52.8710587 64.4065624 4.3436156 97.126093 4.3436156 97.126093 13.4580877 75.3368082 13.4580877 75.3368082 22.9641972 94.7406648 22.9641972 94.7406648 31.9362557 75.3368082 31.9362557 75.3368082 43.6497764 98.7638497 43.6497764 98.7638497 52.8710587"></polygon>
                    <polygon id="Fill-6" points="142.87647 4.3436156 142.87647 13.6717081 128.207867 13.6717081 128.207867 52.8710587 117.277621 52.8710587 117.277621 13.6717081 102.609018 13.6717081 102.609018 4.3436156"></polygon>
                    <path d="M163.77567,15.3094648 C163.526446,15.9503261 163.206016,16.9472215 162.671964,18.1577373 C162.137913,19.3682532 161.675069,20.7923894 161.034208,22.3233359 C160.393346,23.8542824 159.716882,25.8836766 159.040417,27.5570367 C158.363952,29.2303968 157.509471,31.5090148 156.761799,33.5740124 L170.647128,33.5740124 C169.899456,31.5090148 169.222991,29.4440172 168.47532,27.5570367 C167.727648,25.6700561 167.157994,23.996696 166.481529,22.3233359 L164.843772,18.1577373 C164.416531,16.9472215 163.98929,15.9503261 163.77567,15.3094648 L163.77567,15.3094648 Z M176.877724,52.8710587 C176.343673,51.1976986 175.809621,49.310718 175.133157,47.6017545 C174.456692,45.892791 173.922641,44.0414139 173.28178,42.3324504 L154.16275,42.3324504 C153.521889,44.1126207 152.952234,45.892791 152.311373,47.7085648 C151.670512,49.5243385 151.100857,51.2689054 150.566806,52.8710587 L139.173716,52.8710587 C141.025093,47.6017545 142.734057,42.7952947 144.407417,38.3092654 L149.24948,25.7056595 C150.780427,21.7536814 152.311373,18.0509271 153.84232,14.5261899 C155.373266,11.0014526 156.904213,7.40550856 158.541969,4.23680538 L168.938164,4.23680538 C170.575921,7.79714603 172.106867,11.037056 173.637814,14.5261899 C175.16876,18.0153237 176.699707,21.6468712 178.373067,25.7056595 C180.046427,29.7644479 181.54177,33.8232362 183.179527,38.3092654 C184.817283,42.7952947 186.739867,47.6017545 188.413227,52.8710587 L176.877724,52.8710587 Z" id="Fill-8"></path>
                    <path d="M210.060099,13.1020536 C209.302209,13.0312453 208.53937,13.0312453 207.781481,13.1020536 C207.117742,13.1498299 206.451428,13.1498299 205.78769,13.1020536 L205.78769,27.0941924 L209.34803,27.0941924 C212.277059,27.262857 215.204577,26.7383434 217.892848,25.5632459 C219.895909,24.3526521 221.008871,22.0849932 220.741121,19.7598906 C220.801659,18.5856389 220.543304,17.4168895 219.993449,16.377567 C219.496884,15.4717857 218.772909,14.7109975 217.892848,14.1701558 C216.881363,13.6033481 215.768514,13.2404626 214.617335,13.1020536 C213.300009,13.1020536 211.875872,12.8528298 210.238116,12.8528298 M209.24122,3.56034065 C215.037425,3.22250868 220.808648,4.55718116 225.868011,7.40550856 C229.890104,10.2238833 232.102488,14.9744005 231.671366,19.8667008 C232.067087,24.8468705 229.824291,29.670232 225.761201,32.577117 C220.641483,35.5116316 214.775517,36.8853071 208.885186,36.5290951 L205.324845,36.5290951 L205.324845,52.7286451 L194.572617,52.7286451 L194.572617,5.02008032 C196.958045,4.59283944 199.485887,4.23680538 202.120539,4.02318494 C204.755191,3.8095645 207.140619,3.70275428 209.24122,3.70275428" id="Fill-10"></path>
                    <polygon id="Fill-12" points="239.75334 52.8710587 250.719189 52.8710587 250.719189 4.3436156 239.75334 4.3436156"></polygon>
                    <path d="M284.008374,53.8323507 C277.325383,54.2975298 270.75679,51.9183543 265.921843,47.2813239 C261.455709,42.0771528 259.217503,35.3241668 259.691247,28.4827252 C259.661262,24.8400381 260.288423,21.2217979 261.542624,17.8017033 C262.712299,14.8140368 264.467535,12.0903956 266.705118,9.7909368 C268.930486,7.5891785 271.61836,5.91077733 274.573471,4.8776667 C277.740983,3.76388595 281.078127,3.20970324 284.435615,3.23990999 C286.308158,3.20593525 288.179722,3.34898473 290.02535,3.66715087 C291.51244,3.91647161 292.976948,4.28557511 294.404569,4.77085648 C295.492367,5.08632088 296.552213,5.49120601 297.573272,5.9813723 L299.424649,6.94266427 L296.255946,15.8079125 C294.550828,14.9952058 292.789928,14.3051232 290.986642,13.7429149 C288.781243,13.1473719 286.506383,12.8480481 284.221994,12.8528298 C282.536272,12.8918688 280.866803,13.1921329 279.273121,13.7429149 C277.639659,14.2583441 276.175808,15.2055419 275.036315,16.4843772 C273.749965,17.8871925 272.735816,19.5170751 272.045629,21.2908371 C271.267255,23.5815757 270.905508,25.9932208 270.977527,28.4115184 C270.943147,30.5126747 271.194676,32.6087466 271.725199,34.6421146 C272.225306,36.4578435 273.045146,38.169861 274.14623,39.6977983 C275.275003,41.128764 276.743686,42.2547544 278.418639,42.9733117 C280.464252,43.8033403 282.655479,44.2149518 284.862856,44.1838275 C286.295328,44.2087186 287.72667,44.08944 289.135264,43.8277934 L292.695605,43.1869321 C293.605269,42.9930492 294.489388,42.6943603 295.330257,42.296847 C296.113532,41.9764163 296.754393,41.6559856 297.430858,41.4423652 L300.492751,50.2008032 C298.428293,51.3435665 296.209962,52.1829351 293.906121,52.6930417 C290.730425,53.4954781 287.461151,53.8667143 284.186391,53.7967473" id="Fill-14"></path>
                    <path d="M335.882537,52.8710587 C334.885642,51.3401122 333.710729,49.5599419 332.322197,47.7085648 C330.933664,45.8571876 329.580734,44.1482241 328.049788,42.1188299 C326.518841,40.0894358 324.881085,38.5584893 323.207725,36.7783189 C321.661256,35.1467693 319.982141,33.6462838 318.187644,32.2922897 L318.187644,52.8710587 L307.257398,52.8710587 L307.257398,4.3436156 L318.187644,4.3436156 L318.187644,22.5369563 C321.035917,19.5818736 323.884189,16.5199806 326.732462,13.2444672 C329.580734,9.96895383 332.393403,7.12068131 334.672021,4.23680538 L347.702868,4.23680538 C344.427355,8.1887835 341.045031,12.0339514 337.733914,15.6298955 C334.422798,19.2258395 330.862457,22.9641972 327.230909,26.5957447 C331.31637,30.0847686 335.092524,33.9204838 338.517189,38.0600416 C342.279262,42.7324019 345.75118,47.6311357 348.913384,52.7286451 L335.775727,52.7286451 L335.882537,52.8710587 Z" id="Fill-15"></path>
                </g>
                <g id="Group" transform="translate(0.477559, 0.557728)">
                    <circle id="Oval" fill="#FFFFFF" cx="62.2734455" cy="49.1410673" r="48.6947791"></circle>
                    <path d="M21.4327779,86.741825 C20.1795296,85.4945368 18.4644259,84.82397 16.6975248,84.8904478 C13.9719964,84.993878 11.5993402,86.7840258 10.7517559,89.3764771 C10.5128635,90.1232706 10.4162487,90.9082653 10.4669286,91.6906985 C10.5828724,93.680992 11.5988348,95.5101743 13.2272131,96.6604331 C14.8555915,97.8106918 16.9191504,98.1568309 18.8337292,97.600864 C21.0627115,96.9407096 22.7633675,95.1312116 23.284155,92.8656109 C23.8182351,90.6397931 23.1105375,88.2989471 21.4327779,86.741825 L21.4327779,86.741825 Z" id="Path" fill="#01EBF6" fill-rule="nonzero"></path>
                    <path d="M65.2961747,49.0734209 C66.0743245,48.8183277 66.7407526,48.302789 67.1831553,47.6136812 C67.048911,47.408358 66.8938055,47.217459 66.720311,47.0440267 C65.8543198,46.1275119 64.5429377,45.7824113 63.3379873,46.1539415 C62.5598375,46.4090347 61.8934095,46.9245734 61.4510068,47.6136812 C61.5369508,47.75054 61.6321133,47.8813884 61.7358341,48.0053187 C62.5976249,49.0482698 64.0025964,49.4697613 65.2961747,49.0734209 L65.2961747,49.0734209 Z" id="Path" fill="#DB459D" fill-rule="nonzero"></path>
                    <ellipse id="Oval" fill="#FFBE44" fill-rule="nonzero" transform="translate(116.693658, 21.732727) rotate(-48.000000) translate(-116.693658, -21.732727) " cx="116.693658" cy="21.7327267" rx="5.4473212" ry="5.41171779"></ellipse>
                    <path d="M21.4327779,86.741825 C20.1795296,85.4945368 18.4644259,84.82397 16.6975248,84.8904478 C13.9719964,84.993878 11.5993402,86.7840258 10.7517559,89.3764771 C10.5128635,90.1232706 10.4162487,90.9082653 10.4669286,91.6906985 C10.5828724,93.680992 11.5988348,95.5101743 13.2272131,96.6604331 C14.8555915,97.8106918 16.9191504,98.1568309 18.8337292,97.600864 C21.0627115,96.9407096 22.7633675,95.1312116 23.284155,92.8656109 C23.8182351,90.6397931 23.1105375,88.2989471 21.4327779,86.741825 L21.4327779,86.741825 Z" id="Path" fill="#12BEBF" fill-rule="nonzero"></path>
                    <path d="M111.616207,50.7823844 C111.582703,52.5459545 111.440016,54.3057573 111.188966,56.0516885 C108.602006,74.856606 95.5586958,90.5598681 77.5477446,96.5534411 C59.5367933,102.547014 39.6849693,97.7903912 26.346048,84.2851899 C24.9541521,82.8572277 23.6351511,81.3599833 22.3940698,79.7991607 C9.54124007,81.9709685 1.03202591,81.8997617 0.141940748,79.0514892 C-0.748144416,76.2032166 5.05521085,71.9308079 15.1309749,66.6971071 C22.6500432,62.8699985 30.3626138,59.4355873 38.2375857,56.4077226 L38.6648266,57.8318589 L38.9140505,58.5795304 C39.0328249,58.9807 39.4246099,59.2368671 39.839739,59.1847883 L41.3706855,59.1847883 L42.3319775,59.1847883 C42.4354145,59.4857597 42.6718674,59.7222127 42.9728388,59.8256496 C43.8248764,60.1124538 44.6926483,60.3501995 45.5718875,60.5377178 L45.5718875,60.5377178 C45.8429492,61.3547136 45.9987315,62.2055244 46.0347318,63.0655596 C46.1393577,65.8174823 44.9382864,68.4571994 42.7948218,70.1862409 C44.1725469,70.1226307 45.5365088,69.8833391 46.8536101,69.4741728 C51.5218289,68.1064747 55.3987294,64.8369554 57.5346321,60.466511 C58.3891138,60.2884939 59.279199,60.0748735 60.1336808,59.8256496 C68.4076343,57.3053255 75.088115,51.1619031 78.2914181,43.127652 C78.5050385,42.5936009 78.718659,42.0239464 78.896676,41.4898953 L77.757367,40.6710169 C70.5720293,35.6714859 61.4868747,34.2535716 53.1198097,36.825849 C52.2653279,37.0750729 51.4108462,37.3955035 50.5919678,37.7159342 C45.174899,34.4832475 38.4209538,34.4832475 33.003885,37.7159342 C35.8242155,38.0275797 38.3188123,39.6862211 39.6973254,42.16636 C40.1439789,42.8960369 40.4799329,43.6879286 40.6942208,44.5161848 L40.6942208,44.5161848 C40.0889629,45.1926496 39.483705,45.8691143 38.9140505,46.5811824 C38.7742449,46.861408 38.7742449,47.191042 38.9140505,47.4712676 L38.9140505,47.4712676 L38.0595687,47.9341119 L36.7066393,48.6817834 C36.339024,48.8825498 36.1611299,49.3124605 36.2793984,49.7142822 L36.5286222,50.4619537 L37.1338801,52.4913479 C30.2624227,54.6987591 23.6045857,56.9417737 17.2671793,59.1847883 C16.2571007,59.5238496 15.1482605,59.3927186 14.2451333,58.8274023 C13.342006,58.262086 12.7395281,57.3220103 12.603133,56.265309 C9.40244272,31.594699 24.88237,8.34129009 48.8775563,1.7751307 C72.8727426,-4.79102869 98.0356265,7.34068387 107.842246,30.2036154 C108.178542,31.0229888 108.129583,31.9500018 107.708849,32.7293935 C107.288116,33.5087853 106.539976,34.0583646 105.670438,34.2268003 C102.466131,34.8320583 99.0482041,35.5441264 95.5590703,36.3274013 C94.7862299,34.5174127 92.9674507,33.3806757 91.0018342,33.4791288 C88.4228205,33.6320797 86.4341528,35.8101443 86.515805,38.3923989 L86.515805,38.3923989 C86.5493518,39.1627111 86.7824543,39.9110929 87.1922697,40.5642067 C88.2176474,42.348064 90.2841961,43.2575081 92.29218,42.8085686 C94.300164,42.3596291 95.7826461,40.6567025 95.9507077,38.6060193 C101.006391,37.5023137 105.670438,36.6122286 109.800433,36.0069707 C121.051109,34.3336106 128.349808,34.5828344 129.168686,37.1818831 C129.987564,39.7809318 123.294124,44.9790291 111.616207,50.7823844 Z" id="Path" fill="url(#linearGradient-1)" fill-rule="nonzero"></path>
                    <path d="M61.4510068,47.6136812 C61.8934095,46.9245734 62.5598375,46.4090347 63.3379873,46.1539415 C64.5429377,45.7824113 65.8543198,46.1275119 66.720311,47.0440267 C66.8938055,47.217459 67.048911,47.408358 67.1831553,47.6136812 C67.4589396,47.1587345 67.6292624,46.6477661 67.6816029,46.1183381 C67.7690989,45.7075727 67.7690989,45.2829843 67.6816029,44.8722189 C67.5088412,44.3571601 67.229864,43.8841119 66.8627246,43.483686 C65.9846264,42.5872985 64.6788781,42.2574252 63.480401,42.6292043 C61.7683008,43.2498542 60.80056,45.0624481 61.2373864,46.8304063 C61.2676954,47.1009669 61.3397576,47.3651951 61.4510068,47.6136812 Z" id="Path" fill="#9E4690" fill-rule="nonzero"></path>
                    <path d="M39.6973254,45.5130802 L40.6942208,44.3381678 L40.6942208,44.3381678 C40.4799329,43.5099115 40.1439789,42.7180199 39.6973254,41.988343 C39.0974072,40.9922068 38.2972552,40.1314372 37.3475006,39.4605011 L36.6710359,39.4605011 C35.3489001,39.8763121 34.0817579,40.4501124 32.8970748,41.1694646 C35.7315337,41.4363418 38.2634043,43.0535576 39.6973254,45.5130802 Z" id="Path" fill="#5A4CAD" fill-rule="nonzero"></path>
                    <path d="M45.5718875,63.8488346 L45.5718875,63.8488346 C45.5718875,64.2404721 45.7855079,64.6321095 45.8923181,65.023747 C45.9817484,64.2906606 45.9817484,63.5494222 45.8923181,62.8163358 C45.8563179,61.9563005 45.7005356,61.1054898 45.4294739,60.2884939 L45.4294739,60.2884939 C44.5502346,60.1009757 43.6824628,59.8632299 42.8304252,59.5764258 C42.5840542,59.5032858 42.3863113,59.3187257 42.2963741,59.0779781 L42.2963741,59.0779781 L41.3350821,59.0779781 L39.8041356,59.0779781 C39.3890065,59.1300569 38.9972215,58.8738898 38.8784471,58.4727202 L38.6292232,57.7250487 L38.2019823,56.3009124 C30.3270104,59.3287771 22.6144398,62.7631883 15.0953715,66.5902969 C5.05521085,71.9308079 -0.712541009,76.4524405 0.0707339347,79.0514892 C0.213565686,79.4524291 0.49018131,79.7919119 0.854008878,80.0127811 C2.5985758,81.3301072 7.04900162,81.6149344 13.4932182,80.9740731 C9.93287754,80.9740731 7.83227656,80.3688152 7.44063909,79.1582994 C6.30133008,75.5979587 19.1897632,68.2280536 38.3799994,60.644528 L38.5936198,61.3921995 L38.8428437,62.1042677 C38.9471636,62.5197106 39.342957,62.7937215 39.7685322,62.745129 L41.2994787,62.745129 L42.2607707,62.745129 C42.3547074,63.0596732 42.5926209,63.3108042 42.901632,63.4215937 C43.8273206,63.5284039 44.7174057,63.5284039 45.5718875,63.8488346 Z" id="Path" fill="url(#linearGradient-2)" fill-rule="nonzero"></path>
                </g>
            </g>
        </g>
    </g>
</svg>