<?xml version="1.0" encoding="UTF-8"?>
<svg width="246px" height="51px" viewBox="0 0 246 51" version="1.1" xmlns="http://www.w3.org/2000/svg" xmlns:xlink="http://www.w3.org/1999/xlink">
    <title>logo_vx</title>
    <g id="Page-1" stroke="none" stroke-width="1" fill="none" fill-rule="evenodd">
        <g id="Desktop-HD" transform="translate(-837.000000, -3622.000000)">
            <g id="4" transform="translate(0.000000, 3240.000000)">
                <g id="Con" transform="translate(548.000000, 382.000000)">
                    <g id="logo_vx" transform="translate(289.000000, 0.000000)">
                        <path d="M0,2.1923 L0,48.6133 L5.481,48.6133 L5.481,1.0023 L0,2.1923 Z M7.438,31.6863 L21.857,49.4623 L26.087,46.1563 L13.875,31.3863 L24.421,18.0503 L20.13,14.9293 L7.438,31.6863 Z" id="Fill-1" fill="#FFC600"></path>
                        <g id="Group-14" transform="translate(30.000000, 0.869800)">
                            <path d="M11.2348,43.8733 C12.0258,43.8683 12.8128,43.7683 13.5788,43.5733 C14.4058,43.3713 15.2178,43.1143 16.0098,42.8043 C16.8078,42.4893 17.5738,42.0983 18.2958,41.6343 C18.9718,41.2013 19.6078,40.7093 20.1958,40.1623 L20.1958,32.4683 L14.4998,32.4683 C12.2878,32.2923 10.0768,32.8173 8.1798,33.9683 C6.7838,35.1313 6.0428,36.9023 6.1948,38.7133 C5.8148,41.1753 7.5018,43.4803 9.9638,43.8613 C10.3858,43.9263 10.8148,43.9313 11.2378,43.8763 M0.9428,38.9263 C0.7618,36.0093 1.9928,33.1833 4.2508,31.3293 C7.0748,29.4053 10.4628,28.4853 13.8718,28.7163 L20.1908,28.7163 L20.1908,26.6133 C20.1908,21.5303 17.9678,18.9883 13.5228,18.9883 C12.0048,19.0003 10.4938,19.2023 9.0268,19.5913 C7.5438,19.9603 6.0978,20.4623 4.7048,21.0913 L3.0948,17.1873 C4.7548,16.2543 6.5278,15.5383 8.3698,15.0563 C10.1648,14.5673 12.0158,14.3143 13.8768,14.3023 C21.5838,14.3023 25.4368,18.4463 25.4358002,26.7333 L25.4358002,47.7643 L21.3858,47.7643 L20.7288,44.1733 C19.1608,45.4603 17.4018,46.4943 15.5148,47.2383 C13.8408,47.9243 12.0518,48.2903 10.2418,48.3173 C7.7228,48.4603 5.2558,47.5593 3.4228,45.8253 C1.6978,43.9653 0.8048,41.4843 0.9478,38.9513" id="Fill-2" fill="#FFC600"></path>
                            <path d="M55.3213,14.0666 L59.6123,17.1906 L49.0683,30.5266 L61.2793,45.2966 L57.0523,48.6026 L42.6363,30.8266 L55.3213,14.0666 Z M40.6673,47.7506 L35.1863,47.7506 L35.1863,1.3306 L40.6673,0.1306 L40.6673,47.7506 Z" id="Fill-4" fill="#FFC600"></path>
                            <path d="M76.4131,43.863 C77.2041,43.858 77.9911,43.757 78.7571,43.563 C79.5841,43.361 80.3961,43.104 81.1881,42.794 C81.9851,42.479 82.7501,42.087 83.4711,41.624 C84.1461,41.19 84.7811,40.698 85.3691,40.152 L85.3691,32.458 L79.6751,32.458 C77.4641,32.282 75.2541,32.807 73.3581,33.958 C71.9591,35.119 71.2171,36.891 71.3711,38.703 C70.9901,41.165 72.6771,43.47 75.1391,43.851 C75.5621,43.916 75.9921,43.921 76.4161,43.866 M66.1341,38.926 C65.9531,36.01 67.1831,33.185 69.4401,31.329 C72.2641,29.405 75.6531,28.485 79.0621,28.716 L85.3771,28.716 L85.3771,26.613 C85.3771,21.53 83.1541,18.988 78.7091,18.988 C77.1891,19 75.6771,19.202 74.2071,19.591 C72.7261,19.959 71.2811,20.461 69.8911,21.091 L68.2731,17.178 C69.9321,16.245 71.7041,15.528 73.5461,15.046 C75.3421,14.557 77.1951,14.303 79.0571,14.292 C86.7621,14.292 90.6141,18.436 90.6161,26.723 L90.6161,47.754 L86.5641,47.754 L85.9071,44.163 C84.3391,45.45 82.5801,46.484 80.6931,47.228 C79.0191,47.913 77.2321,48.279 75.4231,48.307 C72.9021,48.452 70.4331,47.55 68.5981,45.815 C66.8751,43.955 65.9821,41.473 66.1261,38.941" id="Fill-6" fill="#FFC600"></path>
                            <path d="M112.6699,18.8062 C110.0639,18.6802 107.5759,19.9052 106.0869,22.0482 C104.3729,24.9032 103.5719,28.2142 103.7909,31.5372 C103.5659,34.8132 104.3679,38.0772 106.0869,40.8752 C109.0439,44.5272 114.4029,45.0902 118.0549,42.1332 C118.5169,41.7582 118.9379,41.3372 119.3129,40.8752 C121.0279,38.0762 121.8289,34.8122 121.6049,31.5372 C121.8229,28.2142 121.0229,24.9042 119.3129,22.0482 C117.8029,19.8962 115.2929,18.6712 112.6669,18.8062 M112.6749,14.3642 C116.7169,14.1582 120.6359,15.7912 123.3359,18.8062 C126.1369,22.4352 127.5159,26.9632 127.2119,31.5372 C127.5119,36.0512 126.1429,40.5182 123.3649,44.0892 C117.4449,49.9312 107.9279,49.9312 102.0089,44.0892 C99.2129,40.5262 97.8329,36.0562 98.1329,31.5372 C97.8279,26.9582 99.2159,22.4272 102.0339,18.8062 C104.7319,15.8022 108.6369,14.1712 112.6699,14.3642" id="Fill-8" fill="#FFC600"></path>
                            <polygon id="Fill-10" fill="#FFFFFF" points="133.253 4 143.253 2 153.253 38 164.253 2 173.253 4 158.253 48 148.253 48"></polygon>
                            <polygon id="Fill-12" fill="#FFFFFF" points="177.253 6 185.253 2 195.253 19 206.253 2 214.253 6 201.253 25 215.253 45 207.253 49 195.253 30 184.253 49 176.253 45 190.253 25"></polygon>
                        </g>
                    </g>
                </g>
            </g>
        </g>
    </g>
</svg>