<?xml version="1.0" encoding="UTF-8"?>
<svg width="160px" height="142px" viewBox="0 0 160 142" version="1.1" xmlns="http://www.w3.org/2000/svg" xmlns:xlink="http://www.w3.org/1999/xlink">
    <title>todayis_BI</title>
    <g id="Page-1" stroke="none" stroke-width="1" fill="none" fill-rule="evenodd">
        <g id="Desktop-HD" transform="translate(-865.000000, -2416.000000)">
            <g id="3" transform="translate(0.000000, 2160.000000)">
                <g id="todayis_BI" transform="translate(865.000000, 256.000000)">
                    <g id="Group-3" transform="translate(34.736842, 0.000000)" fill-rule="nonzero">
                        <path d="M0,47.8947368 C0,19.565 21.4448684,0 47.8947368,0 C74.3446053,0 95.7894737,19.565 95.7894737,47.8947368 C95.7894737,76.2244737 74.3446053,95.7894737 47.8947368,95.7894737 C21.4448684,95.7894737 0,76.2244737 0,47.8947368 Z" id="Path" fill="#FF6347"></path>
                        <path d="M54.7317105,78.6072368 C54.5161842,80.2835526 49.3076316,88.9285526 48.9005263,89.3835526 C48.6579187,89.6989336 48.2917018,89.8951212 47.8947368,89.9223684 L47.8947368,89.9223684 C47.4977718,89.8951212 47.131555,89.6989336 46.8889474,89.3835526 C46.4818421,88.9046053 41.2732895,80.2596053 41.0577632,78.6072368 C25.8511842,75.9251316 16.6793421,64.1071053 16.6793421,47.8947368 C16.6793421,29.3834211 28.8206579,16.6075 47.8947368,16.6075 C66.9688158,16.6075 79.1101316,29.3834211 79.1101316,47.8947368 C79.1101316,64.1071053 69.9382895,75.9251316 54.7317105,78.6072368 Z" id="Path" fill="#FFFFFF"></path>
                        <path d="M32.5521384,37.8366311 L53.6976647,37.8366311 C54.2134696,37.8366311 54.6316121,38.2547736 54.6316121,38.7705785 L54.6316121,47.3437364 C54.6316121,47.8595412 54.2134696,48.2776837 53.6976647,48.2776837 L32.5521384,48.2776837 C29.6875223,48.2778043 27.357893,45.9695477 27.3313921,43.1050521 L27.3313921,43.1050521 C27.3188331,41.7122027 27.8632047,40.372004 28.8436318,39.3825822 C29.8240589,38.3931603 31.1592304,37.8366311 32.5521384,37.8366311 Z" id="Path" fill="#6D6DDF" transform="translate(40.981502, 43.057157) rotate(-145.000000) translate(-40.981502, -43.057157) "></path>
                        <path d="M43.3009875,37.981181 L72.9534436,37.981181 C73.5867301,37.981181 74.1001103,38.4945612 74.1001103,39.1278477 L74.1001103,45.0724091 C74.1001103,45.7056956 73.5867301,46.2190758 72.9534436,46.2190758 L43.3009875,46.2190758 C42.667701,46.2190758 42.1543208,45.7056956 42.1543208,45.0724091 L42.1543208,39.1278477 C42.1543208,38.4945612 42.667701,37.981181 43.3009875,37.981181 Z" id="Rectangle" fill="#191970" transform="translate(58.127216, 42.100128) rotate(150.000000) translate(-58.127216, -42.100128) "></path>
                    </g>
                    <g id="Group" transform="translate(0.000000, 112.631579)" fill="#FFFFFF">
                        <path d="M20.8225001,2.72140351 C20.8060492,4.08456223 19.6750955,5.18033385 18.2875001,5.17754386 L13.1825001,5.17754386 L13.1825001,24.5614035 C13.1193451,26.0234615 11.8945057,27.1768278 10.4050001,27.1768278 C8.9154944,27.1768278 7.69065496,26.0234615 7.62750005,24.5614035 L7.62750005,5.19719298 L2.52250005,5.19719298 C1.62129759,5.197193 0.788552165,4.72484206 0.337950928,3.95807019 C-0.112650309,3.19129832 -0.112650309,2.24659642 0.337950928,1.47982455 C0.788552165,0.713052677 1.62129759,0.240696884 2.52250005,0.240696884 L18.2875001,0.240696884 C18.9584982,0.239397648 19.6025411,0.500024217 20.0779461,0.965246318 C20.5533511,1.43046842 20.8211753,2.06217728 20.8225001,2.72140351 Z" id="Path"></path>
                        <path d="M22.0975001,13.754386 C22.0975001,5.61964912 28.3325001,0 36.0275001,0 C43.7225001,0 49.9575001,5.61964912 49.9575001,13.754386 C49.9575001,21.8891228 43.7225001,27.5087719 36.0275001,27.5087719 C28.3325001,27.5087719 22.0975001,21.8891228 22.0975001,13.754386 Z M44.4025001,13.754386 C44.4025001,8.5522807 40.6525001,4.95649123 36.0275001,4.95649123 C31.4025001,4.95649123 27.6525001,8.5522807 27.6525001,13.754386 C27.6525001,18.9564912 31.4025001,22.5522807 36.0275001,22.5522807 C40.6525001,22.5522807 44.4025001,18.9564912 44.4025001,13.754386 L44.4025001,13.754386 Z" id="Shape"></path>
                        <path d="M77.4575001,13.754386 C77.4575001,21.7466667 71.5375001,27.2680748 63.7725001,27.2680748 L57.3575001,27.2680748 C55.8307372,27.2708118 54.5885012,26.0613446 54.5775001,24.5614035 L54.5775001,2.94736842 C54.5830134,1.44358491 55.8268558,0.2281579 57.3575001,0.230872639 L63.7725001,0.230872639 C71.5375001,0.240701754 77.4575001,5.76210526 77.4575001,13.754386 Z M71.9025001,13.754386 C71.9025001,8.69473684 68.4675001,5.19719298 63.7725001,5.19719298 L60.1375001,5.19719298 L60.1375001,22.3115789 L63.7725001,22.3115789 C68.4875001,22.3115789 71.9025001,18.8140351 71.9025001,13.754386 L71.9025001,13.754386 Z" id="Shape"></path>
                        <path d="M102.2675,27.2287719 C100.849513,27.7967281 99.2301467,27.1402122 98.6325001,25.7550877 L97.1675001,22.2133333 L86.4525001,22.2133333 L84.9875001,25.7501754 C84.6364086,26.6843593 83.7931802,27.3549264 82.7900365,27.4976816 C81.7868927,27.6404367 80.7846536,27.232494 80.178189,26.4345779 C79.5717244,25.6366618 79.4582602,24.5766908 79.8825001,23.6722807 L89.1525001,1.79789474 C89.6131693,0.761119422 90.6663633,0.101074831 91.8175001,0.127719298 C92.9667292,0.0948327275 94.018815,0.757914977 94.4675001,1.79789474 L103.7775,23.6722807 C104.324803,25.0637659 103.659037,26.6318407 102.2675,27.2287719 L102.2675,27.2287719 Z M95.1125001,17.2519298 L91.8125001,9.27438596 L88.4875001,17.2519298 L95.1125001,17.2519298 Z" id="Shape"></path>
                        <path d="M123.6925,4.2245614 L116.4275,16.1466667 L116.4275,24.5614035 C116.364345,26.0234615 115.139506,27.1768278 113.65,27.1768278 C112.160494,27.1768278 110.935655,26.0234615 110.8725,24.5614035 L110.8725,16.1466667 L103.6075,4.2245614 C102.85559,2.93751417 103.289559,1.29601311 104.583943,0.53113582 C105.878327,-0.23374147 107.557664,0.15896497 108.3625,1.41473684 L113.6475,10.5712281 L118.9325,1.41473684 C119.44339,0.579362143 120.369097,0.0752188573 121.360916,0.0922128804 C122.352736,0.109206903 123.259987,0.644756439 123.740916,1.49712516 C124.221846,2.34949388 124.20339,3.3891867 123.6925,4.2245614 L123.6925,4.2245614 Z" id="Path"></path>
                        <path d="M129.1375,24.5614035 L129.1375,2.94736842 C129.200655,1.48531043 130.425494,0.331944178 131.915,0.331944178 C133.404506,0.331944178 134.629345,1.48531043 134.6925,2.94736842 L134.6925,24.5614035 C134.629345,26.0234615 133.404506,27.1768278 131.915,27.1768278 C130.425494,27.1768278 129.200655,26.0234615 129.1375,24.5614035 Z" id="Path"></path>
                        <path d="M149.7125,27.5087719 C146.3625,27.5480702 142.8075,26.4280702 141.1325,25.1901754 C140.121802,24.5916735 139.645609,23.4013477 139.971042,22.2869134 C140.296476,21.172479 141.342563,20.4112239 142.5225,20.4301754 C142.949925,20.445759 143.368426,20.5548418 143.7475,20.7494737 C145.3825,21.5894737 147.0975,22.4687719 149.5875,22.5522807 C152.7375,22.6701754 154.4125,21.4322807 154.4125,19.9487719 C154.4125,15.3115789 139.6225,17.9494737 139.627499,8.19859649 C139.627499,2.55929825 144.5225,0.0392982456 149.6725,0.0392982456 C152.717852,0.134442787 155.681208,1.03194464 158.2525,2.63789474 C158.982326,3.06790643 159.431382,3.84043216 159.4375,4.67649123 C159.384013,5.94725801 158.322058,6.95161993 157.0275,6.95578947 C156.612002,6.94525383 156.205334,6.8356771 155.8425,6.63649123 C153.7175,5.51649123 152.4475,5.04 149.5475,5.04 C146.7275,5.04 145.1775,6.35649123 145.1875,7.90877193 C145.1875,12.7964912 160.0075,10.237193 159.98752,19.5950877 C159.98752,25.1508772 154.6975,27.4547368 149.7125,27.5087719 L149.7125,27.5087719 Z" id="Path"></path>
                    </g>
                </g>
            </g>
        </g>
    </g>
</svg>