<?xml version="1.0" encoding="UTF-8"?>
<svg width="97px" height="21px" viewBox="0 0 97 21" version="1.1" xmlns="http://www.w3.org/2000/svg" xmlns:xlink="http://www.w3.org/1999/xlink">
    <title>logo_vx</title>
    <g id="Page-1" stroke="none" stroke-width="1" fill="none" fill-rule="evenodd">
        <g id="metapick.io" transform="translate(-912.000000, -1035.000000)">
            <g id="Sticky" transform="translate(0.000000, 1010.000000)">
                <g id="2" transform="translate(640.000000, 0.000000)">
                    <g id="logo_vx" transform="translate(272.000000, 25.000000)">
                        <path d="M0,0.85972549 L0,19.0640392 L2.14941176,19.0640392 L2.14941176,0.393058824 L0,0.85972549 Z M2.91686275,12.426 L8.57137255,19.3969804 L10.2301961,18.1005098 L5.44117647,12.3083529 L9.57686275,7.07854902 L7.89411765,5.85462745 L2.91686275,12.426 Z" id="Fill-1" fill="#FFC600"></path>
                        <g id="Group-14" transform="translate(11.764706, 0.341098)">
                            <path d="M4.40580392,17.2052157 C4.716,17.2032549 5.02462745,17.1640392 5.32501961,17.0875686 C5.64933333,17.0083529 5.96776471,16.9075686 6.27835294,16.786 C6.59129412,16.6624706 6.89168627,16.5091373 7.17482353,16.3271765 C7.43992157,16.1573725 7.68933333,15.9644314 7.91992157,15.7499216 L7.91992157,12.7326667 L5.68619608,12.7326667 C4.8187451,12.6636471 3.95168627,12.8695294 3.20776471,13.320902 C2.66031373,13.7769804 2.36972549,14.4714902 2.42933333,15.1816863 C2.28031373,16.1471765 2.94188235,17.051098 3.90737255,17.2005098 C4.07286275,17.226 4.24109804,17.2279608 4.40698039,17.2063922 M0.36972549,15.2652157 C0.298745098,14.1212941 0.781490196,13.0130588 1.66698039,12.286 C2.77443137,11.5314902 4.10305882,11.1707059 5.43992157,11.2612941 L7.91796078,11.2612941 L7.91796078,10.4365882 C7.91796078,8.4432549 7.04619608,7.44639216 5.30305882,7.44639216 C4.70776471,7.45109804 4.11521569,7.53031373 3.53992157,7.68286275 C2.95835294,7.82756863 2.39129412,8.02443137 1.84501961,8.27109804 L1.21364706,6.74011765 C1.86462745,6.37423529 2.55992157,6.09345098 3.28227451,5.90443137 C3.98619608,5.71266667 4.71207843,5.61345098 5.44188235,5.6087451 C8.46423529,5.6087451 9.97521569,7.23384314 9.97482361,10.4836471 L9.97482361,18.731098 L8.38658824,18.731098 L8.12894118,17.3228627 C7.51403922,17.8275686 6.82423529,18.2330588 6.08423529,18.5248235 C5.42776471,18.7938431 4.72619608,18.9373725 4.01639216,18.9479608 C3.02854902,19.0040392 2.06109804,18.6507059 1.34227451,17.9707059 C0.665803922,17.2412941 0.315607843,16.2683529 0.371686275,15.2750196" id="Fill-2" fill="#FFC600"></path>
                            <path d="M21.6946275,5.51631373 L23.3773725,6.74141176 L19.2424706,11.9712157 L24.031098,17.7633725 L22.373451,19.0598431 L16.7201176,12.0888627 L21.6946275,5.51631373 Z M15.9479608,18.7257255 L13.798549,18.7257255 L13.798549,0.521803922 L15.9479608,0.0512156863 L15.9479608,18.7257255 Z" id="Fill-4" fill="#FFC600"></path>
                            <path d="M29.9659216,17.2011765 C30.2761176,17.1992157 30.5847451,17.1596078 30.8851373,17.0835294 C31.209451,17.0043137 31.5278824,16.9035294 31.8384706,16.7819608 C32.1510196,16.6584314 32.4510196,16.5047059 32.7337647,16.3231373 C32.9984706,16.1529412 33.2474902,15.96 33.4780784,15.7458824 L33.4780784,12.7286275 L31.2451373,12.7286275 C30.3780784,12.6596078 29.5114118,12.8654902 28.7678824,13.3168627 C28.2192549,13.7721569 27.9282745,14.4670588 27.9886667,15.1776471 C27.8392549,16.1431373 28.5008235,17.0470588 29.4663137,17.1964706 C29.6321961,17.2219608 29.8008235,17.2239216 29.967098,17.2023529 M25.9349412,15.265098 C25.8639608,14.1215686 26.3463137,13.0137255 27.2314118,12.2858824 C28.3388627,11.5313725 29.6678824,11.1705882 31.0047451,11.2611765 L33.4812157,11.2611765 L33.4812157,10.4364706 C33.4812157,8.44313725 32.609451,7.44627451 30.8663137,7.44627451 C30.2702353,7.45098039 29.6772941,7.53019608 29.1008235,7.6827451 C28.5200392,7.82705882 27.9533725,8.02392157 27.4082745,8.27098039 L26.7737647,6.73647059 C27.4243529,6.37058824 28.1192549,6.08941176 28.8416078,5.90039216 C29.5459216,5.70862745 30.2725882,5.60901961 31.0027843,5.60470588 C34.0243529,5.60470588 35.5349412,7.22980392 35.5357255,10.4796078 L35.5357255,18.7270588 L33.9467059,18.7270588 L33.6890588,17.3188235 C33.0741569,17.8235294 32.3843529,18.2290196 31.6443529,18.5207843 C30.9878824,18.7894118 30.287098,18.9329412 29.5776863,18.9439216 C28.5890588,19.0007843 27.6208235,18.6470588 26.9012157,17.9666667 C26.2255294,17.2372549 25.8753333,16.2639216 25.9318039,15.2709804" id="Fill-6" fill="#FFC600"></path>
                            <path d="M44.1842745,7.37498039 C43.1623137,7.32556863 42.1866275,7.80596078 41.6027059,8.64635294 C40.930549,9.76596078 40.6164314,11.0643922 40.7023137,12.3675294 C40.6140784,13.6522353 40.9285882,14.9322353 41.6027059,16.0294902 C42.7623137,17.4616471 44.8638824,17.6824314 46.2960392,16.5228235 C46.4772157,16.3757647 46.6423137,16.2106667 46.7893725,16.0294902 C47.4619216,14.9318431 47.7760392,13.6518431 47.6881961,12.3675294 C47.7736863,11.0643922 47.4599608,9.76635294 46.7893725,8.64635294 C46.1972157,7.80243137 45.212902,7.32203922 44.183098,7.37498039 M44.1862353,5.63301961 C45.7713333,5.55223529 47.3081961,6.19262745 48.3670196,7.37498039 C49.465451,8.79811765 50.0062353,10.5738039 49.8870196,12.3675294 C50.0046667,14.1377255 49.4678039,15.8894902 48.3783922,17.2898824 C46.0568235,19.5808627 42.3246667,19.5808627 40.0034902,17.2898824 C38.9070196,15.8926275 38.3658431,14.1396863 38.4834902,12.3675294 C38.3638824,10.5718431 38.9081961,8.79498039 40.0132941,7.37498039 C41.0713333,6.19694118 42.6027059,5.55733333 44.1842745,5.63301961" id="Fill-8" fill="#FFC600"></path>
                            <polygon id="Fill-10" fill="#FFFFFF" points="52.2560784 1.56862745 56.1776471 0.784313725 60.0992157 14.9019608 64.4129412 0.784313725 67.9423529 1.56862745 62.06 18.8235294 58.1384314 18.8235294"></polygon>
                            <polygon id="Fill-12" fill="#FFFFFF" points="69.5109804 2.35294118 72.6482353 0.784313725 76.5698039 7.45098039 80.8835294 0.784313725 84.0207843 2.35294118 78.9227451 9.80392157 84.4129412 17.6470588 81.2756863 19.2156863 76.5698039 11.7647059 72.2560784 19.2156863 69.1188235 17.6470588 74.6090196 9.80392157"></polygon>
                        </g>
                    </g>
                </g>
            </g>
        </g>
    </g>
</svg>