<?xml version="1.0" encoding="UTF-8"?>
<svg width="59px" height="22px" viewBox="0 0 59 22" version="1.1" xmlns="http://www.w3.org/2000/svg" xmlns:xlink="http://www.w3.org/1999/xlink">
    <title>logo_yol</title>
    <g id="Page-1" stroke="none" stroke-width="1" fill="none" fill-rule="evenodd">
        <g id="metapick.io" transform="translate(-291.000000, -1034.000000)" fill="#FFC600">
            <g id="Sticky" transform="translate(0.000000, 1010.000000)">
                <g id="logo_yol" transform="translate(291.000000, 24.000000)">
                    <path d="M9.91911724,9.05675517 C10.7646,7.63244483 11.5698759,6.20851379 12.3349448,4.78458276 C13.1000138,3.36065172 13.8047724,1.92647931 14.4492207,0.482444828 L19.6378069,0.482444828 C18.4919103,2.73516897 17.3050483,4.91696207 16.0783586,7.02820345 C14.851669,9.14020345 13.5544276,11.2616862 12.1870138,13.3934103 L12.1870138,21.3873759 L7.48091034,21.3873759 L7.48091034,13.4537207 C6.11349655,11.3223759 4.81132414,9.19065172 3.5743931,7.05854828 C2.33822069,4.92720345 1.14642759,2.73516897 0.000151724138,0.482444828 L5.45994483,0.482444828 C6.10249655,1.92647931 6.79549655,3.36065172 7.53894483,4.78458276 C8.28163448,6.20851379 9.07515172,7.63244483 9.91911724,9.05675517" id="Fill-1"></path>
                    <path d="M24.7963138,10.9199655 C24.7963138,11.9452414 24.9218655,12.8707586 25.1733483,13.695 C25.4244517,14.5196207 25.7866931,15.2285517 26.2593138,15.8217931 C26.7319345,16.4150345 27.3100034,16.8728621 27.9939,17.1941379 C28.6770379,17.5161724 29.461831,17.6766207 30.3467621,17.6766207 C31.2112103,17.6766207 31.9910724,17.5161724 32.684831,17.1941379 C33.3785897,16.8728621 33.9615897,16.4150345 34.4342103,15.8217931 C34.9064517,15.2285517 35.2683138,14.5196207 35.5201759,13.695 C35.7716586,12.8707586 35.8975897,11.9452414 35.8975897,10.9199655 C35.8975897,9.89431034 35.7716586,8.96424138 35.5201759,8.12975862 C35.2683138,7.29489655 34.9064517,6.58141379 34.4342103,5.9877931 C33.9615897,5.39493103 33.3785897,4.93710345 32.684831,4.61506897 C31.9910724,4.29341379 31.2112103,4.1322069 30.3467621,4.1322069 C29.461831,4.1322069 28.6770379,4.29834483 27.9939,4.63024138 C27.3100034,4.96213793 26.7319345,5.42489655 26.2593138,6.01775862 C25.7866931,6.61137931 25.4244517,7.32524138 25.1733483,8.15972414 C24.9218655,8.99458621 24.7963138,9.91441379 24.7963138,10.9199655 M40.7539,10.9199655 C40.7539,12.709931 40.4872448,14.2833103 39.9546931,15.6404828 C39.4217621,16.9980345 38.6923483,18.1348276 37.7675897,19.0497241 C36.8424517,19.965 35.7413138,20.6534483 34.4645552,21.1158276 C33.1870379,21.5782069 31.8146931,21.8095862 30.3467621,21.8095862 C28.9186586,21.8095862 27.5713483,21.5782069 26.304831,21.1158276 C25.0379345,20.6534483 23.9314862,19.965 22.9866241,19.0497241 C22.0406241,18.1348276 21.2967966,16.9980345 20.7543828,15.6404828 C20.2112103,14.2833103 19.9396241,12.709931 19.9396241,10.9199655 C19.9396241,9.13 20.2206931,7.55624138 20.7843483,6.19906897 C21.3468655,4.84151724 22.1062448,3.70017241 23.0621069,2.77503448 C24.0164517,1.85027586 25.1229,1.15651724 26.3803138,0.693758621 C27.6365897,0.231 28.9592448,-2.6951621e-15 30.3467621,-2.6951621e-15 C31.7744862,-2.6951621e-15 33.1221759,0.231 34.3890724,0.693758621 C35.655969,1.15651724 36.7616586,1.85027586 37.7072793,2.77503448 C38.6521414,3.70017241 39.3963483,4.84151724 39.9395207,6.19906897 C40.4823138,7.55624138 40.7539,9.13 40.7539,10.9199655" id="Fill-3"></path>
                    <polygon id="Fill-5" points="58.6419862 17.3452931 58.6419862 21.3872241 44.6754 21.3872241 44.6754 0.482293103 49.3811241 0.482293103 49.3811241 17.3452931"></polygon>
                </g>
            </g>
        </g>
    </g>
</svg>