<svg xmlns="http://www.w3.org/2000/svg" width="180.011" height="11.155" viewBox="0 0 180.011 11.155"><path d="M4.47.3C6.8.3,8.325-.975,8.325-2.94A2.944,2.944,0,0,0,6.21-5.9l-1.74-.69c-1.035-.42-1.44-.78-1.44-1.365,0-.63.465-1.035,1.26-1.035a1.338,1.338,0,0,1,1.095.4,1.338,1.338,0,0,1,.36,1.11h2.43c0-2.025-1.53-3.33-3.84-3.33C2.055-10.8.6-9.57.6-7.725A2.906,2.906,0,0,0,2.73-4.86l1.89.735c.945.375,1.275.7,1.275,1.35,0,.735-.51,1.155-1.41,1.155A1.623,1.623,0,0,1,3.2-2.127a1.623,1.623,0,0,1-.43-1.308H.345C.345-1.08,1.89.3,4.47.3ZM10.185,0h2.43V-4.17h3.63V0h2.43V-10.5h-2.43v4.245h-3.63V-10.5h-2.43ZM27.3,0h2.565L26.3-10.5H23.85L20.3,0h2.56l.36-1.275h3.72ZM23.76-3.18l1.32-4.665L26.4-3.18ZM39.72-6.7a3.648,3.648,0,0,0-1.053-2.722A3.648,3.648,0,0,0,35.955-10.5h-4.47V0h2.43V-2.91H35.19L36.84,0H39.6L37.755-3.33A3.656,3.656,0,0,0,39.72-6.7ZM33.915-8.52H35.58a1.694,1.694,0,0,1,1.235.545A1.694,1.694,0,0,1,37.26-6.7a1.694,1.694,0,0,1-.448,1.268,1.694,1.694,0,0,1-1.232.542H33.915ZM50.46-10.5H47.58L44.115-5.835V-10.5h-2.43V0h2.43V-4.635L47.565,0h2.9L46.335-5.3ZM53.265.15a1.476,1.476,0,0,0,1.047-.427A1.476,1.476,0,0,0,54.75-1.32a1.466,1.466,0,0,0-.435-1.046,1.466,1.466,0,0,0-1.05-.424,1.466,1.466,0,0,0-1.05.424A1.466,1.466,0,0,0,51.78-1.32a1.476,1.476,0,0,0,.438,1.043A1.476,1.476,0,0,0,53.265.15ZM61.4.3c3.075,0,5.07-1.635,5.355-4.11H64.17a2.564,2.564,0,0,1-2.76,1.935c-1.98,0-3.12-1.32-3.12-3.375s1.14-3.375,3.12-3.375A2.564,2.564,0,0,1,64.17-6.69h2.58c-.285-2.475-2.28-4.11-5.355-4.11a5.307,5.307,0,0,0-4.061,1.513A5.307,5.307,0,0,0,55.755-5.25a5.307,5.307,0,0,0,1.579,4.037A5.307,5.307,0,0,0,61.395.3Zm12.3,0a5.37,5.37,0,0,0,4.02-1.547,5.37,5.37,0,0,0,1.59-4,5.37,5.37,0,0,0-1.59-4,5.37,5.37,0,0,0-4.02-1.547,5.37,5.37,0,0,0-4.02,1.547,5.37,5.37,0,0,0-1.59,4,5.37,5.37,0,0,0,1.59,4A5.37,5.37,0,0,0,73.695.3Zm0-2.175a3.058,3.058,0,0,1-2.294-1A3.058,3.058,0,0,1,70.62-5.25,3.058,3.058,0,0,1,71.4-7.627a3.058,3.058,0,0,1,2.294-1,3.074,3.074,0,0,1,2.288,1A3.074,3.074,0,0,1,76.77-5.25a3.074,3.074,0,0,1-.787,2.371,3.074,3.074,0,0,1-2.288,1ZM81.165,0H83.49V-6.855L85.875,0h1.8L90-6.81V0h2.325V-10.5h-2.76l-2.79,7.455L83.985-10.5h-2.82Zm13.65,0H97.14V-6.855L99.525,0h1.8l2.325-6.81V0h2.325V-10.5h-2.76l-2.79,7.455L97.635-10.5h-2.82Zm13.65,0h6.42V-1.95H110.9V-4.26h3.99v-1.9H110.9V-8.55h3.99V-10.5h-6.42ZM125.49-6.7a3.648,3.648,0,0,0-1.053-2.722,3.648,3.648,0,0,0-2.712-1.078h-4.47V0h2.43V-2.91h1.275L122.61,0h2.76l-1.845-3.33A3.656,3.656,0,0,0,125.49-6.7Zm-5.805-1.82h1.665a1.694,1.694,0,0,1,1.235.545A1.694,1.694,0,0,1,123.03-6.7a1.694,1.694,0,0,1-.447,1.272,1.694,1.694,0,0,1-1.234.543h-1.665ZM132.555.3c3.075,0,5.07-1.635,5.355-4.11h-2.58a2.564,2.564,0,0,1-2.76,1.935c-1.98,0-3.12-1.32-3.12-3.375s1.14-3.375,3.12-3.375a2.564,2.564,0,0,1,2.76,1.935h2.58c-.285-2.475-2.28-4.11-5.355-4.11a5.307,5.307,0,0,0-4.061,1.513,5.307,5.307,0,0,0-1.579,4.037,5.307,5.307,0,0,0,1.579,4.037A5.307,5.307,0,0,0,132.555.3Zm7.23-.3h6.42V-1.95h-3.99V-4.26h3.99v-1.9h-3.99V-8.55h3.99V-10.5h-6.42Zm9.762-5.42V-9.668h-1.809V-10.84h5.244v1.172h-1.809V-5.42Zm4.153,0v-5.42h2.146l.916,2.813,1.025-2.812h1.97v5.42h-1.626v-3.9l-1.157,3.464h-1l-1.091-3.289V-5.42Z" transform="translate(20.254 10.844)" fill="#fff"></path><path d="M9.053,22.289A9.493,9.493,0,0,0,5.839,19.9a10.039,10.039,0,0,0-4.173-.873c-.2,0-.409.006-.611.017L0,19.1l.775.719c1.52,1.409,1.787,3.131,1.787,6.228,0,1.263-.56,3.242-1.315,3.426a2.012,2.012,0,0,0,2.51-.517,2.013,2.013,0,0,0,3.137,0,2.013,2.013,0,0,0,3.137,0,2.013,2.013,0,0,0,1.568.751,2.036,2.036,0,0,0,.218-.012A11.623,11.623,0,0,0,9.053,22.289Z" transform="translate(0 -19.027)" fill="#fff"></path></svg>