<svg height="21.76" viewBox="0 0 66.828 21.76" width="66.828" xmlns="http://www.w3.org/2000/svg"><path d="m72.176 38.482h-5.322v8.771a1.482 1.482 0 0 1 -.4 1.008 1.524 1.524 0 0 1 -.989.4h-3.095a1.547 1.547 0 0 1 -1.021-.4 1.475 1.475 0 0 1 -.4-1.008v-8.771h-5.324v9.23a6.246 6.246 0 0 0 .774 3.147 4.879 4.879 0 0 0 2.1 1.925 7.513 7.513 0 0 0 3.186.673h5.168v-.057a5.719 5.719 0 0 0 2.877-.7 4.769 4.769 0 0 0 1.8-2.018 6.557 6.557 0 0 0 .648-2.965v-9.235zm-53.246.55a7.2 7.2 0 0 0 -3.063-.55h-3.434l-1.33.153c-.31.092-.465.153-.465.153v-7.088h-5.29v21.76h5.29v-8.8a1.434 1.434 0 0 1 .433-.978 1.462 1.462 0 0 1 1.021-.4h3.094a1.508 1.508 0 0 1 .99.4 1.437 1.437 0 0 1 .433.978v8.8h5.291v-9.477a5.888 5.888 0 0 0 -.8-3.21 4.821 4.821 0 0 0 -2.167-1.741zm18.006 8.222a1.648 1.648 0 0 1 -.4 1.008 1.678 1.678 0 0 1 -1.021.4h-3.096a1.532 1.532 0 0 1 -.99-.4 1.511 1.511 0 0 1 -.429-1.009v-8.771h-5.29v9.23a6.241 6.241 0 0 0 .743 3.147 4.719 4.719 0 0 0 2.1 1.925 7.409 7.409 0 0 0 3.186.673h5.2v-.057a5.523 5.523 0 0 0 2.847-.7 5.046 5.046 0 0 0 1.825-2.018 7.462 7.462 0 0 0 .65-2.965v-9.235h-5.325zm9.344 6.2h5.29v-21.754h-5.29v21.76z" fill="#c0c0cb" transform="translate(-5.348 -31.697)"/></svg>