<?xml version="1.0" encoding="UTF-8"?>
<svg width="256px" height="40px" viewBox="0 0 256 40" version="1.1" xmlns="http://www.w3.org/2000/svg" xmlns:xlink="http://www.w3.org/1999/xlink">
    <title>logo</title>
    <defs>
        <linearGradient x1="41.6878065%" y1="25.0094733%" x2="58.3121935%" y2="74.9905267%" id="linearGradient-1">
            <stop stop-color="#FF00FF" offset="0%"></stop>
            <stop stop-color="#9D00FF" offset="100%"></stop>
        </linearGradient>
        <linearGradient x1="55.0212603%" y1="81.5217391%" x2="44.9787397%" y2="18.4782609%" id="linearGradient-2">
            <stop stop-color="#00FFBE" offset="0%"></stop>
            <stop stop-color="#603CF7" offset="100%"></stop>
        </linearGradient>
        <linearGradient x1="62.5%" y1="62.5166128%" x2="37.5%" y2="37.4833872%" id="linearGradient-3">
            <stop stop-color="#00FFBE" offset="0%"></stop>
            <stop stop-color="#508CFF" offset="100%"></stop>
        </linearGradient>
        <linearGradient x1="37.5123072%" y1="37.4751701%" x2="62.520512%" y2="62.5248299%" id="linearGradient-4">
            <stop stop-color="#FF00FF" offset="0%"></stop>
            <stop stop-color="#9D00FF" offset="100%"></stop>
        </linearGradient>
    </defs>
    <g id="Page-1" stroke="none" stroke-width="1" fill="none" fill-rule="evenodd">
        <g id="logo" fill-rule="nonzero">
            <g id="Group">
                <g transform="translate(38.073575, 7.837500)" fill="#1A1A1A" id="Shape">
                    <path d="M71.4746258,23.6125 L67.1706564,23.6125 L78.4896585,0 L89.8086606,23.6125 L85.5046913,23.6125 L83.6931512,19.9375 L73.2611791,19.9375 L71.4808725,23.6125 L71.4746258,23.6125 Z M75.1476794,15.9375 L81.7254439,15.9375 L78.4022049,9.1875 L75.1476794,15.9375 Z"></path>
                    <path d="M16.0602397,11.4 C16.8848028,10.2875 17.3720446,8.91875 17.3720446,7.43125 C17.3720446,3.74375 14.3861268,0.75625 10.7005798,0.75625 L-1.42108547e-15,0.75625 L-1.42108547e-15,23.6125 L11.8936976,23.6125 C15.6604516,23.6125 18.7088362,20.5625 18.7088362,16.79375 C18.7088362,14.6 17.6718857,12.64375 16.0602397,11.4 L16.0602397,11.4 Z M10.7005798,4.9 L10.7005798,4.9 C12.0998383,4.9 13.2304892,6.03125 13.2304892,7.43125 C13.2304892,8.83125 12.0998383,9.9625 10.7005798,9.9625 C10.5569059,9.9625 4.29147596,9.9625 4.29147596,9.9625 L4.27898258,4.9 L10.7005798,4.9 Z M11.8936976,19.49375 L4.29147596,19.49375 L4.29147596,14.10625 L11.8936976,14.10625 C13.3804098,14.10625 14.5860209,15.3125 14.5860209,16.8 C14.5860209,18.2875 13.3804098,19.49375 11.8936976,19.49375 L11.8936976,19.49375 Z"></path>
                    <path d="M32.6077213,0.68125 C26.2548376,0.68125 21.1075652,5.83125 21.1075652,12.1875 C21.1075652,18.54375 26.2548376,23.69375 32.6077213,23.69375 C38.9606049,23.69375 44.1078774,18.54375 44.1078774,12.1875 C44.1078774,5.83125 38.9606049,0.68125 32.6077213,0.68125 Z M32.6077213,19.35625 C28.6473199,19.35625 25.4427679,16.14375 25.4427679,12.1875 C25.4427679,8.23125 28.6535666,5.01875 32.6077213,5.01875 C36.561876,5.01875 39.7726746,8.23125 39.7726746,12.1875 C39.7726746,16.14375 36.561876,19.35625 32.6077213,19.35625 Z"></path>
                    <path d="M60.1743638,15.475 C62.9666341,14.3375 64.9343415,11.6 64.9343415,8.39375 C64.9343415,4.175 61.5174021,0.75625 57.3008864,0.75625 L47.3811429,0.75625 L47.3811429,23.6125 L51.5164516,23.6125 L51.5164516,16.00625 L55.4143861,16.00625 L60.7428125,23.6125 L65.7526578,23.6125 L60.1743638,15.475 L60.1743638,15.475 Z M57.3008864,11.86875 L51.5164516,11.86875 L51.5164516,4.925 L57.3008864,4.925 C59.2186202,4.925 60.774046,6.48125 60.774046,8.4 C60.774046,10.31875 59.2186202,11.875 57.3008864,11.875 L57.3008864,11.86875 Z"></path>
                </g>
                <g id="Path">
                    <polygon fill="url(#linearGradient-1)" points="19.0399108 34.5 19.0399108 34.5 19.0399108 23.50625 28.5536195 18.00625 28.5536195 29"></polygon>
                    <polygon fill="url(#linearGradient-2)" points="0 5.5 0 34.5 9.5199554 29 9.5199554 0"></polygon>
                    <polygon fill="url(#linearGradient-3)" points="19.0399108 34.5 9.5199554 29 0 34.5 9.5199554 40"></polygon>
                    <polygon fill="url(#linearGradient-4)" points="28.5536195 18.00625 19.0399108 12.50625 9.5199554 18.00625 19.0399108 23.50625"></polygon>
                </g>
            </g>
            <path d="M142.580969,8 L134.4,8 L134.4,32 L136.22693,32 L136.22693,25.0008285 L142.580969,25.0008285 C147.044883,25.0008285 150.4,21.8392709 150.4,16.5236123 C150.4,11.2079536 147.073609,8.006628 142.580969,8.006628 L142.580969,8 Z M142.546499,22.9991715 L136.22693,22.9991715 L136.22693,10.001657 L142.546499,10.001657 C146.096948,10.001657 148.57307,12.4407622 148.57307,16.5236123 C148.57307,20.6064623 146.062478,23.0057995 142.546499,23.0057995 L142.546499,22.9991715 Z" id="Shape" fill="#1A1A1A"></path>
            <path d="M176,20 C176,27.4719401 170.633826,32 164,32 C157.366174,32 152,27.4719401 152,20 C152,12.5280599 157.399015,8 164,8 C170.600985,8 176,12.5280599 176,20 Z M154.095238,20 C154.095238,26.1956173 158.568144,30.0630679 164.006568,30.0630679 C169.444992,30.0630679 173.917898,26.1956173 173.917898,20 C173.917898,13.8043827 169.484401,9.93693212 164.006568,9.93693212 C158.528736,9.93693212 154.095238,13.7659006 154.095238,20 Z" id="Shape" fill="#1A1A1A"></path>
            <path d="M235.032402,26.5981773 L220.927374,26.5981773 L218.332961,32 L216,32 L227.544134,8 L228.455866,8 L240,32 L237.63352,32 L235.032402,26.5981773 L235.032402,26.5981773 Z M221.872626,24.5965203 L234.080447,24.5965203 L229.595531,15.1980116 C228.837989,13.6006628 228.073743,11.3603977 228.073743,11.3603977 L227.919553,11.3603977 C227.919553,11.3603977 227.162011,13.6006628 226.397765,15.1980116 L221.872626,24.5965203 Z" id="Shape" fill="#1A1A1A"></path>
            <path d="M193.448671,24.7158244 C192.762168,23.7149959 192.172868,22.9991715 192.172868,22.9991715 L192.172868,22.9196355 C196.103555,22.038111 198.065861,19.4399337 198.065861,15.6818558 C198.065861,10.9627175 194.791301,8 189.864273,8 L180.8,8 L180.8,32 L182.73193,32 L182.73193,23.1582436 L190.004004,23.1582436 L196.018502,32 L198.4,32 L193.448671,24.7224524 L193.448671,24.7158244 Z M189.760994,21.1565866 L182.73193,21.1565866 L182.73193,10.001657 L189.797446,10.001657 C193.55195,10.001657 196.140007,12.08285 196.140007,15.6818558 C196.140007,19.2808616 193.867863,21.1632146 189.767069,21.1632146 L189.760994,21.1565866 Z" id="Shape" fill="#1A1A1A"></path>
            <polygon id="Path" fill="#1A1A1A" points="219.2 8 200 8 200 10.001657 208.681437 10.001657 208.681437 32 210.524359 32 210.524359 10.001657 219.2 10.001657"></polygon>
            <polygon id="Path" fill="#1A1A1A" points="243.531337 29.998343 243.531337 8 241.6 8 241.6 32 256 32 256 29.998343"></polygon>
        </g>
    </g>
</svg>