<svg height="24.67" viewBox="0 0 96.833 24.67" width="96.833" xmlns="http://www.w3.org/2000/svg"><g fill="#fff"><path d="m-62.543 0h3.009v-5.066h4.267v5.066h3.009v-12.155h-3.009v4.607h-4.267v-4.607h-3.009zm14.773.255a2.975 2.975 0 0 0 2.6-1.326h.051v1.071h2.652v-8.7h-2.771v4.862a1.548 1.548 0 0 1 -1.53 1.751c-.884 0-1.309-.527-1.309-1.479v-5.134h-2.753v5.712c0 1.934 1.054 3.243 3.06 3.243zm11.951.017c2.244 0 3.706-1.734 3.706-4.624 0-2.618-1.462-4.607-3.723-4.607a2.849 2.849 0 0 0 -2.482 1.241h-.051v-4.437h-2.771v12.155h2.652v-1.105h.034a2.924 2.924 0 0 0 2.635 1.377zm-.781-2.193c-1.139 0-1.853-.986-1.853-2.431 0-1.428.6-2.5 1.819-2.5 1.122 0 1.717.986 1.717 2.482-.001 1.514-.596 2.449-1.683 2.449zm4.742 1.921h3.026l.7-2.193h4.25l.711 2.193h3.162l-4.391-12.155h-3.094zm4.42-4.352.935-2.941c.2-.629.493-1.717.493-1.717h.034s.272 1.088.476 1.717l.918 2.941zm8.109 7.225h2.771v-3.773h.034a2.9 2.9 0 0 0 2.465 1.172c2.278 0 3.791-1.8 3.791-4.624 0-2.618-1.411-4.607-3.723-4.607a3.165 3.165 0 0 0 -2.635 1.309h-.051v-1.05h-2.652zm4.556-4.743c-1.19 0-1.87-.969-1.87-2.38s.612-2.482 1.819-2.482c1.19 0 1.751.986 1.751 2.482 0 1.479-.646 2.38-1.7 2.38zm5.44 4.743h2.771v-3.773h.034a2.9 2.9 0 0 0 2.465 1.172c2.278 0 3.791-1.8 3.791-4.624 0-2.618-1.411-4.607-3.723-4.607a3.165 3.165 0 0 0 -2.635 1.309h-.051v-1.05h-2.652zm4.556-4.743c-1.19 0-1.87-.969-1.87-2.38s.612-2.482 1.819-2.482c1.19 0 1.751.986 1.751 2.482 0 1.479-.646 2.38-1.7 2.38z" transform="translate(97.105 18.012)"/><g fill-rule="evenodd"><path d="m5.72 50.952h-5.72v-5.72a5.72 5.72 0 0 1 9.765-4.045 5.72 5.72 0 0 1 -4.045 9.765" transform="translate(0 -26.282)"/><path d="m18.473.5h-12.686a5.8 5.8 0 0 0 -5.787 5.811v5.945h12.619a5.866 5.866 0 0 0 5.854-5.878z" transform="translate(0 -.5)"/></g></g></svg>