<svg height="20.86" viewBox="0 0 46.226 20.86" width="46.226" xmlns="http://www.w3.org/2000/svg"><g fill="#fff"><path d="m866.8 539.871c6.177-1.707 9.969.009 12.472 5.591 2.11 4.705 5.161 8.988 7.829 13.516-6.665 1.936-8.07 1.437-11.256-3.892-2.964-4.962-5.908-9.938-9.045-15.215z" transform="translate(-866.801 -539.154)"/><path d="m902.352 559.3c-6.151 1.652-9.864.066-12.336-5.389-2.184-4.821-5.323-9.208-8.09-13.871 7.826-1.643 8.082-1.529 11.815 4.781 2.789 4.71 5.599 9.413 8.611 14.479z" transform="translate(-868.407 -539.144)"/><path d="m906.824 556.042c-2.127-3.6-4.018-6.443-5.544-9.47-1.9-3.771-.057-6.791 4.134-7.155.589-.051 1.185-.019 1.778-.019h9.407z" transform="translate(-870.373 -539.169)"/></g></svg>