<?xml version="1.0" encoding="UTF-8"?>
<svg width="32px" height="32px" viewBox="0 0 32 32" version="1.1" xmlns="http://www.w3.org/2000/svg" xmlns:xlink="http://www.w3.org/1999/xlink">
    <title>Token / ic-avax</title>
    <g id="Token-/-ic-avax" stroke="none" stroke-width="1" fill="none" fill-rule="evenodd">
        <g id="avalanche-avax-logo">
            <rect id="Rectangle" fill="#FFFFFF" fill-rule="nonzero" x="6.10386152" y="5.47536618" width="19.770972" height="17.9813582"></rect>
            <path d="M32,16 C32,24.8366445 24.8366445,32 16,32 C7.16344075,32 0,24.8366445 0,16 C0,7.16344075 7.16344075,0 16,0 C24.8366445,0 32,7.16344075 32,16 Z M11.4660559,22.3671904 L8.36090546,22.3671904 C7.70842077,22.3671904 7.38611984,22.3671904 7.1896032,22.2414913 C6.97734221,22.1038615 6.84763782,21.8758988 6.83191478,21.6242876 C6.82011185,21.39249 6.98128362,21.1093901 7.30358455,20.5433822 L14.9705885,7.02924101 C15.2968309,6.4553715 15.4619015,6.16843675 15.670221,6.06231691 C15.8942636,5.94833555 16.1615553,5.94833555 16.3855979,6.06231691 C16.5939174,6.16843675 16.7590093,6.4553715 17.0852304,7.02924101 L18.6614115,9.78064447 L18.6694434,9.79468442 C19.0218056,10.4103329 19.20049,10.7225353 19.2785087,11.0502051 C19.364964,11.4078935 19.364964,11.785225 19.2785087,12.1429134 C19.1998935,12.4730759 19.02302,12.7875366 18.6653316,13.4124953 L14.6380399,20.5316005 L14.6276218,20.5498375 C14.2729374,21.1705566 14.0931877,21.4851664 13.8440692,21.7225033 C13.5728575,21.9819973 13.2466152,22.1705459 12.8889268,22.2768575 C12.5626844,22.3671904 12.1971558,22.3671904 11.4660559,22.3671904 Z M19.3075899,22.3671904 L23.7569108,22.3671904 C24.4133156,22.3671904 24.7435419,22.3671904 24.9401864,22.2376565 C25.1523835,22.1000266 25.2859654,21.868016 25.2978961,21.6166178 C25.3091877,21.392277 25.1515313,21.120213 24.8426099,20.5870999 C24.8319574,20.5689481 24.8213049,20.5504767 24.8104394,20.5316858 L22.581731,16.7190413 L22.5563782,16.6761119 C22.2431957,16.146514 22.0851132,15.8790732 21.8820772,15.7757017 C21.6581625,15.6616991 21.3946205,15.6616991 21.1706844,15.7757017 C20.966285,15.8818216 20.8012144,16.1608948 20.474972,16.7229614 L18.2541891,20.5356272 L18.2465832,20.548751 C17.9214913,21.1099228 17.75902,21.3903595 17.7707377,21.6204527 C17.7864607,21.8720639 17.9161651,22.1038615 18.1284048,22.2414913 C18.3210226,22.3671904 18.6511851,22.3671904 19.3075899,22.3671904 Z" id="Shape" fill="#E84142"></path>
        </g>
    </g>
</svg>