<?xml version="1.0" encoding="UTF-8"?>
<svg width="32px" height="32px" viewBox="0 0 32 32" version="1.1" xmlns="http://www.w3.org/2000/svg" xmlns:xlink="http://www.w3.org/1999/xlink">
    <title>Token / ic-bch</title>
    <g id="Token-/-ic-bch" stroke="none" stroke-width="1" fill="none" fill-rule="evenodd">
        <g id="bitcoin-cash-bch-logo" fill-rule="nonzero">
            <circle id="Oval" fill="#0AC18E" cx="16" cy="16" r="16"></circle>
            <path d="M20.9908629,10.6274112 C20.186802,8.80406091 18.3390863,8.4142132 16.0771574,8.79187817 L15.3502538,5.97360406 L13.6365482,6.41624365 L14.351269,9.22639594 C13.9005076,9.34010152 13.4375635,9.43756345 12.9786802,9.56751269 L12.2639594,6.77360406 L10.5502538,7.21624365 L11.2771574,10.0345178 C10.9076142,10.1401015 7.81725888,10.9319797 7.81725888,10.9319797 L8.28832487,12.7675127 C8.28832487,12.7675127 9.54720812,12.4142132 9.53502538,12.4426396 C10.2335025,12.2598985 10.5624365,12.6091371 10.7167513,12.9380711 L12.7147208,20.6619289 C12.7390863,20.8852792 12.6984772,21.2670051 12.2192893,21.3969543 C12.2477157,21.413198 10.9725888,21.7177665 10.9725888,21.7177665 L11.1593909,23.857868 C11.1593909,23.857868 14.2213198,23.0741117 14.6233503,22.9725888 L15.3583756,25.8233503 L17.0720812,25.3807107 L16.3370558,22.5096447 C16.8081218,22.4 17.2670051,22.2862944 17.7137056,22.1685279 L18.4446701,25.0233503 L20.1583756,24.5807107 L19.4233503,21.7340102 C22.0629442,21.0923858 23.9269036,19.4274112 23.5451777,16.8812183 C23.3015228,15.3461929 21.6243655,14.0873096 20.2314721,13.9451777 C21.0883249,13.1857868 21.5228426,12.0771574 20.9908629,10.6274112 L20.9908629,10.6274112 Z M20.1664975,17.3482234 C20.5076142,19.8700508 17.0030457,20.1786802 15.8456853,20.4832487 L14.8385787,16.7106599 C16,16.4060914 19.5898477,15.1269036 20.1664975,17.3482234 Z M18.0548223,12.2111675 C18.4162437,14.4527919 15.4192893,14.7126904 14.4527919,14.9604061 L13.5350254,11.5370558 C14.5055838,11.2974619 17.319797,10.1360406 18.0548223,12.2111675 Z" id="symbol_1_" fill="#FFFFFF"></path>
        </g>
    </g>
</svg>