<?xml version="1.0" encoding="UTF-8"?>
<svg width="32px" height="32px" viewBox="0 0 32 32" version="1.1" xmlns="http://www.w3.org/2000/svg" xmlns:xlink="http://www.w3.org/1999/xlink">
    <title>Token / ic-dai</title>
    <g id="Token-/-ic-dai" stroke="none" stroke-width="1" fill="none" fill-rule="evenodd">
        <g id="multi-collateral-dai-dai-logo" fill-rule="nonzero">
            <path d="M16,0 C24.8373684,0 32,7.16407164 32,16 C32,24.8373684 24.8373684,32 16,32 C7.16407164,32 0,24.8366484 0,16 C0,7.16407164 7.16407164,0 16,0 Z" id="Path" fill="#F5AC37"></path>
            <path d="M16.5896859,17.1296913 L22.6694267,17.1296913 C22.799028,17.1296913 22.8602286,17.1296913 22.8695887,16.9597696 C22.9192692,16.3412834 22.9192692,15.7191972 22.8695887,15.099991 C22.8695887,14.9797498 22.8098281,14.9300693 22.6795068,14.9300693 L10.5797858,14.9300693 C10.4300243,14.9300693 10.3897039,14.9797498 10.3897039,15.1201512 L10.3897039,16.900009 C10.3897039,17.1296913 10.3897039,17.1296913 10.6294663,17.1296913 L16.5896859,17.1296913 L16.5896859,17.1296913 Z M22.1906219,12.8499685 C22.2079021,12.804608 22.2079021,12.7549275 22.1906219,12.7102871 C22.0891009,12.4892449 21.9688597,12.2782828 21.8291783,12.0802808 C21.6189362,11.7418774 21.3712537,11.4301143 21.0890109,11.1500315 C20.9558096,10.9808298 20.801728,10.8289083 20.6289263,10.700027 C19.7634776,9.96345963 18.7345873,9.44217442 17.6286563,9.1800918 C17.0706507,9.05481055 16.500405,8.99504995 15.9287193,9.00009 L10.5589056,9.00009 C10.4091441,9.00009 10.3889839,9.0598506 10.3889839,9.1901719 L10.3889839,12.7398074 C10.3889839,12.8895689 10.3889839,12.9298893 10.5790658,12.9298893 L22.1186212,12.9298893 C22.1186212,12.9298893 22.2187022,12.9097291 22.2388624,12.8499685 L22.1899019,12.8499685 L22.1906219,12.8499685 Z M22.1906219,19.2097921 C22.0207002,19.1910719 21.8493385,19.1910719 21.6794168,19.2097921 L10.5898659,19.2097921 C10.4401044,19.2097921 10.3897039,19.2097921 10.3897039,19.4099541 L10.3897039,22.8803888 C10.3897039,23.0402304 10.3897039,23.0805508 10.5898659,23.0805508 L15.7098371,23.0805508 C15.9546395,23.099271 16.199442,23.0819908 16.4392044,23.0308703 C17.1822518,22.9775898 17.9130591,22.8163082 18.6100261,22.5506255 C18.8634686,22.4627846 19.1082711,22.3483035 19.3393934,22.2107821 L19.4092341,22.2107821 C20.6094861,21.5865359 21.5843758,20.6058861 22.199262,19.402034 C22.199262,19.402034 22.2691027,19.2508325 22.1906219,19.2112321 L22.1906219,19.2097921 Z M8.3801638,24.8798488 L8.3801638,24.8200882 L8.3801638,22.4901449 L8.3801638,21.700297 L8.3801638,19.3501935 C8.3801638,19.2198722 8.3801638,19.200432 8.2203222,19.200432 L6.0502205,19.200432 C5.9299793,19.200432 5.8802988,19.200432 5.8802988,19.0405904 L5.8802988,17.1404914 L8.200162,17.1404914 C8.3297633,17.1404914 8.3801638,17.1404914 8.3801638,16.9705697 L8.3801638,15.0906309 C8.3801638,14.9703897 8.3801638,14.9408694 8.2203222,14.9408694 L6.0502205,14.9408694 C5.9299793,14.9408694 5.8802988,14.9408694 5.8802988,14.7810278 L5.8802988,13.0213302 C5.8802988,12.9111691 5.8802988,12.8816488 6.0401404,12.8816488 L8.1900819,12.8816488 C8.3398434,12.8816488 8.3801638,12.8816488 8.3801638,12.6915669 L8.3801638,7.30159302 C8.3801638,7.14175142 8.3801638,7.10143101 8.5803258,7.10143101 L16.0799208,7.10143101 C16.6242462,7.12303123 17.1649716,7.18279183 17.699937,7.28143281 C18.802268,7.48519485 19.8613986,7.87903879 20.8298083,8.44136441 C21.4720547,8.81936819 22.0631806,9.27585276 22.5895059,9.80145801 C22.9855099,10.2125821 23.3426334,10.6575466 23.6594366,11.1313113 C23.9740797,11.6115561 24.2354424,12.1249212 24.4406444,12.6613266 C24.4658447,12.801008 24.599766,12.895329 24.7394474,12.8715687 L26.5293853,12.8715687 C26.7590676,12.8715687 26.7590676,12.8715687 26.7691477,13.0918909 L26.7691477,14.7320673 C26.7691477,14.8919089 26.7093871,14.9322293 26.5488255,14.9322293 L25.1685717,14.9322293 C25.0288903,14.9322293 24.9885699,14.9322293 24.99865,15.1122311 C25.0533705,15.7213572 25.0533705,16.3326433 24.99865,16.9417694 C24.99865,17.1116911 24.99865,17.1318513 25.1894519,17.1318513 L26.7684277,17.1318513 C26.8382684,17.2218522 26.7684277,17.3118531 26.7684277,17.402574 C26.7785078,17.5184952 26.7785078,17.6358564 26.7684277,17.7517775 L26.7684277,18.9621096 C26.7684277,19.1320313 26.7187472,19.1824318 26.5682657,19.1824318 L24.6782468,19.1824318 C24.5464855,19.1572316 24.4183242,19.2414724 24.3880839,19.3725137 C23.9380794,20.5425254 23.2180722,21.5915759 22.2878229,22.4325443 C21.9479795,22.7385474 21.5908559,23.0265503 21.2178922,23.2922329 C20.8175682,23.5226352 20.4280443,23.7623976 20.0176402,23.9524795 C19.2623526,24.2923229 18.4703447,24.5428854 17.6574566,24.702007 C16.8856089,24.8402484 16.102961,24.902889 15.3174332,24.8920889 L8.37728377,24.8920889 L8.37728377,24.8820088 L8.3801638,24.8798488 Z" id="Shape" fill="#FEFEFD"></path>
        </g>
    </g>
</svg>