<?xml version="1.0" encoding="UTF-8"?>
<svg width="32px" height="32px" viewBox="0 0 32 32" version="1.1" xmlns="http://www.w3.org/2000/svg" xmlns:xlink="http://www.w3.org/1999/xlink">
    <title>Token / ic-fil</title>
    <g id="Token-/-ic-fil" stroke="none" stroke-width="1" fill="none" fill-rule="evenodd">
        <g id="filecoin-fil-logo">
            <path d="M15.9996699,32 C7.19985144,32 0,24.8001486 0,15.9203318 C0.0799983493,7.12051336 7.19985144,-0.0793380771 16.0796682,0.000660272258 C24.8794866,0.0806586216 31.9993397,7.20051171 31.9993397,16.1603268 C31.9193414,24.8801469 24.7994883,32 15.9996699,32" id="Path" fill="#0090FF"></path>
            <path d="M17.5196385,14.0803698 L17.0396484,16.6403169 L21.5995543,17.2803037 L21.2795609,18.480279 L16.7996534,17.8402922 C16.47966,18.8802707 16.3196633,20.0002476 15.9196715,20.9602278 C15.5196798,22.0802047 15.119688,23.2001816 14.6396979,24.2401601 C13.9997111,25.6001321 12.8797342,26.5601122 11.3597656,26.8001073 C10.4797838,26.960104 9.51980357,26.8801056 8.79981843,26.3201172 C8.55982338,26.1601205 8.31982833,25.8401271 8.31982833,25.6001321 C8.31982833,25.2801387 8.47982503,24.8801469 8.71982008,24.7201502 C8.87981677,24.6401519 9.27980852,24.7201502 9.51980357,24.8001486 C9.75979862,25.0401436 9.99979366,25.360137 10.1597904,25.6801304 C10.6397805,26.3201172 11.2797673,26.4001155 11.919754,25.9201255 C12.6397392,25.2801387 13.0397309,24.4001568 13.279726,23.520175 C13.7597161,21.6002146 14.2397062,19.7602526 14.6396979,17.8402922 L14.6396979,17.5202988 L10.3997854,16.880312 L10.5597821,15.6803367 L14.9596913,16.3203235 L15.5196798,13.8403747 L10.9597739,13.1203896 L11.1197706,11.840416 L15.8396732,12.4804028 C15.9996699,12.0004127 16.0796682,11.6004209 16.2396649,11.2004292 C16.6396567,9.76045889 17.0396484,8.3204886 17.9996286,7.04051501 C18.9596088,5.76054142 20.0795857,4.96055793 21.759551,5.04055628 C22.4795362,5.04055628 23.1995213,5.28055133 23.6795114,5.84053977 C23.7595097,5.92053812 23.9195064,6.08053482 23.9195064,6.24053152 C23.9195064,6.56052492 23.9195064,6.96051666 23.6795114,7.20051171 C23.359518,7.44050676 22.9595263,7.36050841 22.6395329,7.04051501 C22.3995378,6.80051996 22.2395411,6.56052492 21.9995461,6.32052987 C21.519556,5.68054307 20.7995708,5.60054472 20.2395824,6.16053317 C19.8395906,6.56052492 19.4395989,7.12051336 19.1996038,7.68050181 C18.6396154,9.36046714 18.2396236,11.1204308 17.6796352,12.8803945 L22.0795444,13.5203813 L21.759551,14.7203565 L17.5196385,14.0803698" id="Path" fill="#FFFFFF"></path>
        </g>
    </g>
</svg>