<?xml version="1.0" encoding="UTF-8"?>
<svg width="32px" height="32px" viewBox="0 0 32 32" version="1.1" xmlns="http://www.w3.org/2000/svg" xmlns:xlink="http://www.w3.org/1999/xlink">
    <title>Token / ic-usdc</title>
    <g id="Token-/-ic-usdc" stroke="none" stroke-width="1" fill="none" fill-rule="evenodd">
        <g id="usd-coin-usdc-logo" fill-rule="nonzero">
            <path d="M16,32 C24.86672,32 32,24.86672 32,16 C32,7.13328 24.86672,0 16,0 C7.13328,0 0,7.13328 0,16 C0,24.86672 7.13328,32 16,32 Z" id="Path" fill="#2775CA"></path>
            <path d="M20.4,18.53328 C20.4,16.2 19,15.4 16.2,15.06672 C14.2,14.8 13.8,14.26672 13.8,13.33328 C13.8,12.39984 14.46672,11.8 15.8,11.8 C17,11.8 17.66672,12.2 18,13.2 C18.06672,13.4 18.26672,13.53328 18.46672,13.53328 L19.53328,13.53328 C19.8,13.53328 20,13.33328 20,13.06672 L20,13 C19.73328,11.53328 18.53328,10.4 17,10.26672 L17,8.66672 C17,8.4 16.8,8.2 16.46672,8.13328 L15.46672,8.13328 C15.2,8.13328 15,8.33328 14.93328,8.66672 L14.93328,10.2 C12.93328,10.46672 11.66672,11.8 11.66672,13.46672 C11.66672,15.66672 13,16.53328 15.8,16.86672 C17.66672,17.2 18.26672,17.6 18.26672,18.66672 C18.26672,19.73344 17.33328,20.46672 16.06672,20.46672 C14.33328,20.46672 13.73328,19.73328 13.53328,18.73328 C13.46672,18.46672 13.26672,18.33328 13.06672,18.33328 L11.93328,18.33328 C11.66672,18.33328 11.46672,18.53328 11.46672,18.8 L11.46672,18.86672 C11.73328,20.53328 12.8,21.73328 15,22.06672 L15,23.66672 C15,23.93328 15.2,24.13328 15.53328,24.2 L16.53328,24.2 C16.8,24.2 17,24 17.06672,23.66672 L17.06672,22.06672 C19.06672,21.73328 20.4,20.33328 20.4,18.53328 L20.4,18.53328 Z" id="Path" fill="#FFFFFF"></path>
            <path d="M12.6,25.53328 C7.4,23.66672 4.73328,17.86672 6.66672,12.73328 C7.66672,9.93328 9.86672,7.8 12.6,6.8 C12.86672,6.66672 13,6.46672 13,6.13328 L13,5.2 C13,4.93328 12.86672,4.73328 12.6,4.66672 C12.53328,4.66672 12.4,4.66672 12.33328,4.73328 C6,6.73328 2.53328,13.46672 4.53328,19.8 C5.73328,23.53328 8.6,26.4 12.33328,27.6 C12.6,27.73328 12.86672,27.6 12.93328,27.33328 C13,27.26672 13,27.2 13,27.06672 L13,26.13328 C13,25.93328 12.8,25.66672 12.6,25.53328 Z M19.66672,4.73328 C19.4,4.6 19.13328,4.73328 19.06672,5 C19,5.06672 19,5.13328 19,5.26672 L19,6.2 C19,6.46672 19.2,6.73328 19.4,6.86672 C24.6,8.73328 27.26672,14.53328 25.33328,19.66672 C24.33328,22.46672 22.13328,24.6 19.4,25.6 C19.13328,25.73328 19,25.93328 19,26.26672 L19,27.2 C19,27.46672 19.13328,27.66672 19.4,27.73328 C19.46672,27.73328 19.6,27.73328 19.66672,27.66672 C26,25.66672 29.46672,18.93328 27.46672,12.6 C26.26672,8.8 23.33328,5.93328 19.66672,4.73328 Z" id="Shape" fill="#FFFFFF"></path>
        </g>
    </g>
</svg>