<svg height="18" viewBox="0 0 143 18" width="143" xmlns="http://www.w3.org/2000/svg"><path d="m-23.838-20.01v15.877h3.451v-6.788c0-1.726.966-3.06 2.6-3.06 1.243 0 1.841.736 1.841 2.025v7.823h3.451v-8.077a4.036 4.036 0 0 0 -4.348-4.39 4.328 4.328 0 0 0 -3.543 1.657v-5.067zm18.73 16.153c3.543 0 5.568-1.68 5.568-4.809v-7.662h-3.451v7.777a1.969 1.969 0 0 1 -2.117 2.117 1.952 1.952 0 0 1 -2.092-2.117v-7.777h-3.451v7.662c-.003 3.129 2.022 4.809 5.543 4.809zm7.524-16.153v15.877h3.175v-1.749a4.251 4.251 0 0 0 3.909 2.025c2.807 0 5.108-1.795 5.108-6.374s-2.298-6.369-5.108-6.369a4.375 4.375 0 0 0 -3.635 1.634v-5.044zm6.051 13.576c-1.5 0-2.669-.92-2.669-3.8s1.173-3.8 2.669-3.8c1.7 0 2.623 1.035 2.623 3.8 0 2.787-.943 3.8-2.623 3.8z" transform="translate(45.389 20.795)"/><circle cx="5" cy="5" fill="#f86b45" r="5"/><circle cx="11" cy="5" fill="#ed6a04" opacity=".316" r="5"/><rect fill="#ffd9e2" height="18" rx="3" width="70" x="73"/><path d="m-56.421 0h.913l1.782-5.489 1.771 5.489h.913l2.662-7.7h-1.331l-1.826 5.6-1.727-5.6h-.936l-1.727 5.6-1.826-5.6h-1.331zm12.738-2.827a2.321 2.321 0 0 0 -2.453-2.431 2.47 2.47 0 0 0 -2.574 2.695 2.465 2.465 0 0 0 2.618 2.695 2.2 2.2 0 0 0 2.354-1.632h-1.21a1.123 1.123 0 0 1 -1.144.583 1.254 1.254 0 0 1 -1.43-1.254h3.806c.022-.282.033-.447.033-.656zm-3.839-.253a1.229 1.229 0 0 1 1.364-1.232 1.153 1.153 0 0 1 1.3 1.232zm5.137-2.52a.6.6 0 0 0 .448-.333 1.362 1.362 0 0 0 .153-.655q0-.038 0-.067a.37.37 0 0 0 -.013-.067h-.585v-1.168h1.149v1.08a2.255 2.255 0 0 1 -.285 1.168 1.1 1.1 0 0 1 -.865.551zm2.3 5.6h1.2v-2.266c0-1.166.517-1.8 1.364-1.8a3.4 3.4 0 0 1 .473.022v-1.1a1.976 1.976 0 0 0 -.473-.044 1.382 1.382 0 0 0 -1.364 1.056v-.99h-1.2zm8.5-2.827a2.321 2.321 0 0 0 -2.453-2.431 2.47 2.47 0 0 0 -2.574 2.695 2.465 2.465 0 0 0 2.622 2.695 2.2 2.2 0 0 0 2.354-1.632h-1.21a1.123 1.123 0 0 1 -1.144.583 1.254 1.254 0 0 1 -1.43-1.254h3.806c.022-.282.033-.447.033-.656zm-3.835-.253a1.229 1.229 0 0 1 1.364-1.232 1.153 1.153 0 0 1 1.3 1.232zm10.62-2.178a1.823 1.823 0 0 0 -1.672.847v-3.289h-1.2v7.7h1.2v-2.816c0-.9.44-1.419 1.221-1.419.836 0 1.122.473 1.122 1.562v2.673h1.2v-3.223c-.006-1.342-.644-2.035-1.871-2.035zm3.949-.605a.867.867 0 0 0 .891-.891.867.867 0 0 0 -.891-.891.867.867 0 0 0 -.891.891.867.867 0 0 0 .886.891zm-.599 5.863h1.188v-5.126h-1.188zm2.728 0h1.2v-2.266c0-1.166.517-1.8 1.364-1.8a3.4 3.4 0 0 1 .473.022v-1.1a1.976 1.976 0 0 0 -.473-.044 1.382 1.382 0 0 0 -1.364 1.056v-.99h-1.2zm4.62-5.863a.867.867 0 0 0 .891-.891.867.867 0 0 0 -.891-.891.867.867 0 0 0 -.891.891.867.867 0 0 0 .893.891zm-.598 5.863h1.188v-5.126h-1.188zm2.728 0h1.2v-2.816c0-.9.44-1.419 1.221-1.419.836 0 1.122.473 1.122 1.562v2.673h1.2v-3.223c0-1.342-.638-2.035-1.87-2.035a1.823 1.823 0 0 0 -1.672.847v-.715h-1.2zm10-5.126v.693a1.839 1.839 0 0 0 -1.606-.825 2.535 2.535 0 0 0 -2.549 2.695 2.479 2.479 0 0 0 2.519 2.695 1.967 1.967 0 0 0 1.639-.825v.561c0 1.155-.517 1.584-1.5 1.584-.825 0-1.254-.341-1.353-.869h-1.25a1.77 1.77 0 0 0 .814 1.4 3.263 3.263 0 0 0 1.8.462 2.9 2.9 0 0 0 1.76-.451 2.585 2.585 0 0 0 .928-2.214v-4.906zm-1.46 4.191a1.5 1.5 0 0 1 -1.5-1.628 1.5 1.5 0 0 1 1.5-1.628 1.5 1.5 0 0 1 1.518 1.628 1.5 1.5 0 0 1 -1.518 1.628z" fill="#bd3c65" transform="translate(138 13)"/></svg>