<?xml version="1.0" standalone="no"?>
<!DOCTYPE svg PUBLIC "-//W3C//DTD SVG 1.1//EN" "http://www.w3.org/Graphics/SVG/1.1/DTD/svg11.dtd" >
<svg xmlns="http://www.w3.org/2000/svg">
<defs>
  <font id="lqd-essentials" horiz-adv-x="481.88235294117646">
    <font-face font-family="lqd-essentials"
      units-per-em="256" ascent="256"
      descent="0" />
    <missing-glyph horiz-adv-x="0" />
    <glyph glyph-name="speech-bubble"
      unicode="&#xEA02;"
      horiz-adv-x="256" d="M218.512 218.512A127.59999999999998 127.59999999999998 0 0 1 128.008 256C57.312 256 0 198.688 0 128C0 102.456 7.48 78.656 20.368 58.688L20.064 59.192L0.512 0.512L59.192 20.064C78.656 7.48 102.456 0 127.992 0C198.688 0 256 57.312 256 128A127.59999999999998 127.59999999999998 0 0 1 218.512 218.512zM128.008 15.848H127.808C104.272 15.848 82.44 23.128 64.44 35.576L64.808 35.336L61.568 37.552L25.544 25.552L37.552 61.568L35.336 64.808A111.2 111.2 0 0 0 15.84 128.0080000000001C15.84 189.952 66.056 240.16 128 240.16S240.16 189.952 240.16 128C240.16 66.056 189.952 15.84 128 15.84zM187.656 127.32A9.8 9.8 0 1 0 168.056 127.32A9.8 9.8 0 0 0 187.656 127.32zM83.152 127.32A9.8 9.8 0 1 0 63.56 127.32A9.8 9.8 0 0 0 83.16 127.32zM135.408 127.32A9.8 9.8 0 1 0 115.808 127.32A9.8 9.8 0 0 0 135.408 127.32z" />
    <glyph glyph-name="ld-search"
      unicode="&#xEA03;"
      horiz-adv-x="256" d="M106.92 239.992C71.96 234.072 42.176 212.048 26.48 180.512C19.72 166.936 16.328 155.208 15.176 141.416C12.32 107.4 23.832 76.056 47.656 52.92C57.592 43.272 64.808 38.12 76.504 32.28C112.872 14.12 158.488 18.28 190.176 42.64C193.296 45.0400000000001 196.224 47.0000000000001 196.68 47.0000000000001C197.144 47.0000000000001 208.08 36.4240000000001 221 23.4960000000001L244.488 0H256V11.52L232.496 35C219.576 47.92 209 58.744 209 59.064C209 59.384 210.84 62.08 213.08 65.064C221.72 76.6 228.544 91.168 232.248 106C234.0000000000001 113.008 234.368 117.488 234.368 131.504C234.3520000000001 146.624 234.0720000000001 149.56 231.7680000000001 158.136C220.5200000000001 199.952 188.408 230.56 146.936 239.016C136.744 241.096 116.3600000000001 241.584 106.9200000000001 239.992M151.4960000000001 221.544C167.44 216.824 183.1760000000001 207.144 193.7600000000001 195.576C204.1760000000001 184.176 210.7680000000001 172.336 215.7120000000001 156.136C218.0800000000001 148.36 218.352 145.912 218.3600000000001 131.496C218.376 113.008 216.792 105.392 209.9520000000001 91.072C204.6960000000001 80.08 198.9120000000001 72.136 189.8560000000001 63.432C177.3920000000001 51.464 165.0240000000001 44.448 149.0720000000001 40.312C97.7040000000001 26.968 46.4480000000001 57.192 33.4240000000001 108.504C30.2720000000001 120.92 29.8880000000001 138.12 32.4880000000001 150.504C39.7360000000001 184.952 66.1360000000001 212.816 100.1840000000001 221.928C111.1360000000001 224.856 111.3440000000001 224.88 127.5040000000001 224.536C140.2320000000001 224.2640000000001 143.8560000000001 223.816 151.5040000000001 221.5440000000001" />
    <glyph glyph-name="num-10"
      unicode="&#xEA04;"
      horiz-adv-x="240" d="M0 191.056L63.184 218.976V39.464H29.824V173.152L0 161.224V191.04zM105.552 128.144C105.552 179.12 119.928 220.064 171.448 220.064S236.536 179.12 236.536 128.144C236.536 77.704 222.976 36.752 171.448 36.752S105.552 77.704 105.552 128.144zM138.912 128.144C138.912 95.872 145.952 69.296 171.448 69.296C196.4 69.296 203.448 95.872 203.448 128.144C203.448 160.68 196.392 187.528 171.448 187.528C145.96 187.528 138.904 160.68 138.904 128.144z" />
    <glyph glyph-name="num-9"
      unicode="&#xEA05;"
      horiz-adv-x="128" d="M35.152 158.464C34.592 143.12 46.592 130.568 61.928 130.288S90.104 142.008 90.384 157.352C90.384 173.248 78.112 185.528 63.048 185.8C47.704 186.08 35.432 173.8 35.152 158.464zM56.072 98.488C27.616 98.488 -0.28 121.64 0 160.416C0.56 194.728 27.064 219.28 64.44 218.72C98.2 218.16 124.136 194.168 127.488 155.68C131.952 98.768 122.464 28.184 56.632 30.416C35.432 31.256 14.512 37.952 1.672 65.848L33.192 79.24C39.056 67.24 48.264 62.504 57.752 62.504C83.968 62.504 94.848 89.84 93.176 119.136C89.824 109.648 75.6 98.496 56.072 98.496z" />
    <glyph glyph-name="num-8"
      unicode="&#xEA06;"
      horiz-adv-x="136" d="M46.96 167.568C46.96 156.888 54.824 147.608 68.04 147.608C80.976 147.608 88.288 157.168 88.288 167.568C88.288 177.408 80.416 186.688 67.76 186.688S46.96 177.408 46.96 167.568zM34.304 92.208C34.304 75.344 49.488 61.288 67.76 61.288C85.76 61.288 100.944 75.344 100.944 92.216C100.944 107.96 86.88 122.584 69.728 122.584H64.664C47.52 122.584 34.296 107.68 34.296 92.216zM13.496 168.688C13.496 196.248 37.392 218.744 67.76 218.744C97.848 218.744 122.032 196.248 122.032 168.696C122.032 155.76 116.688 145.072 108.256 137.2C124.848 127.648 135.248 111.056 135.248 91.088C135.248 56.504 105.168 28.664 67.768 28.664C30.088 28.664 0 56.504 0 91.088C0 111.336 10.688 127.648 26.992 137.2A43.44 43.44 0 0 0 13.496 168.696z" />
    <glyph glyph-name="num-7"
      unicode="&#xEA07;"
      horiz-adv-x="144" d="M0 213.448H142.28L49.304 19.2H7.72L84.656 179.304H0z" />
    <glyph glyph-name="num-6"
      unicode="&#xEA08;"
      horiz-adv-x="128" d="M91.288 94.52C91.56 109.536 80.088 121.824 65.08 122.096S37.504 110.36 37.24 95.344C37.24 80.056 49.248 67.768 63.992 67.768C79.008 67.496 91.016 79.232 91.288 94.52zM70.536 153.224C98.656 153.224 125.96 130.56 125.688 92.616C125.136 59.032 99.208 35.008 62.352 35.28C29.592 35.824 3.92 59.576 0.92 97.248C-3.44 152.672 5.84 221.744 70.264 219.84C91.016 219.024 111.488 212.472 124.048 185.168L93.2 172.064C87.464 183.8 78.456 188.44 69.168 188.44C43.504 188.44 32.856 161.416 34.496 133.024C37.776 142.032 51.696 153.224 70.536 153.224z" />
    <glyph glyph-name="num-5"
      unicode="&#xEA09;"
      horiz-adv-x="136" d="M99.384 99.384C99.384 120.024 84.184 130.072 65.168 130.072C52.952 130.072 37.472 126.264 24.44 112.152L5.432 123.544L20.368 216.144H121.384V185.464H46.984L40.736 149.08C48.064 155.32 62.176 158.584 73.584 158.584C105.904 158.584 132.512 137.944 132.512 99.384C132.512 61.912 104.544 35.848 61.632 35.848C36.928 35.848 12.488 50.784 0 73.32C2.44 74.68 25.52 89.344 27.968 90.696C35.032 77.664 48.336 68.704 61.64 68.704C85.264 68.704 99.384 83.104 99.384 99.392z" />
    <glyph glyph-name="num-4"
      unicode="&#xEA0A;"
      horiz-adv-x="160" d="M53.536 93.92H97.152V162.496L53.536 93.92zM160.016 61.736H133.84V19.024H97.144V61.744H0L98.056 215.728H133.848V93.92H160.016V61.736z" />
    <glyph glyph-name="num-3"
      unicode="&#xEA0B;"
      horiz-adv-x="136" d="M64.864 112.88H44.312V144.88H64.864C83.056 144.584 86.576 161.016 86.576 166.008C86.576 173.048 83.352 185.088 69.56 187.728C58.4 189.2 47.544 185.68 39.912 176L11.736 194.48C22.592 212.688 44.904 224.424 69.848 222.96C102.728 221.2 125.328 197.72 125.328 169.248C125.328 153.4 115.344 139.6 101.552 131.68C121.8 124.048 135.6 99.976 133.552 79.44C130.024 44.504 96.856 22.2 59.584 24.84C33.168 26.6 10.272 43.04 0 65.344C2.64 66.808 28.76 79.728 31.408 81.192C36.984 69.752 49.312 59.768 62.52 59.768C80.712 59.768 94.8 71.504 94.8 88.232C94.8 93.224 90.992 113.768 64.864 112.888z" />
    <glyph glyph-name="num-2"
      unicode="&#xEA0C;"
      horiz-adv-x="128" d="M122.672 21.888H0.88V40.24L78.68 133.488C85.384 141.352 90.336 149.808 90.336 158.544C90.336 171.368 79.264 181.272 62.944 181.272C47.504 181.272 35.552 169.912 33.224 153.592L0 159.712C5.536 194.384 30.592 215.952 64.4 215.952C97.904 215.952 125.88 192.632 125.88 158.544C125.88 140.184 117.432 123.288 105.48 109.88L58.28 55.976H122.68V21.88z" />
    <glyph glyph-name="num-1"
      unicode="&#xEA0D;"
      horiz-adv-x="72" d="M0 185.36L72.336 217.336V11.816H34.16V164.872L0 151.2z" />
    <glyph glyph-name="lqd-check"
      unicode="&#xEA0E;"
      horiz-adv-x="256" d="M128 256A125.36000000000001 125.36000000000001 0 0 1 63.36 238.48A126 126 0 0 1 17.52 192.56A125.36000000000001 125.36000000000001 0 0 1 0 127.92A125.36000000000001 125.36000000000001 0 0 1 17.52 63.36A126 126 0 0 1 63.44 17.52A125.36000000000001 125.36000000000001 0 0 1 128 -0.08A125.36000000000001 125.36000000000001 0 0 1 192.64 17.52A126 126 0 0 1 238.48 63.36A125.36000000000001 125.36000000000001 0 0 1 256.08 128A111.44 111.44 0 0 1 249.28 168.3199999999999L233.28 152.6399999999999A101.2 101.2 0 0 0 236.4 128A106.56 106.56 0 0 0 221.6 73.1999999999999A103.44 103.44 0 0 0 182.8 34.3999999999999A106.56 106.56 0 0 0 128 19.68A106.56 106.56 0 0 0 73.2 34.4A103.44 103.44 0 0 0 34.48 73.2A106.56 106.56 0 0 0 19.68 128A106.56 106.56 0 0 0 34.48 182.8A103.44 103.44 0 0 0 73.2 221.52A106.56 106.56 0 0 0 128 236.32A105.75999999999998 105.75999999999998 0 0 0 169.6 228A100.48 100.48 0 0 0 202.8 205.84L216.64 219.76A123.04000000000002 123.04000000000002 0 0 1 176.48 246.48A124.87999999999998 124.87999999999998 0 0 1 128 256zM239.12 213.84L128 102.72L85.84 144.88L71.68 130.72L120.96 81.52L128 74.72L135.12 81.52L253.28 199.68z" />
    <glyph glyph-name="lqd-compass"
      unicode="&#xEA0F;"
      horiz-adv-x="256" d="M128 256A125.256 125.256 0 0 1 63.336 238.336A121.744 121.744 0 0 1 17.664 192.664A125.256 125.256 0 0 1 0 128A125.256 125.256 0 0 1 17.664 63.336A124.24 124.24 0 0 1 63.336 17.336A127.064 127.064 0 0 1 128 0A127.064 127.064 0 0 1 192.664 17.336A126.80799999999999 126.80799999999999 0 0 1 238.664 63.336A127.064 127.064 0 0 1 256 128A127.064 127.064 0 0 1 238.664 192.664A124.24 124.24 0 0 1 192.664 238.336A125.256 125.256 0 0 1 128 256zM117.008 234.008H117.336V223.992H138.672V233.992A102.376 102.376 0 0 0 184.504 218.52A107.968 107.968 0 0 0 218.504 184.52A102.376 102.376 0 0 0 233.976 138.68H224V117.352H234A102.376 102.376 0 0 0 218.528 71.52A107.968 107.968 0 0 0 184.504 37.464A102.376 102.376 0 0 0 138.664 21.992V32H117.336V21.992A102.376 102.376 0 0 0 71.504 37.464A107.968 107.968 0 0 0 37.504 71.496A102.376 102.376 0 0 0 22.024 117.336H32V138.664H22A102.376 102.376 0 0 0 37.472 184.496A106.928 106.928 0 0 0 71.368 218.336A105.63200000000002 105.63200000000002 0 0 0 116.976 234zM197.336 197.352L108.336 147.672L58.672 58.64L147.672 108.32zM128.008 144.024A15.424 15.424 0 0 0 139.336 139.352A15.424 15.424 0 0 0 144.008 128.024A15.424 15.424 0 0 0 139.336 116.696A15.424 15.424 0 0 0 128.008 112.024A15.424 15.424 0 0 0 116.68 116.696A15.424 15.424 0 0 0 112 128.024A15.424 15.424 0 0 0 116.672 139.352A15.424 15.424 0 0 0 128 144z" />
    <glyph glyph-name="lqd-atom"
      unicode="&#xEA10;"
      horiz-adv-x="232" d="M113.92 256A36.24 36.24 0 0 1 86.64 242.32A106.48 106.48 0 0 1 66.24 204.4A222.56 222.56 0 0 1 56.08 149.44A198.08000000000004 198.08000000000004 0 0 1 74.96 132.4Q75.28 140.96 76.16 151.2Q87.76 159.12 94.4 163.12A253.36 253.36 0 0 0 133.2 181.6A164.08 164.08 0 0 0 169.6 190.88A86.24 86.24 0 0 0 181.76 191.76A48.88 48.88 0 0 0 197.76 189.44A15.760000000000002 15.760000000000002 0 0 0 206.8 182.96Q211.36 175.04 203.44 159.76Q211.6 152.16 217.76 145.52A67.12 67.12 0 0 1 227.44 171.2A33.28 33.28 0 0 1 223.52 192.64A34.24 34.24 0 0 1 202.48 208.4A87.44 87.44 0 0 1 167.2 210.32A183.44000000000003 183.44000000000003 0 0 1 127.04 200A276.08 276.08 0 0 1 84.72 179.92L79.52 176.88A140.32 140.32 0 0 0 94.24 219.92Q103.84 236.48 113.92 236.56Q123.04 236.56 132.16 222.24Q143.12 225.6 151.68 227.44A68.32 68.32 0 0 1 134.48 248.56A32.88 32.88 0 0 1 113.92 256zM47.84 210.96A68.48 68.48 0 0 1 20.72 206.64A31.36 31.36 0 0 1 4.32 192.64A33.84 33.84 0 0 1 0.8 169.44A76.24 76.24 0 0 1 13.12 140.88Q15.52 137.52 17.36 134.8A191.44 191.44 0 0 1 46.32 105.44A275.84 275.84 0 0 1 84.64 78.8L90.16 75.76A162.48 162.48 0 0 0 58.16 67.84A71.92 71.92 0 0 0 34.08 68.16A19.28 19.28 0 0 0 21.04 75.76Q16.48 83.68 24.4 98.88A158.4 158.4 0 0 0 10.08 113.2A67.12 67.12 0 0 1 0.32 87.44A33.28 33.28 0 0 1 4.16 66.16A33.36 33.36 0 0 1 20.16 52.16A63.76 63.76 0 0 1 46 47.44A92.56 92.56 0 0 1 60.64 48.64A70.4 70.4 0 0 1 69.76 49.92L72.16 50.48Q80.08 52.32 89.84 55.36L96.24 57.2A231.75999999999996 231.75999999999996 0 0 1 125.2 69.36A142.24 142.24 0 0 1 130.64 94Q123.04 89.76 113.92 85.52Q103.6 90.4 94.4 95.52A249.52 249.52 0 0 0 59.12 120.08A173.84 173.84 0 0 0 32.96 146.72A72.08 72.08 0 0 0 21.04 167.84A19.12 19.12 0 0 0 21.04 182.96Q25.6 190.56 42.64 191.44A150.32 150.32 0 0 0 47.84 210.96zM160.16 169.2A144.64 144.64 0 0 1 135.84 161.6Q142.56 157.68 152 151.28Q152.88 138.8 152.88 129.36A236.79999999999998 236.79999999999998 0 0 0 147.44 77.28A133.83999999999997 133.83999999999997 0 0 0 134.32 40.16A34.48 34.48 0 0 0 117.6 22.8A11.52 11.52 0 0 0 113.92 22.16Q104.8 22.16 95.68 36.48Q85.04 33.12 76.16 31.28A68.32 68.32 0 0 1 93.36 10.16A32.88 32.88 0 0 1 113.92 2.72A26.64 26.64 0 0 1 119.68 3.28A43.44 43.44 0 0 1 146.64 23.28A132.4 132.4 0 0 1 165.36 67.52A257.2 257.2 0 0 1 172.4 129.3600000000001L172.08 135.4400000000001A154.64 154.64 0 0 0 195.04 111.84A71.76 71.76 0 0 0 206.8 90.8A19.12 19.12 0 0 0 206.8 75.7600000000001Q202.24 67.8400000000001 185.44 67.2000000000001Q182.72 55.92 180 47.4400000000001H181.84A63.76 63.76 0 0 1 207.68 52.1600000000001A32.72 32.72 0 0 1 223.52 66.0000000000001A35.6 35.6 0 0 1 226.56 92.1600000000001A83.68 83.68 0 0 1 210.4 123.8400000000001A213.28 213.28 0 0 1 160.16 169.2000000000001zM113.92 148.8A18.8 18.8 0 0 1 100.08 143.2A18.8 18.8 0 0 1 94.4 129.36A18.8 18.8 0 0 1 100.08 115.52A18.8 18.8 0 0 1 113.92 109.84A18.8 18.8 0 0 1 127.76 115.52A18.8 18.8 0 0 1 133.36 129.36A18.8 18.8 0 0 1 127.76 143.2A18.8 18.8 0 0 1 113.92 148.8z" />
    <glyph glyph-name="lqd-laptop"
      unicode="&#xEA11;"
      horiz-adv-x="356.17391304347825" d="M27.3808695652174 256V36.7304347826087H0V9.3495652173913H356.2852173913044V36.7304347826087H328.7930434782609V256zM54.7617391304348 228.6191304347826H301.4121739130435V36.7304347826087H54.7617391304348zM250.4347826086957 183.6521739130435L191.7773913043479 124.8834782608696L146.8104347826087 169.9617391304348L136.904347826087 179.3113043478261L127.1095652173913 169.9617391304348L86.0382608695653 128.7791304347826L105.7391304347826 109.0782608695652L136.904347826087 140.3547826086957L181.9826086956522 95.3878260869566L191.7773913043478 85.9269565217392L201.6834782608696 95.3878260869566L270.1356521739131 163.9513043478261zM232.96 77.9130434782609L219.1582608695652 64.2226086956522L232.96 50.4208695652174H287.7217391304348V77.9130434782609z" />
    <glyph glyph-name="lqd-stack"
      unicode="&#xEA12;"
      horiz-adv-x="264.258064516129" d="M0 256V186.5496774193549H219.8296774193549V256zM23.1225806451613 232.8774193548387H196.7070967741935V209.6722580645162H23.1225806451613zM46.2451612903226 163.4270967741936V93.9767741935484H266.1574193548387V163.4270967741936zM69.4503225806452 140.3045161290323H243.0348387096774V117.0993548387097H69.4503225806452zM0 70.8541935483871V1.4038709677419H219.8296774193549V70.8541935483871zM23.1225806451613 47.7316129032258H196.7070967741935V24.6090322580645H23.1225806451613z" />
    <glyph glyph-name="lqd-pen-2"
      unicode="&#xEA13;"
      horiz-adv-x="256" d="M189.152 256L141.864 209.04L71.736 188.824A43.552 43.552 0 0 1 53.472 178.552A40.64 40.64 0 0 1 42.384 161.112L0 29.664L29.68 -0.016L161.104 42.384A40.64 40.64 0 0 1 178.544 53.464A43.736 43.736 0 0 1 188.824 71.416L208.744 141.864L256 189.144zM189.152 226.648L226.648 189.152L199.56 162.056L162.056 199.56zM144.432 187.848L187.808 144.464L168.6 76.952A20 20 0 0 0 163.56 67.832A20.824000000000005 20.824000000000005 0 0 0 154.6 62.256L39.784 25.104L100.44 85.432A21.44 21.44 0 0 1 105.656 84.784A20.168 20.168 0 0 1 120.496 90.816A20.168 20.168 0 0 1 126.528 105.648A20.168 20.168 0 0 1 120.496 120.488A20.168 20.168 0 0 1 105.656 126.5200000000001A21.16 21.16 0 0 1 96.368 124.4A19.76 19.76 0 0 1 89.032 118.368A21.520000000000003 21.520000000000003 0 0 1 85.112 109.728A19.2 19.2 0 0 1 85.44 100.44L25.12 39.784L62.296 154.576A20.824000000000005 20.824000000000005 0 0 0 67.872 163.536A20.016 20.016 0 0 0 77.328 168.592z" />
    <glyph glyph-name="lqd-user"
      unicode="&#xEA14;"
      horiz-adv-x="232" d="M118.8 256A81.52 81.52 0 0 1 77.04 244.88A82.48 82.48 0 0 1 46.8 214.64A81.52 81.52 0 0 1 35.68 172.8A81.44 81.44 0 0 1 45.52 133.52A82.79999999999998 82.79999999999998 0 0 1 72.32 103.76A124 124 0 0 1 34.72 78.16A115.04 115.04 0 0 1 9.36 40.72A116.80000000000003 116.80000000000003 0 0 1 0.08 -5.36H23.76A92.16 92.16 0 0 0 36.56 42.32A96.16000000000001 96.16000000000001 0 0 0 71.12 76.88A92.16 92.16 0 0 0 118.8 89.68A92.16 92.16 0 0 0 166.48 76.88A96.16000000000001 96.16000000000001 0 0 0 201.04 42.32A92.16 92.16 0 0 0 213.84 -5.36H237.6A116.80000000000003 116.80000000000003 0 0 1 228.32 40.64A115.04 115.04 0 0 1 202.96 78.16A124 124 0 0 1 165.28 103.76A82.79999999999998 82.79999999999998 0 0 1 192.16 133.44A81.44 81.44 0 0 1 202 172.8A81.52 81.52 0 0 1 190.88 214.64A82.48 82.48 0 0 1 160.56 244.88A81.52 81.52 0 0 1 118.8 256zM118.8 232.24A57.839999999999996 57.839999999999996 0 0 0 148.72 224.24A59.839999999999996 59.839999999999996 0 0 0 170.24 202.72A57.839999999999996 57.839999999999996 0 0 0 178.24 172.8A57.839999999999996 57.839999999999996 0 0 0 170.24 142.96A59.839999999999996 59.839999999999996 0 0 0 148.72 121.44A57.839999999999996 57.839999999999996 0 0 0 118.8 113.44A57.839999999999996 57.839999999999996 0 0 0 88.88 121.44A59.839999999999996 59.839999999999996 0 0 0 67.36 142.96A57.839999999999996 57.839999999999996 0 0 0 59.44 172.8A57.839999999999996 57.839999999999996 0 0 0 67.36 202.72A59.839999999999996 59.839999999999996 0 0 0 88.96 224.24A57.839999999999996 57.839999999999996 0 0 0 118.8 232.24z" />
    <glyph glyph-name="lqd-envelope"
      unicode="&#xEA15;"
      horiz-adv-x="256" d="M126.04 256L120.92 252.688L0 173.856V3.84H252.16V173.856L131.24 252.688zM126.04 232.96L224.904 168.736L126.04 104.736L27.256 168.736zM19.424 150.816L120.92 85.008L126.04 81.696L232.808 150.816V23.192H19.424z" />
    <glyph glyph-name="lqd-pen"
      unicode="&#xEA16;"
      horiz-adv-x="256" d="M210.296 256A41.936 41.936 0 0 1 194.032 252.76A43.072 43.072 0 0 1 180.032 243.272L15.28 78.528L3.24 18L0 2.72L15.28 5.96L75.896 18L240.64 182.736A41.488 41.488 0 0 1 251.856 202.096A43.672 43.672 0 0 1 251.856 223.928A41.488 41.488 0 0 1 240.64 243.272A43.072 43.072 0 0 1 226.64 252.76A41.936 41.936 0 0 1 210.288 256zM210.296 236.12A22.136 22.136 0 0 0 225.96 228.744A22.136 22.136 0 0 0 233.336 213.08A22.136 22.136 0 0 0 225.96 197.496L218.576 190.272L187.632 221.216L194.784 228.672A22.136 22.136 0 0 0 210.304 236.12zM172.88 206.528L203.832 175.584L77.856 49.616A68.816 68.816 0 0 1 46.912 80.568zM33.52 63.552A50 50 0 0 0 49.928 52.632A50 50 0 0 0 60.848 36.216L26.664 29.368z" />
    <glyph glyph-name="lqd-dollar"
      unicode="&#xEA17;"
      horiz-adv-x="168" d="M161.784 73.888A56.112 56.112 0 0 0 153.888 43.904A57.04 57.04 0 0 0 131.04 23.24A95.68 95.68 0 0 0 95.512 13.496V-14.728H70.72V13.072A88.872 88.872 0 0 0 31.496 24.248A63 63 0 0 0 7.728 47.6A58.8 58.8 0 0 0 0 76.576H26.712A35.024 35.024 0 0 1 33.184 56.168A44.687999999999995 44.687999999999995 0 0 1 51.912 41.296A68.04 68.04 0 0 1 80.472 35.672A70.64 70.64 0 0 1 120.872 45.328A32.424 32.424 0 0 1 134.824 73.888A27.463999999999995 27.463999999999995 0 0 1 120.96 99.008A110.296 110.296 0 0 1 81.232 111.272A207.064 207.064 0 0 0 43.848 120.76A69.216 69.216 0 0 0 16.376 138.656A44.016000000000005 44.016000000000005 0 0 0 5.296 169.816A55.696 55.696 0 0 0 12.096 197.2A51.072 51.072 0 0 0 33.432 217.36A90.296 90.296 0 0 0 70.648 226.6V256H95.512V226.016A82.064 82.064 0 0 0 127.264 215.768A52.336 52.336 0 0 0 147 195.856A56.112 56.112 0 0 0 153.552 168.472H126.752A31.08 31.08 0 0 1 121.216 186.704A35.36 35.36 0 0 1 105.168 198.968A67.624 67.624 0 0 1 79.464 203.336A55.43999999999999 55.43999999999999 0 0 1 42.928 193.84A30.656 30.656 0 0 1 32.088 169.648A25.872 25.872 0 0 1 46.368 145.88A123.392 123.392 0 0 1 89.632 133.864A132.64 132.64 0 0 0 141.712 115.464A46.2 46.2 0 0 0 161.784 73.888z" />
    <glyph glyph-name="ion-ios-play"
      unicode="&#xEA18;"
      horiz-adv-x="256" d="M65.896 37.984A17.504 17.504 0 0 0 57.232 40.304C51.28 43.688 47.568 50.208 47.568 57.312V201C47.568 208.104 51.28 214.624 57.232 218.016A17.424 17.424 0 0 0 74.984 217.768L197.784 144.272A17.84 17.84 0 0 0 197.784 114.04L74.904 40.544A17.592 17.592 0 0 0 65.896 37.984z" />
    <glyph glyph-name="ld-cart"
      unicode="&#xEA19;"
      horiz-adv-x="273.06666666666666" d="M7.5434666666667 247.8592C3.8314666666667 243.1402666666667 4.7445333333333 237.7045333333334 9.6768 235.1616C11.9978666666667 233.9584 17.1690666666667 233.6 32.2133333333333 233.6H51.7290666666667L65.9797333333333 168.2602666666667C73.8048 132.3349333333334 81.152 100.7701333333333 82.2954666666667 98.1333333333333C84.8213333333333 92.3050666666667 89.5829333333333 87.1765333333333 96 83.3706666666667L100.8042666666667 80.5290666666667H229.8709333333333L234.368 82.944C240.3669333333333 86.144 246.2293333333333 92.1514666666667 248.5930666666667 97.5018666666666C250.5642666666667 101.9818666666666 268.8 186.8970666666667 268.8 191.6074666666667C268.8 193.0581333333333 267.6224 195.4048 266.1802666666667 196.8469333333333L263.5605333333333 199.4666666666667H170.2570666666667C82.3125333333334 199.4666666666667 76.9109333333334 199.5776 76.3733333333333 201.3354666666667C76.0576 202.3594666666667 73.6597333333333 213.0261333333333 71.0485333333333 225.0410666666667C67.1914666666667 242.7733333333333 65.8602666666667 247.2448 63.9658666666667 248.7808C61.8666666666667 250.4704 58.9312 250.6666666666667 35.6949333333333 250.6666666666667H9.7536L7.5434666666667 247.8506666666667M249.6 181.4784C249.6 177.28 233.472 105.0453333333333 232.0554666666667 102.8778666666667C228.2752 97.1093333333333 227.8741333333334 97.0752 165.1029333333334 97.0752C109.5936 97.0752 107.0592 97.1690666666667 103.7909333333333 99.1658666666667C101.9136 100.3008 99.6352 102.3744 98.7221333333334 103.7738666666667C97.8176 105.1562666666667 93.312 123.4261333333333 88.7210666666667 144.3498666666667L80.3754666666667 182.4085333333333H164.9834666666667C212.3690666666667 182.4085333333333 249.6 181.9989333333333 249.6 181.4784M103.7312 41.6597333333334C94.6858666666667 39.4154666666667 88.3541333333333 31.8208 87.6714666666667 22.4085333333334C87.0741333333333 14.1226666666667 88.7808 9.5573333333334 94.4298666666667 4.352L99.1488 0H109.2693333333333C119.168 0 119.4837333333333 0.0853333333334 123.3322666666667 3.456C135.0570666666667 13.7557333333334 133.0261333333334 32.896 119.4496 39.9957333333334C115.8314666666667 41.8816 107.9722666666667 42.7264 103.7312 41.6682666666667M212.4458666666667 41.6682666666667C207.3770666666667 40.3882666666667 201.4549333333334 35.3109333333333 198.6645333333334 29.8410666666667C194.0821333333334 20.864 196.4373333333334 9.9328 204.3733333333334 3.3877333333334C208.3072 0.1450666666667 208.8960000000001 0 217.9413333333334 0C228.7957333333334 0 232.0213333333334 1.3312 236.3904000000001 7.6373333333334C241.6810666666667 15.2746666666667 241.9456000000001 23.3813333333334 237.1840000000001 31.7013333333334C232.7040000000001 39.552 221.6704000000001 43.9893333333334 212.4458666666667 41.6597333333334M112.4693333333333 23.9274666666666A6.109866666666667 6.109866666666667 0 0 0 114.1418666666667 20.2666666666667C114.1418666666667 18.1504 111.4794666666667 14.9333333333333 109.7301333333333 14.9333333333333A5.2736 5.2736 0 0 0 104.5418666666667 20.2496C104.5418666666667 24.9685333333333 109.2352 27.1445333333333 112.4693333333333 23.9189333333333M220.8768 24.4992C224.0341333333333 22.8096 223.6501333333334 17.3482666666666 220.2794666666667 15.8122666666666C218.0778666666667 14.8053333333333 217.2501333333334 14.9333333333333 215.4752 16.5290666666666C212.8810666666667 18.8842666666666 212.7701333333334 21.0602666666667 215.1082666666667 23.6458666666667C217.1392 25.8986666666667 218.0266666666667 26.0266666666666 220.8768 24.4992" />
    <glyph glyph-name="ion-ios-add"
      unicode="&#xEA1A;"
      horiz-adv-x="256" d="M130.4 201.52A7.5200000000000005 7.5200000000000005 0 0 0 137.92 193.92V133.28H198.56A7.5200000000000005 7.5200000000000005 0 1 0 198.56 118.08H137.92V57.44A7.5200000000000005 7.5200000000000005 0 1 0 122.72 57.44V118.08H62.08A7.5200000000000005 7.5200000000000005 0 1 0 62.08 133.28H122.72V193.92A7.5200000000000005 7.5200000000000005 0 0 0 130.4 201.52z" />
    <glyph glyph-name="ion-ios-checkmark"
      unicode="&#xEA1B;"
      horiz-adv-x="282.48275862068965" d="M252.4689655172414 227.0455172413793C256.7062068965518 223.0731034482759 257.3241379310345 216.7172413793103 253.528275862069 212.391724137931L107.2551724137931 45.2855172413793A10.41655172413793 10.41655172413793 0 0 0 91.8951724137931 44.8441379310345L29.3958620689656 107.2551724137931A10.41655172413793 10.41655172413793 0 1 0 44.2262068965518 122.2620689655173L98.8689655172414 67.2662068965517L237.8151724137932 226.2510344827587A10.41655172413793 10.41655172413793 0 0 0 252.4689655172414 227.0455172413793z" />
    <glyph glyph-name="ion-ios-remove"
      unicode="&#xEA1C;"
      horiz-adv-x="256" d="M54.56 127.36A7.5200000000000005 7.5200000000000005 0 0 0 62.16 134.96H198.8A7.5200000000000005 7.5200000000000005 0 1 0 198.8 119.92H62.16A7.5200000000000005 7.5200000000000005 0 0 0 54.56 127.36z" />
    <glyph glyph-name="ion-ios-close"
      unicode="&#xEA20;"
      horiz-adv-x="256" d="M72.48 183.52A7.44 7.44 0 0 0 83.04 183.52L130.4 136.16L177.84 183.52A7.44 7.44 0 1 0 188.64 172.96L141.2 125.6L188.64 78.16A7.44 7.44 0 1 0 177.84 67.36L130.4 114.8L83.04 67.36A7.44 7.44 0 1 0 72.48 78.16L119.84 125.6L72.48 172.96A7.44 7.44 0 0 0 72.48 183.52z" />
    <glyph glyph-name="ion-caret-up"
      unicode="&#xEA25;"
      horiz-adv-x="256" d="M205.128 96.456L135.848 177.304A11.888 11.888 0 0 1 117.848 177.304L48.56 96.456C41.952 88.776 47.4 76.8 57.56 76.88H196.128C206.288 76.88 211.736 88.776 205.128 96.456z" />
    <glyph glyph-name="ion-caret-back"
      unicode="&#xEA26;"
      horiz-adv-x="256" d="M159.544 207.44L78.696 138.16A11.888 11.888 0 0 1 78.696 120.16L159.544 50.872C167.224 44.264 179.2 49.712 179.12 59.872V198.44C179.12 208.6 167.224 214.048 159.544 207.44z" />
    <glyph glyph-name="ion-caret-forward"
      unicode="&#xEA28;"
      horiz-adv-x="256" d="M94.144 50.872L174.992 120.152A11.888 11.888 0 0 1 174.992 138.152L94.144 207.44C86.464 214.048 74.488 208.6 74.568 198.44V59.872C74.568 49.712 86.464 44.264 94.144 50.872z" />
    <glyph glyph-name="ion-ios-arrow-back"
      unicode="&#xEA29;"
      horiz-adv-x="96" d="M29 128L92.504 64.496C97 60 97 52 92.504 47.496C90 45 87 44 84 44S78 45 75.496 47.504L3.008 120C-1.496 124.504 -0.992 132 3.512 136.504L75.512 208.504C80.008 213 88.008 213 92.504 208.504S97.008 196 92.504 191.504z" />
    <glyph glyph-name="ion-ios-arrow-up"
      unicode="&#xEA2B;"
      horiz-adv-x="168" d="M84 147L20.496 83.496C16 79 8 79 3.504 83.496C0.992 86 0 89 0 92S1 98 3.504 100.504L76 172.992C80.504 177.496 88 176.992 92.504 172.488L164.504 100.488C169 95.992 169 87.992 164.504 83.488S152 78.992 147.504 83.488z" />
    <glyph glyph-name="ion-ios-arrow-forward"
      unicode="&#xEA2C;"
      horiz-adv-x="96" d="M67 128L3.496 191.504C-1 196 -1 204 3.504 208.496S16.008 213 20.512 208.496L92.512 136.496C97.008 132 97.504 124.496 93.008 120L20.504 47.496C18.008 45 15.008 44 12.008 44S6.008 45 3.504 47.504C-0.992 52 -0.992 60 3.504 64.504z" />
    <glyph glyph-name="ion-caret-down"
      unicode="&#xEA2D;"
      horiz-adv-x="256" d="M48.56 161.856L117.84 81.008A11.888 11.888 0 0 1 135.84 81.008L205.128 161.856C211.736 169.536 206.288 181.512 196.128 181.432H57.56C47.4 181.432 41.952 169.536 48.56 161.856z" />
    <glyph glyph-name="ion-ios-arrow-down"
      unicode="&#xEA2F;"
      horiz-adv-x="168" d="M84 109L147.504 172.504C152 177 160 177 164.504 172.504S169 160 164.504 155.496L92.504 83.496C88 79 80.504 78.496 76 83L3.496 155.504C1.008 158 0 160.992 0 164S1 170 3.504 172.504C8 177 16 177 20.496 172.504z" />
    <glyph glyph-name="md-arrow-down"
      unicode="&#xEA30;"
      horiz-adv-x="256" d="M138.688 213.496V83.648L198.536 143.496L213.496 128L128 42.496L42.496 128L57.456 142.96L117.312 83.648V213.504H138.688z" />
    <glyph glyph-name="md-arrow-forward"
      unicode="&#xEA31;"
      horiz-adv-x="256" d="M42.504 117.312H172.352L112.504 57.464L128 42.504L213.504 128L128 213.504L113.04 198.544L172.352 138.688H42.496V117.312z" />
    <glyph glyph-name="md-arrow-up"
      unicode="&#xEA32;"
      horiz-adv-x="256" d="M138.688 42.496V172.352L198.536 112.504L213.496 128L128 213.504L42.496 128L57.456 113.04L117.312 172.352V42.496H138.688z" />
    <glyph glyph-name="md-arrow-back"
      unicode="&#xEA33;"
      horiz-adv-x="256" d="M213.504 138.688H83.648L143.496 198.536L128 213.496L42.496 128L128 42.496L142.96 57.456L83.648 117.312H213.504V138.688z" />
    <glyph glyph-name="ion-ios-arrow-round-back"
      unicode="&#xEA34;"
      horiz-adv-x="144" d="M52 174A6.336 6.336 0 0 0 52 165L22 134.496H137.504C141 134.496 144 131.504 144 128S141 121.496 137.4960000000001 121.496H22L52 91C54.504 88.496 54.504 84.496 52 82S45.496 79.496 43 82L2 123.504C1.496 124 1 124.504 0.496 125.504S0 127 0 128S1 131.504 2 132.504L43 174A6.336 6.336 0 0 0 52 174z" />
    <glyph glyph-name="ion-ios-arrow-round-down"
      unicode="&#xEA35;"
      horiz-adv-x="96" d="M94 108A6.336 6.336 0 0 0 94 99L52.496 58C51.496 57 49.496 56 48 56C47 56 46.496 56 45.496 56.504S44 57.504 43.496 58L2 99C-0.504 101.504 -0.504 105.504 2 108S8.504 111 11 108.504L41.504 78V193.504C41.504 197 44.504 200 48 200S54.504 197 54.504 193.496V78L85 108A6.336 6.336 0 0 0 94 108z" />
    <glyph glyph-name="md-arrow-round-up"
      unicode="&#xEA36;"
      horiz-adv-x="256" d="M206.304 142.448L139.304 211.504C136.4 214.504 132.448 216 128.104 216H127.904C123.552 216 119.6 214.496 116.704 211.496L49.704 142.456C43.448 136.456 43.448 126.8 49.704 120.856S66.048 114.896 72.304 120.856L112 162.344V55.344C112 46.888 119.152 40.04 128 40.04C137 40.04 144 46.888 144 55.344V162.352L183.704 120.848C189.944 114.896 200.048 114.896 206.296 120.848S212.552 136.448 206.296 142.448z" />
    <glyph glyph-name="md-arrow-round-down"
      unicode="&#xEA37;"
      horiz-adv-x="256" d="M49.704 113.552L116.704 44.504C119.6 41.504 123.552 40 127.904 40H128.104C132.448 40 136.4 41.504 139.304 44.504L206.296 113.544C212.552 119.544 212.552 129.2 206.296 135.144S189.952 141.104 183.696 135.144L144 93.656V200.648C144 209.104 136.848 215.952 128 215.952C119 215.952 112 209.104 112 200.648V93.648L72.296 135.152C66.056 141.104 55.952 141.104 49.696 135.152S43.456 119.552 49.696 113.552z" />
    <glyph glyph-name="md-arrow-round-back"
      unicode="&#xEA38;"
      horiz-adv-x="256" d="M200.696 144H93.696L135.2 183.704C141.152 189.944 141.152 200.048 135.2 206.304S119.6 212.544 113.6 206.304L44.504 139.304C41.504 136.4 40 132.448 40 128.104V127.904C40 123.552 41.504 119.6 44.504 116.704L113.544 49.704C119.544 43.448 129.2 43.448 135.144 49.704S141.104 66.048 135.144 72.304L93.656 112H200.656C209.112 112 215.96 119.152 215.96 128C216.008 137 209.16 144 200.712 144z" />
    <glyph glyph-name="ion-ios-arrow-round-forward"
      unicode="&#xEA39;"
      horiz-adv-x="144" d="M92 174A6.336 6.336 0 0 0 101 174L142 132.496C143 131.504 144 129.504 144 128C144 127 144 126.496 143.496 125.496S142.496 124 142 123.496L101 82C98.496 79.496 94.496 79.496 92 82S89 88.504 91.496 91L122 121.504H6.496C3.008 121.496 0 124.496 0 128S3 134.504 6.504 134.504H122L92 165A6.336 6.336 0 0 0 92 174z" />
    <glyph glyph-name="ion-ios-arrow-round-up"
      unicode="&#xEA3A;"
      horiz-adv-x="96" d="M94 148A6.336 6.336 0 0 0 85 148L54.496 178V62.496C54.496 59 51.496 56 48 56S41.496 59 41.496 62.504V178L11 147.496C8.496 145 4.496 145.496 2 148S-0.504 154.504 2 157L43.504 198C44 198.504 44.504 199 45.504 199.504S47 200 48 200S51.504 199 52.504 198L94 157A6.336 6.336 0 0 0 94 148z" />
    <glyph glyph-name="md-arrow-round-forward"
      unicode="&#xEA3B;"
      horiz-adv-x="256" d="M142.448 49.696L211.496 116.696C214.496 119.6 216 123.552 216 127.896V128.096C216 132.448 214.496 136.4 211.496 139.296L142.456 206.296C136.456 212.552 126.8 212.552 120.856 206.296S114.896 189.952 120.856 183.696L162.344 144H55.352C46.848 144 40 136.848 40 128C40 119 46.848 112 55.296 112H162.296L120.8 72.296A16.536 16.536 0 0 1 120.8 49.704C126.8 43.448 136.448 43.448 142.448 49.704z" />
    <glyph glyph-name="md-arrow-round-up-2"
      unicode="&#xEA3C;"
      horiz-adv-x="256" d="M206.304 142.448L139.304 211.504C136.4 214.504 132.448 216 128.104 216H127.904C123.552 216 119.6 214.496 116.704 211.496L49.704 142.456C43.448 136.456 43.448 126.8 49.704 120.856S66.048 114.896 72.304 120.856L112 162.344V55.344C112 46.888 119.152 40.04 128 40.04C137 40.04 144 46.888 144 55.344V162.352L183.704 120.848C189.944 114.896 200.048 114.896 206.296 120.848S212.552 136.448 206.296 142.448z" />
    <glyph glyph-name="md-arrow-round-down-2"
      unicode="&#xEA3D;"
      horiz-adv-x="256" d="M49.704 113.552L116.704 44.504C119.6 41.504 123.552 40 127.904 40H128.104C132.448 40 136.4 41.504 139.304 44.504L206.296 113.544C212.552 119.544 212.552 129.2 206.296 135.144S189.952 141.104 183.696 135.144L144 93.656V200.648C144 209.104 136.848 215.952 128 215.952C119 215.952 112 209.104 112 200.648V93.648L72.296 135.152C66.056 141.104 55.952 141.104 49.696 135.152S43.456 119.552 49.696 113.552z" />
    <glyph glyph-name="md-arrow-round-back-2"
      unicode="&#xEA3E;"
      horiz-adv-x="256" d="M200.696 144H93.696L135.2 183.704C141.152 189.944 141.152 200.048 135.2 206.304S119.6 212.544 113.6 206.304L44.504 139.304C41.504 136.4 40 132.448 40 128.104V127.904C40 123.552 41.504 119.6 44.504 116.704L113.544 49.704C119.544 43.448 129.2 43.448 135.144 49.704S141.104 66.048 135.144 72.304L93.656 112H200.656C209.112 112 215.96 119.152 215.96 128C216.008 137 209.16 144 200.712 144z" />
    <glyph glyph-name="md-arrow-round-forward-2"
      unicode="&#xEA3F;"
      horiz-adv-x="256" d="M142.448 49.696L211.496 116.696C214.496 119.6 216 123.552 216 127.896V128.096C216 132.448 214.496 136.4 211.496 139.296L142.456 206.296C136.456 212.552 126.8 212.552 120.856 206.296S114.896 189.952 120.856 183.696L162.344 144H55.352C46.848 144 40 136.848 40 128C40 119 46.848 112 55.296 112H162.296L120.8 72.296A16.536 16.536 0 0 1 120.8 49.704C126.8 43.448 136.448 43.448 142.448 49.704z" />
    <glyph glyph-name="lqd-eye"
      unicode="&#xEA41;"
      horiz-adv-x="256" d="M252.04 134.112C249.8 137.248 195.8 210 126.84 210S3.88 137.168 1.568 134.112A8.344 8.344 0 0 1 1.568 124.2C3.8 121.064 57.808 48.312 126.848 48.312S249.808 121.144 252.04 124.2A8.344 8.344 0 0 1 252.04 134.112zM126.84 65.072C76.056 65.072 32.04 113.384 19 129.152C32.04 144.928 75.888 193.232 126.84 193.232C177.632 193.232 221.64 144.928 234.696 129.152C221.648 113.384 177.8 65.072 126.84 65.072zM126.84 179.368C99.176 179.368 76.632 156.824 76.632 129.16S99.176 78.944 126.84 78.944S177.056 101.488 177.056 129.16S154.512 179.368 126.84 179.368zM126.84 95.712C108.432 95.712 93.4 110.744 93.4 129.152S108.432 162.6 126.84 162.6S160.288 147.568 160.288 129.16S145.256 95.712 126.848 95.712z" />
    <glyph glyph-name="lqd-sync"
      unicode="&#xEA42;"
      horiz-adv-x="256" d="M32.04 127.76C32.04 175.32 66.792 214.496 112.256 222.176V207.904L144.288 231.952L112.256 256V238.704C57.952 230.864 16.056 184.16 16.056 127.76C16.056 87.184 37.776 51.736 70.056 31.952L84.016 42.432C53.216 58.488 32.12 90.672 32.04 127.76zM240.488 127.76C240.488 168.336 218.76 203.792 186.488 223.496L172.528 213.016C203.328 196.968 224.424 164.776 224.424 127.768C224.424 80.216 189.672 40.888 144.288 33.208V47.552L112.256 23.504L144.288 -0.544V16.832C198.592 24.672 240.488 71.368 240.488 127.768z" />
    <glyph glyph-name="lqd-bars"
      unicode="&#xEA43;"
      horiz-adv-x="390.0952380952381" d="M0 -4.3885714285714V25.112380952381H390.5828571428571V-4.3885714285714H0zM0 108.2514285714286V137.752380952381H390.5828571428571V108.1295238095239L0 108.2514285714286zM0 226.4990476190476V256H390.5828571428571V226.4990476190476H0z" />
    <glyph glyph-name="lqd-dots"
      unicode="&#xEA44;"
      horiz-adv-x="481.88235294117646" d="M128.4517647058824 155.2564705882353A27.85882352941177 27.85882352941177 0 1 0 128.4517647058824 99.6894117647059A27.85882352941177 27.85882352941177 0 0 0 128.4517647058824 155.2564705882353zM239.8870588235294 155.2564705882353A27.85882352941177 27.85882352941177 0 1 0 239.8870588235294 99.6894117647059A27.85882352941177 27.85882352941177 0 0 0 239.8870588235294 155.2564705882353zM351.1717647058823 155.2564705882353A27.85882352941177 27.85882352941177 0 1 0 351.1717647058823 99.6894117647059A27.85882352941177 27.85882352941177 0 0 0 351.1717647058823 155.2564705882353z" />
    <glyph glyph-name="lqd-dots-alt"
      unicode="&#xEA45;"
      horiz-adv-x="256" d="M52.704 240.944A37.648 37.648 0 1 1 52.704 165.648A37.648 37.648 0 1 1 52.704 240.944zM52.704 90.352A37.648 37.648 0 1 1 52.704 15.056A37.648 37.648 0 1 1 52.704 90.352zM203.296 240.944A37.648 37.648 0 1 1 203.296 165.648A37.648 37.648 0 1 1 203.296 240.944zM203.296 90.352A37.648 37.648 0 1 1 203.296 15.056A37.648 37.648 0 1 1 203.296 90.352z" />
    <glyph glyph-name="ld-search-2"
      unicode="&#xEA46;"
      horiz-adv-x="256" d="M98.504 243.6C54.256 235.04 20.192 200.496 12.504 156.4C3.008 101.88 37.576 49.152 91.84 35.392C122.12 27.712 156.024 34.472 180.64 53.104L186.776 57.744L215.64 28.84L244.504 -0.064L250.008 0.216L255.512 0.496L255.816 5.936L256.128 11.376L227.44 40.072L198.752 68.776L205.272 78.632C223.712 106.536 228.528 137.28 219.384 168.824C209.176 204.056 180.808 231.656 144.52 241.648C133.224 244.76 109.664 245.76 98.504 243.6M134.008 227.584C167.408 221.608 196.064 194.976 205.128 161.504C208.008 150.864 208.352 128.944 205.8 118.496C199.016 90.776 180.976 68.616 155.24 56.4C142.272 50.248 134.544 48.6479999999999 117.512 48.592C104.864 48.544 101.288 48.888 94.712 50.776C62.36 60.072 39.112 83.312 29.776 115.712C27.856 122.352 27.536 125.776 27.6 139C27.664 152.832 27.96 155.448 30.344 163.28C39.224 192.432 59.32 213.592 88.12 224.096C92.672 225.76 98.896 227.488 101.952 227.936C110.672 229.216 125.792 229.056 134.008 227.584" />
    <glyph glyph-name="lqd-user-2"
      unicode="&#xEA47;"
      horiz-adv-x="240" d="M100.96 250.56C91.12 247.28 84.88 243.2 76.56 234.8C64.8 222.96 59.76 210.24 59.76 193.04C59.76 176.56 65.76 162.4 77.76 150.4C89.44 138.8 102.64 133.44 119.12 133.44C130.16 133.44 136.88 134.88 145.76 139.2C159.04 145.68 170.32 158 175.76 172.16C179.04 180.72 180.24 197.28 178.24 206.88C174.16 226.48 156 245.52 135.76 251.28C126.96 253.76 109.44 253.44 100.96 250.56zM130.08 235.92C138.32 233.76 142.96 231.2 149.68 225.04C163.52 212.4 167.36 190.96 158.8 173.68C155.2 166.4 146 157.12 138.96 153.68C131.28 149.92 121.28 148.56 112.56 149.92C89.04 153.6 72.56 176.4 76.24 200.08C77.68 209.52 81.68 217.28 88.56 224.24C100 235.68 114.96 239.92 130.08 235.92zM35.04 87.84C47.36 94 50.32 94.24 116.48 94.24C182.64 94.24 185.6 94 197.92 87.84C206.64 83.44 219.92 70.4 224.48 61.76C230.08 51.04 231.2 44.64 231.28 23.12C231.36 0.88 231.28 0.56 223.6 0.56C216 0.56 215.44 1.84 215.44 20.72C215.44 38.24 214.48 44.8 210.88 52.8C207.92 59.2 199.52 68.56 193.44 72C183.04 78 185.36 79.2 116.48 78.8C47.6 79.12 49.92 77.92 39.52 72C33.44 68.48 25.04 59.2 22.08 52.8C18.4 44.8 17.52 38.32 17.52 20.72C17.52 1.84 16.96 0.56 9.36 0.56C1.68 0.56 1.52 0.88 1.6 23.12C1.68 44.56 2.88 51.04 8.48 61.7600000000001C13.04 70.4 26.32 83.52 35.04 87.84z" />
    <glyph glyph-name="lqd-volume-low"
      unicode="&#xEA48;"
      horiz-adv-x="256" d="M146.664 49.8A11.888 11.888 0 0 0 139.64 52.112L139.32 52.352L93.976 89.52H59.456A11.888 11.888 0 0 0 47.568 101.4080000000001V156.9040000000001A11.888 11.888 0 0 0 59.456 168.7920000000001H93.976L139.312 205.9600000000001L139.64 206.2000000000001A11.888 11.888 0 0 0 158.552 196.6240000000001V61.6880000000001A11.888 11.888 0 0 0 146.664 49.8zM190.264 89.52A7.928 7.928 0 0 0 183.16 101C187.872 110.328 190.264 119.824 190.264 129.16C190.264 138.736 187.952 147.984 183.248 157.24A7.944 7.944 0 0 0 197.368 164.504C203.312 152.856 206.12 141.384 206.12 129.16C206.12 117.344 203.152 105.456 197.368 93.896A7.928 7.928 0 0 0 190.264 89.52z" />
    <glyph glyph-name="lqd-volume-high"
      unicode="&#xEA49;"
      horiz-adv-x="256" d="M114.952 49.88A11.808 11.808 0 0 0 107.936 52.192A4.128 4.128 0 0 0 107.6 52.432L62.352 89.52H27.744A11.888 11.888 0 0 0 15.856 101.408V156.904A11.888 11.888 0 0 0 27.744 168.792H62.352L107.6 205.872A4.128 4.128 0 0 0 107.936 206.12A11.888 11.888 0 0 0 126.84 196.5440000000001V61.76A11.888 11.888 0 0 0 114.952 49.872zM62.352 89.52zM62.184 168.712zM158.552 89.512A7.928 7.928 0 0 0 151.456 101C156.16 110.328 158.552 119.824 158.552 129.16C158.552 138.736 156.24 147.984 151.536 157.24A7.944 7.944 0 0 0 165.656 164.504C171.6 152.936 174.408 141.384 174.408 129.16C174.408 117.344 171.44 105.456 165.656 93.896A7.928 7.928 0 0 0 158.552 89.52zM182.336 65.736A7.928 7.928 0 0 0 175.48 77.624C184.816 93.896 190.264 107.6 190.264 129.16C190.264 151.04 184.816 164.584 175.48 180.68A7.928 7.928 0 0 0 189.192 188.616C199.68 170.696 206.12 154.512 206.12 129.16C206.12 104.136 199.68 87.864 189.192 69.696A7.928 7.928 0 0 0 182.336 65.736zM206.12 41.952A7.928 7.928 0 0 0 199.512 54.176C212.976 74.896 221.976 95.544 221.976 129.16C221.976 162.104 212.976 183 199.432 204.136A7.952000000000001 7.952000000000001 0 1 0 212.808 212.728C227.84 189.192 237.832 165.984 237.832 129.16C237.832 97.112 230.568 72.84 212.728 45.584A7.928 7.928 0 0 0 206.12 41.952z" />
    <glyph glyph-name="compare"
      unicode="&#xEA4A;"
      horiz-adv-x="256" d="M217.76 159.52A4.08 4.08 0 0 0 214.08 155.92H100.08V126.4L41.28 170.64L100.08 214.72V185.28H214.08A4.08 4.08 0 0 0 217.76 181.6zM41.28 93.44A4.08 4.08 0 0 0 44.96 97.12H158.96V126.4L217.76 82.4L158.96 38.24V67.68H44.96A4.08 4.08 0 0 0 41.28 71.36z" />
    <glyph glyph-name="lqd-presentation"
      unicode="&#xEA4B;"
      horiz-adv-x="264.258064516129" d="M74.1574193548387 5.9458064516129L80.6812903225807 -2.8077419354839L132.7896774193548 28.0774193548387L184.898064516129 -2.8077419354839L191.421935483871 5.9458064516129L132.7896774193548 41.2903225806452zM88.4438709677419 101.1612903225806V189.6051612903226H44.3458064516129V101.1612903225806zM55.2464516129032 178.4567741935484H77.5432258064516V112.061935483871H55.2464516129032zM154.8387096774194 101.1612903225807V167.5561290322581H110.7406451612903V101.1612903225807zM121.6412903225807 156.4077419354839H143.938064516129V112.061935483871H121.6412903225807zM221.2335483870968 101.1612903225807V211.6541935483871H177.1354838709678V101.1612903225806zM188.0361290322581 200.7535483870968H210.3329032258064V112.061935483871H188.036129032258zM254.4309677419355 78.8645161290323A10.735483870967741 10.735483870967741 0 0 0 251.4580645161291 70.9367741935484A10.735483870967741 10.735483870967741 0 0 0 243.5303225806452 67.9638709677419H22.0490322580645A10.735483870967741 10.735483870967741 0 0 0 14.1212903225806 70.9367741935484A10.735483870967741 10.735483870967741 0 0 0 11.1483870967742 78.8645161290323V233.9509677419355A10.735483870967741 10.735483870967741 0 0 0 14.1212903225806 241.8787096774194A10.735483870967741 10.735483870967741 0 0 0 22.0490322580645 244.8516129032258H243.5303225806452A10.735483870967741 10.735483870967741 0 0 0 251.458064516129 241.8787096774194A10.735483870967741 10.735483870967741 0 0 0 254.4309677419355 233.9509677419355H265.5793548387097A21.223225806451605 21.223225806451605 0 0 1 259.0554838709678 249.4761290322581A21.223225806451605 21.223225806451605 0 0 1 243.5303225806452 256H22.0490322580645A21.223225806451605 21.223225806451605 0 0 1 6.5238709677419 249.4761290322581A21.223225806451605 21.223225806451605 0 0 1 0 233.9509677419355V78.8645161290323A21.223225806451605 21.223225806451605 0 0 1 6.5238709677419 63.3393548387097A21.223225806451605 21.223225806451605 0 0 1 22.0490322580645 56.8154838709677H243.5303225806452A21.223225806451605 21.223225806451605 0 0 1 259.138064516129 63.3393548387097A21.223225806451605 21.223225806451605 0 0 1 265.5793548387097 78.8645161290323V167.5561290322581H254.4309677419355zM254.4309677419355 189.6051612903226H265.5793548387097V211.6541935483871H254.4309677419355z" />
    <glyph glyph-name="lqd-cogs"
      unicode="&#xEA4C;"
      horiz-adv-x="256" d="M171.6 127.36A41.36 41.36 0 0 1 158.88 157.6A41.36 41.36 0 0 1 128.64 170.32A41.36 41.36 0 0 1 98.4 157.6A41.36 41.36 0 0 1 85.68 127.36A41.36 41.36 0 0 1 98.4 97.12A41.36 41.36 0 0 1 128.64 84.4A41.36 41.36 0 0 1 158.88 97.12A41.36 41.36 0 0 1 171.6 127.36zM128.64 95.2A31.12 31.12 0 0 0 105.76 104.48A31.12 31.12 0 0 0 96.48 127.36A31.12 31.12 0 0 0 105.76 150.24A31.12 31.12 0 0 0 128.64 159.52A31.12 31.12 0 0 0 151.52 150.24A31.12 31.12 0 0 0 160.8 127.36A31.12 31.12 0 0 0 151.52 104.48A31.12 31.12 0 0 0 128.64 95.2zM150 -1.28H160.8V20.08H150zM225.12 127.36A64.72 64.72 0 0 1 224.64 135.44A64.72 64.72 0 0 0 224.08 143.44L257.2800000000001 161.76L226.1600000000001 218.56L192.96 199.2A115.52 115.52 0 0 1 177.6 210.4A97.52 97.52 0 0 1 160.8 218.56V256H96.48V218.56A97.52 97.52 0 0 1 79.68 210.4A115.52 115.52 0 0 1 64.32 199.2L31.12 217.28L0 161.76L33.2 143.44A64.72 64.72 0 0 0 32.64 135.44A64.72 64.72 0 0 1 32.16 127.36A64.72 64.72 0 0 1 32.64 119.36A64.72 64.72 0 0 0 33.2 111.28L0 92.96L31.12 36.16L64.32 55.52A115.52 115.52 0 0 1 79.68 44.3200000000001A97.52 97.52 0 0 1 96.48 36.1600000000001V-1.28H128.64V9.52H107.28V43.68A112.32 112.32 0 0 0 85.28 53.6A95.68 95.68 0 0 0 66.56 68.32L36.48 51.28L16.08 88.64L44.96 106.0000000000001Q44.24 111.5200000000001 43.6 116.6400000000001A88.16 88.16 0 0 0 42.96 127.3600000000001A88.16 88.16 0 0 0 43.6 138.0000000000001Q44.24 143.1200000000001 44.96 148.72L15.04 166.0800000000001L35.44 203.5200000000001Q42.72 199.5200000000001 50.4 195.3600000000001T65.36 186.4A160.72 160.72 0 0 0 85.04 200.32A182.4 182.4 0 0 0 106.08 211.04V245.2H149.04V211.04Q156.32 208.56 163.36 205.36A116.39999999999999 116.39999999999999 0 0 0 176.88 198.24A85.52 85.52 0 0 1 183.76 191.76A33.84 33.84 0 0 1 190.72 186.4Q198 190.4 205.76 194.56T220.8 203.44L241.2 166.08Q238.72 165.04 224.48 157.76T211.28 148.72Q212 143.2000000000001 212.72 138A88.16 88.16 0 0 0 213.36 127.36A88.16 88.16 0 0 0 212.72 116.72Q212.08 111.6 211.28 106L241.2 88.64L220.8 51.28L205.76 59.76L190.72 68.32A84.88 84.88 0 0 0 176.64 57.04A166.72 166.72 0 0 0 160.8 48V36.16A97.52 97.52 0 0 1 177.6 44.32A115.52 115.52 0 0 1 192.96 55.52L226.1600000000001 37.44L257.2800000000001 94.16L224.0800000000001 112.32A56.31999999999999 56.31999999999999 0 0 0 224.6400000000001 119.44A61.760000000000005 61.760000000000005 0 0 1 225.12 127.36z" />
    <glyph glyph-name="lqd-tools"
      unicode="&#xEA4D;"
      horiz-adv-x="256" d="M182.16 73.84V116.56L42.96 256L0 213.04L139.44 73.84zM171.6 84.4H143.76L38.72 190.64L66.56 218.56L172.56 112.32V84.4zM42.96 240.88L57.76 226.08L31.12 198.24L15.04 213.04zM117.84 52.24L107.28 41.68H214.32V148.72L203.76 138.16V52.24H117.84zM166.08 164.8L172.56 158.48L246.48 232.4000000000001V213.04H257.2800000000001V256zM246.48 170.32H257.2800000000001V191.68H246.48zM246.48 9.52H25.6L94.24 78.16L86.96 85.68L0 -1.28H257.28V148.72H246.48z" />
    <glyph glyph-name="lqd-mobile"
      unicode="&#xEA4E;"
      horiz-adv-x="240" d="M185.92 256A20.56 20.56 0 0 0 201.04 249.68A20.56 20.56 0 0 0 207.28 234.64V20.08A20.56 20.56 0 0 0 201.04 4.96A20.56 20.56 0 0 0 185.92 -1.28H57.28A20.56 20.56 0 0 0 42.24 5.04A20.56 20.56 0 0 0 35.92 20.08V234.64A20.56 20.56 0 0 0 42.24 249.68A20.56 20.56 0 0 0 57.28 256zM196.72 234.64A10.16 10.16 0 0 1 193.68 242.32A10.8 10.8 0 0 1 185.92 245.2H57.28A10.8 10.8 0 0 1 49.52 242.32A10.16 10.16 0 0 1 46.48 234.64V20.08A10.16 10.16 0 0 1 49.52 12.4A10.8 10.8 0 0 1 57.28 9.52H185.92A10.8 10.8 0 0 1 193.68 12.4A10.16 10.16 0 0 1 196.72 20.08zM121.6 180.88A53.599999999999994 53.599999999999994 0 0 0 142.72 176.72A52.8 52.8 0 0 0 159.68 165.44A52.8 52.8 0 0 0 170.96 148.48A53.599999999999994 53.599999999999994 0 0 0 175.12 127.36A53.599999999999994 53.599999999999994 0 0 0 170.96 106.24A52.8 52.8 0 0 0 159.68 89.28A52.8 52.8 0 0 0 142.72 78A53.599999999999994 53.599999999999994 0 0 0 121.6 73.84A53.599999999999994 53.599999999999994 0 0 0 100.48 78A52.8 52.8 0 0 0 83.52 89.28A52.8 52.8 0 0 0 72.24 106.24A53.599999999999994 53.599999999999994 0 0 0 68.08 127.36A53.599999999999994 53.599999999999994 0 0 0 72.24 148.48A52.8 52.8 0 0 0 83.52 165.44A52.8 52.8 0 0 0 100.48 176.72A53.599999999999994 53.599999999999994 0 0 0 121.6 180.88zM121.6 84.4A41.92 41.92 0 0 1 152 96.96A42.72 42.72 0 0 1 165.52 126.32A31.520000000000003 31.520000000000003 0 0 1 164.08 135.92A89.92000000000002 89.92000000000002 0 0 1 160.32 145.68L122.64 108L96.96 133.92L104.56 141.2L121.6 124.08L153.76 156.24A51.28 51.28 0 0 1 139.2 166.56A40.88 40.88 0 0 1 121.6 170.32A41.36 41.36 0 0 1 91.36 157.6A41.36 41.36 0 0 1 78.64 127.36A41.36 41.36 0 0 1 91.36 97.12A41.36 41.36 0 0 1 121.6 84.4zM100.24 223.84H142.96V213.04H100.24zM132.4 41.68A10.4 10.4 0 0 0 129.28 34A10.4 10.4 0 0 0 121.6 30.88A10.4 10.4 0 0 0 113.92 34A10.4 10.4 0 0 0 110.8 41.68A10.16 10.16 0 0 0 113.92 49.12A10.4 10.4 0 0 0 121.6 52.24A10.4 10.4 0 0 0 129.28 49.12A10.16 10.16 0 0 0 132.4 41.68zM214.32 184.88L235.68 206L243.2 198.48L222.08 177.36zM218.08 127.36H239.44V116.56H218.08zM214.32 69.84L222.08 77.36L243.2 56.24L235.68 48.72zM0 198.48L7.52 206L28.88 184.88L21.12 177.36zM3.76 127.36H25.12V116.56H3.76zM0 56.24L21.12 77.36L28.88 69.84L7.52 48.72z" />
    <glyph glyph-name="lqd-target"
      unicode="&#xEA4F;"
      horiz-adv-x="256" d="M124.32 131.68L131.92 124.08L169.36 161.76A48.24 48.24 0 0 0 178.96 145.68A54.16 54.16 0 0 0 182.16 127.36A53.599999999999994 53.599999999999994 0 0 0 178 106.24A52.8 52.8 0 0 0 166.72 89.28A52.8 52.8 0 0 0 149.76 78A53.599999999999994 53.599999999999994 0 0 0 128.64 73.84A53.599999999999994 53.599999999999994 0 0 0 107.52 78A52.8 52.8 0 0 0 90.56 89.28A52.8 52.8 0 0 0 79.28 106.24A53.599999999999994 53.599999999999994 0 0 0 75.12 127.36A53.599999999999994 53.599999999999994 0 0 0 79.28 148.48A52.8 52.8 0 0 0 90.56 165.44A52.8 52.8 0 0 0 107.52 176.72A53.599999999999994 53.599999999999994 0 0 0 128.64 180.88A61.12 61.12 0 0 0 138.16 180.0800000000001A44.96000000000001 44.96000000000001 0 0 0 146.96 177.84L155.52 186.4A127.76 127.76 0 0 1 142.48 190.16A61.279999999999994 61.279999999999994 0 0 1 128.64 191.68A62.559999999999995 62.559999999999995 0 0 1 103.68 186.6400000000001A64.96 64.96 0 0 1 83.2 172.8A64.96 64.96 0 0 1 69.36 152.32A62.559999999999995 62.559999999999995 0 0 1 64.32 127.36A62.559999999999995 62.559999999999995 0 0 1 69.36 102.4A64.96 64.96 0 0 1 83.2 81.92A64.96 64.96 0 0 1 103.68 68.08A62.559999999999995 62.559999999999995 0 0 1 128.64 63.04A62.559999999999995 62.559999999999995 0 0 1 153.6 68.08A64.96 64.96 0 0 1 174.08 81.92A64.96 64.96 0 0 1 187.92 102.32A62.559999999999995 62.559999999999995 0 0 1 192.96 127.36A63.76 63.76 0 0 1 189.04 149.84A66.32 66.32 0 0 1 177.92 169.12L189.68 180.88H225.12L230.4 186.4A97.28000000000003 97.28000000000003 0 0 0 237.2 173.36Q240 166.8 242.24 159.52H252.96A108.32 108.32 0 0 1 246.56 177.52A181.52 181.52 0 0 1 237.92 193.92L257.28 213.04L240.16 230.4L250.72 240.96L243.44 248.48L232.64 237.68L214.32 256L182.16 223.84V188.4zM192.96 219.52L214.32 240.88L242.16 213.04L220.8 191.68H192.96zM245.52 138.16A31.599999999999998 31.599999999999998 0 0 1 246 132.72A31.599999999999998 31.599999999999998 0 0 0 246.48 127.36Q246.48 124.88 246.32 121.92A22.08 22.08 0 0 0 245.44 116.56H256.24A31.599999999999998 31.599999999999998 0 0 0 256.8 121.92A31.599999999999998 31.599999999999998 0 0 1 257.28 127.36V138.16zM128.64 9.52A116.16 116.16 0 0 0 82.56 18.72A117.76 117.76 0 0 0 45.12 43.84A117.76 117.76 0 0 0 20 81.28A116.16 116.16 0 0 0 10.8 127.36A116.16 116.16 0 0 0 20 173.44A117.76 117.76 0 0 0 45.12 210.88A117.76 117.76 0 0 0 82.56 236A116.16 116.16 0 0 0 128.64 245.2A118.88 118.88 0 0 0 152 242.96A128.8 128.8 0 0 0 173.6 236.64L182.16 245.2A173.36 173.36 0 0 1 156.24 253.12A127.76 127.76 0 0 1 128.64 256A123.84000000000002 123.84000000000002 0 0 1 78.64 245.84A131.20000000000002 131.20000000000002 0 0 1 37.84 218.16A131.20000000000002 131.20000000000002 0 0 1 10.16 177.36A123.84000000000002 123.84000000000002 0 0 1 0 127.36A123.84000000000002 123.84000000000002 0 0 1 10.16 77.36A131.20000000000002 131.20000000000002 0 0 1 37.84 36.56A131.20000000000002 131.20000000000002 0 0 1 78.64 8.88A123.84000000000002 123.84000000000002 0 0 1 128.64 -1.28A125.44 125.44 0 0 1 171.44 6A130.32 130.32 0 0 1 208 26.08A128.24 128.24 0 0 1 236.08 56.64A125.36000000000001 125.36000000000001 0 0 1 252.96 95.2H242.24A115.92 115.92 0 0 0 226.16 60.88A118.39999999999999 118.39999999999999 0 0 0 200.4 33.76A118.96000000000001 118.96000000000001 0 0 0 167.12 15.92A115.76 115.76 0 0 0 128.64 9.52z" />
    <glyph glyph-name="lqd-path"
      unicode="&#xEA50;"
      horiz-adv-x="256" d="M150 116.56A41.2 41.2 0 0 1 180.4 129.28A41.519999999999996 41.519999999999996 0 0 1 192.96 159.52V233.36L221.84 208.8L229.44 217.28L188.64 252.72L148 217.28L155.52 208.8L182.16 233.36V159.52A31.279999999999998 31.279999999999998 0 0 0 172.96 136.64A30.960000000000004 30.960000000000004 0 0 0 150 127.36H96.48A30.080000000000002 30.080000000000002 0 0 1 79.92 122.32A52.72 52.72 0 0 1 66.24 109.36A66.48 66.48 0 0 1 56.88 92.08A53.68 53.68 0 0 1 53.52 73.84V41.68H64.32V73.84A52.47999999999999 52.47999999999999 0 0 0 73.6 102A26.88 26.88 0 0 0 96.48 116.56zM21.36 245.2H150V256H21.36A20.56 20.56 0 0 1 6.32 249.68A20.56 20.56 0 0 1 0 234.64V20.08A20.56 20.56 0 0 1 6.32 5.04A20.56 20.56 0 0 1 21.36 -1.28V9.52A10.4 10.4 0 0 0 13.68 12.4A10.4 10.4 0 0 0 10.8 20.08V234.64A10.4 10.4 0 0 0 13.68 242.32A10.4 10.4 0 0 0 21.36 245.2zM53.52 -1.28H64.32V20.08H53.52zM57.84 166.0800000000001L75.12 184.16L92.16 166.0800000000001L100.8 174.5600000000001L82.64 191.6800000000001L100.8 208.8L92.16 217.28L75.12 199.2L57.76 217.28L49.28 208.8L67.6 191.68L49.28 174.56zM210.08 88.64L192.96 70.5600000000001L175.84 88.64L167.36 80.1600000000001L185.44 63.0400000000001L167.36 45.92L175.84 37.4400000000001L192.96 55.52L210.08 37.4400000000001L218.56 45.92L200.48 63.0400000000001L218.56 80.1600000000001zM246.48 234.6400000000001H257.2800000000001A20.56 20.56 0 0 1 250.9600000000001 249.6800000000001A20.56 20.56 0 0 1 235.92 256H225.12V245.2H235.92A10.4 10.4 0 0 0 243.6 242.32A10.4 10.4 0 0 0 246.48 234.64zM246.48 20.08A10.4 10.4 0 0 0 243.6 12.4A10.4 10.4 0 0 0 235.92 9.52H96.48V-1.28H235.92A20.56 20.56 0 0 1 251.04 5.04A20.56 20.56 0 0 1 257.2800000000001 20.08V170.32H246.48zM246.48 191.68H257.2800000000001V213.04H246.48z" />
    <glyph glyph-name="lqd-feather"
      unicode="&#xEA51;"
      horiz-adv-x="256" d="M187.68 256A68.08 68.08 0 0 1 160.24 250.32A68.24 68.24 0 0 1 137.44 234.24L49.6 146.72A95.28 95.28 0 0 1 28.8 115.52A95.28 95.28 0 0 1 21.44 78.64V62.96L43.2 84.72A73.92 73.92 0 0 0 49.76 110.16A70.32 70.32 0 0 0 64.96 131.6L152.48 219.52A48.16 48.16 0 0 0 168.56 230.72A48.24 48.24 0 0 0 187.68 234.56A46.56000000000001 46.56000000000001 0 0 0 211.84 228.08A49.2 49.2 0 0 0 229.44 210.48A46.56000000000001 46.56000000000001 0 0 0 235.92 186.32A46.48 46.48 0 0 0 231.92 167.2A50.32 50.32 0 0 0 220.56 151.12L198.72 129.36L160.88 116.56H186L145.12 75.68L107.28 62.96H132.4A71.92 71.92 0 0 0 108.4 47.04A74.4 74.4 0 0 0 80.08 41.52H58L157.84 141.04L142.4 156.48L0 13.68L15.12 -1.36L36.56 20.08H80.08A95.28 95.28 0 0 1 116.96 27.44A95.28 95.28 0 0 1 148.16 48.24L235.6 135.68A71.84 71.84 0 0 1 251.68 158.8A68.08 68.08 0 0 1 257.44 186.24A68 68 0 0 1 248.08 221.12A69.6 69.6 0 0 1 222.56 246.56A68 68 0 0 1 187.68 256z" />
    <glyph glyph-name="lqd-smile"
      unicode="&#xEA52;"
      horiz-adv-x="256" d="M128.72 256A125.91999999999999 125.91999999999999 0 0 1 63.68 238.24A122.40000000000002 122.40000000000002 0 0 1 17.76 192.32A125.91999999999999 125.91999999999999 0 0 1 0 127.28A125.91999999999999 125.91999999999999 0 0 1 17.76 62.24A124.87999999999998 124.87999999999998 0 0 1 63.68 16A127.76 127.76 0 0 1 128.72 -1.44A127.76 127.76 0 0 1 193.76 16A127.52 127.52 0 0 1 240 62.24A127.76 127.76 0 0 1 257.44 127.28A127.76 127.76 0 0 1 240 192.32A124.87999999999998 124.87999999999998 0 0 1 193.76 238.24A125.91999999999999 125.91999999999999 0 0 1 128.72 256zM128.72 234.56A105.44 105.44 0 0 0 182.96 219.84A104.48 104.48 0 0 0 221.2 181.6A105.44 105.44 0 0 0 235.92 127.28A105.44 105.44 0 0 0 221.2 73.04A104.48 104.48 0 0 0 182.96 34.8A105.44 105.44 0 0 0 128.72 20.08A105.44 105.44 0 0 0 74.4 34.8A104.48 104.48 0 0 0 36.24 72.96A105.44 105.44 0 0 0 21.44 127.28A105.44 105.44 0 0 0 36.24 181.6A104.48 104.48 0 0 0 74.4 219.84A105.44 105.44 0 0 0 128.72 234.56zM80.4 170.24A15.519999999999998 15.519999999999998 0 0 1 69.04 165.52A15.519999999999998 15.519999999999998 0 0 1 64.32 154.08A15.519999999999998 15.519999999999998 0 0 1 69.04 142.72A15.519999999999998 15.519999999999998 0 0 1 80.4 138.08A15.519999999999998 15.519999999999998 0 0 1 91.84 142.72A15.519999999999998 15.519999999999998 0 0 1 96.56 154.16A15.519999999999998 15.519999999999998 0 0 1 91.84 165.52A15.519999999999998 15.519999999999998 0 0 1 80.4 170.16zM176.96 170.16A15.519999999999998 15.519999999999998 0 0 1 165.6 165.52A15.519999999999998 15.519999999999998 0 0 1 160.88 154.08A15.519999999999998 15.519999999999998 0 0 1 165.6 142.72A15.519999999999998 15.519999999999998 0 0 1 176.96 138.08A15.519999999999998 15.519999999999998 0 0 1 188.4 142.72A15.519999999999998 15.519999999999998 0 0 1 193.04 154.16A15.519999999999998 15.519999999999998 0 0 1 188.4 165.52A15.519999999999998 15.519999999999998 0 0 1 176.96 170.16zM73.04 95.12L54.64 84.4A87.28 87.28 0 0 1 85.6 53.2A82.32 82.32 0 0 1 128.72 41.52A82.32 82.32 0 0 1 171.76 53.2A87.28 87.28 0 0 1 202.72 84.4L184.32 95.12A62.559999999999995 62.559999999999995 0 0 0 161.04 71.68A63.040000000000006 63.040000000000006 0 0 0 128.72 62.96A63.040000000000006 63.040000000000006 0 0 0 96.32 71.68A62.559999999999995 62.559999999999995 0 0 0 73.04 95.12z" />
    <glyph glyph-name="lqd-circle"
      unicode="&#xEA53;"
      horiz-adv-x="256" d="M127.52 170.08A41.6 41.6 0 1 1 127.52 86.88A41.6 41.6 0 1 1 127.52 170.08z" />
  </font>
</defs>
</svg>
