<?xml version="1.0" encoding="UTF-8"?>
<svg width="1000px" height="400px" viewBox="0 0 1000 400" version="1.1" xmlns="http://www.w3.org/2000/svg" xmlns:xlink="http://www.w3.org/1999/xlink">
    <title>img_meta4</title>
    <defs>
        <circle id="path-1" cx="33" cy="33" r="33"></circle>
        <linearGradient x1="41.6814819%" y1="25.0278499%" x2="58.3395072%" y2="75.0150072%" id="linearGradient-3">
            <stop stop-color="#FF00FF" offset="0%"></stop>
            <stop stop-color="#9D00FF" offset="100%"></stop>
        </linearGradient>
        <linearGradient x1="55.0268218%" y1="81.5269151%" x2="44.9780173%" y2="18.4772257%" id="linearGradient-4">
            <stop stop-color="#00FFBE" offset="3.570406e-05%"></stop>
            <stop stop-color="#603CF7" offset="100%"></stop>
        </linearGradient>
        <linearGradient x1="62.515875%" y1="62.5075672%" x2="37.515875%" y2="37.5009509%" id="linearGradient-5">
            <stop stop-color="#00FFBE" offset="0%"></stop>
            <stop stop-color="#508CFF" offset="100%"></stop>
        </linearGradient>
        <linearGradient x1="37.51575%" y1="37.5139447%" x2="62.515875%" y2="62.5204887%" id="linearGradient-6">
            <stop stop-color="#FF00FF" offset="0%"></stop>
            <stop stop-color="#9D00FF" offset="100%"></stop>
        </linearGradient>
    </defs>
    <g id="Page-1" stroke="none" stroke-width="1" fill="none" fill-rule="evenodd">
        <g id="Desktop-HD-Copy" transform="translate(-250.000000, -113.000000)">
            <g id="img_meta4" transform="translate(250.000000, 113.000000)">
                <rect id="Rectangle" x="0" y="0" width="1000" height="400"></rect>
                <g id="Con" transform="translate(205.000000, 50.000000)">
                    <g id="Group-3" transform="translate(266.000000, 74.000000)" fill="#3A3A40">
                        <polygon id="Fill-1" points="37.7518409 115.247971 47.2067036 124.702834 2.83661983e-14 124.702834 2.83661983e-14 129.29679 47.2067036 129.29679 37.7518409 138.751653 40.9998119 141.999624 56 126.999812 40.9998119 112"></polygon>
                        <polygon id="Fill-1" transform="translate(28.000000, 14.999812) scale(-1, 1) translate(-28.000000, -14.999812) " points="37.7518409 3.24797096 47.2067036 12.7028336 2.83661983e-14 12.7028336 2.83661983e-14 17.2967902 47.2067036 17.2967902 37.7518409 26.7516529 40.9998119 29.9996238 56 14.9998119 40.9998119 -7.4314755e-14"></polygon>
                    </g>
                    <g id="klaytn-klay-logo" transform="translate(264.000000, 116.000000)" fill="#4F473B" fill-rule="nonzero">
                        <path d="M31,29 L51.0838735,49 C61.6387088,37.7689813 61.6387088,20.2310187 51.0838735,9" id="Path"></path>
                        <polyline id="Path" points="30 30 10 49.7471507 30 58 50 49.7471507"></polyline>
                        <polygon id="Path" points="29.2999454 27.9600311 50 7.71703867 30.9244091 0 12 45"></polygon>
                        <path d="M0,28.210987 C-0.0148739143,35.5716946 2.86395973,42.6552452 8.04227669,48 L28,1" id="Path"></path>
                    </g>
                    <g id="List-/-Light-/-None" transform="translate(390.000000, 0.000000)">
                        <rect id="Rectangle" stroke="#EAEBEE" x="0.5" y="0.5" width="188.130435" height="299" rx="15"></rect>
                        <g id="view" transform="translate(147.391304, 272.608696)" fill="#EAEBEE">
                            <rect id="Rectangle" x="0" y="0" width="28.6956522" height="15.6521739" rx="7.82608696"></rect>
                        </g>
                        <g id="user" transform="translate(13.043478, 270.000000)" fill="#EAEBEE">
                            <circle id="Oval" cx="9.7826087" cy="9.7826087" r="9.7826087"></circle>
                            <rect id="Rectangle" x="26.0869565" y="2.60869565" width="58.6956522" height="15.6521739" rx="7.82608696"></rect>
                        </g>
                        <g id="Base-/-Divider-/-1px-/-Gray-300" transform="translate(13.043478, 260.869565)" fill="#E4E5E8">
                            <rect id="Divider" x="0" y="0" width="163.043478" height="1"></rect>
                        </g>
                        <g id="Title" transform="translate(13.043478, 215.217391)" fill="#EAEBEE">
                            <rect id="Rectangle" x="0" y="0" width="163.043478" height="15.6521739" rx="7.82608696"></rect>
                            <rect id="Rectangle" x="104.347826" y="20.8695652" width="58.6956522" height="15.6521739" rx="7.82608696"></rect>
                        </g>
                        <g id="img" transform="translate(13.043478, 13.043478)">
                            <rect id="Mask" fill="#EAEBEE" x="0" y="0" width="163.043478" height="195.652174" rx="15"></rect>
                            <g id="opensea-seeklogo.com" transform="translate(49.000000, 66.000000)" fill-rule="nonzero">
                                <path d="M66,33 C66,51.224382 51.224382,66 33,66 C14.775618,66 0,51.224382 0,33 C0,14.775618 14.775618,0 33,0 C51.22821,0 66,14.775618 66,33 Z" id="Path" fill="#2081E2"></path>
                                <path d="M16.0490853,34.5566939 L16.1972825,34.336663 L25.1337677,21.1336411 C25.2643763,20.9403435 25.5714199,20.9603286 25.6702179,21.1703021 C27.1631819,24.3302209 28.4514044,28.2601506 27.8478979,30.7067696 C27.5902534,31.7134223 26.8843762,33.0766925 26.0902128,34.336663 C25.9879108,34.5200329 25.8749594,34.7000287 25.7549314,34.8733411 C25.6984558,34.9533464 25.6031617,35 25.5007909,35 L16.3102338,35 C16.0631699,35 15.9184768,34.7466822 16.0490853,34.5566939 Z" id="Path" fill="#FFFFFF"></path>
                                <path d="M55,36.6491889 L55,38.7972296 C55,38.9205407 54.9248431,39.0301802 54.8154999,39.0781309 C54.1458721,39.3659012 51.8532551,40.4210815 50.9000266,41.7503605 C48.4673385,45.1454506 46.6087025,50 42.453991,50 L25.1212211,50 C18.9781116,50 14,44.9913284 14,38.8109012 L14,38.6122296 C14,38.4477704 14.1332205,38.3141889 14.2972354,38.3141889 L23.9596151,38.3141889 C24.1508994,38.3141889 24.2909705,38.4923198 24.2739438,38.680721 C24.205571,39.3110815 24.3217648,39.9551802 24.6190003,40.5409913 C25.1929859,41.709279 26.3819941,42.4390087 27.6666445,42.4390087 L32.4500133,42.4390087 L32.4500133,38.6944593 L27.7213161,38.6944593 C27.4787523,38.6944593 27.3352892,38.4134913 27.4753603,38.2148198 C27.5265734,38.1359913 27.5847036,38.0538284 27.6461593,37.9613284 C28.0937749,37.3240988 28.7326748,36.3340087 29.3681827,35.2068691 C29.8020972,34.4463284 30.2223105,33.6343691 30.560583,32.8190087 C30.6289558,32.6716889 30.6835609,32.5209012 30.7382325,32.3735815 C30.8304826,32.113221 30.9261912,31.87 30.9944975,31.626779 C31.0628703,31.4211716 31.1174754,31.2053605 31.172147,31.003221 C31.3327699,30.3111716 31.4010762,29.5780407 31.4010762,28.8175 C31.4010762,28.5194593 31.3874415,28.2076802 31.3601057,27.9096395 C31.3464045,27.5841889 31.3054341,27.2586716 31.2643971,26.933221 C31.2370613,26.6454506 31.1858482,26.3610815 31.1311766,26.0630407 C31.0628703,25.6279506 30.9671617,25.1963284 30.8578184,24.7611716 L30.82024,24.596779 C30.7382325,24.2986716 30.6699262,24.0143691 30.5742841,23.7163284 C30.304318,22.7809913 29.9934479,21.8697296 29.6654181,21.0166889 C29.5458322,20.6775 29.4091531,20.3520494 29.2724741,20.0265988 C29.0709472,19.5366889 28.8658954,19.0913284 28.6780032,18.6699099 C28.5823611,18.4780407 28.5003536,18.3033111 28.4183462,18.1251802 C28.3260961,17.9230407 28.230454,17.7209012 28.1347454,17.5290988 C28.0664391,17.381779 27.9878237,17.2447296 27.9331521,17.1076802 L27.3489238,16.0250901 C27.2669164,15.8777704 27.4035955,15.7030407 27.5641518,15.7475901 L31.2200346,16.7410815 L31.2302772,16.7410815 C31.2370613,16.7410815 31.2405198,16.7445494 31.2439119,16.7445494 L31.7256474,16.8781309 L32.2552706,17.0289185 L32.4500133,17.0836716 L32.4500133,14.9048198 C32.4500133,13.8530407 33.2905065,13 34.329201,13 C34.848515,13 35.320008,13.2124099 35.6582804,13.5584012 C35.9964863,13.9044593 36.2083222,14.3772296 36.2083222,14.9048198 L36.2083222,18.1389185 L36.5978743,18.2484913 C36.6286021,18.2588284 36.65933,18.2725 36.6866658,18.2930407 C36.7823744,18.365 36.918987,18.4711716 37.0932445,18.6014185 C37.2299236,18.7109913 37.3768453,18.8446395 37.5544948,18.9816889 C37.9064019,19.2659913 38.3266817,19.6325901 38.7879321,20.0540087 C38.91091,20.1601802 39.0304959,20.2698198 39.1398391,20.3794593 C39.7343765,20.9344593 40.4006122,21.5853605 41.0361201,22.3048198 C41.2137696,22.5069593 41.3880271,22.7125 41.5656767,22.9283111 C41.7433262,23.1475901 41.9312849,23.3634012 42.0952333,23.579279 C42.3105278,23.8670494 42.542849,24.1650901 42.7444423,24.4768691 C42.8400844,24.6241889 42.9494277,24.7749099 43.0416778,24.9222296 C43.3013348,25.3161716 43.5302639,25.7239185 43.7489504,26.1315988 C43.8412005,26.32 43.9368426,26.5255407 44.01885,26.7276802 C44.2614139,27.2724099 44.4527646,27.8274099 44.5757425,28.3824099 C44.6133209,28.5023198 44.6406567,28.6325 44.6543579,28.7490087 L44.6543579,28.7764185 C44.6953284,28.9408111 44.7090295,29.1155407 44.7226642,29.2936716 C44.7773358,29.8624099 44.75,30.4310815 44.6270221,31.003221 C44.5757425,31.2465087 44.5074362,31.4759913 44.4254287,31.719279 C44.3434213,31.9522296 44.2614139,32.1954506 44.1555291,32.425 C43.9505438,32.9011716 43.7079135,33.3774099 43.4209206,33.8227704 C43.3286706,33.9872296 43.2193273,34.1619593 43.109984,34.3264185 C42.9903982,34.5010815 42.8674202,34.6655407 42.758077,34.8265988 C42.6077632,35.0321395 42.4472069,35.2479506 42.283192,35.4398198 C42.1362703,35.6419593 41.9859566,35.8440988 41.8219417,36.0222296 C41.5930125,36.2928605 41.374326,36.5498198 41.1453968,36.7965087 C41.0087843,36.9575 40.8618626,37.1219593 40.7114823,37.269279 C40.5646271,37.4336716 40.4142469,37.5809913 40.2775678,37.7180407 C40.0487052,37.9475901 39.8573544,38.125721 39.6967316,38.2730407 L39.3209472,38.6190988 C39.2662756,38.6670494 39.1945108,38.6944593 39.1193539,38.6944593 L36.2083222,38.6944593 L36.2083222,42.4390087 L39.8709891,42.4390087 C40.6909971,42.4390087 41.4700346,42.1477704 42.0986919,41.6133111 C42.3139198,41.4249099 43.2535137,40.6095494 44.3639065,39.3796395 C44.401485,39.3384913 44.4493725,39.3076802 44.5040442,39.2940087 L54.6207571,36.3614185 C54.8087158,36.3065988 55,36.4504506 55,36.6491889 Z" id="Path" fill="#FFFFFF"></path>
                            </g>
                        </g>
                    </g>
                    <g id="List-/-Light-/-None">
                        <rect id="Rectangle" stroke="#EAEBEE" x="0.5" y="0.5" width="188.130435" height="299" rx="15"></rect>
                        <g id="view" transform="translate(147.391304, 272.608696)" fill="#EAEBEE">
                            <rect id="Rectangle" x="0" y="0" width="28.6956522" height="15.6521739" rx="7.82608696"></rect>
                        </g>
                        <g id="user" transform="translate(13.043478, 270.000000)" fill="#EAEBEE">
                            <circle id="Oval" cx="9.7826087" cy="9.7826087" r="9.7826087"></circle>
                            <rect id="Rectangle" x="26.0869565" y="2.60869565" width="58.6956522" height="15.6521739" rx="7.82608696"></rect>
                        </g>
                        <g id="Base-/-Divider-/-1px-/-Gray-300" transform="translate(13.043478, 260.869565)" fill="#E4E5E8">
                            <rect id="Divider" x="0" y="0" width="163.043478" height="1"></rect>
                        </g>
                        <g id="Title" transform="translate(13.043478, 215.217391)" fill="#EAEBEE">
                            <rect id="Rectangle" x="0" y="0" width="163.043478" height="15.6521739" rx="7.82608696"></rect>
                            <rect id="Rectangle" x="104.347826" y="20.8695652" width="58.6956522" height="15.6521739" rx="7.82608696"></rect>
                        </g>
                        <g id="img" transform="translate(13.043478, 13.043478)">
                            <rect id="Mask" fill="#EAEBEE" x="0" y="0" width="163.043478" height="195.652174" rx="15"></rect>
                            <g id="BORA" transform="translate(49.000000, 65.000000)">
                                <mask id="mask-2" fill="white">
                                    <use xlink:href="#path-1"></use>
                                </mask>
                                <circle stroke="#DDDDDD" cx="33" cy="33" r="32.5"></circle>
                                <g id="Group" mask="url(#mask-2)" fill-rule="nonzero">
                                    <g transform="translate(18.562500, 12.375000)" id="Path">
                                        <polygon fill="url(#linearGradient-3)" points="19.7165179 35.578125 19.7165179 35.578125 19.7165179 24.234375 29.5379464 18.5625 29.5379464 29.90625"></polygon>
                                        <polygon fill="url(#linearGradient-4)" points="0.0736607143 5.671875 0.0736607143 35.578125 9.89508929 29.90625 9.89508929 0"></polygon>
                                        <polygon fill="url(#linearGradient-5)" points="19.7165179 35.578125 9.89508929 29.90625 0.0736607143 35.578125 9.89508929 41.25"></polygon>
                                        <polygon fill="url(#linearGradient-6)" points="29.5379464 18.5625 19.7165179 12.890625 9.89508929 18.5625 19.7165179 24.234375"></polygon>
                                    </g>
                                </g>
                            </g>
                        </g>
                    </g>
                </g>
            </g>
        </g>
    </g>
</svg>