<?xml version="1.0" encoding="UTF-8"?>
<svg width="1000px" height="500px" viewBox="0 0 1000 500" version="1.1" xmlns="http://www.w3.org/2000/svg" xmlns:xlink="http://www.w3.org/1999/xlink">
    <title>img_meta2_m</title>
    <defs>
        <linearGradient x1="41.6598543%" y1="25%" x2="58.3401457%" y2="75%" id="linearGradient-1">
            <stop stop-color="#FF00FF" offset="0%"></stop>
            <stop stop-color="#9D00FF" offset="100%"></stop>
        </linearGradient>
        <linearGradient x1="55.0121047%" y1="81.5243195%" x2="44.9878953%" y2="18.4756805%" id="linearGradient-2">
            <stop stop-color="#00FFBE" offset="0%"></stop>
            <stop stop-color="#603CF7" offset="100%"></stop>
        </linearGradient>
        <linearGradient x1="62.5%" y1="62.7071596%" x2="37.5%" y2="37.2928404%" id="linearGradient-3">
            <stop stop-color="#00FFBE" offset="0%"></stop>
            <stop stop-color="#508CFF" offset="100%"></stop>
        </linearGradient>
        <linearGradient x1="37.5%" y1="37.2957747%" x2="62.5%" y2="62.7071596%" id="linearGradient-4">
            <stop stop-color="#FF00FF" offset="0%"></stop>
            <stop stop-color="#9D00FF" offset="100%"></stop>
        </linearGradient>
    </defs>
    <g id="Page-1" stroke="none" stroke-width="1" fill="none" fill-rule="evenodd">
        <g id="Desktop-HD" transform="translate(-158.000000, -630.000000)">
            <g id="img_meta2_m" transform="translate(158.000000, 630.000000)">
                <rect id="Rectangle" opacity="0.600000024" x="0" y="0" width="1000" height="500"></rect>
                <path d="M503.913043,220 L503.913,246.086 L530,246.086957 L530,253.913043 L503.913,253.913 L503.913043,280 L496.086957,280 L496.086,253.913 L470,253.913043 L470,246.086957 L496.086,246.086 L496.086957,220 L503.913043,220 Z" id="Rectangle-2" fill="#3A3A40"></path>
                <g id="symbol" transform="translate(165.000000, 105.000000)" fill-rule="nonzero">
                    <polygon id="Path" fill="url(#linearGradient-1)" points="133.663366 240.594059 133.663366 240.594059 133.663366 164.024192 200 125.742574 200 202.312441"></polygon>
                    <polygon id="Path" fill="url(#linearGradient-2)" points="0 38.3478744 0 240.594059 66.3366337 202.252826 66.3366337 0"></polygon>
                    <polygon id="Path" fill="url(#linearGradient-3)" points="132.673267 240.590715 66.3366337 201.980198 0 240.590715 66.3366337 279.207921"></polygon>
                    <polygon id="Path" fill="url(#linearGradient-4)" points="200 125.745918 133.663366 87.1287129 67.3267327 125.745918 133.663366 164.356436"></polygon>
                </g>
                <g id="MetaMask_Fox" transform="translate(629.000000, 129.000000)" fill-rule="nonzero" stroke-linecap="round" stroke-linejoin="round">
                    <polygon id="Path" stroke="#E2761B" fill="#E2761B" points="237.54902 -1.39322105e-14 140 72.4509804 158.039216 29.7058824"></polygon>
                    <g id="Group" transform="translate(2.058824, -0.000000)" fill="#E4761B" stroke="#E4761B">
                        <polygon id="Path" points="10.2941176 0 107.058824 73.1372549 89.9019608 29.7058824"></polygon>
                        <polygon id="Path" points="200.392157 167.941176 174.411765 207.745098 230 223.039216 245.980392 168.823529"></polygon>
                        <polygon id="Path" points="-6.96610525e-15 168.823529 15.8823529 223.039216 71.4705882 207.745098 45.4901961 167.941176"></polygon>
                        <polygon id="Path" points="68.3333333 100.686275 52.8431373 124.117647 108.039216 126.568627 106.078431 67.254902"></polygon>
                        <polygon id="Path" points="177.45098 100.686275 139.215686 66.5686275 137.941176 126.568627 193.039216 124.117647"></polygon>
                        <polygon id="Path" points="71.4705882 207.745098 104.607843 191.568627 75.9803922 169.215686"></polygon>
                        <polygon id="Path" points="141.176471 191.568627 174.411765 207.745098 169.803922 169.215686"></polygon>
                    </g>
                    <g id="Group" transform="translate(73.529412, 191.568627)" fill="#D7C1B3" stroke="#D7C1B3">
                        <polygon id="Path" points="102.941176 16.1764706 69.7058824 -2.7864421e-14 72.3529412 21.6666667 72.0588235 30.7843137"></polygon>
                        <polygon id="Path" points="1.39322105e-14 16.1764706 30.8823529 30.7843137 30.6862745 21.6666667 33.1372549 -2.7864421e-14"></polygon>
                    </g>
                    <polygon id="Path" stroke="#233447" fill="#233447" points="104.901961 154.901961 77.254902 146.764706 96.7647059 137.843137"></polygon>
                    <polygon id="Path" stroke="#233447" fill="#233447" points="145 154.901961 153.137255 137.843137 172.745098 146.764706"></polygon>
                    <g id="Group" transform="translate(47.549020, 124.117647)" fill="#CD6116" stroke="#CD6116">
                        <polygon id="Path" points="25.9803922 83.627451 30.6862745 43.8235294 0 44.7058824"></polygon>
                        <polygon id="Path" points="124.215686 43.8235294 128.921569 83.627451 154.901961 44.7058824"></polygon>
                        <polygon id="Path" points="147.54902 -2.7864421e-14 92.4509804 2.45098039 97.5490196 30.7843137 105.686275 13.7254902 125.294118 22.6470588"></polygon>
                        <polygon id="Path" points="29.7058824 22.6470588 49.3137255 13.7254902 57.3529412 30.7843137 62.5490196 2.45098039 7.35294118 -2.7864421e-14"></polygon>
                    </g>
                    <g id="Group" transform="translate(54.901961, 124.117647)" fill="#E4751F" stroke="#E4751F">
                        <polygon id="Path" points="1.39322105e-14 0 23.1372549 45.0980392 22.3529412 22.6470588"></polygon>
                        <polygon id="Path" points="117.941176 22.6470588 116.960784 45.0980392 140.196078 0"></polygon>
                        <polygon id="Path" points="55.1960784 2.45098039 50 30.7843137 56.4705882 64.2156863 57.9411765 20.1960784"></polygon>
                        <polygon id="Path" points="85.0980392 2.45098039 82.4509804 20.0980392 83.627451 64.2156863 90.1960784 30.7843137"></polygon>
                    </g>
                    <polygon id="Path" stroke="#F6851B" fill="#F6851B" points="145.098039 154.901961 138.529412 188.333333 143.235294 191.568627 171.862745 169.215686 172.843137 146.764706"></polygon>
                    <polygon id="Path" stroke="#F6851B" fill="#F6851B" points="77.254902 146.764706 78.0392157 169.215686 106.666667 191.568627 111.372549 188.333333 104.901961 154.901961"></polygon>
                    <polygon id="Path" stroke="#C0AD9E" fill="#C0AD9E" points="145.588235 222.352941 145.882353 213.235294 143.431373 211.078431 106.470588 211.078431 104.215686 213.235294 104.411765 222.352941 73.5294118 207.745098 84.3137255 216.568627 106.176471 231.764706 143.72549 231.764706 165.686275 216.568627 176.470588 207.745098"></polygon>
                    <polygon id="Path" stroke="#161616" fill="#161616" points="143.235294 191.568627 138.529412 188.333333 111.372549 188.333333 106.666667 191.568627 104.215686 213.235294 106.470588 211.078431 143.431373 211.078431 145.882353 213.235294"></polygon>
                    <g id="Group" transform="translate(0.000000, -0.000000)" fill="#763D16" stroke="#763D16">
                        <polygon id="Path" points="241.666667 77.1568627 250 37.1568627 237.54902 0 143.235294 70 179.509804 100.686275 230.784314 115.686275 242.156863 102.45098 237.254902 98.9215686 245.098039 91.7647059 239.019608 87.0588235 246.862745 81.0784314"></polygon>
                        <polygon id="Path" points="-1.04491579e-14 37.1568627 8.33333333 77.1568627 3.03921569 81.0784314 10.8823529 87.0588235 4.90196078 91.7647059 12.745098 98.9215686 7.84313725 102.45098 19.1176471 115.686275 70.3921569 100.686275 106.666667 70 12.3529412 0"></polygon>
                    </g>
                    <polygon id="Path" stroke="#F6851B" fill="#F6851B" points="230.784314 115.686275 179.509804 100.686275 195.098039 124.117647 171.862745 169.215686 202.45098 168.823529 248.039216 168.823529"></polygon>
                    <polygon id="Path" stroke="#F6851B" fill="#F6851B" points="70.3921569 100.686275 19.1176471 115.686275 2.05882353 168.823529 47.5490196 168.823529 78.0392157 169.215686 54.9019608 124.117647"></polygon>
                    <polygon id="Path" stroke="#F6851B" fill="#F6851B" points="140 126.568627 143.235294 70 158.137255 29.7058824 91.9607843 29.7058824 106.666667 70 110.098039 126.568627 111.27451 144.411765 111.372549 188.333333 138.529412 188.333333 138.72549 144.411765"></polygon>
                </g>
            </g>
        </g>
    </g>
</svg>