<?xml version="1.0" encoding="UTF-8"?>
<svg width="1000px" height="400px" viewBox="0 0 1000 400" version="1.1" xmlns="http://www.w3.org/2000/svg" xmlns:xlink="http://www.w3.org/1999/xlink">
    <title>img_meta4</title>
    <g id="Page-1" stroke="none" stroke-width="1" fill="none" fill-rule="evenodd">
        <g id="Desktop-HD" transform="translate(-2598.000000, -113.000000)">
            <g id="img_meta4" transform="translate(2598.000000, 113.000000)">
                <rect id="Rectangle" x="0" y="0" width="1000" height="400"></rect>
                <polygon id="Fill-1" fill="#3A3A40" points="349.751841 183.247971 364.206704 197.702834 333 197.702834 333 202.29679 364.206704 202.29679 349.751841 216.751653 352.999812 219.999624 373 199.999812 352.999812 180"></polygon>
                <polygon id="Fill-1" fill="#3A3A40" points="638.751841 183.247971 653.206704 197.702834 622 197.702834 622 202.29679 653.206704 202.29679 638.751841 216.751653 641.999812 219.999624 662 199.999812 641.999812 180"></polygon>
                <g id="klaytn-klay-logo" transform="translate(410.000000, 111.000000)" fill="#4F473B" fill-rule="nonzero">
                    <path d="M94.2649047,88.4238091 L155.761076,149.469987 C188.079641,115.189449 188.079641,61.6581696 155.761076,27.3776313" id="Path"></path>
                    <polyline id="Path" points="89.7739651 92.4647547 29.1777812 152.610945 89.7739651 177.747606 150.370149 152.610945"></polyline>
                    <polygon id="Path" points="87.5329953 86.1828393 150.379149 23.7866796 92.4649289 0 35.0097027 138.706132"></polygon>
                    <path d="M0,88.4238091 C-0.0448252169,111.130503 8.63105794,132.982209 24.2368478,149.469987 L84.3830377,4.48193964" id="Path"></path>
                </g>
                <g id="MetaMask_Fox" transform="translate(122.000000, 117.000000)" fill-rule="nonzero" stroke-linecap="round" stroke-linejoin="round">
                    <polygon id="Path" stroke="#E2761B" fill="#E2761B" points="171.035294 -1.00311916e-14 100.8 52.1647059 113.788235 21.3882353"></polygon>
                    <g id="Group" transform="translate(1.482353, -0.000000)" fill="#E4761B" stroke="#E4761B">
                        <polygon id="Path" points="7.41176471 0 77.0823529 52.6588235 64.7294118 21.3882353"></polygon>
                        <polygon id="Path" points="144.282353 120.917647 125.576471 149.576471 165.6 160.588235 177.105882 121.552941"></polygon>
                        <polygon id="Path" points="-5.01559578e-15 121.552941 11.4352941 160.588235 51.4588235 149.576471 32.7529412 120.917647"></polygon>
                        <polygon id="Path" points="49.2 72.4941176 38.0470588 89.3647059 77.7882353 91.1294118 76.3764706 48.4235294"></polygon>
                        <polygon id="Path" points="127.764706 72.4941176 100.235294 47.9294118 99.3176471 91.1294118 138.988235 89.3647059"></polygon>
                        <polygon id="Path" points="51.4588235 149.576471 75.3176471 137.929412 54.7058824 121.835294"></polygon>
                        <polygon id="Path" points="101.647059 137.929412 125.576471 149.576471 122.258824 121.835294"></polygon>
                    </g>
                    <g id="Group" transform="translate(52.941176, 137.929412)" fill="#D7C1B3" stroke="#D7C1B3">
                        <polygon id="Path" points="74.1176471 11.6470588 50.1882353 -2.00623831e-14 52.0941176 15.6 51.8823529 22.1647059"></polygon>
                        <polygon id="Path" points="1.00311916e-14 11.6470588 22.2352941 22.1647059 22.0941176 15.6 23.8588235 -2.00623831e-14"></polygon>
                    </g>
                    <polygon id="Path" stroke="#233447" fill="#233447" points="75.5294118 111.529412 55.6235294 105.670588 69.6705882 99.2470588"></polygon>
                    <polygon id="Path" stroke="#233447" fill="#233447" points="104.4 111.529412 110.258824 99.2470588 124.376471 105.670588"></polygon>
                    <g id="Group" transform="translate(34.235294, 89.364706)" fill="#CD6116" stroke="#CD6116">
                        <polygon id="Path" points="18.7058824 60.2117647 22.0941176 31.5529412 0 32.1882353"></polygon>
                        <polygon id="Path" points="89.4352941 31.5529412 92.8235294 60.2117647 111.529412 32.1882353"></polygon>
                        <polygon id="Path" points="106.235294 -2.00623831e-14 66.5647059 1.76470588 70.2352941 22.1647059 76.0941176 9.88235294 90.2117647 16.3058824"></polygon>
                        <polygon id="Path" points="21.3882353 16.3058824 35.5058824 9.88235294 41.2941176 22.1647059 45.0352941 1.76470588 5.29411765 -2.00623831e-14"></polygon>
                    </g>
                    <g id="Group" transform="translate(39.529412, 89.364706)" fill="#E4751F" stroke="#E4751F">
                        <polygon id="Path" points="1.00311916e-14 0 16.6588235 32.4705882 16.0941176 16.3058824"></polygon>
                        <polygon id="Path" points="84.9176471 16.3058824 84.2117647 32.4705882 100.941176 0"></polygon>
                        <polygon id="Path" points="39.7411765 1.76470588 36 22.1647059 40.6588235 46.2352941 41.7176471 14.5411765"></polygon>
                        <polygon id="Path" points="61.2705882 1.76470588 59.3647059 14.4705882 60.2117647 46.2352941 64.9411765 22.1647059"></polygon>
                    </g>
                    <polygon id="Path" stroke="#F6851B" fill="#F6851B" points="104.470588 111.529412 99.7411765 135.6 103.129412 137.929412 123.741176 121.835294 124.447059 105.670588"></polygon>
                    <polygon id="Path" stroke="#F6851B" fill="#F6851B" points="55.6235294 105.670588 56.1882353 121.835294 76.8 137.929412 80.1882353 135.6 75.5294118 111.529412"></polygon>
                    <polygon id="Path" stroke="#C0AD9E" fill="#C0AD9E" points="104.823529 160.094118 105.035294 153.529412 103.270588 151.976471 76.6588235 151.976471 75.0352941 153.529412 75.1764706 160.094118 52.9411765 149.576471 60.7058824 155.929412 76.4470588 166.870588 103.482353 166.870588 119.294118 155.929412 127.058824 149.576471"></polygon>
                    <polygon id="Path" stroke="#161616" fill="#161616" points="103.129412 137.929412 99.7411765 135.6 80.1882353 135.6 76.8 137.929412 75.0352941 153.529412 76.6588235 151.976471 103.270588 151.976471 105.035294 153.529412"></polygon>
                    <g id="Group" transform="translate(0.000000, -0.000000)" fill="#763D16" stroke="#763D16">
                        <polygon id="Path" points="174 55.5529412 180 26.7529412 171.035294 0 103.129412 50.4 129.247059 72.4941176 166.164706 83.2941176 174.352941 73.7647059 170.823529 71.2235294 176.470588 66.0705882 172.094118 62.6823529 177.741176 58.3764706"></polygon>
                        <polygon id="Path" points="-7.52339367e-15 26.7529412 6 55.5529412 2.18823529 58.3764706 7.83529412 62.6823529 3.52941176 66.0705882 9.17647059 71.2235294 5.64705882 73.7647059 13.7647059 83.2941176 50.6823529 72.4941176 76.8 50.4 8.89411765 0"></polygon>
                    </g>
                    <polygon id="Path" stroke="#F6851B" fill="#F6851B" points="166.164706 83.2941176 129.247059 72.4941176 140.470588 89.3647059 123.741176 121.835294 145.764706 121.552941 178.588235 121.552941"></polygon>
                    <polygon id="Path" stroke="#F6851B" fill="#F6851B" points="50.6823529 72.4941176 13.7647059 83.2941176 1.48235294 121.552941 34.2352941 121.552941 56.1882353 121.835294 39.5294118 89.3647059"></polygon>
                    <polygon id="Path" stroke="#F6851B" fill="#F6851B" points="100.8 91.1294118 103.129412 50.4 113.858824 21.3882353 66.2117647 21.3882353 76.8 50.4 79.2705882 91.1294118 80.1176471 103.976471 80.1882353 135.6 99.7411765 135.6 99.8823529 103.976471"></polygon>
                </g>
                <g id="opensea-seeklogo.com" transform="translate(696.000000, 110.000000)" fill-rule="nonzero">
                    <path d="M180,90 C180,139.70286 139.70286,180 90,180 C40.29714,180 0,139.70286 0,90 C0,40.29714 40.29714,0 90,0 C139.7133,0 180,40.29714 180,90 Z" id="Path" fill="#2081E2"></path>
                    <path d="M44.378849,93.2650758 L44.7678664,92.6521326 L68.2261403,55.8722859 C68.5689878,55.3338141 69.3749771,55.3894869 69.6343221,55.974413 C73.5533525,64.777044 76.9349365,75.7247051 75.3507321,82.5402866 C74.6744153,85.3445335 72.8214876,89.1422147 70.7368086,92.6521326 C70.4682658,93.1629487 70.1717685,93.6643655 69.856695,94.1471645 C69.7084464,94.3700365 69.4582993,94.5 69.1895761,94.5 L45.0643637,94.5 C44.415821,94.5 44.0360015,93.794329 44.378849,93.2650758 Z" id="Path" fill="#FFFFFF"></path>
                    <path d="M149.25,99.7569349 L149.25,105.547937 C149.25,105.880377 149.046527,106.175959 148.7505,106.305231 C146.937605,107.081045 140.730764,109.925753 138.150072,113.509418 C131.564014,122.662397 126.532097,135.75 115.283976,135.75 L68.3586717,135.75 C51.7273264,135.75 38.25,122.246892 38.25,105.584795 L38.25,105.049187 C38.25,104.605813 38.6106702,104.245685 39.0547106,104.245685 L65.2138361,104.245685 C65.7317031,104.245685 66.1109201,104.725916 66.0648234,105.233836 C65.8797166,106.933253 66.1942902,108.669709 66.9990007,110.249024 C68.5529618,113.398664 71.7719842,115.365976 75.24994,115.365976 L88.200036,115.365976 L88.200036,105.270873 L75.3979534,105.270873 C74.7412563,105.270873 74.3528561,104.513399 74.732073,103.977791 C74.8707231,103.765274 75.0280999,103.543767 75.19448,103.294392 C76.4063175,101.576455 78.1360221,98.907226 79.8565433,95.8685188 C81.0312875,93.8181421 82.1689383,91.6291438 83.084749,89.430976 C83.2698558,89.0338099 83.4176892,88.6272945 83.5657026,88.2301284 C83.8154528,87.5282106 84.0745664,86.8725 84.2594932,86.2167894 C84.4446,85.6624829 84.5924334,85.0806678 84.7404468,84.5357106 C85.1753038,82.6699829 85.3602306,80.6935017 85.3602306,78.643125 C85.3602306,77.8396233 85.3233173,76.9990839 85.2493106,76.1955822 C85.2122172,75.3181849 85.1012971,74.4406079 84.990197,73.5632106 C84.9161903,72.7873973 84.7775402,72.0207534 84.6295268,71.2172517 C84.4446,70.0442723 84.1854864,68.8806421 83.8894595,67.7074829 L83.7877228,67.2642894 C83.5657026,66.4606079 83.3807759,65.6941438 83.1218424,64.8906421 C82.3909585,62.369024 81.5493346,59.9123116 80.6612539,57.6125599 C80.337497,56.698125 79.9674634,55.8207277 79.5974298,54.9433305 C79.0518328,53.6225599 78.4966923,52.4218921 77.9880086,51.2857705 C77.7290751,50.7685017 77.507055,50.2974401 77.2850348,49.8172089 C77.0352846,49.2722517 76.7763511,48.7272945 76.5172376,48.2102055 C76.3323108,47.8130394 76.119474,47.4435616 75.9714605,47.0740839 L74.3897694,44.1554795 C74.1677492,43.7583134 74.5377828,43.2872517 74.9724598,43.4073545 L84.8700936,46.0857534 L84.8978236,46.0857534 C84.9161903,46.0857534 84.9255537,46.0951027 84.934737,46.0951027 L86.2389479,46.4552312 L87.6728056,46.8617466 L88.200036,47.0093579 L88.200036,41.1352911 C88.200036,38.2997517 90.4755176,36 93.287593,36 C94.6935407,36 95.9700216,36.5726455 96.8858323,37.5054195 C97.8014629,38.4383733 98.37497,39.7129366 98.37497,41.1352911 L98.37497,49.8542466 L99.4296108,50.149649 C99.5128008,50.1775171 99.5959909,50.214375 99.6699976,50.2697517 C99.9291112,50.46375 100.298965,50.7499829 100.770735,51.1011216 C101.140769,51.396524 101.538532,51.7568322 102.019486,52.1263099 C102.97221,52.892774 104.110041,53.8811045 105.358792,55.017226 C105.691732,55.3034589 106.015489,55.5990411 106.311516,55.8946233 C107.921117,57.3908733 109.724828,59.1456678 111.445349,61.0852911 C111.926303,61.6302483 112.398073,62.184375 112.879027,62.7661901 C113.359981,63.3573545 113.868845,63.9391695 114.312705,64.5211644 C114.895575,65.2969777 115.524542,66.1004795 116.070319,66.9410188 C116.329253,67.3381849 116.62528,67.7445205 116.87503,68.1416866 C117.578004,69.2037329 118.197788,70.3029966 118.789841,71.4020805 C119.039592,71.91 119.298525,72.4641267 119.520545,73.0090839 C120.177242,74.4776455 120.695289,75.9738955 121.02823,77.4701455 C121.129966,77.7934161 121.203973,78.144375 121.241067,78.458476 L121.241067,78.5323716 C121.351987,78.9755651 121.38908,79.4466267 121.425993,79.9268579 C121.574007,81.4601455 121.5,82.9932534 121.16706,84.5357106 C121.02823,85.191601 120.843303,85.810274 120.621283,86.4661644 C120.399263,87.0941866 120.177242,87.7498973 119.890579,88.36875 C119.335618,89.6524829 118.678741,90.9363955 117.901761,92.1370634 C117.652011,92.5804366 117.355984,93.0514983 117.059957,93.4948716 C116.7362,93.9657534 116.40326,94.4091267 116.107233,94.8433305 C115.700286,95.3974572 115.265609,95.9792723 114.821569,96.4965411 C114.423805,97.0414983 114.016858,97.5864555 113.572818,98.0666866 C112.953034,98.7962928 112.36098,99.4890411 111.741196,100.154101 C111.371343,100.588125 110.973579,101.031498 110.566452,101.428664 C110.168869,101.871858 109.761742,102.269024 109.391708,102.638502 C108.772104,103.257354 108.254057,103.737586 107.8192,104.134752 L106.801833,105.067705 C106.653819,105.196978 106.459529,105.270873 106.256056,105.270873 L98.37497,105.270873 L98.37497,115.365976 L108.29097,115.365976 C110.510992,115.365976 112.620094,114.580813 114.322068,113.13994 C114.904759,112.632021 117.448537,110.433853 120.454723,107.118082 C120.556459,107.007149 120.686106,106.924084 120.83412,106.887226 L148.223269,98.9811216 C148.732133,98.8333305 149.25,99.2211473 149.25,99.7569349 Z" id="Path" fill="#FFFFFF"></path>
                </g>
            </g>
        </g>
    </g>
</svg>