<?xml version="1.0" encoding="UTF-8"?>
<svg width="1100px" height="500px" viewBox="0 0 1100 500" version="1.1" xmlns="http://www.w3.org/2000/svg" xmlns:xlink="http://www.w3.org/1999/xlink">
    <title>img_meta4_m</title>
    <g id="Page-1" stroke="none" stroke-width="1" fill="none" fill-rule="evenodd">
        <g id="Desktop-HD" transform="translate(-2532.000000, -630.000000)">
            <g id="img_meta4_m" transform="translate(2532.000000, 630.000000)">
                <rect id="Rectangle" opacity="0.600000024" x="0" y="0" width="1100" height="500"></rect>
                <polygon id="Fill-1" fill="#3A3A40" points="349.939801 229.059964 368.008379 247.128542 329 247.128542 329 252.870988 368.008379 252.870988 349.939801 270.939566 353.999765 274.99953 379 249.999765 353.999765 225"></polygon>
                <polygon id="Fill-1" fill="#3A3A40" points="756.939801 229.059964 775.008379 247.128542 736 247.128542 736 252.870988 775.008379 252.870988 756.939801 270.939566 760.999765 274.99953 786 249.999765 760.999765 225"></polygon>
                <g id="opensea-seeklogo.com" transform="translate(848.000000, 124.000000)" fill-rule="nonzero">
                    <path d="M240,120 C240,186.27048 186.27048,240 120,240 C53.72952,240 0,186.27048 0,120 C0,53.72952 53.72952,0 120,0 C186.2844,0 240,53.72952 240,120 Z" id="Path" fill="#2081E2"></path>
                    <path d="M59.1717987,124.353434 L59.6904886,123.536177 L90.9681871,74.4963812 C91.4253171,73.7784188 92.4999695,73.8526492 92.8457628,74.6325506 C98.0711367,86.369392 102.579915,100.966273 100.467643,110.053716 C99.565887,113.792711 97.0953167,118.856286 94.3157448,123.536177 C93.9576877,124.217265 93.562358,124.885821 93.14226,125.529553 C92.9445952,125.826715 92.6110658,126 92.2527682,126 L60.0858183,126 C59.2210947,126 58.7146686,125.059105 59.1717987,124.353434 Z" id="Path" fill="#FFFFFF"></path>
                    <path d="M199,133.009247 L199,140.730582 C199,141.173836 198.728702,141.567945 198.334,141.740308 C195.916807,142.774726 187.641018,146.567671 184.200096,151.34589 C175.418685,163.549863 168.709463,181 153.711967,181 L91.1448956,181 C68.9697685,181 51,162.995856 51,140.779726 L51,140.065582 C51,139.474418 51.4808936,138.994247 52.0729474,138.994247 L86.9517815,138.994247 C87.6422708,138.994247 88.1478934,139.634555 88.0864312,140.311781 C87.8396221,142.577671 88.2590535,144.892945 89.332001,146.998699 C91.4039491,151.198219 95.6959789,153.821301 100.333253,153.821301 L117.600048,153.821301 L117.600048,140.361164 L100.530605,140.361164 C99.6550084,140.361164 99.1371414,139.351199 99.642764,138.637055 C99.8276307,138.353699 100.037467,138.058356 100.259307,137.725856 C101.87509,135.435274 104.181363,131.876301 106.475391,127.824692 C108.041717,125.090856 109.558584,122.172192 110.779665,119.241301 C111.026474,118.711747 111.223586,118.169726 111.420937,117.640171 C111.753937,116.704281 112.099422,115.83 112.345991,114.955719 C112.5928,114.216644 112.789911,113.44089 112.987262,112.714281 C113.567072,110.226644 113.813641,107.591336 113.813641,104.8575 C113.813641,103.786164 113.764423,102.665445 113.665747,101.59411 C113.61629,100.424247 113.468396,99.2541438 113.320263,98.0842808 C113.221587,97.049863 113.03672,96.0276712 112.839369,94.9563356 C112.5928,93.392363 112.247315,91.8408562 111.852613,90.2766438 L111.716964,89.6857192 C111.420937,88.6141438 111.174368,87.5921918 110.829123,86.5208562 C109.854611,83.1586986 108.732446,79.8830822 107.548339,76.8167466 C107.116663,75.5975 106.623285,74.427637 106.129906,73.257774 C105.402444,71.4967466 104.662256,69.8958562 103.984012,68.3810274 C103.638767,67.6913356 103.34274,67.0632534 103.046713,66.4229452 C102.713713,65.6963356 102.368468,64.969726 102.022983,64.280274 C101.776414,63.7507192 101.492632,63.2580822 101.295281,62.7654452 L99.1863592,58.8739726 C98.8903323,58.3444178 99.3837104,57.7163356 99.9632797,57.8764726 L113.160125,61.4476712 L113.197098,61.4476712 C113.221587,61.4476712 113.234072,61.460137 113.246316,61.460137 L114.985264,61.9403082 L116.897074,62.4823288 L117.600048,62.6791438 L117.600048,54.8470548 C117.600048,51.0663356 120.634024,48 124.383457,48 C126.258054,48 127.960029,48.7635274 129.18111,50.007226 C130.401951,51.2511644 131.166627,52.9505822 131.166627,54.8470548 L131.166627,66.4723288 L132.572814,66.8661986 C132.683734,66.9033562 132.794655,66.9525 132.89333,67.0263356 C133.238815,67.285 133.731953,67.6666438 134.36098,68.1348288 C134.854358,68.5286986 135.38471,69.0091096 136.025981,69.5017466 C137.29628,70.5236986 138.813388,71.8414726 140.478389,73.3563014 C140.922309,73.7379452 141.353985,74.1320548 141.748688,74.5261644 C143.894823,76.5211644 146.299771,78.8608904 148.593799,81.4470548 C149.235071,82.1736644 149.864098,82.9125 150.50537,83.6882534 C151.146641,84.4764726 151.825126,85.252226 152.41694,86.0282192 C153.1941,87.062637 154.032723,88.1339726 154.760426,89.2546918 C155.105671,89.7842466 155.500373,90.3260274 155.833373,90.8555822 C156.770672,92.2716438 157.59705,93.7373288 158.386455,95.202774 C158.719455,95.88 159.0647,96.6188356 159.360727,97.3454452 C160.236323,99.3035274 160.927053,101.298527 161.370973,103.293527 C161.506622,103.724555 161.605297,104.1925 161.654755,104.611301 L161.654755,104.709829 C161.802649,105.300753 161.852107,105.928836 161.901324,106.569144 C162.098676,108.613527 162,110.657671 161.55608,112.714281 C161.370973,113.588801 161.124404,114.413699 160.828377,115.288219 C160.53235,116.125582 160.236323,116.999863 159.854105,117.825 C159.114158,119.536644 158.238322,121.248527 157.202348,122.849418 C156.869347,123.440582 156.474645,124.068664 156.079942,124.659829 C155.648267,125.287671 155.204346,125.878836 154.809644,126.457774 C154.267048,127.19661 153.687479,127.972363 153.095425,128.662055 C152.565073,129.388664 152.022477,130.115274 151.430424,130.755582 C150.604045,131.72839 149.81464,132.652055 148.988262,133.538801 C148.495124,134.1175 147.964772,134.708664 147.421936,135.238219 C146.891825,135.829144 146.348989,136.358699 145.855611,136.851336 C145.029472,137.676473 144.338743,138.316781 143.758933,138.846336 L142.402444,140.090274 C142.205092,140.262637 141.946039,140.361164 141.674741,140.361164 L131.166627,140.361164 L131.166627,153.821301 L144.387961,153.821301 C147.347989,153.821301 150.160125,152.774418 152.429424,150.853253 C153.206345,150.176027 156.598049,147.245137 160.606297,142.82411 C160.741946,142.676199 160.914808,142.565445 161.112159,142.516301 L197.631026,131.974829 C198.309511,131.777774 199,132.294863 199,133.009247 Z" id="Path" fill="#FFFFFF"></path>
                </g>
                <g id="klaytn-klay-logo" transform="translate(430.000000, 132.000000)" fill="#4F473B" fill-rule="nonzero">
                    <path d="M125.68654,117.898412 L207.681435,199.293316 C250.772855,153.585932 250.772855,82.2108928 207.681435,36.5035084" id="Path"></path>
                    <polyline id="Path" points="119.69862 123.28634 38.9037083 203.48126 119.69862 236.996808 200.493532 203.48126"></polyline>
                    <polygon id="Path" points="116.71066 114.910452 200.505532 31.7155729 123.286572 0 46.6796036 184.941509"></polygon>
                    <path d="M0,117.898412 C-0.0597669559,148.174004 11.5080773,177.309612 32.315797,199.293316 L112.510717,5.97591952" id="Path"></path>
                </g>
                <g id="MetaMask_Fox" transform="translate(22.000000, 133.000000)" fill-rule="nonzero" stroke-linecap="round" stroke-linejoin="round">
                    <polygon id="Path" stroke="#E2761B" fill="#E2761B" points="237.54902 -1.39322105e-14 140 72.4509804 158.039216 29.7058824"></polygon>
                    <g id="Group" transform="translate(2.058824, -0.000000)" fill="#E4761B" stroke="#E4761B">
                        <polygon id="Path" points="10.2941176 0 107.058824 73.1372549 89.9019608 29.7058824"></polygon>
                        <polygon id="Path" points="200.392157 167.941176 174.411765 207.745098 230 223.039216 245.980392 168.823529"></polygon>
                        <polygon id="Path" points="-6.96610525e-15 168.823529 15.8823529 223.039216 71.4705882 207.745098 45.4901961 167.941176"></polygon>
                        <polygon id="Path" points="68.3333333 100.686275 52.8431373 124.117647 108.039216 126.568627 106.078431 67.254902"></polygon>
                        <polygon id="Path" points="177.45098 100.686275 139.215686 66.5686275 137.941176 126.568627 193.039216 124.117647"></polygon>
                        <polygon id="Path" points="71.4705882 207.745098 104.607843 191.568627 75.9803922 169.215686"></polygon>
                        <polygon id="Path" points="141.176471 191.568627 174.411765 207.745098 169.803922 169.215686"></polygon>
                    </g>
                    <g id="Group" transform="translate(73.529412, 191.568627)" fill="#D7C1B3" stroke="#D7C1B3">
                        <polygon id="Path" points="102.941176 16.1764706 69.7058824 -2.7864421e-14 72.3529412 21.6666667 72.0588235 30.7843137"></polygon>
                        <polygon id="Path" points="1.39322105e-14 16.1764706 30.8823529 30.7843137 30.6862745 21.6666667 33.1372549 -2.7864421e-14"></polygon>
                    </g>
                    <polygon id="Path" stroke="#233447" fill="#233447" points="104.901961 154.901961 77.254902 146.764706 96.7647059 137.843137"></polygon>
                    <polygon id="Path" stroke="#233447" fill="#233447" points="145 154.901961 153.137255 137.843137 172.745098 146.764706"></polygon>
                    <g id="Group" transform="translate(47.549020, 124.117647)" fill="#CD6116" stroke="#CD6116">
                        <polygon id="Path" points="25.9803922 83.627451 30.6862745 43.8235294 0 44.7058824"></polygon>
                        <polygon id="Path" points="124.215686 43.8235294 128.921569 83.627451 154.901961 44.7058824"></polygon>
                        <polygon id="Path" points="147.54902 -2.7864421e-14 92.4509804 2.45098039 97.5490196 30.7843137 105.686275 13.7254902 125.294118 22.6470588"></polygon>
                        <polygon id="Path" points="29.7058824 22.6470588 49.3137255 13.7254902 57.3529412 30.7843137 62.5490196 2.45098039 7.35294118 -2.7864421e-14"></polygon>
                    </g>
                    <g id="Group" transform="translate(54.901961, 124.117647)" fill="#E4751F" stroke="#E4751F">
                        <polygon id="Path" points="1.39322105e-14 0 23.1372549 45.0980392 22.3529412 22.6470588"></polygon>
                        <polygon id="Path" points="117.941176 22.6470588 116.960784 45.0980392 140.196078 0"></polygon>
                        <polygon id="Path" points="55.1960784 2.45098039 50 30.7843137 56.4705882 64.2156863 57.9411765 20.1960784"></polygon>
                        <polygon id="Path" points="85.0980392 2.45098039 82.4509804 20.0980392 83.627451 64.2156863 90.1960784 30.7843137"></polygon>
                    </g>
                    <polygon id="Path" stroke="#F6851B" fill="#F6851B" points="145.098039 154.901961 138.529412 188.333333 143.235294 191.568627 171.862745 169.215686 172.843137 146.764706"></polygon>
                    <polygon id="Path" stroke="#F6851B" fill="#F6851B" points="77.254902 146.764706 78.0392157 169.215686 106.666667 191.568627 111.372549 188.333333 104.901961 154.901961"></polygon>
                    <polygon id="Path" stroke="#C0AD9E" fill="#C0AD9E" points="145.588235 222.352941 145.882353 213.235294 143.431373 211.078431 106.470588 211.078431 104.215686 213.235294 104.411765 222.352941 73.5294118 207.745098 84.3137255 216.568627 106.176471 231.764706 143.72549 231.764706 165.686275 216.568627 176.470588 207.745098"></polygon>
                    <polygon id="Path" stroke="#161616" fill="#161616" points="143.235294 191.568627 138.529412 188.333333 111.372549 188.333333 106.666667 191.568627 104.215686 213.235294 106.470588 211.078431 143.431373 211.078431 145.882353 213.235294"></polygon>
                    <g id="Group" transform="translate(0.000000, -0.000000)" fill="#763D16" stroke="#763D16">
                        <polygon id="Path" points="241.666667 77.1568627 250 37.1568627 237.54902 0 143.235294 70 179.509804 100.686275 230.784314 115.686275 242.156863 102.45098 237.254902 98.9215686 245.098039 91.7647059 239.019608 87.0588235 246.862745 81.0784314"></polygon>
                        <polygon id="Path" points="-1.04491579e-14 37.1568627 8.33333333 77.1568627 3.03921569 81.0784314 10.8823529 87.0588235 4.90196078 91.7647059 12.745098 98.9215686 7.84313725 102.45098 19.1176471 115.686275 70.3921569 100.686275 106.666667 70 12.3529412 0"></polygon>
                    </g>
                    <polygon id="Path" stroke="#F6851B" fill="#F6851B" points="230.784314 115.686275 179.509804 100.686275 195.098039 124.117647 171.862745 169.215686 202.45098 168.823529 248.039216 168.823529"></polygon>
                    <polygon id="Path" stroke="#F6851B" fill="#F6851B" points="70.3921569 100.686275 19.1176471 115.686275 2.05882353 168.823529 47.5490196 168.823529 78.0392157 169.215686 54.9019608 124.117647"></polygon>
                    <polygon id="Path" stroke="#F6851B" fill="#F6851B" points="140 126.568627 143.235294 70 158.137255 29.7058824 91.9607843 29.7058824 106.666667 70 110.098039 126.568627 111.27451 144.411765 111.372549 188.333333 138.529412 188.333333 138.72549 144.411765"></polygon>
                </g>
            </g>
        </g>
    </g>
</svg>