<svg xmlns="http://www.w3.org/2000/svg" width="199.5" height="29.691" viewBox="0 0 199.5 29.691"><g transform="translate(-0.25 -0.105)"><path d="M191.67,9.782c1.508-1.325,2.859-2.063,3.686-2.063,1.234,0,2.15,1.1,3.066,1.1a1.183,1.183,0,0,0,.984-.73l.344.26q-1.365,1.884-2.587,3.866a5.527,5.527,0,0,0-3.8-2.327c-1.17,0-1.353.8-.9,1.465.867,1.17,2.95,2.393,4.51,3.638,1.3,1.022,2.082,2,2.082,3.446,0,1.848-2.2,3.764-3.776,6.367a12.708,12.708,0,0,0-5.218-1.734,1.98,1.98,0,0,0-2.039,1.236l-.184-.1c.5-2.588,1.418-4.746,3.227-4.746,1.424,0,3.046,1.061,4.832,2.43.272.213.48.146.617-.115.256-.586.16-1.7-1.1-2.764-1.4-1.18-2.857-1.848-4.025-2.7-1.648-1.217-2.018-2.175-2.018-3.133s.645-1.949,2.294-3.393M148.859,7.6l2.361-4.324,2.1,1.6L149.57,8.184M152.8,18.79c0,2.127.5,2.876,1.464,2.876a1.377,1.377,0,0,0,.848-.277l.186.485a45.811,45.811,0,0,0-3.777,3.012c-2.291-2.043-2.795-2.8-2.795-6.112V12.653a1.869,1.869,0,0,0-1.328-1.96v-.074c.918-.55,2.655-1.56,4.008-2.437a5.194,5.194,0,0,1,1.4,4.17m30.009,12.091a1.485,1.485,0,0,1-1.647.053c-2.429-1.245-3.3-3.167-3.3-6.38v-5.86a.746.746,0,0,1,.41-.766l6.184-3.38c.273-.14.412-.1.551.118l2.951,4.815c.16.273.141.45-.113.626-2.039,1.5-4.9,3.44-6.205,4.265l-.065-.877a29.08,29.08,0,0,0,3-2.062.428.428,0,0,0,.093-.655l-2.29-3.587c-.252-.4-.664-.185-.664.214v6.144c0,2.6.962,4.3,2.813,4.3,1.81,0,3.066-1.556,3.615-2.617l.068.021v1.416a36.193,36.193,0,0,1-5.4,4.211M61.622,7.91c-1.28-1.793-3.823-4.285-6.295-4.285-1.626,0-2.4,1.015-2.4,1.85,0,1.126.94,1.885,3.39,3.46,4.853,3.122,8.63,5.28,8.63,9.426,0,4.324-4.646,5.871-6,9.115h-.09c-3.022-4.387-8.31-5.258-10.46-3.312l-.16-.117c.272-1.972,1.463-5.51,4.325-5.51,2.633,0,6.112,3.5,8.24,4.39a.652.652,0,0,0,.8-.2,2.649,2.649,0,0,0,.435-1.707c0-5.832-12.087-7.5-12.087-12.166,0-1.1,1.007-3.07,2.426-4.81C54.206,1.774,56.082.767,58.12.767c3.158,0,4.716,2.357,6.044,2.357a1.525,1.525,0,0,0,1.26-.76l.32.364a51.05,51.05,0,0,0-4.122,5.183M61.232,21.1c0-5.186-12.225-6.805-12.225-12.248l-.137.02C48,14.974,60.018,16.541,61.1,21.136m42.212-3.681c0,2.6.527,3.689,1.768,3.689a1.8,1.8,0,0,0,1.1-.41l.185.475q-1.838,1.8-3.595,3.673c-1.627-1.19-2.838-2.466-3.16-3.93l-.115-.352V8.456c0-1.6-.3-2.356-1.4-2.637V5.747c1.717-.958,3.5-2.073,5.126-3.148l.094.053m-7.1,14.78c0,2.854.618,3.777,1.855,3.777a2.354,2.354,0,0,0,1.81-1.17l.273.68c-.982.9-3.55,3.33-4.37,4.167-2.61-1.762-3.412-3.174-3.412-6.5V8.458c0-1.605-.3-2.357-1.373-2.638V5.747Q93.6,4.268,96.1,2.6l.115.053m9.11,7.835.824-1.685H89.5l.642,1.685M117.936,24.5c-2.428-1.245-3.295-3.167-3.295-6.38v-5.86a.749.749,0,0,1,.41-.765l6.206-3.38a.355.355,0,0,1,.55.118l2.95,4.815a.414.414,0,0,1-.112.626c-2.037,1.5-4.9,3.439-6.228,4.264l-.046-.877a28.375,28.375,0,0,0,3-2.062.445.445,0,0,0,.094-.656l-2.29-3.587a.353.353,0,0,0-.663.213V17.11c0,2.6,1.028,4.375,2.9,4.375,1.786,0,3.272-1.73,3.87-2.8l.066.021v1.416a41.636,41.636,0,0,1-5.748,4.323,1.508,1.508,0,0,1-1.666.053m-6.869-6.754c0,2.6.662,3.409,1.966,3.409a1.908,1.908,0,0,0,1.146-.42l.184.477c-1.008.93-2.953,2.823-3.729,3.677-2.727-1.97-3.458-2.981-3.458-6.5V6.948c0-1.6-.3-2.36-1.373-2.63v-.08q2.632-1.473,5.15-3.137l.115.044M85.384,14.423c-1.946,1.39-5.5,3.343-7.12,4.315a.639.639,0,0,0-.32.652c0,2.383.686,4.25,2.312,5.073a1.149,1.149,0,0,0,1.372-.1l3.87-3.137-.252-.793a2.014,2.014,0,0,1-1.692,1.118c-1.236,0-1.785-1.46-1.785-3.567,0-.215.02-.334.18-.451a34.213,34.213,0,0,1,3.5-2.183m3.411,2.787a4.823,4.823,0,0,0,.48,2.79,1.215,1.215,0,0,0,1.03.658.992.992,0,0,0,.71-.28l.206.48c-.894.684-2.77,2.3-3.642,3.1-1.554-1.422-2.38-2.348-2.607-3.97v-7.3a1.749,1.749,0,0,0-.62-1.517,16.127,16.127,0,0,0-2.335-1.53c-.388-.2-.663,0-.663.42v2.568a1.174,1.174,0,0,1-.6,1.173l-2.447,1.245c-.163.088-.277.015-.277-.168V12.252a.576.576,0,0,1,.3-.568l5.61-3.622a.41.41,0,0,1,.548,0c1.1.69,2.953,2.03,4.03,2.878a.71.71,0,0,1,.273.6m-17.372,12.9a1.525,1.525,0,0,1-1.67.053c-2.428-1.245-3.3-3.167-3.3-6.38v-5.86a.746.746,0,0,1,.41-.766l6.205-3.38c.25-.14.41-.1.528.118l2.95,4.815a.386.386,0,0,1-.114.626c-2.038,1.5-4.9,3.44-6.2,4.265l-.047-.877A26.45,26.45,0,0,0,73.226,15a.427.427,0,0,0,.093-.655l-2.29-3.587c-.25-.4-.664-.185-.664.214v6.144c0,2.6.984,4.3,2.84,4.3,1.785,0,3.04-1.556,3.592-2.617l.07.021v1.416a37.068,37.068,0,0,1-5.38,4.211M37.45,24.5c-2.406-1.245-3.275-3.167-3.275-6.38v-5.86a.716.716,0,0,1,.41-.765l6.183-3.38a.354.354,0,0,1,.55.118l2.95,4.815c.163.273.14.45-.112.626-2.038,1.5-4.9,3.439-6.23,4.264l-.043-.877a28.26,28.26,0,0,0,3-2.062.425.425,0,0,0,.093-.656l-2.29-3.587a.353.353,0,0,0-.663.213V17.11c0,2.6,1.055,4.375,2.907,4.375,1.81,0,3.3-1.73,3.868-2.8l.07.021v1.416a41.915,41.915,0,0,1-5.745,4.323,1.513,1.513,0,0,1-1.67.052M24.444,18.59c0,2.446.367,3.13,1.673,4.25L23.1,25.5c-1.97-1.852-2.52-2.812-2.542-6.3V9.95c0-1.6-.207-2.387-1.307-2.585V7.293C20.875,6.3,22.728,5,24.332,3.8l.112.052v6.688c0,.352.23.53.618.3,1.1-.64,2.7-1.64,3.755-2.348a.352.352,0,0,1,.412-.036,4.137,4.137,0,0,1,2.678,3.728v7.233c0,3.5-.57,4.665-6.456,10.38l-.73-.5c2.814-1.878,3.11-4.228,3.11-8.226V13.942a5.858,5.858,0,0,0-.2-1.952c-.207-.565-.55-.97-1.144-.97a3.371,3.371,0,0,0-2.04,1.338M.845,7.608A2.672,2.672,0,0,1,1.53,5.6a3.783,3.783,0,0,1,2.977-.95c2.7,0,7.508,2.04,11.7,2.04,3.662,0,6.158-3.564,7.1-5.456L22.91.1l-.068.007c-.23,1.57-1.577,3.5-4.578,3.5-2.838,0-8.445-2.18-11.376-2.18A6.488,6.488,0,0,0,.25,7.064l.55.57" fill="#0f5a64"/><path d="M14.578,6h.894V24.285h-.894ZM8.032,6.18l.457.28a9.281,9.281,0,0,0-3.48,7.51c0,5.606,3.25,10.253,8.517,10.253a6.647,6.647,0,0,0,5.858-3.078l.068.016.093,1.33a13.391,13.391,0,0,1-8.606,3.67c-6.182,0-9.913-4.234-9.913-9.8,0-5.2,3.617-8.423,7.005-10.176M13,5.966,10.687,7.248c-1.44.79-1.738,1.634-1.738,3.232,0,1.43.388,3.867.388,5.8,0,1.99-.414,2.613-2.11,3.332l.3.527a43.6,43.6,0,0,0,4.282-2.261A1.949,1.949,0,0,0,13,15.833V9.552c0-2.04.046-2.672.436-3.216m154.04,12.792c0,2,.641,2.712,1.438,2.712a1.359,1.359,0,0,0,.806-.273l.18.483c-.894.6-2.883,2.093-3.754,2.837-2.312-2.195-2.746-2.96-2.746-6.275V13.945a5.844,5.844,0,0,0-.23-1.952,1.186,1.186,0,0,0-1.123-.973,3.236,3.236,0,0,0-2.016,1.3v6.81c0,2,.664,2.712,1.466,2.712a1.229,1.229,0,0,0,.778-.273l.184.483c-.893.6-2.861,2.093-3.756,2.839-2.288-2.2-2.727-2.926-2.727-6.24V12.659a1.886,1.886,0,0,0-1.35-1.96V10.62c.917-.55,2.678-1.56,4.005-2.437a6.829,6.829,0,0,1,1.216,2.557c.065.31.344.37.614.22,1.168-.656,2.795-1.723,3.914-2.467a.353.353,0,0,1,.413-.036,4.693,4.693,0,0,1,2.4,2.34.418.418,0,0,0,.664.186c1.215-.7,2.814-1.73,3.938-2.49a.339.339,0,0,1,.41-.036c2.13.98,2.682,2.143,2.682,4.77v5.9c0,2,.663,2.71,1.463,2.71a1.237,1.237,0,0,0,.78-.272l.185.483c-.9.6-2.862,2.093-3.754,2.841-2.291-2.2-2.726-2.964-2.726-6.276V13.947A5.821,5.821,0,0,0,170.6,12a1.212,1.212,0,0,0-1.145-.973,3.232,3.232,0,0,0-1.99,1.3M128.738,7.608a2.664,2.664,0,0,1,.688-2.01,3.783,3.783,0,0,1,2.977-.95c2.7,0,7.509,2.04,11.7,2.04,3.66,0,6.156-3.564,7.092-5.456L150.811.105l-.07.007c-.206,1.57-1.578,3.5-4.578,3.5-2.84,0-8.447-2.18-11.377-2.18a6.512,6.512,0,0,0-6.641,5.627l.551.57" fill="#0f5a64"/><path d="M142.477,6h.891V24.285h-.891Zm-6.547.178.457.28a9.283,9.283,0,0,0-3.479,7.51c0,5.606,3.247,10.253,8.514,10.253a6.643,6.643,0,0,0,5.862-3.078l.07.016.088,1.33a13.375,13.375,0,0,1-8.6,3.67c-6.18,0-9.91-4.234-9.91-9.8,0-5.2,3.616-8.423,7.006-10.176m4.985-.216-2.336,1.282c-1.439.79-1.738,1.634-1.738,3.232,0,1.43.391,3.867.391,5.8,0,1.99-.414,2.613-2.107,3.332l.3.527a41.329,41.329,0,0,0,4.28-2.261,1.949,1.949,0,0,0,1.189-2.048V9.552c0-2.04.047-2.672.438-3.216" fill="#0f5a64"/><path d="M105.318,10.487l.824-1.684H89.507l.64,1.684Z" fill="#0f5a64"/></g></svg>