<svg height="23.911" viewBox="0 0 140.917 23.911" width="140.917" xmlns="http://www.w3.org/2000/svg" xmlns:xlink="http://www.w3.org/1999/xlink"><clipPath id="a"><path d="m736.875-36.215h140.917v23.915h-140.917z" transform="translate(-736.875 36.215)"/></clipPath><clipPath id="b"><path d="m736.875-12.3h140.917v-23.915h-140.917z" transform="translate(-736.875 36.215)"/></clipPath><clipPath id="c"><path d="m736.875-35.82h140.887v23.409h-140.887z" transform="translate(-736.875 35.82)"/></clipPath><g clip-path="url(#a)"><g clip-path="url(#b)" fill="#0f5a64"><path d="m783.2-33.675a2.141 2.141 0 0 1 2.141-2.141 2.141 2.141 0 0 1 2.141 2.141 2.143 2.143 0 0 1 -2.141 2.062 2.143 2.143 0 0 1 -2.141-2.062" transform="translate(-727.937 36.292)"/><path d="m811.519-21.7a2.142 2.142 0 0 1 2.137-2.149 2.147 2.147 0 0 1 2.144 2.149 2.147 2.147 0 0 1 -2.147 2.147 2.144 2.144 0 0 1 -2.137-2.147" transform="translate(-722.473 38.601)"/><path d="m754.828-20.413c-1.843 0-3.126-1.464-3.126-3.558s1.282-3.555 3.127-3.555 3.149 1.463 3.149 3.555c.001 2.127-1.267 3.558-3.15 3.558zm0-10.24a6.488 6.488 0 0 0 -6.733 6.682 6.488 6.488 0 0 0 6.733 6.682 6.5 6.5 0 0 0 6.76-6.681 6.5 6.5 0 0 0 -6.758-6.683m30.994 7.018a3.189 3.189 0 0 0 -.51-.72l-.119-.124.125-.119a5.371 5.371 0 0 0 .538-.673l3.445-5.118h-4.181l-2.587 4a1.007 1.007 0 0 1 -.884.322h-.589v-7.569c0-1.514-.944-1.719-1.962-1.719h-1.745v17.866h3.7v-5.359h.347c.422 0 .708.049.841.279l2.043 3.856a2.054 2.054 0 0 0 2.21 1.224h2.838l-2.115-3.5-1.4-2.654m17.981-7.039a5.038 5.038 0 0 0 -3.761 1.546l-.224.227-.081-.309a1.705 1.705 0 0 0 -1.868-1.175h-1.66l.01 12.9h3.684v-5.947a4.782 4.782 0 0 1 .23-1.546 3.023 3.023 0 0 1 2.978-2.261c1.148 0 1.6.607 1.6 2.173v5.62a1.707 1.707 0 0 0 1.956 1.961h1.751l-.006-8.207c0-3.26-1.591-4.984-4.6-4.984m-11.648.292h-1.743l.012 9.978v2.926h1.859.066.868.862.006l.007-10.938a1.71 1.71 0 0 0 -1.936-1.959m-22.882 9.975c-1.843 0-3.127-1.464-3.127-3.558s1.284-3.555 3.129-3.555 3.149 1.463 3.149 3.555c0 2.126-1.267 3.558-3.149 3.558zm0-10.24a6.49 6.49 0 0 0 -6.737 6.682 6.489 6.489 0 0 0 6.739 6.682 6.5 6.5 0 0 0 6.76-6.681 6.5 6.5 0 0 0 -6.76-6.683" transform="translate(-734.71 36.382)"/></g></g><g clip-path="url(#a)"><g clip-path="url(#c)" transform="translate(0 .471)"><g clip-path="url(#b)" fill="#0f5a64" transform="translate(0 -.471)"><path d="m833.033-21.173c-1.843 0-3.129-1.464-3.129-3.558s1.285-3.555 3.129-3.555 3.151 1.463 3.151 3.555c0 2.131-1.267 3.558-3.151 3.558zm0-10.24a6.489 6.489 0 0 0 -6.736 6.682 6.488 6.488 0 0 0 6.736 6.682 6.5 6.5 0 0 0 6.76-6.681 6.5 6.5 0 0 0 -6.76-6.683" transform="translate(-719.621 37.142)"/><path d="m806.2-21.731c-2.012 0-2.727-1.754-2.727-3.4 0-.725.183-3.085 2.535-3.085 1.168 0 2.723.334 2.723 3.206 0 2.71-1.377 3.279-2.531 3.279zm4.441-9.442a1.6 1.6 0 0 0 -1.5.787l-.1.2-.17-.149a5.011 5.011 0 0 0 -3.386-1.123c-3.44 0-5.756 2.584-5.756 6.427s2.4 6.525 5.825 6.525a4.529 4.529 0 0 0 2.83-.829l.283-.213v.358c0 1.724-1.114 2.675-3.134 2.675a7.425 7.425 0 0 1 -2.475-.456 1.092 1.092 0 0 0 -1.552.743l-.292.722-.413 1.056.255.136a10.059 10.059 0 0 0 4.5 1.1c3.131 0 6.791-1.6 6.791-6.115l.013-11.836h-1.711" transform="translate(-724.749 37.132)"/></g></g></g><g clip-path="url(#a)"><g clip-path="url(#b)" fill="#0f5a64"><path d="m743.294-20.561h-2.994v-3.579c0-.766.3-1.163.951-1.256h2.043a2.241 2.241 0 0 1 2.4 2.405 2.229 2.229 0 0 1 -2.4 2.431zm-2.994-9.657v-.942c0-.825.349-1.217 1.114-1.268h1.533a1.932 1.932 0 0 1 2.1 2.1 1.994 1.994 0 0 1 -2.053 2.173h-2.694zm6.818 3.573-.541-.3.473-.4a4.322 4.322 0 0 0 1.47-3.37c0-2.809-2.177-4.623-5.549-4.623h-4.286a1.879 1.879 0 0 0 -1.81 1.855v15.933h6.172c3.747 0 6.166-2.04 6.166-5.2a4.34 4.34 0 0 0 -2.1-3.895" transform="translate(-736.875 36.383)"/><path d="m858.286-31.4a5.07 5.07 0 0 0 -3.949 1.913l-.265.337-.209-.377a3.666 3.666 0 0 0 -3.485-1.873 4.669 4.669 0 0 0 -3.389 1.521l-.349.377-.134-.5a1.641 1.641 0 0 0 -1.794-1.108h-1.546l-.015 12.854h3.512v-5.674a6.35 6.35 0 0 1 .186-1.5c.335-1.372 1.257-2.847 2.806-2.7.954.092 1.423.831 1.423 2.256v7.62h3.537v-5.674a5.149 5.149 0 0 1 .2-1.552 3.053 3.053 0 0 1 2.741-2.651c1.083 0 1.482.611 1.482 2.258v5.741c0 1.3.579 1.879 1.877 1.879h1.652v-8.206c0-3.279-1.444-4.942-4.283-4.942m-31.962 8.685a5.423 5.423 0 0 1 -3.512 1.606 3.434 3.434 0 0 1 -3.644-3.6 3.4 3.4 0 0 1 3.454-3.643c.659 0 1.411.236 1.529.634l.016.067a1.291 1.291 0 0 0 1.253.95h1.924v-1.682c0-2.219-2.823-3.024-4.721-3.024a6.644 6.644 0 0 0 -7.009 6.722 6.6 6.6 0 0 0 6.934 6.716 7.291 7.291 0 0 0 5.4-2.314l.1-.125-1.524-2.528-.2.213" transform="translate(-721.683 37.144)"/></g></g></svg>