<svg xmlns="http://www.w3.org/2000/svg" width="177.748" height="28.733" viewBox="0 0 177.748 28.733"><g transform="translate(-26.504 -88.162)"><path d="M8.5,88.162h57.75v28.733H8.5Z" transform="translate(18)" fill="#0f5a64" fill-rule="evenodd"/><path d="M128.5,88.162H8.5v28.733h120Z" transform="translate(75.75)" fill="#0f5a64" fill-rule="evenodd" opacity="0.125"/><path d="M-49.743,0V-12.852h3.78V0Zm13.554,0V-5.454a1.627,1.627,0,0,0-.387-1.206,1.685,1.685,0,0,0-1.215-.378,2.377,2.377,0,0,0-.882.171,2.347,2.347,0,0,0-.756.477,1.707,1.707,0,0,0-.612,1.3V0H-43.6V-9.45h3.492v1.314a4.865,4.865,0,0,1,3.708-1.6,3.886,3.886,0,0,1,2.781.945,3.479,3.479,0,0,1,1,2.655V0Zm12.222-6.57a1.2,1.2,0,0,0-.63-.738,2.943,2.943,0,0,0-1.3-.234,3.353,3.353,0,0,0-1.26.189q-.45.189-.45.549a.554.554,0,0,0,.351.5,3.959,3.959,0,0,0,1.2.288l1.3.18a11.788,11.788,0,0,1,2.6.594,2.666,2.666,0,0,1,1.287.927,2.633,2.633,0,0,1,.378,1.485A2.55,2.55,0,0,1-21.807-.5a7.564,7.564,0,0,1-3.852.792A7.857,7.857,0,0,1-29.673-.54a3.142,3.142,0,0,1-1.548-2.484h3.33q.324,1.044,2.178,1.044A3.539,3.539,0,0,0-24.4-2.169a.612.612,0,0,0,.45-.567.519.519,0,0,0-.342-.486,4.417,4.417,0,0,0-1.206-.27l-1.188-.162a10.331,10.331,0,0,1-2.511-.6,2.943,2.943,0,0,1-1.341-.99,2.594,2.594,0,0,1-.414-1.5,2.439,2.439,0,0,1,1.332-2.2,7.389,7.389,0,0,1,3.726-.783,7.626,7.626,0,0,1,3.582.684,3.205,3.205,0,0,1,1.62,2.178ZM-11.817,0V-1.314a4.822,4.822,0,0,1-3.636,1.6A3.747,3.747,0,0,1-18.18-.666a3.52,3.52,0,0,1-.981-2.646V-9.45H-15.6v5.472a1.623,1.623,0,0,0,.378,1.188,1.567,1.567,0,0,0,1.152.378,2.332,2.332,0,0,0,1.566-.63,1.787,1.787,0,0,0,.45-.6,1.682,1.682,0,0,0,.162-.711V-9.45h3.564V0ZM-6.2,0V-9.45h3.492v1.332A4.223,4.223,0,0,1,.6-9.612,5.861,5.861,0,0,1,1.719-9.5l-.4,2.754a6.737,6.737,0,0,0-1.17-.108,3.276,3.276,0,0,0-2.088.612,1.859,1.859,0,0,0-.522.63,1.633,1.633,0,0,0-.18.738V0ZM9.369,0V-1.17a4.72,4.72,0,0,1-1.647,1.1A5.73,5.73,0,0,1,5.661.27,4.929,4.929,0,0,1,2.727-.477,2.5,2.5,0,0,1,1.7-2.628a2.507,2.507,0,0,1,1.323-2.3,8.93,8.93,0,0,1,4.131-.846l2.088-.054v-.414a1.024,1.024,0,0,0-.45-.891,2.21,2.21,0,0,0-1.278-.315,3.391,3.391,0,0,0-1.359.234A1.076,1.076,0,0,0,5.5-6.57L2.313-6.8A3.238,3.238,0,0,1,3.96-9.018a7.575,7.575,0,0,1,3.627-.72q4.95,0,4.95,3.834V0ZM9.243-4.014,7.371-3.96a5.128,5.128,0,0,0-1.8.279.826.826,0,0,0-.54.8q0,.864,1.656.864A4.153,4.153,0,0,0,7.812-2.16a2.233,2.233,0,0,0,.837-.414,1.485,1.485,0,0,0,.594-1.152ZM21.987,0V-5.454A1.627,1.627,0,0,0,21.6-6.66a1.685,1.685,0,0,0-1.215-.378,2.377,2.377,0,0,0-.882.171,2.347,2.347,0,0,0-.756.477,1.707,1.707,0,0,0-.612,1.3V0H14.571V-9.45h3.492v1.314a4.865,4.865,0,0,1,3.708-1.6,3.886,3.886,0,0,1,2.781.945,3.479,3.479,0,0,1,1,2.655V0ZM38.169-3.654A4.155,4.155,0,0,1,36.495-.729,6.316,6.316,0,0,1,32.715.288a7.027,7.027,0,0,1-2.961-.576,4.316,4.316,0,0,1-1.935-1.7,5.046,5.046,0,0,1-.684-2.673,4.759,4.759,0,0,1,1.5-3.717,5.906,5.906,0,0,1,4.113-1.359,7.372,7.372,0,0,1,2.556.405A4.231,4.231,0,0,1,37.1-8.118a4.114,4.114,0,0,1,.909,1.944l-3.474.324a1.584,1.584,0,0,0-1.746-1.26,1.884,1.884,0,0,0-1.512.63,2.628,2.628,0,0,0-.54,1.764,2.585,2.585,0,0,0,.54,1.764,1.933,1.933,0,0,0,1.53.612q1.638,0,1.854-1.314Zm4.41-.234a1.831,1.831,0,0,0,.693,1.341,2.691,2.691,0,0,0,1.665.459q1.71,0,2.088-.954h3.294Q49.581.288,44.847.288A6.156,6.156,0,0,1,40.689-.99a4.528,4.528,0,0,1-1.476-3.618A5.131,5.131,0,0,1,39.9-7.263a4.7,4.7,0,0,1,1.98-1.818,6.689,6.689,0,0,1,3.06-.657,5.87,5.87,0,0,1,4.05,1.287,4.634,4.634,0,0,1,1.44,3.645v.918Zm4.536-1.89q-.09-1.62-2.232-1.62a2.492,2.492,0,0,0-1.5.45,1.715,1.715,0,0,0-.729,1.17Z" transform="translate(143.252 107.774)" fill="#0f5a64"/><path d="M-10.179,0V-5.04h-5.868V0h-3.78V-12.852h3.78v4.644h5.868v-4.644H-6.4V0ZM3.213,0V-1.314A4.822,4.822,0,0,1-.423.288,3.747,3.747,0,0,1-3.15-.666a3.52,3.52,0,0,1-.981-2.646V-9.45H-.567v5.472A1.623,1.623,0,0,0-.189-2.79a1.567,1.567,0,0,0,1.152.378,2.332,2.332,0,0,0,1.566-.63,1.787,1.787,0,0,0,.45-.6,1.682,1.682,0,0,0,.162-.711V-9.45H6.705V0ZM8.829,0V-12.852h3.564v4.59a4.452,4.452,0,0,1,3.582-1.476,4.6,4.6,0,0,1,2.322.585,4.147,4.147,0,0,1,1.62,1.7,5.436,5.436,0,0,1,.594,2.592,5.836,5.836,0,0,1-.585,2.646A4.387,4.387,0,0,1,18.234-.378a4.949,4.949,0,0,1-2.6.666,3.984,3.984,0,0,1-3.312-1.422V0Zm3.546-4.572a2.19,2.19,0,0,0,.612,1.62,2.238,2.238,0,0,0,1.656.612,2.219,2.219,0,0,0,1.683-.612,2.509,2.509,0,0,0,.585-1.8A2.451,2.451,0,0,0,16.335-6.5,2.141,2.141,0,0,0,14.7-7.11a2.389,2.389,0,0,0-1.71.648,2.017,2.017,0,0,0-.612,1.512Z" transform="translate(55.252 107.774)" fill="#fff"/></g></svg>