<svg height="31.779" viewBox="0 0 109.1 31.779" width="109.1" xmlns="http://www.w3.org/2000/svg"><g fill="#0f5a64"><path d="m6.6 31.686c0-1.578-.028-2.9-.113-4.082h2.988l.142 2.029h.083a4.743 4.743 0 0 1 4.224-2.34 3.955 3.955 0 0 1 3.8 2.535h.058a5.179 5.179 0 0 1 1.688-1.716 4.579 4.579 0 0 1 2.761-.819c2.282 0 4.589 1.548 4.589 5.944v8.079h-3.379v-7.575c0-2.279-.789-3.633-2.45-3.633a2.642 2.642 0 0 0 -2.421 1.833 4.954 4.954 0 0 0 -.169 1.152v8.225h-3.379v-7.944c0-1.911-.76-3.265-2.366-3.265a2.714 2.714 0 0 0 -2.479 1.971 3.006 3.006 0 0 0 -.2 1.126v8.112h-3.377zm33.383 6.338a22.247 22.247 0 0 0 .2 3.294h-3.128l-.224-1.52h-.085a5.09 5.09 0 0 1 -4.052 1.828 4.069 4.069 0 0 1 -4.309-4.082c0-3.467 3.067-5.209 8.138-5.182v-.224c0-.9-.367-2.395-2.79-2.395a7.278 7.278 0 0 0 -3.689 1.013l-.675-2.256a9.864 9.864 0 0 1 4.955-1.211c4.394 0 5.663 2.791 5.663 5.772v4.96zm-3.38-3.406c-2.451-.058-4.787.478-4.787 2.561a1.82 1.82 0 0 0 1.972 1.972 2.81 2.81 0 0 0 2.7-1.888 2.545 2.545 0 0 0 .113-.76v-1.885zm5.772-2.931c0-1.578-.029-2.9-.11-4.082h3.038l.168 2.059h.085a4.941 4.941 0 0 1 4.364-2.37c2.395 0 4.871 1.548 4.871 5.888v8.136h-3.46v-7.744c0-1.971-.733-3.468-2.619-3.468a2.908 2.908 0 0 0 -2.7 2.03 3.511 3.511 0 0 0 -.14 1.123v8.055h-3.496v-9.628zm27.436-9.587v15.36c0 1.408.058 2.931.113 3.858h-3.1l-.142-2.166h-.058a4.935 4.935 0 0 1 -4.476 2.476c-3.267 0-5.856-2.787-5.856-7.009-.03-4.591 2.841-7.324 6.138-7.324a4.36 4.36 0 0 1 3.862 1.805h.059v-7h3.462zm-3.461 11.22a4.8 4.8 0 0 0 -.085-.9 3.033 3.033 0 0 0 -2.985-2.45c-2.224 0-3.465 1.972-3.465 4.534 0 2.5 1.24 4.336 3.438 4.336a3.056 3.056 0 0 0 2.983-2.451 3.817 3.817 0 0 0 .115-1.013v-2.056zm5.912 8v-13.72h3.494v13.718h-3.495zm5.938-9.294c0-1.858-.026-3.183-.11-4.421h3.013l.11 2.617h.114a3.772 3.772 0 0 1 3.747-2.617 3.827 3.827 0 0 1 .814 0v3.043a4.78 4.78 0 0 0 -1.012-.113 3.052 3.052 0 0 0 -3.1 2.617 6.223 6.223 0 0 0 -.112 1.073v7.094h-3.464zm9.3 9.292v-13.718h3.489v13.718z" transform="translate(-6.49 -9.848)"/><path d="m104.19 15.579c-1.729-1.972-3.567-1.079-5.028-.354-.614.3-5.049 2.817-5.049 2.817a4.316 4.316 0 0 1 -5.064-1.012 2.179 2.179 0 0 1 -.192-.277l-.173-.3a13.484 13.484 0 0 0 -.972-1.453 8.22 8.22 0 0 0 -.7-.8c-1.662-1.679-4.319-2.854-8.76-.72-2.102 1.22-8.952 5.132-8.952 5.132a4.265 4.265 0 0 1 -5.182-1.177.687.687 0 0 1 -.075-.114l-.084-.143-.434-.71q-.294-.466-.629-.9a9.092 9.092 0 0 0 -.7-.8c-1.651-1.669-4.294-2.841-8.7-.747-2.662 1.52-8.853 5.059-8.853 5.059l-4.53 2.59 2.345 2.879a4.771 4.771 0 0 0 5.71 1.182s7.917-4.585 7.949-4.6c6.769-3.715 10.109-.165 11.586 2.2.051.074.093.154.139.226.019.029.03.055.046.083l.167.273a3.7 3.7 0 0 0 3.207 1.763 3.958 3.958 0 0 0 1.99-.668l7.66-4.443.016-.008c6.854-3.76 10.251.021 11.7 2.387a5.679 5.679 0 0 0 .372.582 3.516 3.516 0 0 0 2.968 1.581 4.5 4.5 0 0 0 1.9-.607l9.184-5.3a37.985 37.985 0 0 0 -2.867-3.625z" transform="translate(2.042 -12.327)"/></g></svg>