<svg height="414.529" viewBox="0 0 528.015 414.529" width="528.015" xmlns="http://www.w3.org/2000/svg" xmlns:xlink="http://www.w3.org/1999/xlink"><linearGradient id="a" gradientUnits="objectBoundingBox" x2="1" y1=".5" y2=".5"><stop offset=".476" stop-color="#9bb8df"/><stop offset=".952" stop-color="#fff"/></linearGradient><linearGradient id="b" x1="16.011" x2="17.011" xlink:href="#a" y1=".5" y2=".5"/><linearGradient id="c" gradientUnits="objectBoundingBox" x1=".65" x2=".358" y1=".086" y2=".881"><stop offset="0" stop-color="#326ebd"/><stop offset=".062" stop-color="#4c81c5"/><stop offset=".182" stop-color="#7ba2d4"/><stop offset=".307" stop-color="#a4bee1"/><stop offset=".434" stop-color="#c5d6ec"/><stop offset=".564" stop-color="#dee8f4"/><stop offset=".699" stop-color="#f0f4fa"/><stop offset=".84" stop-color="#fbfcfd"/><stop offset="1" stop-color="#fff"/></linearGradient><linearGradient id="d" x1=".567" x2=".341" xlink:href="#c" y1=".283" y2=".778"/><linearGradient id="e" gradientUnits="objectBoundingBox" x2="1" y1=".5" y2=".5"><stop offset=".261" stop-color="#9bb8df"/><stop offset=".952" stop-color="#fff"/></linearGradient><linearGradient id="f" x1="12.754" x2="13.754" xlink:href="#a" y1=".5" y2=".5"/><linearGradient id="g" gradientUnits="objectBoundingBox" x1=".735" x2=".304" y1="-.105" y2="1.061"><stop offset="0" stop-color="#326ebd"/><stop offset=".252" stop-color="#739cd1"/><stop offset=".509" stop-color="#aec6e5"/><stop offset=".729" stop-color="#dae5f3"/><stop offset=".9" stop-color="#f5f7fb"/><stop offset="1" stop-color="#fff"/></linearGradient><linearGradient id="h" x1=".726" x2=".303" xlink:href="#g" y1="-.098" y2="1.064"/><linearGradient id="i" gradientUnits="objectBoundingBox" x2="1" y1=".5" y2=".5"><stop offset=".449" stop-color="#d6e2f2"/><stop offset=".521" stop-color="#c8d8ed"/><stop offset=".64" stop-color="#b9cde8"/><stop offset=".778" stop-color="#afc7e5"/><stop offset=".972" stop-color="#adc5e5"/></linearGradient><linearGradient id="j" gradientUnits="objectBoundingBox" x1=".043" x2=".966" y1=".5" y2=".5"><stop offset=".028" stop-color="#c1d4eb"/><stop offset=".069" stop-color="#c7d8ed"/><stop offset=".239" stop-color="#dde7f6"/><stop offset=".402" stop-color="#eaf0fc"/><stop offset=".551" stop-color="#eff4fe"/></linearGradient><linearGradient id="k" x1=".649" x2=".359" xlink:href="#c" y1=".09" y2=".89"/><linearGradient id="l" gradientUnits="objectBoundingBox" x1=".519" x2=".485" y1=".56" y2=".46"><stop offset="0" stop-color="#326ebd"/><stop offset=".088" stop-color="#5b8bca"/><stop offset=".194" stop-color="#86a9d8"/><stop offset=".306" stop-color="#abc4e4"/><stop offset=".422" stop-color="#cad9ed"/><stop offset=".544" stop-color="#e1eaf5"/><stop offset=".674" stop-color="#f2f5fa"/><stop offset=".817" stop-color="#fbfcfd"/><stop offset="1" stop-color="#fff"/></linearGradient><linearGradient id="m" gradientUnits="objectBoundingBox" x1=".514" x2=".482" y1=".531" y2=".437"><stop offset=".219"/><stop offset=".302" stop-color="#020407"/><stop offset=".429" stop-color="#07101c"/><stop offset=".583" stop-color="#10253f"/><stop offset=".76" stop-color="#1d416f"/><stop offset=".953" stop-color="#2d64ac"/><stop offset="1" stop-color="#326ebd"/></linearGradient><linearGradient id="n" gradientUnits="objectBoundingBox" x1="-33.796" x2="-32.796" y1=".5" y2=".5"><stop offset=".004" stop-color="#c5d2f4"/><stop offset=".153" stop-color="#ced9f5"/><stop offset="1" stop-color="#fff"/></linearGradient><radialGradient id="o" cx=".5" cy=".5" gradientTransform="matrix(-.577 0 0 .517 76.358 100.522)" gradientUnits="objectBoundingBox" r=".875"><stop offset=".091" stop-color="#feb423"/><stop offset=".225" stop-color="#fec34f"/><stop offset=".429" stop-color="#fed88d"/><stop offset=".617" stop-color="#fee8be"/><stop offset=".78" stop-color="#fef4e1"/><stop offset=".913" stop-color="#fefcf7"/><stop offset="1" stop-color="#fff"/></radialGradient><path d="m1074.91 541.415a.331.331 0 0 1 -.162-.619l130.052-72.996a3.347 3.347 0 0 0 -.01-5.843l-12.06-6.713a4.089 4.089 0 0 1 -.061-7.111l39.157-22.692a.331.331 0 0 1 .332.573l-39.158 22.695a3.427 3.427 0 0 0 .051 5.959l12.06 6.714a4.009 4.009 0 0 1 .012 7l-130.056 72.992a.326.326 0 0 1 -.157.041z" fill="url(#a)" transform="translate(-805.09 -343.648)"/><path d="m939.525 495.815a.331.331 0 0 1 -.162-.043l-130.055-72.992a4.009 4.009 0 0 1 .012-7l12.06-6.713a3.427 3.427 0 0 0 .052-5.959l-39.157-22.692a.331.331 0 1 1 .332-.573l39.157 22.692a4.089 4.089 0 0 1 -.062 7.11l-12.06 6.714a3.347 3.347 0 0 0 -.01 5.843l130.055 72.998a.331.331 0 0 1 -.162.619z" fill="url(#b)" transform="translate(-713.489 -329.366)"/><path d="m872.534 460.577-45.454 26.243a4.453 4.453 0 0 0 .042 7.737l45.5 25.617a9.338 9.338 0 0 0 9.161 0l45.5-25.617a4.453 4.453 0 0 0 .042-7.737l-45.455-26.243a9.339 9.339 0 0 0 -9.336 0z" fill="#26538e" opacity=".1" transform="translate(-726.877 -354.274)"/><path d="m872.534 444.609-47.681 21.509v7.9a5.176 5.176 0 0 0 2.616 4.5l45.153 25.687a9.338 9.338 0 0 0 9.161 0l45.017-25.369a5.174 5.174 0 0 0 2.635-4.509v-7.279l-47.568-22.438a9.335 9.335 0 0 0 -9.333-.001z" fill="#c1d4eb" transform="translate(-726.877 -349.273)"/><path d="m872.534 432.035-45.454 26.243a4.453 4.453 0 0 0 .042 7.737l45.5 25.617a9.338 9.338 0 0 0 9.161 0l45.5-25.617a4.453 4.453 0 0 0 .042-7.737l-45.455-26.243a9.339 9.339 0 0 0 -9.336 0z" fill="#f1f4fc" transform="translate(-726.877 -345.335)"/><path d="m888.107 485.161 28.258-16.314-28.258-16.314-28.258 16.314z" fill="#326ebd" opacity=".3" transform="translate(-737.837 -352.146)"/><path d="m863.985 424.785v29.35l25.415 14.675v-29.35z" fill="#cad9ee" transform="translate(-739.132 -343.456)"/><path d="m926.41 424.785v29.35l-25.417 14.675v-29.35z" fill="#abc4e4" transform="translate(-750.723 -343.456)"/><path d="m889.4 432.768 25.417-14.675-25.417-14.674-25.417 14.675z" fill="#eff4fe" transform="translate(-739.133 -336.764)"/><path d="m893 423.9 17.661-10.2-17.927-10.2-17.204 10.089z" fill="#26538e" opacity=".3" transform="translate(-742.749 -336.79)"/><path d="m870.213 370.6v24.41l21.14 12.205v-24.405z" fill="#fd8f46" transform="translate(-741.084 -326.487)"/><path d="m922.133 370.6v24.41l-21.14 12.205v-24.405z" fill="#fc7318" transform="translate(-750.724 -326.487)"/><path d="m891.353 377.244 21.14-12.2-21.14-12.2-21.14 12.2z" fill="#fdab74" transform="translate(-741.084 -320.921)"/><path d="m895.43 367.15 12.332-7.119-12.517-7.119-12.014 7.043z" fill="#bd5612" opacity=".3" transform="translate(-745.16 -320.945)"/><path d="m875.225 321.245v20.435l17.7 10.218v-20.436z" fill="#cad9ee" transform="translate(-742.653 -311.027)"/><path d="m918.69 321.245v20.435l-17.7 10.218v-20.436z" fill="#abc4e4" transform="translate(-750.723 -311.027)"/><path d="m892.923 326.8 17.7-10.218-17.7-10.217-17.7 10.217z" fill="#eff4fe" transform="translate(-742.653 -306.368)"/><path d="m874.286 652.983 73.784 44.217 98.922-56.617-73.916-43.085z" fill="url(#c)" opacity=".4" transform="translate(-742.359 -397.547)"/><path d="m682.2 759.648 120.3 77.429 101.6-56.806-160.8-102.619-61.1 34.319z" fill="url(#d)" opacity=".4" transform="translate(-682.197 -422.652)"/><path d="m1276.193 733.083a9.723 9.723 0 0 1 -4.855-1.293l-147.3-84.78a.331.331 0 1 1 .33-.574l147.3 84.78a9.1 9.1 0 0 0 9.06 0l35.5-20.486a7.975 7.975 0 0 1 8.046.049l24.111 14.311a.331.331 0 0 1 -.338.569l-24.111-14.311a7.312 7.312 0 0 0 -7.377-.045l-35.5 20.486a9.726 9.726 0 0 1 -4.866 1.294z" fill="url(#e)" transform="translate(-820.529 -412.861)"/><path d="m748.14 741.314a11.937 11.937 0 0 1 -5.968-1.593l-34.664-20.006a6.863 6.863 0 0 0 -6.841 0l-16.122 9.308a.331.331 0 0 1 -.331-.573l16.122-9.308a7.524 7.524 0 0 1 7.5 0l34.664 20.005a11.309 11.309 0 0 0 11.285-.006l166.6-95.762a.331.331 0 1 1 .33.573l-166.6 95.762a11.933 11.933 0 0 1 -5.975 1.6z" fill="url(#f)" transform="translate(-682.776 -411.904)"/><path d="m1195.5 841.786 10.979 6.256 53.2-28.8-7.436-8.548z" fill="url(#g)" opacity=".4" transform="translate(-842.963 -464.319)"/><path d="m722.793 598.66 9.852 5.614 47.737-25.848-7.7-7.108z" fill="url(#h)" opacity=".4" transform="translate(-694.912 -389.349)"/><path d="m1278.747 489.187 8.1 4.617 39.261-21.259-5.488-6.309z" fill="url(#g)" opacity=".4" transform="translate(-869.035 -356.438)"/><path d="m732.425 886.64 10.975 6.26 53.2-28.8-7.436-8.548z" fill="url(#g)" opacity=".4" transform="translate(-697.928 -478.367)"/><path d="m1258.11 582.835a5.741 5.741 0 0 1 -2.872-.767l-43.063-24.862a3.307 3.307 0 0 1 0-5.728l43.063-24.862a5.762 5.762 0 0 1 5.745 0l43.063 24.862a3.307 3.307 0 0 1 0 5.728l-43.063 24.862a5.742 5.742 0 0 1 -2.873.767zm0-56.3a5.053 5.053 0 0 0 -2.529.676l-43.063 24.862a2.62 2.62 0 0 0 0 4.538l43.063 24.863a5.07 5.07 0 0 0 5.058 0l43.061-24.864a2.62 2.62 0 0 0 0-4.538l-43.063-24.862a5.056 5.056 0 0 0 -2.527-.676z" fill="#c1d4eb" transform="translate(-847.666 -375.108)"/><path d="m1100.521 868.344a5.548 5.548 0 0 1 -2.774-.741l-41.486-23.952a3.2 3.2 0 0 1 0-5.54l41.486-23.952a5.563 5.563 0 0 1 5.547 0l41.487 23.952a3.2 3.2 0 0 1 0 5.54l-41.487 23.949a5.545 5.545 0 0 1 -2.773.744zm-2.431-53.591-41.49 23.952a2.511 2.511 0 0 0 0 4.349l41.486 23.953a4.871 4.871 0 0 0 4.861 0l41.487-23.953a2.511 2.511 0 0 0 0-4.349l-41.487-23.952a4.873 4.873 0 0 0 -4.861 0z" fill="#c1d4eb" transform="translate(-798.851 -465.174)"/><path d="m850.651 604.367a4.571 4.571 0 0 1 -2.289-.611l-33.742-19.482a2.665 2.665 0 0 1 0-4.617l33.743-19.481a4.587 4.587 0 0 1 4.576 0l33.743 19.481a2.666 2.666 0 0 1 0 4.617l-33.743 19.481a4.567 4.567 0 0 1 -2.288.612zm0-44.115a3.894 3.894 0 0 0 -1.945.519l-33.743 19.481a1.978 1.978 0 0 0 0 3.427l33.743 19.481a3.9 3.9 0 0 0 3.889 0l33.743-19.481a1.979 1.979 0 0 0 0-3.427l-33.738-19.481a3.889 3.889 0 0 0 -1.949-.519z" fill="#c1d4eb" transform="translate(-723.254 -385.668)"/><path d="m1162.846 449.622a3.44 3.44 0 0 1 -1.72-.459l-24.692-14.255a2.043 2.043 0 0 1 0-3.538l24.692-14.255a3.45 3.45 0 0 1 3.44 0l24.692 14.255a2.043 2.043 0 0 1 0 3.538l-24.692 14.255a3.439 3.439 0 0 1 -1.72.459zm0-32.282a2.752 2.752 0 0 0 -1.377.368l-24.692 14.255a1.356 1.356 0 0 0 0 2.348l24.692 14.256a2.761 2.761 0 0 0 2.754 0l24.692-14.256a1.356 1.356 0 0 0 0-2.348l-24.692-14.255a2.753 2.753 0 0 0 -1.378-.368z" fill="#c1d4eb" transform="translate(-824.142 -340.909)"/><path d="m1118 594.433v-59.233l-147.123 1.339-.321 58.194v.124a4.579 4.579 0 0 0 2.31 3.949l67.2 38.8a8.428 8.428 0 0 0 8.43 0l67.2-38.8a4.59 4.59 0 0 0 2.304-4.373z" fill="url(#i)" transform="translate(-772.509 -378.038)"/><path d="m1118 616.55a4.568 4.568 0 0 1 -2.3 3.661l-67.2 38.8a8.428 8.428 0 0 1 -8.43 0l-67.2-38.8a4.568 4.568 0 0 1 -2.291-3.584l-.019 3.585v.124a4.579 4.579 0 0 0 2.31 3.949l67.2 38.8a8.428 8.428 0 0 0 8.43 0l67.2-38.8a4.59 4.59 0 0 0 2.3-4.374z" fill="#98b7de" transform="translate(-772.509 -403.516)"/><path d="m1040.068 472.9-67.2 38.8a4.624 4.624 0 0 0 0 8.01l67.2 38.8a8.432 8.432 0 0 0 8.43 0l67.2-38.8a4.625 4.625 0 0 0 0-8.01l-67.2-38.8a8.428 8.428 0 0 0 -8.43 0z" fill="#eaf1f8" transform="translate(-772.508 -358.171)"/><path d="m1115.7 539-67.2 38.8a8.431 8.431 0 0 1 -8.43 0l-67.2-38.8a4.575 4.575 0 0 1 -2.3-3.7 4.589 4.589 0 0 0 2.3 4.306l67.2 38.8a8.431 8.431 0 0 0 8.43 0l67.2-38.8a4.59 4.59 0 0 0 2.3-4.307 4.574 4.574 0 0 1 -2.3 3.701z" fill="#fff" transform="translate(-772.509 -378.068)"/><path d="m1111.288 488.306v-88.26l-122.5 1.114-.267 87.4v.1a3.812 3.812 0 0 0 1.924 3.288l55.957 32.307a7.021 7.021 0 0 0 7.019 0l55.956-32.307a3.822 3.822 0 0 0 1.911-3.642z" fill="url(#i)" transform="translate(-778.136 -335.707)"/><path d="m1046.4 348.17-55.957 32.307a3.851 3.851 0 0 0 0 6.669l55.957 32.307a7.017 7.017 0 0 0 7.019 0l55.956-32.307a3.85 3.85 0 0 0 0-6.669l-55.955-32.307a7.021 7.021 0 0 0 -7.02 0z" fill="#eaf1f8" transform="translate(-778.136 -319.166)"/><path d="m1109.377 403.073-55.956 32.307a7.021 7.021 0 0 1 -7.019 0l-55.957-32.307a3.805 3.805 0 0 1 -1.911-3.027 3.821 3.821 0 0 0 1.911 3.641l55.957 32.307a7.017 7.017 0 0 0 7.019 0l55.956-32.307a3.821 3.821 0 0 0 1.912-3.641 3.807 3.807 0 0 1 -1.912 3.027z" fill="#fff" transform="translate(-778.137 -335.707)"/><path d="m981.134 558.293c-.848-.489-1.541-.089-1.541.889a3.416 3.416 0 0 0 1.541 2.668c.848.49 1.54.089 1.54-.889a3.417 3.417 0 0 0 -1.54-2.668z" fill="#fc7318" transform="translate(-775.34 -385.204)"/><g fill="#eaf1f8"><path d="m996.3 480.657c-.631-.365-1.147-.067-1.147.662a2.545 2.545 0 0 0 1.147 1.987c.631.364 1.147.066 1.147-.663a2.544 2.544 0 0 0 -1.147-1.986z" transform="translate(-780.213 -360.905)"/><path d="m1007.249 486.858c-.631-.364-1.147-.066-1.147.662a2.544 2.544 0 0 0 1.147 1.987c.631.364 1.147.067 1.147-.662a2.543 2.543 0 0 0 -1.147-1.987z" transform="translate(-783.643 -362.848)"/><path d="m1018.2 493.059c-.631-.364-1.147-.066-1.147.663a2.543 2.543 0 0 0 1.147 1.986c.63.365 1.147.067 1.147-.662a2.547 2.547 0 0 0 -1.147-1.987z" transform="translate(-787.073 -364.79)"/><path d="m1029.151 499.494c-.631-.365-1.147-.067-1.147.662a2.545 2.545 0 0 0 1.147 1.987c.631.364 1.147.066 1.147-.663a2.545 2.545 0 0 0 -1.147-1.986z" transform="translate(-790.502 -366.805)"/><path d="m1040.1 505.734c-.631-.364-1.147-.067-1.147.662a2.543 2.543 0 0 0 1.147 1.987c.63.364 1.147.066 1.147-.662a2.545 2.545 0 0 0 -1.147-1.987z" transform="translate(-793.932 -368.759)"/><path d="m1051.053 512.013c-.631-.364-1.148-.067-1.148.662a2.544 2.544 0 0 0 1.148 1.987c.631.364 1.147.066 1.147-.662a2.545 2.545 0 0 0 -1.147-1.987z" transform="translate(-797.362 -370.726)"/><path d="m1062 518.37c-.63-.365-1.147-.067-1.147.662a2.548 2.548 0 0 0 1.147 1.987c.631.364 1.148.066 1.148-.663a2.544 2.544 0 0 0 -1.148-1.986z" transform="translate(-800.792 -372.717)"/><path d="m996.3 465.447c-.631-.364-1.147-.066-1.147.662a2.543 2.543 0 0 0 1.147 1.991c.631.365 1.147.067 1.147-.662a2.544 2.544 0 0 0 -1.147-1.991z" transform="translate(-780.213 -356.142)"/><path d="m1007.249 471.648c-.631-.364-1.147-.066-1.147.663a2.546 2.546 0 0 0 1.147 1.987c.631.364 1.147.066 1.147-.663a2.546 2.546 0 0 0 -1.147-1.987z" transform="translate(-783.643 -358.084)"/><path d="m1018.2 477.85c-.631-.365-1.147-.067-1.147.662a2.545 2.545 0 0 0 1.147 1.987c.63.364 1.147.066 1.147-.662a2.545 2.545 0 0 0 -1.147-1.987z" transform="translate(-787.073 -360.026)"/><path d="m1029.151 484.284c-.631-.364-1.147-.066-1.147.662a2.544 2.544 0 0 0 1.147 1.987c.631.365 1.147.067 1.147-.662a2.545 2.545 0 0 0 -1.147-1.987z" transform="translate(-790.502 -362.041)"/><path d="m1040.1 490.524c-.631-.364-1.147-.066-1.147.663a2.543 2.543 0 0 0 1.147 1.986c.63.365 1.147.067 1.147-.662a2.547 2.547 0 0 0 -1.147-1.987z" transform="translate(-793.932 -363.996)"/><path d="m1051.053 496.8c-.631-.364-1.148-.066-1.148.663a2.544 2.544 0 0 0 1.148 1.986c.631.365 1.147.067 1.147-.662a2.546 2.546 0 0 0 -1.147-1.987z" transform="translate(-797.362 -365.962)"/><path d="m1062 503.16c-.63-.364-1.147-.066-1.147.662a2.546 2.546 0 0 0 1.147 1.987c.631.364 1.148.066 1.148-.662a2.544 2.544 0 0 0 -1.148-1.987z" transform="translate(-800.792 -367.953)"/><path d="m996.3 495.457c-.631-.364-1.147-.066-1.147.663a2.543 2.543 0 0 0 1.147 1.986c.631.365 1.147.067 1.147-.662a2.546 2.546 0 0 0 -1.147-1.987z" transform="translate(-780.213 -365.541)"/><path d="m1007.249 501.659c-.631-.365-1.147-.067-1.147.662a2.545 2.545 0 0 0 1.147 1.987c.631.364 1.147.066 1.147-.662a2.543 2.543 0 0 0 -1.147-1.987z" transform="translate(-783.643 -367.483)"/><path d="m1018.2 507.86c-.631-.364-1.147-.066-1.147.662a2.543 2.543 0 0 0 1.147 1.987c.63.364 1.147.067 1.147-.662a2.545 2.545 0 0 0 -1.147-1.987z" transform="translate(-787.073 -369.425)"/><path d="m1029.151 514.294c-.631-.364-1.147-.066-1.147.663a2.543 2.543 0 0 0 1.147 1.986c.631.365 1.147.067 1.147-.662a2.546 2.546 0 0 0 -1.147-1.987z" transform="translate(-790.502 -371.44)"/><path d="m1040.1 520.535c-.631-.365-1.147-.067-1.147.662a2.545 2.545 0 0 0 1.147 1.987c.63.364 1.147.066 1.147-.663a2.545 2.545 0 0 0 -1.147-1.986z" transform="translate(-793.932 -373.395)"/><path d="m1051.053 526.814c-.631-.365-1.148-.067-1.148.662a2.546 2.546 0 0 0 1.148 1.987c.631.364 1.147.066 1.147-.663a2.545 2.545 0 0 0 -1.147-1.986z" transform="translate(-797.362 -375.361)"/><path d="m1062 533.17c-.63-.364-1.147-.066-1.147.662a2.546 2.546 0 0 0 1.147 1.987c.631.365 1.148.067 1.148-.662a2.545 2.545 0 0 0 -1.148-1.987z" transform="translate(-800.792 -377.352)"/><path d="m996.3 510.463c-.631-.365-1.147-.067-1.147.662a2.545 2.545 0 0 0 1.147 1.987c.631.364 1.147.066 1.147-.663a2.544 2.544 0 0 0 -1.147-1.986z" transform="translate(-780.213 -370.24)"/><path d="m1007.249 516.664c-.631-.364-1.147-.067-1.147.662a2.544 2.544 0 0 0 1.147 1.987c.631.364 1.147.066 1.147-.662a2.543 2.543 0 0 0 -1.147-1.987z" transform="translate(-783.643 -372.183)"/><path d="m1018.2 522.865c-.631-.364-1.147-.066-1.147.662a2.543 2.543 0 0 0 1.147 1.987c.63.365 1.147.067 1.147-.662a2.547 2.547 0 0 0 -1.147-1.987z" transform="translate(-787.073 -374.125)"/><path d="m1029.151 529.3c-.631-.365-1.147-.067-1.147.662a2.545 2.545 0 0 0 1.147 1.987c.631.364 1.147.066 1.147-.663a2.545 2.545 0 0 0 -1.147-1.986z" transform="translate(-790.502 -376.14)"/><path d="m1040.1 535.54c-.631-.365-1.147-.067-1.147.662a2.544 2.544 0 0 0 1.147 1.987c.63.364 1.147.066 1.147-.663a2.545 2.545 0 0 0 -1.147-1.986z" transform="translate(-793.932 -378.094)"/><path d="m1051.053 541.819c-.631-.365-1.148-.067-1.148.662a2.546 2.546 0 0 0 1.148 1.987c.631.364 1.147.066 1.147-.663a2.545 2.545 0 0 0 -1.147-1.986z" transform="translate(-797.362 -380.061)"/><path d="m1062 548.175c-.63-.364-1.147-.066-1.147.663a2.546 2.546 0 0 0 1.147 1.986c.631.365 1.148.067 1.148-.662a2.545 2.545 0 0 0 -1.148-1.987z" transform="translate(-800.792 -382.052)"/><path d="m996.3 525.468c-.631-.365-1.147-.067-1.147.662a2.544 2.544 0 0 0 1.147 1.987c.631.364 1.147.066 1.147-.663a2.543 2.543 0 0 0 -1.147-1.986z" transform="translate(-780.213 -374.94)"/><path d="m1007.249 531.669c-.631-.364-1.147-.066-1.147.662a2.544 2.544 0 0 0 1.147 1.987c.631.364 1.147.066 1.147-.662a2.543 2.543 0 0 0 -1.147-1.987z" transform="translate(-783.643 -376.882)"/><path d="m1018.2 537.87c-.631-.364-1.147-.066-1.147.663a2.543 2.543 0 0 0 1.147 1.986c.63.365 1.147.067 1.147-.662a2.547 2.547 0 0 0 -1.147-1.987z" transform="translate(-787.073 -378.824)"/><path d="m1029.151 544.3c-.631-.365-1.147-.067-1.147.662a2.545 2.545 0 0 0 1.147 1.987c.631.364 1.147.066 1.147-.663a2.545 2.545 0 0 0 -1.147-1.986z" transform="translate(-790.502 -380.84)"/><path d="m1040.1 550.545c-.631-.365-1.147-.067-1.147.662a2.543 2.543 0 0 0 1.147 1.987c.63.364 1.147.066 1.147-.662a2.545 2.545 0 0 0 -1.147-1.987z" transform="translate(-793.932 -382.794)"/><path d="m1051.053 556.824c-.631-.364-1.148-.067-1.148.662a2.545 2.545 0 0 0 1.148 1.987c.631.364 1.147.066 1.147-.662a2.545 2.545 0 0 0 -1.147-1.987z" transform="translate(-797.362 -384.761)"/><path d="m1062 563.18c-.63-.364-1.147-.066-1.147.663a2.548 2.548 0 0 0 1.147 1.987c.631.364 1.148.066 1.148-.663a2.546 2.546 0 0 0 -1.148-1.987z" transform="translate(-800.792 -386.751)"/><path d="m996.3 450.238c-.631-.365-1.147-.067-1.147.662a2.546 2.546 0 0 0 1.147 1.987c.631.364 1.147.066 1.147-.663a2.544 2.544 0 0 0 -1.147-1.986z" transform="translate(-780.213 -351.378)"/><path d="m1007.249 456.439c-.631-.364-1.147-.067-1.147.662a2.544 2.544 0 0 0 1.147 1.987c.631.364 1.147.066 1.147-.662a2.544 2.544 0 0 0 -1.147-1.987z" transform="translate(-783.643 -353.32)"/><path d="m1018.2 462.64c-.631-.364-1.147-.066-1.147.662a2.543 2.543 0 0 0 1.147 1.987c.63.365 1.147.067 1.147-.662a2.547 2.547 0 0 0 -1.147-1.987z" transform="translate(-787.073 -355.263)"/><path d="m1029.151 469.074c-.631-.364-1.147-.066-1.147.663a2.546 2.546 0 0 0 1.147 1.987c.631.364 1.147.066 1.147-.663a2.547 2.547 0 0 0 -1.147-1.987z" transform="translate(-790.502 -357.278)"/><path d="m1040.1 475.315c-.631-.365-1.147-.067-1.147.662a2.544 2.544 0 0 0 1.147 1.987c.63.364 1.147.066 1.147-.663a2.545 2.545 0 0 0 -1.147-1.986z" transform="translate(-793.932 -359.232)"/><path d="m1051.053 481.594c-.631-.365-1.148-.067-1.148.662a2.546 2.546 0 0 0 1.148 1.987c.631.364 1.147.066 1.147-.663a2.545 2.545 0 0 0 -1.147-1.986z" transform="translate(-797.362 -361.199)"/><path d="m1062 487.95c-.63-.364-1.147-.066-1.147.663a2.546 2.546 0 0 0 1.147 1.987c.631.365 1.148.067 1.148-.662a2.545 2.545 0 0 0 -1.148-1.988z" transform="translate(-800.792 -363.19)"/><path d="m996.3 435.028c-.631-.364-1.147-.066-1.147.662a2.543 2.543 0 0 0 1.147 1.987c.631.364 1.147.066 1.147-.662a2.544 2.544 0 0 0 -1.147-1.987z" transform="translate(-780.213 -346.615)"/><path d="m1007.249 441.229c-.631-.364-1.147-.066-1.147.663a2.543 2.543 0 0 0 1.147 1.986c.631.365 1.147.067 1.147-.662a2.545 2.545 0 0 0 -1.147-1.987z" transform="translate(-783.643 -348.557)"/><path d="m1018.2 447.431c-.631-.365-1.147-.067-1.147.662a2.545 2.545 0 0 0 1.147 1.987c.63.364 1.147.066 1.147-.663a2.545 2.545 0 0 0 -1.147-1.986z" transform="translate(-787.073 -350.499)"/><path d="m1029.151 453.865c-.631-.364-1.147-.066-1.147.662a2.544 2.544 0 0 0 1.147 1.987c.631.364 1.147.066 1.147-.662a2.545 2.545 0 0 0 -1.147-1.987z" transform="translate(-790.502 -352.514)"/><path d="m1040.1 460.105c-.631-.364-1.147-.066-1.147.662a2.543 2.543 0 0 0 1.147 1.987c.63.364 1.147.067 1.147-.662a2.545 2.545 0 0 0 -1.147-1.987z" transform="translate(-793.932 -354.469)"/><path d="m1051.053 466.384c-.631-.364-1.148-.066-1.148.662a2.544 2.544 0 0 0 1.148 1.987c.631.365 1.147.067 1.147-.662a2.545 2.545 0 0 0 -1.147-1.987z" transform="translate(-797.362 -356.435)"/><path d="m1062 472.741c-.63-.365-1.147-.067-1.147.662a2.547 2.547 0 0 0 1.147 1.987c.631.364 1.148.066 1.148-.662a2.544 2.544 0 0 0 -1.148-1.987z" transform="translate(-800.792 -358.426)"/><path d="m996.3 419.818c-.631-.364-1.147-.066-1.147.663a2.543 2.543 0 0 0 1.147 1.986c.631.365 1.147.067 1.147-.662a2.545 2.545 0 0 0 -1.147-1.987z" transform="translate(-780.213 -341.851)"/><path d="m1007.249 426.02c-.631-.365-1.147-.067-1.147.662a2.545 2.545 0 0 0 1.147 1.987c.631.364 1.147.066 1.147-.663a2.543 2.543 0 0 0 -1.147-1.986z" transform="translate(-783.643 -343.793)"/><path d="m1018.2 432.221c-.631-.364-1.147-.066-1.147.662a2.543 2.543 0 0 0 1.147 1.987c.63.364 1.147.066 1.147-.662a2.546 2.546 0 0 0 -1.147-1.987z" transform="translate(-787.073 -345.735)"/><path d="m1029.151 438.655c-.631-.364-1.147-.066-1.147.663a2.544 2.544 0 0 0 1.147 1.986c.631.365 1.147.067 1.147-.662a2.546 2.546 0 0 0 -1.147-1.987z" transform="translate(-790.502 -347.751)"/><path d="m1040.1 444.9c-.631-.365-1.147-.067-1.147.662a2.546 2.546 0 0 0 1.147 1.987c.63.364 1.147.066 1.147-.663a2.545 2.545 0 0 0 -1.147-1.986z" transform="translate(-793.932 -349.705)"/><path d="m1051.053 451.174c-.631-.364-1.148-.066-1.148.663a2.547 2.547 0 0 0 1.148 1.987c.631.364 1.147.066 1.147-.663a2.547 2.547 0 0 0 -1.147-1.987z" transform="translate(-797.362 -351.672)"/><path d="m1062 457.531c-.63-.364-1.147-.066-1.147.662a2.546 2.546 0 0 0 1.147 1.987c.631.365 1.148.067 1.148-.662a2.545 2.545 0 0 0 -1.148-1.987z" transform="translate(-800.792 -353.662)"/></g><path d="m1156.463 480.657c.631-.365 1.147-.067 1.147.662a2.546 2.546 0 0 1 -1.147 1.987c-.631.364-1.147.066-1.147-.663a2.544 2.544 0 0 1 1.147-1.986z" fill="#d6e2f2" transform="translate(-830.376 -360.905)"/><path d="m1145.512 486.858c.63-.364 1.147-.066 1.147.662a2.545 2.545 0 0 1 -1.147 1.987c-.631.364-1.147.067-1.147-.662a2.544 2.544 0 0 1 1.147-1.987z" fill="#d6e2f2" transform="translate(-826.946 -362.848)"/><path d="m1134.561 493.059c.631-.364 1.147-.066 1.147.663a2.544 2.544 0 0 1 -1.147 1.986c-.631.365-1.147.067-1.147-.662a2.544 2.544 0 0 1 1.147-1.987z" fill="#d6e2f2" transform="translate(-823.516 -364.79)"/><path d="m1123.61 499.494c.631-.365 1.147-.067 1.147.662a2.545 2.545 0 0 1 -1.147 1.987c-.631.364-1.147.066-1.147-.663a2.543 2.543 0 0 1 1.147-1.986z" fill="#d6e2f2" transform="translate(-820.087 -366.805)"/><path d="m1112.659 505.734c.631-.364 1.147-.067 1.147.662a2.544 2.544 0 0 1 -1.147 1.987c-.63.364-1.147.066-1.147-.662a2.546 2.546 0 0 1 1.147-1.987z" fill="#d6e2f2" transform="translate(-816.657 -368.759)"/><path d="m1101.708 512.013c.631-.364 1.147-.067 1.147.662a2.543 2.543 0 0 1 -1.147 1.987c-.63.364-1.147.066-1.147-.662a2.545 2.545 0 0 1 1.147-1.987z" fill="#d6e2f2" transform="translate(-813.227 -370.726)"/><path d="m1090.757 518.37c.631-.365 1.148-.067 1.148.662a2.546 2.546 0 0 1 -1.148 1.987c-.63.364-1.147.066-1.147-.663a2.545 2.545 0 0 1 1.147-1.986z" fill="#d6e2f2" transform="translate(-809.797 -372.717)"/><path d="m1156.463 465.447c.631-.364 1.147-.066 1.147.662a2.545 2.545 0 0 1 -1.147 1.987c-.631.365-1.147.067-1.147-.662a2.544 2.544 0 0 1 1.147-1.987z" fill="#d6e2f2" transform="translate(-830.376 -356.142)"/><path d="m1145.512 471.648c.63-.364 1.147-.066 1.147.663a2.547 2.547 0 0 1 -1.147 1.987c-.631.364-1.147.066-1.147-.663a2.546 2.546 0 0 1 1.147-1.987z" fill="#d6e2f2" transform="translate(-826.946 -358.084)"/><path d="m1134.561 477.85c.631-.365 1.147-.067 1.147.662a2.545 2.545 0 0 1 -1.147 1.987c-.631.364-1.147.066-1.147-.662a2.543 2.543 0 0 1 1.147-1.987z" fill="#d6e2f2" transform="translate(-823.516 -360.026)"/><path d="m1123.61 484.284c.631-.364 1.147-.066 1.147.662a2.544 2.544 0 0 1 -1.147 1.987c-.631.365-1.147.067-1.147-.662a2.543 2.543 0 0 1 1.147-1.987z" fill="#d6e2f2" transform="translate(-820.087 -362.041)"/><path d="m1112.659 490.524c.631-.364 1.147-.066 1.147.663a2.543 2.543 0 0 1 -1.147 1.986c-.63.365-1.147.067-1.147-.662a2.547 2.547 0 0 1 1.147-1.987z" fill="#d6e2f2" transform="translate(-816.657 -363.996)"/><path d="m1101.708 496.8c.631-.364 1.147-.066 1.147.663a2.543 2.543 0 0 1 -1.147 1.986c-.63.365-1.147.067-1.147-.662a2.547 2.547 0 0 1 1.147-1.987z" fill="#d6e2f2" transform="translate(-813.227 -365.962)"/><path d="m1090.757 503.16c.631-.364 1.148-.066 1.148.662a2.544 2.544 0 0 1 -1.148 1.987c-.63.364-1.147.066-1.147-.662a2.545 2.545 0 0 1 1.147-1.987z" fill="#d6e2f2" transform="translate(-809.797 -367.953)"/><path d="m1156.463 495.457c.631-.364 1.147-.066 1.147.663a2.545 2.545 0 0 1 -1.147 1.986c-.631.365-1.147.067-1.147-.662a2.546 2.546 0 0 1 1.147-1.987z" fill="#d6e2f2" transform="translate(-830.376 -365.541)"/><path d="m1145.512 501.659c.63-.365 1.147-.067 1.147.662a2.546 2.546 0 0 1 -1.147 1.987c-.631.364-1.147.066-1.147-.662a2.544 2.544 0 0 1 1.147-1.987z" fill="#d6e2f2" transform="translate(-826.946 -367.483)"/><path d="m1134.561 507.86c.631-.364 1.147-.066 1.147.662a2.544 2.544 0 0 1 -1.147 1.987c-.631.364-1.147.067-1.147-.662a2.543 2.543 0 0 1 1.147-1.987z" fill="#d6e2f2" transform="translate(-823.516 -369.425)"/><path d="m1123.61 514.294c.631-.364 1.147-.066 1.147.663a2.543 2.543 0 0 1 -1.147 1.986c-.631.365-1.147.067-1.147-.662a2.544 2.544 0 0 1 1.147-1.987z" fill="#d6e2f2" transform="translate(-820.087 -371.44)"/><path d="m1112.659 520.535c.631-.365 1.147-.067 1.147.662a2.545 2.545 0 0 1 -1.147 1.987c-.63.364-1.147.066-1.147-.663a2.546 2.546 0 0 1 1.147-1.986z" fill="#d6e2f2" transform="translate(-816.657 -373.395)"/><path d="m1101.708 526.814c.631-.365 1.147-.067 1.147.662a2.544 2.544 0 0 1 -1.147 1.987c-.63.364-1.147.066-1.147-.663a2.545 2.545 0 0 1 1.147-1.986z" fill="#d6e2f2" transform="translate(-813.227 -375.361)"/><path d="m1090.757 533.17c.631-.364 1.148-.066 1.148.662a2.544 2.544 0 0 1 -1.148 1.987c-.63.365-1.147.067-1.147-.662a2.546 2.546 0 0 1 1.147-1.987z" fill="#d6e2f2" transform="translate(-809.797 -377.352)"/><path d="m1156.463 510.463c.631-.365 1.147-.067 1.147.662a2.547 2.547 0 0 1 -1.147 1.987c-.631.364-1.147.066-1.147-.663a2.544 2.544 0 0 1 1.147-1.986z" fill="#d6e2f2" transform="translate(-830.376 -370.24)"/><path d="m1145.512 516.664c.63-.364 1.147-.067 1.147.662a2.545 2.545 0 0 1 -1.147 1.987c-.631.364-1.147.066-1.147-.662a2.544 2.544 0 0 1 1.147-1.987z" fill="#d6e2f2" transform="translate(-826.946 -372.183)"/><path d="m1134.561 522.865c.631-.364 1.147-.066 1.147.662a2.544 2.544 0 0 1 -1.147 1.987c-.631.365-1.147.067-1.147-.662a2.544 2.544 0 0 1 1.147-1.987z" fill="#d6e2f2" transform="translate(-823.516 -374.125)"/><path d="m1123.61 529.3c.631-.365 1.147-.067 1.147.662a2.545 2.545 0 0 1 -1.147 1.987c-.631.364-1.147.066-1.147-.663a2.544 2.544 0 0 1 1.147-1.986z" fill="#d6e2f2" transform="translate(-820.087 -376.14)"/><path d="m1112.659 535.54c.631-.365 1.147-.067 1.147.662a2.545 2.545 0 0 1 -1.147 1.987c-.63.364-1.147.066-1.147-.663a2.546 2.546 0 0 1 1.147-1.986z" fill="#d6e2f2" transform="translate(-816.657 -378.094)"/><path d="m1101.708 541.819c.631-.365 1.147-.067 1.147.662a2.544 2.544 0 0 1 -1.147 1.987c-.63.364-1.147.066-1.147-.663a2.545 2.545 0 0 1 1.147-1.986z" fill="#d6e2f2" transform="translate(-813.227 -380.061)"/><path d="m1090.757 548.175c.631-.364 1.148-.066 1.148.663a2.544 2.544 0 0 1 -1.148 1.986c-.63.365-1.147.067-1.147-.662a2.546 2.546 0 0 1 1.147-1.987z" fill="#d6e2f2" transform="translate(-809.797 -382.052)"/><path d="m1156.463 525.468c.631-.365 1.147-.067 1.147.662a2.546 2.546 0 0 1 -1.147 1.987c-.631.364-1.147.066-1.147-.663a2.543 2.543 0 0 1 1.147-1.986z" fill="#d6e2f2" transform="translate(-830.376 -374.94)"/><path d="m1145.512 531.669c.63-.364 1.147-.066 1.147.662a2.545 2.545 0 0 1 -1.147 1.987c-.631.364-1.147.066-1.147-.662a2.544 2.544 0 0 1 1.147-1.987z" fill="#d6e2f2" transform="translate(-826.946 -376.882)"/><path d="m1134.561 537.87c.631-.364 1.147-.066 1.147.663a2.543 2.543 0 0 1 -1.147 1.986c-.631.365-1.147.067-1.147-.662a2.544 2.544 0 0 1 1.147-1.987z" fill="#d6e2f2" transform="translate(-823.516 -378.824)"/><path d="m1123.61 544.3c.631-.365 1.147-.067 1.147.662a2.545 2.545 0 0 1 -1.147 1.987c-.631.364-1.147.066-1.147-.663a2.543 2.543 0 0 1 1.147-1.986z" fill="#d6e2f2" transform="translate(-820.087 -380.84)"/><path d="m1112.659 550.545c.631-.365 1.147-.067 1.147.662a2.544 2.544 0 0 1 -1.147 1.987c-.63.364-1.147.066-1.147-.662a2.546 2.546 0 0 1 1.147-1.987z" fill="#d6e2f2" transform="translate(-816.657 -382.794)"/><path d="m1101.708 556.824c.631-.364 1.147-.067 1.147.662a2.543 2.543 0 0 1 -1.147 1.987c-.63.364-1.147.066-1.147-.662a2.545 2.545 0 0 1 1.147-1.987z" fill="#d6e2f2" transform="translate(-813.227 -384.761)"/><path d="m1090.757 563.18c.631-.364 1.148-.066 1.148.663a2.546 2.546 0 0 1 -1.148 1.987c-.63.364-1.147.066-1.147-.663a2.547 2.547 0 0 1 1.147-1.987z" fill="#d6e2f2" transform="translate(-809.797 -386.751)"/><path d="m1156.463 450.238c.631-.365 1.147-.067 1.147.662a2.547 2.547 0 0 1 -1.147 1.987c-.631.364-1.147.066-1.147-.663a2.544 2.544 0 0 1 1.147-1.986z" fill="#d6e2f2" transform="translate(-830.376 -351.378)"/><path d="m1145.512 456.439c.63-.364 1.147-.067 1.147.662a2.545 2.545 0 0 1 -1.147 1.987c-.631.364-1.147.066-1.147-.662a2.544 2.544 0 0 1 1.147-1.987z" fill="#d6e2f2" transform="translate(-826.946 -353.32)"/><path d="m1134.561 462.64c.631-.364 1.147-.066 1.147.662a2.544 2.544 0 0 1 -1.147 1.987c-.631.365-1.147.067-1.147-.662a2.544 2.544 0 0 1 1.147-1.987z" fill="#d6e2f2" transform="translate(-823.516 -355.263)"/><path d="m1123.61 469.074c.631-.364 1.147-.066 1.147.663a2.546 2.546 0 0 1 -1.147 1.987c-.631.364-1.147.066-1.147-.663a2.545 2.545 0 0 1 1.147-1.987z" fill="#d6e2f2" transform="translate(-820.087 -357.278)"/><path d="m1112.659 475.315c.631-.365 1.147-.067 1.147.662a2.545 2.545 0 0 1 -1.147 1.987c-.63.364-1.147.066-1.147-.663a2.546 2.546 0 0 1 1.147-1.986z" fill="#d6e2f2" transform="translate(-816.657 -359.232)"/><path d="m1101.708 481.594c.631-.365 1.147-.067 1.147.662a2.544 2.544 0 0 1 -1.147 1.987c-.63.364-1.147.066-1.147-.663a2.545 2.545 0 0 1 1.147-1.986z" fill="#d6e2f2" transform="translate(-813.227 -361.199)"/><path d="m1090.757 487.95c.631-.364 1.148-.066 1.148.663a2.544 2.544 0 0 1 -1.148 1.986c-.63.365-1.147.067-1.147-.662a2.546 2.546 0 0 1 1.147-1.987z" fill="#d6e2f2" transform="translate(-809.797 -363.19)"/><path d="m1156.463 435.028c.631-.364 1.147-.066 1.147.662a2.545 2.545 0 0 1 -1.147 1.987c-.631.364-1.147.066-1.147-.662a2.544 2.544 0 0 1 1.147-1.987z" fill="#d6e2f2" transform="translate(-830.376 -346.615)"/><path d="m1145.512 441.229c.63-.364 1.147-.066 1.147.663a2.545 2.545 0 0 1 -1.147 1.986c-.631.365-1.147.067-1.147-.662a2.545 2.545 0 0 1 1.147-1.987z" fill="#d6e2f2" transform="translate(-826.946 -348.557)"/><path d="m1134.561 447.431c.631-.365 1.147-.067 1.147.662a2.545 2.545 0 0 1 -1.147 1.987c-.631.364-1.147.066-1.147-.663a2.543 2.543 0 0 1 1.147-1.986z" fill="#d6e2f2" transform="translate(-823.516 -350.499)"/><path d="m1123.61 453.865c.631-.364 1.147-.066 1.147.662a2.544 2.544 0 0 1 -1.147 1.987c-.631.364-1.147.066-1.147-.662a2.543 2.543 0 0 1 1.147-1.987z" fill="#d6e2f2" transform="translate(-820.087 -352.514)"/><path d="m1112.659 460.105c.631-.364 1.147-.066 1.147.662a2.544 2.544 0 0 1 -1.147 1.987c-.63.364-1.147.067-1.147-.662a2.545 2.545 0 0 1 1.147-1.987z" fill="#d6e2f2" transform="translate(-816.657 -354.469)"/><path d="m1101.708 466.384c.631-.364 1.147-.066 1.147.662a2.543 2.543 0 0 1 -1.147 1.987c-.63.365-1.147.067-1.147-.662a2.545 2.545 0 0 1 1.147-1.987z" fill="#d6e2f2" transform="translate(-813.227 -356.435)"/><path d="m1090.757 472.741c.631-.365 1.148-.067 1.148.662a2.545 2.545 0 0 1 -1.148 1.987c-.63.364-1.147.066-1.147-.662a2.545 2.545 0 0 1 1.147-1.987z" fill="#d6e2f2" transform="translate(-809.797 -358.426)"/><path d="m1156.463 419.818c.631-.364 1.147-.066 1.147.663a2.545 2.545 0 0 1 -1.147 1.986c-.631.365-1.147.067-1.147-.662a2.545 2.545 0 0 1 1.147-1.987z" fill="#d6e2f2" transform="translate(-830.376 -341.851)"/><path d="m1145.512 426.02c.63-.365 1.147-.067 1.147.662a2.546 2.546 0 0 1 -1.147 1.987c-.631.364-1.147.066-1.147-.663a2.544 2.544 0 0 1 1.147-1.986z" fill="#d6e2f2" transform="translate(-826.946 -343.793)"/><path d="m1134.561 432.221c.631-.364 1.147-.066 1.147.662a2.544 2.544 0 0 1 -1.147 1.987c-.631.364-1.147.066-1.147-.662a2.543 2.543 0 0 1 1.147-1.987z" fill="#d6e2f2" transform="translate(-823.516 -345.735)"/><path d="m1123.61 438.655c.631-.364 1.147-.066 1.147.663a2.543 2.543 0 0 1 -1.147 1.986c-.631.365-1.147.067-1.147-.662a2.544 2.544 0 0 1 1.147-1.987z" fill="#d6e2f2" transform="translate(-820.087 -347.751)"/><path d="m1112.659 444.9c.631-.365 1.147-.067 1.147.662a2.546 2.546 0 0 1 -1.147 1.987c-.63.364-1.147.066-1.147-.663a2.546 2.546 0 0 1 1.147-1.986z" fill="#d6e2f2" transform="translate(-816.657 -349.705)"/><path d="m1101.708 451.174c.631-.364 1.147-.066 1.147.663a2.546 2.546 0 0 1 -1.147 1.987c-.63.364-1.147.066-1.147-.663a2.547 2.547 0 0 1 1.147-1.987z" fill="#d6e2f2" transform="translate(-813.227 -351.672)"/><path d="m1090.757 457.531c.631-.364 1.148-.066 1.148.662a2.544 2.544 0 0 1 -1.148 1.987c-.63.365-1.147.067-1.147-.662a2.546 2.546 0 0 1 1.147-1.987z" fill="#d6e2f2" transform="translate(-809.797 -353.662)"/><path d="m1058.051 366.278-35.2 20.322a2.422 2.422 0 0 0 0 4.2l35.2 20.322a4.417 4.417 0 0 0 4.415 0l35.2-20.322a2.421 2.421 0 0 0 0-4.2l-35.2-20.322a4.417 4.417 0 0 0 -4.415 0z" fill="#326ebd" transform="translate(-788.51 -324.946)"/><path d="m1058.051 364.713-35.2 20.321a2.422 2.422 0 0 0 0 4.195l35.2 20.322a4.417 4.417 0 0 0 4.415 0l35.2-20.322a2.421 2.421 0 0 0 0-4.195l-35.2-20.321a4.414 4.414 0 0 0 -4.415 0z" fill="#26538e" transform="translate(-788.51 -324.456)"/><path d="m1022.853 388.99 1.117.644 34.081-19.677a4.417 4.417 0 0 1 4.415 0l34.081 19.677 1.116-.644a2.421 2.421 0 0 0 0-4.2l-35.2-20.322a4.417 4.417 0 0 0 -4.415 0l-35.2 20.322a2.422 2.422 0 0 0 .005 4.2z" fill="url(#j)" transform="translate(-788.51 -324.381)"/><path d="m1071.387 316.411 13.64 7.875-13.64 7.875-13.64-7.875z" fill="#fdab74" transform="translate(-799.818 -309.513)"/><path d="m1091.294 327.877v39.545l-13.538 7.934v-39.6z" fill="#fc7318" transform="translate(-806.085 -313.104)"/><path d="m1057.747 327.877v39.545l13.743 7.934v-39.6z" fill="#fd8f46" transform="translate(-799.818 -313.104)"/><path d="m1096.57 356.433 13.64 7.875-13.64 7.875-13.64-7.875z" fill="#5b8bca" transform="translate(-807.705 -322.048)"/><path d="m1116.477 367.9v22.114l-13.537 7.934v-22.174z" fill="#26538e" transform="translate(-813.972 -325.639)"/><path d="m1082.93 367.9v22.114l13.743 7.934v-22.174z" fill="#326ebd" transform="translate(-807.705 -325.639)"/><path d="m1046.656 348.623 13.64 7.875-13.64 7.875-13.64-7.875z" fill="#5b8bca" transform="translate(-792.072 -319.602)"/><path d="m1066.563 360.09v27.478l-13.537 7.934v-27.537z" fill="#26538e" transform="translate(-798.339 -323.194)"/><path d="m1033.016 360.09v27.478l13.743 7.934v-27.537z" fill="#326ebd" transform="translate(-792.072 -323.193)"/><path d="m1071.536 377.085 13.64 7.875-13.64 7.875-13.64-7.875z" fill="#5b8bca" transform="translate(-799.864 -328.516)"/><path d="m1091.443 388.552v18.092l-13.537 7.934v-18.151z" fill="#26538e" transform="translate(-806.131 -332.108)"/><path d="m1057.9 388.552v18.092l13.742 7.934v-18.151z" fill="#326ebd" transform="translate(-799.864 -332.108)"/><path d="m1170.3 556.668-11.075 6.084v3.155l11.075-6.084z" fill="#326ebd" transform="translate(-831.602 -384.761)"/><path d="m1170.3 565.455-11.075 6.084v3.155l11.075-6.084z" fill="#326ebd" transform="translate(-831.602 -387.513)"/><path d="m1164.767 578.672-5.538 3.042v3.155l5.538-3.042z" fill="#326ebd" transform="translate(-831.602 -391.652)"/><path d="m1005.705 584.193a1.2 1.2 0 0 1 -.6-.162l-5.449-3.146a1.207 1.207 0 0 1 1.207-2.091l5.449 3.146a1.207 1.207 0 0 1 -.6 2.253z" fill="#6f9ad1" transform="translate(-781.434 -391.64)"/><path d="m1033.237 600.175a1.2 1.2 0 0 1 -.6-.162l-19.051-11a1.207 1.207 0 0 1 1.207-2.091l19.052 11a1.207 1.207 0 0 1 -.605 2.253z" fill="#6f9ad1" transform="translate(-785.796 -394.185)"/><path d="m1005.705 594.433a1.2 1.2 0 0 1 -.6-.162l-5.449-3.146a1.207 1.207 0 0 1 1.207-2.091l5.449 3.146a1.207 1.207 0 0 1 -.6 2.252z" fill="#6f9ad1" transform="translate(-781.434 -394.847)"/><path d="m1033.237 610.415a1.206 1.206 0 0 1 -.6-.161l-19.051-11a1.207 1.207 0 0 1 1.207-2.09l19.052 11a1.207 1.207 0 0 1 -.605 2.252z" fill="#6f9ad1" transform="translate(-785.796 -397.393)"/><path d="m1005.705 614.914a1.2 1.2 0 0 1 -.6-.162l-5.449-3.146a1.207 1.207 0 0 1 1.207-2.091l5.449 3.145a1.207 1.207 0 0 1 -.6 2.253z" fill="#6f9ad1" transform="translate(-781.434 -401.261)"/><path d="m1033.237 630.9a1.2 1.2 0 0 1 -.6-.162l-19.051-11a1.207 1.207 0 0 1 1.207-2.091l19.052 11a1.207 1.207 0 0 1 -.605 2.252z" fill="#6f9ad1" transform="translate(-785.796 -403.807)"/><path d="m1005.705 625.155a1.2 1.2 0 0 1 -.6-.162l-5.449-3.146a1.207 1.207 0 0 1 1.207-2.091l5.449 3.146a1.207 1.207 0 0 1 -.6 2.253z" fill="#6f9ad1" transform="translate(-781.434 -404.468)"/><path d="m1033.237 641.137a1.2 1.2 0 0 1 -.6-.162l-19.051-11a1.207 1.207 0 0 1 1.207-2.091l19.052 11a1.207 1.207 0 0 1 -.605 2.253z" fill="#6f9ad1" transform="translate(-785.796 -407.014)"/><path d="m997.155 772.455 76.022 44.467 101.6-56.807-76.022-44.73z" fill="url(#k)" opacity=".4" transform="translate(-780.841 -434.47)"/><path d="m1098.6 698.784v-2.535l135.254-79.449c2.54-1.466 5.527-2.361 8.066-.9l71.011 40.767a3.9 3.9 0 0 1 1.564 1.677l.4.815a6.564 6.564 0 0 1 -2.623 8.553l-132.76 76.621a10.245 10.245 0 0 1 -9.233 0l-67.949-39.11a7.437 7.437 0 0 1 -3.73-6.439z" fill="#e0e9f5" transform="translate(-812.613 -403.079)"/><path d="m1312.268 686.657-132.76 76.621a10.245 10.245 0 0 1 -9.233 0l-67.949-39.11a7.438 7.438 0 0 1 -3.727-6.446v1.985a7.437 7.437 0 0 0 3.727 6.446l67.949 39.11a10.245 10.245 0 0 0 9.233 0l132.76-76.621a6.565 6.565 0 0 0 3.207-6.679 6.554 6.554 0 0 1 -3.207 4.694z" fill="#98b7de" transform="translate(-812.613 -424.003)"/><path d="m1100.5 698.116c-2.539-1.466-2.539-3.865 0-5.331l132.975-76.774a10.245 10.245 0 0 1 9.234 0l69.771 40.282c2.54 1.466 2.54 3.865 0 5.331l-132.972 76.776a10.241 10.241 0 0 1 -9.234 0z" fill="#fff" transform="translate(-812.612 -403.003)"/><path d="m1175.159 739.178a8.8 8.8 0 0 1 -4.322-1.021l-69.772-40.282a2.248 2.248 0 0 1 0-4.312l132.975-76.774a9.663 9.663 0 0 1 8.645 0l69.771 40.282a2.248 2.248 0 0 1 0 4.312l-132.975 76.774a8.8 8.8 0 0 1 -4.322 1.021z" fill="#326ebd" transform="translate(-812.881 -403.271)"/><path d="m1200.745 755.39a9.663 9.663 0 0 0 8.645 0l132.975-76.774a2.248 2.248 0 0 0 0-4.312l-6.087-3.514-141.331 81.252z" fill="url(#l)" transform="translate(-842.788 -420.504)"/><path d="m1242.686 616.79a9.663 9.663 0 0 0 -8.645 0l-132.975 76.774a2.248 2.248 0 0 0 0 4.312l6.172 3.563a7.052 7.052 0 0 0 1.03-.49l138.872-81.587z" fill="url(#m)" transform="translate(-812.881 -403.271)"/><path d="m1134.4 718.075 56.2-32.447a7.722 7.722 0 0 1 7.723 0l40.173 23.092a3.016 3.016 0 0 1 0 5.224l-56.2 32.448a7.725 7.725 0 0 1 -7.723 0l-40.173-23.092a3.016 3.016 0 0 1 0-5.225z" fill="#326ebd" transform="translate(-823.353 -424.826)"/><path d="m1134.4 719.81 56.2-32.447a7.722 7.722 0 0 1 7.723 0l40.172 23.092a2.965 2.965 0 0 1 1.378 1.745 3.005 3.005 0 0 0 -1.378-3.48l-40.172-23.092a7.722 7.722 0 0 0 -7.723 0l-56.2 32.447a3.006 3.006 0 0 0 -1.378 3.48 2.967 2.967 0 0 1 1.378-1.745z" fill="#447bc3" transform="translate(-823.355 -424.826)"/><g fill="#326ebd" opacity=".4" transform="translate(309.539 235.645)"><path d="m1134.4 718.075 56.2-32.447a7.722 7.722 0 0 1 7.723 0l40.173 23.092a3.016 3.016 0 0 1 0 5.224l-56.2 32.448a7.725 7.725 0 0 1 -7.723 0l-40.173-23.092a3.016 3.016 0 0 1 0-5.225z" transform="translate(-1132.892 -660.471)"/><path d="m1134.4 717.217 56.2-32.447a7.722 7.722 0 0 1 7.723 0l40.173 23.092a3.016 3.016 0 0 1 0 5.224l-56.2 32.447a7.722 7.722 0 0 1 -7.723 0l-40.173-23.091a3.016 3.016 0 0 1 0-5.225z" opacity=".976" transform="translate(-1132.892 -660.203)"/><path d="m1134.4 716.361 56.2-32.447a7.722 7.722 0 0 1 7.723 0l40.173 23.091a3.016 3.016 0 0 1 0 5.225l-56.2 32.447a7.722 7.722 0 0 1 -7.723 0l-40.173-23.091a3.016 3.016 0 0 1 0-5.225z" opacity=".951" transform="translate(-1132.892 -659.935)"/><path d="m1134.4 715.5 56.2-32.447a7.722 7.722 0 0 1 7.723 0l40.173 23.092a3.016 3.016 0 0 1 0 5.224l-56.2 32.447a7.725 7.725 0 0 1 -7.723 0l-40.173-23.087a3.016 3.016 0 0 1 0-5.229z" opacity=".927" transform="translate(-1132.892 -659.666)"/><path d="m1134.4 714.648 56.2-32.448a7.726 7.726 0 0 1 7.723 0l40.173 23.092a3.016 3.016 0 0 1 0 5.225l-56.2 32.447a7.722 7.722 0 0 1 -7.723 0l-40.173-23.092a3.016 3.016 0 0 1 0-5.224z" opacity=".902" transform="translate(-1132.892 -659.398)"/><path d="m1134.4 713.792 56.2-32.447a7.722 7.722 0 0 1 7.723 0l40.173 23.092a3.016 3.016 0 0 1 0 5.224l-56.2 32.447a7.722 7.722 0 0 1 -7.723 0l-40.173-23.092a3.016 3.016 0 0 1 0-5.224z" opacity=".878" transform="translate(-1132.892 -659.13)"/><path d="m1134.4 712.935 56.2-32.447a7.722 7.722 0 0 1 7.723 0l40.173 23.092a3.016 3.016 0 0 1 0 5.225l-56.2 32.447a7.722 7.722 0 0 1 -7.723 0l-40.173-23.093a3.016 3.016 0 0 1 0-5.224z" opacity=".854" transform="translate(-1132.892 -658.861)"/><path d="m1134.4 712.078 56.2-32.447a7.724 7.724 0 0 1 7.723 0l40.173 23.092a3.016 3.016 0 0 1 0 5.224l-56.2 32.447a7.722 7.722 0 0 1 -7.723 0l-40.173-23.094a3.016 3.016 0 0 1 0-5.222z" opacity=".829" transform="translate(-1132.892 -658.593)"/><path d="m1134.4 711.221 56.2-32.447a7.722 7.722 0 0 1 7.723 0l40.173 23.092a3.016 3.016 0 0 1 0 5.225l-56.2 32.447a7.725 7.725 0 0 1 -7.723 0l-40.173-23.092a3.016 3.016 0 0 1 0-5.225z" opacity=".805" transform="translate(-1132.892 -658.325)"/><path d="m1134.4 710.365 56.2-32.447a7.722 7.722 0 0 1 7.723 0l40.173 23.092a3.016 3.016 0 0 1 0 5.224l-56.2 32.447a7.722 7.722 0 0 1 -7.723 0l-40.173-23.092a3.016 3.016 0 0 1 0-5.224z" opacity=".78" transform="translate(-1132.892 -658.056)"/><path d="m1134.4 709.508 56.2-32.447a7.722 7.722 0 0 1 7.723 0l40.173 23.091a3.016 3.016 0 0 1 0 5.225l-56.2 32.447a7.722 7.722 0 0 1 -7.723 0l-40.173-23.091a3.016 3.016 0 0 1 0-5.225z" opacity=".756" transform="translate(-1132.892 -657.788)"/><path d="m1134.4 708.651 56.2-32.447a7.722 7.722 0 0 1 7.723 0l40.177 23.096a3.016 3.016 0 0 1 0 5.224l-56.2 32.447a7.722 7.722 0 0 1 -7.723 0l-40.177-23.095a3.016 3.016 0 0 1 0-5.225z" opacity=".732" transform="translate(-1132.892 -657.52)"/><path d="m1134.4 707.8 56.2-32.448a7.726 7.726 0 0 1 7.723 0l40.173 23.092a3.016 3.016 0 0 1 0 5.224l-56.2 32.447a7.722 7.722 0 0 1 -7.723 0l-40.173-23.096a3.016 3.016 0 0 1 0-5.219z" opacity=".707" transform="translate(-1132.892 -657.252)"/><path d="m1134.4 706.938 56.2-32.447a7.722 7.722 0 0 1 7.723 0l40.173 23.092a3.016 3.016 0 0 1 0 5.224l-56.2 32.448a7.726 7.726 0 0 1 -7.723 0l-40.173-23.092a3.016 3.016 0 0 1 0-5.225z" opacity=".683" transform="translate(-1132.892 -656.983)"/><path d="m1134.4 706.081 56.2-32.447a7.722 7.722 0 0 1 7.723 0l40.173 23.092a3.016 3.016 0 0 1 0 5.224l-56.196 32.45a7.722 7.722 0 0 1 -7.723 0l-40.177-23.094a3.016 3.016 0 0 1 0-5.225z" opacity=".659" transform="translate(-1132.892 -656.715)"/><path d="m1134.4 705.225 56.2-32.447a7.722 7.722 0 0 1 7.723 0l40.173 23.091a3.016 3.016 0 0 1 0 5.224l-56.2 32.447a7.722 7.722 0 0 1 -7.723 0l-40.173-23.09a3.016 3.016 0 0 1 0-5.225z" opacity=".634" transform="translate(-1132.892 -656.447)"/><path d="m1134.4 704.369 56.2-32.447a7.722 7.722 0 0 1 7.723 0l40.173 23.092a3.016 3.016 0 0 1 0 5.225l-56.2 32.447a7.726 7.726 0 0 1 -7.723 0l-40.173-23.093a3.016 3.016 0 0 1 0-5.224z" opacity=".61" transform="translate(-1132.892 -656.178)"/><path d="m1134.4 703.512 56.2-32.448a7.726 7.726 0 0 1 7.723 0l40.173 23.092a3.016 3.016 0 0 1 0 5.224l-56.2 32.447a7.722 7.722 0 0 1 -7.723 0l-40.173-23.091a3.016 3.016 0 0 1 0-5.224z" opacity=".585" transform="translate(-1132.892 -655.91)"/><path d="m1134.4 702.655 56.2-32.447a7.722 7.722 0 0 1 7.723 0l40.177 23.092a3.016 3.016 0 0 1 0 5.224l-56.2 32.447a7.722 7.722 0 0 1 -7.723 0l-40.177-23.091a3.016 3.016 0 0 1 0-5.225z" opacity=".561" transform="translate(-1132.892 -655.642)"/><path d="m1134.4 701.8 56.2-32.447a7.722 7.722 0 0 1 7.723 0l40.173 23.092a3.016 3.016 0 0 1 0 5.225l-56.2 32.447a7.722 7.722 0 0 1 -7.723 0l-40.173-23.094a3.016 3.016 0 0 1 0-5.223z" opacity=".537" transform="translate(-1132.892 -655.373)"/><path d="m1134.4 700.943 56.2-32.447a7.722 7.722 0 0 1 7.723 0l40.173 23.091a3.016 3.016 0 0 1 0 5.224l-56.2 32.447a7.722 7.722 0 0 1 -7.723 0l-40.173-23.091a3.016 3.016 0 0 1 0-5.224z" opacity=".512" transform="translate(-1132.892 -655.105)"/><path d="m1134.4 700.085 56.2-32.447a7.722 7.722 0 0 1 7.723 0l40.177 23.092a3.016 3.016 0 0 1 0 5.224l-56.2 32.446a7.726 7.726 0 0 1 -7.723 0l-40.177-23.09a3.016 3.016 0 0 1 0-5.225z" opacity=".488" transform="translate(-1132.892 -654.837)"/><path d="m1134.4 699.229 56.2-32.447a7.725 7.725 0 0 1 7.723 0l40.173 23.092a3.016 3.016 0 0 1 0 5.225l-56.2 32.447a7.722 7.722 0 0 1 -7.723 0l-40.173-23.093a3.016 3.016 0 0 1 0-5.224z" opacity=".463" transform="translate(-1132.892 -654.569)"/><path d="m1134.4 698.372 56.2-32.447a7.722 7.722 0 0 1 7.723 0l40.173 23.091a3.016 3.016 0 0 1 0 5.224l-56.2 32.448a7.722 7.722 0 0 1 -7.723 0l-40.173-23.088a3.016 3.016 0 0 1 0-5.228z" opacity=".439" transform="translate(-1132.892 -654.301)"/><path d="m1134.4 697.516 56.2-32.447a7.722 7.722 0 0 1 7.723 0l40.177 23.091a3.016 3.016 0 0 1 0 5.224l-56.2 32.447a7.722 7.722 0 0 1 -7.723 0l-40.177-23.091a3.016 3.016 0 0 1 0-5.224z" opacity=".415" transform="translate(-1132.892 -654.032)"/><path d="m1134.4 696.659 56.2-32.448a7.726 7.726 0 0 1 7.723 0l40.177 23.089a3.016 3.016 0 0 1 0 5.225l-56.2 32.447a7.722 7.722 0 0 1 -7.723 0l-40.177-23.089a3.016 3.016 0 0 1 0-5.224z" opacity=".39" transform="translate(-1132.892 -653.764)"/><path d="m1134.4 695.8 56.2-32.447a7.722 7.722 0 0 1 7.723 0l40.173 23.092a3.016 3.016 0 0 1 0 5.224l-56.2 32.448a7.726 7.726 0 0 1 -7.723 0l-40.173-23.09a3.016 3.016 0 0 1 0-5.227z" opacity=".366" transform="translate(-1132.892 -653.496)"/><path d="m1134.4 694.945 56.2-32.447a7.722 7.722 0 0 1 7.723 0l40.177 23.092a3.016 3.016 0 0 1 0 5.224l-56.2 32.447a7.722 7.722 0 0 1 -7.723 0l-40.177-23.091a3.016 3.016 0 0 1 0-5.225z" opacity=".341" transform="translate(-1132.892 -653.227)"/><path d="m1134.4 694.089 56.2-32.447a7.722 7.722 0 0 1 7.723 0l40.173 23.091a3.016 3.016 0 0 1 0 5.224l-56.196 32.443a7.722 7.722 0 0 1 -7.723 0l-40.177-23.086a3.016 3.016 0 0 1 0-5.225z" opacity=".317" transform="translate(-1132.892 -652.959)"/><path d="m1134.4 693.232 56.2-32.447a7.722 7.722 0 0 1 7.723 0l40.173 23.092a3.016 3.016 0 0 1 0 5.225l-56.2 32.447a7.726 7.726 0 0 1 -7.723 0l-40.173-23.092a3.016 3.016 0 0 1 0-5.225z" opacity=".293" transform="translate(-1132.892 -652.691)"/><path d="m1134.4 692.376 56.2-32.448a7.726 7.726 0 0 1 7.723 0l40.177 23.092a3.016 3.016 0 0 1 0 5.225l-56.2 32.447a7.722 7.722 0 0 1 -7.723 0l-40.177-23.092a3.016 3.016 0 0 1 0-5.224z" opacity=".268" transform="translate(-1132.892 -652.422)"/><path d="m1134.4 691.519 56.2-32.447a7.722 7.722 0 0 1 7.723 0l40.173 23.092a3.016 3.016 0 0 1 0 5.224l-56.2 32.447a7.722 7.722 0 0 1 -7.723 0l-40.173-23.091a3.016 3.016 0 0 1 0-5.225z" opacity=".244" transform="translate(-1132.892 -652.154)"/><path d="m1134.4 690.663 56.2-32.447a7.722 7.722 0 0 1 7.723 0l40.173 23.092a3.016 3.016 0 0 1 0 5.225l-56.2 32.447a7.722 7.722 0 0 1 -7.723 0l-40.173-23.093a3.016 3.016 0 0 1 0-5.224z" opacity=".22" transform="translate(-1132.892 -651.886)"/><path d="m1134.4 689.807 56.2-32.447a7.722 7.722 0 0 1 7.723 0l40.177 23.09a3.016 3.016 0 0 1 0 5.224l-56.2 32.447a7.722 7.722 0 0 1 -7.723 0l-40.177-23.09a3.016 3.016 0 0 1 0-5.224z" opacity=".195" transform="translate(-1132.892 -651.618)"/><path d="m1134.4 688.949 56.2-32.447a7.722 7.722 0 0 1 7.723 0l40.173 23.092a3.016 3.016 0 0 1 0 5.224l-56.2 32.447a7.726 7.726 0 0 1 -7.723 0l-40.173-23.091a3.016 3.016 0 0 1 0-5.225z" opacity=".171" transform="translate(-1132.892 -651.349)"/><path d="m1134.4 688.093 56.2-32.447a7.726 7.726 0 0 1 7.723 0l40.173 23.092a3.016 3.016 0 0 1 0 5.225l-56.2 32.447a7.722 7.722 0 0 1 -7.723 0l-40.173-23.093a3.016 3.016 0 0 1 0-5.224z" opacity=".146" transform="translate(-1132.892 -651.081)"/><path d="m1134.4 687.237 56.2-32.447a7.722 7.722 0 0 1 7.723 0l40.177 23.09a3.016 3.016 0 0 1 0 5.224l-56.2 32.447a7.722 7.722 0 0 1 -7.723 0l-40.177-23.09a3.016 3.016 0 0 1 0-5.224z" opacity=".122" transform="translate(-1132.892 -650.813)"/><path d="m1134.4 686.379 56.2-32.447a7.722 7.722 0 0 1 7.723 0l40.173 23.092a3.016 3.016 0 0 1 0 5.224l-56.196 32.452a7.722 7.722 0 0 1 -7.723 0l-40.177-23.1a3.016 3.016 0 0 1 0-5.221z" opacity=".098" transform="translate(-1132.892 -650.544)"/><path d="m1134.4 685.523 56.2-32.448a7.726 7.726 0 0 1 7.723 0l40.173 23.092a3.016 3.016 0 0 1 0 5.224l-56.2 32.447a7.722 7.722 0 0 1 -7.723 0l-40.173-23.091a3.016 3.016 0 0 1 0-5.224z" opacity=".073" transform="translate(-1132.892 -650.276)"/><path d="m1134.4 684.667 56.2-32.447a7.722 7.722 0 0 1 7.723 0l40.173 23.092a3.016 3.016 0 0 1 0 5.224l-56.2 32.448a7.726 7.726 0 0 1 -7.723 0l-40.173-23.093a3.016 3.016 0 0 1 0-5.224z" opacity=".049" transform="translate(-1132.892 -650.008)"/><path d="m1134.4 683.809 56.2-32.447a7.722 7.722 0 0 1 7.723 0l40.173 23.092a3.016 3.016 0 0 1 0 5.225l-56.2 32.447a7.722 7.722 0 0 1 -7.723 0l-40.173-23.092a3.016 3.016 0 0 1 0-5.225z" opacity=".024" transform="translate(-1132.892 -649.739)"/><path d="m1134.4 682.953 56.2-32.447a7.722 7.722 0 0 1 7.723 0l40.177 23.094a3.016 3.016 0 0 1 0 5.224l-56.2 32.447a7.723 7.723 0 0 1 -7.723 0l-40.177-23.093a3.016 3.016 0 0 1 0-5.225z" opacity="0" transform="translate(-1132.892 -649.471)"/></g><path d="m1256.543 647.752 30.81-17.788 5.135 2.965-30.81 17.788z" fill="#fc7318" transform="translate(-862.08 -407.717)"/><path d="m1279.8 661.113 30.81-17.788 3.429 2.051-30.81 17.788z" fill="#26538e" transform="translate(-869.364 -411.901)"/><path d="m1292.007 668.206 30.81-17.788 3.429 2.052-30.81 17.788z" fill="#26538e" transform="translate(-873.187 -414.123)"/><path d="m1304.213 675.3 30.81-17.788 3.428 2.051-30.81 17.788z" fill="#26538e" transform="translate(-877.01 -416.344)"/><path d="m1316.419 682.391 30.81-17.788 3.429 2.051-30.81 17.788z" fill="#26538e" transform="translate(-880.833 -418.565)"/><path d="m1328.626 693.153 16.687-9.743 3.429 2.052-16.687 9.743z" fill="#26538e" transform="translate(-884.656 -424.456)"/><path d="m1134.4 682.946 56.2-32.447a7.724 7.724 0 0 1 7.723 0l40.177 23.091a3.016 3.016 0 0 1 0 5.225l-56.2 32.447a7.722 7.722 0 0 1 -7.723 0l-40.177-23.091a3.016 3.016 0 0 1 0-5.225z" fill="#bbcfe9" opacity=".4" transform="translate(-823.353 -413.824)"/><path d="m1238.5 688.357-56.2 32.443a7.722 7.722 0 0 1 -7.723 0l-40.177-23.087a2.971 2.971 0 0 1 -1.31-1.532 3.013 3.013 0 0 0 1.31 3.692l40.172 23.091a7.722 7.722 0 0 0 7.723 0l56.2-32.447a3.014 3.014 0 0 0 1.311-3.692 2.974 2.974 0 0 1 -1.306 1.532z" fill="#bbcfe9" opacity=".4" transform="translate(-823.353 -425.525)"/><path d="m1171.485 684.146 38.1 22.182.548-.311-38.259-22.089z" fill="#326ebd" transform="translate(-835.44 -424.618)"/><path d="m1193.531 671.573 38.1 22.182.548-.311-38.259-22.089z" fill="#326ebd" transform="translate(-842.345 -420.68)"/><path d="m1196.906 706.213a9.526 9.526 0 0 1 .712-8.31 8.1 8.1 0 0 1 3-3.038 23.429 23.429 0 0 1 5.286-1.834 17.473 17.473 0 0 0 4.692-1.991 15.89 15.89 0 0 0 6.129-7.286 18.594 18.594 0 0 0 1.163-4.738c.219-1.652.342-3.318.633-4.961a11.969 11.969 0 0 1 1.576-4.464 7.477 7.477 0 0 1 .683-.9c.251-.284-.166-.7-.418-.418-2.249 2.544-2.527 6.077-2.89 9.3a24.969 24.969 0 0 1 -.895 4.88 14.978 14.978 0 0 1 -2.207 4.275 15.21 15.21 0 0 1 -3.422 3.365 15.528 15.528 0 0 1 -4.547 2.179 38.057 38.057 0 0 0 -5.424 1.743 8.7 8.7 0 0 0 -3.481 2.969 10.369 10.369 0 0 0 -1.479 8.493 8.638 8.638 0 0 0 .375 1.035.3.3 0 0 0 .4.106.3.3 0 0 0 .106-.4z" fill="#feb423" transform="translate(-843.015 -419.685)"/><path d="m1197.132 709.479a68.411 68.411 0 0 1 -5.56-11.994c-.363-1.01-.72-2.027-1.016-3.059a12.136 12.136 0 0 1 -.543-3.239 5.772 5.772 0 0 1 .735-2.974 6.5 6.5 0 0 1 1.9-2 12.845 12.845 0 0 1 5.383-2 32.109 32.109 0 0 1 5.942-.261c3.946.107 8.048.529 11.886-.644a13.942 13.942 0 0 0 5.122-2.911 31.2 31.2 0 0 0 4.112-4.582q.444-.581.878-1.17a.3.3 0 0 0 -.106-.4.3.3 0 0 0 -.4.106c-2.379 3.207-5.033 6.625-8.886 8.093-3.759 1.431-7.895 1.078-11.829.945-3.915-.133-8.175-.152-11.68 1.859a6.824 6.824 0 0 0 -3.512 4.5c-.422 2.194.262 4.418.958 6.479a72.908 72.908 0 0 0 5.338 12.207q.378.677.775 1.341a.3.3 0 0 0 .51-.3z" fill="#fc7318" transform="translate(-841.058 -421.573)"/><path d="m1149.438 696.718 38.1 22.182.548-.311-38.262-22.089z" fill="#326ebd" transform="translate(-828.535 -428.556)"/><path d="m1215.578 659 38.1 22.182.548-.311-38.259-22.089z" fill="#326ebd" transform="translate(-849.25 -416.742)"/><path d="m969.406 729.728v-2.936l-156.621-92c-2.94-1.7-6.4-2.734-9.34-1.036l-82.227 47.206a4.523 4.523 0 0 0 -1.812 1.942l-.459.944a7.6 7.6 0 0 0 3.037 9.9l153.731 88.724a11.864 11.864 0 0 0 10.692 0l78.682-45.288a8.613 8.613 0 0 0 4.317-7.456z" fill="#e0e9f5" transform="translate(-693.468 -408.633)"/><path d="m965.091 758.746-78.682 45.287a11.859 11.859 0 0 1 -10.692 0l-153.731-88.723a7.589 7.589 0 0 1 -3.688-5.285 7.6 7.6 0 0 0 3.688 7.888l153.731 88.724a11.864 11.864 0 0 0 10.692 0l78.682-45.288a8.613 8.613 0 0 0 4.316-7.464v-2.6a8.615 8.615 0 0 1 -4.316 7.461z" fill="#98b7de" transform="translate(-693.469 -432.791)"/><path d="m967.816 728.954c2.94-1.7 2.94-4.475 0-6.172l-153.98-88.9a11.858 11.858 0 0 0 -10.691 0l-80.792 46.645c-2.941 1.7-2.941 4.476 0 6.173l153.979 88.9a11.859 11.859 0 0 0 10.692 0z" fill="#fff" transform="translate(-694.083 -408.544)"/><path d="m881.988 776.5a10.184 10.184 0 0 0 5-1.182l80.793-46.646a2.6 2.6 0 0 0 0-4.992l-153.98-88.9a11.188 11.188 0 0 0 -10.01 0l-80.791 46.647a2.6 2.6 0 0 0 0 4.992l153.979 88.9a10.189 10.189 0 0 0 5.009 1.181z" fill="#326ebd" transform="translate(-694.394 -408.855)"/><path d="m781.042 692.12 37.123 21.433-5.606 3.242-37.123-21.433z" fill="#26538e" transform="translate(-711.399 -427.183)"/><path d="m927.816 693.26 91.293 52.35-10.971 5.947-91.293-52.35z" fill="#26538e" transform="translate(-755.688 -427.54)"/><path d="m902.556 708.863 92.727 53.627-5.606 3.241-92.727-53.631z" fill="#26538e" transform="translate(-749.457 -432.427)"/><path d="m880.353 721.683 32.06 18.009-5.606 3.242-32.06-18.009z" fill="#26538e" transform="translate(-742.503 -436.442)"/><path d="m858.149 734.5 44.507 25.756-5.606 3.244-44.507-25.756z" fill="#26538e" transform="translate(-735.549 -440.457)"/><path d="m835.946 747.323 57.788 33.087-5.606 3.242-57.788-33.087z" fill="#26538e" transform="translate(-728.595 -444.472)"/><path d="m760.964 704.058 37.123 21.433-5.606 3.242-37.123-21.433z" fill="#26538e" transform="translate(-705.111 -430.922)"/><path d="m830.257 652.494-31.907 18.421a3.126 3.126 0 0 0 .03 5.431l31.939 17.982a6.555 6.555 0 0 0 6.431 0l31.939-17.982a3.126 3.126 0 0 0 .03-5.431l-31.907-18.421a6.553 6.553 0 0 0 -6.555 0z" fill="#26538e" opacity=".3" transform="translate(-718.087 -414.497)"/><path d="m830.257 641.286-33.469 15.1v5.548a3.634 3.634 0 0 0 1.836 3.158l31.695 18.031a6.555 6.555 0 0 0 6.431 0l31.6-17.809a3.634 3.634 0 0 0 1.849-3.165v-5.109l-33.39-15.75a6.553 6.553 0 0 0 -6.552-.004z" fill="#c1d4eb" transform="translate(-718.087 -410.987)"/><path d="m830.257 632.459-31.907 18.421a3.126 3.126 0 0 0 .03 5.431l31.939 17.982a6.552 6.552 0 0 0 6.431 0l31.939-17.982a3.126 3.126 0 0 0 .03-5.431l-31.907-18.421a6.557 6.557 0 0 0 -6.555 0z" fill="#f1f4fc" transform="translate(-718.087 -408.223)"/><path d="m839.119 573.6-6.938-4.006-6.768 4.006 6.768 4.006z" fill="#fec34f" transform="translate(-727.052 -388.81)"/><path d="m842.2 575.432v55.66l-6.938 3.789v-55.444z" fill="#feb423" transform="translate(-730.138 -390.637)"/><path d="m825.413 575.432v55.444l6.768 4.005v-55.444z" fill="#febb39" transform="translate(-727.052 -390.637)"/><path d="m855.268 610.643-6.938-4.005-6.767 4.005 6.767 4.006z" fill="#5b8bca" transform="translate(-732.11 -400.41)"/><path d="m858.354 612.469v36.575l-6.938 3.789v-36.358z" fill="#26538e" transform="translate(-735.196 -402.237)"/><path d="m841.563 612.469v36.358l6.767 4.006v-36.358z" fill="#326ebd" transform="translate(-732.11 -402.237)"/><path d="m871.418 601.036-6.938-4.006-6.768 4.006 6.768 4.005z" fill="#fd8f46" transform="translate(-737.168 -397.401)"/><path d="m874.5 602.863v49.526l-6.938 3.789v-49.31z" fill="#fc7318" transform="translate(-740.254 -399.228)"/><path d="m857.712 602.863v49.309l6.768 4.006v-49.31z" fill="#fc812f" transform="translate(-737.168 -399.228)"/><path d="m926.754 803.061h2.3a14.993 14.993 0 0 1 3.7-2.92c8-4.621 21.1-4.621 29.1 0a15 15 0 0 1 3.7 2.92h2.3v5.439c.019 3.059-1.98 6.123-6 8.444-8 4.62-21.1 4.62-29.1 0-4.021-2.321-6.019-5.385-6-8.444z" fill="#26538e" opacity=".3" transform="translate(-758.792 -459.929)"/><path d="m924.226 789.389h2.5a16.262 16.262 0 0 1 4.013-3.167c8.679-5.01 22.88-5.01 31.559 0a16.266 16.266 0 0 1 4.014 3.167h2.5v5.9c.021 3.318-2.147 6.64-6.507 9.157-8.678 5.01-22.88 5.01-31.559 0-4.36-2.517-6.527-5.839-6.507-9.157z" fill="url(#n)" transform="translate(-758 -455.478)"/><path d="m962.294 777.569c-8.678-5.011-22.879-5.011-31.559 0s-8.678 13.209 0 18.22 22.88 5.011 31.559 0 8.678-13.21 0-18.22z" fill="#fff" transform="translate(-758 -452.768)"/><path d="m924.233 788.248c0-.079 0-.158 0-.238v-4.88h1.731a15.158 15.158 0 0 1 4.773-4.111c6.132-3.54 2.015 9.978 0 18.22v5.941c-4.25-2.454-6.413-5.673-6.5-8.907z" fill="#bd5612" transform="translate(-758.002 -454.218)"/><path d="m930.735 772.005c-8.678 5.01-8.678 13.209 0 18.22l15.78-7.444z" fill="#fd8f46" transform="translate(-758 -452.203)"/><path d="m949.483 787.695v5l-15.78 7.444v-5z" fill="#fc7318" transform="translate(-760.968 -457.117)"/><path d="m962.072 756.923c-8.336-4.812-21.976-4.812-30.311 0s-8.335 12.688 0 17.5 21.976 4.812 30.311 0 8.335-12.687 0-17.5z" fill="url(#o)" transform="translate(-758.402 -446.349)"/><path d="m933.7 748.139c8.679-5.011 22.88-5.011 31.559 0l-15.779 10.776z" fill="#fec34f" transform="translate(-760.968 -443.551)"/><path d="m972.458 749.853v10l-15.779 10.776v-10z" fill="#febb39" transform="translate(-768.164 -445.265)"/><path d="m949.483 760.629-15.783-10.776v10l15.78 10.776z" fill="#feb423" transform="translate(-760.968 -445.265)"/><path d="m1261.591 720.655-.511-1.788a4.308 4.308 0 0 0 .211-.427l-1.379-9.59q-.149-1.042-.237-2.089l6.477-1.071a2.178 2.178 0 0 0 1.626-3.054l-7.135-15.623a3.12 3.12 0 0 0 -.6-.87 6.985 6.985 0 0 0 -4.076-2.75c-.115-.418-.333-.7-.564-.731a2.264 2.264 0 0 0 -1.751.311v-.4a4.788 4.788 0 0 0 1.59-1.594 9.511 9.511 0 0 0 .808-1.928 10.1 10.1 0 0 0 .714-3.341 8.875 8.875 0 0 0 -.289-1.889 5.434 5.434 0 0 0 -1.4-2.905 5.823 5.823 0 0 0 -1.553-.893l-2.895-1.288a13.579 13.579 0 0 0 -2.375-.883 6.8 6.8 0 0 0 -3.734.185 3.65 3.65 0 0 0 -1.116.575c-2.07 1.657-.978 4.066.891 5.11a1.662 1.662 0 0 0 -.231.839v4.583a1.414 1.414 0 0 0 -.36.685 3.889 3.889 0 0 0 .016 2.572 2.707 2.707 0 0 0 2.138 1.452 3.945 3.945 0 0 0 1.714-.2v2.407c-.167-.044-.262-.074-.262-.074l-2.288 2.086c.089.012.175.021.262.032-.183.213-.354.433-.517.659a3.361 3.361 0 0 0 -1.516 1.808l-3.521 10.008a.852.852 0 0 1 -1.286.419l-4.413-3.038a1.024 1.024 0 0 0 -1.1.093l-2.158-1.332-.387-.359-.325-2.382a.705.705 0 1 0 -1.393.19l.084.619a.832.832 0 0 0 -.065-.062l-.4-.312-.116-.107c-.032-.023-.067-.041-.1-.062l-3.922-3.071a.705.705 0 1 0 -.874 1.1l2.234 1.749a2.81 2.81 0 0 0 -.526 4.915l3.973 2.089 1.24.914a1.085 1.085 0 0 0 .288 1.163l9.712 6.686a2.177 2.177 0 0 0 3.289-1.071l.472-1.341c0 .76-.008 1.521-.038 2.28q-.065 1.623-.225 3.24l-.922 9.359c.084.049.171.1.26.141l.082.041c.065.032.13.064.2.095l.065.03-.411 23 .137 1 16.834-9.715.218-8.576a13.369 13.369 0 0 0 1.436-7.619z" fill="#19375f" opacity=".3" transform="translate(-851.567 -419.528)"/><path d="m1289.973 710.624a2.178 2.178 0 0 1 -1.626 3.053l-11.632 1.923c-1.7.282-2.721-5.883-1.019-6.163l5.286-.874a.852.852 0 0 0 .636-1.194l-4.408-9.65a3.215 3.215 0 0 1 1.216-4.121 3.125 3.125 0 0 1 4.412 1.4z" fill="#eff4fe" transform="translate(-867.804 -427.514)"/><path d="m1262.22 822.272-2.187-.236a10.65 10.65 0 0 1 -2.672-.645l-1.482-.256a1.276 1.276 0 0 0 -.744-.052c-.54.124-.942.264-1 .815l-.109 1.015a2.527 2.527 0 0 0 .67 1.843c1.137 1.1 3.138 2.683 5.016 2.959l1.9.251a2.236 2.236 0 0 0 1.133.709l2.018.586a2.326 2.326 0 0 0 2.828-2.167l.071-1.595a3.5 3.5 0 0 0 -.633-2.168l-.251-.356-3.046-.846z" fill="#326ebd" transform="translate(-861.288 -467.564)"/><path d="m1267.585 826.843a2.327 2.327 0 0 1 -2.828 2.167l-2.018-.586a2.235 2.235 0 0 1 -1.133-.708l-1.9-.251c-1.878-.276-3.88-1.858-5.016-2.96a2.52 2.52 0 0 1 -.632-1.259l-.038.353a2.527 2.527 0 0 0 .67 1.843c1.137 1.1 3.138 2.683 5.016 2.959l1.9.251a2.236 2.236 0 0 0 1.133.709l2.018.586a2.326 2.326 0 0 0 2.828-2.167l.071-1.595a3.481 3.481 0 0 0 -.019-.509z" fill="#f6f8fb" transform="translate(-861.288 -468.252)"/><path d="m1283.594 811.681a21.419 21.419 0 0 0 -4.151-1.937 1.731 1.731 0 0 0 -2.216 1.516 4.322 4.322 0 0 0 3.307 4.884s-.064 2.359 1.849 3h2.158a1.457 1.457 0 0 0 1.457-1.457v-3.339z" fill="#326ebd" transform="translate(-868.553 -464.002)"/><path d="m1284.541 818.925h-2.158c-1.913-.637-1.849-3-1.849-3a4.146 4.146 0 0 1 -3.306-3.948 4.322 4.322 0 0 0 3.307 4.884s-.064 2.359 1.849 3h2.158a1.457 1.457 0 0 0 1.457-1.457v-.937a1.457 1.457 0 0 1 -1.458 1.458z" fill="#f6f8fb" transform="translate(-868.553 -464.724)"/><path d="m0 0h3.046a0 0 0 0 1 0 0v3.241a1.523 1.523 0 0 1 -1.523 1.523 1.523 1.523 0 0 1 -1.523-1.523v-3.241a0 0 0 0 1 0 0z" fill="#e7ad99" transform="translate(402.439 353.027)"/><path d="m1286.485 816.19a1.558 1.558 0 0 1 -1.558-1.558v-3.206h3.046v3.274a1.488 1.488 0 0 1 -1.488 1.49z" fill="#e7ad99" transform="translate(-870.97 -464.55)"/><path d="m1282.58 787.912c-1.773.017-2.1.857-2.392-.966l-6.233-25.791.625-25.146a3.749 3.749 0 0 1 3.749-3.749c2.07 0 4.061 2.615 4.061 4.685l1.126 3.937a13.37 13.37 0 0 1 -1.438 7.621l-.312 12.338 3.014 24.91c.33 2.043.5 1.782-1.539 2.111a4.5 4.5 0 0 1 -.661.05z" fill="#fc7318" transform="translate(-867.533 -439.756)"/><path d="m1274.635 736.806a3.763 3.763 0 0 0 -.056.626l-.625 25.146 5.01 20.73-.674-17.755 1.177-22.811c.076-1.854-2.754-5.202-4.832-5.936z" fill="#8e410e" opacity=".3" transform="translate(-867.533 -441.18)"/><path d="m1266.82 795.152c-1.879 0-2.256.422-2.448-1.5l-3.619-26.5.424-23.744c.084-2.069 2.525-6.9 4.578-6.821 2.069.085 11.685 1.677 11.6 3.746l-2.348 8.953-1.837 1.362a2.631 2.631 0 0 0 -1.027 1.676l-2.325 13.78-.486 26.8c.205 2.059-.047 2.023-2.1 2.229z" fill="#fc7318" transform="translate(-863.398 -441.11)"/><path d="m1266.4 742.393a43.068 43.068 0 0 0 -1.613-5.394c-1.783 1.058-3.54 4.787-3.611 6.536l-.424 23.743 3.619 26.5c.163 1.629.459 1.578 1.688 1.523 1.908-11.253-4.393-22.888-2.736-34.3.911-6.267 4.209-12.373 3.077-18.608z" fill="#fd8f46" opacity=".3" transform="translate(-863.398 -441.24)"/><path d="m1260.473 701.968.685 5.06a55.758 55.758 0 0 1 .237 12.954l-.922 9.359c4.63 2.673 16.425 1.1 18.518-3.819l-1.378-9.59a35.73 35.73 0 0 1 .092-10.771l1.286-7.976a6.888 6.888 0 0 0 -10.332-5.965l-2.972 1.716a10.43 10.43 0 0 0 -5.214 9.032z" fill="#eff4fe" transform="translate(-863.311 -426.61)"/><path d="m401.959 255.728h6.087v12.117h-6.087z" fill="#e7ad99"/><path d="m1266.032 692.807s6.245 2 6.349-3.013a2.264 2.264 0 0 1 1.751-.311c1.2.168 2.078 7-10.389 5.41z" fill="#fc7318" transform="translate(-864.335 -426.347)"/><path d="m1262.352 676.467v6.93a2.125 2.125 0 0 0 2.617 2.067l3.644-.867a3.31 3.31 0 0 0 2.364-2.144l1.931-5.61a.843.843 0 0 0 -.146-.81 6.228 6.228 0 0 0 -6.718-1.973l-2.534.817a1.669 1.669 0 0 0 -1.158 1.59z" fill="#e7ad99" transform="translate(-863.899 -421.434)"/><path d="m1273.956 673.822a5.436 5.436 0 0 0 -1.4-2.905 5.842 5.842 0 0 0 -1.553-.893l-2.9-1.288a13.579 13.579 0 0 0 -2.375-.883 6.8 6.8 0 0 0 -3.733.185 3.659 3.659 0 0 0 -1.116.575c-2.157 1.727-.88 4.273 1.133 5.236a5.029 5.029 0 0 1 1.251.688 2.928 2.928 0 0 1 .758 2.2c0 .81-.055 1.69-.13 2.5a1.4 1.4 0 0 1 -.189.672c-.837 1.218-1.176-.876-1.82-.9-.39-.016-.606.439-.7.817a3.884 3.884 0 0 0 .015 2.572 2.708 2.708 0 0 0 2.138 1.452 4.437 4.437 0 0 0 2.594-.575 1.538 1.538 0 0 0 .756-.7.886.886 0 0 0 -.228-.974c-.3-.268-.527-.311-.712-.679a6.764 6.764 0 0 1 -.447-1.341 3.744 3.744 0 0 1 -.131-.777 2.913 2.913 0 0 1 .658-1.819c.381-.505 1.281-.673 1.6-.126a1.359 1.359 0 0 1 .139.617c.1 1.744-.373 3.1.589 4.7a2.075 2.075 0 0 0 .712.781 1.94 1.94 0 0 0 1.685-.074 4.794 4.794 0 0 0 2.174-1.9 9.555 9.555 0 0 0 .809-1.928 10.139 10.139 0 0 0 .714-3.341 8.853 8.853 0 0 0 -.291-1.892z" fill="#151617" transform="translate(-863.087 -419.528)"/><path d="m1265.376 714.855a17.685 17.685 0 0 0 -1.408-14.7 3.8 3.8 0 0 0 -1.572-1.644 10.424 10.424 0 0 0 -1.923 6.034l.685 5.06a55.758 55.758 0 0 1 .237 12.954l-.922 9.359a12.861 12.861 0 0 0 6.072 1.291 15.088 15.088 0 0 0 -.231-2.869c-.692-3.813-3.026-7.455-2.368-11.275a25.961 25.961 0 0 1 1.43-4.21z" fill="#5b8bca" opacity=".5" transform="translate(-863.311 -429.185)"/><path d="m1240.29 708.483a.705.705 0 1 0 1.393-.19l-.357-2.619a.705.705 0 1 0 -1.393.19z" fill="#e7ad99" transform="translate(-856.875 -431.22)"/><path d="m1236.485 706.467a.705.705 0 1 0 .874-1.1l-4.537-3.553a.705.705 0 1 0 -.874 1.1z" fill="#e7ad99" transform="translate(-854.282 -430.165)"/><path d="m1248.09 718.043-10.1-7.439-3.973-2.089a2.812 2.812 0 0 1 3.189-4.632l2.6 2.414 8.744 5.4 4.071-11.569a2.812 2.812 0 0 1 5.3 1.866l-5.14 14.608a3.056 3.056 0 0 1 -4.691 1.441z" fill="#e7ad99" transform="translate(-854.644 -429.102)"/><path d="m1255.433 718.154a2.178 2.178 0 0 1 -3.29 1.072l-9.712-6.686c-1.421-.978 2.122-6.124 3.543-5.146l4.413 3.038a.853.853 0 0 0 1.287-.419l3.521-10.008a3.215 3.215 0 0 1 3.735-2.124 3.125 3.125 0 0 1 2.2 4.071z" fill="#eff4fe" transform="translate(-857.557 -428.961)"/><path d="m808.584 853.56-1.274 3.083.827 1.642h3.621l2.609-1.131-1.3-3.349-1.312-.586z" fill="#e7ad99" transform="translate(-721.382 -477.639)"/><path d="m807.258 856.506a.415.415 0 0 0 -.68.214 13.8 13.8 0 0 0 -.47 3.374v.365a1.531 1.531 0 0 0 1.528 1.541h.181a4.988 4.988 0 0 0 1.981-.409c1.81-.783 5.744-2.453 7.379-2.9a3.317 3.317 0 0 0 1.082-.52c.993-.714 2.86-2.187 2.86-3.162a4.377 4.377 0 0 0 .1-1.01 1.6 1.6 0 0 0 -1.87-1.518l-6.659 1.084s1.022 2.252-.24 2.887c0 0-4.264 1.377-4.437.717z" fill="#326ebd" transform="translate(-721.002 -477.403)"/><path d="m821.12 854.645c0 .975-1.867 2.448-2.86 3.162a3.317 3.317 0 0 1 -1.082.52c-1.635.442-5.569 2.113-7.379 2.9a4.987 4.987 0 0 1 -1.981.409h-.181a1.531 1.531 0 0 1 -1.531-1.54v-.01a3.855 3.855 0 0 0 0 .58v.365a1.531 1.531 0 0 0 1.531 1.54h.181a4.988 4.988 0 0 0 1.981-.409c1.81-.783 5.745-2.453 7.379-2.9a3.317 3.317 0 0 0 1.082-.52c.993-.714 2.86-2.187 2.86-3.162a4.378 4.378 0 0 0 .1-1.01 1.5 1.5 0 0 0 -.036-.291c-.03.221-.064.366-.064.366z" fill="#eaedff" transform="translate(-721.002 -477.972)"/><path d="m816.792 857.575-.447 2.64v2.085h3.621l3.986-1.029-1.8-3-2.187-1.034z" fill="#e7ad99" transform="translate(-724.212 -478.897)"/><path d="m816.362 861.175a.414.414 0 0 0 -.679.214 13.792 13.792 0 0 0 -.47 3.374v.365a1.53 1.53 0 0 0 1.53 1.541h.182a4.977 4.977 0 0 0 1.982-.409c1.81-.782 5.744-2.453 7.379-2.895a3.33 3.33 0 0 0 1.082-.52c.992-.714 2.86-2.187 2.86-3.162a4.381 4.381 0 0 0 .1-1.01 1.6 1.6 0 0 0 -1.87-1.517l-6.659 1.084s1.021 2.252-.24 2.887c0 0-4.264 1.377-4.437.717z" fill="#326ebd" transform="translate(-723.853 -478.865)"/><path d="m830.225 859.314c0 .975-1.867 2.448-2.86 3.162a3.32 3.32 0 0 1 -1.082.52c-1.635.442-5.569 2.113-7.379 2.895a4.976 4.976 0 0 1 -1.982.41h-.182a1.53 1.53 0 0 1 -1.53-1.54v-.01a3.848 3.848 0 0 0 0 .58v.365a1.53 1.53 0 0 0 1.53 1.541h.182a4.978 4.978 0 0 0 1.982-.409c1.81-.782 5.744-2.453 7.379-2.895a3.33 3.33 0 0 0 1.082-.52c.992-.714 2.86-2.187 2.86-3.162a4.381 4.381 0 0 0 .1-1.01 1.494 1.494 0 0 0 -.036-.291c-.03.219-.064.364-.064.364z" fill="#eaedff" transform="translate(-723.854 -479.434)"/><path d="m809.932 830.63h-.082c-1.481-.045-2.049-.685-2-2.166l-.216-12.213a26.789 26.789 0 0 1 .889-7.337l.243-2.619-.508-9.408a15.82 15.82 0 0 0 -.942-4.917l-.252-.7c-.782-2.155-.508-4.428-.513-6.72l.339-5.689a2.455 2.455 0 0 1 2.174-2.861c1.475-.093 8.406 1.051 8.488 2.529l-1.841 27.891-3.4 22.2c-.041 1.457-.935 2.01-2.379 2.01z" fill="#fc7318" transform="translate(-721.129 -453.454)"/><path d="m819.034 781.664a3.862 3.862 0 0 0 -1.331-.207c-1.479.082-1.056 2.916-.974 4.4l-5.047 4.687c1.4 3.706 1.793 10.449 1.843 12.128l.283 9.408-.693 2.618a26.8 26.8 0 0 0 -.889 7.338l.181 10.22a1.8 1.8 0 0 0 1.527-1.918l2.51-22.265z" fill="#bd5612" opacity=".3" transform="translate(-722.751 -455.163)"/><path d="m817.111 836.56h-.082c-1.481-.044-2.049-.685-2-2.165l-.216-12.213a26.779 26.779 0 0 1 .89-7.338l.693-2.618-.283-9.409a15.823 15.823 0 0 0 -.941-4.917l-.253-.7c-.782-2.154-3.423-4.085-3.409-7.893l-.012-5.724c-.082-1.479 3.271-1.571 4.75-1.652s8.025 1.035 8.108 2.514l.777 4.281a62.827 62.827 0 0 1 -1.281 15.612l-1.094 8.295-3.26 21.92c-.05 1.454-.943 2.007-2.387 2.007z" fill="#fc7318" transform="translate(-722.692 -455.311)"/><path d="m827.106 784.646c-.049-.878-2.379-1.632-4.572-2.081a24.911 24.911 0 0 0 -.63 2.852c-.86 5.7 1.165 11.378 2 17.078a41.535 41.535 0 0 1 -.418 14.351c-.6 2.9-1.5 5.722-2.139 8.611a47.411 47.411 0 0 0 -1.006 7.088 14.69 14.69 0 0 0 .237 4.159 1.817 1.817 0 0 0 1.674-1.951l3.26-21.92 1.094-8.295a62.824 62.824 0 0 0 1.281-15.612z" fill="#fd8f46" opacity=".3" transform="translate(-725.448 -455.511)"/><path d="m807.562 783.472c-.275.707-.518 1.332-.518 1.332a1.508 1.508 0 0 0 .451.428q.066.044.138.09a11.685 11.685 0 0 0 2.1.94l.271.1c.367.126.757.252 1.166.376q.306.093.626.184c.745.212 1.536.413 2.345.6q.52.119 1.047.229.35.073.7.14.527.1 1.047.19c.81.137 1.6.248 2.348.326.427.045.837.078 1.227.1.2.01.385.018.569.022.275.007.538.005.785 0 .165-.006.323-.016.473-.029a3.444 3.444 0 0 0 1.389-.348l-.346-1.652c-2.886.964-13.248-1.351-15.818-3.028z" fill="#02126a" transform="translate(-721.298 -455.795)"/><path d="m818.8 753.142a7.126 7.126 0 0 1 -2.078-.313 6.907 6.907 0 0 1 -4.885-5.785l-.967-7.492a2.4 2.4 0 1 1 4.761-.614l.966 7.492a2.183 2.183 0 0 0 3.8 1.162l6.945-7.9a2.4 2.4 0 1 1 3.6 3.17l-6.945 7.9a6.9 6.9 0 0 1 -5.197 2.38z" fill="#e7ad99" transform="translate(-722.492 -441.192)"/><path d="m838.68 741.229a2.9 2.9 0 1 1 -2.9-2.9 2.9 2.9 0 0 1 2.9 2.9z" fill="#e7ad99" transform="translate(-729.388 -441.655)"/><path d="m848.913 741.132-11.227 11.437a2.061 2.061 0 0 1 -1.99.552l-9.588-2.479a.569.569 0 0 1 -.264-.949l11.294-11.544a2.064 2.064 0 0 1 2.018-.548l9.919 2.2s.143 1.02-.162 1.331z" fill="#e6eef7" transform="translate(-727.136 -441.405)"/><path d="m848.913 739.777-11.227 11.437a2.063 2.063 0 0 1 -1.99.552l-9.588-2.48a.569.569 0 0 1 -.264-.949l11.294-11.543a2.065 2.065 0 0 1 2.018-.549l9.5 2.584a.569.569 0 0 1 .257.948z" fill="#fff" transform="translate(-727.136 -440.981)"/><path d="m848.535 740.253-10.542 10.74a1.937 1.937 0 0 1 -1.869.519l-9-2.329a.535.535 0 0 1 -.249-.891l10.607-10.841a1.939 1.939 0 0 1 1.894-.515l8.921 2.426a.535.535 0 0 1 .238.891z" fill="#fff" transform="translate(-727.461 -441.199)"/><path d="m845.9 739.846-3.9 3.971a.716.716 0 0 1 -.691.192l-3.328-.861a.2.2 0 0 1 -.092-.33l3.922-4.008a.717.717 0 0 1 .7-.19l3.3.9a.2.2 0 0 1 .089.326z" fill="#fc7318" transform="translate(-730.941 -441.74)"/><path d="m841.106 746.81-.7.706-4.06-1.05.726-.751z" fill="#326ebd" transform="translate(-730.477 -443.969)"/><path d="m843.736 749.612-.7.706-8.258-2.169.726-.751z" fill="#326ebd" transform="translate(-729.986 -444.497)"/><path d="m842.248 751.494-.7.706-8.258-2.169.726-.752z" fill="#326ebd" transform="translate(-729.52 -445.086)"/><path d="m840.76 753.376-.7.706-8.258-2.169.726-.751z" fill="#326ebd" transform="translate(-729.054 -445.675)"/><path d="m852.707 741.568-3.9 3.97a.717.717 0 0 1 -.692.192l-3.328-.861a.2.2 0 0 1 -.092-.33l3.922-4.008a.718.718 0 0 1 .7-.19l3.3.9a.2.2 0 0 1 .09.327z" fill="#feb423" transform="translate(-733.074 -442.279)"/><path d="m834.188 743.1.523-.595a1.1 1.1 0 0 1 1.647 1.448l-.635.722z" fill="#e7ad99" transform="translate(-729.8 -442.848)"/><path d="m814.3 736.556 1.405.811c4.594 2.652 7.424 5.775 7.424 11.08l.6 1.419a8.316 8.316 0 0 1 .282 5.693l-.881 2.845v17.761c-4.206 2.943-15.524-1.159-17.784-5.768l.676-4.086a32.24 32.24 0 0 0 .38-6.546l-.671-18.048a5.716 5.716 0 0 1 8.569-5.161z" fill="#eff4fe" transform="translate(-720.765 -440.858)"/><path d="m814.069 736.556 1.405.811q.59.341 1.141.694a13.744 13.744 0 0 1 5.157 5.274 11.184 11.184 0 0 1 1.126 5.113v13.139l1.124 14.448c-4.206 2.944-17.146.121-19.406-4.488l1.174-5.234a32.249 32.249 0 0 0 .38-6.546l-.671-18.048a5.716 5.716 0 0 1 8.57-5.163z" fill="#eff4fe" transform="translate(-720.538 -440.858)"/><path d="m816.367 731.059a3.9 3.9 0 0 1 -3.895-3.9v-9.2h11.341v5.65a7.446 7.446 0 0 1 -7.446 7.45z" fill="#e7ad99" transform="translate(-722.999 -435.277)"/><path d="m816.908 737.481a2.371 2.371 0 0 1 -2.371-2.371v-6.3a.814.814 0 0 1 .814-.815h3.114a.814.814 0 0 1 .814.815v6.3a2.371 2.371 0 0 1 -2.371 2.371z" fill="#e7ad99" transform="translate(-723.646 -438.42)"/><path d="m828.369 761.048a2.121 2.121 0 0 1 -1.353-1.745l-.967-7.491a2.4 2.4 0 0 0 -2.687-2.073c-1.315.17-1.379 1.549-1.21 2.865l.1 7.314a6.907 6.907 0 0 0 4.885 5.785 7.181 7.181 0 0 0 1.228.249z" fill="#326ebd" opacity=".3" transform="translate(-726.009 -445.223)"/><path d="m828.847 764.1a7.1 7.1 0 0 1 -2.078-.313 6.905 6.905 0 0 1 -4.885-5.787l-.967-7.492a2.4 2.4 0 1 1 4.76-.614l.967 7.491a2.183 2.183 0 0 0 3.8 1.162l6.946-7.9a2.4 2.4 0 1 1 3.6 3.169l-6.945 7.9a6.9 6.9 0 0 1 -5.198 2.384z" fill="#e7ad99" transform="translate(-725.637 -444.623)"/><path d="m825.745 749.289a2.672 2.672 0 1 0 -5.3.684l1.076 8.341 5.3-.684z" fill="#eff4fe" transform="translate(-725.489 -444.359)"/><path d="m843.25 752.878 1.145-1.3a2.4 2.4 0 1 1 3.6 3.169l-1.39 1.582z" fill="#e7ad99" transform="translate(-732.638 -445.549)"/><path d="m848.723 752.184a2.9 2.9 0 1 1 -2.9-2.9 2.9 2.9 0 0 1 2.9 2.9z" fill="#e7ad99" transform="translate(-732.533 -445.086)"/><path d="m823.408 713.9c-1.959-2.32-6.542-1.63-9.082-.817-3.509 1.124-5.893 3.424-5.733 7.389a9.485 9.485 0 0 0 2.569 6.113 3.616 3.616 0 0 0 5.665-.7c.614-.863.973-1.976 1.881-2.52.716-.429 1.751-.5 2.086-1.266a2.453 2.453 0 0 0 -.291-1.818c-.233-.587-.336-1.372.17-1.75s1.23-.164 1.737-.577a12.237 12.237 0 0 0 1.1-1.221 1.94 1.94 0 0 0 -.102-2.833z" fill="#feb423" transform="translate(-721.781 -433.509)"/><path d="m809.025 723.855-.464-.2a4.7 4.7 0 0 0 -2.979-3.094 5.8 5.8 0 0 0 -6.68 2.826c-1.067 2.151.18 5.8 1.163 7.845 1.822 3.788 5.67 7.209 3.587 11.751-.207.453-.463.993-.2 1.413.641 1.009 2.115-2.764 2.294-3.126.922-1.868 1.819-3.665 1.591-5.823a44.368 44.368 0 0 0 -1.107-4.3 4.278 4.278 0 0 1 .957-4.126c.591-.51 1.41-.776 1.83-1.435a1.655 1.655 0 0 0 .008-1.731z" fill="#feb423" transform="translate(-718.62 -436.008)"/><path d="m811.278 725.955c-.529.656-1.268-.145-1.965.332-1.32.906-2.589 2.616-2.439 4.21s.824 3.426.814 5.028c-.013 1.979-.334 6.047-1.328 7.639.092 1.012.019.426-.5 1.553-.207.453-.463.993-.2 1.413.641 1.009 2.115-2.764 2.294-3.126.922-1.868 1.819-3.665 1.591-5.823a44.369 44.369 0 0 0 -1.106-4.3 4.278 4.278 0 0 1 .957-4.126c.591-.51 1.41-.776 1.83-1.435a1.646 1.646 0 0 0 .114-1.479c-.02.037-.033.08-.062.114z" fill="#bf871a" opacity=".3" transform="translate(-720.832 -437.745)"/><path d="m813.58 725.11-.119.069c-.367.209-.44-.172-.617-.556a10.862 10.862 0 0 0 -.894-1.569c-.239-.348-.53-.605-.163-.814l.119-.068a.706.706 0 0 1 .923.19 10.843 10.843 0 0 1 1.059 1.857.706.706 0 0 1 -.308.891z" fill="#fc7318" transform="translate(-722.729 -436.566)"/><path d="m1315.282 388.2a1.984 1.984 0 0 0 1.937-.054l8.421-2.163a1.7 1.7 0 0 0 1.278-1.624l.177-12.347a1.987 1.987 0 1 0 -3.928-.6l-.468 10.218a1.58 1.58 0 0 1 -1.172 1.454l-5.7 1.509a1.943 1.943 0 0 0 -1.609 1.788 1.909 1.909 0 0 0 .162.858 1.988 1.988 0 0 0 .902.961z" fill="#eff4fe" transform="translate(-880.144 -326.211)"/><path d="m1334.317 467.172.556 1.619.109 1.37a1.616 1.616 0 0 1 -.717 1.473l-1.249.829a1.824 1.824 0 0 1 -.861.3l-.641.05-.694.482-.281.46a2.154 2.154 0 0 1 -.988.858 20.582 20.582 0 0 1 -5.4 1.556s-1.65-.182-1.591-1.239l5.054-4.44 1.663-2.918z" fill="#212121" transform="translate(-882.755 -356.731)"/><path d="m1336.957 404.888-.9 23.93.131 18.159a1.608 1.608 0 0 1 -1.516 1.617l-2.01.116a1.608 1.608 0 0 1 -1.7-1.493l-2.451-44.145z" fill="#fc7318" transform="translate(-884.622 -336.655)"/><path d="m1333.753 421.991c-.111-2.058-.095-4.125-.078-6.185q.039-4.618.078-9.238c0-.505-1.04-2.1-.773-2.53 0 0 3.334.681 4.2.8a.891.891 0 0 1 .936 1.087c.291 7.7-.379 15.495-.674 23.2l.131 18.159a1.608 1.608 0 0 1 -1.516 1.617l-.622.036c-.188-.874-.38-1.748-.5-2.634-.646-4.807.908-9.672.549-14.509-.186-2.508-1.267-4.931-1.547-7.483-.082-.775-.137-1.547-.184-2.32z" fill="#bd5612" transform="translate(-886.007 -336.957)"/><path d="m1328.515 392.628 12.024 2.056-1.98-24.957-10.044.637z" fill="#eff4fe" transform="translate(-884.622 -326.212)"/><path d="m1342.559 404.488c-.856 1.231-14.044-2.056-14.044-2.056v-1.4s10.429 2.968 14.044 1.619c.341-.132.211 1.535 0 1.837z" fill="#326ebd" transform="translate(-884.622 -336.015)"/><path d="m1335.568 403.93-2.568-.553v-1.445l2.568.577z" fill="#fff" transform="translate(-886.027 -336.298)"/><path d="m1334.52 370.368 1.247-.39 3.314.118 1.358-2.392-.215-4.436h-5.7z" fill="#e7ad99" transform="translate(-886.503 -324.189)"/><path d="m1336.189 375.766.782-1.171-1.094-1.557h-.192l-.814 1.039.422 1.377z" fill="#fc7318" transform="translate(-886.613 -327.249)"/><path d="m1335.493 376.868-.273 15.8-1.55 1.874-1.02-2.347 1.948-15.635z" fill="#fc7318" transform="translate(-885.917 -328.351)"/><path d="m1340.962 368.336s-1.937 3-4.626 3.23l1.354 1.929s3.778-2.183 3.407-4.661z" fill="#5b8bca" transform="translate(-887.072 -325.776)"/><path d="m1343.825 371.181-2.4-1.453a5.229 5.229 0 0 1 -.861 2.7l-.693 1.126a30.265 30.265 0 0 0 -1.938 9.251l-.591 9.71 8.149.781c.981-1.513-.839-6.091-.711-7.158l2.025-9.777a5.984 5.984 0 0 0 -2.98-5.18z" fill="#eff4fe" transform="translate(-887.386 -326.212)"/><path d="m1332.9 367.695a3.768 3.768 0 0 0 -5.67 3.253v19.224l2.581.874-.223-7.29a30.467 30.467 0 0 1 1.5-9.211l1.223-3.747z" fill="#eff4fe" transform="translate(-884.22 -325.412)"/><path d="m1335.184 368.8 1.278-.468-1.49 1.593z" fill="#231f20" opacity=".3" transform="translate(-886.644 -325.776)"/><path d="m1314.767 392.825a1.6 1.6 0 0 0 -1.8-.883l-1.848.419a1.268 1.268 0 0 0 -1.015.337l-3.168.524c-.949.242 1.365 3.064 2.567 2.721l2.584-.455 1.648-.442a1.6 1.6 0 0 0 1.035-2.222z" fill="#6e8fe4" transform="translate(-877.792 -333.157)"/><path d="m1317.544 392.787a1.762 1.762 0 0 0 -1.987-.973l.321-.107a1.763 1.763 0 0 1 .846 3.422l-.081.022a1.762 1.762 0 0 0 .901-2.364z" fill="#becaf7" transform="translate(-880.564 -333.082)"/><rect fill="#6e8fe4" height="1.022" rx=".511" transform="matrix(-.69332637 .72062372 -.72062372 -.69332637 435.798 61.776)" width="2.728"/><path d="m1332.963 393.523a1.985 1.985 0 0 0 1.937-.054l8.421-2.163a1.7 1.7 0 0 0 1.277-1.624l.176-12.347a1.987 1.987 0 1 0 -3.929-.6l-.468 10.218a1.579 1.579 0 0 1 -1.172 1.454l-5.7 1.51a1.943 1.943 0 0 0 -1.609 1.788 1.912 1.912 0 0 0 .162.858 1.989 1.989 0 0 0 .905.96z" fill="#eff4fe" transform="translate(-885.681 -327.877)"/><path d="m1335.226 398.106a1.763 1.763 0 0 0 -1.987-.973l.321-.106a1.763 1.763 0 0 1 .846 3.422l-.081.022a1.762 1.762 0 0 0 .901-2.365z" fill="#becaf7" transform="translate(-886.101 -334.748)"/><path d="m1335.076 371.555-1.605 1.657s-2.533-3.273-.105-4.817c.282-.179 1.153-.134.985.4-.473 1.497.027 2.649.725 2.76z" fill="#5b8bca" transform="translate(-885.812 -325.765)"/><path d="m1332.335 355.889v7.023a1.063 1.063 0 0 0 .533.922l.016.009a2.347 2.347 0 0 0 1.84.215l2.938-.875a1.976 1.976 0 0 0 1.31-1.268l1.492-4.476a1.448 1.448 0 0 0 -.187-1.288l-1.1-1.571a2.541 2.541 0 0 0 -2.545-1.042l-2.765.511a1.872 1.872 0 0 0 -1.532 1.84z" fill="#e7ad99" transform="translate(-885.818 -321.128)"/><path d="m1342.837 366.4.014-.018c.018.041.033.083.053.124z" fill="#191c3c" transform="translate(-889.108 -325.164)"/><path d="m1331.349 353.248a3.606 3.606 0 0 1 1.611-1.038 11.721 11.721 0 0 1 2.956-1.359 5.334 5.334 0 0 1 1.449.014 4.872 4.872 0 0 1 3.141 1.263 4.069 4.069 0 0 1 .828 3.1c-.1 1.1-.431 2.159-.593 3.249a5.316 5.316 0 0 1 -.225 1.111 4.235 4.235 0 0 1 -.674 1.07l-.658.844a2.954 2.954 0 0 1 -.03-2.271 3.1 3.1 0 0 0 .279-.775.62.62 0 0 0 -.348-.679.711.711 0 0 0 -.621.172 1.857 1.857 0 0 0 -.707 1.229l-.617-.026a6.7 6.7 0 0 0 .055-2.087 2.262 2.262 0 0 0 -1.144-1.664 3.727 3.727 0 0 0 -2.25-.015 2.643 2.643 0 0 1 -2.194-.3 1.45 1.45 0 0 1 -.258-1.838z" fill="#191c3c" transform="translate(-885.442 -320.286)"/><path d="m1339.488 355.73a2.5 2.5 0 0 1 .554-.093 5.993 5.993 0 0 0 1.944-.7 1.359 1.359 0 0 1 .9-.217.9.9 0 0 1 .609.692c.051.211.042 1.62-.411.967a.5.5 0 0 0 -.216-.213c-.2-.073-.387.158-.439.367a.283.283 0 0 1 -.047.117.187.187 0 0 1 -.238.012c-.161-.1-.215-.318-.374-.42a.471.471 0 0 0 -.606.182 1.37 1.37 0 0 0 -.171.672.539.539 0 0 0 -.807-.361 1.036 1.036 0 0 0 -.327.629 1.773 1.773 0 0 1 -.28-.7.723.723 0 0 0 -.468-.551.555.555 0 0 1 .377-.383z" fill="#474963" transform="translate(-887.941 -321.505)"/><path d="m1334.692 354.52c.058-.047.143-.013.209.02a2.425 2.425 0 0 0 2.587-.321.2.2 0 0 0 .077-.1.223.223 0 0 0 -.03-.143l-.324-.7a1.2 1.2 0 0 0 .887.287l.8.034a.765.765 0 0 0 -.053-.643 1.541 1.541 0 0 1 1.119.337 1.511 1.511 0 0 0 -.36-1 3.425 3.425 0 0 1 1.124.227c.273.123.864.4.775.771-.077.323-.643.4-.907.5-.438.165-.88.323-1.328.458a9.854 9.854 0 0 0 -1.168.388 7.042 7.042 0 0 1 -1.633.72 2.608 2.608 0 0 1 -1.245-.147c-.272-.092-.58-.272-.576-.558a.151.151 0 0 1 .046-.13z" fill="#474963" transform="translate(-886.543 -320.748)"/><path d="m1342.474 468.941.556 1.62.108 1.371a1.613 1.613 0 0 1 -.716 1.472l-1.249.83a1.818 1.818 0 0 1 -.861.3l-.641.051-.694.481-.282.461a2.143 2.143 0 0 1 -.988.857 20.541 20.541 0 0 1 -5.4 1.556s-1.65-.182-1.591-1.24l5.055-4.439 1.663-2.917z" fill="#212121" transform="translate(-885.31 -357.285)"/><path d="m1343.854 405.406-.9 24.906.131 18.158a1.608 1.608 0 0 1 -1.515 1.617l-2.011.116a1.608 1.608 0 0 1 -1.7-1.493l-1.032-18.593-2.234-16.1-1.948-10.052z" fill="#fc7318" transform="translate(-885.917 -336.934)"/><path d="m1283.052 374.1 16.7 9.639a4.028 4.028 0 0 1 1.032.853l1.274 1.474a6.962 6.962 0 0 1 1.694 4.546l.035 47.558a21.883 21.883 0 0 1 -10.8 18.868l-14.479 8.506a4.253 4.253 0 0 1 -2.014.584 2.2 2.2 0 0 0 -1.78 1.014l-.027.042a4.768 4.768 0 0 1 -1.6 1.548l-.32.188a3.276 3.276 0 0 1 -1.911.442l-.24-.019a1.99 1.99 0 0 0 -1.977 1.192l-.078.181a3.028 3.028 0 0 1 -1.243 1.405l-.995.584-18.733-10.816 1.819-1.05a3.816 3.816 0 0 0 1.141-1.011 2.37 2.37 0 0 1 1.939-.944 1.058 1.058 0 0 0 .552-.142l.969-.559a5.084 5.084 0 0 0 1.25-1.017l.292-.328a2.369 2.369 0 0 1 1.49-.775 3.627 3.627 0 0 0 1.389-.46l15.667-9.029a21.882 21.882 0 0 0 10.956-18.959v-43.6a15.412 15.412 0 0 0 -1.479-6.588l-1.253-2.65a.523.523 0 0 1 .73-.677z" fill="#eff4fe" transform="translate(-859.275 -327.559)"/><path d="m1312.164 390.613a6.962 6.962 0 0 0 -1.694-4.546l-1.274-1.474a4.028 4.028 0 0 0 -1.032-.853l-16.7-9.639a.523.523 0 0 0 -.273-.071l16.616 9.593a4.022 4.022 0 0 1 1.031.852l1.274 1.475a6.96 6.96 0 0 1 1.695 4.546l.035 47.558a21.884 21.884 0 0 1 -10.8 18.868l-14.478 8.506a4.252 4.252 0 0 1 -2.015.584 2.2 2.2 0 0 0 -1.779 1.014l-.027.042a4.766 4.766 0 0 1 -1.6 1.548l-.32.188a3.278 3.278 0 0 1 -1.911.442l-.239-.019a1.989 1.989 0 0 0 -1.977 1.192l-.078.181a3.022 3.022 0 0 1 -1.243 1.405l-.92.54.279.161.995-.585a3.026 3.026 0 0 0 1.243-1.405l.078-.181a1.989 1.989 0 0 1 1.977-1.192l.24.019a3.277 3.277 0 0 0 1.911-.442l.32-.188a4.768 4.768 0 0 0 1.6-1.548l.027-.042a2.2 2.2 0 0 1 1.779-1.014 4.253 4.253 0 0 0 2.015-.584l14.478-8.506a21.883 21.883 0 0 0 10.8-18.868z" fill="#326ebd" transform="translate(-867.691 -327.559)"/><path d="m1332.448 398.144a1.6 1.6 0 0 0 -1.8-.883l-1.847.419a1.266 1.266 0 0 0 -1.014.337l-3.169.525c-.949.242 1.365 3.063 2.567 2.72l2.584-.455 1.648-.442a1.6 1.6 0 0 0 1.035-2.222z" fill="#e7ad99" transform="translate(-883.33 -334.823)"/><path d="m1329.411 398.355 1.755.8a.394.394 0 0 0 .52-.2l.1-.215a.393.393 0 0 0 -.2-.52l-2.173-.975z" fill="#e7ad99" transform="translate(-884.903 -334.83)"/><path d="m1322.7 405.124a.355.355 0 0 1 -.168-.043l-6.737-3.66a.352.352 0 1 1 .336-.619l6.737 3.66a.353.353 0 0 1 -.168.663z" fill="#adc5e5" transform="translate(-880.58 -335.931)"/><path d="m1320.982 397.773a.347.347 0 0 1 -.168-.043l-4.281-2.29a.352.352 0 0 1 .337-.619l4.281 2.29a.353.353 0 0 1 -.168.663z" fill="#adc5e5" transform="translate(-880.813 -334.057)"/><path d="m1322.7 412.426a.354.354 0 0 1 -.168-.043l-6.737-3.66a.352.352 0 1 1 .336-.62l6.737 3.66a.352.352 0 0 1 -.168.662z" fill="#adc5e5" transform="translate(-880.58 -338.218)"/><path d="m1318.807 417.377a.357.357 0 0 1 -.176-.047l-15.266-8.814a.353.353 0 0 1 .353-.611l15.266 8.814a.353.353 0 0 1 -.177.658z" fill="#adc5e5" transform="translate(-876.69 -338.155)"/><path d="m1309.7 419.421a.359.359 0 0 1 -.177-.047l-6.16-3.557a.353.353 0 0 1 .353-.611l6.161 3.557a.353.353 0 0 1 -.177.658z" fill="#adc5e5" transform="translate(-876.69 -340.441)"/><path d="m1318.807 446.583a.351.351 0 0 1 -.176-.047l-15.266-8.814a.353.353 0 0 1 .353-.611l15.266 8.814a.353.353 0 0 1 -.177.658z" fill="#adc5e5" transform="translate(-876.69 -347.302)"/><path d="m1318.807 453.884a.35.35 0 0 1 -.176-.047l-15.266-8.814a.352.352 0 1 1 .353-.61l15.266 8.813a.353.353 0 0 1 -.177.658z" fill="#adc5e5" transform="translate(-876.69 -349.588)"/><path d="m1312.07 457.3a.349.349 0 0 1 -.176-.047l-8.529-4.924a.353.353 0 0 1 .353-.611l8.529 4.924a.353.353 0 0 1 -.177.658z" fill="#adc5e5" transform="translate(-876.69 -351.875)"/><path d="m1310.3 470.473a.349.349 0 0 1 -.176-.047l-8.524-4.926a.353.353 0 0 1 .353-.611l8.529 4.924a.353.353 0 0 1 -.176.658z" fill="#adc5e5" transform="translate(-876.136 -356.002)"/><path d="m1318 467.908a.349.349 0 0 1 -.18-.049l-14.461-8.6a.352.352 0 0 1 .361-.606l14.46 8.6a.352.352 0 0 1 -.18.655z" fill="#adc5e5" transform="translate(-876.69 -354.048)"/><path d="m1313.452 479.929a.35.35 0 0 1 -.176-.047l-14.621-8.442a.352.352 0 1 1 .352-.611l14.621 8.441a.353.353 0 0 1 -.176.658z" fill="#adc5e5" transform="translate(-875.216 -357.862)"/><path d="m1299.44 493.274a.349.349 0 0 1 -.176-.047l-15.264-8.814a.352.352 0 1 1 .352-.611l15.266 8.814a.353.353 0 0 1 -.176.658z" fill="#adc5e5" transform="translate(-870.625 -361.925)"/><path d="m1292.49 496.464a.35.35 0 0 1 -.177-.047l-15.266-8.814a.352.352 0 1 1 .352-.611l15.266 8.814a.353.353 0 0 1 -.177.658z" fill="#adc5e5" transform="translate(-868.448 -362.924)"/><path d="m1285.943 500.185a.349.349 0 0 1 -.176-.047l-15.266-8.813a.352.352 0 1 1 .352-.611l15.266 8.813a.353.353 0 0 1 -.177.658z" fill="#adc5e5" transform="translate(-866.398 -364.09)"/><path d="m1279.182 503.907a.346.346 0 0 1 -.176-.047l-15.266-8.814a.353.353 0 0 1 .353-.611l15.266 8.814a.353.353 0 0 1 -.176.658z" fill="#adc5e5" transform="translate(-864.28 -365.255)"/><path d="m1273.01 507.629a.356.356 0 0 1 -.176-.047l-15.266-8.814a.353.353 0 0 1 .353-.611l15.266 8.814a.353.353 0 0 1 -.177.658z" fill="#adc5e5" transform="translate(-862.347 -366.421)"/><path d="m1303.7 388.84v10.1l7.23 4.177v-10.1z" fill="#fec7a3" transform="translate(-876.851 -332.198)"/><path d="m1312.5 430.086v-5.869c-2.8-1.614-5.082-.293-5.082 2.935a11.276 11.276 0 0 0 5.082 8.8c2.784 1.607 5.062.3 5.082-2.893z" fill="#ffe1a7" transform="translate(-878.014 -343.062)"/><path d="m1292.933 475.861 14.089 8.2-5.871 4.255-14.835-8.636z" fill="#fec7a3" transform="translate(-871.406 -359.453)"/><path d="m789.657 491.581 9.727 9.176 3 4.172a1.924 1.924 0 0 0 2.785-2.655l-3.468-2.856-7.915-9.082 2.126-12a1.924 1.924 0 0 0 -3.788-.671z" fill="#e7ad99" transform="translate(-715.853 -359.519)"/><path d="m791.178 485.072a2.245 2.245 0 0 0 4.306-.4l1.17-6.422a2.244 2.244 0 0 0 -4.416-.8l-1.17 6.422a2.236 2.236 0 0 0 .11 1.2z" fill="#2e5266" transform="translate(-716.284 -359.373)"/><path d="m794.15 573.537-.14 2.012a1.617 1.617 0 0 0 .9 1.448l2.835 1.909a5.84 5.84 0 0 0 3.192.58l1.1-.111a.684.684 0 0 0 .514-.324.957.957 0 0 0 -.157-1.194l-5.353-4.321z" fill="#326ebd" transform="translate(-717.217 -390.044)"/><path d="m1.443 0a1.443 1.443 0 0 1 1.442 1.443v2.965a0 0 0 0 1 0 0h-2.885a0 0 0 0 1 0 0v-2.965a1.443 1.443 0 0 1 1.443-1.443z" fill="#e7ad99" transform="matrix(-1 0 0 -1 79.819 184.936)"/><path d="m795.11 551.172c1.179 0 1.212-.624 1.282-1.817l2.407-18.994-1.473-23.426c-.041-.3-.5-2.564-1.2-2.73-1.309-.311-1.177 1.9-1.657 1.609-1.83-1.124-3.444.933-3.224 2.56l-.486 3.391a16.528 16.528 0 0 0 .5 7l1.986 12.064-.22 4.773a7.975 7.975 0 0 0 -.05.9l-.3 12.759c-.072 1.237.344 1.783 1.582 1.856.043.004.809.055.853.055z" fill="#fc7318" transform="translate(-716.145 -368.319)"/><path d="m790.757 511.766.486-3.391c-.219-1.627 1.395-3.684 3.224-2.56.48.3.348-1.92 1.657-1.609.322.077.747.6 1.116 1.175-.127.361-.226.633-.42.514-1.918-1.179-3.611.979-3.381 2.685l-.51 3.558c-1.374 2.836-.173 4.957.525 7.338l2.083 12.652-.817 5.461a8.272 8.272 0 0 0 -.053.948l.277 12.626-.691-.044c-1.238-.073-1.654-.619-1.582-1.856l.3-12.759a7.975 7.975 0 0 1 .05-.9l.22-4.773-1.985-12.064a16.517 16.517 0 0 1 -.499-7.001z" fill="#bd5612" opacity=".3" transform="translate(-716.145 -368.32)"/><path d="m787.712 577.205 2.42 6.435v.317a1.372 1.372 0 0 1 -1.372 1.372h-1.407a1.977 1.977 0 0 1 -1.1-.332l-1.127-.751a2.393 2.393 0 0 1 -1.066-1.992l.765-5.048 2.7.47z" fill="#326ebd" transform="translate(-714.101 -391.192)"/><path d="m1.443 0a1.443 1.443 0 0 1 1.442 1.443v2.965a0 0 0 0 1 0 0h-2.885a0 0 0 0 1 0 0v-2.965a1.443 1.443 0 0 1 1.443-1.443z" fill="#e7ad99" transform="matrix(-1 0 0 -1 73.611 187.455)"/><path d="m786.241 553.873c1.179 0 1.212-.624 1.282-1.817l2.039-21.671.579-20.193c-.115-.856-3.806-1.225-4.543-1.677-1.83-1.124-3.444.934-3.224 2.561l-.486 3.391a16.512 16.512 0 0 0 .5 7l2.3 9.273-.857 7.564a7.788 7.788 0 0 0 -.051.9l.021 12.758c-.072 1.238.345 1.784 1.582 1.856.047.005.817.055.858.055z" fill="#fc7318" transform="translate(-713.367 -369.578)"/><path d="m790.4 475.216-5.792 3.391a4.1 4.1 0 0 0 -2.029 3.54l-.613 21.9c8.253 2.271 13.262-4.475 13.262-4.475l-.628-11.077a3.584 3.584 0 0 1 .665-2.078l.144-.2a2.87 2.87 0 0 0 .357-3.21l-1.589-3a10.554 10.554 0 0 1 -.383-2.823 2.265 2.265 0 0 0 -3.394-1.968z" fill="#eff4fe" transform="translate(-713.444 -359.154)"/><path d="m794.025 494.651-10.043-5.463.691 16.939 10.036 5.3z" fill="#fff" transform="translate(-714.076 -363.626)"/><path d="m793.441 494.288-9.61-6.192-.566 16.944 9.615 6.03z" fill="#f1f2f2" transform="translate(-713.851 -363.284)"/><path d="m793.076 494.8-9.811-5.868v16.953l9.811 5.706z" fill="#fff" transform="translate(-713.851 -363.545)"/><path d="m791.574 503.224a1.925 1.925 0 0 0 1.878-1.514 2 2 0 0 0 -1.45-2.288l-2.674-.127-8.6-3.111 4.006-11.9a1.922 1.922 0 0 0 -1.308-2.467 2 2 0 0 0 -2.372 1.342l-4.665 13.86a1.769 1.769 0 0 0 1.188 2.265l10.707 2.435 2.753 1.433a1.937 1.937 0 0 0 .537.072z" fill="#e7ad99" transform="translate(-711.67 -361.295)"/><path d="m784.5 489.7 1.775-5.468a2.245 2.245 0 0 0 -4.255-1.432l-1.775 5.468c-.398 1.178 3.935 2.373 4.255 1.432z" fill="#eff4fe" transform="translate(-712.896 -361.147)"/><path d="m807.212 511.078a.521.521 0 1 1 -.1-1.019l2.2-.225a.521.521 0 1 1 .1 1.019z" fill="#e7ad99" transform="translate(-721.143 -370.091)"/><path d="m795.614 507.56a.521.521 0 1 1 -.76-.687l1.479-1.637a.521.521 0 1 1 .76.687z" fill="#e7ad99" transform="translate(-717.425 -368.581)"/><path d="m794.011 475.018a12.856 12.856 0 0 0 .405-4.47 6.732 6.732 0 0 1 1.106-4.286c1.052.525 2.933.979 3.081 2.295.246 2.194-1.319 4.761-1.534 6.972a11.553 11.553 0 0 0 -3.058-.511z" fill="#326ebd" transform="translate(-717.217 -356.446)"/><path d="m796.1 467.554-.856 4.843a1.5 1.5 0 0 1 -1.828 1.2l-3.814-.922v-5.931a1.261 1.261 0 0 1 1.411-1.253l3.9.463a1.374 1.374 0 0 1 1.187 1.6z" fill="#e7ad99" transform="translate(-715.837 -356.2)"/><path d="m788.571 477.217 4.59 5.251.722-7.815-1.306-1.672h-3.3z" fill="#e7ad99" transform="translate(-715.513 -358.55)"/><path d="m784.939 462.874a8.75 8.75 0 0 1 1.1-1.374 3.928 3.928 0 0 1 3.074-1.051c2.092.151 6.773 2.457 5.971 5.245-.358 1.241-3.04.547-4.054.428-.8-.094-1.667-.585-1.729-1.384a14.121 14.121 0 0 0 -1.832 5.736 10.31 10.31 0 0 0 .964 4.224 4.811 4.811 0 0 1 .586 2.15c-2.315-.2-4.08-2.1-5.838-3.439a.933.933 0 0 1 -.438-1.032c.157-3.177.416-6.761 2.196-9.503z" fill="#326ebd" transform="translate(-713.686 -354.621)"/><path d="m794.975 477.067-2.536-.517 2.333 2.718z" fill="#a58877" opacity=".4" transform="translate(-716.724 -359.668)"/></svg>