<svg height="119.888" viewBox="0 0 119.889 119.888" width="119.889" xmlns="http://www.w3.org/2000/svg"><g fill="#ffc6c6" transform="translate(-165.111 -31.848)"><path d="m259.367 41.794q-.743-.6-1.5-1.172l-83.982 83.978q.574.757 1.173 1.5z" transform="translate(3.296 3.296)"/><path d="m241.634 33.793c-.7-.206-1.4-.4-2.1-.576l-73.053 73.053c.18.7.37 1.4.576 2.1z" transform="translate(.515 .514)"/><path d="m254.4 38.6q-.832-.516-1.677-1l-81.853 81.852q.485.846 1 1.678z" transform="translate(2.162 2.162)"/><path d="m248.524 35.914q-.929-.419-1.868-.806l-78.284 78.284q.386.941.806 1.868z" transform="translate(1.225 1.225)"/><path d="m233.5 32.357c-.794-.114-1.589-.209-2.385-.29l-65.785 65.786c.083.8.177 1.592.29 2.385z" transform="translate(.082 .082)"/><path d="m262.843 44.783c-.224-.224-.451-.442-.678-.66l-84.779 84.777c.22.226.437.454.66.677s.451.442.678.66l84.776-84.777c-.216-.225-.434-.454-.657-.677z" transform="translate(4.611 4.611)"/><path d="m223.744 31.848q-1.4.029-2.8.127l-55.7 55.7q-.1 1.4-.128 2.8z"/><path d="m166.165 78.2 45.3-45.3q-1.812.406-3.6.927l-40.774 40.773q-.52 1.788-.926 3.6z" transform="translate(.396 .396)"/><path d="m268.147 79.18q.095-1.4.127-2.8l-58.633 58.632q1.4-.031 2.8-.127z" transform="translate(16.726 16.726)"/><path d="m270.659 71.609c-.083-.8-.177-1.592-.29-2.385l-67.881 67.881c.792.114 1.587.209 2.385.29z" transform="translate(14.039 14.039)"/><path d="m192.341 37.865a60.4 60.4 0 0 0 -21.212 21.212z" transform="translate(2.26 2.26)"/><path d="m262.654 88.616q.52-1.789.926-3.6l-45.3 45.3q1.812-.409 3.6-.927z" transform="translate(19.971 19.97)"/><path d="m230.826 118.775a60.4 60.4 0 0 0 21.212-21.212z" transform="translate(24.684 24.684)"/><path d="m269.317 54.2q-.485-.844-1-1.677l-82.533 82.533q.832.514 1.677 1z" transform="translate(7.766 7.766)"/><path d="m266.831 49.589q-.574-.759-1.172-1.5l-84.31 84.31q.743.6 1.5 1.172z" transform="translate(6.099 6.099)"/><path d="m271.414 65.1c-.18-.7-.37-1.4-.576-2.1l-74.575 74.576c.7.206 1.4.395 2.1.576z" transform="translate(11.701 11.701)"/><path d="m270.89 59.341q-.388-.939-.807-1.867l-79.346 79.344c.619.279 1.242.55 1.868.807z" transform="translate(9.626 9.626)"/></g></svg>