<svg height="132" viewBox="0 0 119 132" width="119" xmlns="http://www.w3.org/2000/svg"><g fill="#bbb"><path d="m0 0h2v2h-2z"/><path d="m0 13h2v2h-2z"/><path d="m0 26h2v2h-2z"/><path d="m0 39h2v2h-2z"/><path d="m0 52h2v2h-2z"/><path d="m0 65h2v2h-2z"/><path d="m0 78h2v2h-2z"/><path d="m0 91h2v2h-2z"/><path d="m0 104h2v2h-2z"/><path d="m0 117h2v2h-2z"/><path d="m0 130h2v2h-2z"/><path d="m13 0h2v2h-2z"/><path d="m13 13h2v2h-2z"/><path d="m13 26h2v2h-2z"/><path d="m13 39h2v2h-2z"/><path d="m13 52h2v2h-2z"/><path d="m13 65h2v2h-2z"/><path d="m13 78h2v2h-2z"/><path d="m13 91h2v2h-2z"/><path d="m13 104h2v2h-2z"/><path d="m13 117h2v2h-2z"/><path d="m13 130h2v2h-2z"/><path d="m26 0h2v2h-2z"/><path d="m26 13h2v2h-2z"/><path d="m26 26h2v2h-2z"/><path d="m26 39h2v2h-2z"/><path d="m26 52h2v2h-2z"/><path d="m26 65h2v2h-2z"/><path d="m26 78h2v2h-2z"/><path d="m26 91h2v2h-2z"/><path d="m26 104h2v2h-2z"/><path d="m26 117h2v2h-2z"/><path d="m26 130h2v2h-2z"/><path d="m39 0h2v2h-2z"/><path d="m39 13h2v2h-2z"/><path d="m39 26h2v2h-2z"/><path d="m39 39h2v2h-2z"/><path d="m39 52h2v2h-2z"/><path d="m39 65h2v2h-2z"/><path d="m39 78h2v2h-2z"/><path d="m39 91h2v2h-2z"/><path d="m39 104h2v2h-2z"/><path d="m39 117h2v2h-2z"/><path d="m39 130h2v2h-2z"/><path d="m52 0h2v2h-2z"/><path d="m52 13h2v2h-2z"/><path d="m52 26h2v2h-2z"/><path d="m52 39h2v2h-2z"/><path d="m52 52h2v2h-2z"/><path d="m52 65h2v2h-2z"/><path d="m52 78h2v2h-2z"/><path d="m52 91h2v2h-2z"/><path d="m52 104h2v2h-2z"/><path d="m52 117h2v2h-2z"/><path d="m52 130h2v2h-2z"/><path d="m65 0h2v2h-2z"/><path d="m65 13h2v2h-2z"/><path d="m65 26h2v2h-2z"/><path d="m65 39h2v2h-2z"/><path d="m65 52h2v2h-2z"/><path d="m65 65h2v2h-2z"/><path d="m65 78h2v2h-2z"/><path d="m65 91h2v2h-2z"/><path d="m65 104h2v2h-2z"/><path d="m65 117h2v2h-2z"/><path d="m65 130h2v2h-2z"/><path d="m78 0h2v2h-2z"/><path d="m78 13h2v2h-2z"/><path d="m78 26h2v2h-2z"/><path d="m78 39h2v2h-2z"/><path d="m78 52h2v2h-2z"/><path d="m78 65h2v2h-2z"/><path d="m78 78h2v2h-2z"/><path d="m78 91h2v2h-2z"/><path d="m78 104h2v2h-2z"/><path d="m78 117h2v2h-2z"/><path d="m78 130h2v2h-2z"/><path d="m91 0h2v2h-2z"/><path d="m91 13h2v2h-2z"/><path d="m91 26h2v2h-2z"/><path d="m91 39h2v2h-2z"/><path d="m91 52h2v2h-2z"/><path d="m91 65h2v2h-2z"/><path d="m91 78h2v2h-2z"/><path d="m91 91h2v2h-2z"/><path d="m91 104h2v2h-2z"/><path d="m91 117h2v2h-2z"/><path d="m91 130h2v2h-2z"/><path d="m104 0h2v2h-2z"/><path d="m104 13h2v2h-2z"/><path d="m104 26h2v2h-2z"/><path d="m104 39h2v2h-2z"/><path d="m104 52h2v2h-2z"/><path d="m104 65h2v2h-2z"/><path d="m104 78h2v2h-2z"/><path d="m104 91h2v2h-2z"/><path d="m104 104h2v2h-2z"/><path d="m104 117h2v2h-2z"/><path d="m104 130h2v2h-2z"/><path d="m117 0h2v2h-2z"/><path d="m117 13h2v2h-2z"/><path d="m117 26h2v2h-2z"/><path d="m117 39h2v2h-2z"/><path d="m117 52h2v2h-2z"/><path d="m117 65h2v2h-2z"/><path d="m117 78h2v2h-2z"/><path d="m117 91h2v2h-2z"/><path d="m117 104h2v2h-2z"/><path d="m117 117h2v2h-2z"/><path d="m117 130h2v2h-2z"/></g></svg>