<svg width="329" height="51" viewBox="0 0 329 51" fill="none" xmlns="http://www.w3.org/2000/svg">
<g clip-path="url(#clip0_1_2)">
<path d="M22.1808 31.8214C22.8046 31.5462 23.2389 31.3443 23.4774 31.222C23.7221 31.0997 24.1563 30.7939 24.7802 30.3046C26.615 28.9101 27.5386 26.7816 27.5386 23.9254C27.5386 21.5584 26.7251 19.43 25.0982 17.5462C24.1991 16.537 22.8536 15.7358 21.0676 15.1425C19.2817 14.5492 17.1594 14.2556 14.7007 14.2556H0.559998V50.8H16.4683C21.4591 50.8 24.9576 49.6685 26.9698 47.3994C28.7007 45.4483 29.5692 43.1975 29.5692 40.6532C29.5692 38.3535 28.9025 36.4269 27.5692 34.8795C26.2297 33.326 24.4377 32.3046 22.1808 31.8214ZM8.66397 21.1547H12.56C14.9514 21.1547 16.6517 21.4177 17.6548 21.9376C18.6579 22.4636 19.1655 23.5339 19.1655 25.1547C19.1655 26.7755 18.6212 27.8275 17.5264 28.3168C16.4377 28.8061 14.7618 29.0508 12.5111 29.0508H8.66397V21.1547ZM19.453 43.0324C18.2909 43.6073 16.5478 43.8948 14.2297 43.8948H8.66397V35.4789H13.4468C16.1502 35.4789 18.1135 35.748 19.349 36.2923C20.5783 36.8306 21.1961 37.9498 21.1961 39.6379C21.1961 41.326 20.615 42.4575 19.453 43.0324ZM65.8505 26.3841C65.8505 22.1333 64.6456 19.0508 62.2358 17.1303C59.8261 15.2159 55.7955 14.2556 50.1502 14.2556H36.3765V50.8H44.4866V39.1425H50.1013L58.1563 50.8H68.138L58.9392 37.7297C63.5447 36.0171 65.8505 32.2373 65.8505 26.3841ZM56.0768 30.7205C55.0738 31.6257 53.1839 32.0783 50.4132 32.0783H44.4866V21.2587H50.5722C53.1716 21.2587 54.9881 21.6257 56.0279 22.3535C57.0676 23.0874 57.5875 24.4391 57.5875 26.4024C57.5875 28.378 57.086 29.8153 56.0768 30.7205ZM85.1349 14.2556L69.4346 50.8H78.0646L81.4407 42.904H96.6701L100.046 50.8H108.676L92.9759 14.2556H85.1349ZM84.5111 35.7419L89.086 25.1303L93.6059 35.7419H84.5111ZM154.875 37.7786L137.046 14.2556H129.456V50.8H137.566V27.8948L154.875 50.7939H162.985V14.2556H154.875V37.7786ZM189.169 20.7878C192.979 20.7878 196.166 22.3902 198.734 25.6012L203.78 19.852C199.762 15.2832 194.771 13.0018 188.808 13.0018C183.468 13.0018 178.954 14.8183 175.266 18.4391C171.572 22.066 169.731 26.5859 169.731 32.0049C169.731 37.4238 171.542 41.9131 175.162 45.4667C178.783 49.0202 183.395 50.8 188.991 50.8C194.588 50.8 199.45 48.4636 203.572 43.7908L198.373 38.4086C195.841 41.5829 192.588 43.167 188.6 43.167C185.688 43.167 183.211 42.1394 181.169 40.0844C179.126 38.0293 178.098 35.3015 178.098 31.9009C178.098 28.5003 179.181 25.803 181.346 23.7969C183.511 21.7908 186.123 20.7878 189.169 20.7878ZM232.526 29.5217H218.074V14.2556H209.964V50.8H218.074V36.4208H232.526V50.8H240.636V14.2556H232.526V29.5217ZM249.578 50.7939H257.688V14.2556H249.578V50.7939ZM274.734 14.2556H266.624V50.8H290.227V43.5339H274.734V14.2556ZM323.915 19.0385C320.447 15.852 315.474 14.2556 308.997 14.2556H296.159V50.8H308.581C315.511 50.8 320.667 49.1486 324.049 45.8336C327.432 42.5248 329.12 38.0293 329.12 32.3474C329.114 26.6593 327.383 22.2251 323.915 19.0385ZM317.964 40.7572C315.97 42.641 313.12 43.5767 309.413 43.5767H304.263V21.3566H308.783C312.906 21.3566 315.97 22.3229 317.958 24.2556C319.951 26.1884 320.948 28.9529 320.948 32.5431C320.954 36.1394 319.958 38.8734 317.964 40.7572ZM121.135 41.4789H113.606C113.098 41.4789 112.688 41.8887 112.688 42.3963V49.8764C112.688 50.3841 113.098 50.7939 113.606 50.7939H121.135C121.643 50.7939 122.052 50.3841 122.052 49.8764V42.3963C122.052 41.8887 121.636 41.4789 121.135 41.4789ZM113.753 34.9835H120.854C121.337 34.9835 121.722 34.592 121.722 34.115V1.66849C121.722 1.18531 121.331 0.799988 120.854 0.799988H113.753C113.269 0.799988 112.884 1.19143 112.884 1.66849V34.115C112.884 34.592 113.269 34.9835 113.753 34.9835Z" fill="white"/>
</g>
<defs>
<clipPath id="clip0_1_2">
<rect width="329" height="51" fill="white"/>
</clipPath>
</defs>
</svg>
