<?xml version="1.0" encoding="UTF-8"?>
<svg width="204px" height="32px" viewBox="0 0 204 32" version="1.1" xmlns="http://www.w3.org/2000/svg" xmlns:xlink="http://www.w3.org/1999/xlink">
    <title>logo-light</title>
    <defs>
        <linearGradient x1="41.678995%" y1="25.0094733%" x2="58.321005%" y2="74.9905267%" id="linearGradient-1">
            <stop stop-color="#FF00FF" offset="0%"></stop>
            <stop stop-color="#9D00FF" offset="100%"></stop>
        </linearGradient>
        <linearGradient x1="55.0265832%" y1="81.5217391%" x2="44.9734168%" y2="18.4782609%" id="linearGradient-2">
            <stop stop-color="#00FFBE" offset="0%"></stop>
            <stop stop-color="#603CF7" offset="100%"></stop>
        </linearGradient>
        <linearGradient x1="62.5%" y1="62.5033583%" x2="37.5%" y2="37.4966417%" id="linearGradient-3">
            <stop stop-color="#00FFBE" offset="0%"></stop>
            <stop stop-color="#508CFF" offset="100%"></stop>
        </linearGradient>
        <linearGradient x1="37.5123072%" y1="37.4884333%" x2="62.520512%" y2="62.5115667%" id="linearGradient-4">
            <stop stop-color="#FF00FF" offset="0%"></stop>
            <stop stop-color="#9D00FF" offset="100%"></stop>
        </linearGradient>
    </defs>
    <g id="Page-1" stroke="none" stroke-width="1" fill="none" fill-rule="evenodd">
        <g id="logo-light" fill-rule="nonzero">
            <path d="M114.15,6.975 L107.03,6.975 L107.03,25.08 L108.62,25.08 L108.62,19.8 L114.15,19.8 C118.035,19.8 120.955,17.415 120.955,13.405 C120.955,9.395 118.06,6.98 114.15,6.98 L114.15,6.975 Z M114.12,18.29 L108.62,18.29 L108.62,8.485 L114.12,8.485 C117.21,8.485 119.365,10.325 119.365,13.405 C119.365,16.485 117.18,18.295 114.12,18.295 L114.12,18.29 Z" id="Shape" fill="#FFFFFF"></path>
            <g id="Group">
                <g transform="translate(30.475000, 6.270000)" fill="#FFFFFF" id="Shape">
                    <path d="M57.21,18.89 L53.765,18.89 L62.825,0 L71.885,18.89 L68.44,18.89 L66.99,15.95 L58.64,15.95 L57.215,18.89 L57.21,18.89 Z M60.15,12.75 L65.415,12.75 L62.755,7.35 L60.15,12.75 Z"></path>
                    <path d="M12.855,9.12 C13.515,8.23 13.905,7.135 13.905,5.945 C13.905,2.995 11.515,0.605 8.565,0.605 L0,0.605 L0,18.89 L9.52,18.89 C12.535,18.89 14.975,16.45 14.975,13.435 C14.975,11.68 14.145,10.115 12.855,9.12 L12.855,9.12 Z M8.565,3.92 L8.565,3.92 C9.685,3.92 10.59,4.825 10.59,5.945 C10.59,7.065 9.685,7.97 8.565,7.97 C8.45,7.97 3.435,7.97 3.435,7.97 L3.425,3.92 L8.565,3.92 Z M9.52,15.595 L3.435,15.595 L3.435,11.285 L9.52,11.285 C10.71,11.285 11.675,12.25 11.675,13.44 C11.675,14.63 10.71,15.595 9.52,15.595 L9.52,15.595 Z"></path>
                    <path d="M26.1,0.545 C21.015,0.545 16.895,4.665 16.895,9.75 C16.895,14.835 21.015,18.955 26.1,18.955 C31.185,18.955 35.305,14.835 35.305,9.75 C35.305,4.665 31.185,0.545 26.1,0.545 Z M26.1,15.485 C22.93,15.485 20.365,12.915 20.365,9.75 C20.365,6.585 22.935,4.015 26.1,4.015 C29.265,4.015 31.835,6.585 31.835,9.75 C31.835,12.915 29.265,15.485 26.1,15.485 Z"></path>
                    <path d="M48.165,12.38 C50.4,11.47 51.975,9.28 51.975,6.715 C51.975,3.34 49.24,0.605 45.865,0.605 L37.925,0.605 L37.925,18.89 L41.235,18.89 L41.235,12.805 L44.355,12.805 L48.62,18.89 L52.63,18.89 L48.165,12.38 L48.165,12.38 Z M45.865,9.495 L41.235,9.495 L41.235,3.94 L45.865,3.94 C47.4,3.94 48.645,5.185 48.645,6.72 C48.645,8.255 47.4,9.5 45.865,9.5 L45.865,9.495 Z"></path>
                </g>
                <g id="Path">
                    <polygon fill="url(#linearGradient-1)" points="15.24 27.6 15.24 27.6 15.24 18.805 22.855 14.405 22.855 23.2"></polygon>
                    <polygon fill="url(#linearGradient-2)" points="0 4.4 0 27.6 7.62 23.2 7.62 0"></polygon>
                    <polygon fill="url(#linearGradient-3)" points="15.24 27.6 7.62 23.2 0 27.6 7.62 32"></polygon>
                    <polygon fill="url(#linearGradient-4)" points="22.855 14.405 15.24 10.005 7.62 14.405 15.24 18.805"></polygon>
                </g>
            </g>
            <path d="M140.91,16.025 C140.91,21.85 136.825,25.38 131.775,25.38 C126.725,25.38 122.64,21.85 122.64,16.025 C122.64,10.2 126.75,6.67 131.775,6.67 C136.8,6.67 140.91,10.2 140.91,16.025 Z M124.235,16.025 C124.235,20.855 127.64,23.87 131.78,23.87 C135.92,23.87 139.325,20.855 139.325,16.025 C139.325,11.195 135.95,8.18 131.78,8.18 C127.61,8.18 124.235,11.165 124.235,16.025 Z" id="Shape" fill="#FFFFFF"></path>
            <path d="M186.22,21.005 L175.7,21.005 L173.765,25.08 L172.025,25.08 L180.635,6.975 L181.315,6.975 L189.925,25.08 L188.16,25.08 L186.22,21.005 L186.22,21.005 Z M176.405,19.495 L185.51,19.495 L182.165,12.405 C181.6,11.2 181.03,9.51 181.03,9.51 L180.915,9.51 C180.915,9.51 180.35,11.2 179.78,12.405 L176.405,19.495 Z" id="Shape" fill="#FFFFFF"></path>
            <path d="M154.31,19.585 C153.745,18.83 153.26,18.29 153.26,18.29 L153.26,18.23 C156.495,17.565 158.11,15.605 158.11,12.77 C158.11,9.21 155.415,6.975 151.36,6.975 L143.9,6.975 L143.9,25.08 L145.49,25.08 L145.49,18.41 L151.475,18.41 L156.425,25.08 L158.385,25.08 L154.31,19.59 L154.31,19.585 Z M151.275,16.9 L145.49,16.9 L145.49,8.485 L151.305,8.485 C154.395,8.485 156.525,10.055 156.525,12.77 C156.525,15.485 154.655,16.905 151.28,16.905 L151.275,16.9 Z" id="Shape" fill="#FFFFFF"></path>
            <polygon id="Path" fill="#FFFFFF" points="175.245 6.975 158.68 6.975 158.68 8.485 166.17 8.485 166.17 25.08 167.76 25.08 167.76 8.485 175.245 8.485"></polygon>
            <polygon id="Path" fill="#FFFFFF" points="193.38 23.57 193.38 6.975 191.79 6.975 191.79 25.08 203.645 25.08 203.645 23.57"></polygon>
        </g>
    </g>
</svg>