<svg height="48.613" viewBox="0 0 48.22 48.613" width="48.22" xmlns="http://www.w3.org/2000/svg"><path d="m264.948 379.139h39.275v39.278h-8.712v-23.729l-.321-.149c-1.036 1.069-2.052 2.159-3.114 3.2-.684.67-1.477 1.228-2.151 1.907-1.6 1.608-3.121 3.285-4.725 4.884-1.43 1.426-2.964 2.747-4.388 4.179-1.683 1.693-3.267 3.483-4.948 5.177-1.395 1.4-2.905 2.695-4.3 4.1-1.709 1.722-3.339 3.521-5.025 5.267-.992 1.028-2.046 2-3.028 3.032-.532.561-.923.669-1.505.034-1.572-1.716-3.214-3.368-4.783-5.087a.955.955 0 0 1 .039-.929c2.031-2.121 4.113-4.194 6.164-6.3 1.525-1.563 2.995-3.181 4.544-4.718 1.522-1.509 3.153-2.909 4.665-4.427 1.655-1.66 3.2-3.431 4.847-5.1 1.477-1.494 3.061-2.882 4.542-4.371 1.625-1.634 3.167-3.351 4.786-4.991.736-.746 1.571-1.395 2.361-2.088l-.164-.363h-24.059z" fill="none" stroke="#fff" transform="translate(-256.503 -378.639)"/></svg>