<svg height="10.229" viewBox="0 0 48.001 10.229" width="48.001" xmlns="http://www.w3.org/2000/svg"><path d="m1121.987 588.439c1.752 1.883 3.227 3.387 4.6 4.978.914 1.055 1.627.95 2.513-.019 1.147-1.254 2.422-2.391 3.576-3.639.686-.742 1.233-.748 1.912-.03 1.1 1.157 2.24 2.271 3.353 3.412 1.413 1.449 1.712 1.452 3.1.027.968-1 1.949-1.98 2.927-2.966.031-.032.1-.029.23-.063l1.779 1.8-6.822 6.73c-1.423-1.553-2.933-3.156-4.388-4.806-.743-.842-1.351-.919-2.155-.056-1.195 1.281-2.534 2.428-3.7 3.732-.8.888-1.382.823-2.144.019-1.2-1.272-2.492-2.464-3.688-3.743-.766-.819-1.39-.87-2.18-.023-1.16 1.242-2.448 2.367-3.587 3.626-.84.927-1.455 1.038-2.344.032-1.158-1.309-2.495-2.459-3.7-3.727a1.165 1.165 0 0 0 -1.956-.047c-1.338 1.36-2.667 2.732-4.077 4.015-.305.278-1.164.448-1.375.249-2.017-1.9-3.95-3.884-5.878-5.816 1.476-2.294 1.614-2.314 3.3-.622 3.091 3.106 3.091 3.106 6.2.063 2.765-2.708 2.765-2.708 5.594.025 3.069 2.965 3.083 2.979 6.1 0 .869-.867 1.642-1.838 2.81-3.151z" fill="#fff" transform="translate(-1097.977 -588.439)"/></svg>