<svg height="54" viewBox="0 0 54 54" width="54" xmlns="http://www.w3.org/2000/svg"><circle cx="27" cy="27" fill="#f5dbb7" r="27"/><g fill="#a25139"><path d="m11.951 23.4h-.251a11.646 11.646 0 0 1 -6.5-1.972l-2.76 1.656c-1.009.606-1.662.161-1.458-1l.751-4.26a11.7 11.7 0 0 1 17.505-15.073 12.234 12.234 0 0 0 -7.287 20.649z" opacity=".366" transform="translate(9.573 13.581)"/><path d="m0 12a12 12 0 1 1 22.226 6.284l.787 4.465c.2 1.13-.438 1.572-1.425.98l-2.918-1.752a12 12 0 0 1 -18.67-9.977z" transform="translate(17 16)"/></g></svg>