<?xml version="1.0" encoding="utf-8"?>
<svg xmlns="http://www.w3.org/2000/svg" width="77.375" height="20.912" viewBox="0 0 77.375 20.912"><path d="M73.472,9.988l4.139,10.957c-1.219-.174-2.439-.393-3.681-.589L71.6,14.3l-2.4,5.555c-1.176-.2-2.331-.261-3.507-.415l4.2-9.58L66.087.034H69.62l2.135,5.487L74.042.034h3.571ZM63.3.034H60.1V19.029c1.045.065,2.135.109,3.2.24ZM57.331,18.811c-2.919-.2-5.835-.369-8.822-.435V.034h3.267V15.282c1.873.044,3.745.2,5.555.282ZM45.024,7.462v3.267H40.559v7.427H37.336V.034h9.145V3.3H40.559V7.462ZM31.846,3.3V18.332c-1.09,0-2.2,0-3.268.044V3.3H25.2V.034H35.242V3.3ZM21.673,10.9c-1.437,0-3.135,0-4.355.066v4.857c1.916-.131,3.832-.283,5.772-.348v3.135l-9.037.72V.034h9.034V3.3H17.316V7.7c1.264,0,3.2-.065,4.355-.065V10.9ZM3.57,9.074V20.487c-1.175.131-2.222.284-3.332.458V.034H3.353L7.6,11.906V.034h3.268V19.595c-1.154.2-2.331.261-3.571.435Z" transform="translate(-0.238 -0.034)" fill="#fff"/></svg>