<?xml version="1.0" encoding="utf-8"?>
<svg xmlns="http://www.w3.org/2000/svg" width="61.25" height="15.312" viewBox="0 0 61.25 15.312"><path d="M10.039-9.187H13.4A4.9,4.9,0,0,0,17.839-12.1l5.34-10.671s1-1.732-1-1.732H19.045c-1,0-1.263.823-1.8,1.732l-3.512,7.13a2.161,2.161,0,0,1-2.019,1.254,2.161,2.161,0,0,1-2.019-1.254l-3.512-7.13c-.536-.9-.8-1.732-1.8-1.732H1.244c-1.991,0-1,1.732-1,1.732L5.6-12.1A4.915,4.915,0,0,0,10.039-9.187Zm37.8,0h3.369A4.9,4.9,0,0,0,55.651-12.1L61-22.768s1-1.732-1-1.732H56.857c-1,0-1.263.823-1.8,1.732l-3.522,7.13a2.161,2.161,0,0,1-2.019,1.254A2.161,2.161,0,0,1,47.5-15.638l-3.512-7.13c-.536-.9-.8-1.732-1.8-1.732H39.047c-1.991,0-1,1.732-1,1.732L43.4-12.1A4.915,4.915,0,0,0,47.842-9.187ZM32.309-24.5H28.95a4.9,4.9,0,0,0-4.441,2.909L19.16-10.92s-1,1.732,1,1.732H23.3c1,0,1.263-.833,1.8-1.732l3.512-7.13A2.161,2.161,0,0,1,30.634-19.3a2.161,2.161,0,0,1,2.019,1.254l3.512,7.13c.536.9.8,1.732,1.8,1.732H41.1c1.991,0,1-1.732,1-1.732L36.75-21.591A4.915,4.915,0,0,0,32.309-24.5Z" transform="translate(0 24.5)" fill="#fff"/></svg>