<?xml version="1.0" encoding="utf-8"?>
<svg xmlns="http://www.w3.org/2000/svg" width="61.414" height="22.103" viewBox="0 0 61.414 22.103"><path d="M31.155,70.034c-4,4.692-7.828,10.512-7.866,14.862a5.149,5.149,0,0,0,1.761,4.148,8.543,8.543,0,0,0,5.769,2.112c2.89,0,5.76-1.166,8-2.061,3.784-1.513,45.614-19.678,45.614-19.678.4-.2.328-.454-.177-.329-.2.051-45.542,12.337-45.542,12.337a10.017,10.017,0,0,1-2.638.378c-3.484.021-6.584-1.913-6.559-5.989a13.367,13.367,0,0,1,1.634-5.778Z" transform="translate(-23.282 -69.053)" fill="#fff" fill-rule="evenodd"/></svg>