<svg height="36.029" viewBox="0 0 84.935 36.029" width="84.935" xmlns="http://www.w3.org/2000/svg"><path d="m131.161 73.395c-30.907-2.326-56.449 4.937-62.193 7.644-3.181 1.424-3.418 3.228-2.943 4.225.427.76 1.946 1.234 3.608.38 12.249-6.5 37.078-11.679 61.528-10.207a1.021 1.021 0 1 0 0-2.041zm7.644-9.115c-1.282 1.424-3.181 2.516-3.8 1.994-.57-.522 0-2.231 0-2.231 3.038-1.947 8.925-6.884 8.925-10.682 0-3.513-3.181-4.605-6.552-1.329a24.423 24.423 0 0 0 -5.745 10.255c-1.757 1.709-4.51 3.893-7.026 3.893-1.282 0-1.662-.9-1.472-2.136 2.136-.047 8.023-1.662 8.023-6.552a3.069 3.069 0 0 0 -.95-2.136 2.99 2.99 0 0 0 -2.231-.76c-2.659 0-6.077 2.706-7.739 6.5a6.213 6.213 0 0 1 -1.329-.427 16.259 16.259 0 0 0 1.044-2.9c.38-1.994-.475-3.228-2.136-3.086-1.044.095-2.326 1-2.564 3.086a5.792 5.792 0 0 0 .57 3.086c-.712 2.231-3.7 5.032-4.7 4.937s.142-4.083 1.139-7.026a5.536 5.536 0 0 0 1.282-1.994 1.23 1.23 0 0 0 -.475-1.614 3.09 3.09 0 0 0 -3.893 1.614 13.6 13.6 0 0 0 -1.044 2.231c-.807 1-2.136 2.231-2.516 2.136-.57-.38 1.282-2.8 1.044-4.13a2.147 2.147 0 0 0 -2.326-1.8c-1.662.237-3.893 3.371-3.893 3.371a5.963 5.963 0 0 0 .475-1.8c-.095-1.187-2.326-1.709-3.418.427a32.15 32.15 0 0 0 -1.662 6.362c-.475 1-2.326 3.893-3.8 3.988-1.187.095.285-5.127.475-5.412.665-1 1.472-3.086 1.282-3.988a1.517 1.517 0 0 0 -.522-1.139 1.42 1.42 0 0 0 -1.234-.237 2.775 2.775 0 0 0 -1.757 1.329 2.315 2.315 0 0 0 -2.231-.807c-4.89.522-8.023 8.925-7.691 12.866.285 2.136 1.282 3.418 3.181 3.181 2.136-.285 3.893-3.323 3.893-3.323s.475 2.516 2.754 2.231a8.626 8.626 0 0 0 4.32-2.991 1.386 1.386 0 0 0 -.095.427c-.38 2.136 3.181 1.9 3.513.285 1.044-8.023 3.8-11.347 4.605-11.347.665 0-1.757 3.8-.38 5.222 1.044 1.282 2.943.285 4.51-1.044a13.481 13.481 0 0 0 -.475 3.086c-.095 2.231.712 4.035 2.943 3.988 2.943-.095 6.077-3.7 8.118-7.121a5.7 5.7 0 0 0 1.757.712 8.559 8.559 0 0 0 -.237 2.469c.19 2.611 2.041 3.608 4.178 3.513 2.516-.095 5.46-1.994 7.454-3.7a.675.675 0 0 1 -.095.285c-.19 1.282.095 3.608 1.947 3.7 2.136.19 5.792-1.994 7.644-4.225 1.571-1 .051-2.425-1.088-1.238zm1.995-10.873a.416.416 0 0 1 .38.427c0 2.231-5.745 7.026-5.745 7.026s3.75-7.453 5.365-7.453zm-13.815 4.7a.714.714 0 0 1 .522.19.536.536 0 0 1 .142.522c0 1.282-1.757 2.231-3.7 2.231 1.041-1.471 2.227-2.942 3.035-2.942zm-38.219 3.514c-.19 1.329-2.564 7.406-3.893 7.406-1.662.095.807-8.546 3.513-8.5.522.002.522.382.38 1.094zm-20.795 1.614c1.567 0-1.282 8.023-.9 11.537s4.32 2.516 4.035.427c-.475-3.418 1.946-14.338 4.32-14.338 1.757 0-1.947 7.5-1.187 12.154.475 3.086 4.7 2.136 4.225.19-1.282-6.125 3.036-12.059 2.468-16.379-.285-1.8-1.282-2.8-2.516-2.8-3.988 0-7.216 7.928-7.216 7.928s.38-4.51-2.849-4.7c-4.651-.238-9.451 11.298-9.351 21.746.095 3.323 4.32 2.8 4.035.095-.235-4.656 2.515-15.86 4.936-15.86z" fill="#043c39" transform="translate(-58.997 -50.07)"/></svg>