<svg height="73.433" viewBox="0 0 67.026 73.433" width="67.026" xmlns="http://www.w3.org/2000/svg"><g fill-rule="evenodd"><path d="m22.426 68.528a136.71 136.71 0 0 0 -19.601-3.528 2.449 2.449 0 0 0 -2.8 2.165 2.485 2.485 0 0 0 2.1 2.795 129.442 129.442 0 0 1 18.9 3.383 2.54 2.54 0 0 0 3.1-1.725 2.49 2.49 0 0 0 -1.699-3.09z"/><path d="m41.825 43.065c-10.3-10.511-21.9-19.669-32-30.462a2.48 2.48 0 1 0 -3.6 3.413c10.1 10.824 21.7 20.012 32 30.554a2.579 2.579 0 0 0 3.6.03 2.549 2.549 0 0 0 0-3.535z"/><path d="m61.126 2.636q.45 9.024.9 18.049a2.433 2.433 0 0 0 2.6 2.375 2.553 2.553 0 0 0 2.4-2.62q-.45-9.039-.9-18.076a2.564 2.564 0 0 0 -2.7-2.364 2.489 2.489 0 0 0 -2.3 2.636z"/></g></svg>