<svg height="18" viewBox="0 0 56 18" width="56" xmlns="http://www.w3.org/2000/svg"><rect fill="none" height="16" rx="8" stroke="#ccc" stroke-width="2" width="54" x="1" y="1"/><path d="m3.16.12c1.78 0 2.54-.72 2.54-2.4v-4.52h-1.45v4.47c0 .85-.29 1.16-1.07 1.16s-1.07-.31-1.07-1.16v-4.47h-1.5v4.52c0 1.68.76 2.4 2.55 2.4zm4.479-.12h1.5v-2.38h1.19c1.72 0 2.45-.65 2.45-2.2s-.73-2.22-2.45-2.22h-2.69zm1.5-3.66v-1.86h1.061c.76 0 1.08.28 1.08.93s-.32.93-1.08.93zm5.198 3.66h2.53c1.83 0 2.64-.83 2.64-2.68v-1.44c0-1.84-.81-2.68-2.64-2.68h-2.53zm1.5-1.28v-4.24h.82c1.01 0 1.35.37 1.35 1.43v1.38c0 1.06-.34 1.43-1.35 1.43zm4.619 1.28h1.52l.43-1.37h2.14l.43 1.37h1.59l-2.28-6.8h-1.55zm2.32-2.62.7-2.48.7 2.48zm5.678 2.62h1.5v-5.49h1.82v-1.31h-5.14v1.31h1.82zm4.709 0h4.76v-1.29h-3.26v-1.53h2.66v-1.28h-2.66v-1.41h3.16v-1.29h-4.66z" fill="#fff" transform="translate(9 12)"/></svg>