<?xml version="1.0" encoding="UTF-8"?>
<svg width="319px" height="50px" viewBox="0 0 319 50" version="1.1" xmlns="http://www.w3.org/2000/svg" xmlns:xlink="http://www.w3.org/1999/xlink">
    <title>BORAPORTAL_light</title>
    <defs>
        <linearGradient x1="41.678995%" y1="25.0094733%" x2="58.321005%" y2="74.9905267%" id="linearGradient-1">
            <stop stop-color="#FF00FF" offset="0%"></stop>
            <stop stop-color="#9D00FF" offset="100%"></stop>
        </linearGradient>
        <linearGradient x1="55.0265832%" y1="81.5217391%" x2="44.9734168%" y2="18.4782609%" id="linearGradient-2">
            <stop stop-color="#00FFBE" offset="0%"></stop>
            <stop stop-color="#603CF7" offset="100%"></stop>
        </linearGradient>
        <linearGradient x1="62.5%" y1="62.5033583%" x2="37.5%" y2="37.4966417%" id="linearGradient-3">
            <stop stop-color="#00FFBE" offset="0%"></stop>
            <stop stop-color="#508CFF" offset="100%"></stop>
        </linearGradient>
        <linearGradient x1="37.5123072%" y1="37.4884333%" x2="62.520512%" y2="62.5115667%" id="linearGradient-4">
            <stop stop-color="#FF00FF" offset="0%"></stop>
            <stop stop-color="#9D00FF" offset="100%"></stop>
        </linearGradient>
    </defs>
    <g id="Page-1" stroke="none" stroke-width="1" fill="none" fill-rule="evenodd">
        <g id="Metabora" transform="translate(-1000.000000, -2516.000000)" fill-rule="nonzero">
            <g id="BORAPORTAL_light" transform="translate(1000.000000, 2516.000000)">
                <path d="M178.359375,10.8984375 L167.234375,10.8984375 L167.234375,39.1875 L169.71875,39.1875 L169.71875,30.9375 L178.359375,30.9375 C184.429688,30.9375 188.992188,27.2109375 188.992188,20.9453125 C188.992188,14.6796875 184.46875,10.90625 178.359375,10.90625 L178.359375,10.8984375 Z M178.3125,28.578125 L169.71875,28.578125 L169.71875,13.2578125 L178.3125,13.2578125 C183.140625,13.2578125 186.507812,16.1328125 186.507812,20.9453125 C186.507812,25.7578125 183.09375,28.5859375 178.3125,28.5859375 L178.3125,28.578125 Z" id="Shape" fill="#1A1A1A"></path>
                <g id="Group">
                    <g transform="translate(47.617187, 9.796875)" fill="#1A1A1A" id="Shape">
                        <path d="M89.390625,29.515625 L84.0078125,29.515625 L98.1640625,0 L112.320313,29.515625 L106.9375,29.515625 L104.671875,24.921875 L91.625,24.921875 L89.3984375,29.515625 L89.390625,29.515625 Z M93.984375,19.921875 L102.210938,19.921875 L98.0546875,11.484375 L93.984375,19.921875 Z"></path>
                        <path d="M20.0859375,14.25 C21.1171875,12.859375 21.7265625,11.1484375 21.7265625,9.2890625 C21.7265625,4.6796875 17.9921875,0.9453125 13.3828125,0.9453125 L0,0.9453125 L0,29.515625 L14.875,29.515625 C19.5859375,29.515625 23.3984375,25.703125 23.3984375,20.9921875 C23.3984375,18.25 22.1015625,15.8046875 20.0859375,14.25 L20.0859375,14.25 Z M13.3828125,6.125 L13.3828125,6.125 C15.1328125,6.125 16.546875,7.5390625 16.546875,9.2890625 C16.546875,11.0390625 15.1328125,12.453125 13.3828125,12.453125 C13.203125,12.453125 5.3671875,12.453125 5.3671875,12.453125 L5.3515625,6.125 L13.3828125,6.125 Z M14.875,24.3671875 L5.3671875,24.3671875 L5.3671875,17.6328125 L14.875,17.6328125 C16.734375,17.6328125 18.2421875,19.140625 18.2421875,21 C18.2421875,22.859375 16.734375,24.3671875 14.875,24.3671875 L14.875,24.3671875 Z"></path>
                        <path d="M40.78125,0.8515625 C32.8359375,0.8515625 26.3984375,7.2890625 26.3984375,15.234375 C26.3984375,23.1796875 32.8359375,29.6171875 40.78125,29.6171875 C48.7265625,29.6171875 55.1640625,23.1796875 55.1640625,15.234375 C55.1640625,7.2890625 48.7265625,0.8515625 40.78125,0.8515625 Z M40.78125,24.1953125 C35.828125,24.1953125 31.8203125,20.1796875 31.8203125,15.234375 C31.8203125,10.2890625 35.8359375,6.2734375 40.78125,6.2734375 C45.7265625,6.2734375 49.7421875,10.2890625 49.7421875,15.234375 C49.7421875,20.1796875 45.7265625,24.1953125 40.78125,24.1953125 Z"></path>
                        <path d="M75.2578125,19.34375 C78.75,17.921875 81.2109375,14.5 81.2109375,10.4921875 C81.2109375,5.21875 76.9375,0.9453125 71.6640625,0.9453125 L59.2578125,0.9453125 L59.2578125,29.515625 L64.4296875,29.515625 L64.4296875,20.0078125 L69.3046875,20.0078125 L75.96875,29.515625 L82.234375,29.515625 L75.2578125,19.34375 L75.2578125,19.34375 Z M71.6640625,14.8359375 L64.4296875,14.8359375 L64.4296875,6.15625 L71.6640625,6.15625 C74.0625,6.15625 76.0078125,8.1015625 76.0078125,10.5 C76.0078125,12.8984375 74.0625,14.84375 71.6640625,14.84375 L71.6640625,14.8359375 Z"></path>
                    </g>
                    <g id="Path">
                        <polygon fill="url(#linearGradient-1)" points="23.8125 43.125 23.8125 43.125 23.8125 29.3828125 35.7109375 22.5078125 35.7109375 36.25"></polygon>
                        <polygon fill="url(#linearGradient-2)" points="0 6.875 0 43.125 11.90625 36.25 11.90625 0"></polygon>
                        <polygon fill="url(#linearGradient-3)" points="23.8125 43.125 11.90625 36.25 0 43.125 11.90625 50"></polygon>
                        <polygon fill="url(#linearGradient-4)" points="35.7109375 22.5078125 23.8125 15.6328125 11.90625 22.5078125 23.8125 29.3828125"></polygon>
                    </g>
                </g>
                <path d="M220.171875,25.0390625 C220.171875,34.140625 213.789062,39.65625 205.898438,39.65625 C198.007813,39.65625 191.625,34.140625 191.625,25.0390625 C191.625,15.9375 198.046875,10.421875 205.898438,10.421875 C213.75,10.421875 220.171875,15.9375 220.171875,25.0390625 Z M194.117188,25.0390625 C194.117188,32.5859375 199.4375,37.296875 205.90625,37.296875 C212.375,37.296875 217.695312,32.5859375 217.695312,25.0390625 C217.695312,17.4921875 212.421875,12.78125 205.90625,12.78125 C199.390625,12.78125 194.117188,17.4453125 194.117188,25.0390625 Z" id="Shape" fill="#1A1A1A"></path>
                <path d="M290.96875,32.8203125 L274.53125,32.8203125 L271.507812,39.1875 L268.789062,39.1875 L282.242187,10.8984375 L283.304688,10.8984375 L296.757812,39.1875 L294,39.1875 L290.96875,32.8203125 L290.96875,32.8203125 Z M275.632812,30.4609375 L289.859375,30.4609375 L284.632812,19.3828125 C283.75,17.5 282.859375,14.859375 282.859375,14.859375 L282.679687,14.859375 C282.679687,14.859375 281.796875,17.5 280.90625,19.3828125 L275.632812,30.4609375 Z" id="Shape" fill="#1A1A1A"></path>
                <path d="M241.109375,30.6015625 C240.226562,29.421875 239.46875,28.578125 239.46875,28.578125 L239.46875,28.484375 C244.523438,27.4453125 247.046875,24.3828125 247.046875,19.953125 C247.046875,14.390625 242.835938,10.8984375 236.5,10.8984375 L224.84375,10.8984375 L224.84375,39.1875 L227.328125,39.1875 L227.328125,28.765625 L236.679688,28.765625 L244.414062,39.1875 L247.476562,39.1875 L241.109375,30.609375 L241.109375,30.6015625 Z M236.367188,26.40625 L227.328125,26.40625 L227.328125,13.2578125 L236.414062,13.2578125 C241.242188,13.2578125 244.570313,15.7109375 244.570313,19.953125 C244.570313,24.1953125 241.648438,26.4140625 236.375,26.4140625 L236.367188,26.40625 Z" id="Shape" fill="#1A1A1A"></path>
                <polygon id="Path" fill="#1A1A1A" points="273.820312 10.8984375 247.9375 10.8984375 247.9375 13.2578125 259.640625 13.2578125 259.640625 39.1875 262.125 39.1875 262.125 13.2578125 273.820312 13.2578125"></polygon>
                <polygon id="Path" fill="#1A1A1A" points="302.15625 36.828125 302.15625 10.8984375 299.671875 10.8984375 299.671875 39.1875 318.195312 39.1875 318.195312 36.828125"></polygon>
            </g>
        </g>
    </g>
</svg>