<?xml version="1.0" encoding="UTF-8"?>
<svg width="291px" height="50px" viewBox="0 0 291 50" version="1.1" xmlns="http://www.w3.org/2000/svg" xmlns:xlink="http://www.w3.org/1999/xlink">
    <title>BORACHAIN_light</title>
    <defs>
        <linearGradient x1="41.678995%" y1="25.0094733%" x2="58.321005%" y2="74.9905267%" id="linearGradient-1">
            <stop stop-color="#FF00FF" offset="0%"></stop>
            <stop stop-color="#9D00FF" offset="100%"></stop>
        </linearGradient>
        <linearGradient x1="55.0265832%" y1="81.5217391%" x2="44.9734168%" y2="18.4782609%" id="linearGradient-2">
            <stop stop-color="#00FFBE" offset="0%"></stop>
            <stop stop-color="#603CF7" offset="100%"></stop>
        </linearGradient>
        <linearGradient x1="62.5%" y1="62.5033583%" x2="37.5%" y2="37.4966417%" id="linearGradient-3">
            <stop stop-color="#00FFBE" offset="0%"></stop>
            <stop stop-color="#508CFF" offset="100%"></stop>
        </linearGradient>
        <linearGradient x1="37.5123072%" y1="37.4884333%" x2="62.520512%" y2="62.5115667%" id="linearGradient-4">
            <stop stop-color="#FF00FF" offset="0%"></stop>
            <stop stop-color="#9D00FF" offset="100%"></stop>
        </linearGradient>
    </defs>
    <g id="Page-1" stroke="none" stroke-width="1" fill="none" fill-rule="evenodd">
        <g id="Metabora-Copy" transform="translate(-950.000000, -3366.000000)" fill-rule="nonzero">
            <g id="Platform" transform="translate(0.000000, 2882.000000)">
                <g id="BORACHAIN_light" transform="translate(950.000000, 484.000000)">
                    <g id="Group" transform="translate(164.906250, 10.414062)" fill="#FFFFFF">
                        <path d="M23.7578125,11.171875 L23.7578125,10.703125 C23.40625,6.2265625 19.8125,2.359375 13.7890625,2.359375 C7.453125,2.359375 2.4921875,7.0234375 2.4921875,14.6171875 C2.4921875,22.2109375 7.453125,26.875 13.7890625,26.875 C20.125,26.875 23.40625,22.9140625 23.7578125,19.046875 L23.7578125,18.53125 L26.28125,18.53125 L26.28125,18.8125 C26.28125,23.1953125 22.421875,29.234375 13.78125,29.234375 C6.0703125,29.234375 0,23.625 0,14.6171875 C0,5.609375 6.0703125,0 13.78125,0 C22.0703125,0 26.28125,6.03125 26.28125,10.84375 L26.28125,11.171875 L23.7578125,11.171875 L23.7578125,11.171875 Z" id="Path"></path>
                        <path d="M82.0234375,22.390625 L65.5859375,22.390625 L62.546875,28.7578125 L59.84375,28.7578125 L73.296875,0.46875 L74.359375,0.46875 L87.8203125,28.7578125 L85.0625,28.7578125 L82.0234375,22.390625 L82.0234375,22.390625 Z M66.6875,20.03125 L80.9140625,20.03125 L75.6875,8.953125 C74.8046875,7.0703125 73.9140625,4.4296875 73.9140625,4.4296875 L73.734375,4.4296875 C73.734375,4.4296875 72.8515625,7.0703125 71.9609375,8.953125 L66.6875,20.03125 Z" id="Shape"></path>
                        <path d="M122.734375,0.46875 L122.734375,24.46875 L122.601563,24.46875 C122.648438,24.515625 120.382813,21.734375 118.703125,19.8984375 L101.023438,0.4765625 L99.3359375,0.4765625 L99.3359375,28.7578125 L101.820312,28.7578125 L101.820312,4.7578125 L101.90625,4.7578125 C102.085938,4.9921875 104.125,7.4921875 105.632812,9.140625 L123.539063,28.75 L125.226563,28.75 L125.226563,0.46875 L122.742188,0.46875 L122.734375,0.46875 Z" id="Path"></path>
                        <rect id="Rectangle" x="90.7265625" y="0.46875" width="2.484375" height="28.2890625"></rect>
                        <polygon id="Path" points="54.4375 0.46875 54.4375 14.328125 33.5234375 14.328125 33.5234375 0.46875 31.0390625 0.46875 31.0390625 28.7578125 33.5234375 28.7578125 33.5234375 16.6875 54.4375 16.6875 54.4375 28.7578125 56.921875 28.7578125 56.921875 0.46875"></polygon>
                    </g>
                    <g id="Group" transform="translate(47.617188, 9.796875)" fill="#FFFFFF">
                        <path d="M89.390625,29.515625 L84.0078125,29.515625 L98.1640625,0 L112.320312,29.515625 L106.9375,29.515625 L104.671875,24.921875 L91.625,24.921875 L89.3984375,29.515625 L89.390625,29.515625 Z M93.984375,19.921875 L102.210937,19.921875 L98.0546875,11.484375 L93.984375,19.921875 Z" id="Shape"></path>
                        <path d="M20.0859375,14.25 C21.1171875,12.859375 21.7265625,11.1484375 21.7265625,9.2890625 C21.7265625,4.6796875 17.9921875,0.9453125 13.3828125,0.9453125 L0,0.9453125 L0,29.515625 L14.875,29.515625 C19.5859375,29.515625 23.3984375,25.703125 23.3984375,20.9921875 C23.3984375,18.25 22.1015625,15.8046875 20.0859375,14.25 L20.0859375,14.25 Z M13.3828125,6.125 L13.3828125,6.125 C15.1328125,6.125 16.546875,7.5390625 16.546875,9.2890625 C16.546875,11.0390625 15.1328125,12.453125 13.3828125,12.453125 C13.203125,12.453125 5.3671875,12.453125 5.3671875,12.453125 L5.3515625,6.125 L13.3828125,6.125 Z M14.875,24.3671875 L5.3671875,24.3671875 L5.3671875,17.6328125 L14.875,17.6328125 C16.734375,17.6328125 18.2421875,19.140625 18.2421875,21 C18.2421875,22.859375 16.734375,24.3671875 14.875,24.3671875 L14.875,24.3671875 Z" id="Shape"></path>
                        <path d="M40.78125,0.8515625 C32.8359375,0.8515625 26.3984375,7.2890625 26.3984375,15.234375 C26.3984375,23.1796875 32.8359375,29.6171875 40.78125,29.6171875 C48.7265625,29.6171875 55.1640625,23.1796875 55.1640625,15.234375 C55.1640625,7.2890625 48.7265625,0.8515625 40.78125,0.8515625 Z M40.78125,24.1953125 C35.828125,24.1953125 31.8203125,20.1796875 31.8203125,15.234375 C31.8203125,10.2890625 35.8359375,6.2734375 40.78125,6.2734375 C45.7265625,6.2734375 49.7421875,10.2890625 49.7421875,15.234375 C49.7421875,20.1796875 45.7265625,24.1953125 40.78125,24.1953125 Z" id="Shape"></path>
                        <path d="M75.2578125,19.34375 C78.75,17.921875 81.2109375,14.5 81.2109375,10.4921875 C81.2109375,5.21875 76.9375,0.9453125 71.6640625,0.9453125 L59.2578125,0.9453125 L59.2578125,29.515625 L64.4296875,29.515625 L64.4296875,20.0078125 L69.3046875,20.0078125 L75.96875,29.515625 L82.234375,29.515625 L75.2578125,19.34375 L75.2578125,19.34375 Z M71.6640625,14.8359375 L64.4296875,14.8359375 L64.4296875,6.15625 L71.6640625,6.15625 C74.0625,6.15625 76.0078125,8.1015625 76.0078125,10.5 C76.0078125,12.8984375 74.0625,14.84375 71.6640625,14.84375 L71.6640625,14.8359375 Z" id="Shape"></path>
                    </g>
                    <g id="Group">
                        <polygon id="Path" fill="url(#linearGradient-1)" points="23.8125 43.125 23.8125 43.125 23.8125 29.3828125 35.7109375 22.5078125 35.7109375 36.25"></polygon>
                        <polygon id="Path" fill="url(#linearGradient-2)" points="0 6.875 0 43.125 11.90625 36.25 11.90625 0"></polygon>
                        <polygon id="Path" fill="url(#linearGradient-3)" points="23.8125 43.125 11.90625 36.25 0 43.125 11.90625 50"></polygon>
                        <polygon id="Path" fill="url(#linearGradient-4)" points="35.7109375 22.5078125 23.8125 15.6328125 11.90625 22.5078125 23.8125 29.3828125"></polygon>
                    </g>
                </g>
            </g>
        </g>
    </g>
</svg>