<?xml version="1.0" encoding="UTF-8"?>
<svg width="76px" height="76px" viewBox="0 0 76 76" version="1.1" xmlns="http://www.w3.org/2000/svg" xmlns:xlink="http://www.w3.org/1999/xlink">
    <title>apple</title>
    <g id="Page-1" stroke="none" stroke-width="1" fill="none" fill-rule="evenodd">
        <g id="Metabora-Copy" transform="translate(-1500.000000, -2486.000000)">
            <g id="Games2" transform="translate(0.000000, 2090.000000)">
                <g id="Socail" transform="translate(1280.000000, 396.000000)">
                    <g id="apple" transform="translate(220.000000, 0.000000)">
                        <circle id="Oval" fill="#FFFFFF" cx="38" cy="38" r="38"></circle>
                        <g id="Apple" transform="translate(22.000000, 17.000000)" fill="#000000" fill-rule="nonzero">
                            <path d="M25.7322646,20.0603987 C25.7322646,15.297199 29.6772187,13.0071992 29.860705,12.8239992 C27.6588701,9.5263994 24.1726316,9.15999943 22.8882279,9.06839943 C19.9524481,8.79359945 17.1084114,10.8087993 15.6405215,10.8087993 C14.0808885,10.8087993 11.8790536,9.06839943 9.40198939,9.15999943 C6.19098022,9.25159942 3.2552004,11.0835993 1.60382425,13.9231991 C-1.79067116,19.6939988 0.778136178,28.3043982 3.98914535,32.9759979 C5.6405215,35.2659978 7.47538388,37.8307976 9.9524481,37.7391976 C12.3377692,37.6475976 13.2552004,36.1819977 16.1909802,36.1819977 C19.0350169,36.1819977 19.9524481,37.7391976 22.4295123,37.6475976 C24.9983197,37.6475976 26.6496958,35.3575978 28.2093288,32.9759979 C30.0441912,30.3195981 30.7781362,27.7547983 30.8698793,27.5715983 C30.7781362,27.6631983 25.8240077,25.7395984 25.7322646,20.0603987" id="Path"></path>
                            <path d="M21.0533655,6.04559962 C22.3377692,4.39679973 23.2552004,2.19839986 22.979971,-6.50857105e-15 C21.1451087,0.0915999943 18.7597876,1.28239992 17.3836408,2.83959982 C16.1909802,4.21359974 15.0900628,6.50359959 15.3652921,8.70199946 C17.4753839,8.88519944 19.6772187,7.60279952 21.0533655,6.04559962" id="Path"></path>
                        </g>
                    </g>
                </g>
            </g>
        </g>
    </g>
</svg>