<svg width="174" height="24" viewBox="0 0 174 24" fill="none" xmlns="http://www.w3.org/2000/svg">
<g clip-path="url(#clip0_3498_36515)">
<path d="M20.8515 3.6135L16.548 0H4.3035L0 3.6135V20.385L4.3035 23.9985H16.548L20.8515 20.385V3.6135ZM16.548 23.496L4.3035 18.7515V0.504L16.548 5.2485V23.4975V23.496Z" fill="#00FFCC"/>
<path d="M29.9746 7.02149L33.1831 3.81299L45.9001 3.87149V16.98L42.6286 20.2515H29.9446L29.9731 7.02299L29.9746 7.02149ZM42.6721 16.959V7.12499H33.2266V16.959H42.6721Z" fill="white"/>
<path d="M66.4785 7.18654L69.6465 3.95704L76.1475 3.93604H82.6695V7.18654H69.7305V10.479C71.166 10.4655 73.323 10.458 76.2 10.458C79.077 10.458 81.234 10.452 82.6695 10.437V11.037C82.6695 11.382 82.683 11.913 82.7115 12.6315L82.7535 13.6245L77.163 13.6455C73.491 13.6455 71.325 13.659 70.662 13.6875L69.7515 13.7295V15.3645L69.7305 16.98L76.2315 16.959L82.7325 16.917V20.1255H79.524C77.73 20.1255 75.024 20.139 71.409 20.1675L66.4815 20.2095V7.18654H66.4785Z" fill="white"/>
<path d="M84.8221 7.083C85.5541 6.3525 86.6371 5.241 88.0726 3.75H101.261V10.3335L99.6661 11.9475C98.6446 12.996 98.1346 13.5555 98.1346 13.6245C98.1346 13.638 98.3341 13.6455 98.7346 13.6455C99.0106 13.6455 99.4351 13.6425 100.008 13.635C100.581 13.629 100.916 13.6245 101.012 13.6245H101.136L101.261 13.6665V16.917L101.24 20.1675H97.9891L97.9681 16.917V13.6665H88.1131V16.917L88.0921 20.1675L86.4976 20.2095C86.3461 20.2095 86.1391 20.2125 85.8766 20.22C85.6141 20.226 85.4416 20.2305 85.3591 20.2305L84.8626 20.2095C84.8341 20.181 84.8206 17.994 84.8206 13.647V7.0845L84.8221 7.083ZM97.9681 10.2915V7.062H88.1131V10.2915H97.9681Z" fill="white"/>
<path d="M103.392 5.385L103.371 3.75H119.81V5.385L119.789 7.02C119.057 7.02 117.966 7.0275 116.517 7.041C115.068 7.0545 113.984 7.062 113.267 7.062V20.208C112.895 20.1945 112.331 20.187 111.579 20.187C110.828 20.187 110.258 20.1795 109.871 20.166V13.6245L109.85 7.062C109.131 7.062 108.056 7.0545 106.62 7.041C105.185 7.0275 104.108 7.02 103.391 7.02V5.385H103.392Z" fill="white"/>
<path d="M121.941 7.16552L125.274 3.83252H135.024C135.77 4.56452 136.887 5.67452 138.378 7.16552C138.378 8.61452 138.371 10.782 138.357 13.6665C138.344 16.551 138.336 18.7185 138.336 20.1675H135.024V12.4245C135.024 12.135 135.021 11.88 135.014 11.658C135.006 11.4375 135.003 11.244 135.003 11.079V10.5615C135.003 10.548 134.934 10.6035 134.796 10.7265C134.658 10.851 134.462 11.037 134.207 11.286C133.952 11.535 133.679 11.8035 133.389 12.093L131.774 13.6875H125.252V20.1885H121.94V7.16552H121.941ZM135.026 7.22852C134.997 7.15952 133.362 7.12502 130.119 7.12502H125.255V10.3755H130.119C133.376 10.3755 135.012 10.3485 135.026 10.293C135.053 10.2105 135.068 9.69902 135.068 8.76152C135.068 7.82402 135.054 7.31252 135.026 7.23002V7.22852Z" fill="white"/>
<path d="M157.634 7.18654L160.802 3.95704L167.303 3.93604H173.825V7.18654H160.886V10.479C162.321 10.4655 164.478 10.458 167.355 10.458C170.232 10.458 172.389 10.452 173.825 10.437V11.037C173.825 11.382 173.838 11.913 173.867 12.6315L173.909 13.6245L168.318 13.6455C164.646 13.6455 162.48 13.659 161.817 13.6875L160.907 13.7295V15.3645L160.886 16.98L167.387 16.959L173.888 16.917V20.1255H170.679C168.885 20.1255 166.179 20.139 162.564 20.1675L157.637 20.2095V7.18654H157.634Z" fill="white"/>
<path d="M60.0797 20.25H52.6397L48.0452 3.81152H51.6557L55.1837 16.398H57.5357L61.0637 3.81152H64.6742L60.0797 20.25Z" fill="white"/>
<path d="M156.513 3.97363L150.071 12.2236L156.282 20.1841H151.949L147.905 15.0031L143.861 20.1841H140.765V3.97363H143.987V14.4691L152.181 3.97363H156.515H156.513Z" fill="white"/>
</g>
<defs>
<clipPath id="clip0_3498_36515">
<rect width="173.906" height="24" fill="white"/>
</clipPath>
</defs>
</svg>
