<svg width="161" height="163" viewBox="0 0 161 163" fill="none" xmlns="http://www.w3.org/2000/svg">
<g clip-path="url(#clip0_3000_15180)">
<path d="M143.72 154.6C143.72 154.6 113.02 162.22 108.43 162.22C98.5096 162.22 83.8496 155.85 78.3096 156.23C72.7696 156.62 65.1896 161.24 56.3296 159.68C38.9996 156.62 42.4196 149.72 31.6096 148.14C20.7996 146.56 -0.780374 139.74 0.559626 136.64C1.89963 133.54 26.8696 129.35 34.4796 129.71C42.0896 130.07 80.2496 127.19 96.3896 133.16C112.53 139.13 113.63 146.77 119.28 148.42C124.92 150.08 151.05 150.39 143.71 154.59L143.72 154.6Z" fill="#0066FF" stroke="#0066FF" stroke-linecap="round" stroke-linejoin="round"/>
<path d="M91.1697 65.1799C85.3797 57.6899 71.6697 58.0799 63.9197 61.3399C48.8097 67.6799 44.0097 73.8699 34.5597 91.1299C29.4597 100.45 24.9797 116.94 24.0897 125.33C15.8697 129.73 18.4797 135.3 18.4797 135.3C18.4797 135.3 31.6197 138.18 39.8197 139.18C53.3897 140.83 58.6997 117.49 61.3097 117.39C62.8097 117.33 68.2597 118.22 68.2597 118.22L108.36 119.18C108.36 119.18 96.9497 72.6799 91.1597 65.1899L91.1697 65.1799Z" fill="#666666"/>
<mask id="mask0_3000_15180" style="mask-type:luminance" maskUnits="userSpaceOnUse" x="18" y="59" width="91" height="81">
<path d="M91.1697 65.1799C85.3797 57.6899 71.6697 58.0799 63.9197 61.3399C48.8097 67.6799 44.0097 73.8699 34.5597 91.1299C29.4597 100.45 24.9797 116.94 24.0897 125.33C15.8697 129.73 18.4797 135.3 18.4797 135.3C18.4797 135.3 31.6197 138.18 39.8197 139.18C53.3897 140.83 58.6997 117.49 61.3097 117.39C62.8097 117.33 68.2597 118.22 68.2597 118.22L108.36 119.18C108.36 119.18 96.9497 72.6799 91.1597 65.1899L91.1697 65.1799Z" fill="white"/>
</mask>
<g mask="url(#mask0_3000_15180)">
<g style="mix-blend-mode:multiply">
<path d="M46.5488 104.88C46.5488 104.88 41.6088 121.67 47.6188 120.51C45.2688 122.69 42.6088 124.8 40.2888 129.58C37.5388 135.23 34.5888 136.27 30.6588 136.27C26.7288 136.27 15.4588 139.71 13.7488 134.93C12.0388 130.15 21.9688 124.36 21.9688 124.36L24.3888 111.76C24.3888 111.76 39.0988 102.88 46.5588 104.88H46.5488Z" fill="#0066FF"/>
<path d="M46.5488 104.88C46.5488 104.88 41.6088 121.67 47.6188 120.51C45.2688 122.69 42.6088 124.8 40.2888 129.58C37.5388 135.23 34.5888 136.27 30.6588 136.27C26.7288 136.27 15.4588 139.71 13.7488 134.93C12.0388 130.15 21.9688 124.36 21.9688 124.36L24.3888 111.76C24.3888 111.76 39.0988 102.88 46.5588 104.88H46.5488Z" stroke="#0066FF" stroke-linecap="round" stroke-linejoin="round"/>
</g>
</g>
<path d="M91.1697 65.1799C85.3797 57.6899 71.6697 58.0799 63.9197 61.3399C48.8097 67.6799 44.0097 73.8699 34.5597 91.1299C29.4597 100.45 24.9797 116.94 24.0897 125.33C15.8697 129.73 18.4797 135.3 18.4797 135.3C18.4797 135.3 31.6197 138.18 39.8197 139.18C53.3897 140.83 58.6997 117.49 61.3097 117.39C62.8097 117.33 68.2597 118.22 68.2597 118.22L108.36 119.18C108.36 119.18 96.9497 72.6799 91.1597 65.1899L91.1697 65.1799Z" stroke="black" stroke-linecap="round" stroke-linejoin="round"/>
<path d="M29.5 137.51C29.5 137.51 39.19 139.43 41.98 134.15C45.62 127.25 53.37 115.53 64.57 115.83C75.77 116.13 105.92 115.46 108.8 118.54C111.68 121.62 76.38 138.77 56.83 140.28C44.34 141.24 29.51 137.51 29.51 137.51H29.5Z" fill="black" stroke="black" stroke-linecap="round" stroke-linejoin="round"/>
<path d="M58.509 117.86C50.389 123.53 53.549 142.13 60.569 143.56C64.129 144.29 110.459 133.69 110.459 133.69L105.369 120.22C105.369 120.22 66.629 112.19 58.509 117.86Z" fill="#404040" stroke="black" stroke-linecap="round" stroke-linejoin="round"/>
<path d="M148.339 119.56C148.339 119.56 149.309 112.55 142.099 107.73C134.889 102.91 110.719 110.85 110.719 110.85L111.249 135.61C111.249 135.61 146.409 148.79 148.349 119.57L148.339 119.56Z" fill="#404040"/>
<mask id="mask1_3000_15180" style="mask-type:luminance" maskUnits="userSpaceOnUse" x="110" y="106" width="39" height="33">
<path d="M148.339 119.56C148.339 119.56 149.309 112.55 142.099 107.73C134.889 102.91 110.719 110.85 110.719 110.85L111.249 135.61C111.249 135.61 146.409 148.79 148.349 119.57L148.339 119.56Z" fill="white"/>
</mask>
<g mask="url(#mask1_3000_15180)">
<path d="M120.049 111.979C120.049 111.979 122.069 120.749 120.769 125.169C120.769 125.169 122.839 125.939 123.419 125.169C123.999 124.399 124.559 113.979 122.579 111.979C121.689 111.079 120.049 111.979 120.049 111.979Z" fill="white" stroke="black" stroke-linecap="round" stroke-linejoin="round"/>
<path d="M124.439 111.329C124.439 111.329 126.459 120.419 125.159 124.989C125.159 124.989 127.229 125.779 127.809 124.989C128.389 124.199 128.949 113.399 126.969 111.329C126.079 110.399 124.439 111.329 124.439 111.329Z" fill="white" stroke="black" stroke-linecap="round" stroke-linejoin="round"/>
<path d="M128.908 110.959C128.908 110.959 130.928 120.049 129.628 124.619C129.628 124.619 131.698 125.409 132.278 124.619C132.858 123.829 133.418 113.029 131.438 110.959C130.548 110.029 128.908 110.959 128.908 110.959Z" fill="white" stroke="black" stroke-linecap="round" stroke-linejoin="round"/>
<g style="mix-blend-mode:multiply">
<path d="M131.609 118.749C132.589 126.179 127.589 135.609 113.609 133.199C99.9787 130.859 100.639 134.989 97.5687 131.029C94.4987 127.069 93.3587 119.459 98.4887 113.789C102.419 109.449 109.179 107.119 119.089 108.259C125.199 108.959 131.199 115.629 131.609 118.749Z" fill="#0066FF"/>
<path d="M131.609 118.749C132.589 126.179 127.589 135.609 113.609 133.199C99.9787 130.859 100.639 134.989 97.5687 131.029C94.4987 127.069 93.3587 119.459 98.4887 113.789C102.419 109.449 109.179 107.119 119.089 108.259C125.199 108.959 131.199 115.629 131.609 118.749Z" stroke="#0066FF" stroke-linecap="round" stroke-linejoin="round"/>
</g>
</g>
<path d="M148.339 119.56C148.339 119.56 149.309 112.55 142.099 107.73C134.889 102.91 110.719 110.85 110.719 110.85L111.249 135.61C111.249 135.61 146.409 148.79 148.349 119.57L148.339 119.56Z" stroke="black" stroke-linecap="round" stroke-linejoin="round"/>
<path d="M115.589 128.46C115.589 128.46 116.219 129.35 118.379 126.32C118.939 123.15 117.439 117.1 115.379 113.61C113.589 112.55 112.579 112.81 111.709 113.39C110.839 113.97 110.859 114.07 109.809 114.41C108.989 114.67 105.059 116.12 102.749 116.65C102.119 116.79 101.829 116.44 101.279 116.56C99.7291 116.9 99.2391 119.83 100.609 124.39C101.979 128.95 103.589 132.2 104.419 132.92C105.119 133.52 106.259 133.7 106.879 132.89C107.499 132.08 114.179 128.16 115.589 128.47V128.46Z" fill="#0066FF" stroke="black" stroke-linecap="round" stroke-linejoin="round"/>
<path d="M56.3281 127.4L101.108 118.52C101.108 118.52 103.058 117.78 105.308 123.77C106.438 126.78 106.498 131.39 105.038 132.29L62.1981 143.6" fill="#0000CC"/>
<path d="M56.3281 127.4L101.108 118.52C101.108 118.52 103.058 117.78 105.308 123.77C106.438 126.78 106.498 131.39 105.038 132.29L62.1981 143.6" stroke="black" stroke-linecap="round" stroke-linejoin="round"/>
<path d="M71.2793 125.75L114.399 122.63C114.399 122.63 115.989 119.51 118.649 125.33C119.989 128.26 120.669 137.24 119.279 138.24L75.4993 141.24" fill="#0000CC"/>
<path d="M71.2793 125.75L114.399 122.63C114.399 122.63 115.989 119.51 118.649 125.33C119.989 128.26 120.669 137.24 119.279 138.24L75.4993 141.24" stroke="black" stroke-linecap="round" stroke-linejoin="round"/>
<path d="M86.7691 123.49C87.9591 123.86 91.9591 125.69 91.1491 132.71C90.1691 141.15 87.1491 142.41 85.5691 142.21C83.9891 142.01 79.5591 142.23 79.5591 142.23L70.5391 124.07C70.5391 124.07 81.9191 124.44 83.7791 123.93C85.6391 123.42 85.5791 123.13 86.7691 123.49Z" fill="#0066FF" stroke="black" stroke-linecap="round" stroke-linejoin="round"/>
<path d="M71.5973 80.7402C72.1873 80.7402 72.6673 81.2202 72.6673 81.8102L72.7373 114.75C72.7373 115.34 71.6673 115.82 71.6673 115.82C71.0773 115.82 70.5973 115.34 70.5973 114.75L70.5273 81.8102C70.5273 81.2202 71.0073 80.7402 71.5973 80.7402Z" fill="white" stroke="black" stroke-linecap="round" stroke-linejoin="round"/>
<path d="M83.0387 80.2002C83.6287 80.2002 84.1087 80.6802 84.1087 81.2702L84.1787 110.15C84.1787 110.74 83.6987 111.22 83.1087 111.22C82.5187 111.22 82.0387 110.74 82.0387 110.15L81.9688 81.2702C81.9688 80.6802 82.4487 80.2002 83.0387 80.2002Z" fill="white" stroke="black" stroke-linecap="round" stroke-linejoin="round"/>
<path d="M125.218 152.3C125.218 152.3 126.098 156.25 125.218 157.13C124.338 158.01 121.538 159.85 117.318 159.67C113.098 159.49 110.648 157.74 109.948 156.78C109.248 155.82 110.828 152.3 110.828 152.3C110.828 152.3 116.878 149.4 125.218 152.3Z" fill="#282D46" stroke="black" stroke-linecap="round" stroke-linejoin="round"/>
<path d="M102.488 149.52C102.488 149.52 103.228 153.11 102.488 153.91C101.748 154.71 99.3782 156.38 95.8282 156.22C92.2782 156.06 90.2082 154.46 89.6182 153.59C89.0282 152.72 90.3982 148.05 90.3982 148.05C90.3982 148.05 95.4682 146.88 102.488 149.51V149.52Z" fill="#282D46" stroke="black" stroke-linecap="round" stroke-linejoin="round"/>
<path d="M147.138 147.46C147.138 147.46 147.828 151.77 147.138 152.57C146.448 153.37 144.248 154.33 140.958 154.17C137.658 154.01 135.738 153.13 135.188 152.26C134.638 151.39 135.878 147.47 135.878 147.47C135.878 147.47 140.618 144.84 147.148 147.47L147.138 147.46Z" fill="#282D46" stroke="black" stroke-linecap="round" stroke-linejoin="round"/>
<path d="M149.048 141.67C149.048 141.67 149.168 144.03 148.048 146.95C147.838 147.5 121.388 155.06 117.058 154.58C110.578 154.53 92.9984 148.93 89.6084 148.35C88.8884 148.23 88.4584 147.06 88.3684 146.33L87.8184 141.91L149.048 141.67Z" fill="#CCCCCC"/>
<mask id="mask2_3000_15180" style="mask-type:luminance" maskUnits="userSpaceOnUse" x="87" y="141" width="63" height="14">
<path d="M149.048 141.67C149.048 141.67 149.168 144.03 148.048 146.95C147.838 147.5 121.388 155.06 117.058 154.58C110.578 154.53 92.9984 148.93 89.6084 148.35C88.8884 148.23 88.4584 147.06 88.3684 146.33L87.8184 141.91L149.048 141.67Z" fill="white"/>
</mask>
<g mask="url(#mask2_3000_15180)">
<g style="mix-blend-mode:multiply" opacity="0.8">
<path d="M116.028 147.9L114.418 135.3L152.288 137.64C152.438 140.05 152.688 141.08 152.958 142.5C153.038 142.94 151.668 143.69 151.228 143.6C151.228 143.6 120.878 151.49 119.288 151.65C117.698 151.81 116.498 151.58 116.498 151.58C116.498 152.73 116.498 153.76 116.638 154.49C116.718 154.93 116.318 155.31 115.878 155.22L84.0678 148.36L81.7578 138.25L116.028 147.91V147.9Z" fill="#0066FF"/>
<path d="M116.028 147.9L114.418 135.3L152.288 137.64C152.438 140.05 152.688 141.08 152.958 142.5C153.038 142.94 151.668 143.69 151.228 143.6C151.228 143.6 120.878 151.49 119.288 151.65C117.698 151.81 116.498 151.58 116.498 151.58C116.498 152.73 116.498 153.76 116.638 154.49C116.718 154.93 116.318 155.31 115.878 155.22L84.0678 148.36L81.7578 138.25L116.028 147.91V147.9Z" stroke="#0066FF" stroke-linecap="round" stroke-linejoin="round"/>
</g>
</g>
<path d="M149.048 141.67C149.048 141.67 149.168 144.03 148.048 146.95C147.838 147.5 121.388 155.06 117.058 154.58C110.578 154.53 92.9984 148.93 89.6084 148.35C88.8884 148.23 88.4584 147.06 88.3684 146.33L87.8184 141.91L149.048 141.67Z" stroke="black" stroke-linecap="round" stroke-linejoin="round"/>
<path d="M87.5878 143.45C87.5878 143.45 84.9178 143.81 85.1578 134C85.3378 126.79 85.7278 127.41 85.7278 127.41C85.7278 127.41 103.558 122.34 125.108 120.78C125.108 120.78 148.478 122.22 153.418 125.55C153.418 125.55 153.738 135.08 150.768 141.98C150.768 141.98 121.488 149.99 117.858 149.81C114.228 149.62 87.5878 143.45 87.5878 143.45Z" fill="#CCCCCC"/>
<mask id="mask3_3000_15180" style="mask-type:luminance" maskUnits="userSpaceOnUse" x="85" y="120" width="69" height="30">
<path d="M87.5878 143.45C87.5878 143.45 84.9178 143.81 85.1578 134C85.3378 126.79 85.7278 127.41 85.7278 127.41C85.7278 127.41 103.558 122.34 125.108 120.78C125.108 120.78 148.478 122.22 153.418 125.55C153.418 125.55 153.738 135.08 150.768 141.98C150.768 141.98 121.488 149.99 117.858 149.81C114.228 149.62 87.5878 143.45 87.5878 143.45Z" fill="white"/>
</mask>
<g mask="url(#mask3_3000_15180)">
<path d="M138.829 149.82L135.229 149.72L142.399 128.17C142.539 127.74 142.519 127.28 142.339 126.86L140.179 121.9L143.719 122.28L145.849 126.28C146.079 126.72 146.129 127.23 145.979 127.7L138.829 149.83V149.82Z" fill="#579CA0"/>
<path d="M144.158 149.55L141.008 149.46L148.228 127.33C148.388 126.83 148.328 126.29 148.068 125.84L146.168 122.58L149.308 122.82L151.078 125.22C151.428 125.69 151.528 126.3 151.348 126.86L144.138 149.55H144.158Z" fill="#C86692"/>
<g style="mix-blend-mode:multiply" opacity="0.8">
<path d="M119.609 155.38L87.5586 156.72L84.0586 127.17C84.0586 127.17 113.209 133.02 114.109 133.22C115.009 133.42 117.139 134.41 117.259 136.28C117.469 139.54 116.499 153.63 119.599 155.38H119.609Z" fill="#0066FF"/>
<path d="M119.609 155.38L87.5586 156.72L84.0586 127.17C84.0586 127.17 113.209 133.02 114.109 133.22C115.009 133.42 117.139 134.41 117.259 136.28C117.469 139.54 116.499 153.63 119.599 155.38H119.609Z" stroke="#0066FF" stroke-linecap="round" stroke-linejoin="round"/>
</g>
</g>
<path d="M87.5878 143.45C87.5878 143.45 84.9178 143.81 85.1578 134C85.3378 126.79 85.7278 127.41 85.7278 127.41C85.7278 127.41 103.558 122.34 125.108 120.78C125.108 120.78 148.478 122.22 153.418 125.55C153.418 125.55 153.738 135.08 150.768 141.98C150.768 141.98 121.488 149.99 117.858 149.81C114.228 149.62 87.5878 143.45 87.5878 143.45Z" stroke="black" stroke-linecap="round" stroke-linejoin="round"/>
<path d="M130.599 125.33C133.57 125.33 135.979 124.918 135.979 124.41C135.979 123.902 133.57 123.49 130.599 123.49C127.627 123.49 125.219 123.902 125.219 124.41C125.219 124.918 127.627 125.33 130.599 125.33Z" fill="black" stroke="black" stroke-linecap="round" stroke-linejoin="round"/>
<path d="M137.969 114.74C144.364 114.74 149.549 109.556 149.549 103.16C149.549 96.7646 144.364 91.5801 137.969 91.5801C131.573 91.5801 126.389 96.7646 126.389 103.16C126.389 109.556 131.573 114.74 137.969 114.74Z" fill="#EF4D75" stroke="black" stroke-linecap="round" stroke-linejoin="round"/>
<path d="M137.969 114.74C144.364 114.74 149.549 109.556 149.549 103.16C149.549 96.7646 144.364 91.5801 137.969 91.5801C131.573 91.5801 126.389 96.7646 126.389 103.16C126.389 109.556 131.573 114.74 137.969 114.74Z" fill="#EE4D75"/>
<mask id="mask4_3000_15180" style="mask-type:luminance" maskUnits="userSpaceOnUse" x="126" y="91" width="24" height="24">
<path d="M137.969 114.74C144.364 114.74 149.549 109.556 149.549 103.16C149.549 96.7646 144.364 91.5801 137.969 91.5801C131.573 91.5801 126.389 96.7646 126.389 103.16C126.389 109.556 131.573 114.74 137.969 114.74Z" fill="white"/>
</mask>
<g mask="url(#mask4_3000_15180)">
<g style="mix-blend-mode:multiply" opacity="0.8">
<path d="M145.709 112.68C145.709 112.68 136.879 114.96 132.039 105.6C127.199 96.24 136.009 90.46 136.009 90.46C136.009 90.46 125.389 87.93 122.469 98.18C119.549 108.43 124.159 114.38 130.759 117.25C137.359 120.12 142.879 118.17 145.709 112.68Z" fill="#0066FF"/>
<path d="M145.709 112.68C145.709 112.68 136.879 114.96 132.039 105.6C127.199 96.24 136.009 90.46 136.009 90.46C136.009 90.46 125.389 87.93 122.469 98.18C119.549 108.43 124.159 114.38 130.759 117.25C137.359 120.12 142.879 118.17 145.709 112.68Z" stroke="#0066FF" stroke-linecap="round" stroke-linejoin="round"/>
</g>
</g>
<path d="M137.969 114.74C144.364 114.74 149.549 109.556 149.549 103.16C149.549 96.7646 144.364 91.5801 137.969 91.5801C131.573 91.5801 126.389 96.7646 126.389 103.16C126.389 109.556 131.573 114.74 137.969 114.74Z" stroke="black" stroke-linecap="round" stroke-linejoin="round"/>
<path d="M127.678 124.971L132.168 112.111C132.578 111.051 137.168 112.661 136.758 113.721L132.898 124.691C132.898 124.691 130.848 125.921 127.688 124.981L127.678 124.971Z" fill="#CCCCCC"/>
<mask id="mask5_3000_15180" style="mask-type:luminance" maskUnits="userSpaceOnUse" x="127" y="111" width="10" height="15">
<path d="M127.678 124.971L132.168 112.111C132.578 111.051 137.168 112.661 136.758 113.721L132.898 124.691C132.898 124.691 130.848 125.921 127.688 124.981L127.678 124.971Z" fill="white"/>
</mask>
<g mask="url(#mask5_3000_15180)">
<path d="M129.479 126.57L134.559 111.08" stroke="white" stroke-linecap="round" stroke-linejoin="round"/>
<path d="M130.369 127.28L135.749 110.95" stroke="#808390" stroke-linecap="round" stroke-linejoin="round"/>
</g>
<path d="M127.678 124.971L132.168 112.111C132.578 111.051 137.168 112.661 136.758 113.721L132.898 124.691C132.898 124.691 130.848 125.921 127.688 124.981L127.678 124.971Z" stroke="black" stroke-linecap="round" stroke-linejoin="round"/>
<path d="M146.328 103.021C146.328 103.021 147.028 97.3005 141.078 94.7705" stroke="white" stroke-linecap="round" stroke-linejoin="round"/>
<path d="M112.568 122.59C114.608 122.53 119.998 122.66 120.808 124.26C121.168 124.96 121.158 127.77 120.238 128.19C118.758 128.86 116.328 129.37 112.438 129.37C108.588 129.37 106.428 129.04 104.678 127.89C103.868 127.36 104.468 124.88 104.588 124.4C104.948 123.04 110.528 122.65 112.568 122.59Z" fill="#808080"/>
<mask id="mask6_3000_15180" style="mask-type:luminance" maskUnits="userSpaceOnUse" x="104" y="122" width="18" height="8">
<path d="M112.568 122.59C114.608 122.53 119.998 122.66 120.808 124.26C121.168 124.96 121.158 127.77 120.238 128.19C118.758 128.86 116.328 129.37 112.438 129.37C108.588 129.37 106.428 129.04 104.678 127.89C103.868 127.36 104.468 124.88 104.588 124.4C104.948 123.04 110.528 122.65 112.568 122.59Z" fill="white"/>
</mask>
<g mask="url(#mask6_3000_15180)">
<g style="mix-blend-mode:multiply" opacity="0.8">
<path d="M111.158 126.041C111.158 126.041 110.878 128.901 111.128 129.981C111.128 129.981 103.858 129.661 103.648 126.901C103.438 124.141 103.648 124.021 103.648 124.021C103.648 124.021 104.138 125.331 111.158 126.041Z" fill="#0066FF"/>
<path d="M111.158 126.041C111.158 126.041 110.878 128.901 111.128 129.981C111.128 129.981 103.858 129.661 103.648 126.901C103.438 124.141 103.648 124.021 103.648 124.021C103.648 124.021 104.138 125.331 111.158 126.041Z" stroke="#0066FF" stroke-linecap="round" stroke-linejoin="round"/>
</g>
</g>
<path d="M112.568 122.59C114.608 122.53 119.998 122.66 120.808 124.26C121.168 124.96 121.158 127.77 120.238 128.19C118.758 128.86 116.328 129.37 112.438 129.37C108.588 129.37 106.428 129.04 104.678 127.89C103.868 127.36 104.468 124.88 104.588 124.4C104.948 123.04 110.528 122.65 112.568 122.59Z" stroke="black" stroke-linecap="round" stroke-linejoin="round"/>
<path d="M119.767 124.971C119.767 124.971 118.287 125.541 115.107 125.701" stroke="white" stroke-linecap="round" stroke-linejoin="round"/>
<path d="M75.1082 125.99C70.5282 123.54 64.8082 123.43 57.5182 123.96C49.1582 124.57 48.3182 126.78 46.9782 128.13C45.6382 129.48 44.9382 134.81 45.8982 141.55C46.8782 148.47 50.8382 150.11 56.1882 153.27C58.2382 154.48 68.0082 158.83 74.9082 152.68C86.5082 147.79 82.6982 130.06 75.1082 125.99Z" fill="#404040"/>
<mask id="mask7_3000_15180" style="mask-type:luminance" maskUnits="userSpaceOnUse" x="45" y="123" width="38" height="33">
<path d="M75.1082 125.99C70.5282 123.54 64.8082 123.43 57.5182 123.96C49.1582 124.57 48.3182 126.78 46.9782 128.13C45.6382 129.48 44.9382 134.81 45.8982 141.55C46.8782 148.47 50.8382 150.11 56.1882 153.27C58.2382 154.48 68.0082 158.83 74.9082 152.68C86.5082 147.79 82.6982 130.06 75.1082 125.99Z" fill="white"/>
</mask>
<g mask="url(#mask7_3000_15180)">
<path d="M47.4483 125.64C49.2183 122.21 48.4383 124.34 56.3183 123.66C62.5083 123.12 73.4383 123.91 75.0983 130.3C77.5983 131.44 79.1983 134.22 79.6883 136.64C80.2183 139.26 80.6483 145.78 77.3483 148.33C74.5783 155.77 70.0083 158.4 62.1883 155.76C51.9383 152.3 53.9283 147.57 52.3883 144.53C49.4283 138.71 45.6783 129.06 47.4483 125.64Z" fill="#808080" stroke="black" stroke-linecap="round" stroke-linejoin="round"/>
<path d="M46.9776 128.13C48.7476 124.7 52.8677 126.09 60.7477 125.4C68.8677 124.69 74.6976 130.82 75.1376 141.22C75.5776 151.62 69.6277 158.8 59.3777 155.34C49.1277 151.88 51.1177 147.15 49.5777 144.11C46.6177 138.29 45.2076 131.56 46.9776 128.13Z" fill="white" stroke="black" stroke-linecap="round" stroke-linejoin="round"/>
<path d="M46.1486 129.711C47.9186 126.281 49.7085 129.031 57.5686 128.131C65.6286 127.211 71.7686 131.041 72.1486 143.231C72.4686 153.861 67.0886 158.801 56.8386 155.341C46.5886 151.881 48.1286 149.161 46.5886 146.121C43.6286 140.301 44.3886 133.131 46.1586 129.711H46.1486Z" fill="#0066FF" stroke="black" stroke-linecap="round" stroke-linejoin="round"/>
</g>
<path d="M75.1082 125.99C70.5282 123.54 64.8082 123.43 57.5182 123.96C49.1582 124.57 48.3182 126.78 46.9782 128.13C45.6382 129.48 44.9382 134.81 45.8982 141.55C46.8782 148.47 50.8382 150.11 56.1882 153.27C58.2382 154.48 68.0082 158.83 74.9082 152.68C86.5082 147.79 82.6982 130.06 75.1082 125.99Z" stroke="black" stroke-linecap="round" stroke-linejoin="round"/>
<path d="M102.019 140.29C102.149 143.08 104.039 145.09 106.289 145.01C108.539 144.93 109.869 142.64 109.779 139.85C109.689 137.06 107.779 134.85 105.519 134.93C103.269 135.01 101.829 136.24 102.019 140.29Z" fill="#191919" stroke="black" stroke-linecap="round" stroke-linejoin="round"/>
<path d="M91.9886 137.12C91.7186 139.05 93.6186 139.18 95.5786 139.73C97.5386 140.28 98.6186 140.67 99.0886 139.1C99.8786 136.49 98.3586 133.71 96.3986 133.17C94.4386 132.62 92.3686 134.37 91.9886 137.13V137.12Z" fill="#191919" stroke="black" stroke-linecap="round" stroke-linejoin="round"/>
<path d="M109.677 148.35C109.677 148.35 107.277 154.72 103.567 153.71C98.9375 152.45 102.427 146.87 102.427 146.87L109.677 148.35Z" fill="#EF4D75"/>
<mask id="mask8_3000_15180" style="mask-type:luminance" maskUnits="userSpaceOnUse" x="101" y="146" width="9" height="8">
<path d="M109.677 148.35C109.677 148.35 107.277 154.72 103.567 153.71C98.9375 152.45 102.427 146.87 102.427 146.87L109.677 148.35Z" fill="white"/>
</mask>
<g mask="url(#mask8_3000_15180)">
<g style="mix-blend-mode:multiply" opacity="0.5">
<path d="M107.298 146.351C107.298 146.351 104.988 154.311 101.248 152.991C97.5082 151.671 101.248 145.101 101.248 145.101L107.298 146.351Z" fill="#0066FF"/>
<path d="M107.298 146.351C107.298 146.351 104.988 154.311 101.248 152.991C97.5082 151.671 101.248 145.101 101.248 145.101L107.298 146.351Z" stroke="#0066FF" stroke-linecap="round" stroke-linejoin="round"/>
</g>
</g>
<path d="M109.677 148.35C109.677 148.35 107.277 154.72 103.567 153.71C98.9375 152.45 102.427 146.87 102.427 146.87L109.677 148.35Z" stroke="black" stroke-linecap="round" stroke-linejoin="round"/>
<path d="M160.189 98.1204C161.069 101.14 160.059 103.51 157.179 104.32C154.839 104.98 152.539 104 151.339 103.83C150.139 103.65 147.019 98.2504 148.419 96.2304C149.819 94.2204 159.159 94.5704 160.199 98.1204H160.189Z" fill="white" stroke="black" stroke-linecap="round" stroke-linejoin="round"/>
<path d="M155.618 99.6705C156.018 103.141 153.928 107.581 150.958 108.541C147.988 109.501 145.458 107.421 145.238 106.041C144.838 103.511 144.418 91.9605 144.748 91.2805C145.078 90.6005 154.258 88.0605 155.618 99.6705Z" fill="white"/>
<mask id="mask9_3000_15180" style="mask-type:luminance" maskUnits="userSpaceOnUse" x="144" y="90" width="12" height="19">
<path d="M155.618 99.6705C156.018 103.141 153.928 107.581 150.958 108.541C147.988 109.501 145.458 107.421 145.238 106.041C144.838 103.511 144.418 91.9605 144.748 91.2805C145.078 90.6005 154.258 88.0605 155.618 99.6705Z" fill="white"/>
</mask>
<g mask="url(#mask9_3000_15180)">
<g style="mix-blend-mode:multiply" opacity="0.5">
<path d="M150.148 102.811C150.148 102.811 150.278 108.921 154.658 107.631C154.658 107.631 148.568 113.131 144.998 107.631C141.428 102.131 150.138 102.811 150.138 102.811H150.148Z" fill="#0066FF"/>
<path d="M150.148 102.811C150.148 102.811 150.278 108.921 154.658 107.631C154.658 107.631 148.568 113.131 144.998 107.631C141.428 102.131 150.138 102.811 150.138 102.811H150.148Z" stroke="#0066FF" stroke-linecap="round" stroke-linejoin="round"/>
</g>
</g>
<path d="M155.618 99.6705C156.018 103.141 153.928 107.581 150.958 108.541C147.988 109.501 145.458 107.421 145.238 106.041C144.838 103.511 144.418 91.9605 144.748 91.2805C145.078 90.6005 154.258 88.0605 155.618 99.6705Z" stroke="black" stroke-linecap="round" stroke-linejoin="round"/>
<path d="M122.398 87.2705C127.008 83.7405 131.138 86.7105 131.138 86.7105C131.788 87.2605 133.168 86.7905 133.618 87.4005C130.578 89.1505 126.118 92.3305 126.728 95.7405C127.218 98.5005 130.448 100.92 133.318 102.55C131.558 104.22 128.338 105.13 123.428 103.61C116.268 101.39 117.448 91.0305 122.398 87.2505V87.2705Z" fill="white"/>
<mask id="mask10_3000_15180" style="mask-type:luminance" maskUnits="userSpaceOnUse" x="118" y="85" width="16" height="20">
<path d="M122.398 87.2705C127.008 83.7405 131.138 86.7105 131.138 86.7105C131.788 87.2605 133.168 86.7905 133.618 87.4005C130.578 89.1505 126.118 92.3305 126.728 95.7405C127.218 98.5005 130.448 100.92 133.318 102.55C131.558 104.22 128.338 105.13 123.428 103.61C116.268 101.39 117.448 91.0305 122.398 87.2505V87.2705Z" fill="white"/>
</mask>
<g mask="url(#mask10_3000_15180)">
<g style="mix-blend-mode:multiply" opacity="0.5">
<path d="M119.768 87.8203C119.768 87.8203 120.538 92.1603 126.398 91.5803C126.398 91.5803 121.368 99.1403 125.678 104.55C125.678 104.55 118.618 107.32 117.448 98.2803C116.278 89.2403 119.778 87.8203 119.778 87.8203H119.768Z" fill="#0066FF"/>
<path d="M119.768 87.8203C119.768 87.8203 120.538 92.1603 126.398 91.5803C126.398 91.5803 121.368 99.1403 125.678 104.55C125.678 104.55 118.618 107.32 117.448 98.2803C116.278 89.2403 119.778 87.8203 119.778 87.8203H119.768Z" stroke="#0066FF" stroke-linecap="round" stroke-linejoin="round"/>
</g>
</g>
<path d="M122.398 87.2705C127.008 83.7405 131.138 86.7105 131.138 86.7105C131.788 87.2605 133.168 86.7905 133.618 87.4005C130.578 89.1505 126.118 92.3305 126.728 95.7405C127.218 98.5005 130.448 100.92 133.318 102.55C131.558 104.22 128.338 105.13 123.428 103.61C116.268 101.39 117.448 91.0305 122.398 87.2505V87.2705Z" stroke="black" stroke-linecap="round" stroke-linejoin="round"/>
<path d="M133.267 92.7202C128.897 95.2602 130.737 97.5402 132.257 97.7502C135.987 98.2602 137.897 98.3802 138.527 100.92C139.547 105.06 135.577 106.22 131.377 105.84C127.327 105.48 125.187 104.71 123.747 103.45C122.107 102.01 121.097 99.5102 121.407 96.7702C121.727 93.9202 123.487 92.1102 126.307 89.1502C130.307 84.9502 136.197 82.9502 139.637 83.6602C147.427 85.2602 150.207 87.1302 152.237 95.8502C153.317 100.46 153.427 103.72 150.817 105.21C149.017 106.24 144.597 104.78 143.717 103.17C142.067 100.16 144.687 95.8302 142.017 93.4402C140.487 92.0702 136.097 91.0902 133.267 92.7302V92.7202Z" fill="white"/>
<mask id="mask11_3000_15180" style="mask-type:luminance" maskUnits="userSpaceOnUse" x="121" y="83" width="32" height="23">
<path d="M133.267 92.7202C128.897 95.2602 130.737 97.5402 132.257 97.7502C135.987 98.2602 137.897 98.3802 138.527 100.92C139.547 105.06 135.577 106.22 131.377 105.84C127.327 105.48 125.187 104.71 123.747 103.45C122.107 102.01 121.097 99.5102 121.407 96.7702C121.727 93.9202 123.487 92.1102 126.307 89.1502C130.307 84.9502 136.197 82.9502 139.637 83.6602C147.427 85.2602 150.207 87.1302 152.237 95.8502C153.317 100.46 153.427 103.72 150.817 105.21C149.017 106.24 144.597 104.78 143.717 103.17C142.067 100.16 144.687 95.8302 142.017 93.4402C140.487 92.0702 136.097 91.0902 133.267 92.7302V92.7202Z" fill="white"/>
</mask>
<g mask="url(#mask11_3000_15180)">
<g style="mix-blend-mode:multiply" opacity="0.5">
<path d="M137.148 105.901C137.148 105.901 134.018 105.591 133.618 103.881C132.708 100.001 129.068 101.641 127.678 100.001C125.998 98.0207 125.218 92.0007 135.158 91.0907C141.538 90.5107 142.688 94.9907 143.288 97.1907C143.888 99.3807 140.958 104.651 148.378 105.591C148.378 105.591 145.188 103.261 145.398 101.191C146.348 91.9607 143.908 88.3607 139.878 86.5707C135.858 84.7807 133.408 83.1907 126.378 85.5907C119.358 87.9907 117.288 98.7007 121.018 103.021C122.628 104.881 137.138 105.911 137.138 105.911L137.148 105.901Z" fill="#0066FF"/>
<path d="M137.148 105.901C137.148 105.901 134.018 105.591 133.618 103.881C132.708 100.001 129.068 101.641 127.678 100.001C125.998 98.0207 125.218 92.0007 135.158 91.0907C141.538 90.5107 142.688 94.9907 143.288 97.1907C143.888 99.3807 140.958 104.651 148.378 105.591C148.378 105.591 145.188 103.261 145.398 101.191C146.348 91.9607 143.908 88.3607 139.878 86.5707C135.858 84.7807 133.408 83.1907 126.378 85.5907C119.358 87.9907 117.288 98.7007 121.018 103.021C122.628 104.881 137.138 105.911 137.138 105.911L137.148 105.901Z" stroke="#0066FF" stroke-linecap="round" stroke-linejoin="round"/>
</g>
</g>
<path d="M133.267 92.7202C128.897 95.2602 130.737 97.5402 132.257 97.7502C135.987 98.2602 137.897 98.3802 138.527 100.92C139.547 105.06 135.577 106.22 131.377 105.84C127.327 105.48 125.187 104.71 123.747 103.45C122.107 102.01 121.097 99.5102 121.407 96.7702C121.727 93.9202 123.487 92.1102 126.307 89.1502C130.307 84.9502 136.197 82.9502 139.637 83.6602C147.427 85.2602 150.207 87.1302 152.237 95.8502C153.317 100.46 153.427 103.72 150.817 105.21C149.017 106.24 144.597 104.78 143.717 103.17C142.067 100.16 144.687 95.8302 142.017 93.4402C140.487 92.0702 136.097 91.0902 133.267 92.7302V92.7202Z" stroke="black" stroke-linecap="round" stroke-linejoin="round"/>
<path d="M137.76 72.2999L108.21 63.4199L7.76953 103.16L11.6895 123.66L137.76 72.2999Z" fill="#0066FF"/>
<mask id="mask12_3000_15180" style="mask-type:luminance" maskUnits="userSpaceOnUse" x="4" y="18" width="134" height="106">
<path d="M137.559 72.2998L137.759 21.7998L4.45898 18.5498V92.6398L11.479 123.66L137.559 72.2998Z" fill="white"/>
</mask>
<g mask="url(#mask12_3000_15180)">
<path d="M89.6591 117.379L68.0591 118.209C68.0591 118.209 62.6091 117.329 61.1091 117.379C58.4991 117.479 53.8891 125.609 40.3891 123.479C34.5491 122.559 28.9391 132.319 28.9391 132.319C28.9391 132.319 16.5491 125.169 24.7791 120.769C25.6691 112.389 30.3091 100.849 34.5591 91.1195C44.5991 68.1795 60.3991 62.8395 63.9191 61.3295C68.8391 59.2195 65.6091 58.5695 72.7691 58.3595C78.8891 58.1795 86.7891 61.1095 89.2691 63.6395C89.2691 63.6395 98.8891 75.1695 100.839 92.6295C102.799 110.099 104.169 118.209 89.6591 117.369V117.379Z" fill="#9966FF"/>
<mask id="mask13_3000_15180" style="mask-type:luminance" maskUnits="userSpaceOnUse" x="21" y="58" width="82" height="75">
<path d="M89.6591 117.379L68.0591 118.209C68.0591 118.209 62.6091 117.329 61.1091 117.379C58.4991 117.479 53.8891 125.609 40.3891 123.479C34.5491 122.559 28.9391 132.319 28.9391 132.319C28.9391 132.319 16.5491 125.169 24.7791 120.769C25.6691 112.389 30.3091 100.849 34.5591 91.1195C44.5991 68.1795 60.3991 62.8395 63.9191 61.3295C68.8391 59.2195 65.6091 58.5695 72.7691 58.3595C78.8891 58.1795 86.7891 61.1095 89.2691 63.6395C89.2691 63.6395 98.8891 75.1695 100.839 92.6295C102.799 110.099 104.169 118.209 89.6591 117.369V117.379Z" fill="white"/>
</mask>
<g mask="url(#mask13_3000_15180)">
<g style="mix-blend-mode:multiply">
<path d="M66.0596 68.7494C66.0596 68.7494 59.4296 68.3094 55.5696 72.4594C51.6996 76.6194 45.0796 113.049 45.0796 113.049L18.8496 121.079C18.8496 121.079 27.3696 87.9694 37.7396 76.1994C48.1096 64.4294 53.5596 62.8194 66.0696 68.7494H66.0596Z" fill="#0066FF"/>
<path d="M66.0596 68.7494C66.0596 68.7494 59.4296 68.3094 55.5696 72.4594C51.6996 76.6194 45.0796 113.049 45.0796 113.049L18.8496 121.079C18.8496 121.079 27.3696 87.9694 37.7396 76.1994C48.1096 64.4294 53.5596 62.8194 66.0696 68.7494H66.0596Z" stroke="#0066FF" stroke-linecap="round" stroke-linejoin="round"/>
</g>
</g>
<path d="M89.6591 117.379L68.0591 118.209C68.0591 118.209 62.6091 117.329 61.1091 117.379C58.4991 117.479 53.8891 125.609 40.3891 123.479C34.5491 122.559 28.9391 132.319 28.9391 132.319C28.9391 132.319 16.5491 125.169 24.7791 120.769C25.6691 112.389 30.3091 100.849 34.5591 91.1195C44.5991 68.1795 60.3991 62.8395 63.9191 61.3295C68.8391 59.2195 65.6091 58.5695 72.7691 58.3595C78.8891 58.1795 86.7891 61.1095 89.2691 63.6395C89.2691 63.6395 98.8891 75.1695 100.839 92.6295C102.799 110.099 104.169 118.209 89.6591 117.369V117.379Z" stroke="black" stroke-linecap="round" stroke-linejoin="round"/>
<path d="M86.7993 65.929L77.7793 76.019C77.7793 76.019 74.3593 72.139 72.1093 70.319C69.8593 68.499 68.0593 66.519 67.8593 63.419C67.4093 56.689 86.8093 65.929 86.8093 65.929H86.7993Z" fill="#00FFCC" stroke="black" stroke-linecap="round" stroke-linejoin="round"/>
<path d="M71.5993 74.8799C72.1893 74.8799 72.6693 75.3599 72.6693 75.9499L72.7393 104.83C72.7393 105.42 72.2593 105.9 71.6693 105.9C71.0793 105.9 70.5993 105.42 70.5993 104.83L70.5293 75.9499C70.5293 75.3599 71.0093 74.8799 71.5993 74.8799Z" fill="#FF33CC" stroke="black" stroke-miterlimit="10"/>
<path d="M83.0387 77.1299C83.6287 77.1299 84.1087 77.6099 84.1087 78.1999L84.1787 107.08C84.1787 107.67 83.6987 108.15 83.1087 108.15C82.5187 108.15 82.0387 107.67 82.0387 107.08L81.9688 78.1999C81.9688 77.6099 82.4487 77.1299 83.0387 77.1299Z" fill="#FF33CC" stroke="black" stroke-miterlimit="10"/>
<path d="M72.0787 66.6295C72.0787 66.6295 75.1087 55.3895 62.9787 54.8195C48.2087 54.1295 43.2987 56.7095 37.6887 62.2695C34.0287 65.8995 43.3887 76.3795 43.3887 76.3795C43.3887 76.3795 46.2787 72.7495 52.2887 69.2195C52.2887 69.2195 60.5387 64.8895 68.4887 74.4395" fill="#9966FF"/>
<mask id="mask14_3000_15180" style="mask-type:luminance" maskUnits="userSpaceOnUse" x="36" y="54" width="37" height="23">
<path d="M72.0787 66.6295C72.0787 66.6295 75.1087 55.3895 62.9787 54.8195C48.2087 54.1295 43.2987 56.7095 37.6887 62.2695C34.0287 65.8995 43.3887 76.3795 43.3887 76.3795C43.3887 76.3795 46.2787 72.7495 52.2887 69.2195C52.2887 69.2195 60.5387 64.8895 68.4887 74.4395" fill="white"/>
</mask>
<g mask="url(#mask14_3000_15180)">
<g style="mix-blend-mode:multiply">
<path d="M57.5579 68.2592C57.5579 68.2592 50.6779 65.8492 45.4179 67.0192C40.1579 68.1892 36.3179 64.3592 36.9679 61.1992H34.8379C34.8379 61.1992 35.8879 73.1592 43.5079 76.4392L57.5579 68.2592Z" fill="#0066FF"/>
<path d="M57.5579 68.2592C57.5579 68.2592 50.6779 65.8492 45.4179 67.0192C40.1579 68.1892 36.3179 64.3592 36.9679 61.1992H34.8379C34.8379 61.1992 35.8879 73.1592 43.5079 76.4392L57.5579 68.2592Z" stroke="#0066FF" stroke-linecap="round" stroke-linejoin="round"/>
</g>
</g>
<path d="M72.0787 66.6295C72.0787 66.6295 75.1087 55.3895 62.9787 54.8195C48.2087 54.1295 43.2987 56.7095 37.6887 62.2695C34.0287 65.8995 43.3887 76.3795 43.3887 76.3795C43.3887 76.3795 46.2787 72.7495 52.2887 69.2195C52.2887 69.2195 60.5387 64.8895 68.4887 74.4395" stroke="black" stroke-linecap="round" stroke-linejoin="round"/>
</g>
<path d="M151.71 126.319L119.77 133.749" stroke="white" stroke-linecap="round" stroke-linejoin="round"/>
<g style="mix-blend-mode:multiply">
<path d="M74.7895 71.6195C74.7895 71.6195 96.8995 76.9395 96.1095 74.0295C95.3195 71.1195 93.7095 69.4395 93.7095 69.4395L71.7695 68.9795L74.7895 71.6195Z" fill="#0066FF"/>
<path d="M74.7895 71.6195C74.7895 71.6195 96.8995 76.9395 96.1095 74.0295C95.3195 71.1195 93.7095 69.4395 93.7095 69.4395L71.7695 68.9795L74.7895 71.6195Z" stroke="#0066FF" stroke-linecap="round" stroke-linejoin="round"/>
</g>
<path d="M83.7689 24.9698C83.7689 24.9698 83.2789 20.4998 86.1889 15.1198C88.5489 10.7698 96.0989 4.88981 102.629 11.3398C108.019 16.6598 114.499 44.3498 116.209 56.3598C117.509 65.4798 113.129 68.8998 103.949 70.0198C97.7089 70.7798 73.4889 70.3398 68.0389 69.5198C58.9689 68.1498 56.3389 66.2198 54.0989 60.9198C48.5589 47.7698 49.0889 17.9798 51.1489 8.82981C52.6589 2.14981 61.6789 -3.08019 72.7789 10.3398C76.7489 15.1398 81.4589 24.4098 81.4589 24.4098L83.7689 24.9698Z" fill="#00FFCC"/>
<mask id="mask15_3000_15180" style="mask-type:luminance" maskUnits="userSpaceOnUse" x="49" y="1" width="68" height="70">
<path d="M83.7689 24.9698C83.7689 24.9698 83.2789 20.4998 86.1889 15.1198C88.5489 10.7698 96.0989 4.88981 102.629 11.3398C108.019 16.6598 114.499 44.3498 116.209 56.3598C117.509 65.4798 113.129 68.8998 103.949 70.0198C97.7089 70.7798 73.4889 70.3398 68.0389 69.5198C58.9689 68.1498 56.3389 66.2198 54.0989 60.9198C48.5589 47.7698 49.0889 17.9798 51.1489 8.82981C52.6589 2.14981 61.6789 -3.08019 72.7789 10.3398C76.7489 15.1398 81.4589 24.4098 81.4589 24.4098L83.7689 24.9698Z" fill="white"/>
</mask>
<g mask="url(#mask15_3000_15180)">
<path d="M67.9889 72.81C57.1989 70.46 57.5289 57.9 57.4289 55.76C57.3289 53.62 56.8489 48.24 58.2589 41.71C61.6089 46.47 74.9689 60.73 110.459 73.23C107.629 77.1 78.7789 75.16 67.9889 72.81Z" fill="white"/>
<mask id="mask16_3000_15180" style="mask-type:luminance" maskUnits="userSpaceOnUse" x="57" y="41" width="54" height="35">
<path d="M67.9889 72.81C57.1989 70.46 57.5289 57.9 57.4289 55.76C57.3289 53.62 56.8489 48.24 58.2589 41.71C61.6089 46.47 74.9689 60.73 110.459 73.23C107.629 77.1 78.7789 75.16 67.9889 72.81Z" fill="white"/>
</mask>
<g mask="url(#mask16_3000_15180)">
<path d="M95.308 67.3997L88.7281 70.1897L86.858 63.2997L76.538 69.8197L76.448 57.2697L65.028 68.4797L65.808 49.6797L57.498 57.5897" stroke="black" stroke-linecap="round" stroke-linejoin="round"/>
</g>
<path d="M67.9889 72.81C57.1989 70.46 57.5289 57.9 57.4289 55.76C57.3289 53.62 56.8489 48.24 58.2589 41.71C61.6089 46.47 74.9689 60.73 110.459 73.23C107.629 77.1 78.7789 75.16 67.9889 72.81Z" stroke="black" stroke-linecap="round" stroke-linejoin="round"/>
<g style="mix-blend-mode:multiply" opacity="0.8">
<path d="M57.6487 0.5C57.6487 0.5 54.8687 3.34 55.1787 26.12C55.3187 36.28 62.1587 63.97 74.6387 70.03C74.6387 70.03 48.8987 76.08 47.9187 51.07C46.9487 26.07 37.7087 2.6 57.6487 0.5Z" fill="#0066FF"/>
<path d="M57.6487 0.5C57.6487 0.5 54.8687 3.34 55.1787 26.12C55.3187 36.28 62.1587 63.97 74.6387 70.03C74.6387 70.03 48.8987 76.08 47.9187 51.07C46.9487 26.07 37.7087 2.6 57.6487 0.5Z" stroke="#0066FF" stroke-linecap="round" stroke-linejoin="round"/>
</g>
<g style="mix-blend-mode:multiply" opacity="0.5">
<path d="M96.0991 7.96047C96.0991 7.96047 89.1391 9.18047 90.4291 27.2205C89.4691 26.8205 85.5391 25.5705 82.1991 24.5805C81.2691 21.7905 85.0791 7.61047 96.0991 7.96047Z" fill="#0066FF"/>
<path d="M96.0991 7.96047C96.0991 7.96047 89.1391 9.18047 90.4291 27.2205C89.4691 26.8205 85.5391 25.5705 82.1991 24.5805C81.2691 21.7905 85.0791 7.61047 96.0991 7.96047Z" stroke="#0066FF" stroke-linecap="round" stroke-linejoin="round"/>
</g>
</g>
<path d="M83.7689 24.9698C83.7689 24.9698 83.2789 20.4998 86.1889 15.1198C88.5489 10.7698 96.0989 4.88981 102.629 11.3398C108.019 16.6598 114.499 44.3498 116.209 56.3598C117.509 65.4798 113.129 68.8998 103.949 70.0198C97.7089 70.7798 73.4889 70.3398 68.0389 69.5198C58.9689 68.1498 56.3389 66.2198 54.0989 60.9198C48.5589 47.7698 49.0889 17.9798 51.1489 8.82981C52.6589 2.14981 61.6789 -3.08019 72.7789 10.3398C76.7489 15.1398 81.4589 24.4098 81.4589 24.4098L83.7689 24.9698Z" stroke="black" stroke-linecap="round" stroke-linejoin="round"/>
<path d="M91.709 27.8302C91.709 27.8302 88.249 25.9202 81.459 24.4102Z" fill="#00FFCC"/>
<path d="M91.709 27.8302C91.709 27.8302 88.249 25.9202 81.459 24.4102" stroke="black" stroke-linecap="round" stroke-linejoin="round"/>
<path d="M70.8981 43.6699C70.8981 43.6699 70.6481 48.4799 76.2881 50.9899" stroke="black" stroke-linecap="round" stroke-linejoin="round"/>
<path d="M111.387 50.7305C111.387 50.7305 110.658 54.6805 107.188 54.8305" stroke="black" stroke-linecap="round" stroke-linejoin="round"/>
<path d="M76.5584 30.7803C72.5784 35.6103 72.7384 43.1303 76.1984 47.5003C79.5984 51.7903 86.0184 52.2303 88.8484 49.5003C90.4684 47.9403 92.4484 44.6003 92.0184 41.2903L76.5584 30.7803Z" fill="white" stroke="black" stroke-linecap="round" stroke-linejoin="round"/>
<path d="M109.219 39.4404C111.559 43.9004 110.139 49.4304 107.729 51.9704C104.859 54.7304 101.309 53.7904 99.7486 51.5504C98.5686 49.8604 97.3386 46.3704 98.1886 42.2604L109.219 39.4404Z" fill="white" stroke="black" stroke-linecap="round" stroke-linejoin="round"/>
<path d="M87.8198 70.4299C87.8198 70.4299 86.3198 69.7699 84.3398 73.4999" stroke="black" stroke-linecap="round" stroke-linejoin="round"/>
<g style="mix-blend-mode:multiply">
<path d="M81.9698 78.21C81.9698 78.21 79.6898 95.53 79.3198 101.44C78.9998 106.52 78.8398 114.05 78.8398 114.05L82.0798 115.58L81.9698 78.21Z" fill="#0066FF"/>
<path d="M81.9698 78.21C81.9698 78.21 79.6898 95.53 79.3198 101.44C78.9998 106.52 78.8398 114.05 78.8398 114.05L82.0798 115.58L81.9698 78.21Z" stroke="#0066FF" stroke-linecap="round" stroke-linejoin="round"/>
</g>
<g style="mix-blend-mode:multiply">
<path d="M70.53 75.9502C70.53 75.9502 68.01 94.9702 67.63 100.88C67.31 105.96 66.75 115.81 66.75 115.81L70.53 115.48V75.9502Z" fill="#0066FF"/>
<path d="M70.53 75.9502C70.53 75.9502 68.01 94.9702 67.63 100.88C67.31 105.96 66.75 115.81 66.75 115.81L70.53 115.48V75.9502Z" stroke="#0066FF" stroke-linecap="round" stroke-linejoin="round"/>
</g>
<path d="M84.7994 107.63C84.7994 107.63 83.3094 105.01 79.8494 104.89C76.3894 104.77 72.3394 107.81 71.4794 112.06C70.4594 117.06 73.4894 120.82 76.3494 121.41C79.2094 122 82.2194 118.86 82.2194 118.86C82.2194 118.86 86.8794 112.83 84.7994 107.63Z" fill="white"/>
<mask id="mask17_3000_15180" style="mask-type:luminance" maskUnits="userSpaceOnUse" x="71" y="104" width="15" height="18">
<path d="M84.7994 107.63C84.7994 107.63 83.3094 105.01 79.8494 104.89C76.3894 104.77 72.3394 107.81 71.4794 112.06C70.4594 117.06 73.4894 120.82 76.3494 121.41C79.2094 122 82.2194 118.86 82.2194 118.86C82.2194 118.86 86.8794 112.83 84.7994 107.63Z" fill="white"/>
</mask>
<g mask="url(#mask17_3000_15180)">
<g style="mix-blend-mode:multiply" opacity="0.5">
<path d="M73.5891 106.58C73.5891 106.58 72.4391 110.73 78.3091 110.44C84.1791 110.15 82.5291 121.46 79.7891 122.37C77.0491 123.28 63.949 120.37 73.5891 106.58Z" fill="#0066FF"/>
<path d="M73.5891 106.58C73.5891 106.58 72.4391 110.73 78.3091 110.44C84.1791 110.15 82.5291 121.46 79.7891 122.37C77.0491 123.28 63.949 120.37 73.5891 106.58Z" stroke="#0066FF" stroke-linecap="round" stroke-linejoin="round"/>
</g>
</g>
<path d="M84.7994 107.63C84.7994 107.63 83.3094 105.01 79.8494 104.89C76.3894 104.77 72.3394 107.81 71.4794 112.06C70.4594 117.06 73.4894 120.82 76.3494 121.41C79.2094 122 82.2194 118.86 82.2194 118.86C82.2194 118.86 86.8794 112.83 84.7994 107.63Z" stroke="black" stroke-linecap="round" stroke-linejoin="round"/>
<path d="M95.7189 98.9402C95.7189 98.9402 96.7989 97.1002 98.8489 95.4802C100.899 93.8602 105.009 94.5102 105.769 100.24C106.529 105.97 99.4189 110.38 99.4189 110.38C99.4189 110.38 102.229 109.64 106.059 108.68C108.089 108.17 112.049 108.53 112.049 111.77C112.049 115.01 110.139 117.18 105.539 117.63C98.4389 118.33 96.2089 121.93 89.4489 120.1C84.2389 122.54 79.9989 121.59 78.0989 120.1C76.4989 118.85 73.7589 116.42 75.8789 112.45C77.9989 108.47 89.5489 104.86 89.5489 104.86L95.7089 98.9402H95.7189Z" fill="white" stroke="black" stroke-linecap="round" stroke-linejoin="round"/>
<g style="mix-blend-mode:multiply" opacity="0.5">
<path d="M100.039 102.1C100.039 102.1 104.349 105.81 105.819 100.94C105.819 100.94 104.169 107.27 99.419 110.37C94.669 113.47 94.769 112.1 94.769 112.1L93.709 109.64C93.709 109.64 99.859 108.44 100.029 102.1H100.039Z" fill="#0066FF"/>
<path d="M100.039 102.1C100.039 102.1 104.349 105.81 105.819 100.94C105.819 100.94 104.169 107.27 99.419 110.37C94.669 113.47 94.769 112.1 94.769 112.1L93.709 109.64C93.709 109.64 99.859 108.44 100.029 102.1H100.039Z" stroke="#0066FF" stroke-linecap="round" stroke-linejoin="round"/>
</g>
<path d="M91.7896 111.18C95.2996 111.18 96.9096 109.72 98.9996 107.34C101.09 104.96 101.32 99.4801 95.4296 100.05C91.8496 100.39 91.3496 104.14 87.0996 105.88" fill="white"/>
<path d="M91.7896 111.18C95.2996 111.18 96.9096 109.72 98.9996 107.34C101.09 104.96 101.32 99.4801 95.4296 100.05C91.8496 100.39 91.3496 104.14 87.0996 105.88" stroke="black" stroke-linecap="round" stroke-linejoin="round"/>
<path d="M87.2792 107.63C89.2792 107.93 92.1892 108.98 93.8092 110.53C95.6692 112.31 95.1092 115.59 93.2392 116.18C91.0592 116.87 87.5892 116.86 86.0592 114.39C86.0592 114.39 85.0592 116.09 83.9492 116.47" fill="white"/>
<path d="M87.2792 107.63C89.2792 107.93 92.1892 108.98 93.8092 110.53C95.6692 112.31 95.1092 115.59 93.2392 116.18C91.0592 116.87 87.5892 116.86 86.0592 114.39C86.0592 114.39 85.0592 116.09 83.9492 116.47" stroke="black" stroke-linecap="round" stroke-linejoin="round"/>
<path d="M85.0586 112.811C85.0586 112.811 85.4686 113.861 86.0586 114.391Z" fill="white"/>
<path d="M85.0586 112.811C85.0586 112.811 85.4686 113.861 86.0586 114.391" stroke="black" stroke-linecap="round" stroke-linejoin="round"/>
<path d="M75.1995 73.2303C75.1995 73.2303 64.7195 61.3803 47.5195 63.9803Z" fill="#9966FF"/>
<path d="M75.1995 73.2303C75.1995 73.2303 64.7195 61.3803 47.5195 63.9803" stroke="black" stroke-linecap="round" stroke-linejoin="round"/>
<g style="mix-blend-mode:multiply" opacity="0.5">
<path d="M85.1387 106.27C85.1387 106.27 82.0987 110.58 82.2587 111.76C82.2587 111.76 89.3387 109.1 90.4287 112.81C91.5087 116.52 94.6687 114.74 94.6687 114.74C94.6687 114.74 92.9287 117.21 89.8587 116.57C89.8587 116.57 95.8187 119.51 101.109 118.52C101.109 118.52 96.6887 121.36 89.4487 120.11C89.4487 120.11 83.2687 123.85 78.0987 120.11C72.9287 116.37 72.7687 111.19 85.1487 106.28L85.1387 106.27Z" fill="#0066FF"/>
<path d="M85.1387 106.27C85.1387 106.27 82.0987 110.58 82.2587 111.76C82.2587 111.76 89.3387 109.1 90.4287 112.81C91.5087 116.52 94.6687 114.74 94.6687 114.74C94.6687 114.74 92.9287 117.21 89.8587 116.57C89.8587 116.57 95.8187 119.51 101.109 118.52C101.109 118.52 96.6887 121.36 89.4487 120.11C89.4487 120.11 83.2687 123.85 78.0987 120.11C72.9287 116.37 72.7687 111.19 85.1487 106.28L85.1387 106.27Z" stroke="#0066FF" stroke-linecap="round" stroke-linejoin="round"/>
</g>
<g style="mix-blend-mode:multiply" opacity="0.5">
<path d="M88.5393 107.63C88.5393 107.63 92.8693 103.63 94.4393 104.4C96.0193 105.18 98.5993 106.42 100.239 104.7C100.239 104.7 98.5593 110.21 94.2393 111.04C94.2393 111.04 93.4693 108.97 88.5293 107.63H88.5393Z" fill="#0066FF"/>
<path d="M88.5393 107.63C88.5393 107.63 92.8693 103.63 94.4393 104.4C96.0193 105.18 98.5993 106.42 100.239 104.7C100.239 104.7 98.5593 110.21 94.2393 111.04C94.2393 111.04 93.4693 108.97 88.5293 107.63H88.5393Z" stroke="#0066FF" stroke-linecap="round" stroke-linejoin="round"/>
</g>
<path d="M128.68 31.5498C128.68 31.5498 127.74 42.1898 121.35 40.9898C121.35 40.9898 128.21 44.4098 127.81 51.9298C127.81 51.9298 128.69 43.1998 134.89 43.6698C134.89 43.6698 128.62 41.4598 128.69 31.5498H128.68Z" fill="#FFFF00" stroke="black" stroke-linecap="round" stroke-linejoin="round"/>
</g>
<defs>
<clipPath id="clip0_3000_15180">
<rect width="161" height="162.72" fill="white"/>
</clipPath>
</defs>
</svg>
