<svg xmlns="http://www.w3.org/2000/svg" width="80.577" height="24.67" viewBox="0 0 80.577 24.67"><path d="M-48.439,0l3.9-10.5H-42.3L-38.389,0h-2.378l-.81-2.145h-3.885L-46.256,0Zm3.667-4.013h2.52l-1.256-3.63ZM-36.893,0V-10.5h2.243V0Zm8.558,0V-10.5h2.243v4.166h4.5V-10.5h2.243V0h-2.243V-4.466h-4.5V0Zm13.822.176A2.674,2.674,0,0,1-16.6-.606a3.571,3.571,0,0,1-.7-2.443v-4.9h1.972v4.635a2.176,2.176,0,0,0,.356,1.354A1.412,1.412,0,0,0-13.8-1.5a1.671,1.671,0,0,0,.969-.251,1.544,1.544,0,0,0,.542-.662,2.212,2.212,0,0,0,.18-.9V-7.95h1.988V0h-1.83V-1.178a2.492,2.492,0,0,1-.906.953A3.033,3.033,0,0,1-14.512.176Zm10.62,0a3.084,3.084,0,0,1-1.644-.4,2.516,2.516,0,0,1-.936-.943V0H-8.317V-10.5h1.972v3.641A2.891,2.891,0,0,1-5.34-7.777a2.912,2.912,0,0,1,1.447-.349,3.175,3.175,0,0,1,2.477.977A4.267,4.267,0,0,1-.529-4.2v.3A5.5,5.5,0,0,1-.939-1.629,2.943,2.943,0,0,1-2.1-.274,3.418,3.418,0,0,1-3.892.176ZM-4.365-1.5a1.668,1.668,0,0,0,1.3-.592A2.676,2.676,0,0,0-2.539-3.9v-.3a2.468,2.468,0,0,0-.5-1.688,1.686,1.686,0,0,0-1.322-.566,2.321,2.321,0,0,0-1.016.217,1.615,1.615,0,0,0-.709.651A2.1,2.1,0,0,0-6.345-4.5V-3.6A2.524,2.524,0,0,0-6.1-2.423a1.56,1.56,0,0,0,.7.7A2.291,2.291,0,0,0-4.365-1.5Z" transform="translate(81.105 19)"></path><path d="M5.72,50.952H0v-5.72a5.72,5.72,0,0,1,9.765-4.045h0A5.72,5.72,0,0,1,5.72,50.952" transform="translate(0 -26.282)" fill="#8777e0" fill-rule="evenodd"></path><path d="M18.473.5H5.787A5.8,5.8,0,0,0,0,6.311v5.945H12.619a5.866,5.866,0,0,0,5.854-5.878Z" transform="translate(0 -0.5)" fill="#8777e0" fill-rule="evenodd"></path></svg>