<svg height="23.75" viewBox="0 0 121.54 23.75" width="121.54" xmlns="http://www.w3.org/2000/svg"><g fill-rule="evenodd"><path d="m16.933 8.557a9.117 9.117 0 0 1 12.908.956 9.549 9.549 0 0 1 .478 12.908l-7.171 7.171c-1.434-.956-3.824-2.868-2.868-4.781 1.912-2.39 4.3-4.3 6.215-6.693 1.434-1.912.478-5.737-2.39-6.215a3.982 3.982 0 0 0 -5.259 4.3c0 2.39 1.912 3.824 3.346 5.259-1.434 1.434-3.346 2.39-3.346 4.3-1.434-1.912-3.824-3.346-4.781-5.737a9.577 9.577 0 0 1 2.868-11.468z" transform="translate(-13.208 -6.319)"/><path d="m73.709 9.873c.478-1.434 1.912-.956 2.868-.956v17.683h-2.868v-1.43a6.474 6.474 0 0 1 -8.127 0 6.8 6.8 0 0 1 -.478-9.561 6.584 6.584 0 0 1 8.605-.956zm-4.3 6.215c-2.39.478-4.3 3.824-2.39 6.215a3.6 3.6 0 0 0 6.215-.478c1.431-2.391-.96-5.738-3.828-5.738z" transform="translate(-39.388 -7.635)"/><path d="m96 18.688h2.868v.956c.956-1.434 2.868-1.434 4.781-.956-.478.956-.956 1.434-.956 2.39-1.912-.478-3.824.478-3.824 1.912v7.171c-.479 1.439-1.913 1.439-2.869 1.439z" transform="translate(-56.421 -12.626)"/><path d="m116 18.529c4.781-1.912 9.561 2.868 8.605 7.649s-7.649 7.171-11 3.824c-3.824-3.346-2.39-10.517 2.39-11.473zm1.434 2.39a4.723 4.723 0 0 0 -3.346 3.346 3.659 3.659 0 0 0 3.824 4.3c1.912 0 3.824-1.434 3.824-3.346.002-2.388-2.389-4.778-4.301-4.3z" transform="translate(-64.47 -12.466)"/><path d="m143 18.756h2.868v.956a6.584 6.584 0 0 1 8.605.956 6.234 6.234 0 0 1 -.473 9.083c-1.912 2.39-5.737 2.39-8.127.956v4.3c-.478 1.434-1.912 1.434-2.868 1.434v-17.685zm6.215 2.39c-2.868.478-4.3 3.824-2.868 5.737 1.434 2.39 5.259 2.39 6.215 0 1.911-2.391-.479-5.737-3.347-5.737z" transform="translate(-80.952 -12.694)"/><path d="m177.44 19.09a6.494 6.494 0 0 1 7.649.956c-.478.478-.956 1.434-1.912 1.912a3.7 3.7 0 0 0 -5.737 1.434 3.922 3.922 0 0 0 3.346 5.259c.956 0 1.912-.478 2.868-.478a3.733 3.733 0 0 1 1.912 1.912c-3.346 2.868-9.083 1.912-10.517-2.39-1.912-2.869-.478-6.695 2.391-8.605z" transform="translate(-97.226 -12.549)"/><path d="m197.632 27.083c-1.432-4.302 1.912-9.083 6.215-9.083a7.636 7.636 0 0 1 7.171 6.215v7.171c-1.434 0-2.39 0-3.346-.956-3.346 2.39-8.605.478-10.039-3.346zm6.215-6.215a4.2 4.2 0 0 0 -2.868 6.215c1.912 2.39 5.737 1.912 6.693-.478a4.213 4.213 0 0 0 -3.825-5.737z" transform="translate(-109.291 -12.416)"/><path d="m230 18.712h2.868v.956c1.434-1.912 4.781-1.434 6.693.478 2.39-2.868 7.171-1.912 8.127 1.434.478 2.868 0 6.215 0 9.083 0 .956-1.434.956-2.868.956 0-2.868.478-5.737 0-8.605a2.187 2.187 0 0 0 -4.3 0v8.605h-2.868a57.855 57.855 0 0 0 -.478-9.083c-.478-1.912-3.824-1.434-3.824.478a51.959 51.959 0 0 0 -.478 8.605h-2.872z" transform="translate(-126.361 -12.649)"/></g></svg>