<?xml version="1.0" encoding="UTF-8"?>
<svg width="32px" height="30px" viewBox="0 0 32 30" version="1.1" xmlns="http://www.w3.org/2000/svg" xmlns:xlink="http://www.w3.org/1999/xlink">
    <title>metamask</title>
    <g id="Page-1" stroke="none" stroke-width="1" fill="none" fill-rule="evenodd">
        <g id="metamask">
            <polygon id="Fill-1" fill="#E2761B" points="20.2048 3.924 17.9088 9.364 30.3238 0.143"></polygon>
            <path d="M20.1733,3.8412 L20.1383,3.8552 L17.7013,9.6282 L30.3763,0.2142 L30.2933,0.0602 L20.1733,3.8412 Z M20.2713,3.9932 L29.7703,0.4442 L18.1163,9.1002 L20.2713,3.9932 Z" id="Fill-2" fill="#E2761B"></path>
            <polygon id="Fill-3" fill="#E4761B" points="13.9786 9.4509 11.7956 3.9239 1.6626 0.1429"></polygon>
            <path d="M1.6099,0.2142 L14.1769,9.7122 L11.8629,3.8552 L1.6949,0.0602 L1.6099,0.2142 Z M2.1989,0.4372 L11.7269,3.9932 L13.7809,9.1912 L2.1989,0.4372 Z" id="Fill-4" fill="#E4761B"></path>
            <polygon id="Fill-5" fill="#E4761B" points="22.5502 26.5824 29.6252 28.5294 31.6592 21.6284 25.8572 21.5174"></polygon>
            <path d="M22.4098,26.6355 L29.6858,28.6375 L31.7758,21.5435 L25.8588,21.4295 L25.8088,21.4285 L22.4098,26.6355 Z M22.6908,26.5295 L25.9048,21.6065 L31.5408,21.7155 L29.5648,28.4215 L22.6908,26.5295 Z" id="Fill-6" fill="#E4761B"></path>
            <polygon id="Fill-7" fill="#E4761B" points="0.3535 21.6288 2.3745 28.5288 9.4485 26.5828 6.1425 21.5168"></polygon>
            <path d="M0.2356,21.5433 L2.3136,28.6373 L9.5896,26.6353 L6.2166,21.4683 L6.1896,21.4283 L0.2356,21.5433 Z M0.4706,21.7153 L6.0956,21.6063 L9.3096,26.5293 L2.4356,28.4213 L0.4706,21.7153 Z" id="Fill-8" fill="#E4761B"></path>
            <polygon id="Fill-9" fill="#E4761B" points="9.0499 12.9575 7.0789 15.9395 14.1029 16.2515 13.8539 8.7025"></polygon>
            <path d="M7.2382,15.8581 L14.0112,16.1591 L13.7712,8.8931 L9.1172,13.0161 L7.2382,15.8581 Z M14.1942,16.3441 L6.9182,16.0211 L8.9912,12.8911 L13.9362,8.5121 L14.1942,16.3441 Z" id="Fill-10" fill="#E4761B"></path>
            <polygon id="Fill-11" fill="#E4761B" points="22.9371 12.9575 18.0711 8.6155 17.9091 16.2515 24.9211 15.9395"></polygon>
            <path d="M18.1553,8.809 L17.9993,16.159 L24.7613,15.858 L22.8703,13.016 L18.1553,8.809 Z M17.8183,16.344 L17.9873,8.422 L23.0103,12.909 L25.0813,16.021 L17.8183,16.344 Z" id="Fill-12" fill="#E4761B"></path>
            <polygon id="Fill-13" fill="#E4761B" points="9.4492 26.5827 13.6662 24.5237 10.0232 21.6787"></polygon>
            <path d="M10.0926,21.8454 L9.5556,26.4324 L13.5006,24.5064 L10.0926,21.8454 Z M9.3426,26.7334 L9.9536,21.5124 L13.8326,24.5414 L9.3426,26.7334 Z" id="Fill-14" fill="#E4761B"></path>
            <polygon id="Fill-15" fill="#E4761B" points="18.3205 24.5239 22.5505 26.5829 21.9635 21.6789"></polygon>
            <path d="M18.4867,24.5065 L22.4437,26.4325 L21.8947,21.8455 L18.4867,24.5065 Z M22.6577,26.7325 L18.1547,24.5415 L22.0327,21.5125 L22.6577,26.7325 Z" id="Fill-16" fill="#E4761B"></path>
            <polygon id="Fill-17" fill="#D7C1B3" points="22.5503 26.5827 18.3203 24.5237 18.6573 27.2817 18.6203 28.4417"></polygon>
            <path d="M18.428,24.6745 L18.745,27.2705 L18.713,28.3005 L22.346,26.5815 L18.428,24.6745 Z M18.527,28.5835 L18.569,27.2785 L18.213,24.3735 L22.755,26.5835 L18.527,28.5835 Z" id="Fill-18" fill="#D7C1B3"></path>
            <polygon id="Fill-19" fill="#D7C1B3" points="9.4492 26.5827 13.3792 28.4417 13.3542 27.2817 13.6662 24.5237"></polygon>
            <path d="M9.6533,26.5814 L13.2883,28.3004 L13.2663,27.2834 L13.5603,24.6744 L9.6533,26.5814 Z M13.4713,28.5824 L9.2453,26.5834 L13.7723,24.3744 L13.4423,27.2914 L13.4713,28.5824 Z" id="Fill-20" fill="#D7C1B3"></path>
            <polygon id="Fill-21" fill="#233447" points="13.4419 19.8574 9.9229 18.8214 12.4059 17.6864"></polygon>
            <path d="M10.1752,18.8039 L13.2772,19.7169 L12.3642,17.8029 L10.1752,18.8039 Z M13.6072,19.9979 L9.6712,18.8399 L12.4482,17.5699 L13.6072,19.9979 Z" id="Fill-22" fill="#233447"></path>
            <polygon id="Fill-23" fill="#233447" points="18.5451 19.8574 19.5811 17.6864 22.0761 18.8214"></polygon>
            <path d="M19.6232,17.8027 L18.7102,19.7167 L21.8232,18.8037 L19.6232,17.8027 Z M18.3802,19.9977 L19.5382,17.5697 L22.3292,18.8397 L18.3802,19.9977 Z" id="Fill-24" fill="#233447"></path>
            <polygon id="Fill-25" fill="#CD6116" points="9.4492 26.5827 10.0482 21.5167 6.1432 21.6297"></polygon>
            <path d="M6.3049,21.7129 L9.3899,26.3339 L9.9479,21.6079 L6.3049,21.7129 Z M9.5089,26.8309 L5.9809,21.5459 L10.1479,21.4259 L9.5089,26.8309 Z" id="Fill-26" fill="#CD6116"></path>
            <polygon id="Fill-27" fill="#CD6116" points="21.9514 21.5169 22.5504 26.5829 25.8564 21.6289"></polygon>
            <path d="M22.0513,21.6083 L22.6103,26.3343 L25.6943,21.7133 L22.0513,21.6083 Z M22.4903,26.8313 L21.8513,21.4253 L26.0193,21.5453 L22.4903,26.8313 Z" id="Fill-28" fill="#CD6116"></path>
            <polygon id="Fill-29" fill="#CD6116" points="24.921 15.9395 17.909 16.2515 18.558 19.8575 19.593 17.6865 22.089 18.8215"></polygon>
            <path d="M18.0137,16.3353 L18.5957,19.5713 L19.5507,17.5703 L22.0687,18.7163 L24.7007,16.0373 L18.0137,16.3353 Z M18.5197,20.1433 L17.8037,16.1683 L25.1417,15.8413 L22.1087,18.9283 L19.6357,17.8023 L18.5197,20.1433 Z" id="Fill-30" fill="#CD6116"></path>
            <polygon id="Fill-31" fill="#CD6116" points="9.9233 18.8218 12.4183 17.6868 13.4423 19.8578 14.1033 16.2518 7.0783 15.9398"></polygon>
            <path d="M12.4616,17.5698 L13.4046,19.5708 L13.9976,16.3348 L7.2996,16.0378 L9.9426,18.7158 L12.4616,17.5698 Z M13.4796,20.1438 L12.3756,17.8028 L9.9036,18.9278 L6.8576,15.8408 L14.2086,16.1678 L13.4796,20.1438 Z" id="Fill-32" fill="#CD6116"></path>
            <polygon id="Fill-33" fill="#E4751F" points="7.0785 15.9395 10.0235 21.6795 9.9235 18.8215"></polygon>
            <path d="M7.4197,16.4111 L9.9207,21.2861 L9.8357,18.8591 L7.4197,16.4111 Z M9.9447,21.7191 L6.9997,15.9801 L7.1417,15.8771 L10.0107,18.7841 L10.1117,21.6761 L9.9447,21.7191 Z" id="Fill-34" fill="#E4751F"></path>
            <polygon id="Fill-35" fill="#E4751F" points="22.0887 18.8218 21.9637 21.6788 24.9207 15.9398"></polygon>
            <path d="M22.1756,18.8596 L22.0696,21.2806 L24.5756,16.4176 L22.1756,18.8596 Z M22.0426,21.7196 L21.8756,21.6756 L22.0016,18.7836 L24.8576,15.8776 L24.9996,15.9796 L22.0426,21.7196 Z" id="Fill-36" fill="#E4751F"></path>
            <polygon id="Fill-37" fill="#E4751F" points="14.1032 16.2515 13.4422 19.8575 14.2652 24.1125 14.4522 18.5095"></polygon>
            <path d="M13.5318,19.8569 L14.2028,23.3259 L14.3638,18.5069 L14.0958,16.7809 L13.5318,19.8569 Z M14.1788,24.1289 L13.3518,19.8579 L14.0158,16.2359 L14.1908,16.2379 L14.5398,18.4969 L14.3538,24.1149 L14.1788,24.1289 Z" id="Fill-38" fill="#E4751F"></path>
            <polygon id="Fill-39" fill="#E4751F" points="17.5723 18.4977 17.7213 24.1117 18.5583 19.8577 17.9093 16.2517"></polygon>
            <path d="M17.9167,16.7946 L17.6597,18.5106 L17.7887,23.3126 L18.4677,19.8566 L17.9167,16.7946 Z M17.8087,24.1296 L17.6337,24.1146 L17.4837,18.4996 L17.8217,16.2386 L17.9957,16.2356 L18.6477,19.8576 L18.6447,19.8746 L17.8087,24.1296 Z" id="Fill-40" fill="#E4751F"></path>
            <polygon id="Fill-41" fill="#F6851B" points="18.5576 19.8574 17.7216 24.1124 18.3206 24.5244 21.9636 21.6794 22.0886 18.8214"></polygon>
            <path d="M17.8195,24.0722 L18.3175,24.4142 L21.8775,21.6342 L21.9945,18.9412 L18.6335,19.9272 L17.8195,24.0722 Z M18.3235,24.6332 L17.6235,24.1522 L18.4815,19.7872 L22.1825,18.7022 L22.0505,21.7232 L22.0185,21.7492 L18.3235,24.6332 Z" id="Fill-42" fill="#F6851B"></path>
            <polygon id="Fill-43" fill="#F6851B" points="9.9233 18.8218 10.0233 21.6788 13.6663 24.5238 14.2653 24.1118 13.4423 19.8578"></polygon>
            <path d="M10.1101,21.6347 L13.6701,24.4147 L14.1681,24.0717 L13.3651,19.9267 L10.0161,18.9417 L10.1101,21.6347 Z M13.6631,24.6337 L9.9361,21.7237 L9.8311,18.7027 L13.5181,19.7877 L14.3631,24.1517 L13.6631,24.6337 Z" id="Fill-44" fill="#F6851B"></path>
            <polygon id="Fill-45" fill="#C0AD9E" points="18.6199 28.4418 18.6579 27.2818 18.3449 27.0068 13.6409 27.0068 13.3549 27.2818 13.3789 28.4418 9.4489 26.5828 10.8209 27.7058 13.6039 29.6398 18.3829 29.6398 21.1779 27.7058 22.5499 26.5828"></polygon>
            <path d="M18.7126,28.2996 L18.7466,27.2426 L18.3786,26.9176 L13.6056,26.9176 L13.2656,27.2446 L13.2886,28.3006 L9.4866,26.5026 L9.3926,26.6506 L10.7706,27.7786 L13.5536,29.7116 L13.5766,29.7276 L18.4106,29.7276 L21.2336,27.7736 L22.6056,26.6506 L22.5126,26.5026 L18.7126,28.2996 Z M21.9366,26.9706 L21.1276,27.6326 L18.3556,29.5516 L13.6316,29.5516 L10.8776,27.6376 L10.0636,26.9716 L13.4706,28.5826 L13.4436,27.3186 L13.6776,27.0956 L18.3126,27.0956 L18.5676,27.3206 L18.5276,28.5826 L21.9366,26.9706 Z" id="Fill-46" fill="#C0AD9E"></path>
            <polygon id="Fill-47" fill="#161616" points="18.3205 24.5239 17.7215 24.1119 14.2655 24.1119 13.6665 24.5239 13.3545 27.2809 13.6415 27.0069 18.3455 27.0069 18.6575 27.2809"></polygon>
            <path d="M13.606,26.9185 L18.379,26.9185 L18.542,27.0615 L18.238,24.5745 L17.694,24.2005 L14.293,24.2005 L13.75,24.5735 L13.47,27.0485 L13.606,26.9185 Z M13.239,27.5135 L13.583,24.4735 L14.238,24.0235 L17.749,24.0235 L18.403,24.4735 L18.773,27.5015 L18.312,27.0955 L13.677,27.0955 L13.239,27.5135 Z" id="Fill-48" fill="#161616"></path>
            <polygon id="Fill-49" fill="#763D16" points="18.3202 9.0522 22.9372 12.9572 29.4632 14.8662 30.9102 13.1822 30.2862 12.7332 31.2842 11.8222 30.5102 11.2232 31.5092 10.4612 30.8472 9.9632 31.9082 4.8722 30.3232 0.1432"></polygon>
            <path d="M30.3685,0 L18.1785,9.048 L22.8795,13.025 L29.4925,14.967 L31.0395,13.167 L30.4265,12.725 L31.4215,11.816 L30.6555,11.224 L31.6555,10.462 L30.9455,9.926 L31.9945,4.891 L32.0005,4.866 L30.3685,0 Z M22.9795,12.878 L18.4635,9.057 L30.2785,0.287 L31.8165,4.878 L30.7505,10 L31.3635,10.463 L30.3655,11.223 L31.1475,11.828 L30.1465,12.741 L30.7795,13.198 L29.4335,14.765 L22.9795,12.878 Z" id="Fill-50" fill="#763D16"></path>
            <polygon id="Fill-51" fill="#763D16" points="0.0916 4.8726 1.1516 9.9626 0.4776 10.4616 1.4756 11.2226 0.7156 11.8226 1.7136 12.7336 1.0896 13.1826 2.5246 14.8666 9.0506 12.9576 13.6666 9.0526 1.6626 0.1426"></polygon>
            <path d="M1.618,0 L4.4408921e-16,4.867 L1.054,9.925 L0.331,10.461 L1.332,11.224 L0.579,11.817 L1.573,12.725 L0.96,13.166 L2.494,14.967 L9.075,13.042 L13.809,9.048 L1.618,0 Z M1.218,13.198 L1.853,12.741 L0.851,11.827 L1.621,11.222 L0.625,10.463 L1.25,10 L0.182,4.877 L1.709,0.287 L13.524,9.057 L9.007,12.878 L2.554,14.765 L1.218,13.198 Z" id="Fill-52" fill="#763D16"></path>
            <polygon id="Fill-53" fill="#F6851B" points="24.9208 15.9399 21.9648 21.6789 25.8568 21.6289 31.6588 21.6289 29.4628 14.8659 22.9368 12.9569"></polygon>
            <path d="M24.8191,15.9453 L21.8171,21.7693 L25.8571,21.7183 L31.7811,21.7183 L29.5471,14.8393 L29.5321,14.7953 L22.7291,12.8043 L24.8191,15.9453 Z M25.0231,15.9333 L23.1451,13.1103 L29.3931,14.9383 L31.5371,21.5403 L25.8561,21.5403 L22.1101,21.5883 L25.0231,15.9333 Z" id="Fill-54" fill="#F6851B"></path>
            <polygon id="Fill-55" fill="#F6851B" points="2.5243 14.8662 0.3533 21.6292 6.1423 21.6292 10.0233 21.6792 7.0783 15.9402 9.0503 12.9572"></polygon>
            <path d="M2.4541,14.7951 L0.2321,21.7181 L6.1411,21.7181 L10.1691,21.7691 L7.1811,15.9451 L9.2561,12.8051 L2.4541,14.7951 Z M2.5941,14.9381 L8.8431,13.1101 L6.9771,15.9341 L9.8771,21.5881 L6.1421,21.5401 L0.4741,21.5401 L2.5941,14.9381 Z" id="Fill-56" fill="#F6851B"></path>
            <polygon id="Fill-57" fill="#F6851B" points="17.9088 16.2515 18.3208 9.0525 20.2168 3.9235 11.7948 3.9235 13.6668 9.0525 14.1028 16.2515 14.2528 18.5225 14.2658 24.1125 17.7218 24.1125 17.7468 18.5225"></polygon>
            <path d="M14.3537,24.0237 L17.6337,24.0237 L17.6587,18.5217 L17.8207,16.2457 L18.2377,9.0217 L20.0897,4.0127 L11.9217,4.0127 L13.7547,9.0467 L14.1917,16.2457 L14.3407,18.5167 L14.3537,24.0237 Z M17.8097,24.2007 L14.1777,24.2007 L14.1647,18.5227 L14.0147,16.2577 L13.5787,9.0707 L11.6687,3.8357 L20.3437,3.8357 L18.4077,9.0707 L17.9967,16.2577 L17.8347,18.5287 L17.8097,24.2007 Z" id="Fill-58" fill="#F6851B"></path>
        </g>
    </g>
</svg>