<svg xmlns="http://www.w3.org/2000/svg" width="82.877" height="24.857" viewBox="0 0 82.877 24.857"><path d="M86.856,1369.145a12.428,12.428,0,1,0,12.428,12.428,12.428,12.428,0,0,0-12.428-12.428Zm5.7,17.925a.774.774,0,0,1-1.065.258c-2.919-1.784-6.592-2.187-10.918-1.2a.774.774,0,1,1-.345-1.51c4.734-1.082,8.8-.617,12.071,1.385a.775.775,0,0,1,.257,1.066Zm1.521-3.384a.97.97,0,0,1-1.333.319,16.313,16.313,0,0,0-12.384-1.448.969.969,0,1,1-.563-1.854,18.131,18.131,0,0,1,13.961,1.651.969.969,0,0,1,.319,1.332Zm.131-3.524c-4.006-2.379-10.614-2.6-14.439-1.437a1.162,1.162,0,1,1-.675-2.225c4.39-1.333,11.688-1.075,16.3,1.662a1.162,1.162,0,0,1-1.186,2Zm14.034.456c-2.146-.512-2.528-.871-2.528-1.625,0-.713.671-1.193,1.669-1.193a4.878,4.878,0,0,1,2.933,1.114.141.141,0,0,0,.106.026.139.139,0,0,0,.093-.057l1.048-1.477a.141.141,0,0,0-.027-.191,6.34,6.34,0,0,0-4.121-1.428c-2.317,0-3.935,1.391-3.935,3.38,0,2.134,1.4,2.889,3.809,3.472,2.053.473,2.4.869,2.4,1.578,0,.785-.7,1.273-1.829,1.273a4.929,4.929,0,0,1-3.417-1.412.147.147,0,0,0-.1-.034.139.139,0,0,0-.1.05l-1.175,1.4a.139.139,0,0,0,.014.195,7,7,0,0,0,4.73,1.814c2.5,0,4.11-1.364,4.11-3.476,0-1.782-1.063-2.769-3.676-3.405Zm9.329-2.116a3.366,3.366,0,0,0-2.7,1.3v-.983a.141.141,0,0,0-.14-.141h-1.921a.141.141,0,0,0-.14.141v10.923a.141.141,0,0,0,.14.141h1.921a.141.141,0,0,0,.14-.141v-3.448a3.451,3.451,0,0,0,2.7,1.223c2.011,0,4.046-1.548,4.046-4.507s-2.033-4.508-4.044-4.508Zm1.812,4.508a2.316,2.316,0,0,1-2.257,2.558,2.572,2.572,0,0,1,0-5.117,2.342,2.342,0,0,1,2.257,2.558Zm7.452-4.508a4.517,4.517,0,1,0,4.6,4.508,4.531,4.531,0,0,0-4.6-4.508Zm0,7.081a2.444,2.444,0,0,1-2.416-2.574,2.386,2.386,0,0,1,2.384-2.543,2.451,2.451,0,0,1,2.432,2.575,2.392,2.392,0,0,1-2.4,2.542Zm10.132-6.906h-2.114v-2.162a.14.14,0,0,0-.14-.141h-1.921a.141.141,0,0,0-.141.141v2.162h-.924a.14.14,0,0,0-.14.141v1.651a.141.141,0,0,0,.14.141h.924v4.273a2.286,2.286,0,0,0,2.554,2.6,3.507,3.507,0,0,0,1.8-.448.14.14,0,0,0,.071-.122v-1.573a.141.141,0,0,0-.2-.126,2.423,2.423,0,0,1-1.128.272c-.616,0-.892-.28-.892-.907v-3.971h2.114a.14.14,0,0,0,.14-.141v-1.651a.136.136,0,0,0-.138-.141Zm7.367.009v-.266c0-.781.3-1.129.971-1.129a3.244,3.244,0,0,1,1.083.2.14.14,0,0,0,.185-.134v-1.619a.141.141,0,0,0-.1-.135,5.277,5.277,0,0,0-1.6-.229c-1.775,0-2.713,1-2.713,2.889v.407h-.923a.141.141,0,0,0-.141.141v1.66a.141.141,0,0,0,.141.141h.923v6.591a.141.141,0,0,0,.14.141h1.921a.141.141,0,0,0,.141-.141v-6.59h1.794l2.748,6.589c-.312.692-.619.83-1.038.83a2.216,2.216,0,0,1-1.06-.3.143.143,0,0,0-.112-.01.142.142,0,0,0-.083.076l-.651,1.429a.14.14,0,0,0,.061.182,4.045,4.045,0,0,0,2.052.525c1.419,0,2.2-.661,2.894-2.439l3.333-8.614a.141.141,0,0,0-.13-.192h-2a.141.141,0,0,0-.133.094l-2.049,5.853-2.244-5.857a.14.14,0,0,0-.131-.091h-3.282Zm-4.271-.009h-1.921a.141.141,0,0,0-.141.141v8.383a.141.141,0,0,0,.141.141h1.921a.141.141,0,0,0,.141-.141v-8.382a.141.141,0,0,0-.141-.141Zm-.95-3.817a1.378,1.378,0,1,0,1.378,1.377,1.378,1.378,0,0,0-1.378-1.377Zm16.833,6.512a1.356,1.356,0,1,1,1.359-1.36,1.347,1.347,0,0,1-1.359,1.36Zm.007-2.577a1.221,1.221,0,1,0,1.21,1.217,1.209,1.209,0,0,0-1.21-1.217h0Zm.3,1.356.382.536h-.322l-.344-.491h-.3v.491h-.27v-1.42h.633c.33,0,.547.169.547.453a.421.421,0,0,1-.328.431Zm-.229-.641h-.352v.449h.352c.176,0,.281-.086.281-.225s-.105-.224-.28-.224h0Z" transform="translate(-74.428 -1369.145)" fill="#474a6f"/></svg>