<svg xmlns="http://www.w3.org/2000/svg" width="60.796" height="14.5" viewBox="0 0 60.796 14.5"><path d="M14.279,13.536H10.907L9.875,11.048H4.256l-.94,2.488H0L5.066.971H8.7ZM6.927,3.973,5.085,8.856H8.954Zm19.6-3h2.727V13.536H26.121V5.688L22.731,9.63h-.479l-3.39-3.942v7.849H15.73V.971h2.727l4.035,4.661Zm10.664,0c4.587,0,6.945,2.855,6.945,6.3,0,3.611-2.284,6.265-7.3,6.265h-5.2V.971ZM34.776,11.233h2.045a3.714,3.714,0,0,0,4.09-3.98c0-2.156-1.161-3.979-4.127-3.979H34.776v7.96ZM50.367,3.95,46.417,0H60.8V14.379l-3.95-3.95V3.95Zm0,.792L46.3,8.808V14.5h5.691l4.066-4.066H50.362Z" fill="#474a6f"/></svg>