<svg xmlns="http://www.w3.org/2000/svg" width="30.781" height="25" viewBox="0 0 30.781 25"><path d="M15.391-22.031a13.219,13.219,0,0,1-3.164,3.262q.02.273.02.82a17.921,17.921,0,0,1-.742,5.068A18.316,18.316,0,0,1,9.248-8.027a19.079,19.079,0,0,1-3.6,4.111A16.044,16.044,0,0,1,.605-1.064,18.442,18.442,0,0,1-5.7,0a17.519,17.519,0,0,1-9.687-2.832,13.5,13.5,0,0,0,1.523.078,12.351,12.351,0,0,0,7.832-2.7,6.151,6.151,0,0,1-3.672-1.26,6.171,6.171,0,0,1-2.227-3.115,7.992,7.992,0,0,0,1.191.1,6.526,6.526,0,0,0,1.66-.215,6.207,6.207,0,0,1-3.623-2.178,6.1,6.1,0,0,1-1.436-4.014v-.078a6.259,6.259,0,0,0,2.852.8,6.3,6.3,0,0,1-2.051-2.246,6.147,6.147,0,0,1-.762-3.008,6.181,6.181,0,0,1,.859-3.184A17.883,17.883,0,0,0-7.49-19.189,17.578,17.578,0,0,0-.234-17.246a7.007,7.007,0,0,1-.156-1.445,6.08,6.08,0,0,1,1.846-4.463A6.08,6.08,0,0,1,5.918-25a6.082,6.082,0,0,1,4.609,1.992,12.37,12.37,0,0,0,4-1.523,6.125,6.125,0,0,1-2.773,3.477A12.57,12.57,0,0,0,15.391-22.031Z" transform="translate(15.391 25)" fill="#9fa0b2"/></svg>