<svg xmlns="http://www.w3.org/2000/svg" width="101.902" height="30.563" viewBox="0 0 101.902 30.563"><path d="M89.709,1369.145a15.282,15.282,0,1,0,15.281,15.281,15.282,15.282,0,0,0-15.281-15.281Zm7.008,22.04a.952.952,0,0,1-1.31.317c-3.588-2.193-8.105-2.689-13.425-1.474a.952.952,0,1,1-.424-1.856c5.821-1.331,10.814-.758,14.842,1.7a.952.952,0,0,1,.316,1.31Zm1.87-4.16a1.192,1.192,0,0,1-1.639.392,20.058,20.058,0,0,0-15.227-1.781,1.191,1.191,0,1,1-.692-2.28,22.294,22.294,0,0,1,17.166,2.031,1.191,1.191,0,0,1,.392,1.638Zm.161-4.333c-4.926-2.925-13.051-3.194-17.753-1.767a1.429,1.429,0,1,1-.83-2.735c5.4-1.639,14.371-1.322,20.042,2.044a1.429,1.429,0,0,1-1.459,2.458Zm17.255.561c-2.639-.629-3.108-1.071-3.108-2,0-.877.825-1.467,2.053-1.467a6,6,0,0,1,3.606,1.37.174.174,0,0,0,.245-.039l1.288-1.816a.173.173,0,0,0-.033-.235,7.8,7.8,0,0,0-5.067-1.755c-2.849,0-4.839,1.71-4.839,4.156,0,2.623,1.717,3.552,4.683,4.269,2.525.582,2.951,1.069,2.951,1.94,0,.965-.862,1.565-2.248,1.565a6.06,6.06,0,0,1-4.2-1.736.181.181,0,0,0-.127-.041.171.171,0,0,0-.119.061l-1.445,1.719a.171.171,0,0,0,.017.24,8.612,8.612,0,0,0,5.816,2.231c3.07,0,5.054-1.677,5.054-4.274.005-2.192-1.307-3.405-4.52-4.187Zm11.471-2.6a4.139,4.139,0,0,0-3.322,1.6v-1.209a.173.173,0,0,0-.173-.173h-2.363a.173.173,0,0,0-.173.173v13.431a.173.173,0,0,0,.173.173h2.363a.173.173,0,0,0,.173-.173v-4.24a4.244,4.244,0,0,0,3.322,1.5c2.472,0,4.975-1.9,4.975-5.542s-2.5-5.543-4.973-5.543Zm2.228,5.543a2.848,2.848,0,0,1-2.775,3.146,3.163,3.163,0,0,1,0-6.291,2.88,2.88,0,0,1,2.776,3.145Zm9.162-5.543a5.554,5.554,0,1,0,5.659,5.543,5.571,5.571,0,0,0-5.659-5.543Zm0,8.707a3,3,0,0,1-2.97-3.165,2.934,2.934,0,0,1,2.931-3.127,3.014,3.014,0,0,1,2.99,3.166,2.941,2.941,0,0,1-2.951,3.125Zm12.458-8.491h-2.6v-2.658a.173.173,0,0,0-.172-.173h-2.362a.173.173,0,0,0-.173.173v2.658h-1.136a.173.173,0,0,0-.172.173v2.03a.173.173,0,0,0,.172.173h1.136v5.254c0,2.123,1.057,3.2,3.141,3.2a4.311,4.311,0,0,0,2.213-.551.172.172,0,0,0,.087-.15v-1.933a.173.173,0,0,0-.25-.155,2.977,2.977,0,0,1-1.387.335c-.758,0-1.1-.344-1.1-1.115v-4.882h2.6a.173.173,0,0,0,.172-.173v-2.03a.167.167,0,0,0-.17-.173Zm9.058.01v-.327c0-.96.368-1.389,1.194-1.389a3.989,3.989,0,0,1,1.331.245.173.173,0,0,0,.227-.164v-1.991a.173.173,0,0,0-.122-.166,6.487,6.487,0,0,0-1.964-.282c-2.182,0-3.336,1.229-3.336,3.552v.5h-1.135a.174.174,0,0,0-.173.173v2.041a.174.174,0,0,0,.173.173h1.135v8.1a.173.173,0,0,0,.172.173h2.363a.173.173,0,0,0,.173-.173v-8.1h2.206l3.379,8.1c-.384.851-.761,1.021-1.276,1.021a2.725,2.725,0,0,1-1.3-.37.177.177,0,0,0-.138-.013.175.175,0,0,0-.1.093l-.8,1.757a.172.172,0,0,0,.074.224,4.975,4.975,0,0,0,2.523.646c1.745,0,2.709-.813,3.559-3l4.1-10.591a.173.173,0,0,0-.16-.236h-2.459a.174.174,0,0,0-.164.116l-2.52,7.2-2.76-7.2a.173.173,0,0,0-.161-.111h-4.036Zm-5.252-.01h-2.363a.173.173,0,0,0-.173.173v10.307a.173.173,0,0,0,.173.173h2.363a.173.173,0,0,0,.173-.173V1381.04a.173.173,0,0,0-.173-.173Zm-1.168-4.693a1.694,1.694,0,1,0,1.694,1.694,1.694,1.694,0,0,0-1.694-1.694Zm20.7,8.007a1.667,1.667,0,1,1,1.671-1.672,1.656,1.656,0,0,1-1.671,1.672Zm.009-3.169a1.5,1.5,0,1,0,1.488,1.5,1.487,1.487,0,0,0-1.488-1.5h0Zm.369,1.667.47.658h-.4l-.423-.6h-.364v.6h-.332v-1.745h.778c.405,0,.672.208.672.557a.518.518,0,0,1-.4.53Zm-.281-.787h-.433v.552h.433c.216,0,.345-.106.345-.276s-.13-.276-.345-.276h0Z" transform="translate(-74.428 -1369.145)" fill="#9fa0b2"/></svg>