<svg height="20.715" viewBox="0 0 57.558 20.715" width="57.558" xmlns="http://www.w3.org/2000/svg"><path d="m30.663 69.972c-3.745 4.4-7.337 9.853-7.373 13.93a4.826 4.826 0 0 0 1.65 3.888 8.007 8.007 0 0 0 5.407 1.979 20.793 20.793 0 0 0 7.5-1.932c3.553-1.418 42.759-18.444 42.759-18.444.378-.19.307-.426-.166-.308-.191.048-42.683 11.563-42.683 11.563a9.39 9.39 0 0 1 -2.473.352c-3.266.019-6.171-1.793-6.148-5.613a12.526 12.526 0 0 1 1.527-5.415z" fill="#9fa0b2" fill-rule="evenodd" opacity=".999" transform="translate(-23.29 -69.054)"/></svg>