<svg xmlns="http://www.w3.org/2000/svg" width="57.954" height="18.871" viewBox="0 0 57.954 18.871"><path d="M63.3,37.581H58.687v7.606a1.285,1.285,0,0,1-.348.874,1.322,1.322,0,0,1-.858.344H54.8a1.342,1.342,0,0,1-.886-.344,1.279,1.279,0,0,1-.349-.874V37.581H48.95v8a5.416,5.416,0,0,0,.671,2.729,4.231,4.231,0,0,0,1.823,1.67,6.515,6.515,0,0,0,2.763.584h4.481v-.053a4.959,4.959,0,0,0,2.495-.609,4.135,4.135,0,0,0,1.557-1.75,5.686,5.686,0,0,0,.562-2.571v-8Zm-46.176.477a6.244,6.244,0,0,0-2.656-.477H11.492l-1.154.133c-.269.079-.4.132-.4.132V31.7H5.348V50.568H9.936V42.935a1.243,1.243,0,0,1,.376-.848,1.268,1.268,0,0,1,.885-.344H13.88a1.308,1.308,0,0,1,.859.344,1.246,1.246,0,0,1,.376.848v7.634H19.7V42.352a5.106,5.106,0,0,0-.7-2.783,4.181,4.181,0,0,0-1.879-1.51Zm15.615,7.13a1.429,1.429,0,0,1-.349.874,1.456,1.456,0,0,1-.885.343H28.825a1.329,1.329,0,0,1-.859-.343,1.31,1.31,0,0,1-.376-.874V37.581H23v8a5.412,5.412,0,0,0,.644,2.729,4.092,4.092,0,0,0,1.825,1.67,6.425,6.425,0,0,0,2.763.584h4.507v-.053a4.79,4.79,0,0,0,2.469-.609,4.376,4.376,0,0,0,1.582-1.75,6.471,6.471,0,0,0,.564-2.571v-8H32.742v7.607Zm8.1,5.38h4.588V31.7H40.845V50.568Z" transform="translate(-5.348 -31.697)" fill="#474a6f"/></svg>