<?xml version="1.0" encoding="utf-8"?>
<!-- Generator: Adobe Illustrator 23.0.2, SVG Export Plug-In . SVG Version: 6.00 Build 0)  -->
<svg version="1.1" id="Layer_1" xmlns="http://www.w3.org/2000/svg" xmlns:xlink="http://www.w3.org/1999/xlink" x="0px" y="0px"
	 viewBox="0 0 174 173" style="enable-background:new 0 0 174 173;" xml:space="preserve">
<style type="text/css">
	.st0{fill:#FFFFFF;}
</style>
<title>Scroll Down — Scroll</title>
<desc>Created with Sketch.</desc>
<g>
	<path class="st0" d="M24.2,32.3l0.7-0.6l6.4,1.5l0,0.2l-3.9-4.1l0.7-0.7l4.9,5.1l-0.7,0.6L26,32.9l0-0.2l3.8,4l-0.7,0.7L24.2,32.3z
		"/>
	<path class="st0" d="M30,26.9l0.8-0.6l4.4,5.5l-0.8,0.6L30,26.9z M30.4,26.6l3.3-2.6l0.6,0.7L31,27.3L30.4,26.6z M32.3,29l2.8-2.3
		l0.6,0.7l-2.8,2.3L32.3,29z M34.3,31.4l3.3-2.6l0.6,0.7l-3.3,2.6L34.3,31.4z"/>
	<path class="st0" d="M39.1,25l-0.3-0.1l-4.1-1.8l1-0.6l3.1,1.4l0.3,0.1l4.3,1.9l-1,0.6L39.1,25z M38.5,24.3l-0.2-3.5l1-0.6l0.2,4.5
		l0.2,3.8l-1,0.6L38.5,24.3z"/>
	<path class="st0" d="M39.9,19.7l4.5-2.6l0.5,0.8l-4.5,2.6L39.9,19.7z M42,19.1l0.9-0.5l3.3,5.6l-0.9,0.5L42,19.1z"/>
	<path class="st0" d="M48.5,15l0.9-0.4l2.9,6.5l-0.9,0.4L48.5,15z M50.3,17.9l2.1-0.9c0.2-0.1,0.4-0.2,0.5-0.4
		c0.1-0.2,0.2-0.3,0.2-0.6c0-0.2,0-0.4-0.1-0.6c-0.1-0.2-0.2-0.4-0.4-0.5s-0.3-0.2-0.5-0.2s-0.4,0-0.6,0.1l-2.1,0.9L49,14.8l2.1-0.9
		c0.4-0.2,0.8-0.3,1.2-0.2c0.4,0,0.7,0.2,1,0.4c0.3,0.2,0.5,0.5,0.7,0.9c0.2,0.4,0.2,0.8,0.2,1.2c0,0.4-0.2,0.7-0.4,1
		c-0.2,0.3-0.5,0.5-0.9,0.7l-2.1,0.9L50.3,17.9z"/>
	<path class="st0" d="M55,12.2l1-0.3l2.3,6.7l-1,0.3L55,12.2z M56.4,15l2.4-0.8c0.2-0.1,0.3-0.2,0.4-0.3c0.1-0.1,0.2-0.3,0.2-0.5
		c0-0.2,0-0.4-0.1-0.6c-0.1-0.2-0.2-0.4-0.3-0.5c-0.1-0.1-0.3-0.2-0.5-0.3s-0.3,0-0.5,0l-2.4,0.8L55.4,12l2.3-0.8
		c0.4-0.1,0.8-0.2,1.1-0.1s0.7,0.2,0.9,0.4s0.5,0.5,0.6,0.9c0.1,0.4,0.2,0.8,0.1,1.1c-0.1,0.4-0.2,0.7-0.5,0.9
		c-0.2,0.3-0.6,0.5-1,0.6l-2.3,0.8L56.4,15z M58.6,15.1l0.9-0.5l2.9,2.6l-1.1,0.4L58.6,15.1z"/>
	<path class="st0" d="M64.7,16.2c-0.4-0.1-0.8-0.3-1.1-0.7c-0.3-0.3-0.5-0.7-0.6-1.3l-0.5-1.9c-0.1-0.5-0.1-1,0-1.4
		c0.1-0.4,0.3-0.8,0.6-1.1c0.3-0.3,0.7-0.5,1.2-0.6c0.5-0.1,1-0.1,1.4,0c0.4,0.1,0.8,0.3,1.1,0.7s0.5,0.7,0.6,1.3l0.5,1.9
		c0.1,0.5,0.1,1,0,1.4s-0.3,0.8-0.6,1.1s-0.7,0.5-1.2,0.6C65.6,16.4,65.2,16.4,64.7,16.2z M66.6,14.9c0.2-0.2,0.3-0.4,0.4-0.7
		c0.1-0.3,0.1-0.6,0-0.9l-0.5-2c-0.1-0.3-0.2-0.6-0.4-0.8c-0.2-0.2-0.4-0.3-0.7-0.4c-0.3-0.1-0.5-0.1-0.8,0s-0.5,0.2-0.7,0.4
		s-0.3,0.4-0.4,0.7s-0.1,0.6,0,0.9l0.5,2c0.1,0.3,0.2,0.6,0.4,0.8c0.2,0.2,0.4,0.3,0.7,0.4c0.3,0.1,0.5,0.1,0.8,0
		S66.4,15.1,66.6,14.9z"/>
	<path class="st0" d="M70.3,15c-0.3-0.1-0.6-0.3-0.9-0.5l0.7-0.7c0.1,0.1,0.3,0.2,0.5,0.3c0.2,0.1,0.4,0.1,0.6,0
		c0.4-0.1,0.7-0.2,0.8-0.5c0.2-0.3,0.2-0.6,0.1-1.1l-0.8-4.8l1-0.2l0.8,4.8c0.1,0.5,0.1,0.9,0,1.3c-0.1,0.4-0.3,0.7-0.6,0.9
		s-0.7,0.4-1.2,0.5C71,15.1,70.7,15.1,70.3,15z"/>
	<path class="st0" d="M74.8,7.2l1-0.1l0.7,7.1l-1,0.1L74.8,7.2z M75.3,7.2l4.2-0.4l0.1,0.9l-4.2,0.4L75.3,7.2z M75.6,10.3l3.6-0.4
		l0.1,0.9l-3.6,0.4L75.6,10.3z M76,13.3l4.2-0.4l0.1,0.9l-4.2,0.4L76,13.3z"/>
	<path class="st0" d="M83.4,13.7c0,0-0.2-0.1-0.6-0.3c-0.4-0.2-0.7-0.5-0.9-0.9c-0.2-0.4-0.3-0.9-0.4-1.4l-0.1-1.9
		c0-0.5,0.1-1,0.3-1.4c0.2-0.4,0.5-0.7,0.9-1C83,6.6,83.5,6.5,84,6.5c0.4,0,0.8,0.1,1.2,0.2s0.7,0.4,0.9,0.7
		c0.2,0.3,0.4,0.7,0.5,1.1l-1,0c-0.1-0.2-0.2-0.4-0.3-0.6c-0.2-0.2-0.3-0.3-0.5-0.4c-0.2-0.1-0.4-0.1-0.6-0.1
		c-0.3,0-0.6,0.1-0.8,0.2C83,7.8,82.8,8,82.7,8.3c-0.1,0.3-0.2,0.6-0.2,0.9l0.1,1.9c0,0.3,0.1,0.6,0.2,0.9s0.3,0.4,0.5,0.6
		c0.2,0.1,0.5,0.2,0.8,0.2c0.2,0,0.4-0.1,0.6-0.1s0.4-0.2,0.5-0.4c0.1-0.2,0.2-0.4,0.3-0.6l1,0c-0.1,0.4-0.2,0.8-0.5,1.1
		c-0.2,0.3-0.5,0.6-0.9,0.8c-0.3,0.2-0.7,0.3-1.1,0.3C83.6,13.7,83.4,13.7,83.4,13.7z"/>
	<path class="st0" d="M87.5,6.5l5.2,0.2l0,0.9l-5.2-0.2L87.5,6.5z M89.6,7.2l1,0l-0.3,6.5l-1,0L89.6,7.2z"/>
	<path class="st0" d="M99.9,11.7l-0.1,0.9l-3.3-0.5l0.1-0.9L99.9,11.7z"/>
	<path class="st0" d="M105.9,8.7l0.9,0.2l2.1,6.2l-0.1,0.1l1.4-5.4l1,0.3l-1.8,6.9l-0.9-0.2l-2.1-6.1l0.1-0.1l-1.4,5.4l-1-0.3
		L105.9,8.7z"/>
	<path class="st0" d="M113.5,10.8l1,0.3l-2.3,6.7l-1-0.3L113.5,10.8z M111.9,16.7l4,1.4l-0.3,0.9l-4-1.4L111.9,16.7z M112.9,13.8
		l3.4,1.2l-0.3,0.9l-3.4-1.2L112.9,13.8z M114,10.9l4,1.4l-0.3,0.9l-4-1.4L114,10.9z"/>
	<path class="st0" d="M120.2,16.6l2.9-2l1.1,0.5l-3.8,2.5l-3.1,2.2l-1.1-0.5L120.2,16.6z M119.9,17.5l0-0.3l-0.7-4.4l1.1,0.5
		l0.5,3.4l0,0.3l0.7,4.6l-1.1-0.5L119.9,17.5z"/>
	<path class="st0" d="M126.4,16.8l0.9,0.5l-3,5.8l-0.9-0.5L126.4,16.8z M124.8,15.3l4.6,2.4l-0.4,0.8l-4.6-2.4L124.8,15.3z"/>
	<path class="st0" d="M133.4,20.1l0.9,0.6l-4,5.9l-0.8-0.6L133.4,20.1z M131.9,23.2l1.9,1.3c0.2,0.1,0.4,0.2,0.6,0.2
		c0.2,0,0.4,0,0.6-0.1c0.2-0.1,0.3-0.3,0.5-0.5c0.1-0.2,0.2-0.4,0.2-0.6c0-0.2,0-0.4-0.1-0.6s-0.2-0.3-0.4-0.5l-1.9-1.3l0.5-0.8
		l1.9,1.3c0.4,0.2,0.6,0.5,0.8,0.9c0.2,0.3,0.2,0.7,0.2,1.1c0,0.4-0.2,0.7-0.4,1.1s-0.5,0.6-0.9,0.8c-0.3,0.2-0.7,0.2-1.1,0.2
		s-0.7-0.2-1.1-0.4l-1.9-1.3L131.9,23.2z"/>
	<path class="st0" d="M139.2,24.1l0.8,0.6l-4.5,5.5l-0.8-0.6L139.2,24.1z M137.6,26.9l1.9,1.6c0.2,0.1,0.3,0.2,0.5,0.2
		c0.2,0,0.3,0,0.5-0.1s0.3-0.2,0.5-0.4c0.1-0.2,0.2-0.3,0.3-0.5c0-0.2,0-0.4,0-0.5c-0.1-0.2-0.2-0.3-0.3-0.4l-1.9-1.6l0.6-0.7
		l1.9,1.5c0.3,0.3,0.6,0.6,0.7,0.9c0.1,0.3,0.2,0.7,0.1,1c-0.1,0.4-0.2,0.7-0.5,1c-0.3,0.3-0.5,0.5-0.9,0.7c-0.3,0.1-0.7,0.2-1,0.1
		s-0.7-0.2-1-0.5l-1.9-1.5L137.6,26.9z M138.6,28.7l0.9,0.5l-0.7,3.9l-0.9-0.8L138.6,28.7z"/>
	<path class="st0" d="M140.9,34.5c-0.1-0.4-0.1-0.9,0-1.3c0.1-0.4,0.4-0.8,0.7-1.2l1.4-1.5c0.4-0.4,0.8-0.6,1.2-0.8
		c0.4-0.1,0.9-0.2,1.3,0s0.8,0.3,1.2,0.7s0.6,0.7,0.7,1.2c0.1,0.4,0.1,0.9,0,1.3s-0.4,0.8-0.7,1.2l-1.4,1.5
		c-0.4,0.4-0.8,0.6-1.2,0.8c-0.4,0.1-0.9,0.2-1.3,0c-0.4-0.1-0.8-0.3-1.2-0.7C141.3,35.4,141,35,140.9,34.5z M143,35.4
		c0.3,0.1,0.5,0.1,0.8,0s0.5-0.2,0.7-0.5l1.4-1.5c0.2-0.2,0.4-0.5,0.4-0.7c0.1-0.3,0.1-0.5,0-0.8s-0.2-0.5-0.4-0.7
		c-0.2-0.2-0.5-0.3-0.7-0.4s-0.5-0.1-0.8,0s-0.5,0.2-0.7,0.5l-1.4,1.5c-0.2,0.2-0.4,0.5-0.4,0.7c-0.1,0.3-0.1,0.5,0,0.8
		s0.2,0.5,0.4,0.7C142.5,35.2,142.8,35.3,143,35.4z"/>
	<path class="st0" d="M144.9,38.7c-0.1-0.3-0.1-0.7,0-1l1,0.2c-0.1,0.2-0.1,0.4,0,0.6c0.1,0.2,0.2,0.4,0.3,0.5
		c0.3,0.3,0.6,0.4,0.9,0.5c0.3,0,0.7-0.1,1-0.4l3.6-3.2l0.7,0.8l-3.6,3.2c-0.4,0.3-0.7,0.5-1.1,0.6c-0.4,0.1-0.7,0.1-1.1-0.1
		c-0.4-0.1-0.7-0.4-1-0.7C145.2,39.3,145,39,144.9,38.7z"/>
	<path class="st0" d="M153.9,38.4l0.6,0.8l-5.6,4.3l-0.6-0.8L153.9,38.4z M149.3,42.5l2.5,3.3l-0.8,0.6l-2.5-3.3L149.3,42.5z
		 M151.7,40.7l2.2,2.9l-0.8,0.6l-2.2-2.9L151.7,40.7z M154.2,38.8l2.5,3.3l-0.8,0.6l-2.5-3.3L154.2,38.8z"/>
	<path class="st0" d="M152.8,49.1c0,0,0-0.2,0-0.7c0-0.4,0.1-0.9,0.3-1.3c0.2-0.4,0.6-0.7,1-1l1.6-1c0.4-0.3,0.9-0.4,1.3-0.5
		c0.5,0,0.9,0,1.3,0.3c0.4,0.2,0.7,0.5,1,0.9c0.2,0.4,0.4,0.7,0.4,1.1c0,0.4,0,0.8-0.2,1.1s-0.4,0.7-0.7,1l-0.6-0.9
		c0.2-0.2,0.3-0.4,0.3-0.6c0.1-0.2,0.1-0.4,0.1-0.7s-0.1-0.4-0.2-0.6c-0.2-0.3-0.4-0.4-0.6-0.5c-0.2-0.1-0.5-0.2-0.8-0.1
		c-0.3,0-0.6,0.1-0.8,0.3l-1.6,1c-0.3,0.2-0.5,0.4-0.6,0.6c-0.1,0.2-0.2,0.5-0.2,0.8s0.1,0.5,0.2,0.8c0.1,0.2,0.3,0.3,0.4,0.5
		c0.2,0.1,0.4,0.2,0.6,0.2c0.2,0,0.5,0,0.7-0.1l0.6,0.9c-0.4,0.2-0.8,0.2-1.2,0.2c-0.4,0-0.8-0.1-1.1-0.3c-0.3-0.2-0.6-0.5-0.8-0.8
		C152.9,49.3,152.8,49.1,152.8,49.1z"/>
	<path class="st0" d="M161.6,51.1l0.5,0.9l-5.8,3.1l-0.5-0.9L161.6,51.1z M161.1,49l2.4,4.5l-0.8,0.4l-2.4-4.5L161.1,49z"/>
	<path class="st0" d="M162.9,62.3l-0.9,0.4l-1.3-3.1l0.9-0.4L162.9,62.3z"/>
	<path class="st0" d="M168.5,66.1l0.2,0.9l-4.4,4.8l-0.2-0.1l5.4-1.4l0.3,1l-6.9,1.8l-0.2-0.9l4.3-4.8l0.2,0.1l-5.4,1.4l-0.3-1
		L168.5,66.1z"/>
	<path class="st0" d="M170.4,73.8l0.2,1l-7,1.1l-0.2-1L170.4,73.8z M164.4,75.3l0.7,4.1l-0.9,0.2l-0.7-4.1L164.4,75.3z M167.4,74.8
		l0.6,3.6l-0.9,0.2l-0.6-3.6L167.4,74.8z M170.4,74.3l0.7,4.1l-0.9,0.2l-0.7-4.1L170.4,74.3z"/>
	<path class="st0" d="M168.4,82.5l3.2,1.6l0.1,1.1l-4-2.1l-3.4-1.7l-0.1-1.1L168.4,82.5z M167.5,82.6l0.2-0.2l3.5-2.7l0.1,1.1
		l-2.7,2l-0.3,0.2l-3.7,2.8l-0.1-1.1L167.5,82.6z"/>
	<path class="st0" d="M171.2,88l0,1l-6.5,0.1l0-1L171.2,88z M171.7,85.9l0.1,5.2l-0.9,0l-0.1-5.2L171.7,85.9z"/>
	<path class="st0" d="M171.5,95.8l-0.1,1l-7.1-0.8l0.1-1L171.5,95.8z M168,96l-0.3,2.3c0,0.2,0,0.4,0.1,0.6c0.1,0.2,0.2,0.3,0.4,0.4
		c0.2,0.1,0.4,0.2,0.6,0.2c0.2,0,0.5,0,0.7-0.1c0.2-0.1,0.4-0.2,0.5-0.3s0.2-0.3,0.2-0.6l0.3-2.3l0.9,0.1l-0.3,2.3
		c0,0.4-0.2,0.8-0.4,1.1c-0.2,0.3-0.5,0.5-0.8,0.7c-0.3,0.1-0.7,0.2-1.2,0.1c-0.4,0-0.8-0.2-1.1-0.4c-0.3-0.2-0.5-0.5-0.7-0.9
		c-0.1-0.3-0.2-0.7-0.1-1.2l0.3-2.3L168,96z"/>
	<path class="st0" d="M166.2,104.5l0,1l-3.8,1.1l0.3-1.2L166.2,104.5z M170.5,102.9l-0.2,1l-7-1.5l0.2-1L170.5,102.9z M167.4,102.7
		l-0.5,2.4c0,0.2,0,0.4,0,0.5c0.1,0.2,0.2,0.3,0.3,0.4c0.1,0.1,0.3,0.2,0.5,0.2c0.2,0,0.4,0,0.6,0s0.3-0.1,0.5-0.3
		c0.1-0.1,0.2-0.3,0.2-0.5l0.5-2.4l0.9,0.2l-0.5,2.4c-0.1,0.4-0.2,0.8-0.5,1s-0.5,0.5-0.9,0.6c-0.3,0.1-0.7,0.1-1.1,0
		c-0.4-0.1-0.7-0.2-1-0.5c-0.3-0.2-0.5-0.5-0.6-0.9c-0.1-0.3-0.1-0.7,0-1.1l0.5-2.4L167.4,102.7z"/>
	<path class="st0" d="M162,109.1c0.3-0.3,0.7-0.5,1.1-0.6c0.4-0.1,0.9-0.1,1.4,0.1l1.9,0.6c0.5,0.2,0.9,0.4,1.2,0.7s0.5,0.7,0.6,1.1
		c0.1,0.4,0.1,0.9-0.1,1.4c-0.2,0.5-0.4,0.9-0.7,1.2c-0.3,0.3-0.7,0.5-1.1,0.6c-0.4,0.1-0.9,0.1-1.4-0.1l-1.9-0.6
		c-0.5-0.2-0.9-0.4-1.2-0.7s-0.5-0.7-0.6-1.1c-0.1-0.4-0.1-0.9,0.1-1.4S161.7,109.5,162,109.1z M162.2,111.4
		c0.1,0.3,0.2,0.5,0.4,0.7c0.2,0.2,0.4,0.3,0.7,0.4l2,0.6c0.3,0.1,0.6,0.1,0.9,0.1c0.3,0,0.5-0.2,0.7-0.3c0.2-0.2,0.3-0.4,0.4-0.7
		c0.1-0.3,0.1-0.6,0-0.8c-0.1-0.3-0.2-0.5-0.4-0.7c-0.2-0.2-0.4-0.3-0.7-0.4l-2-0.6c-0.3-0.1-0.6-0.1-0.9-0.1s-0.5,0.2-0.7,0.3
		c-0.2,0.2-0.3,0.4-0.4,0.7C162.2,110.9,162.1,111.2,162.2,111.4z"/>
	<path class="st0" d="M160.1,114.5c0.3-0.2,0.6-0.4,0.9-0.5l0.2,1c-0.2,0-0.3,0.1-0.5,0.2s-0.3,0.3-0.4,0.5c-0.1,0.4-0.2,0.7,0,1
		c0.1,0.3,0.4,0.5,0.8,0.7l4.5,1.8l-0.4,1l-4.5-1.8c-0.5-0.2-0.8-0.4-1.1-0.7c-0.3-0.3-0.4-0.6-0.4-1c0-0.4,0-0.8,0.2-1.2
		C159.7,115.1,159.9,114.8,160.1,114.5z"/>
	<path class="st0" d="M158.6,120.2l-1.9,3.8l-0.8-0.4l1.9-3.8L158.6,120.2z M164.3,122.5l-0.5,0.9l-6.4-3.2l0.5-0.9L164.3,122.5z
		 M161.3,121.6l-1.6,3.3l-0.8-0.4l1.6-3.3L161.3,121.6z M164.1,122.9l-1.9,3.8l-0.8-0.4l1.9-3.8L164.1,122.9z"/>
	<path class="st0" d="M154.2,126.2c0,0,0.2-0.1,0.6-0.3s0.8-0.3,1.3-0.3c0.5,0,0.9,0.2,1.4,0.5l1.7,1c0.5,0.3,0.8,0.6,1,1
		c0.2,0.4,0.3,0.8,0.3,1.2c0,0.4-0.2,0.9-0.4,1.3c-0.2,0.4-0.5,0.6-0.8,0.8c-0.3,0.2-0.7,0.3-1.1,0.4s-0.8,0-1.2-0.2l0.5-0.9
		c0.2,0.1,0.4,0.1,0.7,0c0.2,0,0.4-0.1,0.6-0.2s0.3-0.3,0.4-0.5c0.2-0.3,0.2-0.5,0.2-0.8c0-0.3-0.1-0.5-0.2-0.8
		c-0.2-0.2-0.4-0.4-0.7-0.6l-1.7-1c-0.3-0.2-0.6-0.3-0.8-0.3c-0.3,0-0.5,0-0.8,0.1s-0.4,0.3-0.6,0.6c-0.1,0.2-0.2,0.4-0.2,0.6
		c0,0.2,0,0.4,0.1,0.6c0.1,0.2,0.2,0.4,0.4,0.6l-0.5,0.9c-0.3-0.3-0.5-0.6-0.7-1c-0.1-0.4-0.2-0.8-0.2-1.1c0-0.4,0.2-0.8,0.4-1.1
		C154.1,126.4,154.2,126.2,154.2,126.2z"/>
	<path class="st0" d="M156.3,135l-0.6,0.8l-5.3-3.8l0.6-0.8L156.3,135z M158,133.7l-3,4.2l-0.8-0.6l3-4.2L158,133.7z"/>
	<path class="st0" d="M146.8,141.1l-0.7-0.6l2.3-2.5l0.7,0.6L146.8,141.1z"/>
	<path class="st0" d="M146,147.8l-0.7,0.6l-6.3-1.8l0-0.2l3.7,4.2l-0.8,0.7l-4.7-5.3l0.7-0.6l6.2,1.7l0,0.2l-3.7-4.1l0.8-0.7
		L146,147.8z"/>
	<path class="st0" d="M135.9,148.2l-3.4,2.5L132,150l3.4-2.5L135.9,148.2z M137.7,150.7l-2.9,2.2l-0.6-0.8l2.9-2.2L137.7,150.7z
		 M140,152.9l-0.8,0.6l-4.2-5.7l0.8-0.6L140,152.9z M139.6,153.2l-3.4,2.5l-0.6-0.8l3.4-2.5L139.6,153.2z"/>
	<path class="st0" d="M130.8,154.4l0.3,0.1l4,1.9l-1,0.6l-3-1.5l-0.3-0.1l-4.2-2l1-0.6L130.8,154.4z M131.4,155.2l0.1,3.6l-1,0.6
		l0-4.5l-0.1-3.8l1-0.6L131.4,155.2z"/>
	<path class="st0" d="M127.7,160.2l-0.9,0.5l-3.1-5.8l0.9-0.5L127.7,160.2z M129.8,159.7l-4.6,2.4l-0.4-0.8l4.6-2.4L129.8,159.7z"/>
	<path class="st0" d="M119.3,161.1l-2.2,0.9c-0.2,0.1-0.4,0.2-0.5,0.4c-0.1,0.2-0.2,0.3-0.2,0.5c0,0.2,0,0.4,0.1,0.6
		c0.1,0.2,0.2,0.4,0.4,0.5c0.2,0.1,0.3,0.2,0.5,0.3s0.4,0,0.6-0.1l2.2-0.9l0.4,0.9l-2.1,0.9c-0.4,0.2-0.8,0.2-1.2,0.2
		c-0.4,0-0.7-0.2-1-0.4c-0.3-0.2-0.5-0.6-0.7-1s-0.2-0.8-0.2-1.2c0-0.4,0.2-0.7,0.4-1c0.2-0.3,0.6-0.5,1-0.7l2.1-0.9L119.3,161.1z
		 M121.1,164.1l-1,0.4l-2.6-6.6l1-0.4L121.1,164.1z"/>
	<path class="st0" d="M111,163.6l-0.9,0.5l-2.8-2.8l1.2-0.4L111,163.6z M113.1,163.7l-2.4,0.7c-0.2,0.1-0.3,0.2-0.5,0.3
		c-0.1,0.1-0.2,0.3-0.2,0.5c0,0.2,0,0.4,0.1,0.6c0.1,0.2,0.2,0.4,0.3,0.5c0.1,0.1,0.3,0.2,0.4,0.3s0.3,0,0.5,0l2.4-0.7l0.3,0.9
		l-2.3,0.7c-0.4,0.1-0.8,0.2-1.1,0.1c-0.4-0.1-0.7-0.2-0.9-0.5s-0.4-0.6-0.6-1c-0.1-0.4-0.1-0.8-0.1-1.1c0.1-0.3,0.2-0.7,0.5-0.9
		s0.6-0.4,1-0.6l2.3-0.7L113.1,163.7z M114.5,166.6l-1,0.3l-2.1-6.8l1-0.3L114.5,166.6z"/>
	<path class="st0" d="M104.9,162.2c0.4,0.1,0.8,0.4,1.1,0.7c0.3,0.3,0.5,0.8,0.6,1.3l0.4,2c0.1,0.5,0.1,1,0,1.4
		c-0.1,0.4-0.4,0.8-0.7,1.1c-0.3,0.3-0.8,0.5-1.2,0.6c-0.5,0.1-1,0.1-1.4,0s-0.8-0.4-1.1-0.7c-0.3-0.3-0.5-0.8-0.6-1.3l-0.4-2
		c-0.1-0.5-0.1-1,0-1.4s0.4-0.8,0.7-1.1c0.3-0.3,0.8-0.5,1.2-0.6C104,162,104.4,162,104.9,162.2z M103,163.5
		c-0.2,0.2-0.3,0.4-0.4,0.7s-0.1,0.6,0,0.9l0.4,2c0.1,0.3,0.2,0.6,0.4,0.8s0.4,0.4,0.6,0.4c0.3,0.1,0.5,0.1,0.8,0s0.5-0.2,0.7-0.4
		c0.2-0.2,0.3-0.4,0.4-0.7c0.1-0.3,0.1-0.6,0-0.9l-0.4-2c-0.1-0.3-0.2-0.6-0.4-0.8s-0.4-0.4-0.6-0.4c-0.3-0.1-0.5-0.1-0.8,0
		S103.2,163.3,103,163.5z"/>
	<path class="st0" d="M99.2,163.2c0.3,0.1,0.6,0.3,0.9,0.5l-0.8,0.7c-0.1-0.1-0.3-0.2-0.5-0.3c-0.2-0.1-0.4-0.1-0.6,0
		c-0.4,0.1-0.7,0.2-0.9,0.5c-0.2,0.3-0.2,0.6-0.2,1.1l0.7,4.8l-1,0.1l-0.7-4.8c-0.1-0.5,0-0.9,0.1-1.3c0.1-0.4,0.3-0.7,0.7-0.9
		s0.7-0.4,1.2-0.4C98.5,163,98.9,163.1,99.2,163.2z"/>
	<path class="st0" d="M93.5,164.7l-4.2,0.3l-0.1-0.9l4.2-0.3L93.5,164.7z M94,170.8l-4.2,0.3l-0.1-0.9l4.2-0.3L94,170.8z
		 M93.7,167.7l-3.6,0.2L90,167l3.6-0.2L93.7,167.7z M94.4,170.8l-1,0.1l-0.5-7.1l1-0.1L94.4,170.8z"/>
	<path class="st0" d="M86.1,164c0,0,0.2,0.1,0.6,0.3c0.4,0.2,0.7,0.5,0.9,0.9c0.2,0.4,0.3,0.9,0.3,1.4l0,1.9c0,0.5-0.1,1-0.3,1.4
		c-0.2,0.4-0.5,0.7-0.9,0.9c-0.4,0.2-0.8,0.3-1.3,0.3c-0.4,0-0.8-0.1-1.2-0.3c-0.3-0.2-0.6-0.4-0.9-0.8c-0.2-0.3-0.4-0.7-0.5-1.1
		l1.1,0c0.1,0.2,0.2,0.4,0.3,0.6c0.1,0.2,0.3,0.3,0.5,0.4c0.2,0.1,0.4,0.1,0.6,0.2c0.3,0,0.6-0.1,0.8-0.2s0.4-0.3,0.5-0.6
		s0.2-0.5,0.2-0.9l0-1.9c0-0.3-0.1-0.6-0.2-0.9c-0.1-0.3-0.3-0.5-0.5-0.6s-0.5-0.2-0.8-0.2c-0.2,0-0.4,0-0.6,0.1s-0.4,0.2-0.5,0.4
		c-0.2,0.2-0.3,0.4-0.3,0.6l-1.1,0c0.1-0.4,0.3-0.8,0.5-1.1c0.2-0.3,0.5-0.6,0.9-0.7c0.4-0.2,0.7-0.2,1.2-0.2
		C85.9,163.9,86.1,164,86.1,164z"/>
	<path class="st0" d="M81.7,171l-5.1-0.4l0.1-0.9l5.1,0.4L81.7,171z M79.7,170.3l-1-0.1l0.5-6.5l1,0.1L79.7,170.3z"/>
	<path class="st0" d="M72.5,165.9l0.1-0.9l3.3,0.5l-0.1,0.9L72.5,165.9z"/>
	<path class="st0" d="M66.6,169l-0.9-0.2l-2.1-6.2l0.1-0.1l-1.4,5.4l-1-0.3l1.8-6.9L64,161l2.1,6.1l-0.1,0.1l1.4-5.4l1,0.3L66.6,169
		z"/>
	<path class="st0" d="M58.5,166.7l-4-1.4l0.3-0.9l4,1.4L58.5,166.7z M59.5,163.7l-3.4-1.2l0.3-0.9l3.4,1.2L59.5,163.7z M60.5,160.9
		l-4-1.4l0.3-0.9l4,1.4L60.5,160.9z M59,166.8l-1-0.3l2.4-6.7l1,0.3L59,166.8z"/>
	<path class="st0" d="M52.2,161l-2.9,2l-1.1-0.5L52,160l3.1-2.2l1.1,0.5L52.2,161z M52.6,160.1l0,0.3l0.7,4.4l-1.1-0.5l-0.4-3.4
		l0-0.3L51,156l1.1,0.5L52.6,160.1z"/>
	<path class="st0" d="M47.6,162.2l-4.6-2.4l0.4-0.8l4.6,2.4L47.6,162.2z M46,160.8l-0.9-0.5l3-5.8l0.9,0.5L46,160.8z"/>
	<path class="st0" d="M40.6,154.4l-1.9-1.3c-0.2-0.1-0.4-0.2-0.6-0.2c-0.2,0-0.4,0-0.6,0.1c-0.2,0.1-0.3,0.3-0.5,0.5
		c-0.1,0.2-0.2,0.4-0.2,0.6c0,0.2,0,0.4,0.1,0.6c0.1,0.2,0.2,0.3,0.4,0.5l1.9,1.3l-0.5,0.8l-1.9-1.3c-0.4-0.2-0.6-0.5-0.8-0.9
		c-0.2-0.3-0.2-0.7-0.2-1.1c0-0.4,0.2-0.7,0.4-1.1c0.2-0.4,0.5-0.6,0.9-0.8c0.3-0.2,0.7-0.2,1.1-0.2s0.7,0.2,1.1,0.4l1.9,1.3
		L40.6,154.4z M39.1,157.5l-0.8-0.6l4-5.9l0.8,0.6L39.1,157.5z"/>
	<path class="st0" d="M34.9,150.7l-1.9-1.6c-0.2-0.1-0.3-0.2-0.5-0.2c-0.2,0-0.3,0-0.5,0.1c-0.2,0.1-0.3,0.2-0.5,0.4
		s-0.2,0.3-0.3,0.5c0,0.2,0,0.4,0,0.5c0.1,0.2,0.2,0.3,0.3,0.4l1.9,1.6l-0.6,0.7l-1.9-1.5c-0.3-0.3-0.6-0.6-0.7-0.9s-0.2-0.7-0.1-1
		c0.1-0.4,0.2-0.7,0.5-1c0.3-0.3,0.6-0.5,0.9-0.7s0.7-0.2,1-0.1c0.4,0.1,0.7,0.2,1,0.5l1.9,1.5L34.9,150.7z M33.3,153.4l-0.8-0.6
		l4.5-5.5l0.8,0.6L33.3,153.4z M33.8,148.9l-0.9-0.5l0.7-3.9l0.9,0.8L33.8,148.9z"/>
	<path class="st0" d="M31.6,143c0.1,0.4,0.1,0.9,0,1.3s-0.4,0.8-0.7,1.2l-1.4,1.4c-0.4,0.4-0.8,0.6-1.2,0.8s-0.9,0.1-1.3,0
		c-0.4-0.1-0.8-0.3-1.2-0.7c-0.4-0.4-0.6-0.7-0.7-1.2s-0.1-0.9,0-1.3c0.1-0.4,0.4-0.8,0.7-1.2l1.4-1.4c0.4-0.4,0.8-0.6,1.2-0.8
		s0.9-0.1,1.3,0s0.8,0.3,1.2,0.7C31.2,142.2,31.4,142.5,31.6,143z M29.4,142.1c-0.3-0.1-0.5-0.1-0.8,0s-0.5,0.2-0.7,0.5l-1.4,1.5
		c-0.2,0.2-0.4,0.5-0.4,0.7c-0.1,0.3-0.1,0.5,0,0.8c0.1,0.3,0.2,0.5,0.4,0.7c0.2,0.2,0.5,0.3,0.7,0.4c0.3,0.1,0.5,0.1,0.8,0
		s0.5-0.2,0.7-0.5l1.4-1.5c0.2-0.2,0.4-0.5,0.4-0.7c0.1-0.3,0.1-0.5,0-0.8c-0.1-0.3-0.2-0.5-0.4-0.7
		C29.9,142.3,29.7,142.2,29.4,142.1z"/>
	<path class="st0" d="M27.6,138.9c0.1,0.3,0.1,0.7,0,1l-1-0.2c0.1-0.2,0.1-0.4,0-0.6s-0.2-0.4-0.3-0.5c-0.3-0.3-0.6-0.5-0.9-0.5
		c-0.3,0-0.7,0.1-1,0.4l-3.6,3.2l-0.7-0.8l3.6-3.2c0.4-0.3,0.7-0.5,1.1-0.6c0.4-0.1,0.7-0.1,1.1,0.1c0.4,0.1,0.7,0.4,1,0.7
		C27.3,138.2,27.5,138.5,27.6,138.9z"/>
	<path class="st0" d="M18.3,138.7l-2.5-3.3l0.8-0.6l2.5,3.3L18.3,138.7z M18.6,139.1l-0.6-0.8l5.7-4.3l0.6,0.8L18.6,139.1z
		 M20.8,136.8l-2.2-2.9l0.8-0.6l2.2,2.9L20.8,136.8z M23.2,134.9l-2.5-3.3l0.8-0.6l2.5,3.3L23.2,134.9z"/>
	<path class="st0" d="M19.7,128.3c0,0,0,0.2,0,0.7c0,0.4-0.1,0.9-0.3,1.3c-0.2,0.4-0.6,0.7-1,1l-1.6,1c-0.4,0.3-0.9,0.4-1.3,0.5
		c-0.5,0-0.9,0-1.3-0.3c-0.4-0.2-0.7-0.5-1-1c-0.2-0.4-0.4-0.7-0.4-1.1c0-0.4,0-0.8,0.2-1.1c0.1-0.4,0.4-0.7,0.7-1l0.6,0.9
		c-0.2,0.2-0.3,0.4-0.3,0.6c-0.1,0.2-0.1,0.4-0.1,0.7c0,0.2,0.1,0.4,0.2,0.6c0.2,0.3,0.4,0.4,0.6,0.5c0.2,0.1,0.5,0.2,0.8,0.1
		s0.6-0.1,0.8-0.3l1.6-1c0.3-0.2,0.5-0.4,0.6-0.6c0.1-0.2,0.2-0.5,0.2-0.8c0-0.3-0.1-0.5-0.2-0.8c-0.1-0.2-0.3-0.3-0.4-0.5
		c-0.2-0.1-0.4-0.2-0.6-0.2s-0.5,0-0.7,0.1l-0.6-0.9c0.4-0.2,0.8-0.2,1.2-0.2s0.8,0.1,1.1,0.4s0.6,0.5,0.8,0.8
		C19.6,128.1,19.7,128.3,19.7,128.3z"/>
	<path class="st0" d="M11.4,128.5L9,123.9l0.8-0.4l2.4,4.6L11.4,128.5z M10.9,126.4l-0.5-0.9l5.8-3.1l0.5,0.9L10.9,126.4z"/>
	<path class="st0" d="M9.7,115.1l0.9-0.3l1.2,3.1l-0.9,0.3L9.7,115.1z"/>
	<path class="st0" d="M4.1,111.4l-0.2-0.9l4.4-4.7l0.2,0.1L3,107.3l-0.2-1l6.9-1.8l0.2,0.9l-4.4,4.7l-0.2-0.1l5.4-1.4l0.2,1
		L4.1,111.4z"/>
	<path class="st0" d="M2.2,103.4l-0.7-4l0.9-0.2l0.7,4L2.2,103.4z M2.3,103.9l-0.2-1l7-1.2l0.2,1L2.3,103.9z M5.3,102.9l-0.6-3.5
		l0.9-0.2l0.6,3.5L5.3,102.9z M8.3,102.4l-0.7-4l0.9-0.2l0.7,4L8.3,102.4z"/>
	<path class="st0" d="M4.2,95.4L1,93.9l-0.1-1.1l4,2l3.4,1.6l0.1,1.1L4.2,95.4z M5.1,95.3l-0.2,0.2l-3.5,2.6L1.3,97L4,95l0.2-0.2
		L8,92.1l0.1,1.1L5.1,95.3z"/>
	<path class="st0" d="M0.9,92.1l-0.1-5l0.9,0l0.1,5L0.9,92.1z M1.5,90.1l0-1L8,89l0,1L1.5,90.1z"/>
	<path class="st0" d="M1.1,82.5l0.1-1l7.1,0.8l-0.1,1L1.1,82.5z M4.5,82.4l0.2-2.3c0-0.2,0-0.4-0.1-0.6c-0.1-0.2-0.2-0.3-0.4-0.4
		s-0.4-0.2-0.6-0.2c-0.2,0-0.5,0-0.7,0.1s-0.4,0.2-0.5,0.3c-0.1,0.2-0.2,0.3-0.2,0.5l-0.2,2.3L1.2,82l0.2-2.2c0-0.4,0.2-0.8,0.4-1.1
		s0.5-0.5,0.8-0.7c0.3-0.1,0.7-0.2,1.2-0.1c0.4,0,0.8,0.2,1.1,0.4c0.3,0.2,0.5,0.5,0.7,0.8c0.1,0.3,0.2,0.7,0.1,1.1l-0.2,2.2
		L4.5,82.4z"/>
	<path class="st0" d="M1.9,75.6l0.2-1l7,1.4l-0.2,1L1.9,75.6z M5.1,75.8l0.5-2.4c0-0.2,0-0.4,0-0.5c-0.1-0.2-0.2-0.3-0.3-0.4
		s-0.3-0.2-0.5-0.2s-0.4,0-0.6,0c-0.2,0-0.3,0.1-0.4,0.3c-0.1,0.1-0.2,0.3-0.2,0.5l-0.5,2.4L2,75.2l0.5-2.3c0.1-0.4,0.2-0.7,0.5-1
		s0.5-0.5,0.8-0.6c0.3-0.1,0.7-0.1,1.1,0c0.4,0.1,0.7,0.2,1,0.5c0.3,0.2,0.5,0.5,0.6,0.9s0.1,0.7,0,1.1L6,76L5.1,75.8z M6.2,74.1
		l0-1l3.7-1.1l-0.2,1.2L6.2,74.1z"/>
	<path class="st0" d="M10.3,69.5C10,69.8,9.6,70,9.2,70.1c-0.4,0.1-0.9,0.1-1.4-0.1l-1.9-0.6c-0.5-0.1-0.9-0.4-1.2-0.7
		S4.1,68.1,4,67.6S3.9,66.8,4,66.3s0.4-0.9,0.7-1.2c0.3-0.3,0.7-0.5,1.1-0.6c0.4-0.1,0.9-0.1,1.4,0.1l1.9,0.6
		c0.5,0.1,0.9,0.4,1.2,0.7c0.3,0.3,0.5,0.7,0.6,1.1s0.1,0.9-0.1,1.3C10.9,68.8,10.6,69.2,10.3,69.5z M10.1,67.3
		C10,67,9.9,66.8,9.7,66.6s-0.5-0.3-0.8-0.4l-2-0.6c-0.3-0.1-0.6-0.1-0.9-0.1c-0.3,0-0.5,0.2-0.7,0.3S5.1,66.3,5,66.6
		c-0.1,0.3-0.1,0.5,0,0.8C5,67.6,5.2,67.8,5.4,68c0.2,0.2,0.5,0.3,0.8,0.4l2,0.6c0.3,0.1,0.6,0.1,0.9,0.1c0.3,0,0.5-0.2,0.7-0.3
		s0.3-0.4,0.4-0.7C10.1,67.8,10.1,67.5,10.1,67.3z"/>
	<path class="st0" d="M12.1,64.2c-0.3,0.2-0.5,0.4-0.9,0.5l-0.3-1c0.2,0,0.3-0.1,0.5-0.2c0.1-0.1,0.3-0.3,0.3-0.5
		c0.1-0.4,0.1-0.7,0-1s-0.4-0.5-0.8-0.7l-4.5-1.7l0.4-0.9l4.5,1.7c0.5,0.2,0.8,0.4,1.1,0.7s0.4,0.6,0.5,1s0,0.8-0.2,1.2
		C12.5,63.7,12.3,64,12.1,64.2z"/>
	<path class="st0" d="M7.7,56.5l0.4-0.9l6.4,3l-0.4,0.9L7.7,56.5z M7.9,56.1l1.8-3.7l0.9,0.4l-1.8,3.7L7.9,56.1z M10.7,57.4l1.5-3.2
		l0.9,0.4l-1.5,3.2L10.7,57.4z M13.5,58.7l1.8-3.7l0.9,0.4l-1.8,3.7L13.5,58.7z"/>
	<path class="st0" d="M17.6,52.8c0,0-0.2,0.1-0.6,0.3s-0.8,0.3-1.2,0.3c-0.4,0-0.9-0.2-1.4-0.4l-1.7-1c-0.5-0.3-0.8-0.6-1-1
		c-0.2-0.4-0.4-0.8-0.4-1.2s0.1-0.9,0.4-1.3c0.2-0.4,0.5-0.6,0.8-0.8c0.3-0.2,0.7-0.3,1.1-0.4c0.4,0,0.8,0,1.2,0.2l-0.5,0.9
		c-0.2-0.1-0.4-0.1-0.7,0c-0.2,0-0.4,0.1-0.6,0.2c-0.2,0.1-0.3,0.3-0.4,0.5c-0.1,0.3-0.2,0.5-0.2,0.8s0.1,0.5,0.3,0.7
		s0.4,0.4,0.7,0.6l1.7,1c0.3,0.2,0.6,0.3,0.9,0.3c0.3,0,0.5,0,0.8-0.1c0.2-0.1,0.4-0.3,0.6-0.6c0.1-0.2,0.2-0.4,0.2-0.6
		c0-0.2,0-0.4-0.1-0.6s-0.2-0.4-0.4-0.6l0.5-0.9c0.3,0.3,0.6,0.6,0.7,1c0.2,0.4,0.2,0.7,0.2,1.1c0,0.4-0.1,0.7-0.3,1.1
		C17.8,52.6,17.6,52.8,17.6,52.8z"/>
	<path class="st0" d="M13.6,45.5l2.8-4.1l0.8,0.5L14.4,46L13.6,45.5z M15.2,44.2l0.6-0.8l5.4,3.7l-0.6,0.8L15.2,44.2z"/>
	<path class="st0" d="M24.4,38.1l0.7,0.6L23,41.2l-0.7-0.6L24.4,38.1z"/>
</g>
</svg>
