<svg xmlns="http://www.w3.org/2000/svg" width="152.017" height="28.407" viewBox="0 0 152.017 28.407"><g transform="translate(-164.429 -99.945)"><g transform="translate(296.985 99.945)"><path d="M16.933-7.924A9.3,9.3,0,0,1,12.546,0a9.353,9.353,0,0,0,1.342-4.829A9.214,9.214,0,0,0,4.75-14.115,8.98,8.98,0,0,0,0-12.751a9.1,9.1,0,0,1,7.8-4.46A9.213,9.213,0,0,1,16.933-7.924Z" transform="translate(2.528 17.211)" fill="#0f5a64"/><path d="M9.579-4.4A5.15,5.15,0,0,1,7.1,0a5.127,5.127,0,0,0,.759-2.683,5.165,5.165,0,0,0-5.169-5.16A5.148,5.148,0,0,0,0-7.084,5.165,5.165,0,0,1,4.41-9.562,5.165,5.165,0,0,1,9.579-4.4Z" transform="translate(0.015 19.055)" fill="#0f5a64" opacity="0.7"/></g><path d="M1.429,0V-13.675h2.83v5.214H9.6v-5.214h2.839V0H9.6V-6.1H4.258V0ZM17.59-10.112v6.1a3.191,3.191,0,0,0,.2,1.3,1.413,1.413,0,0,0,1.419.77,1.855,1.855,0,0,0,1.855-1.095,3.963,3.963,0,0,0,.26-1.568v-5.5H24.01V0H21.44V-1.429q-.037.046-.186.278a1.862,1.862,0,0,1-.353.408,3.682,3.682,0,0,1-1.2.761,4.094,4.094,0,0,1-1.359.2,3.03,3.03,0,0,1-3.024-1.614,6.177,6.177,0,0,1-.436-2.625v-6.1Zm14.436-.223A3.745,3.745,0,0,1,35.147-8.9a5.838,5.838,0,0,1,1.127,3.711A6.525,6.525,0,0,1,35.161-1.28,3.61,3.61,0,0,1,32.053.269a3.608,3.608,0,0,1-2.013-.5,4.021,4.021,0,0,1-.983-1.039V0H26.468V-13.656H29.1v4.861a3.858,3.858,0,0,1,1.1-1.076A3.279,3.279,0,0,1,32.025-10.335Zm-.677,8.424a1.815,1.815,0,0,0,1.586-.826A3.77,3.77,0,0,0,33.5-4.908a4.894,4.894,0,0,0-.278-1.781,1.939,1.939,0,0,0-1.948-1.336A1.967,1.967,0,0,0,29.3-6.717a4.909,4.909,0,0,0-.278,1.8,3.77,3.77,0,0,0,.575,2.152A1.97,1.97,0,0,0,31.348-1.911ZM46.275,0H43.437V-13.675h2.839Zm8.053-10.354a3.9,3.9,0,0,1,2.565.821,3.339,3.339,0,0,1,1,2.723V0H55.182V-6.151a2.807,2.807,0,0,0-.213-1.225,1.5,1.5,0,0,0-1.484-.779,1.841,1.841,0,0,0-1.846,1.141,3.92,3.92,0,0,0-.26,1.54V0H48.743V-10.094h2.551v1.475a4.489,4.489,0,0,1,.965-1.123A3.353,3.353,0,0,1,54.328-10.354ZM62.39-3.229a1.766,1.766,0,0,0,.362,1A2.446,2.446,0,0,0,64.57-1.7a2.772,2.772,0,0,0,1.239-.232.743.743,0,0,0,.459-.7A.75.75,0,0,0,65.9-3.3a15.1,15.1,0,0,0-2.755-.8A5.739,5.739,0,0,1,60.72-5.167a2.313,2.313,0,0,1-.705-1.818,3.154,3.154,0,0,1,1.1-2.407A4.415,4.415,0,0,1,64.208-10.4a5.676,5.676,0,0,1,3.085.756,3.239,3.239,0,0,1,1.368,2.612H66.018a1.564,1.564,0,0,0-.288-.807,1.809,1.809,0,0,0-1.484-.538,2.133,2.133,0,0,0-1.229.269.774.774,0,0,0-.366.631.69.69,0,0,0,.39.659,16.868,16.868,0,0,0,2.755.733,5.061,5.061,0,0,1,2.366,1.123,2.549,2.549,0,0,1,.779,1.9A3.073,3.073,0,0,1,67.822-.608a5.252,5.252,0,0,1-3.456.951A5.2,5.2,0,0,1,60.845-.663a3.275,3.275,0,0,1-1.136-2.565Zm11.142-6.884v6.1a3.191,3.191,0,0,0,.2,1.3,1.413,1.413,0,0,0,1.419.77,1.855,1.855,0,0,0,1.855-1.095,3.963,3.963,0,0,0,.26-1.568v-5.5h2.681V0h-2.57V-1.429q-.037.046-.186.278a1.862,1.862,0,0,1-.353.408,3.682,3.682,0,0,1-1.2.761,4.094,4.094,0,0,1-1.359.2,3.03,3.03,0,0,1-3.024-1.614,6.177,6.177,0,0,1-.436-2.625v-6.1ZM88-10.354q.074,0,.125,0t.227.014v2.709q-.25-.028-.445-.037t-.315-.009a2.193,2.193,0,0,0-2.143,1.039,4.042,4.042,0,0,0-.306,1.8V0H82.476V-10.112H85V-8.35a5.59,5.59,0,0,1,1.067-1.382A2.9,2.9,0,0,1,88-10.354Zm7.478,5.437a2.873,2.873,0,0,1-.506.255,4.228,4.228,0,0,1-.7.181l-.594.111a3.834,3.834,0,0,0-1.2.362,1.213,1.213,0,0,0-.612,1.123,1.182,1.182,0,0,0,.376.979,1.414,1.414,0,0,0,.914.3,2.693,2.693,0,0,0,1.573-.5,2.136,2.136,0,0,0,.747-1.828Zm-1.6-1.234a4.127,4.127,0,0,0,1.048-.232.8.8,0,0,0,.566-.751.892.892,0,0,0-.431-.858,2.7,2.7,0,0,0-1.266-.237,1.65,1.65,0,0,0-1.327.464,1.928,1.928,0,0,0-.371.928H89.536a3.88,3.88,0,0,1,.742-2.18,4.317,4.317,0,0,1,3.6-1.336,6.4,6.4,0,0,1,2.95.659,2.529,2.529,0,0,1,1.29,2.486V-2.57q0,.482.019,1.169a1.47,1.47,0,0,0,.158.705.948.948,0,0,0,.39.306V0H95.807a2.945,2.945,0,0,1-.167-.575q-.046-.269-.074-.612A5.432,5.432,0,0,1,94.3-.176a3.8,3.8,0,0,1-1.93.492,3.318,3.318,0,0,1-2.268-.784,2.8,2.8,0,0,1-.9-2.222,2.884,2.884,0,0,1,1.438-2.7,6.385,6.385,0,0,1,2.319-.649Zm12.2-4.2a3.9,3.9,0,0,1,2.565.821,3.339,3.339,0,0,1,1,2.723V0h-2.709V-6.151a2.807,2.807,0,0,0-.213-1.225,1.5,1.5,0,0,0-1.484-.779,1.841,1.841,0,0,0-1.846,1.141,3.92,3.92,0,0,0-.26,1.54V0h-2.635V-10.094h2.551v1.475A4.489,4.489,0,0,1,104-9.741,3.353,3.353,0,0,1,106.068-10.354ZM118.11-6.485a2.346,2.346,0,0,0-.38-1.021,1.6,1.6,0,0,0-1.382-.612,1.82,1.82,0,0,0-1.828,1.327,5.547,5.547,0,0,0-.26,1.874,5.1,5.1,0,0,0,.26,1.791A1.764,1.764,0,0,0,116.3-1.865a1.571,1.571,0,0,0,1.317-.5,2.494,2.494,0,0,0,.473-1.3h2.7a4.423,4.423,0,0,1-.872,2.282A4.239,4.239,0,0,1,116.236.353a4.309,4.309,0,0,1-3.59-1.447,5.856,5.856,0,0,1-1.15-3.757,5.942,5.942,0,0,1,1.271-4.054,4.424,4.424,0,0,1,3.507-1.447,5.28,5.28,0,0,1,3.113.854,3.97,3.97,0,0,1,1.433,3.015ZM126.626-8.2a1.8,1.8,0,0,0-1.424.575,2.871,2.871,0,0,0-.635,1.559h4.11a2.3,2.3,0,0,0-.635-1.591A1.973,1.973,0,0,0,126.626-8.2Zm0-2.18a5.3,5.3,0,0,1,2.273.473,3.982,3.982,0,0,1,1.67,1.494,5.1,5.1,0,0,1,.77,2.087,13.479,13.479,0,0,1,.083,2H124.5a2.513,2.513,0,0,0,.956,2.134,2.251,2.251,0,0,0,1.317.38,1.9,1.9,0,0,0,1.327-.464,2.2,2.2,0,0,0,.492-.7h2.7a3.354,3.354,0,0,1-.937,1.828A4.591,4.591,0,0,1,126.719.334a5.128,5.128,0,0,1-3.4-1.243,5.014,5.014,0,0,1-1.475-4.045,5.622,5.622,0,0,1,1.331-4.026A4.552,4.552,0,0,1,126.626-10.381Z" transform="translate(163 128)" fill="#0f5a64"/></g></svg>