<svg height="18.781" viewBox="0 0 96.95 18.781" width="96.95" xmlns="http://www.w3.org/2000/svg"><g fill="#8a8aa0"><path d="m7.594 2.956c-1.137 0-1.478.5-1.478 1.614v1.842h3.047l-.3 3h-2.747v9.072h-3.66v-9.071h-2.456v-2.978h2.456v-1.8c0-3.043 1.227-4.635 4.615-4.635a16.861 16.861 0 0 1 2.137.136v2.82"/><path d="m41.323 33.012c0-3.365 1.592-5.912 4.957-5.912a3.6 3.6 0 0 1 3.479 2.115v-1.842h3.5v12.073h-3.524v-1.819a3.555 3.555 0 0 1 -3.478 2.073c-3.342 0-4.957-2.524-4.957-5.912m3.683.045c0 1.8.659 3 2.365 3 1.5 0 2.251-1.091 2.251-2.819v-1.23c0-1.728-.773-2.819-2.251-2.819-1.705 0-2.365 1.182-2.365 3z" transform="translate(-31.91 -20.938)"/><path d="m106.13 27.1a6.53 6.53 0 0 1 3.5.819l-.819 2.592a5.6 5.6 0 0 0 -2.433-.546c-1.978 0-2.842 1.137-2.842 3.092v.7c0 1.955.864 3.092 2.842 3.092a5.619 5.619 0 0 0 2.433-.568l.819 2.592a6.686 6.686 0 0 1 -3.5.819c-4.3 0-6.23-2.3-6.23-6v-.568c0-3.706 1.933-6.025 6.23-6.025" transform="translate(-77.186 -20.938)"/><path d="m144.8 33.853v-1.069c0-3.433 1.955-5.684 5.934-5.684 3.752 0 5.411 2.274 5.411 5.639v1.933h-7.685c.068 1.66.819 2.387 2.842 2.387a10.913 10.913 0 0 0 3.888-.728l.659 2.5a11.828 11.828 0 0 1 -4.684.887c-4.638-.023-6.366-2.319-6.366-5.866m3.661-1.592h4.411v-.3c0-1.319-.523-2.365-2.137-2.365-1.637 0-2.274 1.046-2.274 2.66" transform="translate(-111.877 -20.938)"/><path d="m213.428 13c0 3.365-1.614 5.912-4.979 5.912a3.727 3.727 0 0 1 -3.592-2.069v1.819h-3.457v-18.144l3.661-.318v8.072a3.644 3.644 0 0 1 3.411-1.933c3.342 0 4.979 2.524 4.979 5.912m-3.683-.091c0-1.705-.659-2.979-2.41-2.979-1.5 0-2.3 1.069-2.3 2.8v1.273c0 1.728.819 2.8 2.3 2.8 1.751 0 2.41-1.273 2.41-2.979z" transform="translate(-155.608 -.155)"/><path d="m259.6 33.694v-.614c0-3.479 1.978-5.98 6-5.98s6 2.5 6 5.98v.614c0 3.479-1.978 5.98-6 5.98s-6-2.478-6-5.98m8.367-.864c0-1.592-.659-2.865-2.365-2.865s-2.365 1.273-2.365 2.865v1.137c0 1.592.659 2.865 2.365 2.865s2.365-1.273 2.365-2.865z" transform="translate(-200.575 -20.938)"/><path d="m317.9 33.694v-.614c0-3.479 1.978-5.98 6-5.98s6 2.5 6 5.98v.614c0 3.479-1.978 5.98-6 5.98s-6-2.478-6-5.98m8.367-.864c0-1.592-.659-2.865-2.365-2.865s-2.365 1.273-2.365 2.865v1.137c0 1.592.659 2.865 2.365 2.865s2.365-1.273 2.365-2.865z" transform="translate(-245.619 -20.938)"/><path d="m380.438 12.264 3.615-5.775h3.865l-3.774 5.98 3.933 6.116h-3.888l-3.752-5.912v5.912h-3.637v-18.144l3.638-.341" transform="translate(-291.127 -.077)"/></g></svg>