<svg height="18" viewBox="0 0 77 18" width="77" xmlns="http://www.w3.org/2000/svg"><rect fill="#fff" height="18" rx="3" width="77"/><path d="m-65.043 0h4.356v-1.188h-3.091v-6.512h-1.265zm6.16-5.863a.867.867 0 0 0 .891-.891.867.867 0 0 0 -.891-.891.867.867 0 0 0 -.891.891.867.867 0 0 0 .891.891zm-.594 5.863h1.188v-5.126h-1.188zm2.728 0h1.2v-2.717c0-1.221.495-1.518 1.1-1.518.627 0 .935.363.935 1.21v3.025h1.2v-2.717c0-1.221.473-1.518 1.078-1.518.627 0 .957.374.957 1.221v3.014h1.2v-3.245c0-.957-.308-2.013-1.848-2.013a1.721 1.721 0 0 0 -1.573.913 1.573 1.573 0 0 0 -1.617-.913 1.56 1.56 0 0 0 -1.43.847v-.715h-1.2zm9.749-5.863a.867.867 0 0 0 .891-.891.867.867 0 0 0 -.891-.891.867.867 0 0 0 -.891.891.867.867 0 0 0 .891.891zm-.6 5.863h1.188v-5.126h-1.188zm5.049-1.012c-.473 0-.748-.11-.748-1v-2.113h1.177v-1h-1.178v-1.552h-1.2v1.551h-.869v1h.869v2.387c0 1.727 1.078 1.8 1.661 1.8a5.8 5.8 0 0 0 .896-.061v-1.056a4.565 4.565 0 0 1 -.605.044zm6.292-1.815a2.321 2.321 0 0 0 -2.453-2.431 2.47 2.47 0 0 0 -2.574 2.695 2.465 2.465 0 0 0 2.621 2.695 2.2 2.2 0 0 0 2.354-1.632h-1.21a1.123 1.123 0 0 1 -1.144.583 1.254 1.254 0 0 1 -1.43-1.254h3.806c.022-.282.033-.447.033-.656zm-3.839-.253a1.229 1.229 0 0 1 1.364-1.232 1.153 1.153 0 0 1 1.3 1.232zm8.778-4.62v3.267a1.871 1.871 0 0 0 -1.617-.825 2.5 2.5 0 0 0 -2.552 2.695 2.449 2.449 0 0 0 2.522 2.695 2 2 0 0 0 1.65-.825v.693h1.188v-7.7zm-1.471 6.765a1.481 1.481 0 0 1 -1.5-1.628 1.481 1.481 0 0 1 1.5-1.628 1.477 1.477 0 0 1 1.518 1.628 1.477 1.477 0 0 1 -1.518 1.628zm10.549 1.122a3.847 3.847 0 0 0 3.982-4.037 3.847 3.847 0 0 0 -3.982-4.037 3.847 3.847 0 0 0 -3.982 4.037 3.847 3.847 0 0 0 3.982 4.037zm0-1.133a2.639 2.639 0 0 1 -2.651-2.9 2.639 2.639 0 0 1 2.651-2.9 2.639 2.639 0 0 1 2.651 2.9 2.639 2.639 0 0 1 -2.651 2.9zm7.7-5.753c.176 0 .308.033.473.044v-1.012a2.644 2.644 0 0 0 -.8-.1 1.679 1.679 0 0 0 -1.741 1.893v.748h-1.045v1h1.045v4.126h1.2v-4.125h1.342v-1h-1.342v-.775c-.001-.744.51-.8.868-.8zm4.191 0c.176 0 .308.033.473.044v-1.012a2.644 2.644 0 0 0 -.8-.1 1.679 1.679 0 0 0 -1.738 1.892v.748h-1.045v1h1.045v4.127h1.2v-4.125h1.342v-1h-1.346v-.775c0-.744.506-.8.869-.8zm5.94 3.872a2.321 2.321 0 0 0 -2.453-2.431 2.47 2.47 0 0 0 -2.574 2.695 2.465 2.465 0 0 0 2.618 2.695 2.2 2.2 0 0 0 2.354-1.632h-1.21a1.123 1.123 0 0 1 -1.144.587 1.254 1.254 0 0 1 -1.43-1.254h3.806c.022-.286.033-.451.033-.66zm-3.839-.253a1.229 1.229 0 0 1 1.364-1.232 1.153 1.153 0 0 1 1.3 1.232zm4.994 3.08h1.2v-2.266c0-1.166.517-1.8 1.364-1.8a3.4 3.4 0 0 1 .473.022v-1.1a1.976 1.976 0 0 0 -.473-.044 1.382 1.382 0 0 0 -1.365 1.052v-.99h-1.2z" transform="translate(72 13)"/></svg>