<svg xmlns="http://www.w3.org/2000/svg" width="128.449" height="18" viewBox="0 0 128.449 18"><g transform="translate(-21.551)"><path d="M-23.838-20.01V-4.133h3.451v-6.788c0-1.726.966-3.06,2.6-3.06,1.243,0,1.841.736,1.841,2.025v7.823h3.451V-12.21A4.036,4.036,0,0,0-16.843-16.6a4.328,4.328,0,0,0-3.543,1.657V-20.01ZM-5.108-3.857C-1.565-3.857.46-5.537.46-8.666v-7.662H-2.991v7.777A1.969,1.969,0,0,1-5.108-6.434,1.952,1.952,0,0,1-7.2-8.551v-7.777h-3.451v7.662C-10.654-5.537-8.629-3.857-5.108-3.857ZM2.416-20.01V-4.133H5.591V-5.882A4.251,4.251,0,0,0,9.5-3.857c2.807,0,5.108-1.795,5.108-6.374S12.31-16.6,9.5-16.6a4.375,4.375,0,0,0-3.635,1.634V-20.01ZM8.467-6.434c-1.5,0-2.669-.92-2.669-3.8s1.173-3.8,2.669-3.8c1.7,0,2.623,1.035,2.623,3.8C11.09-7.447,10.147-6.434,8.467-6.434Z" transform="translate(45.389 20.795)"/><g transform="translate(73)"><rect width="77" height="18" rx="3" fill="#ffd9e2"/><path d="M-63.107,0h4.928l.154-.957h-3.949V-7.645h-1.133Zm6.2,0h1.078V-5.6H-56.9Zm1.078-6.82V-8.063H-56.9V-6.82ZM-54.219,0h1.067V-3.1c0-1.045.407-1.716,1.254-1.716s1.034.616,1.034,1.309V0h1.056V-3.212c0-.968.374-1.606,1.232-1.606.825,0,1.056.649,1.056,1.265V0h1.056V-3.674c0-1.507-.847-2.057-1.771-2.057a1.909,1.909,0,0,0-1.771.968,1.529,1.529,0,0,0-1.529-.968,1.743,1.743,0,0,0-1.617.957A8.1,8.1,0,0,0-53.2-5.6H-54.23c.011.462.011.957.011,1.441Zm9.361,0h1.078V-5.6h-1.078Zm1.078-6.82V-8.063h-1.078V-6.82Zm.957,2.079h.946v3.4c0,.946.374,1.419,1.3,1.419a2.852,2.852,0,0,0,.869-.1v-.8a1.686,1.686,0,0,1-.462.044c-.495,0-.627-.253-.627-.781V-4.741h1.21V-5.6H-40.8V-7.227h-1.078V-5.6h-.946ZM-34.034-2.6a3.1,3.1,0,0,0,.022-.462,2.4,2.4,0,0,0-2.431-2.673c-1.727,0-2.574,1.309-2.574,2.992,0,1.452.737,2.871,2.508,2.871a2.308,2.308,0,0,0,2.4-1.705H-35.2a1.2,1.2,0,0,1-1.276.814c-.913,0-1.441-.781-1.452-1.837Zm-3.861-.737c.088-.913.495-1.562,1.441-1.562.913,0,1.342.693,1.353,1.562Zm8.833-4.73v3.014c-.154-.308-.594-.682-1.54-.682-1.562,0-2.519,1.265-2.519,2.992,0,1.705.891,2.871,2.332,2.871a1.731,1.731,0,0,0,1.727-.891c0,.209.022.605.044.759h1.045c-.011-.539-.011-1.056-.011-1.573v-6.49ZM-32-2.772c0-1.309.572-2.057,1.529-2.057,1.21,0,1.441.77,1.441,1.958,0,1.155-.253,2.1-1.518,2.1C-31.394-.77-32-1.474-32-2.772ZM-20.24-7.755c-2.321,0-3.619,1.738-3.619,3.938S-22.6.11-20.328.11c2.42,0,3.619-1.859,3.619-3.971C-16.709-6.149-18.073-7.755-20.24-7.755Zm-.044.957c1.628,0,2.387,1.342,2.387,2.959,0,1.573-.671,2.992-2.387,2.992-1.584,0-2.387-1.386-2.387-3S-21.945-6.8-20.284-6.8Zm8.327,2.057V0h1.078V-4.741H-9.8V-5.6h-1.078v-.649c0-.693.187-1.023.7-1.023a1.556,1.556,0,0,1,.44.055V-8.1a1.713,1.713,0,0,0-.572-.077c-1.265,0-1.65.88-1.65,1.947V-5.6h-1.98v-.649c0-.693.187-1.023.7-1.023a1.556,1.556,0,0,1,.44.055V-8.1a1.644,1.644,0,0,0-.561-.077c-1.287,0-1.661.88-1.661,1.947V-5.6h-.88v.858h.88V0h1.078V-4.741ZM-4.378-2.6a3.1,3.1,0,0,0,.022-.462A2.4,2.4,0,0,0-6.787-5.731c-1.727,0-2.574,1.309-2.574,2.992,0,1.452.737,2.871,2.508,2.871a2.308,2.308,0,0,0,2.4-1.705H-5.544A1.2,1.2,0,0,1-6.82-.759c-.913,0-1.441-.781-1.452-1.837Zm-3.861-.737c.088-.913.495-1.562,1.441-1.562.913,0,1.342.693,1.353,1.562ZM-3.157,0h1.078V-2.662c0-1.441.726-1.98,1.87-2V-5.731a1.936,1.936,0,0,0-1.87,1.243c0-.5-.011-.957-.033-1.111H-3.168c0,.33.011.781.011,1.518Z" transform="translate(71 13)" fill="#bd3c65"/></g></g></svg>