<svg xmlns="http://www.w3.org/2000/svg" xml:space="preserve" xmlns:xlink="http://www.w3.org/1999/xlink" style="max-width: 100%;height: auto;" width="999" height="999" viewBox="0 0 999 999">
<defs><mask id="qrmask"><g fill="#ffffff"><g>
<g transform="translate(270,54) scale(4.635)"><circle cx="3" cy="3" r="3"></circle></g>
<g transform="translate(324,54) scale(4.635)"><circle cx="3" cy="3" r="3"></circle></g>
<g transform="translate(432,54) scale(4.635)"><circle cx="3" cy="3" r="3"></circle></g>
<g transform="translate(486,54) scale(4.635)"><circle cx="3" cy="3" r="3"></circle></g>
<g transform="translate(513,54) scale(4.635)"><circle cx="3" cy="3" r="3"></circle></g>
<g transform="translate(540,54) scale(4.635)"><circle cx="3" cy="3" r="3"></circle></g>
<g transform="translate(594,54) scale(4.635)"><circle cx="3" cy="3" r="3"></circle></g>
<g transform="translate(675,54) scale(4.635)"><circle cx="3" cy="3" r="3"></circle></g>
<g transform="translate(702,54) scale(4.635)"><circle cx="3" cy="3" r="3"></circle></g>
<g transform="translate(270,81) scale(4.635)"><circle cx="3" cy="3" r="3"></circle></g>
<g transform="translate(405,81) scale(4.635)"><circle cx="3" cy="3" r="3"></circle></g>
<g transform="translate(432,81) scale(4.635)"><circle cx="3" cy="3" r="3"></circle></g>
<g transform="translate(513,81) scale(4.635)"><circle cx="3" cy="3" r="3"></circle></g>
<g transform="translate(567,81) scale(4.635)"><circle cx="3" cy="3" r="3"></circle></g>
<g transform="translate(648,81) scale(4.635)"><circle cx="3" cy="3" r="3"></circle></g>
<g transform="translate(702,81) scale(4.635)"><circle cx="3" cy="3" r="3"></circle></g>
<g transform="translate(270,108) scale(4.635)"><circle cx="3" cy="3" r="3"></circle></g>
<g transform="translate(351,108) scale(4.635)"><circle cx="3" cy="3" r="3"></circle></g>
<g transform="translate(405,108) scale(4.635)"><circle cx="3" cy="3" r="3"></circle></g>
<g transform="translate(459,108) scale(4.635)"><circle cx="3" cy="3" r="3"></circle></g>
<g transform="translate(486,108) scale(4.635)"><circle cx="3" cy="3" r="3"></circle></g>
<g transform="translate(513,108) scale(4.635)"><circle cx="3" cy="3" r="3"></circle></g>
<g transform="translate(621,108) scale(4.635)"><circle cx="3" cy="3" r="3"></circle></g>
<g transform="translate(675,108) scale(4.635)"><circle cx="3" cy="3" r="3"></circle></g>
<g transform="translate(702,108) scale(4.635)"><circle cx="3" cy="3" r="3"></circle></g>
<g transform="translate(297,135) scale(4.635)"><circle cx="3" cy="3" r="3"></circle></g>
<g transform="translate(378,135) scale(4.635)"><circle cx="3" cy="3" r="3"></circle></g>
<g transform="translate(405,135) scale(4.635)"><circle cx="3" cy="3" r="3"></circle></g>
<g transform="translate(432,135) scale(4.635)"><circle cx="3" cy="3" r="3"></circle></g>
<g transform="translate(459,135) scale(4.635)"><circle cx="3" cy="3" r="3"></circle></g>
<g transform="translate(513,135) scale(4.635)"><circle cx="3" cy="3" r="3"></circle></g>
<g transform="translate(540,135) scale(4.635)"><circle cx="3" cy="3" r="3"></circle></g>
<g transform="translate(567,135) scale(4.635)"><circle cx="3" cy="3" r="3"></circle></g>
<g transform="translate(675,135) scale(4.635)"><circle cx="3" cy="3" r="3"></circle></g>
<g transform="translate(702,135) scale(4.635)"><circle cx="3" cy="3" r="3"></circle></g>
<g transform="translate(324,162) scale(4.635)"><circle cx="3" cy="3" r="3"></circle></g>
<g transform="translate(405,162) scale(4.635)"><circle cx="3" cy="3" r="3"></circle></g>
<g transform="translate(486,162) scale(4.635)"><circle cx="3" cy="3" r="3"></circle></g>
<g transform="translate(513,162) scale(4.635)"><circle cx="3" cy="3" r="3"></circle></g>
<g transform="translate(270,189) scale(4.635)"><circle cx="3" cy="3" r="3"></circle></g>
<g transform="translate(297,189) scale(4.635)"><circle cx="3" cy="3" r="3"></circle></g>
<g transform="translate(324,189) scale(4.635)"><circle cx="3" cy="3" r="3"></circle></g>
<g transform="translate(594,189) scale(4.635)"><circle cx="3" cy="3" r="3"></circle></g>
<g transform="translate(621,189) scale(4.635)"><circle cx="3" cy="3" r="3"></circle></g>
<g transform="translate(675,189) scale(4.635)"><circle cx="3" cy="3" r="3"></circle></g>
<g transform="translate(702,189) scale(4.635)"><circle cx="3" cy="3" r="3"></circle></g>
<g transform="translate(270,216) scale(4.635)"><circle cx="3" cy="3" r="3"></circle></g>
<g transform="translate(324,216) scale(4.635)"><circle cx="3" cy="3" r="3"></circle></g>
<g transform="translate(378,216) scale(4.635)"><circle cx="3" cy="3" r="3"></circle></g>
<g transform="translate(432,216) scale(4.635)"><circle cx="3" cy="3" r="3"></circle></g>
<g transform="translate(486,216) scale(4.635)"><circle cx="3" cy="3" r="3"></circle></g>
<g transform="translate(540,216) scale(4.635)"><circle cx="3" cy="3" r="3"></circle></g>
<g transform="translate(594,216) scale(4.635)"><circle cx="3" cy="3" r="3"></circle></g>
<g transform="translate(648,216) scale(4.635)"><circle cx="3" cy="3" r="3"></circle></g>
<g transform="translate(702,216) scale(4.635)"><circle cx="3" cy="3" r="3"></circle></g>
<g transform="translate(270,243) scale(4.635)"><circle cx="3" cy="3" r="3"></circle></g>
<g transform="translate(324,243) scale(4.635)"><circle cx="3" cy="3" r="3"></circle></g>
<g transform="translate(351,243) scale(4.635)"><circle cx="3" cy="3" r="3"></circle></g>
<g transform="translate(432,243) scale(4.635)"><circle cx="3" cy="3" r="3"></circle></g>
<g transform="translate(486,243) scale(4.635)"><circle cx="3" cy="3" r="3"></circle></g>
<g transform="translate(567,243) scale(4.635)"><circle cx="3" cy="3" r="3"></circle></g>
<g transform="translate(621,243) scale(4.635)"><circle cx="3" cy="3" r="3"></circle></g>
<g transform="translate(648,243) scale(4.635)"><circle cx="3" cy="3" r="3"></circle></g>
<g transform="translate(675,243) scale(4.635)"><circle cx="3" cy="3" r="3"></circle></g>
<g transform="translate(108,270) scale(4.635)"><circle cx="3" cy="3" r="3"></circle></g>
<g transform="translate(135,270) scale(4.635)"><circle cx="3" cy="3" r="3"></circle></g>
<g transform="translate(162,270) scale(4.635)"><circle cx="3" cy="3" r="3"></circle></g>
<g transform="translate(216,270) scale(4.635)"><circle cx="3" cy="3" r="3"></circle></g>
<g transform="translate(270,270) scale(4.635)"><circle cx="3" cy="3" r="3"></circle></g>
<g transform="translate(324,270) scale(4.635)"><circle cx="3" cy="3" r="3"></circle></g>
<g transform="translate(378,270) scale(4.635)"><circle cx="3" cy="3" r="3"></circle></g>
<g transform="translate(405,270) scale(4.635)"><circle cx="3" cy="3" r="3"></circle></g>
<g transform="translate(432,270) scale(4.635)"><circle cx="3" cy="3" r="3"></circle></g>
<g transform="translate(486,270) scale(4.635)"><circle cx="3" cy="3" r="3"></circle></g>
<g transform="translate(513,270) scale(4.635)"><circle cx="3" cy="3" r="3"></circle></g>
<g transform="translate(567,270) scale(4.635)"><circle cx="3" cy="3" r="3"></circle></g>
<g transform="translate(648,270) scale(4.635)"><circle cx="3" cy="3" r="3"></circle></g>
<g transform="translate(675,270) scale(4.635)"><circle cx="3" cy="3" r="3"></circle></g>
<g transform="translate(729,270) scale(4.635)"><circle cx="3" cy="3" r="3"></circle></g>
<g transform="translate(756,270) scale(4.635)"><circle cx="3" cy="3" r="3"></circle></g>
<g transform="translate(783,270) scale(4.635)"><circle cx="3" cy="3" r="3"></circle></g>
<g transform="translate(864,270) scale(4.635)"><circle cx="3" cy="3" r="3"></circle></g>
<g transform="translate(891,270) scale(4.635)"><circle cx="3" cy="3" r="3"></circle></g>
<g transform="translate(918,270) scale(4.635)"><circle cx="3" cy="3" r="3"></circle></g>
<g transform="translate(81,297) scale(4.635)"><circle cx="3" cy="3" r="3"></circle></g>
<g transform="translate(108,297) scale(4.635)"><circle cx="3" cy="3" r="3"></circle></g>
<g transform="translate(135,297) scale(4.635)"><circle cx="3" cy="3" r="3"></circle></g>
<g transform="translate(189,297) scale(4.635)"><circle cx="3" cy="3" r="3"></circle></g>
<g transform="translate(351,297) scale(4.635)"><circle cx="3" cy="3" r="3"></circle></g>
<g transform="translate(378,297) scale(4.635)"><circle cx="3" cy="3" r="3"></circle></g>
<g transform="translate(405,297) scale(4.635)"><circle cx="3" cy="3" r="3"></circle></g>
<g transform="translate(486,297) scale(4.635)"><circle cx="3" cy="3" r="3"></circle></g>
<g transform="translate(540,297) scale(4.635)"><circle cx="3" cy="3" r="3"></circle></g>
<g transform="translate(594,297) scale(4.635)"><circle cx="3" cy="3" r="3"></circle></g>
<g transform="translate(621,297) scale(4.635)"><circle cx="3" cy="3" r="3"></circle></g>
<g transform="translate(675,297) scale(4.635)"><circle cx="3" cy="3" r="3"></circle></g>
<g transform="translate(729,297) scale(4.635)"><circle cx="3" cy="3" r="3"></circle></g>
<g transform="translate(756,297) scale(4.635)"><circle cx="3" cy="3" r="3"></circle></g>
<g transform="translate(837,297) scale(4.635)"><circle cx="3" cy="3" r="3"></circle></g>
<g transform="translate(918,297) scale(4.635)"><circle cx="3" cy="3" r="3"></circle></g>
<g transform="translate(54,324) scale(4.635)"><circle cx="3" cy="3" r="3"></circle></g>
<g transform="translate(108,324) scale(4.635)"><circle cx="3" cy="3" r="3"></circle></g>
<g transform="translate(189,324) scale(4.635)"><circle cx="3" cy="3" r="3"></circle></g>
<g transform="translate(216,324) scale(4.635)"><circle cx="3" cy="3" r="3"></circle></g>
<g transform="translate(270,324) scale(4.635)"><circle cx="3" cy="3" r="3"></circle></g>
<g transform="translate(297,324) scale(4.635)"><circle cx="3" cy="3" r="3"></circle></g>
<g transform="translate(351,324) scale(4.635)"><circle cx="3" cy="3" r="3"></circle></g>
<g transform="translate(378,324) scale(4.635)"><circle cx="3" cy="3" r="3"></circle></g>
<g transform="translate(459,324) scale(4.635)"><circle cx="3" cy="3" r="3"></circle></g>
<g transform="translate(513,324) scale(4.635)"><circle cx="3" cy="3" r="3"></circle></g>
<g transform="translate(540,324) scale(4.635)"><circle cx="3" cy="3" r="3"></circle></g>
<g transform="translate(594,324) scale(4.635)"><circle cx="3" cy="3" r="3"></circle></g>
<g transform="translate(621,324) scale(4.635)"><circle cx="3" cy="3" r="3"></circle></g>
<g transform="translate(729,324) scale(4.635)"><circle cx="3" cy="3" r="3"></circle></g>
<g transform="translate(783,324) scale(4.635)"><circle cx="3" cy="3" r="3"></circle></g>
<g transform="translate(837,324) scale(4.635)"><circle cx="3" cy="3" r="3"></circle></g>
<g transform="translate(891,324) scale(4.635)"><circle cx="3" cy="3" r="3"></circle></g>
<g transform="translate(54,351) scale(4.635)"><circle cx="3" cy="3" r="3"></circle></g>
<g transform="translate(108,351) scale(4.635)"><circle cx="3" cy="3" r="3"></circle></g>
<g transform="translate(135,351) scale(4.635)"><circle cx="3" cy="3" r="3"></circle></g>
<g transform="translate(162,351) scale(4.635)"><circle cx="3" cy="3" r="3"></circle></g>
<g transform="translate(189,351) scale(4.635)"><circle cx="3" cy="3" r="3"></circle></g>
<g transform="translate(324,351) scale(4.635)"><circle cx="3" cy="3" r="3"></circle></g>
<g transform="translate(351,351) scale(4.635)"><circle cx="3" cy="3" r="3"></circle></g>
<g transform="translate(378,351) scale(4.635)"><circle cx="3" cy="3" r="3"></circle></g>
<g transform="translate(432,351) scale(4.635)"><circle cx="3" cy="3" r="3"></circle></g>
<g transform="translate(513,351) scale(4.635)"><circle cx="3" cy="3" r="3"></circle></g>
<g transform="translate(567,351) scale(4.635)"><circle cx="3" cy="3" r="3"></circle></g>
<g transform="translate(594,351) scale(4.635)"><circle cx="3" cy="3" r="3"></circle></g>
<g transform="translate(621,351) scale(4.635)"><circle cx="3" cy="3" r="3"></circle></g>
<g transform="translate(648,351) scale(4.635)"><circle cx="3" cy="3" r="3"></circle></g>
<g transform="translate(729,351) scale(4.635)"><circle cx="3" cy="3" r="3"></circle></g>
<g transform="translate(864,351) scale(4.635)"><circle cx="3" cy="3" r="3"></circle></g>
<g transform="translate(891,351) scale(4.635)"><circle cx="3" cy="3" r="3"></circle></g>
<g transform="translate(918,351) scale(4.635)"><circle cx="3" cy="3" r="3"></circle></g>
<g transform="translate(108,378) scale(4.635)"><circle cx="3" cy="3" r="3"></circle></g>
<g transform="translate(162,378) scale(4.635)"><circle cx="3" cy="3" r="3"></circle></g>
<g transform="translate(189,378) scale(4.635)"><circle cx="3" cy="3" r="3"></circle></g>
<g transform="translate(216,378) scale(4.635)"><circle cx="3" cy="3" r="3"></circle></g>
<g transform="translate(324,378) scale(4.635)"><circle cx="3" cy="3" r="3"></circle></g>
<g transform="translate(351,378) scale(4.635)"><circle cx="3" cy="3" r="3"></circle></g>
<g transform="translate(405,378) scale(4.635)"><circle cx="3" cy="3" r="3"></circle></g>
<g transform="translate(432,378) scale(4.635)"><circle cx="3" cy="3" r="3"></circle></g>
<g transform="translate(459,378) scale(4.635)"><circle cx="3" cy="3" r="3"></circle></g>
<g transform="translate(567,378) scale(4.635)"><circle cx="3" cy="3" r="3"></circle></g>
<g transform="translate(594,378) scale(4.635)"><circle cx="3" cy="3" r="3"></circle></g>
<g transform="translate(621,378) scale(4.635)"><circle cx="3" cy="3" r="3"></circle></g>
<g transform="translate(702,378) scale(4.635)"><circle cx="3" cy="3" r="3"></circle></g>
<g transform="translate(729,378) scale(4.635)"><circle cx="3" cy="3" r="3"></circle></g>
<g transform="translate(783,378) scale(4.635)"><circle cx="3" cy="3" r="3"></circle></g>
<g transform="translate(270,405) scale(4.635)"><circle cx="3" cy="3" r="3"></circle></g>
<g transform="translate(297,405) scale(4.635)"><circle cx="3" cy="3" r="3"></circle></g>
<g transform="translate(405,405) scale(4.635)"><circle cx="3" cy="3" r="3"></circle></g>
<g transform="translate(432,405) scale(4.635)"><circle cx="3" cy="3" r="3"></circle></g>
<g transform="translate(486,405) scale(4.635)"><circle cx="3" cy="3" r="3"></circle></g>
<g transform="translate(513,405) scale(4.635)"><circle cx="3" cy="3" r="3"></circle></g>
<g transform="translate(567,405) scale(4.635)"><circle cx="3" cy="3" r="3"></circle></g>
<g transform="translate(648,405) scale(4.635)"><circle cx="3" cy="3" r="3"></circle></g>
<g transform="translate(675,405) scale(4.635)"><circle cx="3" cy="3" r="3"></circle></g>
<g transform="translate(729,405) scale(4.635)"><circle cx="3" cy="3" r="3"></circle></g>
<g transform="translate(756,405) scale(4.635)"><circle cx="3" cy="3" r="3"></circle></g>
<g transform="translate(783,405) scale(4.635)"><circle cx="3" cy="3" r="3"></circle></g>
<g transform="translate(837,405) scale(4.635)"><circle cx="3" cy="3" r="3"></circle></g>
<g transform="translate(864,405) scale(4.635)"><circle cx="3" cy="3" r="3"></circle></g>
<g transform="translate(918,405) scale(4.635)"><circle cx="3" cy="3" r="3"></circle></g>
<g transform="translate(54,432) scale(4.635)"><circle cx="3" cy="3" r="3"></circle></g>
<g transform="translate(108,432) scale(4.635)"><circle cx="3" cy="3" r="3"></circle></g>
<g transform="translate(135,432) scale(4.635)"><circle cx="3" cy="3" r="3"></circle></g>
<g transform="translate(162,432) scale(4.635)"><circle cx="3" cy="3" r="3"></circle></g>
<g transform="translate(189,432) scale(4.635)"><circle cx="3" cy="3" r="3"></circle></g>
<g transform="translate(216,432) scale(4.635)"><circle cx="3" cy="3" r="3"></circle></g>
<g transform="translate(324,432) scale(4.635)"><circle cx="3" cy="3" r="3"></circle></g>
<g transform="translate(378,432) scale(4.635)"><circle cx="3" cy="3" r="3"></circle></g>
<g transform="translate(405,432) scale(4.635)"><circle cx="3" cy="3" r="3"></circle></g>
<g transform="translate(459,432) scale(4.635)"><circle cx="3" cy="3" r="3"></circle></g>
<g transform="translate(540,432) scale(4.635)"><circle cx="3" cy="3" r="3"></circle></g>
<g transform="translate(594,432) scale(4.635)"><circle cx="3" cy="3" r="3"></circle></g>
<g transform="translate(648,432) scale(4.635)"><circle cx="3" cy="3" r="3"></circle></g>
<g transform="translate(756,432) scale(4.635)"><circle cx="3" cy="3" r="3"></circle></g>
<g transform="translate(864,432) scale(4.635)"><circle cx="3" cy="3" r="3"></circle></g>
<g transform="translate(891,432) scale(4.635)"><circle cx="3" cy="3" r="3"></circle></g>
<g transform="translate(81,459) scale(4.635)"><circle cx="3" cy="3" r="3"></circle></g>
<g transform="translate(243,459) scale(4.635)"><circle cx="3" cy="3" r="3"></circle></g>
<g transform="translate(297,459) scale(4.635)"><circle cx="3" cy="3" r="3"></circle></g>
<g transform="translate(324,459) scale(4.635)"><circle cx="3" cy="3" r="3"></circle></g>
<g transform="translate(378,459) scale(4.635)"><circle cx="3" cy="3" r="3"></circle></g>
<g transform="translate(405,459) scale(4.635)"><circle cx="3" cy="3" r="3"></circle></g>
<g transform="translate(513,459) scale(4.635)"><circle cx="3" cy="3" r="3"></circle></g>
<g transform="translate(594,459) scale(4.635)"><circle cx="3" cy="3" r="3"></circle></g>
<g transform="translate(621,459) scale(4.635)"><circle cx="3" cy="3" r="3"></circle></g>
<g transform="translate(648,459) scale(4.635)"><circle cx="3" cy="3" r="3"></circle></g>
<g transform="translate(729,459) scale(4.635)"><circle cx="3" cy="3" r="3"></circle></g>
<g transform="translate(837,459) scale(4.635)"><circle cx="3" cy="3" r="3"></circle></g>
<g transform="translate(864,459) scale(4.635)"><circle cx="3" cy="3" r="3"></circle></g>
<g transform="translate(891,459) scale(4.635)"><circle cx="3" cy="3" r="3"></circle></g>
<g transform="translate(81,486) scale(4.635)"><circle cx="3" cy="3" r="3"></circle></g>
<g transform="translate(135,486) scale(4.635)"><circle cx="3" cy="3" r="3"></circle></g>
<g transform="translate(162,486) scale(4.635)"><circle cx="3" cy="3" r="3"></circle></g>
<g transform="translate(216,486) scale(4.635)"><circle cx="3" cy="3" r="3"></circle></g>
<g transform="translate(243,486) scale(4.635)"><circle cx="3" cy="3" r="3"></circle></g>
<g transform="translate(297,486) scale(4.635)"><circle cx="3" cy="3" r="3"></circle></g>
<g transform="translate(324,486) scale(4.635)"><circle cx="3" cy="3" r="3"></circle></g>
<g transform="translate(351,486) scale(4.635)"><circle cx="3" cy="3" r="3"></circle></g>
<g transform="translate(405,486) scale(4.635)"><circle cx="3" cy="3" r="3"></circle></g>
<g transform="translate(432,486) scale(4.635)"><circle cx="3" cy="3" r="3"></circle></g>
<g transform="translate(459,486) scale(4.635)"><circle cx="3" cy="3" r="3"></circle></g>
<g transform="translate(486,486) scale(4.635)"><circle cx="3" cy="3" r="3"></circle></g>
<g transform="translate(513,486) scale(4.635)"><circle cx="3" cy="3" r="3"></circle></g>
<g transform="translate(540,486) scale(4.635)"><circle cx="3" cy="3" r="3"></circle></g>
<g transform="translate(594,486) scale(4.635)"><circle cx="3" cy="3" r="3"></circle></g>
<g transform="translate(729,486) scale(4.635)"><circle cx="3" cy="3" r="3"></circle></g>
<g transform="translate(783,486) scale(4.635)"><circle cx="3" cy="3" r="3"></circle></g>
<g transform="translate(810,486) scale(4.635)"><circle cx="3" cy="3" r="3"></circle></g>
<g transform="translate(891,486) scale(4.635)"><circle cx="3" cy="3" r="3"></circle></g>
<g transform="translate(918,486) scale(4.635)"><circle cx="3" cy="3" r="3"></circle></g>
<g transform="translate(162,513) scale(4.635)"><circle cx="3" cy="3" r="3"></circle></g>
<g transform="translate(243,513) scale(4.635)"><circle cx="3" cy="3" r="3"></circle></g>
<g transform="translate(297,513) scale(4.635)"><circle cx="3" cy="3" r="3"></circle></g>
<g transform="translate(324,513) scale(4.635)"><circle cx="3" cy="3" r="3"></circle></g>
<g transform="translate(378,513) scale(4.635)"><circle cx="3" cy="3" r="3"></circle></g>
<g transform="translate(405,513) scale(4.635)"><circle cx="3" cy="3" r="3"></circle></g>
<g transform="translate(432,513) scale(4.635)"><circle cx="3" cy="3" r="3"></circle></g>
<g transform="translate(459,513) scale(4.635)"><circle cx="3" cy="3" r="3"></circle></g>
<g transform="translate(486,513) scale(4.635)"><circle cx="3" cy="3" r="3"></circle></g>
<g transform="translate(513,513) scale(4.635)"><circle cx="3" cy="3" r="3"></circle></g>
<g transform="translate(540,513) scale(4.635)"><circle cx="3" cy="3" r="3"></circle></g>
<g transform="translate(594,513) scale(4.635)"><circle cx="3" cy="3" r="3"></circle></g>
<g transform="translate(675,513) scale(4.635)"><circle cx="3" cy="3" r="3"></circle></g>
<g transform="translate(702,513) scale(4.635)"><circle cx="3" cy="3" r="3"></circle></g>
<g transform="translate(756,513) scale(4.635)"><circle cx="3" cy="3" r="3"></circle></g>
<g transform="translate(891,513) scale(4.635)"><circle cx="3" cy="3" r="3"></circle></g>
<g transform="translate(918,513) scale(4.635)"><circle cx="3" cy="3" r="3"></circle></g>
<g transform="translate(81,540) scale(4.635)"><circle cx="3" cy="3" r="3"></circle></g>
<g transform="translate(135,540) scale(4.635)"><circle cx="3" cy="3" r="3"></circle></g>
<g transform="translate(189,540) scale(4.635)"><circle cx="3" cy="3" r="3"></circle></g>
<g transform="translate(216,540) scale(4.635)"><circle cx="3" cy="3" r="3"></circle></g>
<g transform="translate(270,540) scale(4.635)"><circle cx="3" cy="3" r="3"></circle></g>
<g transform="translate(324,540) scale(4.635)"><circle cx="3" cy="3" r="3"></circle></g>
<g transform="translate(459,540) scale(4.635)"><circle cx="3" cy="3" r="3"></circle></g>
<g transform="translate(486,540) scale(4.635)"><circle cx="3" cy="3" r="3"></circle></g>
<g transform="translate(567,540) scale(4.635)"><circle cx="3" cy="3" r="3"></circle></g>
<g transform="translate(648,540) scale(4.635)"><circle cx="3" cy="3" r="3"></circle></g>
<g transform="translate(729,540) scale(4.635)"><circle cx="3" cy="3" r="3"></circle></g>
<g transform="translate(756,540) scale(4.635)"><circle cx="3" cy="3" r="3"></circle></g>
<g transform="translate(810,540) scale(4.635)"><circle cx="3" cy="3" r="3"></circle></g>
<g transform="translate(864,540) scale(4.635)"><circle cx="3" cy="3" r="3"></circle></g>
<g transform="translate(891,540) scale(4.635)"><circle cx="3" cy="3" r="3"></circle></g>
<g transform="translate(81,567) scale(4.635)"><circle cx="3" cy="3" r="3"></circle></g>
<g transform="translate(135,567) scale(4.635)"><circle cx="3" cy="3" r="3"></circle></g>
<g transform="translate(162,567) scale(4.635)"><circle cx="3" cy="3" r="3"></circle></g>
<g transform="translate(189,567) scale(4.635)"><circle cx="3" cy="3" r="3"></circle></g>
<g transform="translate(243,567) scale(4.635)"><circle cx="3" cy="3" r="3"></circle></g>
<g transform="translate(324,567) scale(4.635)"><circle cx="3" cy="3" r="3"></circle></g>
<g transform="translate(351,567) scale(4.635)"><circle cx="3" cy="3" r="3"></circle></g>
<g transform="translate(378,567) scale(4.635)"><circle cx="3" cy="3" r="3"></circle></g>
<g transform="translate(432,567) scale(4.635)"><circle cx="3" cy="3" r="3"></circle></g>
<g transform="translate(540,567) scale(4.635)"><circle cx="3" cy="3" r="3"></circle></g>
<g transform="translate(594,567) scale(4.635)"><circle cx="3" cy="3" r="3"></circle></g>
<g transform="translate(621,567) scale(4.635)"><circle cx="3" cy="3" r="3"></circle></g>
<g transform="translate(675,567) scale(4.635)"><circle cx="3" cy="3" r="3"></circle></g>
<g transform="translate(702,567) scale(4.635)"><circle cx="3" cy="3" r="3"></circle></g>
<g transform="translate(756,567) scale(4.635)"><circle cx="3" cy="3" r="3"></circle></g>
<g transform="translate(783,567) scale(4.635)"><circle cx="3" cy="3" r="3"></circle></g>
<g transform="translate(837,567) scale(4.635)"><circle cx="3" cy="3" r="3"></circle></g>
<g transform="translate(864,567) scale(4.635)"><circle cx="3" cy="3" r="3"></circle></g>
<g transform="translate(891,567) scale(4.635)"><circle cx="3" cy="3" r="3"></circle></g>
<g transform="translate(918,567) scale(4.635)"><circle cx="3" cy="3" r="3"></circle></g>
<g transform="translate(81,594) scale(4.635)"><circle cx="3" cy="3" r="3"></circle></g>
<g transform="translate(162,594) scale(4.635)"><circle cx="3" cy="3" r="3"></circle></g>
<g transform="translate(216,594) scale(4.635)"><circle cx="3" cy="3" r="3"></circle></g>
<g transform="translate(243,594) scale(4.635)"><circle cx="3" cy="3" r="3"></circle></g>
<g transform="translate(270,594) scale(4.635)"><circle cx="3" cy="3" r="3"></circle></g>
<g transform="translate(297,594) scale(4.635)"><circle cx="3" cy="3" r="3"></circle></g>
<g transform="translate(324,594) scale(4.635)"><circle cx="3" cy="3" r="3"></circle></g>
<g transform="translate(378,594) scale(4.635)"><circle cx="3" cy="3" r="3"></circle></g>
<g transform="translate(459,594) scale(4.635)"><circle cx="3" cy="3" r="3"></circle></g>
<g transform="translate(648,594) scale(4.635)"><circle cx="3" cy="3" r="3"></circle></g>
<g transform="translate(729,594) scale(4.635)"><circle cx="3" cy="3" r="3"></circle></g>
<g transform="translate(756,594) scale(4.635)"><circle cx="3" cy="3" r="3"></circle></g>
<g transform="translate(783,594) scale(4.635)"><circle cx="3" cy="3" r="3"></circle></g>
<g transform="translate(810,594) scale(4.635)"><circle cx="3" cy="3" r="3"></circle></g>
<g transform="translate(837,594) scale(4.635)"><circle cx="3" cy="3" r="3"></circle></g>
<g transform="translate(891,594) scale(4.635)"><circle cx="3" cy="3" r="3"></circle></g>
<g transform="translate(918,594) scale(4.635)"><circle cx="3" cy="3" r="3"></circle></g>
<g transform="translate(54,621) scale(4.635)"><circle cx="3" cy="3" r="3"></circle></g>
<g transform="translate(81,621) scale(4.635)"><circle cx="3" cy="3" r="3"></circle></g>
<g transform="translate(108,621) scale(4.635)"><circle cx="3" cy="3" r="3"></circle></g>
<g transform="translate(135,621) scale(4.635)"><circle cx="3" cy="3" r="3"></circle></g>
<g transform="translate(189,621) scale(4.635)"><circle cx="3" cy="3" r="3"></circle></g>
<g transform="translate(243,621) scale(4.635)"><circle cx="3" cy="3" r="3"></circle></g>
<g transform="translate(351,621) scale(4.635)"><circle cx="3" cy="3" r="3"></circle></g>
<g transform="translate(405,621) scale(4.635)"><circle cx="3" cy="3" r="3"></circle></g>
<g transform="translate(459,621) scale(4.635)"><circle cx="3" cy="3" r="3"></circle></g>
<g transform="translate(486,621) scale(4.635)"><circle cx="3" cy="3" r="3"></circle></g>
<g transform="translate(513,621) scale(4.635)"><circle cx="3" cy="3" r="3"></circle></g>
<g transform="translate(540,621) scale(4.635)"><circle cx="3" cy="3" r="3"></circle></g>
<g transform="translate(594,621) scale(4.635)"><circle cx="3" cy="3" r="3"></circle></g>
<g transform="translate(621,621) scale(4.635)"><circle cx="3" cy="3" r="3"></circle></g>
<g transform="translate(702,621) scale(4.635)"><circle cx="3" cy="3" r="3"></circle></g>
<g transform="translate(837,621) scale(4.635)"><circle cx="3" cy="3" r="3"></circle></g>
<g transform="translate(918,621) scale(4.635)"><circle cx="3" cy="3" r="3"></circle></g>
<g transform="translate(54,648) scale(4.635)"><circle cx="3" cy="3" r="3"></circle></g>
<g transform="translate(108,648) scale(4.635)"><circle cx="3" cy="3" r="3"></circle></g>
<g transform="translate(162,648) scale(4.635)"><circle cx="3" cy="3" r="3"></circle></g>
<g transform="translate(216,648) scale(4.635)"><circle cx="3" cy="3" r="3"></circle></g>
<g transform="translate(243,648) scale(4.635)"><circle cx="3" cy="3" r="3"></circle></g>
<g transform="translate(270,648) scale(4.635)"><circle cx="3" cy="3" r="3"></circle></g>
<g transform="translate(297,648) scale(4.635)"><circle cx="3" cy="3" r="3"></circle></g>
<g transform="translate(324,648) scale(4.635)"><circle cx="3" cy="3" r="3"></circle></g>
<g transform="translate(351,648) scale(4.635)"><circle cx="3" cy="3" r="3"></circle></g>
<g transform="translate(378,648) scale(4.635)"><circle cx="3" cy="3" r="3"></circle></g>
<g transform="translate(432,648) scale(4.635)"><circle cx="3" cy="3" r="3"></circle></g>
<g transform="translate(459,648) scale(4.635)"><circle cx="3" cy="3" r="3"></circle></g>
<g transform="translate(513,648) scale(4.635)"><circle cx="3" cy="3" r="3"></circle></g>
<g transform="translate(567,648) scale(4.635)"><circle cx="3" cy="3" r="3"></circle></g>
<g transform="translate(621,648) scale(4.635)"><circle cx="3" cy="3" r="3"></circle></g>
<g transform="translate(648,648) scale(4.635)"><circle cx="3" cy="3" r="3"></circle></g>
<g transform="translate(783,648) scale(4.635)"><circle cx="3" cy="3" r="3"></circle></g>
<g transform="translate(837,648) scale(4.635)"><circle cx="3" cy="3" r="3"></circle></g>
<g transform="translate(891,648) scale(4.635)"><circle cx="3" cy="3" r="3"></circle></g>
<g transform="translate(54,675) scale(4.635)"><circle cx="3" cy="3" r="3"></circle></g>
<g transform="translate(135,675) scale(4.635)"><circle cx="3" cy="3" r="3"></circle></g>
<g transform="translate(162,675) scale(4.635)"><circle cx="3" cy="3" r="3"></circle></g>
<g transform="translate(189,675) scale(4.635)"><circle cx="3" cy="3" r="3"></circle></g>
<g transform="translate(270,675) scale(4.635)"><circle cx="3" cy="3" r="3"></circle></g>
<g transform="translate(297,675) scale(4.635)"><circle cx="3" cy="3" r="3"></circle></g>
<g transform="translate(378,675) scale(4.635)"><circle cx="3" cy="3" r="3"></circle></g>
<g transform="translate(459,675) scale(4.635)"><circle cx="3" cy="3" r="3"></circle></g>
<g transform="translate(594,675) scale(4.635)"><circle cx="3" cy="3" r="3"></circle></g>
<g transform="translate(621,675) scale(4.635)"><circle cx="3" cy="3" r="3"></circle></g>
<g transform="translate(702,675) scale(4.635)"><circle cx="3" cy="3" r="3"></circle></g>
<g transform="translate(837,675) scale(4.635)"><circle cx="3" cy="3" r="3"></circle></g>
<g transform="translate(864,675) scale(4.635)"><circle cx="3" cy="3" r="3"></circle></g>
<g transform="translate(891,675) scale(4.635)"><circle cx="3" cy="3" r="3"></circle></g>
<g transform="translate(54,702) scale(4.635)"><circle cx="3" cy="3" r="3"></circle></g>
<g transform="translate(108,702) scale(4.635)"><circle cx="3" cy="3" r="3"></circle></g>
<g transform="translate(135,702) scale(4.635)"><circle cx="3" cy="3" r="3"></circle></g>
<g transform="translate(189,702) scale(4.635)"><circle cx="3" cy="3" r="3"></circle></g>
<g transform="translate(216,702) scale(4.635)"><circle cx="3" cy="3" r="3"></circle></g>
<g transform="translate(270,702) scale(4.635)"><circle cx="3" cy="3" r="3"></circle></g>
<g transform="translate(297,702) scale(4.635)"><circle cx="3" cy="3" r="3"></circle></g>
<g transform="translate(378,702) scale(4.635)"><circle cx="3" cy="3" r="3"></circle></g>
<g transform="translate(486,702) scale(4.635)"><circle cx="3" cy="3" r="3"></circle></g>
<g transform="translate(513,702) scale(4.635)"><circle cx="3" cy="3" r="3"></circle></g>
<g transform="translate(594,702) scale(4.635)"><circle cx="3" cy="3" r="3"></circle></g>
<g transform="translate(648,702) scale(4.635)"><circle cx="3" cy="3" r="3"></circle></g>
<g transform="translate(702,702) scale(4.635)"><circle cx="3" cy="3" r="3"></circle></g>
<g transform="translate(729,702) scale(4.635)"><circle cx="3" cy="3" r="3"></circle></g>
<g transform="translate(756,702) scale(4.635)"><circle cx="3" cy="3" r="3"></circle></g>
<g transform="translate(783,702) scale(4.635)"><circle cx="3" cy="3" r="3"></circle></g>
<g transform="translate(810,702) scale(4.635)"><circle cx="3" cy="3" r="3"></circle></g>
<g transform="translate(918,702) scale(4.635)"><circle cx="3" cy="3" r="3"></circle></g>
<g transform="translate(270,729) scale(4.635)"><circle cx="3" cy="3" r="3"></circle></g>
<g transform="translate(297,729) scale(4.635)"><circle cx="3" cy="3" r="3"></circle></g>
<g transform="translate(378,729) scale(4.635)"><circle cx="3" cy="3" r="3"></circle></g>
<g transform="translate(405,729) scale(4.635)"><circle cx="3" cy="3" r="3"></circle></g>
<g transform="translate(432,729) scale(4.635)"><circle cx="3" cy="3" r="3"></circle></g>
<g transform="translate(486,729) scale(4.635)"><circle cx="3" cy="3" r="3"></circle></g>
<g transform="translate(540,729) scale(4.635)"><circle cx="3" cy="3" r="3"></circle></g>
<g transform="translate(567,729) scale(4.635)"><circle cx="3" cy="3" r="3"></circle></g>
<g transform="translate(594,729) scale(4.635)"><circle cx="3" cy="3" r="3"></circle></g>
<g transform="translate(702,729) scale(4.635)"><circle cx="3" cy="3" r="3"></circle></g>
<g transform="translate(810,729) scale(4.635)"><circle cx="3" cy="3" r="3"></circle></g>
<g transform="translate(837,729) scale(4.635)"><circle cx="3" cy="3" r="3"></circle></g>
<g transform="translate(918,729) scale(4.635)"><circle cx="3" cy="3" r="3"></circle></g>
<g transform="translate(324,756) scale(4.635)"><circle cx="3" cy="3" r="3"></circle></g>
<g transform="translate(378,756) scale(4.635)"><circle cx="3" cy="3" r="3"></circle></g>
<g transform="translate(432,756) scale(4.635)"><circle cx="3" cy="3" r="3"></circle></g>
<g transform="translate(459,756) scale(4.635)"><circle cx="3" cy="3" r="3"></circle></g>
<g transform="translate(513,756) scale(4.635)"><circle cx="3" cy="3" r="3"></circle></g>
<g transform="translate(567,756) scale(4.635)"><circle cx="3" cy="3" r="3"></circle></g>
<g transform="translate(594,756) scale(4.635)"><circle cx="3" cy="3" r="3"></circle></g>
<g transform="translate(648,756) scale(4.635)"><circle cx="3" cy="3" r="3"></circle></g>
<g transform="translate(675,756) scale(4.635)"><circle cx="3" cy="3" r="3"></circle></g>
<g transform="translate(702,756) scale(4.635)"><circle cx="3" cy="3" r="3"></circle></g>
<g transform="translate(756,756) scale(4.635)"><circle cx="3" cy="3" r="3"></circle></g>
<g transform="translate(810,756) scale(4.635)"><circle cx="3" cy="3" r="3"></circle></g>
<g transform="translate(837,756) scale(4.635)"><circle cx="3" cy="3" r="3"></circle></g>
<g transform="translate(891,756) scale(4.635)"><circle cx="3" cy="3" r="3"></circle></g>
<g transform="translate(297,783) scale(4.635)"><circle cx="3" cy="3" r="3"></circle></g>
<g transform="translate(324,783) scale(4.635)"><circle cx="3" cy="3" r="3"></circle></g>
<g transform="translate(351,783) scale(4.635)"><circle cx="3" cy="3" r="3"></circle></g>
<g transform="translate(378,783) scale(4.635)"><circle cx="3" cy="3" r="3"></circle></g>
<g transform="translate(405,783) scale(4.635)"><circle cx="3" cy="3" r="3"></circle></g>
<g transform="translate(567,783) scale(4.635)"><circle cx="3" cy="3" r="3"></circle></g>
<g transform="translate(675,783) scale(4.635)"><circle cx="3" cy="3" r="3"></circle></g>
<g transform="translate(702,783) scale(4.635)"><circle cx="3" cy="3" r="3"></circle></g>
<g transform="translate(810,783) scale(4.635)"><circle cx="3" cy="3" r="3"></circle></g>
<g transform="translate(837,783) scale(4.635)"><circle cx="3" cy="3" r="3"></circle></g>
<g transform="translate(864,783) scale(4.635)"><circle cx="3" cy="3" r="3"></circle></g>
<g transform="translate(891,783) scale(4.635)"><circle cx="3" cy="3" r="3"></circle></g>
<g transform="translate(918,783) scale(4.635)"><circle cx="3" cy="3" r="3"></circle></g>
<g transform="translate(270,810) scale(4.635)"><circle cx="3" cy="3" r="3"></circle></g>
<g transform="translate(324,810) scale(4.635)"><circle cx="3" cy="3" r="3"></circle></g>
<g transform="translate(351,810) scale(4.635)"><circle cx="3" cy="3" r="3"></circle></g>
<g transform="translate(405,810) scale(4.635)"><circle cx="3" cy="3" r="3"></circle></g>
<g transform="translate(486,810) scale(4.635)"><circle cx="3" cy="3" r="3"></circle></g>
<g transform="translate(513,810) scale(4.635)"><circle cx="3" cy="3" r="3"></circle></g>
<g transform="translate(540,810) scale(4.635)"><circle cx="3" cy="3" r="3"></circle></g>
<g transform="translate(594,810) scale(4.635)"><circle cx="3" cy="3" r="3"></circle></g>
<g transform="translate(621,810) scale(4.635)"><circle cx="3" cy="3" r="3"></circle></g>
<g transform="translate(648,810) scale(4.635)"><circle cx="3" cy="3" r="3"></circle></g>
<g transform="translate(702,810) scale(4.635)"><circle cx="3" cy="3" r="3"></circle></g>
<g transform="translate(729,810) scale(4.635)"><circle cx="3" cy="3" r="3"></circle></g>
<g transform="translate(756,810) scale(4.635)"><circle cx="3" cy="3" r="3"></circle></g>
<g transform="translate(783,810) scale(4.635)"><circle cx="3" cy="3" r="3"></circle></g>
<g transform="translate(810,810) scale(4.635)"><circle cx="3" cy="3" r="3"></circle></g>
<g transform="translate(837,810) scale(4.635)"><circle cx="3" cy="3" r="3"></circle></g>
<g transform="translate(891,810) scale(4.635)"><circle cx="3" cy="3" r="3"></circle></g>
<g transform="translate(918,810) scale(4.635)"><circle cx="3" cy="3" r="3"></circle></g>
<g transform="translate(270,837) scale(4.635)"><circle cx="3" cy="3" r="3"></circle></g>
<g transform="translate(324,837) scale(4.635)"><circle cx="3" cy="3" r="3"></circle></g>
<g transform="translate(351,837) scale(4.635)"><circle cx="3" cy="3" r="3"></circle></g>
<g transform="translate(405,837) scale(4.635)"><circle cx="3" cy="3" r="3"></circle></g>
<g transform="translate(513,837) scale(4.635)"><circle cx="3" cy="3" r="3"></circle></g>
<g transform="translate(567,837) scale(4.635)"><circle cx="3" cy="3" r="3"></circle></g>
<g transform="translate(594,837) scale(4.635)"><circle cx="3" cy="3" r="3"></circle></g>
<g transform="translate(675,837) scale(4.635)"><circle cx="3" cy="3" r="3"></circle></g>
<g transform="translate(702,837) scale(4.635)"><circle cx="3" cy="3" r="3"></circle></g>
<g transform="translate(729,837) scale(4.635)"><circle cx="3" cy="3" r="3"></circle></g>
<g transform="translate(810,837) scale(4.635)"><circle cx="3" cy="3" r="3"></circle></g>
<g transform="translate(837,837) scale(4.635)"><circle cx="3" cy="3" r="3"></circle></g>
<g transform="translate(891,837) scale(4.635)"><circle cx="3" cy="3" r="3"></circle></g>
<g transform="translate(270,864) scale(4.635)"><circle cx="3" cy="3" r="3"></circle></g>
<g transform="translate(297,864) scale(4.635)"><circle cx="3" cy="3" r="3"></circle></g>
<g transform="translate(324,864) scale(4.635)"><circle cx="3" cy="3" r="3"></circle></g>
<g transform="translate(378,864) scale(4.635)"><circle cx="3" cy="3" r="3"></circle></g>
<g transform="translate(405,864) scale(4.635)"><circle cx="3" cy="3" r="3"></circle></g>
<g transform="translate(459,864) scale(4.635)"><circle cx="3" cy="3" r="3"></circle></g>
<g transform="translate(540,864) scale(4.635)"><circle cx="3" cy="3" r="3"></circle></g>
<g transform="translate(567,864) scale(4.635)"><circle cx="3" cy="3" r="3"></circle></g>
<g transform="translate(675,864) scale(4.635)"><circle cx="3" cy="3" r="3"></circle></g>
<g transform="translate(729,864) scale(4.635)"><circle cx="3" cy="3" r="3"></circle></g>
<g transform="translate(756,864) scale(4.635)"><circle cx="3" cy="3" r="3"></circle></g>
<g transform="translate(837,864) scale(4.635)"><circle cx="3" cy="3" r="3"></circle></g>
<g transform="translate(864,864) scale(4.635)"><circle cx="3" cy="3" r="3"></circle></g>
<g transform="translate(297,891) scale(4.635)"><circle cx="3" cy="3" r="3"></circle></g>
<g transform="translate(351,891) scale(4.635)"><circle cx="3" cy="3" r="3"></circle></g>
<g transform="translate(378,891) scale(4.635)"><circle cx="3" cy="3" r="3"></circle></g>
<g transform="translate(459,891) scale(4.635)"><circle cx="3" cy="3" r="3"></circle></g>
<g transform="translate(567,891) scale(4.635)"><circle cx="3" cy="3" r="3"></circle></g>
<g transform="translate(783,891) scale(4.635)"><circle cx="3" cy="3" r="3"></circle></g>
<g transform="translate(837,891) scale(4.635)"><circle cx="3" cy="3" r="3"></circle></g>
<g transform="translate(864,891) scale(4.635)"><circle cx="3" cy="3" r="3"></circle></g>
<g transform="translate(297,918) scale(4.635)"><circle cx="3" cy="3" r="3"></circle></g>
<g transform="translate(351,918) scale(4.635)"><circle cx="3" cy="3" r="3"></circle></g>
<g transform="translate(378,918) scale(4.635)"><circle cx="3" cy="3" r="3"></circle></g>
<g transform="translate(486,918) scale(4.635)"><circle cx="3" cy="3" r="3"></circle></g>
<g transform="translate(540,918) scale(4.635)"><circle cx="3" cy="3" r="3"></circle></g>
<g transform="translate(567,918) scale(4.635)"><circle cx="3" cy="3" r="3"></circle></g>
<g transform="translate(594,918) scale(4.635)"><circle cx="3" cy="3" r="3"></circle></g>
<g transform="translate(621,918) scale(4.635)"><circle cx="3" cy="3" r="3"></circle></g>
<g transform="translate(648,918) scale(4.635)"><circle cx="3" cy="3" r="3"></circle></g>
<g transform="translate(675,918) scale(4.635)"><circle cx="3" cy="3" r="3"></circle></g>
<g transform="translate(702,918) scale(4.635)"><circle cx="3" cy="3" r="3"></circle></g>
<g transform="translate(891,918) scale(4.635)"><circle cx="3" cy="3" r="3"></circle></g>
</g></g></mask></defs>
<rect x="0" y="0" width="999" height="999" mask="url(#qrmask)" fill="#000000"></rect>
<g><g transform="translate(54,54)" fill="#000000"><g transform="scale(13.5)"><path d="M4.5,14h5.1C12,14,14,12,14,9.6V4.5C14,2,12,0,9.5,0H4.4C2,0,0,2,0,4.4v5.1C0,12,2,14,4.5,14z M12,4.8v4.4 c0,1.5-1.3,2.8-2.8,2.8H4.8C3.2,12,2,10.8,2,9.2V4.8C2,3.3,3.3,2,4.8,2h4.4C10.8,2,12,3.2,12,4.8z"></path></g></g>
<g transform="translate(108,108)" fill="#000000"><g transform="scale(13.5)"><path d="M6,1.7v2.7C6,5.2,5.2,6,4.3,6H1.7C0.7,6,0,5.3,0,4.3V1.7C0,0.8,0.8,0,1.7,0h2.7C5.3,0,6,0.7,6,1.7z"></path></g></g>
<g transform="translate(756,54)" fill="#000000"><g transform="scale(13.5)"><path d="M4.5,14h5.1C12,14,14,12,14,9.6V4.5C14,2,12,0,9.5,0H4.4C2,0,0,2,0,4.4v5.1C0,12,2,14,4.5,14z M12,4.8v4.4 c0,1.5-1.3,2.8-2.8,2.8H4.8C3.2,12,2,10.8,2,9.2V4.8C2,3.3,3.3,2,4.8,2h4.4C10.8,2,12,3.2,12,4.8z"></path></g></g>
<g transform="translate(810,108)" fill="#000000"><g transform="scale(13.5)"><path d="M6,1.7v2.7C6,5.2,5.2,6,4.3,6H1.7C0.7,6,0,5.3,0,4.3V1.7C0,0.8,0.8,0,1.7,0h2.7C5.3,0,6,0.7,6,1.7z"></path></g></g>
<g transform="translate(54,756)" fill="#000000"><g transform="scale(13.5)"><path d="M4.5,14h5.1C12,14,14,12,14,9.6V4.5C14,2,12,0,9.5,0H4.4C2,0,0,2,0,4.4v5.1C0,12,2,14,4.5,14z M12,4.8v4.4 c0,1.5-1.3,2.8-2.8,2.8H4.8C3.2,12,2,10.8,2,9.2V4.8C2,3.3,3.3,2,4.8,2h4.4C10.8,2,12,3.2,12,4.8z"></path></g></g>
<g transform="translate(108,810)" fill="#000000"><g transform="scale(13.5)"><path d="M6,1.7v2.7C6,5.2,5.2,6,4.3,6H1.7C0.7,6,0,5.3,0,4.3V1.7C0,0.8,0.8,0,1.7,0h2.7C5.3,0,6,0.7,6,1.7z"></path></g></g></g>
</svg>