<svg height="14.047" viewBox="0 0 94.803 14.047" width="94.803" xmlns="http://www.w3.org/2000/svg"><g fill="#651fde"><path d="m515.841 1040.159-4.708-.684-2.1-4.267a.334.334 0 0 0 -.575 0l-2.106 4.266-4.71.685a.321.321 0 0 0 -.178.547l3.408 3.321-.8 4.689a.321.321 0 0 0 .465.338l4.212-2.214 4.212 2.213a.321.321 0 0 0 .465-.338l-.8-4.689 3.408-3.321a.321.321 0 0 0 -.178-.547z" transform="translate(-501.362 -1035.044)"/><path d="m538.486 1040.159-4.708-.684-2.1-4.267a.334.334 0 0 0 -.575 0l-2.106 4.266-4.71.685a.321.321 0 0 0 -.178.547l3.408 3.321-.8 4.689a.321.321 0 0 0 .465.338l4.211-2.214 4.212 2.213a.321.321 0 0 0 .465-.338l-.8-4.689 3.408-3.321a.321.321 0 0 0 -.178-.547z" transform="translate(-503.996 -1035.044)"/><path d="m561.131 1040.159-4.708-.684-2.1-4.267a.334.334 0 0 0 -.575 0l-2.106 4.266-4.71.685a.321.321 0 0 0 -.178.547l3.408 3.321-.8 4.689a.321.321 0 0 0 .465.338l4.212-2.214 4.212 2.213a.321.321 0 0 0 .465-.338l-.8-4.689 3.408-3.321a.321.321 0 0 0 -.178-.547z" transform="translate(-506.628 -1035.044)"/><path d="m583.776 1040.159-4.708-.684-2.1-4.267a.334.334 0 0 0 -.575 0l-2.106 4.266-4.71.685a.321.321 0 0 0 -.178.547l3.408 3.321-.8 4.689a.321.321 0 0 0 .465.338l4.211-2.214 4.212 2.213a.321.321 0 0 0 .465-.338l-.8-4.689 3.408-3.321a.321.321 0 0 0 -.178-.547z" transform="translate(-509.261 -1035.044)"/><path d="m606.422 1040.159-4.708-.684-2.1-4.267a.334.334 0 0 0 -.575 0l-2.106 4.266-4.71.685a.321.321 0 0 0 -.178.547l3.408 3.321-.8 4.689a.32.32 0 0 0 .465.338l4.212-2.214 4.212 2.213a.321.321 0 0 0 .465-.338l-.8-4.689 3.408-3.321a.321.321 0 0 0 -.178-.547z" transform="translate(-511.893 -1035.044)"/></g></svg>