<svg height="16.277" viewBox="0 0 83.342 16.277" width="83.342" xmlns="http://www.w3.org/2000/svg"><g fill="#fff"><path d="m212.349 150.908c-.172-.181-.284-.294-.39-.412l-9.8-10.574a.688.688 0 0 0 -.441-.189c-.576-.022-1.151 0-1.715 0h-1.269v16.18h3.278v-11.15l.635.681q4.76 5.145 9.511 10.273a.612.612 0 0 0 .5.218c.835-.012 1.671 0 2.506 0h.441v-16.192h-3.261zm-51.62-11.246v.414c0 2.029.015 4.06 0 6.088a10.627 10.627 0 0 1 -.181 1.96 4.584 4.584 0 0 1 -3.594 3.92 6.284 6.284 0 0 1 -3.653-.228 4.533 4.533 0 0 1 -2.568-2.318 6.186 6.186 0 0 1 -.637-2.7c-.022-2.247 0-4.493-.017-6.74v-.385h-4.033v.327c0 1.975-.024 3.949.012 5.924a17.306 17.306 0 0 0 .245 2.712 8.136 8.136 0 0 0 4.41 6.125 10.6 10.6 0 0 0 5.88 1.032 8.313 8.313 0 0 0 8.029-8.291c.1-2.568.044-5.145.054-7.715a.62.62 0 0 0 -.032-.13zm18.013 3.6h9.1v-3.518h-12.364v16.17h12.356v-3.55h-9.085v-2.889h6.039v-3.555h-6.047zm50.638 12.652v-16.17h-3.124v16.17z" transform="translate(-146.038 -139.66)"/><path d="m374.682 151.1v-11.16h3.244v16.17h-2.947a.612.612 0 0 1 -.5-.218q-4.751-5.145-9.511-10.273l-.635-.681v11.172h-3.283v-16.19h2.984a.688.688 0 0 1 .441.189q4.9 5.282 9.8 10.574c.125.128.238.24.407.417z" transform="translate(-308.371 -139.856)"/><path d="m160.744 139.67h3.92a.626.626 0 0 1 .032.13c0 2.573.044 5.145-.054 7.715a8.313 8.313 0 0 1 -8.029 8.291 10.584 10.584 0 0 1 -5.88-1.031 8.119 8.119 0 0 1 -4.41-6.125 17.307 17.307 0 0 1 -.245-2.712c-.037-1.975-.012-3.949-.012-5.924v-.323h4.021v.385c0 2.247 0 4.493.017 6.74a6.187 6.187 0 0 0 .637 2.7 4.533 4.533 0 0 0 2.568 2.318 6.285 6.285 0 0 0 3.653.228 4.591 4.591 0 0 0 3.594-3.92 10.63 10.63 0 0 0 .181-1.96c.022-2.029 0-4.06 0-6.088z" transform="translate(-146.053 -139.667)"/><path d="m269.463 143.518v2.658h6.047v3.555h-6.039v2.889h9.085v3.55h-12.356v-16.17h12.363v3.511z" transform="translate(-236.76 -139.917)"/><path d="m476.574 156.17h-3.124v-16.17h3.124z" transform="translate(-393.232 -139.917)"/></g></svg>