<svg height="17.962" viewBox="0 0 75.311 17.962" width="75.311" xmlns="http://www.w3.org/2000/svg"><path d="m17.688 16.768h-4.177l-1.278-3.082h-6.961l-1.164 3.082h-4.108l6.276-15.568h4.5zm-9.107-11.846-2.281 6.048h4.793zm24.279-3.722h3.378v15.568h-3.88v-9.722l-4.2 4.884h-.593l-4.2-4.884v9.722h-3.88v-15.568h3.378l5 5.774zm13.209 0c5.683 0 8.6 3.537 8.6 7.8 0 4.473-2.83 7.761-9.037 7.761h-6.432v-15.561zm-2.99 12.713h2.533c3.9 0 5.067-2.648 5.067-4.931 0-2.671-1.438-4.929-5.112-4.929h-2.488zm19.313-9.02-4.892-4.893h17.811v17.812l-4.893-4.893v-8.026zm-.006.981-5.037 5.037v7.051h7.051l5.037-5.037h-7.05z" fill="#fff"/></svg>