<svg height="21.466" viewBox="0 0 109.857 21.466" width="109.857" xmlns="http://www.w3.org/2000/svg"><g fill="#fff" fill-rule="evenodd"><path d="m16.578 8.343a8.242 8.242 0 0 1 11.67.864 8.633 8.633 0 0 1 .432 11.67l-6.48 6.482c-1.3-.864-3.457-2.593-2.593-4.322 1.729-2.161 3.887-3.887 5.619-6.051 1.3-1.729.432-5.187-2.161-5.619a3.6 3.6 0 0 0 -4.754 3.887c0 2.161 1.729 3.457 3.025 4.754-1.3 1.3-3.025 2.161-3.025 3.887-1.3-1.729-3.457-3.025-4.322-5.187a8.658 8.658 0 0 1 2.589-10.365z" transform="translate(-13.231 -6.322)"/><path d="m72.717 9.774c.432-1.3 1.729-.864 2.593-.864v15.99h-2.593v-1.3a5.853 5.853 0 0 1 -7.347 0 6.148 6.148 0 0 1 -.432-8.644 5.952 5.952 0 0 1 7.779-.864zm-3.887 5.619c-2.161.432-3.887 3.457-2.161 5.619a3.255 3.255 0 0 0 5.619-.432c1.294-2.162-.868-5.187-3.461-5.187z" transform="translate(-41.71 -7.754)"/><path d="m96 18.661h2.593v.864c.864-1.3 2.593-1.3 4.322-.864-.432.864-.864 1.3-.864 2.161-1.729-.432-3.457.432-3.457 1.729v6.483c-.433 1.3-1.729 1.3-2.594 1.3z" transform="translate(-60.24 -13.183)"/><path d="m115.56 18.488c4.322-1.729 8.644 2.593 7.779 6.915s-6.915 6.483-9.945 3.457c-3.457-3.025-2.161-9.508 2.161-10.372zm1.3 2.161a4.27 4.27 0 0 0 -3.025 3.025 3.484 3.484 0 0 0 6.914.862c0-2.159-2.16-4.32-3.888-3.887z" transform="translate(-68.996 -13.009)"/><path d="m143 18.735h2.593v.865a5.952 5.952 0 0 1 7.779.864 5.636 5.636 0 0 1 -.428 8.212c-1.729 2.161-5.187 2.161-7.347.864v3.887c-.432 1.3-1.729 1.3-2.593 1.3v-15.992zm5.619 2.161c-2.593.432-3.887 3.457-2.593 5.187 1.3 2.161 4.754 2.161 5.619 0 1.727-2.162-.433-5.183-3.026-5.183z" transform="translate(-86.926 -13.257)"/><path d="m177.127 19.01a5.871 5.871 0 0 1 6.915.864c-.432.432-.864 1.3-1.729 1.729a3.345 3.345 0 0 0 -5.187 1.3 3.546 3.546 0 0 0 3.025 4.754c.864 0 1.729-.432 2.593-.432a3.375 3.375 0 0 1 1.729 1.729c-3.025 2.593-8.212 1.729-9.508-2.161-1.728-2.593-.432-6.056 2.162-7.783z" transform="translate(-104.63 -13.1)"/><path d="m197.6 26.212c-1.295-3.89 1.728-8.212 5.618-8.212a6.9 6.9 0 0 1 6.483 5.619v6.481c-1.3 0-2.161 0-3.025-.864-3.025 2.161-7.779.432-9.076-3.025zm5.619-5.619a3.8 3.8 0 0 0 -2.593 5.619c1.729 2.161 5.187 1.729 6.051-.432a3.809 3.809 0 0 0 -3.458-5.187z" transform="translate(-117.756 -12.954)"/><path d="m230 18.687h2.593v.864c1.3-1.729 4.322-1.3 6.051.432 2.161-2.593 6.483-1.729 7.347 1.3.432 2.593 0 5.619 0 8.212 0 .864-1.3.864-2.593.864 0-2.593.432-5.187 0-7.779a1.977 1.977 0 0 0 -3.887 0v7.779h-2.593a52.3 52.3 0 0 0 -.432-8.212c-.432-1.729-3.457-1.3-3.457.432a46.98 46.98 0 0 0 -.432 7.779h-2.597z" transform="translate(-136.326 -13.208)"/></g></svg>