<svg height="31.06" viewBox="0 0 73.221 31.06" width="73.221" xmlns="http://www.w3.org/2000/svg"><path d="m121.208 70.178c-26.644-2.005-48.663 4.256-53.615 6.589-2.742 1.228-2.947 2.783-2.538 3.643.368.655 1.678 1.064 3.111.327 10.559-5.607 31.965-10.068 53.042-8.8a.88.88 0 1 0 0-1.76zm6.592-7.858c-1.105 1.228-2.742 2.169-3.274 1.719-.491-.45 0-1.924 0-1.924 2.619-1.678 7.694-5.935 7.694-9.209 0-3.029-2.742-3.97-5.648-1.146a21.055 21.055 0 0 0 -4.952 8.84c-1.514 1.473-3.888 3.356-6.057 3.356-1.105 0-1.432-.778-1.269-1.842 1.842-.041 6.917-1.432 6.917-5.648a2.645 2.645 0 0 0 -.819-1.842 2.578 2.578 0 0 0 -1.924-.655c-2.292 0-5.239 2.333-6.671 5.607a5.356 5.356 0 0 1 -1.146-.368 14.016 14.016 0 0 0 .9-2.5c.327-1.719-.409-2.783-1.842-2.66a2.679 2.679 0 0 0 -2.21 2.66 4.993 4.993 0 0 0 .491 2.66c-.614 1.924-3.192 4.338-4.052 4.256s.123-3.52.982-6.057a4.772 4.772 0 0 0 1.105-1.719 1.061 1.061 0 0 0 -.409-1.392 2.664 2.664 0 0 0 -3.356 1.392 11.721 11.721 0 0 0 -.9 1.924c-.7.859-1.842 1.924-2.169 1.842-.491-.327 1.105-2.415.9-3.561a1.851 1.851 0 0 0 -2.007-1.553c-1.432.2-3.356 2.906-3.356 2.906a5.141 5.141 0 0 0 .409-1.555c-.082-1.023-2.005-1.473-2.947.368a27.716 27.716 0 0 0 -1.432 5.484c-.409.859-2.005 3.356-3.274 3.438-1.023.082.246-4.42.409-4.666a6.529 6.529 0 0 0 1.107-3.435 1.307 1.307 0 0 0 -.45-.982 1.225 1.225 0 0 0 -1.064-.2 2.393 2.393 0 0 0 -1.516 1.142 2 2 0 0 0 -1.924-.7c-4.216.45-6.917 7.694-6.63 11.091.246 1.842 1.105 2.947 2.742 2.742 1.842-.246 3.356-2.865 3.356-2.865s.409 2.169 2.374 1.924a7.436 7.436 0 0 0 3.724-2.578 1.2 1.2 0 0 0 -.082.368c-.327 1.842 2.742 1.637 3.029.246.9-6.917 3.274-9.782 3.97-9.782.573 0-1.514 3.274-.327 4.5.9 1.105 2.537.246 3.888-.9a11.622 11.622 0 0 0 -.409 2.66c-.082 1.924.614 3.479 2.538 3.438 2.538-.082 5.239-3.192 7-6.139a4.912 4.912 0 0 0 1.514.614 7.379 7.379 0 0 0 -.2 2.128c.164 2.251 1.76 3.111 3.6 3.029 2.169-.082 4.707-1.719 6.426-3.192a.582.582 0 0 1 -.082.246c-.164 1.105.082 3.111 1.678 3.192 1.842.164 4.993-1.719 6.589-3.643 1.346-.855.036-2.079-.944-1.059zm1.719-9.372a.358.358 0 0 1 .327.368c0 1.924-4.952 6.057-4.952 6.057s3.231-6.426 4.623-6.426zm-11.912 4.052a.616.616 0 0 1 .45.164.462.462 0 0 1 .123.45c0 1.105-1.514 1.924-3.192 1.924.9-1.27 1.923-2.538 2.619-2.538zm-32.947 3.028c-.164 1.146-2.21 6.385-3.356 6.385-1.432.082.7-7.367 3.029-7.326.45-.001.45.327.327.941zm-17.926 1.391c1.351 0-1.105 6.917-.778 9.945s3.724 2.169 3.479.368c-.409-2.947 1.678-12.36 3.724-12.36 1.514 0-1.678 6.467-1.023 10.477.409 2.66 4.052 1.842 3.643.164-1.105-5.28 2.619-10.4 2.128-14.12-.246-1.555-1.105-2.415-2.169-2.415-3.438 0-6.221 6.835-6.221 6.835s.327-3.888-2.456-4.052c-4.011-.203-8.145 9.739-8.061 18.746.082 2.865 3.724 2.415 3.479.082-.207-4.011 2.167-13.67 4.255-13.67z" fill="#fff" transform="translate(-58.997 -50.07)"/></svg>