<svg width="18" height="18" viewBox="0 0 18 18" fill="none" xmlns="http://www.w3.org/2000/svg">
<g clip-path="url(#clip0_1009_8376)">
<mask id="mask0_1009_8376" style="mask-type:luminance" maskUnits="userSpaceOnUse" x="0" y="0" width="18" height="18">
<path d="M17.5706 0.428711H0.427734V17.5716H17.5706V0.428711Z" fill="white"/>
</mask>
<g mask="url(#mask0_1009_8376)">
<path d="M14.9503 3.44854C13.8407 2.92934 12.6541 2.55201 11.4136 2.33716C11.2613 2.61259 11.0833 2.98306 10.9606 3.27777C9.64192 3.07946 8.33538 3.07946 7.04097 3.27777C6.91828 2.98306 6.73625 2.61259 6.58254 2.33716C5.34071 2.55201 4.15282 2.93073 3.04313 3.45129C0.804884 6.83358 0.198132 10.1319 0.501509 13.3833C1.98603 14.4919 3.42472 15.1654 4.83912 15.606C5.18834 15.1254 5.49981 14.6145 5.76812 14.076C5.2571 13.8818 4.76766 13.6422 4.30519 13.364C4.42788 13.2731 4.54789 13.1781 4.66384 13.0803C7.48456 14.3996 10.5494 14.3996 13.3364 13.0803C13.4537 13.1781 13.5737 13.2731 13.695 13.364C13.2312 13.6436 12.7404 13.8832 12.2294 14.0774C12.4977 14.6145 12.8078 15.1268 13.1584 15.6074C14.5742 15.1667 16.0142 14.4933 17.4987 13.3833C17.8547 9.61405 16.8906 6.34606 14.9503 3.44854ZM6.15241 11.3837C5.30565 11.3837 4.61125 10.5932 4.61125 9.63057C4.61125 8.66794 5.29083 7.87608 6.15241 7.87608C7.01401 7.87608 7.70839 8.66655 7.69357 9.63057C7.69491 10.5932 7.01401 11.3837 6.15241 11.3837ZM11.8478 11.3837C11.0011 11.3837 10.3067 10.5932 10.3067 9.63057C10.3067 8.66794 10.9862 7.87608 11.8478 7.87608C12.7094 7.87608 13.4038 8.66655 13.389 9.63057C13.389 10.5932 12.7094 11.3837 11.8478 11.3837Z" fill="white" fill-opacity="0.4"/>
</g>
</g>
<defs>
<clipPath id="clip0_1009_8376">
<rect width="18" height="18" fill="white"/>
</clipPath>
</defs>
</svg>
