<svg width="18" height="18" viewBox="0 0 18 18" fill="none" xmlns="http://www.w3.org/2000/svg">
<g clip-path="url(#clip0_1009_8355)">
<mask id="mask0_1009_8355" style="mask-type:luminance" maskUnits="userSpaceOnUse" x="0" y="0" width="18" height="18">
<path d="M17.5706 0.428711H0.427734V17.5716H17.5706V0.428711Z" fill="white"/>
</mask>
<g mask="url(#mask0_1009_8355)">
<g clip-path="url(#clip1_1009_8355)">
<path d="M10.0998 8.86953C10.0998 11.558 7.93513 13.7374 5.26506 13.7374C2.59498 13.7374 0.430176 11.5575 0.430176 8.86953C0.430176 6.18155 2.59482 4.00146 5.26506 4.00146C7.9353 4.00146 10.0998 6.18105 10.0998 8.86953Z" fill="white" fill-opacity="0.4"/>
<path d="M15.4037 8.86953C15.4037 11.4001 14.3214 13.4524 12.9863 13.4524C11.6512 13.4524 10.5688 11.4001 10.5688 8.86953C10.5688 6.33891 11.651 4.28662 12.9861 4.28662C14.3212 4.28662 15.4036 6.33825 15.4036 8.86953" fill="white" fill-opacity="0.4"/>
<path d="M17.5728 8.86948C17.5728 11.1363 17.1922 12.975 16.7226 12.975C16.253 12.975 15.8726 11.1368 15.8726 8.86948C15.8726 6.60217 16.2532 4.76392 16.7226 4.76392C17.1921 4.76392 17.5728 6.60201 17.5728 8.86948Z" fill="white" fill-opacity="0.4"/>
</g>
</g>
</g>
<defs>
<clipPath id="clip0_1009_8355">
<rect width="18" height="18" fill="white"/>
</clipPath>
<clipPath id="clip1_1009_8355">
<rect width="17.1429" height="17.1429" fill="white" transform="translate(0.430176 0.429932)"/>
</clipPath>
</defs>
</svg>
