<svg width="146" height="32" viewBox="0 0 146 32" fill="none" xmlns="http://www.w3.org/2000/svg">
<path fill-rule="evenodd" clip-rule="evenodd" d="M132.76 17.968L133.945 14.1618L134.531 12.2805C134.633 11.9529 134.935 11.73 135.277 11.73H137.538C137.88 11.73 138.182 11.9529 138.284 12.2802L138.87 14.1629L140.055 17.968H132.76ZM141.819 23.6349H146L141.641 10.2489L141.465 9.7048L141.445 9.65452C141.414 9.57721 141.378 9.50193 141.332 9.43247C141.332 9.43247 141.331 9.43247 141.331 9.43218C141.268 9.31679 141.198 9.20461 141.12 9.09881C140.54 8.28938 139.593 7.76245 138.523 7.76245H134.303C133.931 7.76245 133.572 7.82697 133.239 7.94497C132.33 8.26642 131.609 8.98808 131.288 9.89836L131.233 10.0664L131.226 10.0896L126.817 23.6349H130.996L131.843 20.9116H140.971L141.819 23.6349Z" fill="white"/>
<path fill-rule="evenodd" clip-rule="evenodd" d="M117.75 19.6655H112.248V12.4143C112.248 12.0359 112.554 11.7292 112.933 11.7292H117.827C119.991 11.7292 121.751 13.4641 121.792 15.6198C121.835 17.8446 119.973 19.6655 117.75 19.6655ZM117.977 7.76172H110.264C109.17 7.76172 108.282 8.64904 108.282 9.74563V23.6342H118.096C122.511 23.6342 126.084 20.0227 126.026 15.5913C125.969 11.2305 122.336 7.76172 117.977 7.76172Z" fill="white"/>
<path fill-rule="evenodd" clip-rule="evenodd" d="M101.524 16.62C101.524 18.3031 100.16 19.6662 98.4794 19.6662H93.7123C92.0314 19.6662 90.6679 18.3031 90.6679 16.62V14.7762C90.6679 13.094 92.0311 11.73 93.7123 11.73H98.4794C100.161 11.73 101.524 13.094 101.524 14.7762V16.62ZM98.1691 7.76245H94.0237C89.9795 7.76245 86.7031 11.0412 86.7031 15.0866V16.3096C86.7031 20.355 89.9795 23.6349 94.0237 23.6349H98.1691C102.212 23.6349 105.49 20.3553 105.49 16.3096V15.0877C105.49 11.042 102.212 7.76245 98.1691 7.76245Z" fill="white"/>
<path fill-rule="evenodd" clip-rule="evenodd" d="M72.2701 17.968L73.4555 14.1618L74.0411 12.2805C74.143 11.9529 74.4451 11.73 74.787 11.73H77.0476C77.3895 11.73 77.6916 11.9529 77.7936 12.2802L78.3803 14.1629L79.5648 17.968H72.2701ZM80.975 9.7048L80.9547 9.65452C80.9239 9.57721 80.8876 9.50193 80.8417 9.43247C80.8417 9.43247 80.8414 9.43247 80.8414 9.43218C80.7783 9.31679 80.7081 9.20461 80.6305 9.09881C80.0505 8.28938 79.1033 7.76245 78.0335 7.76245H73.8133C73.441 7.76245 73.082 7.82697 72.7494 7.94497C71.8396 8.26642 71.1193 8.98808 70.7978 9.89836L70.7431 10.0664L70.7359 10.0896L66.3267 23.6349H70.5056L71.3534 20.9116H80.4812L81.3291 23.6349H85.5103L81.1507 10.2489L80.975 9.7048Z" fill="white"/>
<path fill-rule="evenodd" clip-rule="evenodd" d="M60.3576 19.1002C60.3576 19.4129 60.1284 19.6663 59.8455 19.6663H59.6381C59.463 19.6663 59.3 19.5672 59.2059 19.4039C59.2059 19.4039 53.4794 9.43579 53.4771 9.4323L53.2857 9.09894C52.7594 8.2895 51.8996 7.76257 50.9286 7.76257H48.9029C47.2995 7.76257 46 9.1995 46 10.9718V23.635H49.5887V12.2687C49.5887 11.9713 49.8071 11.7301 50.0761 11.7301H50.28C50.4467 11.7301 50.6018 11.8243 50.6913 11.9798L56.6585 22.2937C57.1849 23.1066 58.0458 23.635 59.0188 23.635H61.0434C61.3693 23.635 61.6818 23.5754 61.9737 23.4659C63.1219 23.0375 63.9474 21.8374 63.9474 20.4243V7.76257H60.3576V19.1002Z" fill="white"/>
<g clip-path="url(#clip0_165_1235)">
<path d="M4.115 1.175C4.865 0.425 5.885 0 6.945 0H28C30.21 0 32 1.79 32 4V25.05C32 26.11 31.58 27.125 30.83 27.875L27.885 30.825C27.135 31.575 26.115 32 25.055 32H4C1.79 32 0 30.21 0 28V6.95C0 5.89 0.419998 4.875 1.17 4.125L4.115 1.175Z" fill="white"/>
<path d="M24.5929 10.055V21.9523C24.5929 23.0831 23.698 24 22.5939 24C21.4897 24 20.5948 23.0831 20.5948 21.9523V10.055C20.5948 8.92415 21.4897 8.0073 22.5939 8.0073C23.698 8.0073 24.5929 8.92415 24.5929 10.055ZM17.7956 15.7288V19.5349C17.7956 20.4882 16.5163 20.853 15.9886 20.0505C15.1642 18.798 14.2959 17.4774 13.9506 16.9521C13.8485 16.7989 13.7974 16.6214 13.7974 16.439V12.6524C13.7974 11.699 15.0742 11.3342 15.6043 12.1344L17.6399 15.2108C17.7421 15.364 17.7956 15.544 17.7956 15.7288ZM10.9982 10.0331V21.9596C10.9982 23.0831 10.1032 23.9927 8.99909 23.9927C7.89497 23.9927 7 23.0831 7 21.9596V10.0331C7 8.90956 7.89497 8 8.99909 8C10.1032 8 10.9982 8.90956 10.9982 10.0331Z" fill="#0F1114"/>
</g>
<defs>
<clipPath id="clip0_165_1235">
<rect width="32" height="32" rx="4" fill="white"/>
</clipPath>
</defs>
</svg>
