<svg width="18" height="18" viewBox="0 0 18 18" fill="none" xmlns="http://www.w3.org/2000/svg">
<g clip-path="url(#clip0_1009_8386)">
<mask id="mask0_1009_8386" style="mask-type:luminance" maskUnits="userSpaceOnUse" x="0" y="0" width="18" height="18">
<path d="M17.5706 0.428711H0.427734V17.5716H17.5706V0.428711Z" fill="white"/>
</mask>
<g mask="url(#mask0_1009_8386)">
<g clip-path="url(#clip1_1009_8386)">
<g clip-path="url(#clip2_1009_8386)">
<path fill-rule="evenodd" clip-rule="evenodd" d="M13.1312 16.2708C13.3612 16.4336 13.6577 16.4744 13.9219 16.3744C14.1862 16.2736 14.3805 16.0479 14.4391 15.7744C15.0598 12.8572 16.5655 5.47364 17.1305 2.82007C17.1734 2.62007 17.1019 2.41221 16.9448 2.27864C16.7877 2.14507 16.5698 2.1065 16.3755 2.17864C13.3805 3.28721 4.15694 6.74793 0.386939 8.14293C0.147653 8.2315 -0.00806124 8.4615 -0.0002041 8.71364C0.00836733 8.9665 0.178367 9.18578 0.423367 9.25936C2.11408 9.76507 4.33337 10.4686 4.33337 10.4686C4.33337 10.4686 5.37051 13.6008 5.91122 15.1936C5.97908 15.3936 6.13551 15.5508 6.34194 15.6051C6.54765 15.6586 6.76765 15.6022 6.92122 15.4572C7.78979 14.6372 9.13265 13.3694 9.13265 13.3694C9.13265 13.3694 11.6841 15.2401 13.1312 16.2708V16.2708ZM5.26694 10.0729L6.46622 14.0286L6.73265 11.5236C6.73265 11.5236 11.3662 7.34436 14.0077 4.96221C14.0848 4.89221 14.0955 4.77507 14.0312 4.69293C13.9677 4.61079 13.8505 4.5915 13.7627 4.64721C10.7012 6.60221 5.26694 10.0729 5.26694 10.0729Z" fill="white" fill-opacity="0.4"/>
</g>
</g>
</g>
</g>
<defs>
<clipPath id="clip0_1009_8386">
<rect width="18" height="18" fill="white"/>
</clipPath>
<clipPath id="clip1_1009_8386">
<rect width="17.1429" height="17.1429" fill="white"/>
</clipPath>
<clipPath id="clip2_1009_8386">
<rect width="17.1429" height="17.1429" fill="white"/>
</clipPath>
</defs>
</svg>
