<svg width="18" height="18" viewBox="0 0 18 18" fill="none" xmlns="http://www.w3.org/2000/svg">
<g clip-path="url(#clip0_1009_8347)">
<mask id="mask0_1009_8347" style="mask-type:luminance" maskUnits="userSpaceOnUse" x="0" y="0" width="18" height="18">
<path d="M17.5706 0.428711H0.427734V17.5716H17.5706V0.428711Z" fill="white"/>
</mask>
<g mask="url(#mask0_1009_8347)">
<g clip-path="url(#clip1_1009_8347)">
<path d="M5.39108 15.5362C11.8601 15.5362 15.3984 10.1766 15.3984 5.52884C15.3984 5.37661 15.3984 5.22507 15.3881 5.07421C16.0765 4.57632 16.6706 3.95984 17.1429 3.25364C16.501 3.53821 15.82 3.72475 15.1227 3.80701C15.857 3.3675 16.4065 2.67614 16.669 1.86164C15.9786 2.27136 15.2233 2.56009 14.4357 2.71535C13.9054 2.15148 13.204 1.7781 12.4401 1.65298C11.6763 1.52787 10.8924 1.65801 10.21 2.02325C9.52751 2.38849 8.98444 2.96848 8.66481 3.67346C8.34519 4.37844 8.26681 5.16911 8.44183 5.92312C7.0435 5.85298 5.67554 5.48957 4.42675 4.8565C3.17797 4.22342 2.07626 3.33482 1.19314 2.24838C0.743377 3.02266 0.605623 3.93926 0.807928 4.81154C1.01023 5.68382 1.53739 6.44621 2.28206 6.94347C1.72231 6.92706 1.17475 6.77606 0.685714 6.50324V6.54781C0.685936 7.35984 0.967036 8.14681 1.48134 8.77521C1.99564 9.40362 2.71147 9.83479 3.50743 9.99558C2.98963 10.1368 2.44634 10.1575 1.91931 10.0559C2.14415 10.7547 2.58173 11.3658 3.17088 11.8037C3.76003 12.2417 4.4713 12.4846 5.20526 12.4984C4.47603 13.0716 3.64094 13.4954 2.74777 13.7456C1.8546 13.9957 0.920867 14.0673 0 13.9563C1.60845 14.9884 3.47995 15.5359 5.39108 15.5334" fill="white" fill-opacity="0.4"/>
</g>
</g>
</g>
<defs>
<clipPath id="clip0_1009_8347">
<rect width="18" height="18" fill="white"/>
</clipPath>
<clipPath id="clip1_1009_8347">
<rect width="17.1429" height="17.1429" fill="white"/>
</clipPath>
</defs>
</svg>
