<svg width="18" height="18" viewBox="0 0 18 18" fill="none" xmlns="http://www.w3.org/2000/svg">
<g clip-path="url(#clip0_1009_8367)">
<mask id="mask0_1009_8367" style="mask-type:luminance" maskUnits="userSpaceOnUse" x="0" y="0" width="18" height="18">
<path d="M17.5706 0.428711H0.427734V17.5716H17.5706V0.428711Z" fill="white"/>
</mask>
<g mask="url(#mask0_1009_8367)">
<g clip-path="url(#clip1_1009_8367)">
<path d="M17.2302 4.8469C17.1333 4.48219 16.9423 4.14934 16.6763 3.88165C16.4103 3.61396 16.0787 3.42083 15.7146 3.32157C14.3744 2.96118 9.01723 2.96118 9.01723 2.96118C9.01723 2.96118 3.66009 2.96118 2.31983 3.32157C1.95575 3.42083 1.62413 3.61396 1.35815 3.88165C1.09217 4.14934 0.901162 4.48219 0.804242 4.8469C0.445801 6.193 0.445801 9.00014 0.445801 9.00014C0.445801 9.00014 0.445801 11.8073 0.804242 13.1534C0.901162 13.5181 1.09217 13.8509 1.35815 14.1186C1.62413 14.3863 1.95575 14.5795 2.31983 14.6787C3.66009 15.0391 9.01723 15.0391 9.01723 15.0391C9.01723 15.0391 14.3744 15.0391 15.7146 14.6787C16.0787 14.5795 16.4103 14.3863 16.6763 14.1186C16.9423 13.8509 17.1333 13.5181 17.2302 13.1534C17.5887 11.8073 17.5887 9.00014 17.5887 9.00014C17.5887 9.00014 17.5887 6.193 17.2302 4.8469Z" fill="white" fill-opacity="0.4"/>
<path d="M7.26416 11.5492V6.45117L11.7447 9.0002L7.26416 11.5492Z" fill="#0F1114"/>
</g>
</g>
</g>
<defs>
<clipPath id="clip0_1009_8367">
<rect width="18" height="18" fill="white"/>
</clipPath>
<clipPath id="clip1_1009_8367">
<rect width="17.1429" height="17.1429" fill="white" transform="translate(0.428711 0.428711)"/>
</clipPath>
</defs>
</svg>
