<svg width="110" height="24" viewBox="0 0 110 24" fill="none" xmlns="http://www.w3.org/2000/svg">
<g clip-path="url(#clip0_79_1976)">
<path d="M0 0H3.63111L14.9364 17.4509H15.0051V0H18.8079V24H15.1767L3.87143 6.58342H3.80277V24.0013H0V0Z" fill="white"/>
<path d="M29.4697 0H33.2382L41.9053 24H37.8622L35.8064 18.3086H26.8646L24.8087 24H20.7656L29.4697 0ZM34.8821 14.9825L31.354 4.83383H31.2853L27.8245 14.9825H34.8821Z" fill="white"/>
<path d="M67.9385 0H82.7732L86.782 4.01189V19.9894L82.7732 24.0013H67.9385V0ZM80.8547 20.5722L82.8076 18.6521V5.34919L80.8547 3.42914H71.9129V20.5722H80.8547Z" fill="white"/>
<path d="M96.8203 0H100.589L109.256 24H105.213L103.157 18.3086H94.2152L92.1593 24H88.1162L96.8203 0ZM102.233 14.9825L98.7045 4.83383H98.6359L95.1751 14.9825H102.233Z" fill="white"/>
<path d="M63.6096 12.0265C63.6096 14.8795 63.6096 17.7311 63.6109 20.5841C63.6109 20.7837 63.5885 20.9264 63.4023 21.081C62.2971 21.9981 61.2183 22.9469 60.1198 23.8745C60.0247 23.9538 59.8623 23.9855 59.7316 23.9855C55.8152 23.9908 51.8989 23.9829 47.9813 24C47.5561 24.0014 47.3712 23.6961 47.1217 23.4913C46.2053 22.7381 45.3246 21.9399 44.4188 21.1722C44.2142 20.9991 44.0993 20.8339 44.1006 20.5471C44.1098 14.853 44.1085 9.15894 44.1032 3.46486C44.1032 3.18868 44.1851 3.01557 44.4069 2.83321C45.149 2.22535 45.8607 1.57916 46.5843 0.948836C46.9117 0.663405 47.2352 0.371367 47.5746 0.0991499C47.6591 0.0317565 47.7964 0.00400621 47.9086 0.00400621C51.8699 -0.00127955 55.8298 -0.00260099 59.791 0.00797053C59.9336 0.00797053 60.0986 0.101793 60.2148 0.199579C61.0506 0.894657 61.8772 1.60295 62.7051 2.30596C62.9784 2.53853 63.2636 2.75921 63.5172 3.01028C63.5924 3.08428 63.603 3.24682 63.603 3.36971C63.6069 6.25574 63.6069 9.14045 63.6069 12.0265H63.6096ZM59.6616 3.893C55.8047 3.18207 51.9332 2.46717 48.0367 1.74831V20.1375C51.9068 20.9105 55.769 21.6809 59.6616 22.4579V3.893Z" fill="white"/>
</g>
<defs>
<clipPath id="clip0_79_1976">
<rect width="109.256" height="24" fill="white"/>
</clipPath>
</defs>
</svg>
