<svg xmlns="http://www.w3.org/2000/svg" width="152" height="29.333" viewBox="0 0 152 29.333"><path d="M28.59,10.6H16.264L5.79,10.643A1.915,1.915,0,0,0,3.938,9a1.938,1.938,0,0,0-1.885,1.976v6.567a.085.085,0,0,0,0,.009.1.1,0,0,1,0,.011l0,3.959a.6.6,0,0,0,.9.548c2.826-1.691,11.68-6.7,17.439-6.7,2.238,0,1.633,1.512,1.028,3.026s-1.214,3.036,1.039,3.036A20.833,20.833,0,0,0,29.9,19.791a1.129,1.129,0,0,0,.628-1.023V12.629A1.984,1.984,0,0,0,28.59,10.6Zm1.243,14.431c-2.19.711-7.15,2.3-10.719,2.3-2.312,0-1.867-1.68-1.451-3.25.365-1.378.708-2.67-.853-2.67-4.18,0-11.272,4.248-13.7,5.7h0L2.64,27.4A1.331,1.331,0,0,0,2,28.546v9.787l4.134-6.185H28.588a1.984,1.984,0,0,0,1.936-2.03V25.563A.539.539,0,0,0,29.833,25.029Zm11.45-14.574V32.389H46.3V21.581q0-3.763.926-5.286a3.428,3.428,0,0,1,3.191-1.524A3.544,3.544,0,0,1,53.5,16.1a7.353,7.353,0,0,1,.964,4.257V32.389h5.022V21.581q0-3.684.982-5.246a3.535,3.535,0,0,1,3.247-1.563,3.4,3.4,0,0,1,3,1.326,7.6,7.6,0,0,1,.926,4.257V32.391h5.022V19.721q0-9.777-8.5-9.779a7.806,7.806,0,0,0-6.683,3.4,6.974,6.974,0,0,0-2.529-2.614,7.449,7.449,0,0,0-3.625-.792,6.588,6.588,0,0,0-5.437,2.574V10.455Zm55.094,13.3h-16.2A5.315,5.315,0,0,0,82.159,26.9a6.067,6.067,0,0,0,3.8,1.168,6.177,6.177,0,0,0,2.605-.475,5.829,5.829,0,0,0,2-1.7h5.475A9.413,9.413,0,0,1,92.3,30.944a10.6,10.6,0,0,1-6.23,1.96A11.221,11.221,0,0,1,74.741,21.5a11.431,11.431,0,0,1,3.21-8.195,10.392,10.392,0,0,1,7.817-3.366,10.067,10.067,0,0,1,7.741,3.326,12.026,12.026,0,0,1,3.058,8.472A10.543,10.543,0,0,1,96.377,23.756ZM80.026,19.125H91.619q-.983-4.356-5.739-4.356Q81.233,14.769,80.026,19.125Zm23.184,4.631h16.2a10.552,10.552,0,0,0,.191-2.018,12.025,12.025,0,0,0-3.058-8.472A10.067,10.067,0,0,0,108.8,9.941a10.394,10.394,0,0,0-7.818,3.366,11.432,11.432,0,0,0-3.21,8.195A11.221,11.221,0,0,0,109.1,32.9a10.6,10.6,0,0,0,6.231-1.96,9.41,9.41,0,0,0,3.737-5.049h-5.475a5.83,5.83,0,0,1-2,1.7,6.183,6.183,0,0,1-2.606.475,6.065,6.065,0,0,1-3.795-1.168A5.312,5.312,0,0,1,103.21,23.756Zm11.442-4.631H103.059q1.209-4.356,5.854-4.356Q113.671,14.769,114.652,19.125Zm7.063,13.263V10.454h4.607v2.137a6.382,6.382,0,0,1,1.964-2.078,4.965,4.965,0,0,1,2.529-.574h.415v5.068q-4.494,0-4.493,5.186V32.388Zm29.056-19.1a10.936,10.936,0,0,0-15.765.021,11.265,11.265,0,0,0-3.247,8.117,11.209,11.209,0,0,0,3.267,8.136,10.892,10.892,0,0,0,15.727-.021A11.218,11.218,0,0,0,154,21.46,11.331,11.331,0,0,0,150.771,13.285Zm-12.205,3.425a5.765,5.765,0,0,1,8.626,0,6.706,6.706,0,0,1,1.786,4.711,6.706,6.706,0,0,1-1.786,4.711,5.765,5.765,0,0,1-8.626,0,6.7,6.7,0,0,1-1.786-4.711A6.709,6.709,0,0,1,138.566,16.709Z" transform="translate(-2 -9)" fill="#fff" fill-rule="evenodd"></path></svg>