<svg xmlns="http://www.w3.org/2000/svg" width="43" height="30.38" viewBox="0 0 43 30.38"><path d="M0-30.814v17.46A6.44,6.44,0,0,0,2.083-8.4a5.694,5.694,0,0,0,6.736.235,6,6,0,0,1-2.284-5.123V-30.814ZM40.808-16.243V-18.09h2v-6.45H40.615a8.618,8.618,0,0,0-8.424-6.778,8.633,8.633,0,0,0-8.625,8.625v15.05a5.45,5.45,0,0,0,4.342-1.176,6.4,6.4,0,0,0,2.083-4.955v-.563h3.259v-6.45H29.991v-1.957a2.192,2.192,0,0,1,4.384,0v6.475A8.633,8.633,0,0,0,43-7.643v-6.425A2.185,2.185,0,0,1,40.808-16.243ZM16.091-24.557v9.49a1,1,0,0,1-2,0v-9.49H7.643v11.145c0,2,.672,4.535,3.779,5.367a5.231,5.231,0,0,0,4.888-.89c-.176,1.125-1.218,1.957-2.931,2.125A8.787,8.787,0,0,1,9.6-7.466v5.9a13.587,13.587,0,0,0,6.517.395c3.956-.764,6.45-4.065,6.45-8.466V-24.6H16.091Z" transform="translate(0 31.318)" fill="#fff"></path></svg>