<svg height="421.41" viewBox="0 0 407.701 421.41" width="407.701" xmlns="http://www.w3.org/2000/svg"><path d="m53.5 348.265c-.4 3-.9 6-1.3 9a285.638 285.638 0 0 1 -15.2 58.8 23.836 23.836 0 0 1 -2.3 4.5 1.927 1.927 0 0 1 -1.8.8c-.6-.1-1-1-1.9-2 2.7.3 3.1-1.2 3.5-2.6 5.5-16.7 10.6-33.5 13.7-50.9 1.2-6.8 2.1-13.6 3.2-20.4a7.594 7.594 0 0 0 -.6-4.2 236.859 236.859 0 0 1 -16.6-50.9c-2.2-10.7-3.6-21.4-3.1-32.4a21.254 21.254 0 0 1 1-5.6c1-3.1 3.7-3.9 6.2-1.8a23.928 23.928 0 0 1 4.2 5.2c3.1 4.9 5 10.3 6.7 15.9a152.526 152.526 0 0 1 5.4 28.5 195.806 195.806 0 0 1 .9 24.2c-.1 4.6-.5 9.3-.9 13.9a9.174 9.174 0 0 0 .8 4.6 180.829 180.829 0 0 0 14 25.1 71 71 0 0 0 9.9 12 35.663 35.663 0 0 0 8.6 6.4 17.084 17.084 0 0 0 14.8.5 31.557 31.557 0 0 0 9-5.8 70.735 70.735 0 0 0 11.7-13.9 141.547 141.547 0 0 0 17.9-40.1c1.2-4.1 2-8.2 3.1-12.3a3.155 3.155 0 0 0 -.4-2.5c-9.7-15.7-15.8-33-20.9-50.6a422.069 422.069 0 0 1 -11.1-52c-1.9-12.7-3.5-25.5-5.1-38.3a153.454 153.454 0 0 1 -1.2-24.4 41.869 41.869 0 0 1 1-7.1 8.256 8.256 0 0 1 1.4-3 4.381 4.381 0 0 1 5.5-1.8 14.952 14.952 0 0 1 4.8 3 52.51 52.51 0 0 1 6 7.4c5.5 8.1 9.4 17.1 12.9 26.2a240.426 240.426 0 0 1 12.6 50.1 303.062 303.062 0 0 1 3.1 53.8 233.9 233.9 0 0 1 -3.9 35.3 3.587 3.587 0 0 0 .4 3c3.6 5.3 7.6 10.3 12.7 14.2a35.755 35.755 0 0 0 5.2 3.4 21.6 21.6 0 0 0 20.5.4 38.007 38.007 0 0 0 11.8-9.3 79.458 79.458 0 0 0 10.2-14.8c6.7-12.2 11.2-25.3 14.7-38.7a295.47 295.47 0 0 0 9.4-68.8 8.075 8.075 0 0 0 -.8-3.4c-15-27.9-24.9-57.6-32.1-88.3a148.4 148.4 0 0 1 -3.6-22 36.579 36.579 0 0 1 .7-11.9 13.647 13.647 0 0 1 1.4-3.3c1.9-3.2 5.1-4.1 8.2-2.1a18.564 18.564 0 0 1 4.4 4 63.191 63.191 0 0 1 5.3 8.5c4.9 9.6 8.2 19.8 11 30.1a293.329 293.329 0 0 1 9.2 57.5c.5 8.6.6 17.3.9 25.9a6.3 6.3 0 0 0 .7 3c4.9 8.6 10.5 16.9 17.6 23.8 5 4.9 10.5 8.9 17.1 11.2a29.744 29.744 0 0 0 14.2 1.5 25.743 25.743 0 0 0 14.6-7.7 50.575 50.575 0 0 0 8.8-12.2 121.378 121.378 0 0 0 10.5-29 267.445 267.445 0 0 0 6.8-53.5c.1-3.1.1-6.2.2-9.4a3.6 3.6 0 0 0 -1.3-2.9c-19.4-19-31.3-42-36.2-68.7-2.1-11.7-2.5-23.5-.1-35.3a48.2 48.2 0 0 1 2.9-9.1 15.08 15.08 0 0 1 3.2-4.7 6.775 6.775 0 0 1 9-1 17.247 17.247 0 0 1 4.9 4.8 74.376 74.376 0 0 1 5.9 10.7c4.3 9.6 6.9 19.8 9.1 30a348.787 348.787 0 0 1 7.4 69.1 5.4 5.4 0 0 0 2.1 4.5c9.8 8.2 21.2 12.9 33.7 15.3a189.311 189.311 0 0 0 30.1 2.8q10.8.3 21.6 0a105.858 105.858 0 0 0 11.2-1 8.723 8.723 0 0 0 6.1-3 3.025 3.025 0 0 1 -1.8 3.1 29.138 29.138 0 0 1 -5.5 2.3c-5.7 1.6-11.7 2-17.6 2.2a331.139 331.139 0 0 1 -38.6-.9c-14.6-1.2-28-5.6-39.8-14.6a14.619 14.619 0 0 0 -1.5-.9c-.1 1.1-.1 2-.2 2.8a285.858 285.858 0 0 1 -4 43.4 170.6 170.6 0 0 1 -9.6 35.3 74.941 74.941 0 0 1 -7.2 14.1 57.8 57.8 0 0 1 -6.6 8.2c-8.9 9.1-19.7 11.7-31.9 8.4a43.613 43.613 0 0 1 -16.9-9.2 90.668 90.668 0 0 1 -17.5-20.6l-1.2-1.8c-.1-.1-.3-.1-.6-.3-.2 3.2-.4 6.4-.6 9.5-2 26.2-6.6 51.9-15.9 76.5a125.292 125.292 0 0 1 -10.9 22.4 57.81 57.81 0 0 1 -11.5 14.1 43.335 43.335 0 0 1 -8.2 5.8c-8.9 4.9-17.9 4.6-26.7-.4a50.684 50.684 0 0 1 -14.2-12.7c-.8-1-1.6-2-2.6-3.2-.3 1.1-.6 1.9-.8 2.7-3.8 15.6-9.3 30.6-17.7 44.4a90.287 90.287 0 0 1 -12.8 16.7 38.907 38.907 0 0 1 -10.7 7.7 21.327 21.327 0 0 1 -20.9-.8 43.15 43.15 0 0 1 -10.2-8.3 90.616 90.616 0 0 1 -12.1-16.3c-2.7-4.5-5.1-9.2-7.7-13.8-.4-.7-.7-1.4-1.1-2.1.2 0 .1 0-.1.1zm92.2-41.1c.3-.7.4-1 .5-1.3a230.668 230.668 0 0 0 2.9-26.2 290.069 290.069 0 0 0 -1.8-49.3 251.562 251.562 0 0 0 -11.3-50.9 141.926 141.926 0 0 0 -14-30.4 56.658 56.658 0 0 0 -5.2-6.9 12.989 12.989 0 0 0 -3.1-2.6c-1.4-.9-2.1-.7-2.6.9a18.62 18.62 0 0 0 -.9 4.7c-.8 9.5 0 19 1.2 28.5 1.6 13.5 3.5 27 5.6 40.4a374.922 374.922 0 0 0 11.5 51.2c4.1 13.7 9 27 15.8 39.6.3.5.7 1.2 1.4 2.3zm183.3-193.7a22.747 22.747 0 0 0 .1-2.4 336.98 336.98 0 0 0 -7.9-65.6c-2.1-9.5-4.7-18.9-8.8-27.8a75.264 75.264 0 0 0 -5-8.7 10.713 10.713 0 0 0 -3-3 2.153 2.153 0 0 0 -3.2.2 7.4 7.4 0 0 0 -1.5 2.1 38.687 38.687 0 0 0 -2.3 6.5 82.9 82.9 0 0 0 -1.1 29.8 121.014 121.014 0 0 0 30.4 66.5 24.3 24.3 0 0 0 2.3 2.4zm-95.2 74.4c.1 0 .3-.1.4-.1 0-.3.1-.6.1-.9a314.06 314.06 0 0 0 -9.6-72.8 150.106 150.106 0 0 0 -10.4-29.3 75.6 75.6 0 0 0 -5.2-8.6 13.963 13.963 0 0 0 -3.3-3.1 1.452 1.452 0 0 0 -2.4.6 12.662 12.662 0 0 0 -1.2 3.9c-.9 5.5-.1 11 .7 16.5a267.392 267.392 0 0 0 7.9 34.1c5.7 19.7 12.5 38.9 21.6 57.4a10.023 10.023 0 0 1 1.4 2.3zm-198.5 64.3a9.717 9.717 0 0 0 -1.4 5.4 113.646 113.646 0 0 0 1.1 18.4c2.7 20 8.6 39.1 16.3 57.7.2.5.6 1 1.1 1.9.2-2.6.4-4.5.5-6.5a179.171 179.171 0 0 0 -2.3-39.4c-1.6-9.2-3.7-18.3-7.7-26.9a72.2 72.2 0 0 0 -4.3-7.7 5.085 5.085 0 0 0 -3.3-2.9z" fill="#516e65" transform="translate(-31)"/></svg>