<svg height="25.976" viewBox="0 0 85.568 25.976" width="85.568" xmlns="http://www.w3.org/2000/svg"><path d="m0 18.374v-17.993h3.161v17.993zm11.251-13.054a6.7 6.7 0 1 0 .031 13.4 6.7 6.7 0 1 0 -.031-13.4zm-.037 3.05a3.65 3.65 0 1 1 -3.607 3.65 3.62 3.62 0 0 1 3.607-3.65zm14.813-3.05a6.7 6.7 0 1 0 .032 13.4 6.636 6.636 0 0 0 6.8-6.731 5.046 5.046 0 0 0 -1.029-3.429l.876-.3v-2.566h-4.489a6.773 6.773 0 0 0 -2.19-.374zm-.038 3.05a3.65 3.65 0 1 1 -3.607 3.65 3.62 3.62 0 0 1 3.607-3.65zm3.659 10.884a3.647 3.647 0 1 1 -7.295 0h-3.205a6.622 6.622 0 0 0 6.888 6.722 6.629 6.629 0 0 0 6.8-6.722zm4.478-.88v-12.68h3.161v12.68zm6.23 0v-9.84h-1.695v-2.84h1.695v-3.894h3.161v3.894h1.741v2.84h-1.741v9.839zm-2.563-16.281a2.093 2.093 0 1 1 -2.093-2.093 2.093 2.093 0 0 1 2.093 2.093zm14.57 3.219a6.564 6.564 0 0 0 -6.7 6.805 6.367 6.367 0 0 0 6.762 6.616 7.5 7.5 0 0 0 5.746-2.405l-2.113-2.116a5.628 5.628 0 0 1 -3.593 1.721 3.417 3.417 0 0 1 -3.457-2.633h9.849v-.87c0-3.473-2.01-7.117-6.493-7.117zm-.1 2.783a3.14 3.14 0 0 1 3.278 2.64h-6.619a3.3 3.3 0 0 1 3.341-2.64zm14.5 10.64a6.714 6.714 0 1 1 -.013-13.426 6.951 6.951 0 0 1 5.419 2.53l-2.205 2.195a4.511 4.511 0 0 0 -3.229-1.65 3.559 3.559 0 0 0 -3.643 3.622 3.585 3.585 0 0 0 3.619 3.671 4.5 4.5 0 0 0 3.251-1.648l2.227 2.194a6.927 6.927 0 0 1 -5.425 2.511zm6.575-.352v-18.048h3.162v6.631a4.831 4.831 0 0 1 3.843-1.656c3.31 0 5.227 2.46 5.227 5.607v7.467h-3.162v-6.99a2.668 2.668 0 0 0 -2.775-2.994 2.916 2.916 0 0 0 -3.133 3.158v6.825z" fill="#568193"/></svg>