<svg height="21.749" viewBox="0 0 60.43 21.749" width="60.43" xmlns="http://www.w3.org/2000/svg"><path d="m31.031 70.018c-3.932 4.618-7.7 10.345-7.74 14.625a5.067 5.067 0 0 0 1.733 4.081 8.406 8.406 0 0 0 5.676 2.076c2.844 0 5.668-1.143 7.879-2.028 3.721-1.487 44.886-19.362 44.886-19.362.4-.2.323-.447-.174-.323-.2.05-44.812 12.14-44.812 12.14a9.858 9.858 0 0 1 -2.6.372c-3.428.02-6.479-1.883-6.455-5.893a13.151 13.151 0 0 1 1.607-5.688z" fill="#fff" fill-rule="evenodd" opacity=".694" transform="translate(-23.29 -69.054)"/></svg>