<svg height="16.61" viewBox="0 0 69.643 16.61" width="69.643" xmlns="http://www.w3.org/2000/svg"><path d="m16.356 15.506h-3.862l-1.182-2.85h-6.437l-1.075 2.85h-3.8l5.8-14.394h4.161zm-8.421-10.954-2.11 5.593h4.432zm22.452-3.44h3.123v14.394h-3.588v-8.991l-3.883 4.516h-.549l-3.883-4.516v8.991h-3.588v-14.394h3.123l4.622 5.34zm12.215 0c5.255 0 7.956 3.271 7.956 7.218 0 4.137-2.617 7.176-8.357 7.176h-5.952v-14.394zm-2.765 11.756h2.342c3.609 0 4.685-2.449 4.685-4.56 0-2.47-1.33-4.558-4.728-4.558h-2.3v9.118zm17.863-8.343-4.528-4.525h16.471v16.471l-4.524-4.525v-7.421zm-.005.907-4.662 4.658v6.52h6.519l4.658-4.658h-6.519z" fill="#fff" opacity=".694"/></svg>