<svg height="23.864" viewBox="0 0 88.298 23.864" width="88.298" xmlns="http://www.w3.org/2000/svg"><path d="m83.813 11.393 4.724 12.5c-1.392-.2-2.783-.448-4.2-.672l-2.661-6.909-2.734 6.339c-1.342-.224-2.66-.3-4-.473l4.8-10.938-4.357-11.206h4.028l2.436 6.266 2.61-6.266h4.076zm-11.608-11.359h-3.654v21.677c1.193.075 2.436.124 3.654.273zm-6.812 21.428c-3.331-.224-6.662-.422-10.068-.5v-20.928h3.728v17.4c2.138.049 4.276.223 6.339.322zm-14.045-12.951v3.729h-5.1v8.477h-3.674v-20.683h10.44v3.728h-6.761v4.749h5.1zm-15.04-4.749v17.153c-1.243 0-2.51 0-3.729.049v-17.202h-3.853v-3.728h11.459v3.728zm-11.608 8.676c-1.64 0-3.58 0-4.972.076v5.543c2.188-.15 4.375-.323 6.587-.4v3.58l-10.315.822v-22.025h10.314v3.728h-6.587v5.022c1.442 0 3.654-.075 4.972-.075v3.729zm-20.66-2.088v13.026c-1.341.15-2.535.324-3.8.523v-23.865h3.553l4.847 13.549v-13.549h3.729v22.323c-1.317.224-2.66.3-4.077.5z" fill="#568193" transform="translate(-.238 -.034)"/></svg>