<svg xmlns="http://www.w3.org/2000/svg" xmlns:xlink="http://www.w3.org/1999/xlink" width="106.28" height="32" viewBox="0 0 106.28 32"><defs><radialGradient id="a" cx="0.5" cy="0.5" r="1.046" gradientTransform="translate(0.7 -0.178) rotate(61.438)" gradientUnits="objectBoundingBox"><stop offset="0" stop-color="#4220d3"></stop><stop offset="1" stop-color="#9bd5ff"></stop></radialGradient></defs><g transform="translate(-122 -23)"><path d="M-56.16-10.65h-1.815v4.41H-63.03v-4.41h-1.815V0h1.815V-4.56h5.055V0h1.815Zm7.365,7.35a1.71,1.71,0,0,1-1.8,1.95c-1.08,0-1.515-.7-1.515-1.77V-7.785h-1.785v4.9c0,1.815.975,3.06,2.865,3.06A2.552,2.552,0,0,0-48.66-1V0h1.65V-7.785h-1.785Zm5.73-7.95H-44.85V0h1.65V-1.11A2.948,2.948,0,0,0-40.575.18c2.31,0,3.615-1.845,3.615-4.065s-1.305-4.08-3.615-4.08a2.893,2.893,0,0,0-2.49,1.2Zm-.06,7.365a2.244,2.244,0,0,1,2.19-2.5,2.253,2.253,0,0,1,2.19,2.5,2.255,2.255,0,0,1-2.19,2.49A2.247,2.247,0,0,1-43.125-3.885Zm11.415,2.46a2,2,0,0,1-2.28-1.9h-1.8C-35.73-1.59-34.635.21-31.8.21c2.55,0,4.23-1.26,4.23-3.2,0-4.26-6-2.445-6-4.785,0-.945.765-1.47,2.01-1.47a1.876,1.876,0,0,1,2.085,1.89h1.785c-.045-1.995-1.365-3.525-3.87-3.525-2.37,0-3.81,1.455-3.81,3.15,0,4.26,5.955,2.22,5.955,4.815C-29.415-1.95-30.255-1.425-31.71-1.425Zm8.235,1.6a2.973,2.973,0,0,0,2.67-1.2A3.512,3.512,0,0,0-20.7,0H-19a4.521,4.521,0,0,1-.225-1.47V-5.055c0-1.785-1.08-2.91-3.36-2.91-2.355,0-3.285,1.26-3.435,2.625h1.74c.12-.72.675-1.155,1.65-1.155,1.065,0,1.665.48,1.665,1.425v.12l-2.25.315c-2.055.285-2.985,1.14-2.985,2.46S-25.41.18-23.475.18Zm2.5-3.84v.5a1.923,1.923,0,0,1-2.145,1.95c-.855,0-1.38-.285-1.38-1.02,0-.54.36-.945,1.455-1.11ZM-14.82.18a2.973,2.973,0,0,0,2.67-1.2,3.512,3.512,0,0,0,.1,1.02h1.7a4.521,4.521,0,0,1-.225-1.47V-5.055c0-1.785-1.08-2.91-3.36-2.91-2.355,0-3.285,1.26-3.435,2.625h1.74c.12-.72.675-1.155,1.65-1.155,1.065,0,1.665.48,1.665,1.425v.12l-2.25.315c-2.055.285-2.985,1.14-2.985,2.46S-16.755.18-14.82.18Zm2.5-3.84v.5a1.923,1.923,0,0,1-2.145,1.95c-.855,0-1.38-.285-1.38-1.02,0-.54.36-.945,1.455-1.11ZM-4.86-1.425a2,2,0,0,1-2.28-1.9h-1.8C-8.88-1.59-7.785.21-4.95.21c2.55,0,4.23-1.26,4.23-3.2,0-4.26-6-2.445-6-4.785,0-.945.765-1.47,2.01-1.47A1.876,1.876,0,0,1-2.625-7.35H-.84C-.885-9.345-2.2-10.875-4.71-10.875c-2.37,0-3.81,1.455-3.81,3.15,0,4.26,5.955,2.22,5.955,4.815C-2.565-1.95-3.4-1.425-4.86-1.425Z" transform="translate(229 43)" fill="#fff"></path><g transform="translate(55 -55.914)"><path d="M16,0A16,16,0,1,1,0,16,16,16,0,0,1,16,0Z" transform="translate(67 78.914)" fill="url(#a)"></path><g transform="translate(66.433 85.656)"><path d="M9.64,1a2,2,0,0,1,2.5,0L17.328,5.15a2,2,0,0,1-1.249,3.562H5.7A2,2,0,0,1,4.452,5.15Z" transform="matrix(-0.921, 0.391, -0.391, -0.921, 23.452, 8.019)" fill="#fff"></path><path d="M9.64,1a2,2,0,0,1,2.5,0L17.328,5.15a2,2,0,0,1-1.249,3.562H5.7A2,2,0,0,1,4.452,5.15Z" transform="translate(9.619 9.634) rotate(-19)" fill="#fff" opacity="0.696"></path></g></g></g></svg>