<svg height="32" viewBox="0 0 106.28 32" width="106.28" xmlns="http://www.w3.org/2000/svg" xmlns:xlink="http://www.w3.org/1999/xlink"><radialGradient id="a" cx=".5" cy=".5" gradientTransform="matrix(.47810945 .87830026 -.87830026 .47810945 .7 -.178)" gradientUnits="objectBoundingBox" r="1.046"><stop offset="0" stop-color="#4220d3"/><stop offset="1" stop-color="#9bd5ff"/></radialGradient><path d="m-56.16-10.65v10.65h-1.815v-4.56h-5.055v4.56h-1.815v-10.65h1.815v4.41h5.055v-4.41zm7.365 7.35v-4.485h1.785v7.785h-1.65v-1a2.115 2.115 0 0 1 -.878.847 3.036 3.036 0 0 1 -1.492.333 2.7 2.7 0 0 1 -2.122-.832 3.223 3.223 0 0 1 -.743-2.228v-4.9h1.785v4.66q0 1.77 1.515 1.77a1.739 1.739 0 0 0 1.32-.5 2.015 2.015 0 0 0 .48-1.45zm5.73-3.465a2.773 2.773 0 0 1 2.49-1.2 3.252 3.252 0 0 1 2.648 1.165 4.414 4.414 0 0 1 .968 2.91 4.384 4.384 0 0 1 -.968 2.9 3.261 3.261 0 0 1 -2.648 1.17 2.864 2.864 0 0 1 -2.625-1.29v1.11h-1.65v-11.25h1.785zm-.06 2.88a2.679 2.679 0 0 0 .593 1.785 1.979 1.979 0 0 0 1.6.7 1.975 1.975 0 0 0 1.59-.712 2.665 2.665 0 0 0 .6-1.778 2.68 2.68 0 0 0 -.6-1.8 1.984 1.984 0 0 0 -1.59-.7 1.979 1.979 0 0 0 -1.6.7 2.7 2.7 0 0 0 -.593 1.805zm11.415 2.46a3.152 3.152 0 0 0 1.695-.383 1.23 1.23 0 0 0 .6-1.1 1.157 1.157 0 0 0 -.33-.855 2.056 2.056 0 0 0 -.855-.5 11.415 11.415 0 0 0 -1.155-.292q-.63-.128-1.267-.315a5.411 5.411 0 0 1 -1.163-.488 2.255 2.255 0 0 1 -.855-.9 3.014 3.014 0 0 1 -.33-1.47 2.864 2.864 0 0 1 1.043-2.232 4.044 4.044 0 0 1 2.767-.915 3.891 3.891 0 0 1 2.828.983 3.485 3.485 0 0 1 1.042 2.542h-1.785a1.876 1.876 0 0 0 -.555-1.358 2.087 2.087 0 0 0 -1.53-.532 2.5 2.5 0 0 0 -1.477.382 1.259 1.259 0 0 0 -.533 1.088 1.011 1.011 0 0 0 .33.77 2.127 2.127 0 0 0 .862.465q.532.158 1.17.285a11.953 11.953 0 0 1 1.275.33 5.41 5.41 0 0 1 1.17.525 2.391 2.391 0 0 1 .863.93 3.058 3.058 0 0 1 .33 1.477 2.765 2.765 0 0 1 -1.155 2.328 4.987 4.987 0 0 1 -3.075.87 3.906 3.906 0 0 1 -2.955-1.035 3.663 3.663 0 0 1 -1.035-2.5h1.8a1.94 1.94 0 0 0 .645 1.395 2.408 2.408 0 0 0 1.635.505zm10.74-2.235-2.07.315q-1.455.225-1.455 1.11 0 1.02 1.38 1.02a2.152 2.152 0 0 0 1.59-.555 1.892 1.892 0 0 0 .555-1.395zm-2.5 3.84a2.877 2.877 0 0 1 -2.06-.645 2.256 2.256 0 0 1 -.675-1.71q0-2.04 2.985-2.46l2.25-.315v-.12q0-1.425-1.665-1.425-1.455 0-1.65 1.155h-1.74a2.832 2.832 0 0 1 .952-1.882 3.628 3.628 0 0 1 2.483-.743 3.639 3.639 0 0 1 2.512.765 2.742 2.742 0 0 1 .848 2.145v3.585a3.84 3.84 0 0 0 .23 1.47h-1.7q-.015 0-.038-.112t-.045-.368q-.023-.255-.023-.54a2.962 2.962 0 0 1 -2.669 1.2zm11.16-3.84-2.07.315q-1.455.225-1.455 1.11 0 1.02 1.38 1.02a2.152 2.152 0 0 0 1.59-.555 1.892 1.892 0 0 0 .555-1.395zm-2.51 3.84a2.877 2.877 0 0 1 -2.055-.645 2.256 2.256 0 0 1 -.675-1.71q0-2.04 2.985-2.46l2.25-.315v-.12q0-1.425-1.665-1.425-1.455 0-1.65 1.155h-1.74a2.832 2.832 0 0 1 .952-1.882 3.628 3.628 0 0 1 2.483-.743 3.639 3.639 0 0 1 2.512.765 2.742 2.742 0 0 1 .848 2.145v3.585a3.84 3.84 0 0 0 .225 1.47h-1.7q-.015 0-.037-.112t-.045-.368q-.023-.255-.023-.54a2.962 2.962 0 0 1 -2.665 1.2zm9.96-1.6a3.152 3.152 0 0 0 1.695-.383 1.23 1.23 0 0 0 .6-1.1 1.157 1.157 0 0 0 -.33-.855 2.056 2.056 0 0 0 -.855-.5 11.415 11.415 0 0 0 -1.15-.294q-.63-.128-1.267-.315a5.411 5.411 0 0 1 -1.163-.488 2.255 2.255 0 0 1 -.855-.9 3.014 3.014 0 0 1 -.33-1.47 2.864 2.864 0 0 1 1.038-2.235 4.044 4.044 0 0 1 2.767-.915 3.891 3.891 0 0 1 2.828.983 3.485 3.485 0 0 1 1.042 2.542h-1.785a1.876 1.876 0 0 0 -.555-1.358 2.087 2.087 0 0 0 -1.53-.532 2.5 2.5 0 0 0 -1.477.382 1.259 1.259 0 0 0 -.533 1.088 1.011 1.011 0 0 0 .33.77 2.127 2.127 0 0 0 .863.465q.533.158 1.17.285a11.953 11.953 0 0 1 1.275.33 5.41 5.41 0 0 1 1.17.525 2.391 2.391 0 0 1 .863.93 3.058 3.058 0 0 1 .329 1.48 2.765 2.765 0 0 1 -1.155 2.325 4.987 4.987 0 0 1 -3.075.87 3.906 3.906 0 0 1 -2.95-1.035 3.663 3.663 0 0 1 -1.04-2.505h1.8a1.94 1.94 0 0 0 .645 1.395 2.408 2.408 0 0 0 1.635.51z" transform="translate(107 20)"/><path d="m16 0a16 16 0 1 1 -16 16 16 16 0 0 1 16-16z" fill="url(#a)"/><g fill="#fff"><path d="m9.64 1a2 2 0 0 1 2.5 0l5.188 4.15a2 2 0 0 1 -1.249 3.562h-10.379a2 2 0 0 1 -1.248-3.562z" transform="matrix(-.921 .391 -.391 -.921 22.885 14.761)"/><path d="m9.64 1a2 2 0 0 1 2.5 0l5.188 4.15a2 2 0 0 1 -1.249 3.562h-10.379a2 2 0 0 1 -1.248-3.562z" opacity=".696" transform="matrix(.94551858 -.32556815 .32556815 .94551858 9.052 16.376)"/></g></svg>