<svg height="242.365" viewBox="0 0 229.408 242.365" width="229.408" xmlns="http://www.w3.org/2000/svg" xmlns:xlink="http://www.w3.org/1999/xlink"><linearGradient id="a" gradientUnits="objectBoundingBox" x1=".5" x2=".5" y1=".014" y2=".95"><stop offset="0" stop-color="#f48d67"/><stop offset=".017" stop-color="#f5916c"/><stop offset=".103" stop-color="#f9a682"/><stop offset=".185" stop-color="#fcb290"/><stop offset=".258" stop-color="#fdb795"/><stop offset=".286" stop-color="#fdb391"/><stop offset=".398" stop-color="#ffab89"/><stop offset=".442" stop-color="#fda481"/><stop offset=".68" stop-color="#f4845d"/><stop offset=".875" stop-color="#ee7048"/><stop offset="1" stop-color="#ed6940"/></linearGradient><linearGradient id="b" gradientUnits="objectBoundingBox" x1="1.593" x2="-.005" y1="-.2" y2=".823"><stop offset="0" stop-color="#fdb795"/><stop offset=".228" stop-color="#fdac87"/><stop offset=".697" stop-color="#fd9a71"/><stop offset="1" stop-color="#fe946a"/></linearGradient><path d="m540.3 424.026c.47.128.941.24 1.415.34.274.056.548.113.822.162.5.087 1.01.152 1.516.208.238.025.476.06.714.079.743.059 1.49.09 2.238.078l24.046-.183c-.748.012-1.494-.019-2.238-.078-.238-.018-.474-.053-.711-.08-.508-.055-1.016-.119-1.519-.208-.275-.047-.548-.1-.822-.162-.473-.1-.945-.212-1.415-.34-.272-.074-.546-.149-.817-.231-.49-.15-.978-.322-1.465-.5-.237-.088-.474-.168-.711-.263-.739-.3-1.475-.626-2.205-.994-.074-.037-.144-.082-.216-.119q-.989-.51-1.963-1.1c-.231-.141-.462-.294-.693-.443-.5-.319-.989-.652-1.48-1q-.369-.265-.738-.54c-.5-.378-1-.777-1.493-1.19-.2-.171-.412-.334-.617-.511-.687-.6-1.369-1.219-2.043-1.88-.077-.075-.15-.158-.227-.234q-.9-.89-1.771-1.856c-.213-.236-.425-.483-.637-.726q-.676-.773-1.341-1.589c-.224-.274-.446-.551-.667-.833-.455-.58-.9-1.179-1.35-1.792-.19-.262-.384-.515-.573-.783-.247-.349-.489-.713-.732-1.072-.281-.414-.562-.824-.839-1.25-.241-.371-.477-.757-.716-1.138-.271-.434-.543-.867-.81-1.313-.236-.395-.467-.8-.7-1.206-.261-.455-.523-.91-.78-1.377-.228-.415-.453-.841-.677-1.265-.24-.453-.48-.907-.716-1.369-.4-.788-.794-1.6-1.182-2.414-.13-.274-.264-.539-.392-.816q-.766-1.65-1.5-3.377c-.115-.269-.222-.549-.334-.82-.371-.9-.738-1.8-1.094-2.728-.162-.421-.321-.852-.48-1.281q-.453-1.217-.891-2.463c-.159-.459-.319-.92-.476-1.387-.29-.86-.573-1.734-.849-2.616-.138-.436-.278-.867-.412-1.309q-.519-1.7-1.007-3.466c-.053-.191-.11-.377-.162-.57-.374-1.365-.732-2.758-1.076-4.168-.1-.418-.2-.847-.3-1.268-.24-1.013-.474-2.032-.7-3.067q-.219-1.007-.425-2.027c-.107-.526-.215-1.05-.32-1.58-.15-.774-.293-1.558-.436-2.342-.093-.509-.187-1.014-.277-1.528-.15-.875-.292-1.761-.433-2.648-.069-.437-.143-.869-.209-1.31q-.3-2-.571-4.046c-.2-1.55-.38-3.1-.548-4.657q-.064-.607-.125-1.213c-.1-.983-.186-1.967-.271-2.95-.077-.869-.15-1.737-.215-2.606s-.122-1.756-.177-2.634-.107-1.737-.152-2.6-.078-1.756-.112-2.634-.065-1.734-.087-2.6-.037-1.749-.049-2.622-.023-1.733-.026-2.6c0-.789.006-1.575.013-2.363q.013-1.639.049-3.274.029-1.157.068-2.307.055-1.625.134-3.242c.037-.757.074-1.512.119-2.266.065-1.1.141-2.189.222-3.28.053-.721.1-1.444.163-2.163.1-1.157.211-2.305.327-3.454.068-.677.128-1.359.2-2.033.037-.33.077-.657.115-.985q.208-1.813.446-3.608c.049-.367.1-.732.146-1.1q.3-2.175.639-4.323c.037-.227.077-.451.113-.676q.3-1.851.636-3.675c.069-.381.138-.761.211-1.139.266-1.412.54-2.815.835-4.2l.015-.068c.29-1.368.6-2.718.916-4.06q.128-.543.259-1.084.43-1.773.889-3.513c.05-.187.1-.377.146-.564q.53-1.972 1.1-3.9c.1-.327.2-.651.293-.976q.477-1.579.978-3.124c.088-.272.174-.548.264-.817q.614-1.857 1.265-3.66c.1-.269.2-.533.3-.8q.543-1.477 1.11-2.918c.118-.3.233-.593.35-.888.467-1.157.941-2.3 1.431-3.419.077-.175.156-.344.233-.518q.64-1.446 1.306-2.844c.14-.29.278-.582.418-.87.523-1.075 1.053-2.135 1.6-3.164l.015-.026c.54-1.02 1.1-2.011 1.658-2.986q.228-.4.458-.783c.5-.842 1-1.669 1.515-2.475.087-.137.171-.278.258-.414.59-.914 1.193-1.8 1.8-2.663.156-.219.314-.434.47-.652q.762-1.051 1.541-2.052c.138-.178.275-.361.415-.534q.952-1.193 1.932-2.3c.144-.163.292-.319.436-.48q.815-.9 1.649-1.749c.171-.174.342-.35.514-.52.68-.671 1.368-1.318 2.066-1.93.1-.091.212-.175.317-.266q.916-.786 1.852-1.5.287-.223.577-.439c.727-.537 1.46-1.056 2.2-1.53a28.919 28.919 0 0 1 10.769-4.3 24.135 24.135 0 0 1 3.557-.327l-24.046.183a27.369 27.369 0 0 0 -14.326 4.624c-.744.474-1.477.992-2.2 1.53-.193.144-.384.29-.577.437-.624.48-1.241.979-1.852 1.5-.1.091-.212.175-.317.266-.7.611-1.385 1.257-2.064 1.929-.174.171-.345.347-.517.523q-.833.846-1.647 1.746c-.144.162-.292.317-.436.48q-.981 1.113-1.932 2.3c-.14.177-.277.359-.415.537q-.78 1-1.54 2.049c-.158.218-.315.433-.471.655-.609.864-1.212 1.748-1.8 2.662-.088.135-.172.278-.261.415q-.769 1.208-1.513 2.473c-.153.259-.3.518-.456.78-.562.976-1.117 1.967-1.659 2.989l-.015.027c-.545 1.031-1.076 2.092-1.6 3.167-.138.287-.277.574-.414.864q-.669 1.4-1.312 2.852c-.075.172-.155.34-.23.512q-.733 1.678-1.431 3.42c-.118.294-.234.593-.35.889q-.568 1.44-1.11 2.915c-.1.268-.2.531-.3.8q-.649 1.8-1.265 3.66c-.088.269-.175.545-.264.817q-.5 1.544-.976 3.12c-.1.327-.2.654-.3.983q-.567 1.926-1.1 3.893c-.052.191-.1.384-.149.576q-.459 1.731-.886 3.5c-.088.364-.177.729-.262 1.1-.317 1.34-.624 2.688-.914 4.055l-.015.068c-.294 1.387-.57 2.791-.836 4.2q-.106.563-.208 1.129-.333 1.824-.636 3.675c-.038.228-.078.455-.115.685q-.342 2.142-.639 4.315c-.05.367-.1.736-.147 1.106q-.236 1.789-.443 3.594c-.038.333-.079.664-.116 1-.018.165-.04.327-.057.492-.055.508-.093 1.023-.144 1.533-.115 1.15-.228 2.3-.327 3.46-.06.718-.11 1.44-.163 2.161-.081 1.092-.157 2.185-.222 3.283-.046.752-.082 1.508-.119 2.263q-.077 1.619-.134 3.243c-.026.769-.049 1.536-.068 2.306q-.038 1.634-.049 3.277c0 .479-.021.956-.022 1.435 0 .308.009.617.009.925 0 .866.013 1.731.027 2.6s.025 1.746.049 2.622.055 1.733.087 2.6.068 1.755.112 2.632.1 1.737.152 2.6.11 1.756.177 2.635.14 1.74.215 2.61c.049.561.085 1.122.14 1.683.04.42.088.839.131 1.259s.082.813.127 1.219c.166 1.553.344 3.1.546 4.654q.265 2.045.571 4.043c.068.449.143.889.214 1.335.138.879.28 1.758.428 2.623.09.517.185 1.026.278 1.537.141.783.284 1.565.434 2.336.1.533.214 1.059.321 1.586.094.459.183.927.278 1.384.047.215.1.421.146.635q.338 1.559.7 3.08c.1.418.193.842.294 1.256q.519 2.118 1.078 4.171c.052.193.109.377.162.568q.488 1.76 1.007 3.467c.134.442.274.872.411 1.307q.417 1.325.851 2.618c.157.467.315.928.476 1.387q.437 1.248.891 2.465c.16.427.318.857.48 1.279.356.926.723 1.833 1.094 2.729.112.271.221.549.334.819q.731 1.727 1.5 3.377c.128.277.261.54.39.813.389.819.783 1.628 1.184 2.417.068.132.133.274.2.406.168.328.344.639.515.961.225.425.449.851.677 1.266.258.467.52.922.78 1.377.233.4.464.811.7 1.206.268.446.539.879.81 1.313.239.381.474.766.716 1.138.277.425.558.836.839 1.25.243.359.484.721.732 1.072.056.079.11.166.168.246.132.185.271.353.4.537q.669.919 1.352 1.793c.219.281.442.556.664.83q.665.819 1.344 1.593c.212.241.422.487.634.721q.881.972 1.781 1.868c.074.072.144.15.216.222.674.661 1.357 1.284 2.046 1.882.2.177.411.34.615.511.495.412.992.811 1.494 1.19q.367.276.735.539.738.528 1.483 1.005c.231.149.461.3.692.443q.974.592 1.963 1.1c.072.037.143.082.216.118.73.37 1.466.7 2.205 1 .062.025.122.059.184.082.175.069.353.116.528.181.486.181.973.352 1.463.5.29.084.563.159.832.232z" fill="url(#a)" transform="matrix(-.77714596 .62932039 -.62932039 -.77714596 750.95135297048 16.77895246369)"/><path d="m612.885 288.416c-7.267-55.725-34.809-87.093-61.523-70.08s-42.485 75.964-35.218 131.693c7.264 55.709 34.814 87.072 61.527 70.059s42.478-75.963 35.214-131.672z" fill="url(#b)" transform="matrix(-.77714596 .62932039 -.62932039 -.77714596 744.95785550139 21.63367777772)"/></svg>