<?xml version="1.0" encoding="utf-8"?>
<svg xmlns="http://www.w3.org/2000/svg" width="160.307" height="219.228" viewBox="0 0 160.307 219.228"><g transform="translate(1.705 -22.209)"><g transform="matrix(0.966, 0.259, -0.259, 0.966, 61.399, 22.209)"><g transform="translate(24.502 5.732)"><path d="M0,38.04,4.307,17.972A14.114,14.114,0,0,1,.551,7.83c.783-11.152,16.313-8.7,19.334-3.07s2.662,19.905-1.242,20.911c-1.557.4-4.874-.581-8.25-2.615L12.512,38.04Z" transform="translate(0 0)" fill="#d4a181"/></g><path d="M27.3,28.139c-1.919,0-3.7-1.226-5.011-3.452a15.881,15.881,0,0,1-1.957-7.84c0-.2,0-.407.012-.613A31.825,31.825,0,0,0,16.4,19.667a30.888,30.888,0,0,1-4.264,3.668,9.13,9.13,0,0,1-5.121,1.678A6.327,6.327,0,0,1,1.937,22.2,10.231,10.231,0,0,1,0,16.246a8.175,8.175,0,0,1,.4-2.578,6.2,6.2,0,0,1,1.246-2.193A5.86,5.86,0,0,1,3.821,9.951a8.414,8.414,0,0,1,3.2-.571c7.369,0,10.972,1.064,14.115,2.662a10.134,10.134,0,0,1,2.7-4.215,4.194,4.194,0,0,1,1.243-.882A5.829,5.829,0,0,1,26.12,6.5a26.226,26.226,0,0,1,7.657-1.285c.41-.014.82-.021,1.219-.021.152,0,.3,0,.454,0a5.213,5.213,0,1,1,5.5,5.22,26.231,26.231,0,0,1-5.832.991,10.908,10.908,0,0,1,.336,2.8,15.768,15.768,0,0,1-.291,2.907,2.429,2.429,0,0,0-1.795-.954,3.079,3.079,0,0,0-2.256.96,3.18,3.18,0,0,0-.872,2.167,4.019,4.019,0,0,0,.806,2.542,2.87,2.87,0,0,0,2.1,1.1,13.988,13.988,0,0,1-2.7,3.726A4.712,4.712,0,0,1,27.3,28.139Z" transform="translate(0 0)" fill="#191847"/></g><g transform="translate(-1.705 116.895)"><path d="M0,0,38.737,64.734l29.042,54.727h6.255L25.375,0Z" transform="translate(67.089 0)" fill="#ba8b72"/><g transform="translate(130.168 113.772)"><path d="M2.332,2.782a1.043,1.043,0,0,0-1.337.7L0,6.988A33.463,33.463,0,0,0,.47,11.1h29.4s1.146-3.787-1.323-4.089-4.1-.545-4.1-.545L10.781.377a.521.521,0,0,0-.694.277l-.878,2.13A11.819,11.819,0,0,1,5.493,3.851Z" transform="translate(0 -0.332)" fill="#e4e4e4"/></g><path d="M66.155,110.7l12.063-3.648S70.29,83.36,58.785,54.91,34.071,0,34.071,0H0S14.684,33.471,31.134,60.825A464.815,464.815,0,0,0,66.155,110.7Z" transform="translate(60.647 0)" fill="#ffe3d1"/><path d="M59.288,0C55.632,22.748,48.58,51.811,47.915,52.708q-.665.9-47.915,16.049l1.351,5.514Q57.7,66.145,60.729,61.662C63.762,57.179,78.906,21.763,84.772,0Z" transform="translate(5.255 0)" fill="#d4a181"/><path d="M0,63.991l2.38,8.88q42.143,3.695,51.643-5.339T75.68,0H43.191q-7.7,47.9-8.611,49.913T0,63.991Z" transform="translate(16.327)" fill="#ffe3d1"/><g transform="matrix(0.174, 0.985, -0.985, 0.174, 10.17, 64.957)"><path d="M2.235,2.349a1,1,0,0,0-1.282.674L0,6.383a32.1,32.1,0,0,0,.45,3.945H28.632s1.1-3.632-1.268-3.921-3.932-.523-3.932-.523L10.333.043a.5.5,0,0,0-.665.266L8.826,2.352A11.325,11.325,0,0,1,5.265,3.374Z" transform="translate(0 0)" fill="#e4e4e4"/></g></g><g transform="matrix(0.985, 0.174, -0.174, 0.985, 15.678, 50.825)"><path d="M16.408,42.8c-.646-1.227-1.394-2.455-3.87-1.976C8.106,41.683,4.249,44.277.366,40.3c-.478-.489-.769-1.953.98-2.6,4.358-1.623,10.835-4.751,11.926-6.04C15.5,29.022,29.863,0,29.863,0l9.043,2.3S20.75,32.81,19.487,34.549c-1.894,2.608-.518,7.641-.051,10.278a3.473,3.473,0,0,1-.609.058C17.432,44.884,16.957,43.843,16.408,42.8Zm99.82-15.718-15.951-7.958,4.3-8.8,15.737,13.336a44.774,44.774,0,0,1,10.96,5.318c.667.7,1.437,2.075-1.5,1.641s-6.055-.759-6.533.221,1.227,2.311.307,3.613a.386.386,0,0,1-.334.17Q121.79,34.621,116.228,27.083Z" transform="matrix(0.998, -0.07, 0.07, 0.998, 0, 41.361)" fill="#d4a181"/><path d="M1.921,29.744C-.617,24.87.242,8.31,0,2.285L5.575,0c7.772,16.058,18.291,31.465,33.915,44.625a17.881,17.881,0,0,1,6.962,1.041,2.345,2.345,0,0,1,.025,4.436q.716.522,1.445,1.039l-4.2,8.56C26.074,50.9,9.482,44.27,1.921,29.744Z" transform="translate(69.427 1.064)" fill="#69a1ac"/><path d="M0,58.471s24.584,2.7,38.7,0c1.166-.223,1.115-5.247.574-6.619C30.854,30.484,25.315,14.842,25.315,0,23,1.21,17.2.363,17.2.363,6.822,15.657,2.05,33.206,0,58.471Z" transform="translate(49.841 0.887)" fill="#191847"/><path d="M31.686,61.884a2.343,2.343,0,0,1-.7-2.117l.271-1.538a2.347,2.347,0,0,1,2.033-1.922q.262-1.172.45-2.329c.986-6.1-.531-12.092-.656-17.981C26.1,42.214,17.646,53.055,10.515,71.844l-9.846-2.9q.564-2.1,1.182-4.126C.711,64.195-.632,61.214.328,60.717a11.514,11.514,0,0,1,3.225-1.1C18.04,18.23,47.751,0,47.751,0h5.929C51.935,23.074,76.046,73.452,67.674,116.474c-6.554,1.463-14.294.378-22.673-.706-11.408-1.476-24-2.951-36.4,2C9.4,100.441,25.433,80.088,31.686,61.884Z" transform="translate(15.11 0)" fill="#89c5cc"/><path d="M4.808,0,2.118,8.267l5.416,6.2-4.895,4.87L14.482,39.6,0,19.376l4.808-4.911L0,8.988Z" transform="translate(60.207 0.521)" fill="rgba(0,0,0,0.1)"/><path d="M3.128,26.055a2.085,2.085,0,1,1,2.085,2.084A2.085,2.085,0,0,1,3.128,26.055ZM2.607,14.07a2.085,2.085,0,1,1,2.085,2.084A2.084,2.084,0,0,1,2.607,14.07ZM0,2.084A2.085,2.085,0,1,1,2.085,4.169,2.085,2.085,0,0,1,0,2.084Z" transform="translate(69.13 43.772)" fill="rgba(0,0,0,0.4)"/></g></g></svg>