<svg height="29.151" viewBox="0 0 96.831 29.151" width="96.831" xmlns="http://www.w3.org/2000/svg"><g fill="#032826" fill-rule="evenodd"><path d="m250.075 322.06c-5.606 4.145-13.76 6.353-20.793 6.353a37.7 37.7 0 0 1 -25.414-9.683c-.51-.476-.068-1.121.578-.747a50.478 50.478 0 0 0 44.814 2.752c.951-.374 1.733.646.815 1.325z" transform="translate(-190.006 -299.263)"/><path d="m333.548 317.421c-.713-.917-4.757-.442-6.557-.2-.544.068-.646-.408-.136-.747 3.228-2.276 8.494-1.6 9.106-.849s-.17 6.048-3.194 8.562c-.476.374-.917.17-.714-.34.68-1.704 2.209-5.475 1.495-6.426z" transform="translate(-271.135 -297.307)"/><path d="m219.458 266.294v-2.208a.517.517 0 0 1 .544-.544h9.853a.566.566 0 0 1 .578.544v1.869c0 .306-.272.714-.747 1.393l-5.1 7.271a11.069 11.069 0 0 1 5.606 1.189 1.012 1.012 0 0 1 .51.849v2.343c0 .34-.34.714-.713.51a11.24 11.24 0 0 0 -10.4.034.533.533 0 0 1 -.714-.51v-2.242a2.539 2.539 0 0 1 .374-1.495l5.912-8.46h-5.13a.566.566 0 0 1 -.578-.544zm-35.912 13.692h-2.99a.614.614 0 0 1 -.544-.51v-15.357a.566.566 0 0 1 .578-.544h2.786a.554.554 0 0 1 .544.51v2h.068a3.959 3.959 0 0 1 3.941-2.854c1.869 0 3.058.917 3.873 2.854a4.258 4.258 0 0 1 4.145-2.854 4.211 4.211 0 0 1 3.465 1.7c.951 1.291.747 3.16.747 4.824v9.717a.566.566 0 0 1 -.578.544h-2.956a.584.584 0 0 1 -.544-.544v-8.154a20.374 20.374 0 0 0 -.068-2.888 1.576 1.576 0 0 0 -1.767-1.325 2 2 0 0 0 -1.8 1.257 9.414 9.414 0 0 0 -.272 2.956v8.154a.566.566 0 0 1 -.578.544h-2.99a.584.584 0 0 1 -.544-.544v-8.154c0-1.7.272-4.247-1.835-4.247-2.14 0-2.073 2.446-2.073 4.247v8.154a.6.6 0 0 1 -.612.51zm55.38-16.75c4.451 0 6.863 3.805 6.863 8.664 0 4.689-2.65 8.426-6.863 8.426-4.349 0-6.727-3.805-6.727-8.562-.034-4.791 2.378-8.528 6.727-8.528zm0 3.16c-2.208 0-2.344 3.024-2.344 4.893s-.034 5.878 2.31 5.878c2.31 0 2.446-3.228 2.446-5.2a14.868 14.868 0 0 0 -.442-4.077 1.879 1.879 0 0 0 -1.97-1.49zm12.6 13.59h-2.99a.584.584 0 0 1 -.544-.544v-15.391a.587.587 0 0 1 .578-.51h2.786a.581.581 0 0 1 .544.442v2.344h.068c.849-2.107 2-3.092 4.077-3.092a3.957 3.957 0 0 1 3.5 1.8c.781 1.223.781 3.3.781 4.791v9.683a.559.559 0 0 1 -.578.476h-2.99a.618.618 0 0 1 -.544-.476v-8.358c0-1.7.2-4.145-1.869-4.145a1.967 1.967 0 0 0 -1.733 1.223 7.053 7.053 0 0 0 -.476 2.922v8.29a.622.622 0 0 1 -.612.544zm-39.921-7.339a6.075 6.075 0 0 1 -.544 3.194 2.4 2.4 0 0 1 -2.073 1.359c-1.155 0-1.835-.883-1.835-2.174 0-2.548 2.276-3.024 4.451-3.024zm3.024 7.3a.614.614 0 0 1 -.714.068 7.5 7.5 0 0 1 -1.733-2 5.952 5.952 0 0 1 -4.926 2.174c-2.514 0-4.485-1.563-4.485-4.655a5.086 5.086 0 0 1 3.194-4.892 21.213 21.213 0 0 1 5.64-1.053v-.374a3.67 3.67 0 0 0 -.374-2.174 2.012 2.012 0 0 0 -1.665-.781 2.262 2.262 0 0 0 -2.412 1.8c-.068.272-.238.544-.51.544l-2.888-.306a.523.523 0 0 1 -.442-.612c.68-3.533 3.839-4.587 6.693-4.587a6.724 6.724 0 0 1 4.519 1.495c1.461 1.359 1.325 3.194 1.325 5.164v4.655a4.209 4.209 0 0 0 1.121 2.786c.2.272.238.612 0 .781-.64.511-1.727 1.462-2.339 1.972zm-42.266-7.3a6.075 6.075 0 0 1 -.544 3.194 2.4 2.4 0 0 1 -2.073 1.359c-1.155 0-1.835-.883-1.835-2.174 0-2.548 2.276-3.024 4.451-3.024zm2.99 7.3a.614.614 0 0 1 -.713.068 7.5 7.5 0 0 1 -1.733-2 5.952 5.952 0 0 1 -4.926 2.174c-2.514 0-4.485-1.563-4.485-4.655a5.086 5.086 0 0 1 3.194-4.892 21.212 21.212 0 0 1 5.64-1.053v-.374a3.67 3.67 0 0 0 -.374-2.174 2.012 2.012 0 0 0 -1.665-.781 2.262 2.262 0 0 0 -2.412 1.8c-.068.272-.238.544-.51.544l-2.888-.306a.523.523 0 0 1 -.442-.612c.68-3.533 3.839-4.587 6.693-4.587a6.724 6.724 0 0 1 4.519 1.495c1.461 1.359 1.325 3.194 1.325 5.164v4.655a4.209 4.209 0 0 0 1.124 2.787c.2.272.238.612 0 .781-.646.51-1.733 1.461-2.344 1.971z" transform="translate(-163.5 -263.1)"/></g></svg>