<svg width="240" height="80" viewBox="0 0 240 80" fill="none" xmlns="http://www.w3.org/2000/svg">
<g clip-path="url(#clip0_21_28)">
<path fill-rule="evenodd" clip-rule="evenodd" d="M181.533 27H175.307V33.2265H181.533V27ZM126.626 51.6156C128.436 52.5386 130.59 53.0001 133.087 53.0001C134.734 53.0001 136.273 52.7648 137.702 52.2943C139.15 51.8237 140.363 51.145 141.34 50.2582C142.136 49.5524 142.752 48.7289 143.186 47.7878C143.62 46.8467 143.847 45.8332 143.865 44.7473H137.186C137.168 45.0912 137.06 45.4441 136.861 45.806C136.68 46.168 136.444 46.4757 136.155 46.729C135.775 47.0729 135.313 47.3353 134.77 47.5163C134.246 47.6792 133.657 47.7606 133.006 47.7606C132.046 47.7606 131.223 47.5887 130.535 47.2448C129.848 46.8829 129.341 46.3399 129.015 45.616C128.725 44.9464 128.581 44.0143 128.581 42.8198C128.581 42.2045 128.617 41.6796 128.689 41.2453C128.78 40.7928 128.906 40.3947 129.069 40.0508C129.395 39.3269 129.884 38.7839 130.535 38.4219C131.205 38.06 132.028 37.879 133.006 37.879C133.657 37.879 134.227 37.9604 134.716 38.1233C135.205 38.2681 135.63 38.5034 135.992 38.8292C136.281 39.1006 136.526 39.4354 136.725 39.8336C136.942 40.2318 137.087 40.648 137.159 41.0824H143.838C143.783 39.9422 143.539 38.8834 143.105 37.9061C142.67 36.9288 142.037 36.0692 141.204 35.3271C140.245 34.4584 139.069 33.7978 137.675 33.3454C136.282 32.8748 134.752 32.6395 133.087 32.6395C130.608 32.6395 128.454 33.1191 126.626 34.0784C124.816 35.0376 123.504 36.413 122.69 38.2048C122.111 39.5259 121.821 41.0552 121.821 42.7927C121.821 44.5844 122.111 46.1409 122.69 47.462C123.522 49.29 124.834 50.6745 126.626 51.6156ZM64.2982 33.2368H58V52.4029H64.2982V45.2902H72.0895V52.4029H78.3877V33.2368H72.0895V40.3494H64.2982V33.2368ZM87.2776 49.2266H95.7748L96.9421 52.4029H103.593L96.0462 33.2368H87.0061L79.4592 52.4029H86.1374L87.2776 49.2266ZM91.5398 37.6075L94.1731 44.8016H88.8793L91.4855 37.6075H91.5398ZM104.872 33.2368H120.156V38.0147H111.17V40.5123H120.074V45.0459H111.17V47.6249H120.156V52.4029H104.872V33.2368ZM145.858 33.2368H152.156V40.3494H159.947V33.2368H166.246V52.4029H159.947V45.2902H152.156V52.4029H145.858V33.2368ZM175.38 33.2368H169.082V52.4029H175.38V33.2368Z" fill="#555555"/>
</g>
<defs>
<clipPath id="clip0_21_28">
<rect width="124" height="26" fill="white" transform="translate(58 27)"/>
</clipPath>
</defs>
</svg>
