<svg width="240" height="80" viewBox="0 0 240 80" fill="none" xmlns="http://www.w3.org/2000/svg">
<g clip-path="url(#clip0_21_55)">
<path d="M60.1147 27.1885H65.4664V30.8283H60.1147V27.1885ZM60.1147 32.485H65.4664V46.3984H60.1147V32.485Z" fill="#555555" stroke="#555555"/>
<path d="M75.4481 27.1885V32.485H78.3917V36.3913H75.4481V41.3041C75.4481 41.8946 75.5056 42.2876 75.6205 42.476C75.7951 42.7724 76.1053 42.9195 76.5442 42.9195C76.9394 42.9195 77.4955 42.8069 78.2078 42.5817L78.6054 46.2835C77.2818 46.573 76.0456 46.7201 74.8966 46.7201C73.5639 46.7201 72.5804 46.5501 71.9508 46.21C71.3189 45.8699 70.8524 45.3529 70.5491 44.6589C70.2458 43.965 70.0965 42.8414 70.0965 41.288V36.3913H68.1157V32.485H70.0965V29.9298L75.4481 27.1885Z" fill="#555555" stroke="#555555"/>
<path d="M96.4827 40.7273H85.7794C85.8759 41.589 86.1057 42.2324 86.4733 42.6529C86.988 43.2595 87.6613 43.5628 88.4908 43.5628C89.0147 43.5628 89.5134 43.4318 89.9844 43.1653C90.2716 42.9975 90.5819 42.7011 90.915 42.2783L96.1587 42.7609C95.3568 44.174 94.3894 45.1874 93.2542 45.8009C92.1214 46.4144 90.4945 46.7223 88.3759 46.7223C86.5354 46.7223 85.0877 46.4627 84.033 45.9434C82.9783 45.4241 82.1051 44.5968 81.4112 43.464C80.7172 42.3312 80.3726 41.0007 80.3726 39.4704C80.3726 37.2943 81.0688 35.5319 82.4613 34.1853C83.8538 32.8388 85.7771 32.1655 88.2289 32.1655C90.2188 32.1655 91.7905 32.4665 92.944 33.0663C94.0952 33.666 94.973 34.5369 95.5774 35.6766C96.1794 36.8164 96.4804 38.3008 96.4804 40.1275V40.7273H96.4827ZM91.0782 38.1583C90.9725 37.1449 90.6944 36.4188 90.2418 35.9799C89.7891 35.5411 89.194 35.3228 88.4564 35.3228C87.6039 35.3228 86.9237 35.6536 86.4136 36.3154C86.0896 36.729 85.8828 37.3426 85.7932 38.1583H91.0782Z" fill="#555555" stroke="#555555"/>
<path d="M99.1068 32.4848H104.091V34.5207C104.81 33.6705 105.534 33.0638 106.267 32.7031C106.998 32.3423 107.882 32.1631 108.916 32.1631C110.028 32.1631 110.911 32.3607 111.559 32.7559C112.207 33.1512 112.738 33.7394 113.149 34.5207C113.988 33.6084 114.753 32.988 115.442 32.6571C116.134 32.3285 116.984 32.1631 117.997 32.1631C119.493 32.1631 120.658 32.6066 121.499 33.4935C122.338 34.3805 122.758 35.7684 122.758 37.6549V46.3982H117.407V38.4638C117.407 37.8342 117.285 37.3677 117.039 37.0598C116.681 36.5795 116.235 36.3383 115.702 36.3383C115.072 36.3383 114.567 36.5657 114.183 37.0207C113.799 37.4757 113.606 38.2064 113.606 39.2106V46.3982H108.254V38.7464C108.254 38.1352 108.22 37.7216 108.149 37.5033C108.034 37.154 107.836 36.8737 107.556 36.66C107.273 36.4463 106.945 36.3383 106.566 36.3383C105.95 36.3383 105.444 36.5703 105.049 37.0322C104.651 37.4941 104.456 38.2524 104.456 39.3094V46.4005H99.1045V32.4848H99.1068Z" fill="#555555" stroke="#555555"/>
<path d="M126.398 27.1885H137.504C139.356 27.1885 140.776 27.648 141.769 28.5649C142.759 29.484 143.255 30.6191 143.255 31.9726C143.255 33.11 142.899 34.0843 142.191 34.8977C141.718 35.44 141.026 35.8674 140.117 36.1822C141.504 36.5131 142.527 37.0853 143.182 37.8918C143.837 38.7006 144.165 39.714 144.165 40.9364C144.165 41.9337 143.933 42.8299 143.471 43.6226C143.007 44.4177 142.375 45.045 141.569 45.5091C141.07 45.7964 140.319 46.0078 139.315 46.1387C137.977 46.3134 137.09 46.4007 136.654 46.4007H126.401V27.1885H126.398ZM132.391 34.7346H134.958C135.879 34.7346 136.518 34.576 136.881 34.2566C137.242 33.9372 137.421 33.4777 137.421 32.8756C137.421 32.3173 137.24 31.8807 136.881 31.5682C136.52 31.2534 135.893 31.0971 134.999 31.0971H132.393V34.7369L132.391 34.7346ZM132.391 42.2807H135.427C136.451 42.2807 137.175 42.0991 137.596 41.7338C138.016 41.3707 138.225 40.8813 138.225 40.2678C138.225 39.6979 138.016 39.2406 137.6 38.8937C137.184 38.5467 136.456 38.3744 135.413 38.3744H132.391V42.2807Z" fill="#555555" stroke="#555555"/>
<path d="M151.904 36.9818L146.821 36.4464C147.014 35.5571 147.29 34.8563 147.653 34.3462C148.016 33.8361 148.538 33.3926 149.218 33.018C149.708 32.7469 150.378 32.5378 151.236 32.3884C152.09 32.2414 153.016 32.1655 154.011 32.1655C155.608 32.1655 156.893 32.2551 157.863 32.4344C158.832 32.6136 159.639 32.9859 160.284 33.5557C160.737 33.9487 161.096 34.507 161.358 35.2262C161.62 35.9478 161.75 36.6348 161.75 37.2897V43.4364C161.75 44.0913 161.792 44.606 161.875 44.976C161.957 45.3482 162.139 45.8216 162.419 46.3983H157.389C157.187 46.0445 157.054 45.7733 156.994 45.5872C156.932 45.4011 156.872 45.1093 156.81 44.7117C156.112 45.3804 155.42 45.8606 154.733 46.1456C153.791 46.527 152.697 46.72 151.452 46.72C149.797 46.72 148.538 46.334 147.681 45.5642C146.824 44.7921 146.394 43.8431 146.394 42.7126C146.394 41.651 146.704 40.7801 147.322 40.0977C147.94 39.4152 149.083 38.9051 150.746 38.5742C152.741 38.1721 154.034 37.8894 154.627 37.7263C155.22 37.5631 155.847 37.3517 156.509 37.0898C156.509 36.4349 156.374 35.9776 156.105 35.7157C155.836 35.4537 155.363 35.3228 154.685 35.3228C153.816 35.3228 153.163 35.4629 152.729 35.7433C152.389 35.9639 152.116 36.3752 151.909 36.9795L151.904 36.9818ZM156.507 39.7645C155.778 40.031 155.02 40.2654 154.23 40.4676C153.154 40.7594 152.472 41.049 152.187 41.3316C151.893 41.6234 151.743 41.9566 151.743 42.3289C151.743 42.754 151.888 43.1009 152.18 43.3721C152.472 43.6432 152.899 43.7765 153.462 43.7765C154.025 43.7765 154.602 43.6317 155.11 43.3376C155.618 43.0458 155.976 42.6896 156.19 42.2668C156.401 41.8463 156.509 41.2994 156.509 40.6262V39.7622L156.507 39.7645Z" fill="#555555" stroke="#555555"/>
<path d="M163.518 32.4849H169.154L172.054 41.7474L174.738 32.4849H180.002L174.464 47.3565C173.835 49.0592 173.194 50.2081 172.539 50.8055C171.613 51.6488 170.202 52.0693 168.306 52.0693C167.536 52.0693 166.351 51.9659 164.742 51.7614L164.324 48.0964C165.089 48.3537 165.942 48.4847 166.882 48.4847C167.507 48.4847 168.014 48.3331 168.4 48.0297C168.787 47.7241 169.117 47.1818 169.386 46.3983L163.52 32.4849H163.518Z" fill="#555555"/>
</g>
<defs>
<clipPath id="clip0_21_55">
<rect width="120" height="25.0717" fill="white" transform="translate(60 27)"/>
</clipPath>
</defs>
</svg>
