<svg width="240" height="80" viewBox="0 0 240 80" fill="none" xmlns="http://www.w3.org/2000/svg">
<g clip-path="url(#clip0_21_52)">
<path d="M85.3774 24.06C84.9099 25.5356 84.4293 27.0081 83.9617 28.4844C82.6364 28.4844 81.3103 28.4852 79.985 28.4836C79.9827 33.8945 79.985 39.3045 79.9842 44.7154C78.3232 44.7154 76.6629 44.7154 75.0019 44.7154C75.0011 39.3045 75.0034 33.8945 75.0011 28.4836C73.3339 28.4852 71.6675 28.4844 70.0003 28.4844C69.9996 27.0088 70.0003 25.5333 70.0003 24.0577C75.126 24.0585 80.2517 24.0547 85.3774 24.06Z" fill="#555555"/>
<path d="M93.5899 24.0003C95.2187 24.0003 96.8477 23.9996 98.4765 24.0003C98.4795 27.199 98.471 30.3985 98.4804 33.5971C100.108 32.0051 101.751 30.4268 103.372 28.8294C105.344 28.8325 107.316 28.824 109.287 28.8332C107.23 30.8277 105.171 32.8383 103.108 34.8251C105.411 38.1219 107.715 41.4187 110.019 44.7147C108.207 44.7185 106.392 44.7108 104.58 44.7185C103.03 42.452 101.507 40.1501 99.9642 37.8758C99.4844 38.3457 99.0084 38.8225 98.5155 39.2778C98.514 41.0967 98.5155 42.9157 98.5149 44.7338C97.8572 44.73 97.1979 44.75 96.541 44.7162C95.5637 44.714 94.5864 44.717 93.609 44.7155C93.5999 43.3357 93.6299 41.9545 93.5884 40.5763C93.5915 35.0512 93.5884 29.5254 93.5899 24.0003Z" fill="#555555"/>
<path d="M126.67 24.0571C126.194 25.5342 125.73 27.0174 125.241 28.4899C123.8 28.4769 122.358 28.4891 120.917 28.4838C120.915 33.9007 120.917 39.3177 120.916 44.7347C119.255 44.7347 117.595 44.7347 115.934 44.7347C115.933 39.3177 115.936 33.9007 115.933 28.4838C114.266 28.4853 112.6 28.4845 110.932 28.4845C110.932 27.009 110.932 25.5334 110.932 24.0579C116.178 24.0564 121.424 24.0587 126.67 24.0571Z" fill="#555555"/>
<path d="M144.123 24.0003C145.752 23.9996 147.38 24.0003 149.009 24.0003C149.012 27.2006 149.006 30.4008 149.012 33.601C150.634 32.0074 152.283 30.4352 153.897 28.8332C155.872 28.8263 157.847 28.8271 159.822 28.8332C157.765 30.8277 155.703 32.836 153.643 34.8251C155.944 38.1234 158.25 41.4187 160.553 44.7155C158.737 44.7155 156.922 44.7155 155.107 44.7155C153.562 42.4427 152.04 40.1532 150.499 37.8789C150.014 38.3442 149.541 38.824 149.048 39.2808C149.047 41.099 149.048 42.9165 149.048 44.7347C148.382 44.73 147.719 44.7492 147.055 44.7162C146.084 44.714 145.113 44.7162 144.142 44.7155C144.134 43.0552 144.162 41.3927 144.122 39.7331C144.124 34.4894 144.122 29.2449 144.123 24.0003Z" fill="#555555"/>
<path d="M88.1451 24.1382C88.8833 23.9481 89.7011 24.1136 90.2989 24.5881C90.9866 25.1254 91.3453 25.9908 91.2334 26.857C91.1391 27.7117 90.5626 28.4759 89.7801 28.8223C88.8603 29.2386 87.7373 29.0362 87.0214 28.3272C86.2694 27.6059 86.074 26.4308 86.5109 25.4918C86.8189 24.8242 87.4329 24.3175 88.1451 24.1382Z" fill="#555555"/>
<path d="M132.683 27.9127C133.863 27.7962 135.076 27.9066 136.208 28.2638C137.721 28.7505 139.097 29.6611 140.102 30.8952C140.922 31.8955 141.52 33.0905 141.808 34.3514C142.163 35.965 142.073 37.6843 141.494 39.2357C141.066 40.4046 140.373 41.4847 139.472 42.3454C138.178 43.6171 136.436 44.4342 134.635 44.6404C133.378 44.7861 132.081 44.6672 130.878 44.2702C129.542 43.8302 128.326 43.0491 127.373 42.0144C126.16 40.7006 125.391 38.9942 125.201 37.2167C125.073 36.0194 125.185 34.7838 125.561 33.6386C126.109 31.9017 127.259 30.3602 128.762 29.3338C129.918 28.5405 131.29 28.0553 132.683 27.9127ZM132.836 32.2788C131.9 32.4482 131.031 32.9426 130.429 33.6815C129.468 34.8328 129.232 36.4985 129.826 37.8744C130.248 38.8923 131.092 39.7079 132.124 40.0919C132.748 40.3234 133.441 40.4138 134.102 40.3241C135.166 40.2046 136.173 39.6258 136.822 38.7758C137.463 37.9456 137.76 36.8656 137.641 35.8239C137.557 34.9999 137.199 34.205 136.653 33.5842C135.719 32.5118 134.231 32.0105 132.836 32.2788Z" fill="#555555"/>
<path d="M166.18 28.907C166.616 28.8112 167.044 28.8073 167.483 28.8947C168.635 29.117 169.598 30.0154 169.893 31.1514C170.215 32.3494 169.796 33.6694 168.813 34.4321C167.841 35.2177 166.422 35.3319 165.333 34.7172C164.281 34.1408 163.639 32.9565 163.729 31.76C163.806 30.3902 164.836 29.1875 166.18 28.907Z" fill="#555555"/>
<path d="M91.2328 30.6305C91.2337 35.3254 91.2322 40.0196 91.2337 44.7145C89.5978 44.716 87.9628 44.7153 86.3271 44.7153C86.3264 44.2553 86.3348 43.7978 86.3088 43.3386C86.3072 40.7578 86.3072 38.1738 86.3088 35.5937C86.2704 33.9411 86.2942 32.2854 86.2911 30.6328C87.9377 30.6274 89.5857 30.6313 91.2328 30.6305Z" fill="#555555"/>
<path d="M166.255 38.4812C166.854 38.3724 167.493 38.4222 168.058 38.6583C168.849 38.9825 169.496 39.6448 169.797 40.445C170.046 41.1027 170.064 41.8615 169.85 42.5315C169.516 43.5838 168.602 44.4118 167.519 44.634C166.383 44.8763 165.185 44.4692 164.445 43.5723C163.765 42.763 163.547 41.6193 163.868 40.6137C164.2 39.5313 165.144 38.6912 166.255 38.4812Z" fill="#555555"/>
<path d="M132.294 50.8828C132.886 50.7065 133.572 50.8822 133.965 51.368C134.349 51.8342 134.359 52.5707 133.998 53.0522C133.636 53.5473 132.99 53.7642 132.396 53.6217C131.757 53.4737 131.24 52.9012 131.26 52.2273C131.244 51.6003 131.707 51.056 132.294 50.8828Z" fill="#555555"/>
<path d="M75.0017 51.0584C77.5634 51.0584 80.1243 51.0577 82.686 51.0584C82.686 51.7997 82.6868 52.5409 82.6852 53.2814C80.9675 53.2814 79.2497 53.2814 77.5312 53.2821C77.5304 54.2717 77.5312 55.2612 77.5312 56.2509C78.8979 56.2524 80.2653 56.2509 81.632 56.2516C81.6328 56.9929 81.632 57.7332 81.632 58.4746C80.2653 58.4752 78.8979 58.4737 77.5312 58.4752C77.5304 60.1424 77.5319 61.8096 77.5304 63.4767C76.688 63.4761 75.8448 63.4761 75.0024 63.4767C75.0009 59.3376 75.0017 55.1976 75.0017 51.0584Z" fill="#555555"/>
<path d="M102.981 51.116C104.637 51.1175 106.296 51.1121 107.952 51.1183C108.931 51.1383 109.911 51.3943 110.632 52.0871C111.238 52.653 111.559 53.4723 111.549 54.2971C111.569 55.0138 111.352 55.8078 110.834 56.3253C110.583 56.6028 110.268 56.7476 109.94 56.9101C110.55 57.0466 111.077 57.3463 111.477 57.8306C112.628 59.2418 112.383 61.5958 110.939 62.7196C110.191 63.3166 109.212 63.5581 108.269 63.5343C106.506 63.5328 104.743 63.5343 102.981 63.5336C102.98 59.3945 102.98 55.2551 102.981 51.116ZM105.509 53.3588C105.509 54.2588 105.509 55.1595 105.509 56.0601C106.251 56.0593 106.992 56.0623 107.733 56.0593C108.107 56.054 108.467 55.9481 108.719 55.6585C109.012 55.3235 109.084 54.8038 109.008 54.3783C108.956 54.0633 108.798 53.7613 108.536 53.5735C108.296 53.4071 108.019 53.355 107.732 53.3573C106.991 53.3596 106.251 53.3573 105.509 53.3588ZM105.509 58.1688C105.509 59.2158 105.509 60.2628 105.509 61.31C106.301 61.3115 107.094 61.31 107.886 61.3115C108.378 61.3085 108.857 61.1958 109.214 60.8385C109.758 60.3105 109.808 59.4105 109.369 58.802C109.066 58.3795 108.549 58.1665 108.039 58.1671C107.196 58.1688 106.352 58.1671 105.509 58.1688Z" fill="#555555"/>
<path d="M86.5377 54.895C87.7656 54.7263 89.0366 55.003 90.0391 55.7435C90.7643 56.2778 91.3101 57.0351 91.5691 57.899C91.9141 59.0395 91.8121 60.3525 91.225 61.3973C90.7666 62.2213 90.0276 62.8621 89.1653 63.237C88.287 63.6186 87.2881 63.7245 86.3469 63.5505C85.2592 63.3581 84.2497 62.7731 83.5759 61.8925C82.3357 60.2896 82.4307 57.7801 83.822 56.2961C84.5287 55.522 85.5045 55.0421 86.5377 54.895ZM86.7693 57.1125C86.0786 57.2573 85.493 57.7663 85.263 58.4346C84.9411 59.3246 85.1733 60.4023 85.9452 60.9865C86.7906 61.6365 88.0838 61.5353 88.8013 60.7388C89.5533 59.9165 89.531 58.5098 88.766 57.7035C88.2616 57.1723 87.4806 56.9515 86.7693 57.1125Z" fill="#555555"/>
<path d="M99.302 55.0978C99.144 55.8643 98.9395 56.6232 98.7638 57.3858C98.2633 57.1398 97.6968 56.9948 97.142 57.126C96.6452 57.2425 96.2473 57.6212 96.0167 58.0657C95.6495 58.7442 95.5483 59.5912 95.5262 60.3515C95.5238 61.3932 95.5268 62.4348 95.5253 63.4758C94.7335 63.4765 93.9417 63.4758 93.1498 63.4758C93.1483 60.6718 93.1492 57.868 93.1492 55.0633C93.9348 55.0625 94.7205 55.0633 95.5062 55.0633C95.5055 55.6373 95.5085 56.2115 95.5038 56.7857C95.7538 56.092 96.15 55.4748 96.8162 55.1192C97.5567 54.7237 98.5408 54.792 99.302 55.0978Z" fill="#555555"/>
<path d="M127.126 54.9464C127.923 55.0331 128.714 55.3136 129.287 55.8931C129.744 56.3714 129.956 57.0129 129.947 57.6682C129.195 57.6706 128.443 57.6714 127.691 57.6682C127.652 57.4559 127.617 57.2644 127.455 57.1087C127.084 56.7424 126.414 56.7201 125.987 56.9952C125.688 57.1816 125.595 57.6092 125.844 57.8746C126.099 58.1412 126.549 58.2141 126.891 58.3084C127.634 58.5152 128.322 58.6149 128.997 59.0166C129.531 59.3301 129.946 59.8246 130.101 60.4309C130.257 61.0792 130.183 61.7846 129.799 62.3417C129.397 62.9396 128.722 63.3091 128.046 63.5092C127.13 63.7706 126.13 63.7821 125.222 63.4777C124.568 63.2631 123.964 62.8629 123.575 62.2857C123.277 61.8542 123.152 61.3506 123.134 60.8317C123.879 60.8309 124.624 60.8317 125.369 60.8317C125.391 61.1912 125.577 61.4802 125.888 61.6581C126.299 61.8819 126.834 61.8749 127.267 61.7201C127.557 61.6074 127.816 61.3782 127.799 61.0426C127.794 60.8171 127.635 60.6631 127.445 60.5687C127.062 60.3849 126.604 60.3159 126.192 60.2071C125.439 60.0422 124.602 59.7724 124.034 59.2282C123.376 58.6426 123.169 57.6107 123.427 56.7899C123.707 55.9904 124.441 55.4171 125.224 55.1496C125.839 54.9249 126.478 54.8951 127.126 54.9464Z" fill="#555555"/>
<path d="M140.273 54.964C141.335 54.8145 142.493 55.0773 143.21 55.9213C143.853 56.6748 144.063 57.7005 144.084 58.6662C144.084 60.2882 144.085 61.9108 144.084 63.5328C143.292 63.5337 142.5 63.5343 141.707 63.5328C141.709 62.0642 141.707 60.5948 141.709 59.1262C141.707 58.4202 141.42 57.6828 140.734 57.387C140.114 57.1325 139.327 57.2797 138.821 57.7142C138.395 58.1005 138.246 58.6425 138.239 59.202C138.24 60.6462 138.241 62.0903 138.239 63.5337C137.447 63.5337 136.656 63.5337 135.864 63.5337C135.863 60.7358 135.864 57.938 135.864 55.1403C136.655 55.1403 137.448 55.1403 138.24 55.1403C138.239 55.584 138.243 56.0278 138.237 56.4717C138.562 55.6208 139.413 55.1272 140.273 54.964Z" fill="#555555"/>
<path d="M152.728 55.9034C153.523 56.5504 154.037 57.4986 154.171 58.5127C154.256 59.0469 154.212 59.5697 154.178 60.1056C152.068 60.1017 149.958 60.1024 147.849 60.1056C147.953 60.4519 148.114 60.7701 148.38 61.0199C148.831 61.4499 149.436 61.5987 150.045 61.5987C150.856 61.5802 151.674 61.2737 152.214 60.6521C152.68 61.1219 153.151 61.5879 153.617 62.0577C152.936 62.9469 151.895 63.4344 150.812 63.6237C149.606 63.8292 148.291 63.6567 147.255 62.9784C146.536 62.5192 145.982 61.8271 145.681 61.0307C145.385 60.2687 145.328 59.4364 145.428 58.6299C145.561 57.6351 146.034 56.6952 146.792 56.0307C148.391 54.6042 151.073 54.5382 152.728 55.9034ZM147.85 58.5494C149.182 58.5532 150.513 58.5487 151.845 58.5517C151.798 58.0827 151.572 57.6487 151.184 57.3752C150.677 57.0111 150.051 56.9421 149.445 57.0272C148.958 57.1046 148.505 57.3461 148.211 57.7492C148.026 57.9876 147.931 58.2621 147.85 58.5494Z" fill="#555555"/>
<path d="M159.151 54.96C159.954 55.0657 160.808 55.4015 161.324 56.0507C161.702 56.5107 161.851 57.0817 161.853 57.6697C161.099 57.6689 160.345 57.6719 159.591 57.6674C159.557 57.432 159.502 57.2227 159.313 57.0634C158.933 56.7437 158.285 56.7269 157.878 57.005C157.605 57.1914 157.504 57.5485 157.71 57.8267C157.945 58.1257 158.431 58.2109 158.779 58.3044C159.498 58.5035 160.256 58.6277 160.891 59.011C161.393 59.3084 161.796 59.7492 161.97 60.314C162.177 60.981 162.107 61.7667 161.7 62.3469C161.354 62.8574 160.815 63.1955 160.247 63.4109C159.416 63.7082 158.5 63.7887 157.633 63.614C156.85 63.4537 156.115 63.0874 155.606 62.4574C155.23 61.9967 155.05 61.4232 155.04 60.8322C155.782 60.83 156.523 60.8315 157.265 60.8315C157.306 61.0445 157.342 61.2432 157.494 61.4087C157.776 61.7467 158.206 61.8502 158.631 61.828C158.955 61.8134 159.357 61.7069 159.57 61.4447C159.752 61.2202 159.763 60.8722 159.524 60.6829C159.203 60.436 158.721 60.3662 158.336 60.265C157.502 60.0742 156.674 59.8725 156.01 59.2947C155.142 58.5695 154.948 57.1192 155.635 56.2117C156.044 55.6499 156.681 55.2644 157.343 55.0789C157.922 54.9102 158.555 54.8949 159.151 54.96Z" fill="#555555"/>
<path d="M166.987 54.9509C167.772 55.0427 168.57 55.3287 169.124 55.9121C169.571 56.3866 169.778 57.0236 169.766 57.6689C169.015 57.6697 168.263 57.6704 167.512 57.6689C167.472 57.4481 167.432 57.2466 167.258 57.0879C166.871 56.7399 166.215 56.7222 165.788 57.0082C165.492 57.2021 165.421 57.6444 165.684 57.8957C165.939 58.1357 166.347 58.2101 166.675 58.2989C167.391 58.4991 168.059 58.5979 168.703 58.9512C169.29 59.2641 169.753 59.7731 169.921 60.4252C170.075 61.0516 170.007 61.7682 169.639 62.3124C169.259 62.8996 168.617 63.2682 167.965 63.4791C167.087 63.7504 166.123 63.7872 165.236 63.5374C164.512 63.3327 163.85 62.9372 163.416 62.3117C163.099 61.8756 162.986 61.3719 162.947 60.8431C163.692 60.8154 164.441 60.8407 165.187 60.8292C165.216 61.0009 165.236 61.1627 165.337 61.3099C165.567 61.6632 165.96 61.8151 166.368 61.8296C166.718 61.8387 167.127 61.7706 167.401 61.5359C167.612 61.3574 167.698 61.0339 167.54 60.7932C167.385 60.5724 167.092 60.4904 166.848 60.4131C166.01 60.1816 165.226 60.0934 164.452 59.6602C163.819 59.3216 163.329 58.7551 163.194 58.0369C163.122 57.5931 163.109 57.0794 163.298 56.6609C163.608 55.9357 164.276 55.4222 165.006 55.1632C165.646 54.9232 166.312 54.8911 166.987 54.9509Z" fill="#555555"/>
<path d="M113.538 55.1404C114.331 55.1404 115.123 55.1395 115.915 55.141C115.914 56.6227 115.916 58.1044 115.914 59.586C115.919 60.177 116.128 60.768 116.621 61.123C117.178 61.533 118.032 61.4519 118.597 61.1C119.147 60.7489 119.369 60.141 119.382 59.5102C119.385 58.0545 119.382 56.5967 119.383 55.1404C120.175 55.1404 120.968 55.1404 121.759 55.1404C121.759 57.938 121.76 60.7359 121.759 63.5337C120.967 63.5337 120.176 63.5337 119.384 63.5337C119.384 63.1014 119.381 62.6682 119.385 62.2352C119.113 62.9144 118.523 63.3344 117.851 63.5682C117.14 63.8195 116.355 63.7797 115.642 63.559C114.943 63.3352 114.362 62.8315 114.025 62.1815C113.689 61.5345 113.55 60.7695 113.538 60.046C113.539 58.411 113.538 56.776 113.538 55.1404Z" fill="#555555"/>
<path d="M131.589 55.141C132.382 55.1395 133.174 55.1404 133.966 55.1404C133.966 57.938 133.966 60.7359 133.966 63.5329C133.174 63.5337 132.382 63.5344 131.589 63.5329C131.59 60.7359 131.59 57.938 131.589 55.141Z" fill="#555555"/>
</g>
<defs>
<clipPath id="clip0_21_52">
<rect width="100" height="39.8333" fill="white" transform="translate(70 24)"/>
</clipPath>
</defs>
</svg>
