<?xml version="1.0" encoding="UTF-8"?>
<svg width="200px" height="60px" viewBox="0 0 200 60" version="1.1" xmlns="http://www.w3.org/2000/svg" xmlns:xlink="http://www.w3.org/1999/xlink">
    <title>btn_web</title>
    <defs>
        <polygon id="path-1" points="0 0.378 10.7296 0.378 10.7296 12.58306 0 12.58306"></polygon>
        <polygon id="path-3" points="0.924108672 0.59542 9.66854 0.59542 9.66854 9.8 0.924108672 9.8"></polygon>
        <polygon id="path-5" points="1.23308867 0.59542 9.97752 0.59542 9.97752 9.8 1.23308867 9.8"></polygon>
        <polygon id="path-7" points="0.8939 0.54138 9.5564 0.54138 9.5564 12.56738 0.8939 12.56738"></polygon>
    </defs>
    <g id="Page-1" stroke="none" stroke-width="1" fill="none" fill-rule="evenodd">
        <g id="metapick.io" transform="translate(-1080.000000, -1676.000000)">
            <g id="2" transform="translate(0.000000, 1080.000000)">
                <g id="Con" transform="translate(548.000000, 364.000000)">
                    <g id="Btn" transform="translate(92.000000, 232.000000)">
                        <g id="Elements/Button/02-Large-(50px)/Fill/01-Default/No-Icon/Center" transform="translate(440.000000, 0.000000)">
                            <rect id="Rectangle" fill="#5666E6" x="0" y="0" width="200" height="60" rx="6"></rect>
                            <g id="Group-25" transform="translate(61.000000, 23.000000)">
                                <g id="Group-3" transform="translate(0.000000, 1.022658)">
                                    <mask id="mask-2" fill="white">
                                        <use xlink:href="#path-1"></use>
                                    </mask>
                                    <g id="Clip-2"></g>
                                    <path d="M5.775,7.94066 L8.351,7.94066 C8.3174,9.43306 7.3094,10.39346 5.6112,10.40186 C3.7156,10.39346 2.5102,8.97386 2.5102,6.46366 C2.5102,3.97026 3.7576,2.56746 5.5944,2.55906 C6.8908,2.56746 7.7854,3.24786 8.1214,4.36366 L10.6148,4.36366 C10.2872,2.02566 8.2278,0.37786 5.5454,0.37786 C2.4122,0.37786 0,2.64166 0,6.49726 C0,10.25346 2.2638,12.58306 5.5944,12.58306 C8.589,12.58306 10.7296,10.68046 10.7296,7.56266 L10.7296,6.08706 L5.775,6.08706 L5.775,7.94066 Z" id="Fill-1" fill="#FFFFFF" mask="url(#mask-2)"></path>
                                </g>
                                <g id="Group-6" transform="translate(11.200000, 3.822658)">
                                    <mask id="mask-4" fill="white">
                                        <use xlink:href="#path-3"></use>
                                    </mask>
                                    <g id="Clip-5"></g>
                                    <path d="M5.30474,7.91322 C4.03354,7.90482 3.38534,6.74842 3.38534,5.19022 C3.38534,3.62362 4.03354,2.45042 5.30474,2.45042 C6.54374,2.45042 7.20034,3.62362 7.19194,5.19022 C7.20034,6.74842 6.54374,7.90482 5.30474,7.91322 M5.28794,0.59542 C2.59714,0.59542 0.91574,2.44202 0.924108672,5.19022 C0.91574,7.94542 2.59714,9.79202 5.28794,9.80042 C7.98714,9.79202 9.66014,7.94542 9.66854,5.19022 C9.66014,2.44202 7.98714,0.59542 5.28794,0.59542" id="Fill-4" fill="#FFFFFF" mask="url(#mask-4)"></path>
                                </g>
                                <path d="M29.2852,10.702398 L29.2852,6.355398 L30.9582,6.355398 L30.9582,4.533998 L29.2852,4.533998 L29.2852,2.400398 L26.8576,2.400398 L26.8576,4.533998 L25.627,4.533998 L25.627,6.355398 L26.8576,6.355398 L26.8576,11.046798 C26.8408,12.777198 28.0378,13.565398 29.7934,13.556998 C30.3926,13.565398 30.828,13.516398 31.0898,13.474398 L31.0898,11.554998 C30.7944,11.580198 30.3674,11.605398 30.1224,11.605398 C29.6296,11.588598 29.2768,11.416398 29.2852,10.702398" id="Fill-7" fill="#FFFFFF"></path>
                                <g id="Group-11" transform="translate(30.800000, 3.822658)">
                                    <mask id="mask-6" fill="white">
                                        <use xlink:href="#path-5"></use>
                                    </mask>
                                    <g id="Clip-10"></g>
                                    <path d="M5.61372,7.91322 C4.34252,7.90482 3.69432,6.74842 3.69432,5.19022 C3.69432,3.62362 4.34252,2.45042 5.61372,2.45042 C6.85272,2.45042 7.50932,3.62362 7.50092,5.19022 C7.50932,6.74842 6.85272,7.90482 5.61372,7.91322 M5.59692,0.59542 C2.90612,0.59542 1.22472,2.44202 1.23308867,5.19022 C1.22472,7.94542 2.90612,9.79202 5.59692,9.80042 C8.29612,9.79202 9.96912,7.94542 9.97752,5.19022 C9.96912,2.44202 8.29612,0.59542 5.59692,0.59542" id="Fill-9" fill="#FFFFFF" mask="url(#mask-6)"></path>
                                </g>
                                <path d="M49.19418,10.702398 L49.19418,6.355398 L50.86718,6.355398 L50.86718,4.533998 L49.19418,4.533998 L49.19418,2.400398 L46.76658,2.400398 L46.76658,4.533998 L45.53598,4.533998 L45.53598,6.355398 L46.76658,6.355398 L46.76658,11.046798 C46.74978,12.777198 47.94678,13.565398 49.70238,13.556998 C50.30158,13.565398 50.73698,13.516398 50.99878,13.474398 L50.99878,11.554998 C50.70338,11.580198 50.27638,11.605398 50.03138,11.605398 C49.53858,11.588598 49.18578,11.416398 49.19418,10.702398" id="Fill-12" fill="#FFFFFF"></path>
                                <path d="M57.70072,4.418778 C56.34692,4.418778 55.45372,5.050178 55.04352,6.091778 L54.94412,6.091778 L54.94412,1.564178 L52.58232,1.564178 L52.58232,13.441778 L55.00992,13.441778 L55.00992,8.291178 C55.00992,7.117978 55.72392,6.436178 56.74872,6.436178 C57.76652,6.436178 58.35732,7.084378 58.35732,8.191778 L58.35732,13.441778 L60.78492,13.441778 L60.78492,7.766178 C60.78492,5.673178 59.56272,4.418778 57.70072,4.418778" id="Fill-14" fill="#FFFFFF"></path>
                                <path d="M64.6898,8.093778 C64.7388,7.068978 65.527,6.231778 66.6428,6.240178 C67.725,6.231778 68.4712,7.011578 68.4796,8.093778 L64.6898,8.093778 Z M66.5924,4.418778 C63.9842,4.418778 62.286,6.280778 62.2943685,9.028978 C62.286,11.851378 63.9604,13.613978 66.6918,13.622378 C68.8898,13.613978 70.3668,12.548578 70.7112,10.899378 L68.397,10.899378 C68.1604,11.432778 67.5696,11.793978 66.7408,11.800978 C65.485,11.793978 64.6898,10.965178 64.6898,9.619778 L70.777,9.619778 L70.777,8.930978 C70.777,5.895778 68.9304,4.418778 66.5924,4.418778 L66.5924,4.418778 Z" id="Fill-16" fill="#FFFFFF"></path>
                                <polygon id="Fill-18" fill="#FFFFFF" points="89.05316 1.564038 87.05116 9.881438 86.95316 9.881438 84.77056 1.564038 82.45776 1.564038 80.27516 9.866038 80.17716 9.866038 78.17516 1.564038 75.48576 1.564038 78.88076 13.441638 81.29296 13.441638 83.57356 5.600238 83.67156 5.600238 85.93536 13.441638 88.34756 13.441638 91.74396 1.564038"></polygon>
                                <path d="M94.0324,8.093778 C94.0814,7.068978 94.8696,6.231778 95.9854,6.240178 C97.0676,6.231778 97.8138,7.011578 97.8222,8.093778 L94.0324,8.093778 Z M95.935,4.418778 C93.3268,4.418778 91.6286,6.280778 91.6369685,9.028978 C91.6286,11.851378 93.303,13.613978 96.0344,13.622378 C98.2324,13.613978 99.7094,12.548578 100.0538,10.899378 L97.7396,10.899378 C97.503,11.432778 96.9122,11.793978 96.0834,11.800978 C94.8276,11.793978 94.0324,10.965178 94.0324,9.619778 L100.1196,9.619778 L100.1196,8.930978 C100.1196,5.895778 98.273,4.418778 95.935,4.418778 L95.935,4.418778 Z" id="Fill-20" fill="#FFFFFF"></path>
                                <g id="Group-24" transform="translate(100.800000, 1.022658)">
                                    <mask id="mask-8" fill="white">
                                        <use xlink:href="#path-7"></use>
                                    </mask>
                                    <g id="Clip-23"></g>
                                    <path d="M5.1597,10.63118 C3.9627,10.62278 3.2641,9.56438 3.2725,7.95718 C3.2641,6.35698 3.9543,5.33218 5.1597,5.33218 C6.4141,5.33218 7.0707,6.40598 7.0623,7.95718 C7.0707,9.53218 6.3987,10.62278 5.1597,10.63118 M5.9311,3.39598 C4.4303,3.39598 3.7247,4.28218 3.3873,5.00318 L3.3229,5.00318 L3.3229,0.54138 L0.8939,0.54138 L0.8939,12.41898 L3.2893,12.41898 L3.2893,10.99238 L3.3873,10.99238 C3.7401,11.73018 4.4793,12.56738 5.9311,12.56738 C7.9653,12.56738 9.5487,10.95178 9.5571,7.97398 C9.5487,4.92198 7.8995,3.39598 5.9311,3.39598" id="Fill-22" fill="#FFFFFF" mask="url(#mask-8)"></path>
                                </g>
                            </g>
                            <g id="Universal/Solid/Devices-and-Electronics/Laptop" transform="translate(21.000000, 13.931052)" fill="#FFFFFF">
                                <path d="M28.3450667,21.3788 C28.8052001,21.502 29.1646667,21.8614667 29.2878667,22.3216 C29.3276501,22.4698834 29.332623,22.6466479 29.3332446,22.9654232 L29.3327876,23.523022 C29.3303317,24.0855813 29.3168243,24.4127152 29.2425334,24.6901334 C28.9958667,25.6104 28.2770667,26.3292 27.3568,26.5758667 C27.0485576,26.6584122 26.6789378,26.6659163 25.9931947,26.6665985 L6.22222663,26.6666667 C5.39558662,26.6666667 4.98226662,26.6666667 4.64314662,26.5758667 C3.72290662,26.3292 3.00410661,25.6104 2.75753328,24.6901334 C2.69144843,24.4435394 2.67342529,24.1576639 2.66850989,23.7020771 L2.6673764,22.8371688 C2.66950578,22.596725 2.67802328,22.4487 2.71209328,22.3216 C2.83538661,21.8614667 3.19478661,21.502 3.65490662,21.3788 C3.78207662,21.3447 3.93011162,21.336175 4.17055037,21.3340438 L27.829498,21.3340438 C28.0699417,21.336175 28.2179667,21.3447 28.3450667,21.3788 Z M25.2106667,5.62398662 C25.7124,5.87963996 26.1204,6.28758663 26.376,6.78935996 C26.6666667,7.35978663 26.6666667,8.10651997 26.6666667,9.59999997 L26.6666667,16.5333333 C26.6666667,17.2801333 26.6666667,17.6534667 26.5213334,17.9386667 C26.3934667,18.1896 26.1896,18.3934667 25.9386667,18.5213333 C25.679394,18.6534546 25.3472838,18.6654656 24.727961,18.6665575 L7.46666663,18.6666667 C6.71993329,18.6666667 6.34655996,18.6666667 6.06134663,18.5213333 C5.81046662,18.3934667 5.60649329,18.1896 5.47865329,17.9386667 C5.3465442,17.6793939 5.33453428,17.3472838 5.33344247,16.7279609 L5.33333329,9.59999997 C5.33333329,8.1065333 5.33333329,7.35978663 5.62398662,6.78935996 C5.87963996,6.28759996 6.28758663,5.87963996 6.78935996,5.62398662 C7.2884833,5.36966496 7.92259142,5.33787475 9.07383458,5.33390097 L22.9261638,5.33390097 C24.0774105,5.33787475 24.7115667,5.36966496 25.2106667,5.62398662 Z" id="Combined-Shape"></path>
                            </g>
                        </g>
                    </g>
                </g>
            </g>
        </g>
    </g>
</svg>