<?xml version="1.0" encoding="UTF-8"?>
<svg width="200px" height="60px" viewBox="0 0 200 60" version="1.1" xmlns="http://www.w3.org/2000/svg" xmlns:xlink="http://www.w3.org/1999/xlink">
    <title>btn_googleplay</title>
    <defs>
        <rect id="path-1" x="0" y="0" width="200" height="60" rx="6"></rect>
        <linearGradient x1="61.634691%" y1="4.9481245%" x2="25.2233293%" y2="71.9074222%" id="linearGradient-3">
            <stop stop-color="#00A0FF" offset="0%"></stop>
            <stop stop-color="#00A1FF" offset="1%"></stop>
            <stop stop-color="#00BEFF" offset="26%"></stop>
            <stop stop-color="#00D2FF" offset="51%"></stop>
            <stop stop-color="#00DFFF" offset="76%"></stop>
            <stop stop-color="#00E3FF" offset="100%"></stop>
        </linearGradient>
        <linearGradient x1="107.684729%" y1="50%" x2="-130.640394%" y2="50%" id="linearGradient-4">
            <stop stop-color="#FFE000" offset="0%"></stop>
            <stop stop-color="#FFBD00" offset="41%"></stop>
            <stop stop-color="#FFA500" offset="78%"></stop>
            <stop stop-color="#FF9C00" offset="100%"></stop>
        </linearGradient>
        <linearGradient x1="86.219293%" y1="31.8969177%" x2="-50.1497903%" y2="131.547636%" id="linearGradient-5">
            <stop stop-color="#FF3A44" offset="0%"></stop>
            <stop stop-color="#C31162" offset="100%"></stop>
        </linearGradient>
        <linearGradient x1="-18.7537448%" y1="-8.6389214%" x2="42.1210306%" y2="35.8644323%" id="linearGradient-6">
            <stop stop-color="#32A071" offset="0%"></stop>
            <stop stop-color="#2DA771" offset="7%"></stop>
            <stop stop-color="#15CF74" offset="48%"></stop>
            <stop stop-color="#06E775" offset="80%"></stop>
            <stop stop-color="#00F076" offset="100%"></stop>
        </linearGradient>
    </defs>
    <g id="Page-1" stroke="none" stroke-width="1" fill="none" fill-rule="evenodd">
        <g id="metapick.io" transform="translate(-860.000000, -1676.000000)">
            <g id="2" transform="translate(0.000000, 1080.000000)">
                <g id="Con" transform="translate(548.000000, 364.000000)">
                    <g id="Btn" transform="translate(92.000000, 232.000000)">
                        <g id="btn_googleplay" transform="translate(220.000000, 0.000000)">
                            <mask id="mask-2" fill="white">
                                <use xlink:href="#path-1"></use>
                            </mask>
                            <use id="Background-Black" fill="#000000" xlink:href="#path-1"></use>
                            <g id="icon" mask="url(#mask-2)">
                                <g transform="translate(25.000000, 13.333333)">
                                    <path d="M73.2931624,19.1847878 C70.3874925,19.198104 68.0417753,21.5004375 68.0508541,24.3301144 C68.0599858,27.1597913 70.4204734,29.4477633 73.326172,29.4433518 C76.2318705,29.4389276 78.5850106,27.143789 78.5850427,24.3140981 C78.605458,22.9435148 78.0536631,21.6235754 77.0560427,20.6566026 C76.0584223,19.6896297 74.7004511,19.1584722 73.2931624,19.1847878 L73.2931624,19.1847878 Z M73.2931624,27.4278912 C71.9834869,27.5170872 70.7509195,26.8175799 70.1849837,25.663936 C69.6190479,24.5102921 69.8347709,23.1369912 70.7289748,22.2008682 C71.6231787,21.2647452 73.0141153,20.9560683 74.2365148,21.4224743 C75.4589144,21.8888803 76.2643225,23.0355715 76.2675214,24.3140981 C76.3078522,25.1138746 76.0147414,25.8956067 75.4547038,26.481898 C74.8946663,27.0681894 74.1151911,27.4093248 73.2931624,27.4278912 L73.2931624,27.4278912 Z M61.7551282,19.1847878 C58.8478156,19.1914496 56.495876,21.4908616 56.5004272,24.3221252 C56.5049916,27.1533888 58.8643229,29.4456081 61.7716427,29.4433943 C64.6789625,29.4411773 67.0346073,27.1453652 67.0346154,24.3140981 C67.0550306,22.9435148 66.5032357,21.6235754 65.5056153,20.6566026 C64.5079949,19.6896297 63.1500237,19.1584722 61.742735,19.1847878 L61.7551282,19.1847878 Z M61.7551282,27.4278912 C60.4447691,27.5221173 59.2086079,26.826098 58.6386838,25.6731803 C58.0687596,24.5202625 58.2811051,23.1451724 59.1740208,22.2064867 C60.0669366,21.2678011 61.4586311,20.9566297 62.6825753,21.4220031 C63.9065194,21.8873764 64.7135266,23.0345477 64.717094,24.3140981 C64.7574248,25.1138746 64.464314,25.8956067 63.9042765,26.481898 C63.3442389,27.0681894 62.5647637,27.4093248 61.742735,27.4278912 L61.7551282,27.4278912 Z M48.0111111,20.7658223 L48.0111111,22.9382361 L53.3649573,22.9382361 C53.2810102,23.9614475 52.8442519,24.9269535 52.125641,25.6778912 C51.042507,26.7523003 49.5435792,27.3309268 47.9987179,27.2709947 C44.7133317,27.2709947 42.05,24.6773339 42.05,21.4778912 C42.05,18.2784486 44.7133317,15.6847878 47.9987179,15.6847878 C49.507952,15.6608174 50.965346,16.2207128 52.0512821,17.2416844 L53.6252137,15.7089257 C52.1441311,14.2484097 50.1188391,13.4342324 48.0111111,13.4520292 C45.0106779,13.3383142 42.1868125,14.8323227 40.6518704,17.3455463 C39.1169283,19.8587699 39.1169283,22.9883919 40.6518704,25.5016155 C42.1868125,28.0148391 45.0106779,29.5088476 48.0111111,29.3951326 C50.1573156,29.4895775 52.2405761,28.6754315 53.724359,27.162374 C55.0227605,25.7731414 55.7159936,23.9469134 55.6576923,22.0692706 C55.6616914,21.6118425 55.6201871,21.1551126 55.5337607,20.7054775 L48.0111111,20.7658223 Z M104.16453,22.4554775 C103.502834,20.5596965 101.708116,19.2584725 99.6534188,19.1847786 C98.2831856,19.1821789 96.9729575,19.7320038 96.0338463,20.7037076 C95.094735,21.6754114 94.6105115,22.9823157 94.6961538,24.3140981 C94.6657174,25.6770418 95.2057166,26.9934427 96.1920732,27.9608255 C97.1784298,28.9282083 98.5263329,29.4633932 99.9260684,29.4434085 C101.686961,29.4526521 103.334985,28.6003255 104.313248,27.174443 L102.516239,25.9675464 C101.970625,26.8533387 100.986745,27.3942997 99.9260684,27.3916844 C98.8275278,27.4324595 97.8150683,26.815029 97.3730769,25.8347878 L104.424786,22.9985809 L104.16453,22.4554775 Z M96.9764957,24.1692706 C96.9257481,23.4151585 97.1888225,22.6728938 97.7064117,22.1098116 C98.2240009,21.5467293 98.9525362,21.2102277 99.7277778,21.1761671 C100.544946,21.1237294 101.315424,21.5511288 101.685897,22.262374 L96.9764957,24.1692706 Z M91.2508547,29.1416844 L93.5683761,29.1416844 L93.5683761,14.0554775 L91.2508547,14.0554775 L91.2508547,29.1416844 Z M87.458547,20.3313395 L87.3717949,20.3313395 C86.6653377,19.5621563 85.6554128,19.1230912 84.5957265,19.1244399 C81.7826607,19.2572881 79.5719562,21.5170908 79.5719562,24.2597878 C79.5719562,27.0024848 81.7826607,29.2622875 84.5957265,29.3951326 C85.6588478,29.4125406 86.6753189,28.9706295 87.3717949,28.1882361 L87.4461538,28.1882361 L87.4461538,28.924443 C87.4461538,30.8916844 86.3679487,31.9416844 84.632906,31.9416844 C83.4509738,31.9147433 82.4030391,31.1946558 81.9807692,30.1192706 L79.9606838,30.9399602 C80.7385798,32.7826631 82.587081,33.9811685 84.632906,33.9693583 C87.3470085,33.9693583 89.5901709,32.412374 89.5901709,28.6227188 L89.5901709,19.4865119 L87.458547,19.4865119 L87.458547,20.3313395 Z M84.8064103,27.4278912 C83.1493051,27.2856703 81.8783724,25.9341094 81.8783724,24.3140981 C81.8783724,22.6940869 83.1493051,21.342526 84.8064103,21.200305 C85.6071568,21.2403227 86.3573971,21.5934759 86.8870361,22.1796974 C87.4166751,22.7659188 87.6808468,23.5355495 87.6196581,24.3140981 C87.6879876,25.0962267 87.424661,25.871515 86.8909034,26.459704 C86.3571457,27.0478929 85.5994617,27.3977355 84.7940171,27.4278912 L84.8064103,27.4278912 Z M115.02094,14.0554775 L109.481197,14.0554775 L109.481197,29.1416844 L111.798718,29.1416844 L111.798718,23.4209947 L115.033333,23.4209947 C116.833668,23.546951 118.555438,22.6829883 119.495033,21.182169 C120.434628,19.6813497 120.434628,17.7951225 119.495033,16.2943032 C118.555438,14.7934839 116.833668,13.9295211 115.033333,14.0554775 L115.02094,14.0554775 Z M115.02094,21.2968568 L111.786325,21.2968568 L111.786325,16.1554775 L115.070513,16.1554775 C116.53867,16.1554775 117.728846,17.3145196 117.728846,18.7442706 C117.728846,20.1740215 116.53867,21.3330637 115.070513,21.3330637 L115.02094,21.2968568 Z M129.310256,19.124443 C127.586011,19.0240762 125.964954,19.9295492 125.183333,21.4296154 L127.240598,22.262374 C127.655033,21.5185252 128.481308,21.0830618 129.347436,21.1520292 C129.941723,21.0844365 130.538981,21.2521655 131.005056,21.6175415 C131.471132,21.9829174 131.766951,22.5153092 131.826068,23.0951326 L131.826068,23.2520292 C131.081726,22.868235 130.251631,22.6692492 129.409402,22.6727188 C127.191026,22.6727188 124.947863,23.8796154 124.947863,26.0640981 C124.992092,27.005126 125.425298,27.88872 126.148923,28.5138536 C126.872549,29.1389872 127.825058,29.4524996 128.789744,29.3830637 C129.978532,29.4661984 131.119124,28.9108209 131.764103,27.9347878 L131.838462,27.9347878 L131.838462,29.1416844 L134.069231,29.1416844 L134.069231,23.3365119 C134.069231,20.6934085 132.011966,19.1606499 129.372222,19.1606499 L129.310256,19.124443 Z M129.025214,27.3916844 C128.269231,27.3916844 127.215812,27.0175464 127.215812,26.112374 C127.215812,24.9054775 128.529487,24.5072016 129.694444,24.5072016 C130.43065,24.4895108 131.158239,24.6645657 131.801282,25.0140981 C131.641034,26.3651163 130.483299,27.3947505 129.087179,27.4278912 L129.025214,27.3916844 Z M142.199145,19.4865119 L139.547009,26.0278912 L139.47265,26.0278912 L136.721368,19.4865119 L134.242735,19.4865119 L138.369658,28.6347878 L136.014957,33.7158223 L138.431624,33.7158223 L144.776923,19.4865119 L142.199145,19.4865119 Z M121.366239,29.1416844 L123.683761,29.1416844 L123.683761,14.0554775 L121.366239,14.0554775 L121.366239,29.1416844 Z" id="Google-Play" stroke="none" fill="#FFFFFF" fill-rule="nonzero"></path>
                                    <path d="M47.6145299,5.29340849 C47.6571048,6.18799769 47.3211436,7.06045819 46.6850427,7.70720159 C45.9742326,8.42627444 44.9828218,8.81685342 43.958547,8.78133952 C42.3875157,8.76936561 40.9769358,7.84142801 40.3790198,6.42657896 C39.7811038,5.0117299 40.1123731,3.38569421 41.2196581,2.30030504 C41.9391221,1.58500879 42.9306319,1.19178918 43.958547,1.21409814 C44.4824774,1.21239815 45.0012283,1.31507715 45.482906,1.51582228 C45.9313581,1.69197313 46.3305785,1.96908019 46.6478632,2.32444297 L45.9910256,2.96409814 C45.4895324,2.38319041 44.7366949,2.06579281 43.958547,2.10720159 C43.1763518,2.10346489 42.4263547,2.41023842 41.8814976,2.95678332 C41.3366405,3.50332821 41.0439582,4.24246396 41.0709402,5.00375332 C41.0543357,6.15415467 41.7500564,7.20131824 42.8344045,7.65803058 C43.9187526,8.11474292 45.1787686,7.89130841 46.0282051,7.09168435 C46.4095545,6.68922854 46.6295003,6.16659971 46.6478632,5.61927056 L43.958547,5.61927056 L43.958547,4.75030504 L47.5649573,4.75030504 C47.5980137,4.92954623 47.6146035,5.11129944 47.6145299,5.29340849 L47.6145299,5.29340849 Z M53.2905983,2.27616711 L49.9444444,2.27616711 L49.9444444,4.56927056 L52.9931624,4.56927056 L52.9931624,5.43823607 L49.9444444,5.43823607 L49.9444444,7.73133952 L53.2905983,7.73133952 L53.2905983,8.62444297 L48.9529915,8.62444297 L48.9529915,1.38306366 L53.2905983,1.38306366 L53.2905983,2.27616711 Z M57.3555556,8.62444297 L56.4012821,8.62444297 L56.4012821,2.27616711 L54.3192308,2.27616711 L54.3192308,1.38306366 L59.4871795,1.38306366 L59.4871795,2.27616711 L57.3555556,2.27616711 L57.3555556,8.62444297 Z M63.1307692,8.62444297 L63.1307692,1.38306366 L64.0850427,1.38306366 L64.0850427,8.62444297 L63.1307692,8.62444297 Z M68.3235043,8.62444297 L67.3692308,8.62444297 L67.3692308,2.27616711 L65.2871795,2.27616711 L65.2871795,1.38306366 L70.3931624,1.38306366 L70.3931624,2.27616711 L68.3235043,2.27616711 L68.3235043,8.62444297 Z M80.0722222,7.68306366 C78.5639618,9.14368352 76.1274912,9.14368352 74.6192308,7.68306366 C73.1571709,6.17593213 73.1571709,3.81950554 74.6192308,2.31237401 C75.3405109,1.60482691 76.3219469,1.20689655 77.3457265,1.20689655 C78.3695061,1.20689655 79.3509421,1.60482691 80.0722222,2.31237401 C81.5405214,3.81708416 81.5405214,6.17835351 80.0722222,7.68306366 L80.0722222,7.68306366 Z M75.325641,7.07961538 C76.4426664,8.16288357 78.2487866,8.16288357 79.365812,7.07961538 C80.4628526,5.90189089 80.4628526,4.10561574 79.365812,2.92789125 C78.2487866,1.84462306 76.4426664,1.84462306 75.325641,2.92789125 C74.2286004,4.10561574 74.2286004,5.90189089 75.325641,7.07961538 L75.325641,7.07961538 Z M82.5136752,8.62444297 L82.5136752,1.38306366 L83.6786325,1.38306366 L87.2974359,7.01927056 L87.2974359,1.38306366 L88.2517094,1.38306366 L88.2517094,8.62444297 L87.2602564,8.62444297 L83.4803419,2.72271883 L83.4803419,8.62444297 L82.5136752,8.62444297 Z" id="GET-IT-ON" stroke="#FFFFFF" stroke-width="0.2" fill="#FFFFFF" fill-rule="nonzero"></path>
                                    <g id="Icon" stroke="none" stroke-width="1" fill="none" fill-rule="evenodd" transform="translate(0.000000, 1.383064)">
                                        <path d="M1.78461538,0.651724138 C1.38067879,1.12375144 1.17679726,1.72802835 1.21452991,2.34137931 L1.21452991,29.037931 C1.17679726,29.651282 1.38067879,30.2555589 1.78461538,30.7275862 L1.87136752,30.812069 L17.2264957,15.8706897 L17.2264957,15.5206897 L1.87136752,0.567241379 L1.78461538,0.651724138 Z" id="Shape" fill="url(#linearGradient-3)" fill-rule="nonzero"></path>
                                        <path d="M22.3076923,20.8551724 L17.2264957,15.8706897 L17.2264957,15.5206897 L22.3076923,10.5241379 L22.4192308,10.5844828 L28.5042735,13.9517241 C30.2393162,14.9051724 30.2393162,16.4741379 28.5042735,17.4396552 L22.4440171,20.7948276 L22.3076923,20.8551724 Z" id="Shape" fill="url(#linearGradient-4)" fill-rule="nonzero"></path>
                                        <path d="M22.4564103,20.7827586 L17.2264957,15.6896552 L1.78461538,30.7275862 C2.51422283,31.3521822 3.59702735,31.3825999 4.36239316,30.8 L22.4688034,20.7827586" id="Shape" fill="url(#linearGradient-5)" fill-rule="nonzero"></path>
                                        <path d="M22.4564103,10.5965517 L4.35,0.579310345 C3.58463418,-0.00328952822 2.50182967,0.0271281374 1.77222222,0.651724138 L17.2264957,15.6896552 L22.4564103,10.5965517 Z" id="Shape" fill="url(#linearGradient-6)" fill-rule="nonzero"></path>
                                        <path d="M22.3076923,20.6741379 L4.35,30.6310345 C3.61513323,31.1660957 2.60623429,31.1660957 1.87136752,30.6310345 L1.78461538,30.7155172 L1.87136752,30.8 C2.60485162,31.3390956 3.61651591,31.3390956 4.35,30.8 L22.4564103,20.7827586 L22.3076923,20.6741379 Z" id="Shape" fill="#000000" fill-rule="nonzero" opacity="0.2"></path>
                                        <path d="M1.78461538,30.5586207 C1.38067879,30.0865934 1.17679726,29.4823165 1.21452991,28.8689655 L1.21452991,29.05 C1.17679726,29.663351 1.38067879,30.2676279 1.78461538,30.7396552 L1.87136752,30.6551724 L1.78461538,30.5586207 Z M28.5042735,17.2586207 L22.3076923,20.6741379 L22.4192308,20.7827586 L28.5042735,17.4275862 C29.2070527,17.1060849 29.6797258,16.443241 29.7435897,15.6896552 C29.6023442,16.3713561 29.1446356,16.950812 28.5042735,17.2586207 Z" id="Shape" fill="#000000" fill-rule="nonzero" opacity="0.12"></path>
                                        <path d="M4.35,0.748275862 L28.5042735,14.1206897 C29.1446356,14.4284983 29.6023442,15.0079542 29.7435897,15.6896552 C29.6797258,14.9360694 29.2070527,14.2732255 28.5042735,13.9517241 L4.35,0.579310345 C2.61495726,-0.374137931 1.20213675,0.422413793 1.20213675,2.35344828 L1.20213675,2.53448276 C1.23931624,0.59137931 2.62735043,-0.205172414 4.35,0.748275862 L4.35,0.748275862 Z" id="Shape" fill="#FFFFFF" fill-rule="nonzero" opacity="0.25"></path>
                                    </g>
                                </g>
                            </g>
                        </g>
                    </g>
                </g>
            </g>
        </g>
    </g>
</svg>