<?xml version="1.0" encoding="UTF-8"?>
<svg width="155px" height="58px" viewBox="0 0 155 58" version="1.1" xmlns="http://www.w3.org/2000/svg" xmlns:xlink="http://www.w3.org/1999/xlink">
    <title>logo_yol</title>
    <g id="Page-1" stroke="none" stroke-width="1" fill="none" fill-rule="evenodd">
        <g id="Desktop-HD" transform="translate(-883.000000, -1444.000000)" fill="#FFC600">
            <g id="2" transform="translate(0.000000, 1080.000000)">
                <g id="Con" transform="translate(548.000000, 364.000000)">
                    <g id="logo_yol" transform="translate(335.000000, 0.000000)">
                        <path d="M26.1504,23.8769 C28.3794,20.1219 30.5024,16.3679 32.5194,12.6139 C34.5364,8.8599 36.3944,5.0789 38.0934,1.2719 L51.7724,1.2719 C48.7514,7.2109 45.6224,12.9629 42.3884,18.5289 C39.1544,24.0969 35.7344,29.6899 32.1294,35.3099 L32.1294,56.3849 L19.7224,56.3849 L19.7224,35.4689 C16.1174,29.8499 12.6844,24.2299 9.4234,18.6089 C6.1644,12.9899 3.0224,7.2109 0.0004,1.2719 L14.3944,1.2719 C16.0884,5.0789 17.9154,8.8599 19.8754,12.6139 C21.8334,16.3679 23.9254,20.1219 26.1504,23.8769" id="Fill-1"></path>
                        <path d="M65.3721,28.789 C65.3721,31.492 65.7031,33.932 66.3661,36.105 C67.0281,38.279 67.9831,40.148 69.2291,41.712 C70.4751,43.276 71.9991,44.483 73.8021,45.33 C75.6031,46.179 77.6721,46.602 80.0051,46.602 C82.2841,46.602 84.3401,46.179 86.1691,45.33 C87.9981,44.483 89.5351,43.276 90.7811,41.712 C92.0261,40.148 92.9801,38.279 93.6441,36.105 C94.3071,33.932 94.6391,31.492 94.6391,28.789 C94.6391,26.085 94.3071,23.633 93.6441,21.433 C92.9801,19.232 92.0261,17.351 90.7811,15.786 C89.5351,14.223 87.9981,13.016 86.1691,12.167 C84.3401,11.319 82.2841,10.894 80.0051,10.894 C77.6721,10.894 75.6031,11.332 73.8021,12.207 C71.9991,13.082 70.4751,14.302 69.2291,15.865 C67.9831,17.43 67.0281,19.312 66.3661,21.512 C65.7031,23.713 65.3721,26.138 65.3721,28.789 M107.4421,28.789 C107.4421,33.508 106.7391,37.656 105.3351,41.234 C103.9301,44.813 102.0071,47.81 99.5691,50.222 C97.1301,52.635 94.2271,54.45 90.8611,55.669 C87.4931,56.888 83.8751,57.498 80.0051,57.498 C76.2401,57.498 72.6881,56.888 69.3491,55.669 C66.0091,54.45 63.0921,52.635 60.6011,50.222 C58.1071,47.81 56.1461,44.813 54.7161,41.234 C53.2841,37.656 52.5681,33.508 52.5681,28.789 C52.5681,24.07 53.3091,19.921 54.7951,16.343 C56.2781,12.764 58.2801,9.755 60.8001,7.316 C63.3161,4.878 66.2331,3.049 69.5481,1.829 C72.8601,0.609 76.3471,-7.10542736e-15 80.0051,-7.10542736e-15 C83.7691,-7.10542736e-15 87.3221,0.609 90.6621,1.829 C94.0021,3.049 96.9171,4.878 99.4101,7.316 C101.9011,9.755 103.8631,12.764 105.2951,16.343 C106.7261,19.921 107.4421,24.07 107.4421,28.789" id="Fill-3"></path>
                        <polygon id="Fill-5" points="154.6016 45.7285 154.6016 56.3845 117.7806 56.3845 117.7806 1.2715 130.1866 1.2715 130.1866 45.7285"></polygon>
                    </g>
                </g>
            </g>
        </g>
    </g>
</svg>