<?xml version="1.0" encoding="UTF-8"?>
<svg width="396px" height="146px" viewBox="0 0 396 146" version="1.1" xmlns="http://www.w3.org/2000/svg" xmlns:xlink="http://www.w3.org/1999/xlink">
    <title>logo</title>
    <defs>
        <polygon id="path-1" points="0.242 0.173 77.724 0.173 77.724 8.819 0.242 8.819"></polygon>
    </defs>
    <g id="Page-1" stroke="none" stroke-width="1" fill="none" fill-rule="evenodd">
        <g id="metapick.io" transform="translate(-743.000000, -2526.000000)">
            <g id="4" transform="translate(0.000000, 2160.000000)">
                <g id="Con" transform="translate(659.000000, 366.000000)">
                    <g id="logo" transform="translate(84.000000, 0.000000)">
                        <g id="Group-22" transform="translate(0.000000, 59.000000)">
                            <path d="M28.5708,37.8127 C28.5708,37.8127 36.6348,31.0787 37.3418,29.9147 L65.1918,45.7517 L69.5978,38.3947 L40.9998,24.3867 C40.9998,24.3867 42.7868,17.9847 42.9528,13.3707 L43.1468,4.8497 L42.8288,4.8497 L34.9308,4.8497 C34.9308,4.8497 35.8868,18.8577 30.8568,24.6357 C30.8568,24.6357 24.6218,32.6587 20.2988,34.4037 C20.2988,34.4037 10.9048,39.5587 8.3278,39.2257 L12.1098,46.2097 C12.1098,46.2097 23.7488,42.3017 28.5708,37.8127" id="Fill-1" fill="#FFFFFF"></path>
                            <polygon id="Fill-3" fill="#FFFFFF" points="0.0554 69.9444 77.8704 69.8334 77.8704 63.9034 0.0004 63.8474"></polygon>
                            <path d="M92.0584,14.8535 L111.7894,14.8535 L111.9004,50.8785 L92.0584,50.8785 L92.0584,14.8535 Z M84.0774,57.6955 L119.8814,57.8625 L119.8814,8.9785 L84.0774,8.8125 L84.0774,57.6955 Z" id="Fill-5" fill="#FFFFFF"></path>
                            <polygon id="Fill-7" fill="#FFFFFF" points="142.8818 1.9398 136.1758 1.9398 136.0098 82.5808 143.2148 82.5808 143.2148 37.6328 156.7928 37.6328 156.7928 30.9268 142.8818 30.8708"></polygon>
                            <polygon id="Fill-9" fill="#FFFFFF" points="222.9133 41.8447 179.9043 41.8447 179.9043 30.8157 218.9233 30.8157 218.9233 24.9407 180.0153 24.9407 180.0153 13.7447 221.9153 13.8007 221.9153 7.8697 172.0903 7.8697 172.0903 48.8837 222.9133 48.8837"></polygon>
                            <polygon id="Fill-11" fill="#FFFFFF" points="157.957 69.8332 235.827 69.8332 235.827 63.7922 157.957 63.7922"></polygon>
                            <path d="M268.1078,25.6973 C268.1078,21.5253 272.4288,18.1423 277.7578,18.1423 C283.0878,18.1423 287.4088,21.5253 287.4088,25.6973 C287.4088,29.8703 283.0878,33.2523 277.7578,33.2523 C272.4288,33.2523 268.1078,29.8703 268.1078,25.6973 L268.1078,25.6973 Z M283.8238,41.1153 C292.7598,39.1993 299.2918,33.1583 299.2918,25.9913 C299.2918,22.5293 297.7518,19.3383 295.1708,16.7383 L305.9378,16.7383 L305.9378,7.9253 L283.7688,7.9253 L283.7688,0.0003 L272.0188,0.0003 L272.1298,7.8143 L249.0178,7.8143 L249.0178,16.7383 L260.3768,16.7383 C257.7958,19.3383 256.2558,22.5293 256.2558,25.9913 C256.2558,33.1343 262.7418,39.1603 271.6308,41.0983 L271.6308,44.7263 L239.0968,44.9483 L239.0968,54.7033 L316.1908,54.7033 L316.1908,44.9483 L283.8238,44.9483 L283.8238,41.1153 Z" id="Fill-13" fill="#FFFFFF"></path>
                            <path d="M264.204,77.8702 L291.029,77.8702 L291.029,69.9442 L264.204,69.9442 L264.204,77.8702 Z M252.066,86.7932 L302.779,86.7932 L302.779,60.9662 L251.955,61.2432 L252.066,86.7932 Z" id="Fill-15" fill="#FFFFFF"></path>
                            <polygon id="Fill-17" fill="#FFFFFF" points="383.0319 40.7917 344.1249 40.7917 344.1249 32.0347 379.7069 32.0347 379.7069 23.9427 344.0139 23.9427 344.0139 15.7407 382.8099 15.7407 382.8099 6.8727 331.1559 6.8727 331.1559 49.6597 383.0319 49.6597"></polygon>
                            <g id="Group-21" transform="translate(318.000000, 60.793200)">
                                <mask id="mask-2" fill="white">
                                    <use xlink:href="#path-1"></use>
                                </mask>
                                <g id="Clip-20"></g>
                                <polygon id="Fill-19" fill="#FFFFFF" mask="url(#mask-2)" points="0.242 8.819 77.724 8.819 77.724 0.173 0.242 0.173"></polygon>
                            </g>
                        </g>
                        <g id="logo_vx" transform="translate(143.000000, 0.000000)" fill="#FFFFFF">
                            <path d="M0,1.28958824 L0,28.5960588 L3.22411765,28.5960588 L3.22411765,0.589588235 L0,1.28958824 Z M4.37529412,18.639 L12.8570588,29.0954706 L15.3452941,27.1507647 L8.16176471,18.4625294 L14.3652941,10.6178235 L11.8411765,8.78194118 L4.37529412,18.639 Z" id="Fill-1"></path>
                            <g id="Group-14" transform="translate(17.647059, 0.511647)">
                                <path d="M6.60870588,25.8078235 C7.074,25.8048824 7.53694118,25.7460588 7.98752941,25.6313529 C8.474,25.5125294 8.95164706,25.3613529 9.41752941,25.179 C9.88694118,24.9937059 10.3375294,24.7637059 10.7622353,24.4907647 C11.1598824,24.2360588 11.534,23.9466471 11.8798824,23.6248824 L11.8798824,19.099 L8.52929412,19.099 C7.22811765,18.9954706 5.92752941,19.3042941 4.81164706,19.9813529 C3.99047059,20.6654706 3.55458824,21.7072353 3.644,22.7725294 C3.42047059,24.2207647 4.41282353,25.5766471 5.86105882,25.8007647 C6.10929412,25.839 6.36164706,25.8419412 6.61047059,25.8095882 M0.554588235,22.8978235 C0.448117647,21.1819412 1.17223529,19.5195882 2.50047059,18.429 C4.16164706,17.2972353 6.15458824,16.7560588 8.15988235,16.8919412 L11.8769412,16.8919412 L11.8769412,15.6548824 C11.8769412,12.6648824 10.5692941,11.1695882 7.95458824,11.1695882 C7.06164706,11.1766471 6.17282353,11.2954706 5.30988235,11.5242941 C4.43752941,11.7413529 3.58694118,12.0366471 2.76752941,12.4066471 L1.82047059,10.1101765 C2.79694118,9.56135294 3.83988235,9.14017647 4.92341176,8.85664706 C5.97929412,8.569 7.06811765,8.42017647 8.16282353,8.41311765 C12.6963529,8.41311765 14.9628235,10.8507647 14.9622354,15.7254706 L14.9622354,28.0966471 L12.5798824,28.0966471 L12.1934118,25.9842941 C11.2710588,26.7413529 10.2363529,27.3495882 9.12635294,27.7872353 C8.14164706,28.1907647 7.08929412,28.4060588 6.02458824,28.4219412 C4.54282353,28.5060588 3.09164706,27.9760588 2.01341176,26.9560588 C0.998705882,25.8619412 0.473411765,24.4025294 0.557529412,22.9125294" id="Fill-2"></path>
                                <path d="M32.5419412,8.27447059 L35.0660588,10.1121176 L28.8637059,17.9568235 L36.0466471,26.6450588 L33.5601765,28.5897647 L25.0801765,18.1332941 L32.5419412,8.27447059 Z M23.9219412,28.0885882 L20.6978235,28.0885882 L20.6978235,0.782705882 L23.9219412,0.0768235294 L23.9219412,28.0885882 Z" id="Fill-4"></path>
                                <path d="M44.9488824,25.8017647 C45.4141765,25.7988235 45.8771176,25.7394118 46.3277059,25.6252941 C46.8141765,25.5064706 47.2918235,25.3552941 47.7577059,25.1729412 C48.2265294,24.9876471 48.6765294,24.7570588 49.1006471,24.4847059 C49.4977059,24.2294118 49.8712353,23.94 50.2171176,23.6188235 L50.2171176,19.0929412 L46.8677059,19.0929412 C45.5671176,18.9894118 44.2671176,19.2982353 43.1518235,19.9752941 C42.3288824,20.6582353 41.8924118,21.7005882 41.983,22.7664706 C41.7588824,24.2147059 42.7512353,25.5705882 44.1994706,25.7947059 C44.4482941,25.8329412 44.7012353,25.8358824 44.9506471,25.8035294 M38.9024118,22.8976471 C38.7959412,21.1823529 39.5194706,19.5205882 40.8471176,18.4288235 C42.5082941,17.2970588 44.5018235,16.7558824 46.5071176,16.8917647 L50.2218235,16.8917647 L50.2218235,15.6547059 C50.2218235,12.6647059 48.9141765,11.1694118 46.2994706,11.1694118 C45.4053529,11.1764706 44.5159412,11.2952941 43.6512353,11.5241176 C42.7800588,11.7405882 41.9300588,12.0358824 41.1124118,12.4064706 L40.1606471,10.1047059 C41.1365294,9.55588235 42.1788824,9.13411765 43.2624118,8.85058824 C44.3188824,8.56294118 45.4088824,8.41352941 46.5041765,8.40705882 C51.0365294,8.40705882 53.3024118,10.8447059 53.3035882,15.7194118 L53.3035882,28.0905882 L50.9200588,28.0905882 L50.5335882,25.9782353 C49.6112353,26.7352941 48.5765294,27.3435294 47.4665294,27.7811765 C46.4818235,28.1841176 45.4306471,28.3994118 44.3665294,28.4158824 C42.8835882,28.5011765 41.4312353,27.9705882 40.3518235,26.95 C39.3382941,25.8558824 38.813,24.3958824 38.8977059,22.9064706" id="Fill-6"></path>
                                <path d="M66.2764118,11.0624706 C64.7434706,10.9883529 63.2799412,11.7089412 62.4040588,12.9695294 C61.3958235,14.6489412 60.9246471,16.5965882 61.0534706,18.5512941 C60.9211176,20.4783529 61.3928824,22.3983529 62.4040588,24.0442353 C64.1434706,26.1924706 67.2958235,26.5236471 69.4440588,24.7842353 C69.7158235,24.5636471 69.9634706,24.316 70.1840588,24.0442353 C71.1928824,22.3977647 71.6640588,20.4777647 71.5322941,18.5512941 C71.6605294,16.5965882 71.1899412,14.6495294 70.1840588,12.9695294 C69.2958235,11.7036471 67.8193529,10.9830588 66.2746471,11.0624706 M66.2793529,8.44952941 C68.657,8.32835294 70.9622941,9.28894118 72.5505294,11.0624706 C74.1981765,13.1971765 75.0093529,15.8607059 74.8305294,18.5512941 C75.007,21.2065882 74.2017059,23.8342353 72.5675882,25.9348235 C69.0852353,29.3712941 63.487,29.3712941 60.0052353,25.9348235 C58.3605294,23.8389412 57.5487647,21.2095294 57.7252353,18.5512941 C57.5458235,15.8577647 58.3622941,13.1924706 60.0199412,11.0624706 C61.607,9.29541176 63.9040588,8.336 66.2764118,8.44952941" id="Fill-8"></path>
                                <polygon id="Fill-10" points="78.3841176 2.35294118 84.2664706 1.17647059 90.1488235 22.3529412 96.6194118 1.17647059 101.913529 2.35294118 93.09 28.2352941 87.2076471 28.2352941"></polygon>
                                <polygon id="Fill-12" points="104.266471 3.52941176 108.972353 1.17647059 114.854706 11.1764706 121.325294 1.17647059 126.031176 3.52941176 118.384118 14.7058824 126.619412 26.4705882 121.913529 28.8235294 114.854706 17.6470588 108.384118 28.8235294 103.678235 26.4705882 111.913529 14.7058824"></polygon>
                            </g>
                        </g>
                    </g>
                </g>
            </g>
        </g>
    </g>
</svg>