<?xml version="1.0" encoding="UTF-8"?>
<svg width="101px" height="22px" viewBox="0 0 101 22" version="1.1" xmlns="http://www.w3.org/2000/svg" xmlns:xlink="http://www.w3.org/1999/xlink">
    <title>스마트홈트_logo</title>
    <defs>
        <polygon id="path-1" points="0.0611954023 0.0437471264 19.6543448 0.0437471264 19.6543448 2.23009195 0.0611954023 2.23009195"></polygon>
    </defs>
    <g id="Page-1" stroke="none" stroke-width="1" fill="none" fill-rule="evenodd">
        <g id="metapick.io" transform="translate(-910.000000, -1034.000000)">
            <g id="Sticky" transform="translate(0.000000, 1010.000000)">
                <g id="2" transform="translate(640.000000, 0.000000)">
                    <g id="스마트홈트_logo" transform="translate(270.000000, 24.000000)">
                        <path d="M7.2248,9.56183218 C7.2248,9.56183218 9.26397241,7.85898161 9.44275402,7.56463678 L16.4852828,11.5693954 L17.5994437,9.7090046 L10.3677655,6.16675172 C10.3677655,6.16675172 10.8196506,4.54785517 10.8616276,3.38109655 L10.9106851,1.22636092 L10.8302713,1.22636092 L8.83307586,1.22636092 C8.83307586,1.22636092 9.07482299,4.76861379 7.80286897,6.22971724 C7.80286897,6.22971724 6.2262023,8.25852184 5.13302989,8.69978621 C5.13302989,8.69978621 2.75753563,10.0033494 2.10588046,9.91914253 L3.06224828,11.6852115 C3.06224828,11.6852115 6.00544368,10.6969816 7.2248,9.56183218" id="Fill-1" fill="#FFFFFF"></path>
                        <polygon id="Fill-3" fill="#FFFFFF" points="0.0140091954 17.6870897 19.6913655 17.6590207 19.6913655 16.1594805 0.000101149425 16.1453195"></polygon>
                        <path d="M23.2791356,3.75605747 L28.2685839,3.75605747 L28.2966529,12.8658276 L23.2791356,12.8658276 L23.2791356,3.75605747 Z M21.2609517,14.5896667 L30.3148368,14.6318966 L30.3148368,2.27042529 L21.2609517,2.22844828 L21.2609517,14.5896667 Z" id="Fill-5" fill="#FFFFFF"></path>
                        <polygon id="Fill-7" fill="#FFFFFF" points="36.1310299 0.490524138 34.4352598 0.490524138 34.3932828 20.8825011 36.2152368 20.8825011 36.2152368 9.51634023 39.648754 9.51634023 39.648754 7.82057011 36.1310299 7.8064092"></polygon>
                        <polygon id="Fill-9" fill="#FFFFFF" points="56.3688805 10.5814184 45.4930414 10.5814184 45.4930414 7.79247586 55.3599149 7.79247586 55.3599149 6.30684368 45.5211103 6.30684368 45.5211103 3.47567126 56.1165126 3.48983218 56.1165126 1.99003908 43.5170874 1.99003908 43.5170874 12.3613954 56.3688805 12.3613954"></polygon>
                        <polygon id="Fill-11" fill="#FFFFFF" points="39.9431494 17.6589701 59.6344138 17.6589701 59.6344138 16.1313609 39.9431494 16.1313609"></polygon>
                        <path d="M67.7973747,6.49816782 C67.7973747,5.44317931 68.8900414,4.58770805 70.2376046,4.58770805 C71.5854207,4.58770805 72.6780874,5.44317931 72.6780874,6.49816782 C72.6780874,7.5534092 71.5854207,8.40862759 70.2376046,8.40862759 C68.8900414,8.40862759 67.7973747,7.5534092 67.7973747,6.49816782 L67.7973747,6.49816782 Z M71.7715356,10.3969724 C74.0312138,9.91246667 75.6829839,8.38485747 75.6829839,6.57251264 C75.6829839,5.69706437 75.2935586,4.89014483 74.640892,4.23267356 L77.3635816,4.23267356 L77.3635816,2.00409885 L71.7576276,2.00409885 L71.7576276,7.5862069e-05 L68.7863632,7.5862069e-05 L68.8144322,1.97602989 L62.9700184,1.97602989 L62.9700184,4.23267356 L65.8424092,4.23267356 C65.1897425,4.89014483 64.8003172,5.69706437 64.8003172,6.57251264 C64.8003172,8.37878851 66.4404552,9.9026046 68.6882483,10.3926736 L68.6882483,11.3100989 L60.4612598,11.3662368 L60.4612598,13.8330184 L79.9562943,13.8330184 L79.9562943,11.3662368 L71.7715356,11.3662368 L71.7715356,10.3969724 Z" id="Fill-13" fill="#FFFFFF"></path>
                        <path d="M66.8102069,19.6913149 L73.5935402,19.6913149 L73.5935402,17.6870391 L66.8102069,17.6870391 L66.8102069,19.6913149 Z M63.7408276,21.9477057 L76.5648046,21.9477057 L76.5648046,15.4167402 L63.7127586,15.4867862 L63.7408276,21.9477057 Z" id="Fill-15" fill="#FFFFFF"></path>
                        <polygon id="Fill-17" fill="#FFFFFF" points="96.8586414 10.3151425 87.0200897 10.3151425 87.0200897 8.10072874 96.0178368 8.10072874 96.0178368 6.05447586 86.9920207 6.05447586 86.9920207 3.9804069 96.8025034 3.9804069 96.8025034 1.73792414 83.7405724 1.73792414 83.7405724 12.5576253 96.8586414 12.5576253"></polygon>
                        <g id="Group-21" transform="translate(80.413793, 15.372993)">
                            <mask id="mask-2" fill="white">
                                <use xlink:href="#path-1"></use>
                            </mask>
                            <g id="Clip-20"></g>
                            <polygon id="Fill-19" fill="#FFFFFF" mask="url(#mask-2)" points="0.0611954023 2.23009195 19.6543448 2.23009195 19.6543448 0.0437471264 0.0611954023 0.0437471264"></polygon>
                        </g>
                    </g>
                </g>
            </g>
        </g>
    </g>
</svg>