<?xml version="1.0" encoding="UTF-8"?> <svg xmlns="http://www.w3.org/2000/svg" width="43.276" height="19.526" fill="#fff" viewBox="0 0 43.276 19.526"><path d="M866.8,539.831c5.782-1.6,9.331.008,11.674,5.233,1.975,4.4,4.83,8.413,7.328,12.651-6.238,1.812-7.554,1.345-10.535-3.643C872.492,549.427,869.736,544.77,866.8,539.831Z" transform="translate(-866.801 -539.159)"></path><path d="M901.046,558.007c-5.758,1.546-9.233.062-11.547-5.045-2.044-4.512-4.983-8.619-7.573-12.983,7.325-1.538,7.565-1.431,11.06,4.475C895.6,548.867,898.226,553.268,901.046,558.007Z" transform="translate(-869.264 -539.144)"></path><path d="M906.421,554.976c-1.991-3.369-3.76-6.031-5.189-8.865-1.779-3.529-.054-6.356,3.869-6.7.552-.048,1.109-.018,1.664-.018,2.63,0,5.259,0,8.805,0Z" transform="translate(-872.294 -539.183)"></path></svg> 