<?xml version="1.0" encoding="utf-8"?>
<!-- Generator: Adobe Illustrator 26.1.0, SVG Export Plug-In . SVG Version: 6.00 Build 0)  -->
<svg version="1.1" id="Layer_1" xmlns="http://www.w3.org/2000/svg" xmlns:xlink="http://www.w3.org/1999/xlink" x="0px" y="0px"
	 viewBox="0 0 150.8 26" style="enable-background:new 0 0 150.8 26;" xml:space="preserve">
<style type="text/css">
	.st0{opacity:0.6;}
	.st1{fill:#1A1A1A;}
	.st2{fill:#484848;}
	.st3{fill:#767676;}
</style>
<g id="a">
</g>
<g id="b" class="st0">
	<g id="c">
		<g id="d">
			<g id="e">
				<g>
					<g>
						<path class="st1" d="M71.2,20.4h-2.8l7.4-15.3l7.4,15.3h-2.8L79.2,18h-6.8L71.2,20.4L71.2,20.4z M73.6,15.5h4.3l-2.2-4.4
							L73.6,15.5C73.6,15.5,73.6,15.5,73.6,15.5z"/>
						<path class="st1" d="M35.2,12.5c0.5-0.7,0.9-1.6,0.9-2.6c0-2.4-1.9-4.3-4.3-4.3h-7v14.9h7.7c2.4,0,4.4-2,4.4-4.4
							C36.9,14.6,36.3,13.3,35.2,12.5z M31.7,8.3L31.7,8.3c0.9,0,1.6,0.7,1.6,1.6s-0.7,1.6-1.6,1.6h-4.2V8.2
							C27.5,8.3,31.7,8.3,31.7,8.3z M32.5,17.8h-4.9v-3.5h4.9c1,0,1.8,0.8,1.8,1.8S33.5,17.8,32.5,17.8z"/>
						<path class="st1" d="M46,5.5c-4.1,0-7.5,3.3-7.5,7.5s3.3,7.5,7.5,7.5s7.5-3.3,7.5-7.5S50.1,5.5,46,5.5z M46,17.7
							c-2.6,0-4.7-2.1-4.7-4.7s2.1-4.7,4.7-4.7s4.7,2.1,4.7,4.7C50.6,15.6,48.5,17.7,46,17.7z"/>
						<path class="st1" d="M63.9,15.2c1.8-0.7,3.1-2.5,3.1-4.6c0-2.7-2.2-5-5-5h-6.5v14.9h2.7v-4.9h2.5l3.5,4.9h3.3L63.9,15.2z
							 M62,12.8h-3.8V8.3H62c1.2,0,2.3,1,2.3,2.3C64.3,11.8,63.3,12.8,62,12.8C62,12.8,62,12.8,62,12.8z"/>
					</g>
					<g>
						<polygon class="st2" points="12.4,22.4 12.4,22.4 12.4,15.3 18.6,11.7 18.6,18.9 						"/>
						<polygon class="st2" points="0,3.6 0,22.4 6.2,18.9 6.2,0 						"/>
						<polygon class="st3" points="12.4,22.4 6.2,18.9 0,22.4 6.2,26 						"/>
						<polygon class="st3" points="18.6,11.7 12.4,8.1 6.2,11.7 12.4,15.3 						"/>
					</g>
					<g>
						<path class="st1" d="M98.1,11.2V11c-0.2-2.3-2.1-4.3-5.2-4.3c-3.3,0-5.9,2.4-5.9,6.4s2.6,6.4,5.9,6.4s5-2.1,5.2-4.1v-0.3h1.3
							v0.1c0,2.3-2,5.4-6.5,5.4c-4,0-7.2-2.9-7.2-7.6s3.2-7.6,7.2-7.6c4.3,0,6.5,3.1,6.5,5.6v0.2H98.1z"/>
						<path class="st1" d="M128.4,17.1h-8.5l-1.6,3.3h-1.4l7-14.7h0.6l7,14.7H130L128.4,17.1L128.4,17.1z M120.4,15.8h7.4l-2.7-5.8
							c-0.5-1-0.9-2.4-0.9-2.4h-0.1c0,0-0.5,1.4-0.9,2.4L120.4,15.8z"/>
						<path class="st1" d="M149.6,5.7v12.5h-0.1c0,0-1.2-1.4-2-2.4l-9.2-10.1h-0.9v14.7h1.3V7.9l0,0c0.1,0.1,1.2,1.4,1.9,2.3
							l9.3,10.2h0.9V5.7H149.6z"/>
						<rect x="132.9" y="5.7" class="st1" width="1.3" height="14.7"/>
						<polygon class="st1" points="114.1,5.7 114.1,12.9 103.2,12.9 103.2,5.7 101.9,5.7 101.9,20.4 103.2,20.4 103.2,14.1 
							114.1,14.1 114.1,20.4 115.4,20.4 115.4,5.7 						"/>
					</g>
				</g>
			</g>
		</g>
	</g>
</g>
</svg>
