<?xml version="1.0" encoding="UTF-8"?><svg xmlns="http://www.w3.org/2000/svg" viewBox="0 0 208.8 36"><defs><style>.h{fill:#1a1a1a;}.i{fill:#484848;}.j{fill:#767676;}.k{opacity:.6;}</style></defs><g id="a"/><g id="b"><g id="c"><g id="d" class="k"><g id="e"><g id="f"><g id="g"><g><g><path class="h" d="M98.58,28.25h-3.88l10.25-21.18,10.25,21.18h-3.88l-1.66-3.32h-9.42l-1.66,3.32h0Zm3.32-6.78h5.95l-3.05-6.09-2.91,6.09h0Z"/><path class="h" d="M48.74,17.31c.69-.97,1.25-2.22,1.25-3.6,0-3.32-2.63-5.95-5.95-5.95h-9.69V28.38h10.66c3.32,0,6.09-2.77,6.09-6.09,0-2.08-.83-3.88-2.35-4.98Zm-4.85-5.82h0c1.25,0,2.22,.97,2.22,2.22s-.97,2.22-2.22,2.22h-5.82v-4.57c0,.14,5.82,.14,5.82,.14Zm1.11,13.15h-6.78v-4.85h6.78c1.38,0,2.49,1.11,2.49,2.49s-1.11,2.35-2.49,2.35Z"/><path class="h" d="M63.69,7.62c-5.68,0-10.38,4.57-10.38,10.38s4.57,10.38,10.38,10.38,10.38-4.57,10.38-10.38-4.71-10.38-10.38-10.38Zm0,16.89c-3.6,0-6.51-2.91-6.51-6.51s2.91-6.51,6.51-6.51,6.51,2.91,6.51,6.51c-.14,3.6-3.05,6.51-6.51,6.51Z"/><path class="h" d="M88.48,21.05c2.49-.97,4.29-3.46,4.29-6.37,0-3.74-3.05-6.92-6.92-6.92h-9V28.38h3.74v-6.78h3.46l4.85,6.78h4.57l-4.98-7.34Zm-2.63-3.32h-5.26v-6.23h5.26c1.66,0,3.18,1.38,3.18,3.18,0,1.66-1.38,3.05-3.18,3.05h0Z"/></g><g><polygon class="i" points="17.17 31.02 17.17 31.02 17.17 21.18 25.75 16.2 25.75 26.17 17.17 31.02"/><polygon class="i" points="0 4.98 0 31.02 8.58 26.17 8.58 0 0 4.98"/><polygon class="j" points="17.17 31.02 8.58 26.17 0 31.02 8.58 36 17.17 31.02"/><polygon class="j" points="25.75 16.2 17.17 11.22 8.58 16.2 17.17 21.18 25.75 16.2"/></g><g><path class="h" d="M135.83,15.51v-.28c-.28-3.18-2.91-5.95-7.2-5.95-4.57,0-8.17,3.32-8.17,8.86s3.6,8.86,8.17,8.86,6.92-2.91,7.2-5.68v-.42h1.8v.14c0,3.18-2.77,7.48-9,7.48-5.54,0-9.97-4.02-9.97-10.52s4.43-10.52,9.97-10.52c5.95,0,9,4.29,9,7.75v.28h-1.8Z"/><path class="h" d="M177.78,23.68h-11.77l-2.22,4.57h-1.94l9.69-20.35h.83l9.69,20.35h-2.08l-2.22-4.57h0Zm-11.08-1.8h10.25l-3.74-8.03c-.69-1.38-1.25-3.32-1.25-3.32h-.14s-.69,1.94-1.25,3.32l-3.88,8.03Z"/><path class="h" d="M207.14,7.89V25.2h-.14s-1.66-1.94-2.77-3.32l-12.74-13.98h-1.25V28.25h1.8V10.94h0c.14,.14,1.66,1.94,2.63,3.18l12.88,14.12h1.25V7.89h-1.66Z"/><rect class="h" x="184.02" y="7.89" width="1.8" height="20.35"/><polygon class="h" points="157.98 7.89 157.98 17.86 142.89 17.86 142.89 7.89 141.09 7.89 141.09 28.25 142.89 28.25 142.89 19.52 157.98 19.52 157.98 28.25 159.78 28.25 159.78 7.89 157.98 7.89"/></g></g></g></g></g></g></g></g></svg>