<?xml version="1.0" encoding="UTF-8"?>
<svg width="166px" height="26px" viewBox="0 0 166 26" version="1.1" xmlns="http://www.w3.org/2000/svg" xmlns:xlink="http://www.w3.org/1999/xlink">
    <title>logo_mono</title>
    <g id="Page-1" stroke="none" stroke-width="1" fill="none" fill-rule="evenodd">
        <g id="logo_mono" fill-rule="nonzero">
            <g id="d" opacity="0.6">
                <g id="Path">
                    <polygon fill="#484848" points="12.4463755 22.4033333 12.4463755 22.4033333 12.4463755 15.2966667 18.6659389 11.7 18.6659389 18.9005556"></polygon>
                    <polygon fill="#484848" points="0 3.59666667 0 22.4033333 6.21956332 18.9005556 6.21956332 0"></polygon>
                    <polygon fill="#767676" points="12.4463755 22.4033333 6.21956332 18.9005556 0 22.4033333 6.21956332 26"></polygon>
                    <polygon fill="#767676" points="18.6659389 11.7 12.4463755 8.10333333 6.21956332 11.7 12.4463755 15.2966667"></polygon>
                </g>
            </g>
            <path d="M93.0486875,5.6671875 L87.2448621,5.6671875 L87.2448621,20.3775 L88.5409415,20.3775 L88.5409415,16.0875 L93.0486875,16.0875 C96.2155224,16.0875 98.5957428,14.1496875 98.5957428,10.8915625 C98.5957428,7.6334375 96.2359005,5.67125 93.0486875,5.67125 L93.0486875,5.6671875 Z M93.0242333,14.860625 L88.5409415,14.860625 L88.5409415,6.8940625 L93.0242333,6.8940625 C95.5430281,6.8940625 97.2996633,8.3890625 97.2996633,10.8915625 C97.2996633,13.3940625 95.5185739,14.8646875 93.0242333,14.8646875 L93.0242333,14.860625 Z" id="Shape" fill="#767676"></path>
            <g id="Shape" transform="translate(24.841514, 5.094375)" fill="#767676">
                <path d="M46.6343883,15.348125 L43.8262172,15.348125 L51.2114218,0 L58.5966265,15.348125 L55.7884554,15.348125 L54.6064966,12.959375 L47.8000442,12.959375 L46.638464,15.348125 L46.6343883,15.348125 Z M49.0309116,10.359375 L53.3226448,10.359375 L51.1543617,5.971875 L49.0309116,10.359375 Z"></path>
                <path d="M10.4786761,7.41 C11.0166712,6.686875 11.3345774,5.7971875 11.3345774,4.8303125 C11.3345774,2.4334375 9.38638316,0.4915625 6.98170837,0.4915625 L0,0.4915625 L0,15.348125 L7.7601709,15.348125 C10.21783,15.348125 12.2067814,13.365625 12.2067814,10.9159375 C12.2067814,9.49 11.5302119,8.2184375 10.4786761,7.41 L10.4786761,7.41 Z M6.98170837,3.185 L6.98170837,3.185 C7.89466968,3.185 8.63237499,3.9203125 8.63237499,4.8303125 C8.63237499,5.7403125 7.89466968,6.475625 6.98170837,6.475625 C6.88796681,6.475625 2.80001964,6.475625 2.80001964,6.475625 L2.7918682,3.185 L6.98170837,3.185 Z M7.7601709,12.6709375 L2.80001964,12.6709375 L2.80001964,9.1690625 L7.7601709,9.1690625 C8.73019226,9.1690625 9.51680624,9.953125 9.51680624,10.92 C9.51680624,11.886875 8.73019226,12.6709375 7.7601709,12.6709375 L7.7601709,12.6709375 Z"></path>
                <path d="M21.2752584,0.4428125 C17.1302512,0.4428125 13.7718579,3.7903125 13.7718579,7.921875 C13.7718579,12.0534375 17.1302512,15.4009375 21.2752584,15.4009375 C25.4202657,15.4009375 28.7786589,12.0534375 28.7786589,7.921875 C28.7786589,3.7903125 25.4202657,0.4428125 21.2752584,0.4428125 Z M21.2752584,12.5815625 C18.6912519,12.5815625 16.6004076,10.4934375 16.6004076,7.921875 C16.6004076,5.3503125 18.6953277,3.2621875 21.2752584,3.2621875 C23.8551892,3.2621875 25.9501093,5.3503125 25.9501093,7.921875 C25.9501093,10.4934375 23.8551892,12.5815625 21.2752584,12.5815625 Z"></path>
                <path d="M39.2614108,10.05875 C41.0832577,9.319375 42.3671094,7.54 42.3671094,5.4559375 C42.3671094,2.71375 40.1376906,0.4915625 37.3865796,0.4915625 L30.9143362,0.4915625 L30.9143362,15.348125 L33.6124629,15.348125 L33.6124629,10.4040625 L36.1557121,10.4040625 L39.6323013,15.348125 L42.9010288,15.348125 L39.2614108,10.05875 L39.2614108,10.05875 Z M37.3865796,7.7146875 L33.6124629,7.7146875 L33.6124629,3.20125 L37.3865796,3.20125 C38.6378256,3.20125 39.6526799,4.2128125 39.6526799,5.46 C39.6526799,6.7071875 38.6378256,7.71875 37.3865796,7.71875 L37.3865796,7.7146875 Z"></path>
            </g>
            <path d="M114.861941,13.0203125 C114.861941,17.753125 111.532078,20.62125 107.4156,20.62125 C103.299124,20.62125 99.9692601,17.753125 99.9692601,13.0203125 C99.9692601,8.2875 103.319502,5.419375 107.4156,5.419375 C111.511699,5.419375 114.861941,8.2875 114.861941,13.0203125 Z M101.269415,13.0203125 C101.269415,16.9446875 104.044981,19.394375 107.419676,19.394375 C110.794372,19.394375 113.569938,16.9446875 113.569938,13.0203125 C113.569938,9.0959375 110.818827,6.64625 107.419676,6.64625 C104.020526,6.64625 101.269415,9.0715625 101.269415,13.0203125 Z" id="Shape" fill="#767676"></path>
            <path d="M151.796116,17.0665625 L143.220801,17.0665625 L141.643497,20.3775 L140.225147,20.3775 L147.243537,5.6671875 L147.797835,5.6671875 L154.816224,20.3775 L153.377495,20.3775 L151.796116,17.0665625 L151.796116,17.0665625 Z M143.795478,15.8396875 L151.217364,15.8396875 L148.490707,10.0790625 C148.030151,9.1 147.565519,7.726875 147.565519,7.726875 L147.471777,7.726875 C147.471777,7.726875 147.011221,9.1 146.546588,10.0790625 L143.795478,15.8396875 Z" id="Shape" fill="#767676"></path>
            <path d="M125.78487,15.9128125 C125.324315,15.299375 124.928969,14.860625 124.928969,14.860625 L124.928969,14.811875 C127.565961,14.2715625 128.882418,12.6790625 128.882418,10.375625 C128.882418,7.483125 126.685605,5.6671875 123.380196,5.6671875 L117.299222,5.6671875 L117.299222,20.3775 L118.595301,20.3775 L118.595301,14.958125 L123.473937,14.958125 L127.5089,20.3775 L129.106583,20.3775 L125.78487,15.916875 L125.78487,15.9128125 Z M123.310909,13.73125 L118.595301,13.73125 L118.595301,6.8940625 L123.335363,6.8940625 C125.854158,6.8940625 127.590415,8.1696875 127.590415,10.375625 C127.590415,12.5815625 126.066095,13.7353125 123.314985,13.7353125 L123.310909,13.73125 Z" id="Shape" fill="#767676"></path>
            <polygon id="Path" fill="#767676" points="142.84991 5.6671875 129.34705 5.6671875 129.34705 6.8940625 135.452478 6.8940625 135.452478 20.3775 136.748557 20.3775 136.748557 6.8940625 142.84991 6.8940625"></polygon>
            <polygon id="Path" fill="#767676" points="157.632547 19.150625 157.632547 5.6671875 156.336468 5.6671875 156.336468 20.3775 166 20.3775 166 19.150625"></polygon>
        </g>
    </g>
</svg>