<?xml version="1.0" encoding="UTF-8"?>
<svg width="229px" height="36px" viewBox="0 0 229 36" version="1.1" xmlns="http://www.w3.org/2000/svg" xmlns:xlink="http://www.w3.org/1999/xlink">
    <title>logo_black</title>
    <defs>
        <linearGradient x1="41.6863028%" y1="25.0094733%" x2="58.3136972%" y2="74.9905267%" id="linearGradient-1">
            <stop stop-color="#FF00FF" offset="0%"></stop>
            <stop stop-color="#9D00FF" offset="100%"></stop>
        </linearGradient>
        <linearGradient x1="55.0221686%" y1="81.5217391%" x2="44.9778314%" y2="18.4782609%" id="linearGradient-2">
            <stop stop-color="#00FFBE" offset="0%"></stop>
            <stop stop-color="#603CF7" offset="100%"></stop>
        </linearGradient>
        <linearGradient x1="62.5%" y1="62.514349%" x2="37.5%" y2="37.485651%" id="linearGradient-3">
            <stop stop-color="#00FFBE" offset="0%"></stop>
            <stop stop-color="#508CFF" offset="100%"></stop>
        </linearGradient>
        <linearGradient x1="37.5123072%" y1="37.4774355%" x2="62.520512%" y2="62.5225645%" id="linearGradient-4">
            <stop stop-color="#FF00FF" offset="0%"></stop>
            <stop stop-color="#9D00FF" offset="100%"></stop>
        </linearGradient>
    </defs>
    <g id="Page-1" stroke="none" stroke-width="1" fill="none" fill-rule="evenodd">
        <g id="logo_black" transform="translate(-0.000000, 0.000000)" fill-rule="nonzero">
            <path d="M128.362346,7.846875 L120.355864,7.846875 L120.355864,28.215 L122.143829,28.215 L122.143829,22.275 L128.362346,22.275 C132.731052,22.275 136.014609,19.591875 136.014609,15.080625 C136.014609,10.569375 132.759164,7.8525 128.362346,7.8525 L128.362346,7.846875 Z M128.328611,20.57625 L122.143829,20.57625 L122.143829,9.545625 L128.328611,9.545625 C131.803334,9.545625 134.226644,11.615625 134.226644,15.080625 C134.226644,18.545625 131.769599,20.581875 128.328611,20.581875 L128.328611,20.57625 Z" id="Shape" fill="#1A1A1A"></path>
            <g id="Group">
                <g transform="translate(34.269317, 7.053750)" fill="#1A1A1A" id="Shape">
                    <path d="M64.3329814,21.25125 L60.4590587,21.25125 L70.6470819,0 L80.8351052,21.25125 L76.9611824,21.25125 L75.3306489,17.94375 L65.9410248,17.94375 L64.3386039,21.25125 L64.3329814,21.25125 Z M67.6390287,14.34375 L73.5595522,14.34375 L70.5683665,8.26875 L67.6390287,14.34375 Z"></path>
                    <path d="M14.4555231,10.26 C15.197697,9.25875 15.6362543,8.026875 15.6362543,6.688125 C15.6362543,3.369375 12.9486852,0.680625 9.63139287,0.680625 L0,0.680625 L0,21.25125 L10.705296,21.25125 C14.0956812,21.25125 16.8394756,18.50625 16.8394756,15.114375 C16.8394756,13.14 15.9061357,11.379375 14.4555231,10.26 L14.4555231,10.26 Z M9.63139287,4.41 L9.63139287,4.41 C10.8908395,4.41 11.9085173,5.428125 11.9085173,6.688125 C11.9085173,7.948125 10.8908395,8.96625 9.63139287,8.96625 C9.50207469,8.96625 3.8626777,8.96625 3.8626777,8.96625 L3.85143264,4.41 L9.63139287,4.41 Z M10.705296,17.544375 L3.8626777,17.544375 L3.8626777,12.695625 L10.705296,12.695625 C12.043458,12.695625 13.1286062,13.78125 13.1286062,15.12 C13.1286062,16.45875 12.043458,17.544375 10.705296,17.544375 L10.705296,17.544375 Z"></path>
                    <path d="M29.3496035,0.613125 C23.6314911,0.613125 18.9985268,5.248125 18.9985268,10.96875 C18.9985268,16.689375 23.6314911,21.324375 29.3496035,21.324375 C35.0677159,21.324375 39.7006801,16.689375 39.7006801,10.96875 C39.7006801,5.248125 35.0677159,0.613125 29.3496035,0.613125 Z M29.3496035,17.420625 C25.7849198,17.420625 22.9005623,14.529375 22.9005623,10.96875 C22.9005623,7.408125 25.7905424,4.516875 29.3496035,4.516875 C32.9086646,4.516875 35.7986447,7.408125 35.7986447,10.96875 C35.7986447,14.529375 32.9086646,17.420625 29.3496035,17.420625 Z"></path>
                    <path d="M54.1618257,13.9275 C56.6750964,12.90375 58.4461931,10.44 58.4461931,7.554375 C58.4461931,3.7575 55.3706695,0.680625 51.5754622,0.680625 L42.6468855,0.680625 L42.6468855,21.25125 L46.369,21.25125 L46.369,14.405625 L49.8774583,14.405625 L54.6734759,21.25125 L59.1827445,21.25125 L54.1618257,13.9275 L54.1618257,13.9275 Z M51.5754622,10.681875 L46.369,10.681875 L46.369,4.4325 L51.5754622,4.4325 C53.3015787,4.4325 54.7015885,5.833125 54.7015885,7.56 C54.7015885,9.286875 53.3015787,10.6875 51.5754622,10.6875 L51.5754622,10.681875 Z"></path>
                </g>
                <g id="Path">
                    <polygon fill="url(#linearGradient-1)" points="17.1374696 31.05 17.1374696 31.05 17.1374696 21.155625 25.7005819 16.205625 25.7005819 26.1"></polygon>
                    <polygon fill="url(#linearGradient-2)" points="0 4.95 0 31.05 8.56873481 26.1 8.56873481 0"></polygon>
                    <polygon fill="url(#linearGradient-3)" points="17.1374696 31.05 8.56873481 26.1 0 31.05 8.56873481 36"></polygon>
                    <polygon fill="url(#linearGradient-4)" points="25.7005819 16.205625 17.1374696 11.255625 8.56873481 16.205625 17.1374696 21.155625"></polygon>
                </g>
            </g>
            <path d="M158.454124,18.028125 C158.454124,24.58125 153.860517,28.5525 148.181762,28.5525 C142.503008,28.5525 137.909401,24.58125 137.909401,18.028125 C137.909401,11.475 142.53112,7.50375 148.181762,7.50375 C153.832404,7.50375 158.454124,11.475 158.454124,18.028125 Z M139.702988,18.028125 C139.702988,23.461875 143.531931,26.85375 148.187385,26.85375 C152.842839,26.85375 156.671782,23.461875 156.671782,18.028125 C156.671782,12.594375 152.876574,9.2025 148.187385,9.2025 C143.498195,9.2025 139.702988,12.560625 139.702988,18.028125 Z" id="Shape" fill="#1A1A1A"></path>
            <path d="M209.405485,23.630625 L197.575683,23.630625 L195.399764,28.215 L193.443124,28.215 L203.12512,7.846875 L203.889784,7.846875 L213.571779,28.215 L211.587026,28.215 L209.405485,23.630625 L209.405485,23.630625 Z M198.36846,21.931875 L208.607086,21.931875 L204.845614,13.955625 C204.210268,12.6 203.5693,10.69875 203.5693,10.69875 L203.439981,10.69875 C203.439981,10.69875 202.804636,12.6 202.163667,13.955625 L198.36846,21.931875 Z" id="Shape" fill="#1A1A1A"></path>
            <path d="M173.522502,22.033125 C172.887157,21.18375 172.341771,20.57625 172.341771,20.57625 L172.341771,20.50875 C175.979548,19.760625 177.795625,17.555625 177.795625,14.36625 C177.795625,10.36125 174.765081,7.846875 170.20521,7.846875 L161.816396,7.846875 L161.816396,28.215 L163.604361,28.215 L163.604361,20.71125 L170.334528,20.71125 L175.900832,28.215 L178.104864,28.215 L173.522502,22.03875 L173.522502,22.033125 Z M170.109627,19.0125 L163.604361,19.0125 L163.604361,9.545625 L170.143362,9.545625 C173.618085,9.545625 176.013283,11.311875 176.013283,14.36625 C176.013283,17.420625 173.910457,19.018125 170.11525,19.018125 L170.109627,19.0125 Z" id="Shape" fill="#1A1A1A"></path>
            <polygon id="Path" fill="#1A1A1A" points="197.064033 7.846875 178.436593 7.846875 178.436593 9.545625 186.859142 9.545625 186.859142 28.215 188.647106 28.215 188.647106 9.545625 197.064033 9.545625"></polygon>
            <polygon id="Path" fill="#1A1A1A" points="217.456947 26.51625 217.456947 7.846875 215.668983 7.846875 215.668983 28.215 229 28.215 229 26.51625"></polygon>
        </g>
    </g>
</svg>