<?xml version="1.0" encoding="UTF-8"?><svg xmlns="http://www.w3.org/2000/svg" xmlns:xlink="http://www.w3.org/1999/xlink" viewBox="0 0 208.9 36"><defs><style>.j{fill:url(#g);}.k{fill:url(#f);}.l{fill:url(#i);}.m{fill:url(#h);}.n{fill:#1a1a1a;}</style><linearGradient id="f" x1="19.29" y1="18.09" x2="23.57" y2="10.67" gradientTransform="translate(0 38) scale(1 -1)" gradientUnits="userSpaceOnUse"><stop offset="0" stop-color="#f0f"/><stop offset="1" stop-color="#9d00ff"/></linearGradient><linearGradient id="g" x1="9.94" y1="12.69" x2="-1.37" y2="32.26" gradientTransform="translate(0 38) scale(1 -1)" gradientUnits="userSpaceOnUse"><stop offset="0" stop-color="#00ffbe"/><stop offset="1" stop-color="#603cf7"/></linearGradient><linearGradient id="h" x1="10.72" y1="3.24" x2="6.43" y2="10.66" gradientTransform="translate(0 38) scale(1 -1)" gradientUnits="userSpaceOnUse"><stop offset="0" stop-color="#00ffbe"/><stop offset="1" stop-color="#508cff"/></linearGradient><linearGradient id="i" x1="15" y1="25.51" x2="19.29" y2="18.08" xlink:href="#f"/></defs><g id="a"/><g id="b"><g id="c"><g id="d"><g id="e"><g><path class="n" d="M135.84,15.54v-.34c-.25-3.22-2.84-6.01-7.18-6.01-4.56,0-8.13,3.36-8.13,8.83s3.57,8.83,8.13,8.83,6.92-2.85,7.18-5.64v-.37h1.82v.2c0,3.16-2.78,7.5-9,7.5-5.55,0-9.92-4.04-9.92-10.52s4.37-10.52,9.92-10.52c5.97,0,9,4.34,9,7.81v.24h-1.82Z"/><path class="n" d="M177.79,23.62h-11.84l-2.19,4.58h-1.95l9.69-20.37h.76l9.69,20.37h-1.99l-2.19-4.58h0Zm-11.04-1.7h10.24l-3.76-7.98c-.64-1.36-1.28-3.26-1.28-3.26h-.13s-.64,1.9-1.28,3.26l-3.8,7.98Z"/><path class="n" d="M207.1,7.84V25.12h-.1s-1.6-1.97-2.81-3.29l-12.73-13.98h-1.22V28.2h1.79V10.92h.06c.13,.17,1.6,1.97,2.68,3.16l12.89,14.12h1.22V7.84h-1.79Z"/><rect class="n" x="184.06" y="7.84" width="1.79" height="20.37"/><polygon class="n" points="157.93 7.84 157.93 17.81 142.87 17.81 142.87 7.84 141.08 7.84 141.08 28.2 142.87 28.2 142.87 19.51 157.93 19.51 157.93 28.2 159.72 28.2 159.72 7.84 157.93 7.84"/></g><g><path class="n" d="M98.65,28.3h-3.88l10.19-21.25,10.19,21.25h-3.88l-1.63-3.31h-9.39l-1.6,3.31h0Zm3.31-6.91h5.92l-2.99-6.07-2.93,6.07h0Z"/><path class="n" d="M48.75,17.31c.74-1,1.18-2.23,1.18-3.57,0-3.32-2.69-6.01-6.01-6.01h-9.64V28.3h10.71c3.39,0,6.14-2.75,6.14-6.14,0-1.97-.93-3.73-2.39-4.85Zm-4.83-5.85h0c1.26,0,2.28,1.02,2.28,2.28s-1.02,2.28-2.28,2.28h-5.77v-4.56h5.77Zm1.07,13.13h-6.85v-4.85h6.85c1.34,0,2.42,1.09,2.42,2.42s-1.09,2.42-2.42,2.42Z"/><path class="n" d="M63.65,7.67c-5.72,0-10.36,4.63-10.36,10.36s4.63,10.36,10.36,10.36,10.36-4.64,10.36-10.36-4.63-10.36-10.36-10.36Zm0,16.81c-3.57,0-6.45-2.89-6.45-6.45s2.89-6.45,6.45-6.45,6.45,2.89,6.45,6.45-2.89,6.45-6.45,6.45Z"/><path class="n" d="M88.47,20.98c2.51-1.02,4.29-3.49,4.29-6.37,0-3.8-3.08-6.87-6.87-6.87h-8.93V28.3h3.72v-6.85h3.51l4.8,6.85h4.51l-5.02-7.32Zm-2.59-3.25h-5.21v-6.25h5.21c1.73,0,3.13,1.4,3.13,3.13s-1.4,3.13-3.13,3.13h0Z"/></g><g><polygon class="k" points="17.14 31.05 17.14 31.05 17.14 21.16 25.71 16.21 25.71 26.1 17.14 31.05"/><polygon class="j" points="0 4.95 0 31.05 8.57 26.1 8.57 0 0 4.95"/><polygon class="m" points="17.14 31.05 8.57 26.1 0 31.05 8.57 36 17.14 31.05"/><polygon class="l" points="25.71 16.21 17.14 11.26 8.57 16.21 17.14 21.16 25.71 16.21"/></g></g></g></g></g></svg>