<?xml version="1.0" encoding="UTF-8"?>
<svg width="18px" height="18px" viewBox="0 0 18 18" version="1.1" xmlns="http://www.w3.org/2000/svg" xmlns:xlink="http://www.w3.org/1999/xlink">
    <title>medal-1</title>
    <g id="Page-1" stroke="none" stroke-width="1" fill="none" fill-rule="evenodd">
        <g id="medal-1" transform="translate(-0.000000, -0.000000)" fill="#FFFFFF">
            <path d="M6.5,5.00000002 C10.0899,5.00000002 13,7.91010003 13,11.5 C13,15.0899001 10.0899,18 6.5,18 C2.91015001,18 -1.77635684e-15,15.0899001 -1.77635684e-15,11.5 C-1.77635684e-15,7.91010003 2.91015001,5.00000002 6.5,5.00000002 Z M11.5,1.22568622e-13 C15.0899001,1.22568622e-13 18.0000001,2.91015001 18.0000001,6.5 C18.0000001,8.63230004 16.9732001,10.5249 15.3871001,11.7101 C15.2241001,11.8319 15.0000001,11.7035 15.0000001,11.5 C15.0000001,6.80558003 11.1944,3 6.50001003,3 C6.29651003,3 6.16807003,2.77590001 6.28988003,2.61288001 C7.47510003,1.02678 9.36770004,1.22568622e-13 11.5,1.22568622e-13 Z" id="Combined-Shape"></path>
        </g>
    </g>
</svg>