<?xml version="1.0" encoding="UTF-8"?>
<svg width="18px" height="18px" viewBox="0 0 18 18" version="1.1" xmlns="http://www.w3.org/2000/svg" xmlns:xlink="http://www.w3.org/1999/xlink">
    <title>user</title>
    <g id="Page-1" stroke="none" stroke-width="1" fill="none" fill-rule="evenodd">
        <g id="user" fill="#FFFFFF">
            <path d="M1.77635684e-15,17.0000001 C1.77635684e-15,16.4477001 0.447720002,16.0000001 1,16.0000001 L17,16.0000001 C17.5523001,16.0000001 18,16.4477001 18,17.0000001 C18,17.5523001 17.5523001,18.0000001 17,18.0000001 L1,18.0000001 C0.447720002,18.0000001 1.77635684e-15,17.5523001 1.77635684e-15,17.0000001 Z M18,9 C18,10.659 17.5511001,12.2132001 16.7682001,13.5477001 C16.5993001,13.8355001 16.2852001,14 15.9515001,14 C13.0153001,14 4.98471002,14 2.04850001,14 C1.71481001,14 1.40070001,13.8355001 1.23184001,13.5477001 C0.448890002,12.2132001 1.77635684e-15,10.659 1.77635684e-15,9 C1.77635684e-15,4.02944002 4.02944002,1.45661261e-13 9,1.45661261e-13 C13.9706001,1.45661261e-13 18,4.02944002 18,9 Z" id="Combined-Shape"></path>
        </g>
    </g>
</svg>