<svg fill="none" height="21" viewBox="0 0 75 21" width="75" xmlns="http://www.w3.org/2000/svg" xmlns:xlink="http://www.w3.org/1999/xlink"><mask id="a" height="21" maskUnits="userSpaceOnUse" width="75" x="0" y="0"><path d="m0 0h75v21h-75z" fill="#c4c4c4"/></mask><g mask="url(#a)"><path d="m26.429.839005v19.469995h4.233v-8.324c0-2.116 1.185-3.75299 3.189-3.75299 1.524 0 2.257.89999 2.257 2.48299v9.594h4.233v-9.9c0-3.61199-2.286-5.39-5.333-5.39-.8329-.02653-1.6604.14342-2.4154.49609-.755.35266-1.4164.87815-1.9306 1.53391v-6.209995zm22.969 19.809995c4.346 0 6.829-2.061 6.829-5.9v-9.4h-4.233v9.538c.0279.3485-.0202.699-.141 1.0271s-.3114.626-.5586.8733c-.2473.2472-.5452.4378-.8733.5586-.3282.1208-.6786.1689-1.0271.141-.3468.0267-.6952-.0226-1.0211-.1443-.3258-.1217-.6212-.3129-.8657-.5604-.2444-.2474-.4319-.5452-.5496-.8725-.1176-.3273-.1626-.6764-.1316-1.0228v-9.538h-4.228v9.4c0 3.839 2.483 5.9 6.8 5.9zm9.228-19.809995v19.469995h3.894v-2.144c.4965.8126 1.2061 1.4738 2.0517 1.9117.8457.4379 1.7951.6358 2.7453.5723 3.443 0 6.264-2.2 6.264-7.816s-2.822-7.816-6.264-7.816c-.8483-.04336-1.6949.11534-2.4699.46305-.775.3477-1.4564.87447-1.9881 1.53695v-6.179994zm7.421 16.648995c-1.834 0-3.273-1.129-3.273-4.656s1.439-4.656 3.273-4.656c2.088 0 3.22 1.273 3.22 4.656 0 3.417-1.16 4.656-3.22 4.656z" fill="#000"/><g fill="#61cf70"><path d="m6.5 13c3.5899 0 6.5-2.9101 6.5-6.5 0-3.58985-2.9101-6.5-6.5-6.5-3.58985 0-6.5 2.91015-6.5 6.5 0 3.5899 2.91015 6.5 6.5 6.5z" opacity=".811"/><path d="m13.5 13c3.5899 0 6.5-2.9101 6.5-6.5 0-3.58985-2.9101-6.5-6.5-6.5-3.58985 0-6.5 2.91015-6.5 6.5 0 3.5899 2.91015 6.5 6.5 6.5z" opacity=".316"/></g></g></svg>