<svg xmlns="http://www.w3.org/2000/svg" width="18" height="18" viewBox="0 0 18 18">
    <path fill="#757575" fill-rule="evenodd" d="M13.9 5.062c0 .1-.04.196-.11.266L9.942 9.183c-.105.105-.248.165-.397.165H9.26c-.15-.002-.292-.06-.398-.165L5.015 5.328c-.071-.07-.111-.166-.111-.266s.04-.196.11-.267l.533-.532c.07-.07.164-.11.263-.11.098 0 .193.04.262.11L9.402 7.6l3.33-3.337c.07-.071.166-.111.266-.111s.196.04.267.111l.525.532c.07.07.11.167.11.267zm0 4.5c0 .1-.04.196-.11.266l-3.848 3.855c-.105.105-.248.165-.397.165H9.26c-.15-.002-.292-.06-.398-.165L5.015 9.828c-.071-.07-.111-.166-.111-.266s.04-.196.11-.267l.533-.532c.07-.07.164-.11.263-.11.098 0 .193.04.262.11l3.33 3.337 3.33-3.337c.07-.071.166-.111.266-.111s.196.04.267.111l.525.532c.07.07.11.167.11.267z"/>
</svg>
