<svg xmlns="http://www.w3.org/2000/svg" width="14" height="14" viewBox="0 0 14 14">
    <path fill="#E0E0E0" fill-rule="evenodd" d="M7 0C3.134 0 0 3.134 0 7s3.134 7 7 7 7-3.134 7-7c0-1.857-.737-3.637-2.05-4.95C10.637.737 8.857 0 7 0zm2.86 8.721c.09.084.14.202.14.324 0 .123-.05.24-.14.324l-.49.49c-.085.09-.202.141-.325.141-.122 0-.24-.05-.324-.14L7 8.148 5.279 9.86c-.084.09-.202.14-.324.14-.123 0-.24-.05-.324-.14l-.49-.49C4.05 9.284 4 9.167 4 9.044c0-.122.05-.24.14-.324L5.852 7 4.14 5.279C4.05 5.195 4 5.077 4 4.955c0-.123.05-.24.14-.324l.49-.49c.085-.09.202-.141.325-.141.122 0 .24.05.324.14L7 5.852 8.721 4.14c.084-.09.202-.14.324-.14.123 0 .24.05.324.14l.49.49c.09.085.141.202.141.325 0 .122-.05.24-.14.324L8.148 7 9.86 8.721z"/>
</svg>
