<?xml version="1.0" encoding="utf-8"?>
<!-- Generator: Adobe Illustrator 23.1.1, SVG Export Plug-In . SVG Version: 6.00 Build 0)  -->
<svg version="1.1" id="Layer_1" xmlns="http://www.w3.org/2000/svg" xmlns:xlink="http://www.w3.org/1999/xlink" x="0px" y="0px"
	 viewBox="0 0 18 18" style="enable-background:new 0 0 18 18;" xml:space="preserve">
<style type="text/css">
	.st0{fill-rule:evenodd;clip-rule:evenodd;fill:#9E9E9E;}
</style>
<path class="st0" d="M15,3.4v0.8c0,0.2-0.2,0.4-0.4,0.4H3.4C3.2,4.5,3,4.3,3,4.1V3.4C3,3.2,3.2,3,3.4,3h3.4V2.2
	c0-0.4,0.3-0.8,0.8-0.8h3c0.4,0,0.8,0.3,0.8,0.8V3h3.4C14.8,3,15,3.2,15,3.4z M12.2,13.5H5.8L5.2,6H3.8l0.7,9.1
	c0.1,0.8,0.7,1.4,1.5,1.4h6.2c0.8,0,1.4-0.6,1.5-1.4L14.2,6h-1.5L12.2,13.5z"/>
</svg>
