<svg xmlns="http://www.w3.org/2000/svg" width="22" height="22" viewBox="0 0 22 22">
    <path fill="#FFF" fill-rule="evenodd" d="M11 1.833c-5.063 0-9.167 4.104-9.167 9.167S5.937 20.167 11 20.167s9.167-4.104 9.167-9.167c0-2.431-.966-4.763-2.685-6.482C15.762 2.8 13.432 1.833 11 1.833zm0 16.5c-4.05 0-7.333-3.283-7.333-7.333 0-4.05 3.283-7.333 7.333-7.333 4.05 0 7.333 3.283 7.333 7.333 0 1.945-.772 3.81-2.148 5.185-1.375 1.376-3.24 2.148-5.185 2.148zm.458-5.5h-.916c-.253 0-.459.206-.459.459v.916c0 .253.206.459.459.459h.916c.253 0 .459-.206.459-.459v-.916c0-.253-.206-.459-.459-.459zm.165-5.5h-1.246c-.132 0-.258.055-.346.153-.087.099-.128.23-.113.36l.367 2.952c.014.116.113.203.23.202h.97c.117 0 .216-.086.23-.202l.367-2.951c.015-.131-.026-.262-.113-.36-.088-.099-.214-.155-.346-.154z"/>
</svg>
