<svg xmlns="http://www.w3.org/2000/svg" width="18" height="18" viewBox="0 0 18 18">
    <path fill="#757575" fill-rule="evenodd" d="M9 1.5C4.858 1.5 1.5 4.858 1.5 9c0 4.142 3.358 7.5 7.5 7.5 4.142 0 7.5-3.358 7.5-7.5 0-1.99-.79-3.897-2.197-5.303C12.897 2.29 10.99 1.5 9 1.5zM9 15c-3.314 0-6-2.686-6-6s2.686-6 6-6 6 2.686 6 6c0 1.591-.632 3.117-1.757 4.243C12.117 14.368 10.59 15 9 15zm.375-3h-.75c-.207 0-.375.168-.375.375v.75c0 .207.168.375.375.375h.75c.207 0 .375-.168.375-.375v-.75c0-.207-.168-.375-.375-.375zm2.535-5.25c0-1.193-.967-2.16-2.16-2.16h-1.5c-1.193 0-2.16.967-2.16 2.16v.375c0 .207.168.375.375.375h.57c.207 0 .375-.168.375-.375V6.75c0-.223.088-.436.246-.594.158-.158.371-.246.594-.246h1.5c.464 0 .84.376.84.84v.42c0 .362-.228.684-.57.803l-.713.232c-.576.19-.965.728-.967 1.335v.585c0 .207.168.375.375.375h.57c.207 0 .375-.168.375-.375V9.54c.004-.048.042-.086.09-.09l.713-.232c.889-.288 1.493-1.114 1.5-2.048l-.053-.42z"/>
</svg>
