<svg xmlns="http://www.w3.org/2000/svg" width="16" height="16" viewBox="0 0 16 16">
    <path fill="#9E9E9E" fill-rule="evenodd" d="M6.667 3.333v2c0 .737-.597 1.334-1.334 1.334h-2C2.597 6.667 2 6.07 2 5.333v-2C2 2.597 2.597 2 3.333 2h2c.737 0 1.334.597 1.334 1.333zm6-1.333h-2c-.737 0-1.334.597-1.334 1.333v2c0 .737.597 1.334 1.334 1.334h2c.736 0 1.333-.597 1.333-1.334v-2C14 2.597 13.403 2 12.667 2zM5.333 9.333h-2C2.597 9.333 2 9.93 2 10.667v2C2 13.403 2.597 14 3.333 14h2c.737 0 1.334-.597 1.334-1.333v-2c0-.737-.597-1.334-1.334-1.334zm7.334 0h-2c-.737 0-1.334.597-1.334 1.334v2c0 .736.597 1.333 1.334 1.333h2c.736 0 1.333-.597 1.333-1.333v-2c0-.737-.597-1.334-1.333-1.334z"/>
</svg>
