<svg xmlns="http://www.w3.org/2000/svg" width="16" height="16" viewBox="0 0 16 16">
    <g fill="none" fill-rule="evenodd">
        <path d="M0 0H16V16H0z"/>
        <path fill="#9E9E9E" d="M9.2 3.366c.488-.488 1.279-.488 1.767 0l.905.905c.488.488.488 1.28 0 1.768l-5.833 5.833c-.235.234-.553.366-.884.366H3.417c-.23 0-.417-.186-.417-.417v-1.738c0-.331.132-.65.366-.884L9.2 3.366zm1.178.59c-.163-.163-.427-.163-.59 0l-.782.782L10.5 6.232l.783-.783c.162-.162.162-.426 0-.589l-.905-.905zM9.911 6.82L8.417 5.327 3.955 9.79c-.078.078-.122.184-.122.294v1.322h1.322c.11 0 .216-.044.294-.122L9.911 6.82z"/>
    </g>
</svg>
