<svg xmlns="http://www.w3.org/2000/svg" width="24" height="24" viewBox="0 0 24 24">
    <path fill="#9E9E9E" fill-rule="evenodd" d="M20 4H4c-1.105 0-2 .895-2 2v12c0 1.105.895 2 2 2h16c1.105 0 2-.895 2-2V6c0-1.105-.895-2-2-2zm0 12.83c.003.133-.049.262-.143.357-.095.094-.224.146-.357.143-.158.003-.308-.071-.4-.2l-4.45-5.93c-.097-.122-.244-.194-.4-.194-.156 0-.303.072-.4.194L11 14.91c-.095.125-.243.198-.4.2-.147 0-.287-.066-.38-.18l-1.48-1.75c-.096-.116-.24-.182-.39-.18-.151.003-.294.073-.39.19l-3.07 3.94c-.092.122-.237.192-.39.19-.133.003-.262-.049-.357-.143-.094-.095-.146-.224-.143-.357V6h16v10.83zM8 9.5C8 8.672 8.672 8 9.5 8s1.5.672 1.5 1.5-.672 1.5-1.5 1.5S8 10.328 8 9.5z"/>
</svg>
