<svg xmlns="http://www.w3.org/2000/svg" width="16" height="16" viewBox="0 0 16 16">
    <path fill="#9E9E9E" fill-rule="evenodd" d="M11.9 10.96c.063.063.099.148.099.237s-.036.174-.099.236l-.467.467c-.062.063-.147.099-.236.099-.09 0-.174-.036-.237-.099L8 8.94 5.04 11.9c-.063.063-.148.099-.237.099s-.174-.036-.236-.099l-.467-.467c-.063-.062-.099-.147-.099-.236 0-.09.036-.174.099-.237L7.06 8 4.1 5.04c-.063-.063-.099-.148-.099-.237s.036-.174.099-.236l.467-.467c.062-.063.147-.099.236-.099.09 0 .174.036.237.099L8 7.06l2.96-2.96c.063-.063.148-.099.237-.099s.174.036.236.099l.467.467c.063.062.099.147.099.236 0 .09-.036.174-.099.237L8.94 8l2.96 2.96z"/>
</svg>
