<?xml version="1.0" encoding="utf-8"?>
<svg version="1.1" id="Layer_1" xmlns="http://www.w3.org/2000/svg" xmlns:xlink="http://www.w3.org/1999/xlink" x="0px" y="0px"
	 viewBox="0 0 16 16" style="enable-background:new 0 0 16 16;" xml:space="preserve">
<style type="text/css">
	.st0{fill-rule:evenodd;clip-rule:evenodd;fill:#757575;}
</style>
<path class="st0" d="M6.9,1.5c-2.9,0-5.3,2.4-5.3,5.3c0,2.9,2.4,5.3,5.3,5.3c1.5,0,2.8-0.6,3.8-1.6s1.6-2.3,1.6-3.8
	C12.2,3.9,9.8,1.5,6.9,1.5z M0,6.9C0,3.1,3.1,0,6.9,0s6.9,3.1,6.9,6.9c0,1.6-0.6,3.1-1.5,4.3l3.6,3.6c0.3,0.3,0.3,0.8,0,1.1
	c-0.3,0.3-0.8,0.3-1.1,0l-3.6-3.6c-1.2,0.9-2.7,1.5-4.3,1.5C3.1,13.7,0,10.6,0,6.9L0,6.9z"/>
</svg>
