<svg width="56" height="56" viewBox="0 0 56 56" fill="none" xmlns="http://www.w3.org/2000/svg">
<path d="M28 56C43.464 56 56 43.464 56 28C56 12.536 43.464 0 28 0C12.536 0 0 12.536 0 28C0 43.464 12.536 56 28 56Z" fill="#636878"/>
<mask id="mask0_23_56508" style="mask-type:luminance" maskUnits="userSpaceOnUse" x="0" y="0" width="56" height="56">
<path d="M28 56C43.464 56 56 43.464 56 28C56 12.536 43.464 0 28 0C12.536 0 0 12.536 0 28C0 43.464 12.536 56 28 56Z" fill="white"/>
</mask>
<g mask="url(#mask0_23_56508)">
<path d="M46.5 59.75L28 49V28L64 48.75V59.75H46.5Z" fill="#444854"/>
</g>
<path d="M28 7L46.187 17.5V38.5L28 49L9.81299 38.5V17.5L28 7Z" fill="#E2E3E4"/>
<path d="M46.187 17.5V38.5L28 49V28L46.187 17.5Z" fill="#1B1C1C"/>
<path d="M9.81299 17.5L28 28V49L9.81299 38.5V17.5Z" fill="#81838A"/>
</svg>
