<svg width="56" height="56" viewBox="0 0 56 56" fill="none" xmlns="http://www.w3.org/2000/svg">
<path d="M28 56C43.464 56 56 43.464 56 28C56 12.536 43.464 0 28 0C12.536 0 0 12.536 0 28C0 43.464 12.536 56 28 56Z" fill="#636878"/>
<mask id="mask0_23_56519" style="mask-type:luminance" maskUnits="userSpaceOnUse" x="0" y="0" width="56" height="56">
<path d="M28 56C43.464 56 56 43.464 56 28C56 12.536 43.464 0 28 0C12.536 0 0 12.536 0 28C0 43.464 12.536 56 28 56Z" fill="white"/>
</mask>
<g mask="url(#mask0_23_56519)">
<path d="M28 42L49 63L28 84L7 63L28 42Z" fill="#444854"/>
</g>
<path fill-rule="evenodd" clip-rule="evenodd" d="M30.431 15.878L30.463 15.846C32.0137 14.2964 34.1163 13.426 36.3085 13.426C38.5007 13.426 40.6033 14.2964 42.154 15.846C43.7035 17.3967 44.574 19.4993 44.574 21.6915C44.574 23.8837 43.7035 25.9862 42.154 27.537L39.733 30.022L28 18.311L30.431 15.878Z" fill="#1B1C1C"/>
<path fill-rule="evenodd" clip-rule="evenodd" d="M25.5692 15.878L25.5372 15.846C23.9865 14.2964 21.884 13.426 19.6917 13.426C17.4995 13.426 15.397 14.2964 13.8462 15.846C12.2967 17.3967 11.4263 19.4993 11.4263 21.6915C11.4263 23.8837 12.2967 25.9862 13.8462 27.537L16.3112 30.022L28.0432 18.311L25.5692 15.878Z" fill="#81838A"/>
<path d="M16.311 30.002L28.002 18.311L39.734 30.043L28.043 41.734L16.311 30.002Z" fill="#E2E3E4"/>
</svg>
