<svg width="56" height="56" viewBox="0 0 56 56" fill="none" xmlns="http://www.w3.org/2000/svg">
<path d="M28 56C43.464 56 56 43.464 56 28C56 12.536 43.464 0 28 0C12.536 0 0 12.536 0 28C0 43.464 12.536 56 28 56Z" fill="#636878"/>
<mask id="mask0_23_56483" style="mask-type:luminance" maskUnits="userSpaceOnUse" x="0" y="0" width="56" height="56">
<path d="M28 56C43.464 56 56 43.464 56 28C56 12.536 43.464 0 28 0C12.536 0 0 12.536 0 28C0 43.464 12.536 56 28 56Z" fill="white"/>
</mask>
<g mask="url(#mask0_23_56483)">
<path d="M0 0H28V56H0V0Z" fill="#444854"/>
</g>
<path fill-rule="evenodd" clip-rule="evenodd" d="M28 46C37.941 46 46 37.941 46 28C46 18.059 37.941 10 28 10C18.059 10 10 18.059 10 28C10 37.941 18.059 46 28 46ZM28 35C29.8565 35 31.637 34.2625 32.9497 32.9497C34.2625 31.637 35 29.8565 35 28C35 26.1435 34.2625 24.363 32.9497 23.0503C31.637 21.7375 29.8565 21 28 21C26.1435 21 24.363 21.7375 23.0503 23.0503C21.7375 24.363 21 26.1435 21 28C21 29.8565 21.7375 31.637 23.0503 32.9497C24.363 34.2625 26.1435 35 28 35Z" fill="#E2E3E4"/>
<mask id="mask1_23_56483" style="mask-type:luminance" maskUnits="userSpaceOnUse" x="10" y="10" width="36" height="36">
<path d="M28 46C37.941 46 46 37.941 46 28C46 18.059 37.941 10 28 10C18.059 10 10 18.059 10 28C10 37.941 18.059 46 28 46ZM28 35C28.9193 35 29.8295 34.8189 30.6788 34.4672C31.5281 34.1154 32.2997 33.5998 32.9497 32.9497C33.5998 32.2997 34.1154 31.5281 34.4672 30.6788C34.8189 29.8295 35 28.9193 35 28C35 27.0807 34.8189 26.1705 34.4672 25.3212C34.1154 24.4719 33.5998 23.7003 32.9497 23.0503C32.2997 22.4002 31.5281 21.8846 30.6788 21.5328C29.8295 21.1811 28.9193 21 28 21C27.0807 21 26.1705 21.1811 25.3212 21.5328C24.4719 21.8846 23.7003 22.4002 23.0503 23.0503C22.4002 23.7003 21.8846 24.4719 21.5328 25.3212C21.1811 26.1705 21 27.0807 21 28C21 28.9193 21.1811 29.8295 21.5328 30.6788C21.8846 31.5281 22.4002 32.2997 23.0503 32.9497C23.7003 33.5998 24.4719 34.1154 25.3212 34.4672C26.1705 34.8189 27.0807 35 28 35Z" fill="white"/>
</mask>
<g mask="url(#mask1_23_56483)">
<path d="M28 28H56V56H28V28Z" fill="#81838A"/>
<path d="M28 0H56V28H28V0Z" fill="#444854"/>
<path d="M0 0H28V28H0V0Z" fill="#81838A"/>
</g>
<path fill-rule="evenodd" clip-rule="evenodd" d="M49 28C49 16.402 39.598 7 28 7V28H49Z" fill="#1B1C1C"/>
<path fill-rule="evenodd" clip-rule="evenodd" d="M35 28C35 29.8565 34.2625 31.637 32.9497 32.9497C31.637 34.2625 29.8565 35 28 35C26.1435 35 24.363 34.2625 23.0503 32.9497C21.7375 31.637 21 29.8565 21 28C21 26.1435 21.7375 24.363 23.0503 23.0503C24.363 21.7375 26.1435 21 28 21C29.8565 21 31.637 21.7375 32.9497 23.0503C34.2625 24.363 35 26.1435 35 28Z" fill="#636878"/>
</svg>
