<svg width="56" height="56" viewBox="0 0 56 56" fill="none" xmlns="http://www.w3.org/2000/svg">
<path d="M56 28C56 12.536 43.464 0 28 0C12.536 0 0 12.536 0 28C0 43.464 12.536 56 28 56C43.464 56 56 43.464 56 28Z" fill="#636878"/>
<mask id="mask0_23_56412" style="mask-type:luminance" maskUnits="userSpaceOnUse" x="0" y="0" width="56" height="56">
<path d="M56 28C56 12.536 43.464 0 28 0C12.536 0 0 12.536 0 28C0 43.464 12.536 56 28 56C43.464 56 56 43.464 56 28Z" fill="white"/>
</mask>
<g mask="url(#mask0_23_56412)">
<path d="M0 0H28V56H0V0Z" fill="#444854"/>
</g>
<mask id="mask1_23_56412" style="mask-type:luminance" maskUnits="userSpaceOnUse" x="0" y="0" width="56" height="56">
<path d="M56 28C56 12.536 43.464 0 28 0C12.536 0 0 12.536 0 28C0 43.464 12.536 56 28 56C43.464 56 56 43.464 56 28Z" fill="white"/>
</mask>
<g mask="url(#mask1_23_56412)">
<path d="M15 44C14.2044 44 13.4413 43.6839 12.8787 43.1213C12.3161 42.5587 12 41.7956 12 41V15C12 14.2044 12.3161 13.4413 12.8787 12.8787C13.4413 12.3161 14.2044 12 15 12H41C41.7956 12 42.5587 12.3161 43.1213 12.8787C43.6839 13.4413 44 14.2044 44 15V41C44 41.7956 43.6839 42.5587 43.1213 43.1213C42.5587 43.6839 41.7956 44 41 44H15Z" fill="#E2E3E4"/>
</g>
<mask id="mask2_23_56412" style="mask-type:luminance" maskUnits="userSpaceOnUse" x="0" y="0" width="56" height="56">
<path d="M56 28C56 12.536 43.464 0 28 0C12.536 0 0 12.536 0 28C0 43.464 12.536 56 28 56C43.464 56 56 43.464 56 28Z" fill="white"/>
</mask>
<g mask="url(#mask2_23_56412)">
<path d="M21 29C20.2044 29 19.4413 28.6839 18.8787 28.1213C18.3161 27.5587 18 26.7956 18 26V22C18 21.2044 18.3161 20.4413 18.8787 19.8787C19.4413 19.3161 20.2044 19 21 19H35C35.7956 19 36.5587 19.3161 37.1213 19.8787C37.6839 20.4413 38 21.2044 38 22V26C38 26.7956 37.6839 27.5587 37.1213 28.1213C36.5587 28.6839 35.7956 29 35 29H21Z" fill="#444854"/>
</g>
<mask id="mask3_23_56412" style="mask-type:luminance" maskUnits="userSpaceOnUse" x="0" y="0" width="56" height="56">
<path d="M56 28C56 12.536 43.464 0 28 0C12.536 0 0 12.536 0 28C0 43.464 12.536 56 28 56C43.464 56 56 43.464 56 28Z" fill="white"/>
</mask>
<g mask="url(#mask3_23_56412)">
<path d="M20 37C19.4696 37 18.9609 36.7893 18.5858 36.4142C18.2107 36.0391 18 35.5304 18 35C18 34.4696 18.2107 33.9609 18.5858 33.5858C18.9609 33.2107 19.4696 33 20 33H36C36.5304 33 37.0391 33.2107 37.4142 33.5858C37.7893 33.9609 38 34.4696 38 35C38 35.5304 37.7893 36.0391 37.4142 36.4142C37.0391 36.7893 36.5304 37 36 37H20Z" fill="#81838A"/>
</g>
<mask id="mask4_23_56412" style="mask-type:luminance" maskUnits="userSpaceOnUse" x="0" y="0" width="56" height="56">
<path d="M56 28C56 12.536 43.464 0 28 0C12.536 0 0 12.536 0 28C0 43.464 12.536 56 28 56C43.464 56 56 43.464 56 28Z" fill="white"/>
</mask>
<g mask="url(#mask4_23_56412)">
<path d="M28 6L32 12H24L28 6ZM50 28L44 32V24L50 28ZM28 50L24 44H32L28 50ZM6 28L12 24V32L6 28Z" fill="#1B1C1C"/>
</g>
</svg>
