<svg xmlns="http://www.w3.org/2000/svg" width="78.58" height="24.67" viewBox="0 0 78.58 24.67"><path d="M-48.435,0l3.9-10.5H-42.3L-38.385,0h-2.37l-.81-2.145H-45.45L-46.245,0Zm3.675-4h2.52L-43.5-7.65Zm7.875,4V-10.5h2.235V0Zm8.55,0V-10.5H-26.1v4.17h4.5V-10.5h2.235V0H-21.6V-4.47h-4.5V0ZM-14.52.18A2.654,2.654,0,0,1-16.6-.608a3.575,3.575,0,0,1-.7-2.437v-4.9h1.965v4.635a2.2,2.2,0,0,0,.352,1.357A1.415,1.415,0,0,0-13.8-1.5a1.665,1.665,0,0,0,.967-.255,1.561,1.561,0,0,0,.547-.66,2.192,2.192,0,0,0,.18-.9V-7.95h1.98V0h-1.83V-1.185a2.544,2.544,0,0,1-.907.96A3,3,0,0,1-14.52.18ZM-3.9.18A3.025,3.025,0,0,1-5.535-.225,2.666,2.666,0,0,1-6.48-1.17V0H-8.31V-10.5h1.965v3.645a2.857,2.857,0,0,1,1-.922A2.887,2.887,0,0,1-3.9-8.13a3.184,3.184,0,0,1,2.483.983A4.258,4.258,0,0,1-.525-4.2v.3A5.5,5.5,0,0,1-.937-1.627,2.949,2.949,0,0,1-2.1-.27,3.435,3.435,0,0,1-3.9.18ZM-4.365-1.5a1.673,1.673,0,0,0,1.3-.593A2.663,2.663,0,0,0-2.535-3.9v-.3a2.466,2.466,0,0,0-.5-1.688A1.694,1.694,0,0,0-4.365-6.45a2.315,2.315,0,0,0-1.02.218,1.629,1.629,0,0,0-.7.645A2.1,2.1,0,0,0-6.345-4.5v.9A2.519,2.519,0,0,0-6.1-2.423a1.568,1.568,0,0,0,.7.7A2.284,2.284,0,0,0-4.365-1.5Z" transform="translate(79.105 18)" fill="#fff"></path><path d="M5.72,50.952H0v-5.72a5.72,5.72,0,0,1,9.765-4.045h0A5.72,5.72,0,0,1,5.72,50.952" transform="translate(0 -26.282)" fill="#8777e0" fill-rule="evenodd"></path><path d="M18.473.5H5.787A5.8,5.8,0,0,0,0,6.311v5.945H12.619a5.866,5.866,0,0,0,5.854-5.878Z" transform="translate(0 -0.5)" fill="#8777e0" fill-rule="evenodd"></path></svg>