<svg height="449.29" viewBox="0 0 1159 449.29" width="1159" xmlns="http://www.w3.org/2000/svg" xmlns:xlink="http://www.w3.org/1999/xlink"><clipPath id="a"><path d="m150 6836.645h1159v449.29h-1159z"/></clipPath><g clip-path="url(#a)" transform="translate(-150 -6836.645)"><g fill="none" opacity=".088" stroke="#0f5a64" stroke-miterlimit="10" transform="matrix(-.91354546 -.40673664 .40673664 -.91354546 1457.847 8264.275)"><path d="m901.646 322.876c-166.177 143.318-212.465 398.252-394.916 520.185-69.645 46.544-155.251 70.326-213.705 130.329-61.715 63.356-82.3 160-64.535 246.648s70.169 163.452 135.626 222.943c119.043 108.189 291.884 163.158 446.475 118.682 119.727-34.45 216.425-122.038 300.623-213.857s161.95-191.779 263.773-263.559c131.58-92.756 293.739-131.68 432.231-213.757 42.038-24.917 83.167-55.326 105.974-98.547 22.435-42.508 24.656-92.675 22.226-140.684-3.138-62.024-14.8-127.239-55.4-174.235-42.056-48.684-107.257-69.17-168.939-87.46-85.287-25.283-173.142-46.635-256.713-77.138-49.725-18.157-94.539-46.255-146.052-59.652-143.694-37.374-291.829-1.774-406.668 90.102z"/><path d="m813.759 329.816c-139.072 115.529-175.048 328.112-325.369 428.575-57.38 38.344-127.91 57.936-176.066 107.371-50.852 52.2-67.81 131.827-53.172 203.217s57.812 134.665 111.74 183.677c98.076 89.138 240.481 134.427 367.849 97.781 98.637-28.383 178.3-100.548 247.679-176.2s133.424-158 217.318-217.138c108.407-76.425 242.008-108.488 356.111-176.118 34.635-20.524 68.524-45.579 87.312-81.189 18.485-35.025 20.311-76.354 18.309-115.9-2.582-51.1-12.195-104.837-45.641-143.556-34.654-40.112-88.368-56.99-139.187-72.056-70.268-20.828-142.652-38.419-211.5-63.555-40.972-14.957-77.894-38.106-120.331-49.145-118.389-30.796-241.849-3.192-335.052 74.236z" transform="translate(119.169 94.283)"/><path d="m725.873 336.492c-109.344 90.836-137.632 257.982-255.824 336.965-45.113 30.152-100.567 45.556-138.431 84.422-39.984 41.044-53.314 103.648-41.8 159.777s45.451 105.883 87.855 144.416c77.115 70.083 189.078 105.692 289.217 76.881 77.557-22.317 140.195-79.054 194.741-138.535s104.9-124.23 170.865-170.727c85.235-60.085 190.281-85.3 279.99-138.469 27.237-16.141 53.876-35.838 68.651-63.836 14.534-27.537 15.97-60.037 14.4-91.13-2.035-40.179-9.589-82.425-35.885-112.872-27.247-31.535-69.479-44.8-109.439-56.652-55.245-16.379-112.159-30.209-166.291-49.972-32.222-11.76-61.253-29.96-94.622-38.636-93.081-24.214-190.15-2.51-263.427 58.368z" transform="translate(238.339 188.826)"/><path d="m637.983 343.166c-79.616 66.142-100.216 187.847-186.273 245.36-32.847 21.951-73.225 33.166-100.8 61.468-29.11 29.885-38.819 75.469-30.442 116.342s33.1 77.1 63.974 105.155c56.148 51.028 137.675 76.958 210.591 55.977 56.476-16.25 102.083-57.568 141.796-100.868s76.387-90.455 124.415-124.31c62.062-43.754 138.549-62.11 203.873-100.829 19.83-11.748 39.227-26.091 49.987-46.478 10.578-20.054 11.624-43.716 10.483-66.356-1.483-29.258-6.984-60.018-26.134-82.182-19.835-22.963-50.59-32.629-79.682-41.253-40.226-11.928-81.669-22-121.087-36.385-23.453-8.562-44.591-21.817-68.89-28.136-67.772-17.632-138.454-1.829-191.811 42.495z" transform="translate(357.508 283.37)"/></g></g></svg>