<svg height="741" viewBox="0 0 1440 741" width="1440" xmlns="http://www.w3.org/2000/svg" xmlns:xlink="http://www.w3.org/1999/xlink"><clipPath id="a"><path d="m-34 6192h1440v741h-1440z"/></clipPath><g clip-path="url(#a)" transform="translate(34 -6192)"><g fill="none" opacity=".171" stroke="#fff" stroke-miterlimit="10" transform="translate(-325 5607.858)"><path d="m798.119 306.911c-140.851 121.476-180.084 337.558-334.729 440.908-59.031 39.451-131.59 59.608-181.136 110.467-52.31 53.7-69.758 135.616-54.7 209.058s59.475 138.542 114.956 188.966c100.9 91.7 247.4 138.292 378.431 100.594 101.48-29.2 183.441-103.439 254.807-181.265s137.268-162.551 223.573-223.392c111.526-78.62 248.972-111.611 366.358-181.18 35.631-21.12 70.492-46.894 89.823-83.528 19.016-36.03 20.9-78.551 18.839-119.244-2.659-52.572-12.549-107.847-46.958-147.681-35.647-41.264-90.91-58.628-143.192-74.131-72.289-21.43-146.755-39.528-217.589-65.382-42.147-15.39-80.131-39.205-123.793-50.561-121.794-31.678-247.352-1.499-344.69 76.371z"/><path d="m728.464 316.621c-117.877 97.922-148.37 278.107-275.782 363.259-48.635 32.5-108.416 49.106-149.233 91.007-43.1 44.246-57.476 111.736-45.068 172.246s49 114.142 94.711 155.684c83.129 75.553 203.831 113.94 311.788 82.879 83.6-24.057 151.131-85.224 209.932-149.345s113.09-133.92 184.2-184.045c91.886-64.778 205.125-91.954 301.838-149.277 29.356-17.4 58.08-38.633 74.006-68.815 15.667-29.687 17.215-64.717 15.518-98.241-2.188-43.316-10.336-88.859-38.685-121.677-29.373-34-74.9-48.3-117.974-61.075-59.559-17.654-120.912-32.564-179.27-53.869-34.728-12.678-66.023-32.3-101.992-41.655-100.346-26.097-204.99-2.704-283.989 62.924z" transform="translate(96.17 76.087)"/><path d="m658.81 326.118c-92.68 76.992-116.657 218.665-216.835 285.61-38.238 25.556-85.241 38.613-117.333 71.556-33.89 34.789-45.189 87.852-35.433 135.427s38.524 89.746 74.465 122.407c65.362 59.4 160.262 89.584 245.14 65.165 65.737-18.916 118.829-67.006 165.062-117.422s88.914-105.297 144.824-144.708c72.245-50.928 161.281-72.3 237.318-117.366 23.086-13.681 45.665-30.376 58.189-54.107 12.319-23.34 13.536-50.887 12.2-77.242-1.725-34.055-8.128-69.863-30.416-95.67-23.094-26.729-58.89-37.976-92.76-48.018-46.825-13.883-95.065-25.6-140.948-42.356-27.305-9.966-51.911-25.391-80.191-32.75-78.897-20.522-161.172-2.127-223.282 49.474z" transform="translate(192.34 152.383)"/><path d="m589.152 335.613c-67.482 56.061-84.942 159.218-157.884 207.966-27.841 18.605-62.066 28.111-85.434 52.1-24.674 25.331-32.9 63.968-25.8 98.611s28.055 65.346 54.224 89.129c47.591 43.251 116.693 65.229 178.5 47.446 47.865-13.774 86.522-48.792 120.182-85.5s64.74-76.665 105.448-105.365c52.6-37.086 117.434-52.644 172.8-85.462 16.808-9.957 33.249-22.115 42.369-39.395 8.966-17 9.853-37.053 8.885-56.243-1.257-24.8-5.92-50.871-22.151-69.658-16.812-19.464-42.88-27.656-67.538-34.966-34.1-10.111-69.223-18.646-102.633-30.839-19.879-7.257-37.795-18.492-58.391-23.848a181.56 181.56 0 0 0 -162.577 36.024z" transform="translate(288.51 228.681)"/></g></g></svg>