<?xml version="1.0" encoding="utf-8"?>
<!-- Generator: Adobe Illustrator 27.8.1, SVG Export Plug-In . SVG Version: 6.00 Build 0)  -->
<svg version="1.1" id="Layer_1" xmlns="http://www.w3.org/2000/svg" xmlns:xlink="http://www.w3.org/1999/xlink" x="0px" y="0px"
	 viewBox="0 0 86 20" style="enable-background:new 0 0 86 20;" xml:space="preserve">
<style type="text/css">
	.st0{fill:#556FFF;}
</style>
<path id="_12" class="st0" d="M9.8,11.8L3.2,1.3H0.8v17.4h3.5L4.2,8.9l4.6,7.2v0h2.1L15.4,9v9.7h3.5V1.3h-2.5L9.8,11.8z M31.1,1
	c-5,0-9.1,4-9.1,9c0,5,4,9,9.1,9c5,0,9.1-4,9.1-9C40.1,5,36.1,1,31.1,1z M31.1,15.8c-3.2,0-5.5-2.6-5.5-5.8c0-3.2,2.4-5.8,5.5-5.8
	c3.2,0,5.5,2.6,5.5,5.8C36.6,13.2,34.3,15.8,31.1,15.8z M43.3,18.7h3.5V1.3h-3.5V18.7z M57,1.3h-6.7v17.4H57c5.3,0,9.3-3.8,9.3-8.8
	C66.3,5,62.3,1.3,57,1.3z M57,15.5h-3.2V4.5H57c3.2,0,5.8,2.4,5.8,5.4C62.8,13,60.2,15.5,57,15.5z M77.6,1.3h-3.2l-7.5,17.4h3.7
	l1.4-3.5h8l1.4,3.5h3.7L77.6,1.3z M73.3,12.1L76,5.5l2.7,6.6H73.3z"/>
</svg>
