<svg xmlns="http://www.w3.org/2000/svg" width="339" height="675" viewBox="0 0 339 675"><defs><filter id="laora" width="200%" height="200%" x="-50%" y="-50%"><feGaussianBlur in="SourceGraphic" result="FeGaussianBlur1299Out" stdDeviation="10 10"/></filter><mask id="laorb"><path fill="#fff" d="M1 141.144c0-.571.462-1.034 1.031-1.034h2.584v49.219H2.031c-.57 0-1.031-.464-1.031-1.034z"/></mask><filter id="laorc" width="200%" height="200%" x="-50%" y="-50%"><feGaussianBlur in="SourceGraphic" result="FeGaussianBlur1304Out" stdDeviation="5 5"/></filter><mask id="laord"><path fill="#fff" d="M1 141.144c0-.571.462-1.034 1.031-1.034h2.584v49.219H2.031c-.57 0-1.031-.464-1.031-1.034z"/></mask><filter id="laore" width="200%" height="200%" x="-50%" y="-50%"><feGaussianBlur in="SourceGraphic" result="FeGaussianBlur1315Out" stdDeviation="10 10"/></filter><mask id="laorf"><path fill="#fff" d="M1 202.794c0-.571.462-1.034 1.031-1.034h2.584v49.219H2.031c-.57 0-1.031-.464-1.031-1.034z"/></mask><filter id="laorg" width="200%" height="200%" x="-50%" y="-50%"><feGaussianBlur in="SourceGraphic" result="FeGaussianBlur1320Out" stdDeviation="5 5"/></filter><mask id="laorh"><path fill="#fff" d="M1 202.794c0-.571.462-1.034 1.031-1.034h2.584v49.219H2.031c-.57 0-1.031-.464-1.031-1.034z"/></mask><filter id="laori" width="200%" height="200%" x="-50%" y="-50%"><feGaussianBlur in="SourceGraphic" result="FeGaussianBlur1331Out" stdDeviation="10 10"/></filter><mask id="laorj"><path fill="#fff" d="M1 92.955c0-.571.462-1.035 1.031-1.035h2.584v26.94H2.031c-.57 0-1.031-.461-1.031-1.035z"/></mask><filter id="laork" width="200%" height="200%" x="-50%" y="-50%"><feGaussianBlur in="SourceGraphic" result="FeGaussianBlur1336Out" stdDeviation="5 5"/></filter><mask id="laorl"><path fill="#fff" d="M1 92.955c0-.571.462-1.035 1.031-1.035h2.584v26.94H2.031c-.57 0-1.031-.461-1.031-1.035z"/></mask><filter id="laorm" width="200%" height="200%" x="-50%" y="-50%"><feGaussianBlur in="SourceGraphic" result="FeGaussianBlur1347Out" stdDeviation="10 10"/></filter><mask id="laorn"><path fill="#fff" d="M334.38 155.65h2.325c.713 0 1.29.578 1.29 1.294v77.716c0 .715-.577 1.294-1.29 1.294h-2.325z"/></mask><filter id="laoro" width="200%" height="200%" x="-50%" y="-50%"><feGaussianBlur in="SourceGraphic" result="FeGaussianBlur1352Out" stdDeviation="5 5"/></filter><mask id="laorp"><path fill="#fff" d="M334.38 155.65h2.325c.713 0 1.29.578 1.29 1.294v77.716c0 .715-.577 1.294-1.29 1.294h-2.325z"/></mask><filter id="laorq" width="200%" height="200%" x="-50%" y="-50%"><feGaussianBlur in="SourceGraphic" result="FeGaussianBlur1365Out" stdDeviation="10 10"/></filter><mask id="laorr"><path fill="#fff" d="M3.58 52.81C3.58 24.195 26.704 1 55.23 1h228.535c28.526 0 51.65 23.197 51.65 51.81v569.38c0 28.614-23.124 51.81-51.65 51.81H55.23c-28.525 0-51.65-23.197-51.65-51.81z"/></mask><filter id="laors" width="200%" height="200%" x="-50%" y="-50%"><feGaussianBlur in="SourceGraphic" result="FeGaussianBlur1370Out" stdDeviation="5 5"/></filter><mask id="laort"><path fill="#fff" d="M3.58 52.81C3.58 24.195 26.704 1 55.23 1h228.535c28.526 0 51.65 23.197 51.65 51.81v569.38c0 28.614-23.124 51.81-51.65 51.81H55.23c-28.525 0-51.65-23.197-51.65-51.81z"/></mask><linearGradient id="laoru" x1="9.26" x2="329.74" y1="6.7" y2="668.3" gradientUnits="userSpaceOnUse"><stop offset="0" stop-color="#fff" stop-opacity="0"/><stop offset="1" stop-opacity=".03"/></linearGradient><filter id="laorv" width="200%" height="200%" x="-50%" y="-50%"><feGaussianBlur in="SourceGraphic" result="FeGaussianBlur1385Out" stdDeviation="30 30"/></filter><mask id="laorw"><path fill="#fff" d="M9.26 53.33C9.26 27.577 30.071 6.7 55.742 6.7h227.51c25.67 0 46.48 20.876 46.48 46.63v568.342c0 25.753-20.81 46.63-46.48 46.63H55.741c-25.671 0-46.482-20.876-46.482-46.63z"/></mask><filter id="laorx" width="200%" height="200%" x="-50%" y="-50%"><feGaussianBlur in="SourceGraphic" result="FeGaussianBlur1390Out" stdDeviation="20 20"/></filter><mask id="laory"><path fill="#fff" d="M9.26 53.33C9.26 27.577 30.071 6.7 55.742 6.7h227.51c25.67 0 46.48 20.876 46.48 46.63v568.342c0 25.753-20.81 46.63-46.48 46.63H55.741c-25.671 0-46.482-20.876-46.482-46.63z"/></mask><filter id="laorz" width="200%" height="200%" x="-50%" y="-50%"><feGaussianBlur in="SourceGraphic" result="FeGaussianBlur1422Out" stdDeviation="1.5 1.5"/></filter><mask id="laorA"><path fill="#fff" d="M135.279 32.087a3.104 3.104 0 0 0 3.099-3.108 3.104 3.104 0 0 0-3.1-3.109 3.104 3.104 0 0 0-3.098 3.109 3.104 3.104 0 0 0 3.099 3.108z"/></mask><filter id="laorB" width="200%" height="200%" x="-50%" y="-50%"><feGaussianBlur in="SourceGraphic" result="FeGaussianBlur1432Out" stdDeviation="1.5 1.5"/></filter><mask id="laorC"><path fill="#fff" d="M135.286 31.045a2.07 2.07 0 0 0 2.066-2.073 2.07 2.07 0 0 0-2.066-2.072 2.07 2.07 0 0 0-2.066 2.072 2.07 2.07 0 0 0 2.066 2.073z"/></mask><filter id="laorD" width="200%" height="200%" x="-50%" y="-50%"><feGaussianBlur in="SourceGraphic" result="FeGaussianBlur1442Out" stdDeviation="1.5 1.5"/></filter><mask id="laorE"><path fill="#fff" d="M207.075 34.162c2.852 0 5.165-2.32 5.165-5.181s-2.313-5.181-5.165-5.181c-2.853 0-5.165 2.32-5.165 5.18 0 2.862 2.312 5.182 5.165 5.182z"/></mask><filter id="laorF" width="200%" height="200%" x="-50%" y="-50%"><feGaussianBlur in="SourceGraphic" result="FeGaussianBlur1452Out" stdDeviation="1.5 1.5"/></filter><mask id="laorG"><path fill="#fff" d="M207.072 33.12a4.138 4.138 0 0 0 4.132-4.145c0-2.29-1.85-4.145-4.132-4.145a4.138 4.138 0 0 0-4.132 4.145c0 2.289 1.85 4.144 4.132 4.144z"/></mask><filter id="laorH" width="200%" height="200%" x="-50%" y="-50%"><feGaussianBlur in="SourceGraphic" result="FeGaussianBlur1462Out" stdDeviation="1.5 1.5"/></filter><mask id="laorI"><path fill="#fff" d="M152.326 26.9h34.604a2.07 2.07 0 0 1 2.066 2.072 2.07 2.07 0 0 1-2.066 2.073h-34.604a2.07 2.07 0 0 1-2.066-2.073 2.07 2.07 0 0 1 2.066-2.072"/></mask><filter id="laorJ" width="200%" height="200%" x="-50%" y="-50%"><feGaussianBlur in="SourceGraphic" result="FeGaussianBlur1472Out" stdDeviation="1.5 1.5"/></filter><mask id="laorK"><path fill="#fff" d="M152.323 27.94h34.604c.57 0 1.033.464 1.033 1.036 0 .572-.463 1.036-1.033 1.036h-34.604c-.57 0-1.033-.464-1.033-1.036 0-.572.462-1.036 1.033-1.036z"/></mask></defs><g><g><g><g><path fill="#e1e1e1" d="M1 141.144c0-.571.462-1.034 1.031-1.034h2.584v49.219H2.031c-.57 0-1.031-.464-1.031-1.034z"/><path fill-opacity=".2" d="M-19 211v-92h44v92zm20-21.705c0 .57.462 1.034 1.031 1.034h2.584V141.11H2.031c-.57 0-1.031.463-1.031 1.034z" filter="url(#laora)" mask="url(&quot;#laorb&quot;)"/><path fill="#fff" d="M-9 201v-72h24v72zm10-11.705c0 .57.462 1.034 1.031 1.034h2.584V141.11H2.031c-.57 0-1.031.463-1.031 1.034z" filter="url(#laorc)" mask="url(&quot;#laord&quot;)"/><path fill="none" stroke="#d2d2d2" stroke-miterlimit="20" d="M1 141.144c0-.571.462-1.034 1.031-1.034h2.584v49.219H2.031c-.57 0-1.031-.464-1.031-1.034z"/></g><g><path fill="#e1e1e1" d="M1 202.794c0-.571.462-1.034 1.031-1.034h2.584v49.219H2.031c-.57 0-1.031-.464-1.031-1.034z"/><path fill-opacity=".2" d="M-19 272v-92h44v92zm20-21.055c0 .57.462 1.034 1.031 1.034h2.584V202.76H2.031c-.57 0-1.031.463-1.031 1.034z" filter="url(#laore)" mask="url(&quot;#laorf&quot;)"/><path fill="#fff" d="M-9 262v-72h24v72zm10-11.055c0 .57.462 1.034 1.031 1.034h2.584V202.76H2.031c-.57 0-1.031.463-1.031 1.034z" filter="url(#laorg)" mask="url(&quot;#laorh&quot;)"/><path fill="none" stroke="#d2d2d2" stroke-miterlimit="20" d="M1 202.794c0-.571.462-1.034 1.031-1.034h2.584v49.219H2.031c-.57 0-1.031-.464-1.031-1.034z"/></g><g><path fill="#e1e1e1" d="M1 92.955c0-.571.462-1.035 1.031-1.035h2.584v26.94H2.031c-.57 0-1.031-.461-1.031-1.035z"/><path fill-opacity=".2" d="M-19 140V70h44v70zm20-21.175c0 .574.462 1.036 1.031 1.036h2.584V92.92H2.031c-.57 0-1.031.464-1.031 1.035z" filter="url(#laori)" mask="url(&quot;#laorj&quot;)"/><path fill="#fff" d="M-9 130V80h24v50zm10-11.175c0 .574.462 1.036 1.031 1.036h2.584V92.92H2.031c-.57 0-1.031.464-1.031 1.035z" filter="url(#laork)" mask="url(&quot;#laorl&quot;)"/><path fill="none" stroke="#d2d2d2" stroke-miterlimit="20" d="M1 92.955c0-.571.462-1.035 1.031-1.035h2.584v26.94H2.031c-.57 0-1.031-.461-1.031-1.035z"/></g><g><path fill="#e1e1e1" d="M334.38 155.65h2.325c.713 0 1.29.578 1.29 1.294v77.716c0 .715-.577 1.294-1.29 1.294h-2.325z"/><path fill-opacity=".2" d="M314 257V134h44v123zm20.38-20.046h2.325c.713 0 1.29-.58 1.29-1.294v-77.716a1.29 1.29 0 0 0-1.29-1.294h-2.325z" filter="url(#laorm)" mask="url(&quot;#laorn&quot;)"/><path fill="#fff" d="M324 247V144h24v103zm10.38-10.046h2.325c.713 0 1.29-.58 1.29-1.294v-77.716a1.29 1.29 0 0 0-1.29-1.294h-2.325z" filter="url(#laoro)" mask="url(&quot;#laorp&quot;)"/><path fill="none" stroke="#d2d2d2" stroke-miterlimit="20" d="M334.38 155.65v0h2.325c.713 0 1.29.578 1.29 1.294v77.716c0 .715-.577 1.294-1.29 1.294h-2.325v0z"/></g></g><g><g><path fill="#e1e1e1" d="M3.58 52.81C3.58 24.195 26.704 1 55.23 1h228.535c28.526 0 51.65 23.197 51.65 51.81v569.38c0 28.614-23.124 51.81-51.65 51.81H55.23c-28.525 0-51.65-23.197-51.65-51.81z"/><path fill-opacity=".2" d="M-17 695V-20h373v715zm20.58-71.81c0 28.613 23.125 51.81 51.65 51.81h228.535c28.526 0 51.65-23.196 51.65-51.81V53.81c0-28.613-23.124-51.81-51.65-51.81H55.23C26.704 2 3.58 25.196 3.58 53.81z" filter="url(#laorq)" mask="url(&quot;#laorr&quot;)"/><path fill="#fff" d="M-7 685V-10h353v695zm10.58-61.81c0 28.613 23.125 51.81 51.65 51.81h228.535c28.526 0 51.65-23.196 51.65-51.81V53.81c0-28.613-23.124-51.81-51.65-51.81H55.23C26.704 2 3.58 25.196 3.58 53.81z" filter="url(#laors)" mask="url(&quot;#laort&quot;)"/><path fill="none" stroke="#d2d2d2" stroke-miterlimit="20" d="M3.58 52.81C3.58 24.195 26.704 1 55.23 1h228.535c28.526 0 51.65 23.197 51.65 51.81v569.38c0 28.614-23.124 51.81-51.65 51.81H55.23c-28.525 0-51.65-23.197-51.65-51.81z"/></g><g><path fill="#fff" d="M9.26 53.33C9.26 27.577 30.071 6.7 55.742 6.7h227.51c25.67 0 46.48 20.876 46.48 46.63v568.342c0 25.753-20.81 46.63-46.48 46.63H55.741c-25.671 0-46.482-20.876-46.482-46.63z"/><path fill="url(#laoru)" d="M9.26 53.33C9.26 27.577 30.071 6.7 55.742 6.7h227.51c25.67 0 46.48 20.876 46.48 46.63v568.342c0 25.753-20.81 46.63-46.48 46.63H55.741c-25.671 0-46.482-20.876-46.482-46.63z"/><path fill-opacity=".1" d="M-51 730V-55h441v785zM9.26 622.672c0 25.754 20.81 46.63 46.482 46.63h227.51c25.67 0 46.48-20.877 46.48-46.63V54.33c0-25.754-20.81-46.63-46.48-46.63H55.741C30.07 7.7 9.26 28.577 9.26 54.33z" filter="url(#laorv)" mask="url(&quot;#laorw&quot;)"/><path fill="#fff" d="M-31 719V-44h401v763zm40.26-87.328c0 25.754 20.81 46.63 46.482 46.63h227.51c25.67 0 46.48-20.877 46.48-46.63V63.33c0-25.754-20.81-46.63-46.48-46.63H55.741C30.07 16.7 9.26 37.577 9.26 63.33z" filter="url(#laorx)" mask="url(&quot;#laory&quot;)"/></g><g><path fill="#d6d6d6" d="M329.74 65.76h5.681v5.18h-5.681z"/></g><g><path fill="#d6d6d6" d="M3.58 65.76h5.681v5.18H3.58z"/></g><g><path fill="#d6d6d6" d="M329.74 604.58h5.681v5.18h-5.681z"/></g><g><path fill="#d6d6d6" d="M3.58 604.58h5.681v5.18H3.58z"/></g></g><g><g><path fill="#f0f0f0" d="M135.279 32.087a3.104 3.104 0 0 0 3.099-3.108 3.104 3.104 0 0 0-3.1-3.109 3.104 3.104 0 0 0-3.098 3.109 3.104 3.104 0 0 0 3.099 3.108z"/><path fill-opacity=".05" d="M129 37V21h13v16zm6.279-3.913a3.104 3.104 0 0 0 3.099-3.108 3.104 3.104 0 0 0-3.1-3.109 3.104 3.104 0 0 0-3.098 3.109 3.104 3.104 0 0 0 3.099 3.108z" filter="url(#laorz)" mask="url(&quot;#laorA&quot;)"/></g><g><path fill="#d7d7d7" d="M135.286 31.045a2.07 2.07 0 0 0 2.066-2.073 2.07 2.07 0 0 0-2.066-2.072 2.07 2.07 0 0 0-2.066 2.072 2.07 2.07 0 0 0 2.066 2.073z"/><path fill="#fff" fill-opacity=".36" d="M130 35V22h11v13zm5.286-2.955a2.07 2.07 0 0 0 2.066-2.073 2.07 2.07 0 0 0-2.066-2.072 2.07 2.07 0 0 0-2.066 2.072 2.07 2.07 0 0 0 2.066 2.073z" filter="url(#laorB)" mask="url(&quot;#laorC&quot;)"/></g><g><path fill="#f0f0f0" d="M207.075 34.162c2.852 0 5.165-2.32 5.165-5.181s-2.313-5.181-5.165-5.181c-2.853 0-5.165 2.32-5.165 5.18 0 2.862 2.312 5.182 5.165 5.182z"/><path fill-opacity=".05" d="M198 39V19h18v20zm9.075-3.838c2.852 0 5.165-2.32 5.165-5.181s-2.313-5.181-5.165-5.181c-2.853 0-5.165 2.32-5.165 5.18 0 2.862 2.312 5.182 5.165 5.182z" filter="url(#laorD)" mask="url(&quot;#laorE&quot;)"/></g><g><path fill="#d7d7d7" d="M207.072 33.12a4.138 4.138 0 0 0 4.132-4.145c0-2.29-1.85-4.145-4.132-4.145a4.138 4.138 0 0 0-4.132 4.145c0 2.289 1.85 4.144 4.132 4.144z"/><path fill="#fff" fill-opacity=".36" d="M199 38V20h16v18zm8.072-3.88a4.138 4.138 0 0 0 4.132-4.145c0-2.29-1.85-4.145-4.132-4.145a4.138 4.138 0 0 0-4.132 4.145c0 2.289 1.85 4.144 4.132 4.144z" filter="url(#laorF)" mask="url(&quot;#laorG&quot;)"/></g><g><path fill="#f0f0f0" d="M152.326 26.9h34.604a2.07 2.07 0 0 1 2.066 2.072 2.07 2.07 0 0 1-2.066 2.073h-34.604a2.07 2.07 0 0 1-2.066-2.073 2.07 2.07 0 0 1 2.066-2.072"/><path fill-opacity=".05" d="M147 35V22h45v13zm3.26-5.028a2.07 2.07 0 0 0 2.066 2.073h34.604a2.07 2.07 0 0 0 2.066-2.073 2.07 2.07 0 0 0-2.066-2.072h-34.604z" filter="url(#laorH)" mask="url(&quot;#laorI&quot;)"/></g><g><path fill="#d7d7d7" d="M152.323 27.94h34.604c.57 0 1.033.464 1.033 1.036 0 .572-.463 1.036-1.033 1.036h-34.604c-.57 0-1.033-.464-1.033-1.036 0-.572.462-1.036 1.033-1.036z"/><path fill="#fff" fill-opacity=".36" d="M148 34V23h43v11zm3.29-4.024c0 .572.462 1.036 1.033 1.036h34.604c.57 0 1.033-.464 1.033-1.036 0-.572-.463-1.036-1.033-1.036h-34.604c-.57 0-1.033.464-1.033 1.036z" filter="url(#laorJ)" mask="url(&quot;#laorK&quot;)"/></g></g></g></g></svg>