<svg xmlns="http://www.w3.org/2000/svg" width="86.36" height="11.131" viewBox="0 0 86.36 11.131"><path d="M-42.708-.294A.3.3,0,0,0-42.415,0h1.84a.294.294,0,0,0,.294-.294V-4.36h4.422V-.294A.294.294,0,0,0-35.566,0h1.84a.3.3,0,0,0,.294-.294V-10.528a.3.3,0,0,0-.294-.294h-1.84a.294.294,0,0,0-.294.294v3.9h-4.422v-3.9a.294.294,0,0,0-.294-.294h-1.84a.3.3,0,0,0-.294.294Zm13.5-3.85a4.359,4.359,0,0,0,4.391,4.3,4.376,4.376,0,0,0,4.422-4.3v-6.385a.3.3,0,0,0-.294-.294h-1.9a.294.294,0,0,0-.294.294v6.261a1.908,1.908,0,0,1-1.932,1.948,1.892,1.892,0,0,1-1.9-1.948v-6.261a.294.294,0,0,0-.294-.294h-1.9a.3.3,0,0,0-.294.294Zm13.017,3.85A.294.294,0,0,0-15.9,0h3.834A3.153,3.153,0,0,0-8.7-2.984,2.923,2.923,0,0,0-10.768-5.5,3.075,3.075,0,0,0-8.975-7.946,3.108,3.108,0,0,0-12.3-10.822h-3.6a.294.294,0,0,0-.294.294Zm2.412-6.138V-8.6h1.206a1.05,1.05,0,0,1,1.082,1.051,1.1,1.1,0,0,1-1.082,1.113Zm0,4.221V-4.422h1.252a1.236,1.236,0,0,1,1.268,1.082,1.122,1.122,0,0,1-1.113,1.129ZM-.673-5.4A5.543,5.543,0,0,0,4.909.155a5.306,5.306,0,0,0,3.757-1.5.309.309,0,0,0,.015-.417L7.475-3.046a.306.306,0,0,0-.4-.015A3.269,3.269,0,0,1,5-2.319,3.062,3.062,0,0,1,1.956-5.457a3.08,3.08,0,0,1,3.03-3.185,3.158,3.158,0,0,1,2.087.788.271.271,0,0,0,.386,0L8.665-9.106a.287.287,0,0,0-.015-.433,5.193,5.193,0,0,0-3.741-1.438A5.569,5.569,0,0,0-.673-5.4Zm12.909,5.1A.3.3,0,0,0,12.53,0h1.84a.294.294,0,0,0,.294-.294V-4.36h4.422V-.294A.294.294,0,0,0,19.379,0h1.84a.3.3,0,0,0,.294-.294V-10.528a.3.3,0,0,0-.294-.294h-1.84a.294.294,0,0,0-.294.294v3.9H14.664v-3.9a.294.294,0,0,0-.294-.294H12.53a.3.3,0,0,0-.294.294Zm13.651,0A.294.294,0,0,0,26.182,0h6.4a.294.294,0,0,0,.294-.294V-1.979a.294.294,0,0,0-.294-.294H28.3V-4.36h3.525a.294.294,0,0,0,.294-.294V-6.339a.3.3,0,0,0-.294-.294H28.3V-8.549h4.282a.294.294,0,0,0,.294-.294v-1.685a.294.294,0,0,0-.294-.294h-6.4a.294.294,0,0,0-.294.294Zm10.776,0A.294.294,0,0,0,36.957,0h1.824a.3.3,0,0,0,.294-.294V-4.051H42.6a.3.3,0,0,0,.294-.294V-6.029a.3.3,0,0,0-.294-.294H39.075V-8.549h4.282a.294.294,0,0,0,.294-.294v-1.685a.294.294,0,0,0-.294-.294h-6.4a.294.294,0,0,0-.294.294Z" transform="translate(42.708 10.977)" fill="#fff"></path></svg>