<svg height="40.456" viewBox="0 0 114.29 40.456" width="114.29" xmlns="http://www.w3.org/2000/svg"><g fill="#fff"><path d="m-56.521-.389a.4.4 0 0 0 .389.389h2.432a.388.388 0 0 0 .389-.389v-5.381h5.852v5.381a.388.388 0 0 0 .391.389h2.435a.4.4 0 0 0 .389-.389v-13.544a.4.4 0 0 0 -.389-.389h-2.435a.388.388 0 0 0 -.389.389v5.156h-5.852v-5.156a.388.388 0 0 0 -.389-.389h-2.435a.4.4 0 0 0 -.389.389zm17.862-5.095a5.769 5.769 0 0 0 5.81 5.684 5.791 5.791 0 0 0 5.849-5.683v-8.45a.4.4 0 0 0 -.389-.389h-2.511a.388.388 0 0 0 -.389.389v8.286a2.525 2.525 0 0 1 -2.557 2.578 2.5 2.5 0 0 1 -2.517-2.578v-8.286a.388.388 0 0 0 -.389-.389h-2.518a.4.4 0 0 0 -.389.389zm17.227 5.095a.388.388 0 0 0 .389.389h5.074a4.173 4.173 0 0 0 4.46-3.949c0-1.882-1.657-2.885-2.742-3.335.962-.512 2.373-1.657 2.373-3.233 0-2.148-1.985-3.806-4.4-3.806h-4.767a.388.388 0 0 0 -.389.389zm3.192-8.123v-2.864h1.6a1.389 1.389 0 0 1 1.432 1.391 1.459 1.459 0 0 1 -1.432 1.473zm0 5.586v-2.926h1.657a1.635 1.635 0 0 1 1.678 1.432 1.485 1.485 0 0 1 -1.473 1.494zm17.35-4.215a7.335 7.335 0 0 0 7.39 7.341 7.022 7.022 0 0 0 4.968-1.98.409.409 0 0 0 .02-.552l-1.6-1.7a.4.4 0 0 0 -.532-.02 4.327 4.327 0 0 1 -2.742.982 4.053 4.053 0 0 1 -4.026-4.152 4.077 4.077 0 0 1 4.012-4.215 4.18 4.18 0 0 1 2.76 1.043.358.358 0 0 0 .511 0l1.6-1.657a.38.38 0 0 0 -.02-.573 6.873 6.873 0 0 0 -4.951-1.9 7.37 7.37 0 0 0 -7.39 7.383zm17.084 6.752a.4.4 0 0 0 .389.389h2.435a.388.388 0 0 0 .389-.389v-5.381h5.852v5.381a.388.388 0 0 0 .388.389h2.435a.4.4 0 0 0 .389-.389v-13.544a.4.4 0 0 0 -.389-.389h-2.435a.388.388 0 0 0 -.389.389v5.156h-5.852v-5.156a.388.388 0 0 0 -.389-.389h-2.434a.4.4 0 0 0 -.389.389zm18.066 0a.388.388 0 0 0 .389.389h8.47a.388.388 0 0 0 .389-.389v-2.23a.388.388 0 0 0 -.389-.389h-5.667v-2.762h4.665a.388.388 0 0 0 .389-.389v-2.23a.4.4 0 0 0 -.389-.389h-4.665v-2.537h5.667a.388.388 0 0 0 .389-.389v-2.23a.388.388 0 0 0 -.389-.389h-8.47a.388.388 0 0 0 -.389.389zm14.261 0a.388.388 0 0 0 .389.389h2.414a.4.4 0 0 0 .389-.389v-4.972h4.665a.4.4 0 0 0 .389-.389v-2.23a.4.4 0 0 0 -.389-.389h-4.665v-2.946h5.667a.388.388 0 0 0 .389-.389v-2.23a.388.388 0 0 0 -.389-.389h-8.47a.388.388 0 0 0 -.389.389z" transform="translate(56.521 14.527)"/><path d="m123.632 148.509-1.982-.65.075-.213a73.138 73.138 0 0 1 -7.331 1.935h-.021a.84.84 0 0 0 .123 1.645c4.416.576 9.844-.026 14.885-.993-2.381-.652-4.381-1.276-5.749-1.724z" transform="translate(-77.231 -110.998)"/><path d="m157.87 136.916-.178-.505 10.326-3.768a1.7 1.7 0 0 0 .954-2.324l-.5-1.059a.928.928 0 0 0 -1.2-.464c-2.153.894-8.31 3.422-15.292 6.061 1.986.719 3.97 1.416 5.89 2.059zm8.958-6.521a.636.636 0 1 1 -.491.754.637.637 0 0 1 .49-.749z" transform="translate(-92.437 -103.473)"/><path d="m114.87 132.643 10.326 3.768-.928 2.634c4.595 1.506 19.209 5.926 28.918 4.66a.84.84 0 0 0 .123-1.645h-.021c-10.143-1.953-33.068-11.348-37.675-13.26a.928.928 0 0 0 -1.2.464l-.5 1.059a1.7 1.7 0 0 0 .957 2.32zm.436-1.757a.636.636 0 1 1 .491.754.636.636 0 0 1 -.491-.753z" transform="translate(-77.231 -103.473)"/></g></svg>