<?xml version="1.0" encoding="utf-8" ?>
<svg xmlns="http://www.w3.org/2000/svg" width="59.992" height="19.859" viewBox="0 0 59.992 19.859"><path d="M-16.453-9l3.591.075A24.961,24.961,0,0,1-16.453-10.5Zm5.409-.5V-9l-1.819.075a15.359,15.359,0,0,0,8.878.675A20.071,20.071,0,0,1-11.044-9.5ZM27.29-20.3A2.711,2.711,0,0,0,30-23.006c0-1.5-1.209-2.3-2.709-2.3s-2.709.806-2.709,2.3A2.711,2.711,0,0,0,27.29-20.3ZM24.572-9H30V-19.359H24.572ZM17.662-9H23.09V-27.309L17.662-24.75ZM14.756-20.194c-1.706-1.706-4.725-1.6-4.725-1.6S7-21.9,5.306-20.194s-1.575,3.178-1.575,4.931S3.6-12.047,5.306-10.341s4.725,1.6,4.725,1.6,3.028.1,4.725-1.6,1.575-3.169,1.575-4.922S16.453-18.5,14.756-20.194Zm-3.731,6.741c0,.337-.169,1.172-1,1.172s-1-.834-1-1.172v-3.788a.984.984,0,0,1,1-1.022.978.978,0,0,1,1,1.022ZM1.069-20.194C-.638-21.9-3.656-21.8-3.656-21.8s-3.019-.1-4.725,1.6a5.634,5.634,0,0,0-.5.562,52.006,52.006,0,0,0-9.572-5.728V-27.3l-2.109.994c-5.1-2.072-8.344-1.706-9.122.009,0,0-2.334,3.075,5.794,10.387V-9h5.428v-2.681c-.609-.394-1.219-.816-1.819-1.275-1.387-1.05-2.569-2.025-3.6-2.944v-2.906a45.519,45.519,0,0,0,5.006,4.716l.422.337v-2.794c0-.647.159-1.706,1.012-1.706s.994.647.994,1.406v4.566a25,25,0,0,0,5.409,2.775v-8.8a3.5,3.5,0,0,0-3.806-3.506,4.146,4.146,0,0,0-3.609,2.053v-5.091a78.117,78.117,0,0,1,9.366,5.466c-.956,1.369-.872,2.634-.872,4.1,0,1.753-.131,3.216,1.575,4.922s4.725,1.6,4.725,1.6,3.028.1,4.725-1.6,1.566-3.169,1.566-4.922C2.634-17.025,2.775-18.5,1.069-20.194ZM-23.887-24.75v5.934c-4.566-5.109-3.647-7.125-3.3-7.416,1.266-1.069,3.516-.75,6.038.2Zm21.234,11.3c0,.337-.169,1.172-1,1.172s-1-.834-1-1.172v-3.788a.984.984,0,0,1,1-1.022.978.978,0,0,1,1,1.022Z" transform="translate(29.992 27.725)" fill="#fff"/></svg>