<?xml version="1.0" encoding="utf-8" ?>
<svg xmlns="http://www.w3.org/2000/svg" width="61.247" height="27.172" viewBox="0 0 61.247 27.172"><path d="M61.25-20.078l-8.91.593L49.306-11.6,48-19.2l-2.9.191L47.382-7.733l3.053-.191,4.527-11.044L53.747-8.135l6.192-.392.287-2.5-3.292.211.22-1.924,3.292-.211.306-2.7-3.3.22.191-1.732,3.3-.22ZM40.846-7.321l2.708-.172,1.235-11.494-2.718.182ZM15.5-5.733l12.078-.737.766-1.56,3.771-.239.412,1.493L38.08-7.13l.928-8.8,2.326-.153.287-2.68-7.178.469-.278,2.67,2.134-.134-.852,8.192L32.376-18.145l-2.278.153L24.835-6.776l.2-1.991-3.474.22.182-1.9,3.484-.22.258-2.67L22-13.121l.163-1.713,3.484-.23.258-2.67-6.2.4-.249,2.546c-.364-1.914-2.144-2.393-4.067-2.268l-3.723.239L11.4-13.867a4.687,4.687,0,0,0-4.91-2.756,6.956,6.956,0,0,0-6.46,6.259,4.887,4.887,0,0,0,5.4,5.57,7.124,7.124,0,0,0,5.445-3.426l-.258,2.785,2.7-.163.335-3.579Zm-4.24-6.718L11.006-9.6l-2.584.163A3.716,3.716,0,0,1,5.656-7.628a2.521,2.521,0,0,1-2.747-2.986A3.632,3.632,0,0,1,6.221-13.8a2.392,2.392,0,0,1,2.517,1.512Zm5.369-.737c-.124,1.34-1.4,1.455-2.756,1.541l.258-2.728C15.906-14.489,16.748-14.422,16.633-13.188Zm2.019,6.776-2.115-3.2a4.346,4.346,0,0,0,2.67-2.546Zm12.958-4.307-2.268.144,1.512-3.761ZM15.332-17.858l5.436-.354.6-6.336,3.6,6.058,2.393-.153.383-3.857c.938,2.766,2.794,3.914,5.3,3.751a6.806,6.806,0,0,0,5.7-3.637l-.316,3.015,2.718-.182.383-3.665L43.373-19.7l3.484-.23-2.412-3.713a4.607,4.607,0,0,0,3.062-4.747l1.512,4.115-.459,4.24,2.718-.182.459-4.24,4.173-7.5-2.967.211-2.2,4.374-1.235-4.134-3.082.211.421,1.139a4.276,4.276,0,0,0-3.474-.928l-3.761.258L39.3-27.763a4.991,4.991,0,0,0-5.11-2.9c-3.9.268-5.379,3.254-6.087,4.546l.383-3.943-2.728.182L25.132-23.5l-3.618-6.087-2.584.172L17.983-19.4l-2.938-9.762-2.287.153L7.3-17.341l3.053-.2.775-1.742,3.79-.249ZM41.8-25.715l.278-2.756a4.351,4.351,0,0,1,2.192.191c.268.153.383.488.325,1a1.377,1.377,0,0,1-.727,1.158A5.646,5.646,0,0,1,41.8-25.715ZM31.362-22.394a2.612,2.612,0,0,1-.689-2.23,3.315,3.315,0,0,1,1.235-2.335,3.576,3.576,0,0,1,2.105-.88,2.535,2.535,0,0,1,1.167.239,4.585,4.585,0,0,1,1.062.775l2.986-.2-.115,1.148-6.039.412-.23,2.287,3.273-.22a4.516,4.516,0,0,1-1.445,1.369,3.04,3.04,0,0,1-1.273.392A2.434,2.434,0,0,1,31.362-22.394ZM12.1-21.61l1.483-3.752.794,3.6Z" transform="translate(-0.002 31.955)" fill="#fff"/></svg>