<?xml version="1.0" encoding="utf-8" ?>
<svg xmlns="http://www.w3.org/2000/svg" width="41.529" height="42.875" viewBox="0 0 41.529 42.875"><path d="M24.615-27.3c-4.661.172-16.222,1.483-16.222,11.245,0,10.479,13.236,10.91,17.561,4.134A44.137,44.137,0,0,0,30.29-7.446l5.436-5.359s-3.091-2.421-3.091-5.053V-31.936c0-2.421-2.345-7.876-10.747-7.876C13.465-39.812,9-34.549,9-29.831l7.034.651c1.56-4.737,5.187-4.737,5.187-4.737C25.112-33.927,24.615-31.065,24.615-27.3Zm0,8.307c0,7.656-8.058,6.508-8.058,1.646,0-4.517,4.833-5.426,8.058-5.532ZM37.63-3.35c.746-.957.191-1.5-.526-1.148C19.428,3.876,8.47-3.139,1.455-7.4,1.024-7.685.278-7.34.928-6.6c2.345,2.823,10,9.666,20,9.666S36.893-2.393,37.63-3.35Zm3.809.211c.622-1.531.976-3.637.622-4.125-.479-.622-2.9-.718-4.4-.545-1.512.191-3.809,1.129-3.589,1.675.1.22.306.124,1.34.029,1.053-.105,3.972-.488,4.594.306.632.813-.928,4.642-1.215,5.264s.1.794.622.364A7.977,7.977,0,0,0,41.439-3.139Z" transform="translate(-0.673 39.812)" fill="#fff"/></svg>