<?xml version="1.0" encoding="utf-8" ?>
<svg xmlns="http://www.w3.org/2000/svg" width="61.25" height="8.671" viewBox="0 0 61.25 8.671"><path d="M22.777-14.049H28.4l2.134-2.89H24.911ZM0-15.8v.612H7.828l.45-.612Zm16.547-1.139c-.833,0-.574-.344-.44-.526.268-.364.727-1,1-1.349s.268-.565-.268-.565H11.953L8.02-14.04H17.6a6.788,6.788,0,0,0,5.474-2.9Zm30.386-.66,3.761-5.11H44.741L40.98-17.6Zm-37.812.66H0v.613H8.671Zm10.623-2.546c-.268.364-.718,1-.986,1.359-.134.191-.392.526.44.526h4.364s.7-.957,1.292-1.761c.8-1.091.067-3.35-2.795-3.35H10.776L8.824-20.05H19.485C20.021-20.05,20.011-19.839,19.743-19.485ZM0-14.049H7l.45-.613H0Zm30.912,0H36.53l2.134-2.89H33.046C33.037-16.939,30.912-14.049,30.912-14.049Zm21.246.01H61.25v-.612H52.608Zm2.134-2.9-.45.613H61.25v-.613ZM53-15.188h8.25V-15.8h-7.8ZM37.286-22.71l-2.153,2.928H32.625l2.153-2.928H29.161L25.4-17.6H39.142L42.9-22.71Zm3.206,5.771s-.412.565-.612.833c-.708.957-.086,2.067,2.22,2.067h9.025l2.134-2.9Z" transform="translate(0 22.71)" fill="#fff"/></svg>