<?xml version="1.0" encoding="utf-8" ?>
<svg xmlns="http://www.w3.org/2000/svg" width="42" height="42" viewBox="0 0 42 42"><path d="M36.75-39H5.25A5.253,5.253,0,0,0,0-33.75v31.5A5.253,5.253,0,0,0,5.25,3h31.5A5.253,5.253,0,0,0,42-2.25v-31.5A5.253,5.253,0,0,0,36.75-39ZM26.6-31.3a1.4,1.4,0,0,1,2.8,0v18.7a1.4,1.4,0,0,1-2.8,0Zm-6.994-.7a1.4,1.4,0,0,1,2.8,0v20.3a1.4,1.4,0,0,1-2.8,0Zm-7,.7a1.4,1.4,0,0,1,2.8,0v18.7a1.4,1.4,0,0,1-2.8,0Zm-7,2.8a1.4,1.4,0,0,1,2.8,0v12.591a1.4,1.4,0,0,1-2.8,0ZM35.916-7.144c-6.825,5.906-22.659,6.131-29.822,0A1.4,1.4,0,0,1,7.913-9.272c6.178,5.184,20.259,5.053,26.184,0A1.4,1.4,0,0,1,35.916-7.144Zm.488-8.766a1.4,1.4,0,0,1-2.8,0V-28.5a1.4,1.4,0,0,1,2.8,0Z" transform="translate(0 39)" fill="#fff"/></svg>