<?xml version="1.0" encoding="utf-8" ?>
<svg xmlns="http://www.w3.org/2000/svg" width="61.231" height="16.202" viewBox="0 0 61.231 16.202"><path d="M-26.6-19.992c-2.852,0-4.029,1.015-4.029,3.426,0,2.6,1.034,3.57,3.933,3.57,2.1,0,2.89-.459,3.4-1.952h.1l-.124,1.828h3.665v-7.3a7.043,7.043,0,0,0-.383-2.268c-.651-1.33-2-1.809-5.158-1.809-2.6,0-3.713.287-4.412,1.129-.412.507-.526,1-.555,2.335h3.694c.067-.986.364-1.225,1.445-1.225,1.254,0,1.713.392,1.713,1.474V-18.6h-.077C-23.821-19.724-24.471-19.992-26.6-19.992Zm1.637,4.6c-1.617,0-1.981-.239-1.972-1.235,0-.871.459-1.158,1.713-1.158,1.464,0,1.876.239,1.876,1.11C-23.342-15.676-23.706-15.389-24.959-15.389Zm7.446-9.082V-8.3h3.78v-6.728h.077c.44,1.5,1.282,2.029,3.235,2.029,1.608,0,2.527-.268,3.177-.967.871-.938,1.158-2.192,1.158-5.063,0-2.651-.287-3.78-1.225-4.6a4.38,4.38,0,0,0-3.015-.871c-2.067,0-2.718.364-3.589,2h-.077l.144-1.972Zm7.742,5.809c0,2.306-.364,2.842-1.933,2.842-1.694,0-2.029-.526-2.029-3.206,0-2.268.364-2.747,1.981-2.747C-10.087-21.772-9.771-21.294-9.771-18.662Zm5.541-5.809h-.01V-8.3h3.78v-6.728h.077C.057-13.523.9-13,2.852-13c1.617,0,2.536-.268,3.187-.967C6.91-14.9,7.2-16.155,7.2-19.026c0-2.651-.287-3.78-1.225-4.6A4.38,4.38,0,0,0,2.957-24.5c-2.067,0-2.718.364-3.589,2H-.708l.144-1.972Zm7.742,5.809c0,2.306-.364,2.842-1.933,2.842-1.694,0-2.029-.526-2.029-3.206,0-2.268.364-2.747,1.981-2.747C3.2-21.772,3.512-21.294,3.512-18.662Zm5.149-.364c0,2.823.268,4.048,1.081,4.862.861.861,2.211,1.177,4.843,1.177,2.364,0,3.541-.364,4.24-1.3a4.09,4.09,0,0,0,.651-2.364v-.22H15.887c0,1.043-.383,1.33-1.713,1.33-1.493,0-1.924-.479-1.924-2.1a3.174,3.174,0,0,1,.029-.459h7.206V-19.16c0-4.106-1.235-5.331-5.331-5.331-2.192,0-3.474.306-4.316,1.082C8.977-22.643,8.661-21.457,8.661-19.026Zm7.312-1.11H12.307l.029-.316c.1-1.158.354-1.445,1.732-1.445,1.56,0,1.876.22,1.876,1.4A2.2,2.2,0,0,0,15.973-20.136Zm5.321-4.335h-.01V-13.13H24.95v-6.508a3.188,3.188,0,0,1,.1-1.177,1.271,1.271,0,0,1,1.254-.89c.794,0,.986.383.986,1.857a2.268,2.268,0,0,1-.029.383h3.35c-.019-.412-.019-.746-.019-.89,0-1.876-.144-2.555-.651-3.254A2.649,2.649,0,0,0,27.7-24.5a2.712,2.712,0,0,0-2.842,1.933h-.067l.172-1.9Z" transform="translate(30.625 24.5)" fill="#fff"/></svg>