<?xml version="1.0" encoding="utf-8" ?>
<svg xmlns="http://www.w3.org/2000/svg" width="61.25" height="15.312" viewBox="0 0 61.25 15.312"><path d="M-20.586-9.187h3.359A4.9,4.9,0,0,0-12.786-12.1l5.34-10.671s1-1.732-1-1.732H-11.58c-1,0-1.263.823-1.8,1.732l-3.512,7.13a2.161,2.161,0,0,1-2.019,1.254,2.161,2.161,0,0,1-2.019-1.254l-3.512-7.13c-.536-.9-.8-1.732-1.8-1.732h-3.139c-1.991,0-1,1.732-1,1.732l5.35,10.671A4.915,4.915,0,0,0-20.586-9.187Zm37.8,0h3.369A4.9,4.9,0,0,0,25.026-12.1l5.35-10.671s1-1.732-1-1.732H26.232c-1,0-1.263.823-1.8,1.732l-3.522,7.13a2.161,2.161,0,0,1-2.019,1.254,2.161,2.161,0,0,1-2.019-1.254l-3.512-7.13c-.536-.9-.8-1.732-1.8-1.732H8.422c-1.991,0-1,1.732-1,1.732L12.776-12.1A4.915,4.915,0,0,0,17.217-9.187ZM1.684-24.5H-1.675a4.9,4.9,0,0,0-4.441,2.909l-5.35,10.671s-1,1.732,1,1.732h3.149c1,0,1.263-.833,1.8-1.732l3.512-7.13A2.161,2.161,0,0,1,.009-19.3,2.161,2.161,0,0,1,2.029-18.05l3.512,7.13c.536.9.8,1.732,1.8,1.732h3.139c1.991,0,1-1.732,1-1.732L6.125-21.591A4.915,4.915,0,0,0,1.684-24.5Z" transform="translate(30.625 24.5)" fill="#fff"/></svg>