<svg xmlns="http://www.w3.org/2000/svg" width="418.937" height="724.572" viewBox="0 0 418.937 724.572"><g opacity="0.052"><path d="M287.791,96.535c-.479,1.442-.448,3.411.932,4.043,2.142.979,3.863-2.421,6.2-2.694,2.756-.322,4.479,3.745,7.249,3.566,1.62-.1,2.793-1.752,2.94-3.369a10.4,10.4,0,0,0-1.068-4.7,41.414,41.414,0,0,1,11.273,1.363,57.711,57.711,0,0,0-14.732-7.425,13.508,13.508,0,0,0,1.876,7.007,4.164,4.164,0,0,1,.738,1.709,1.2,1.2,0,0,1-1,1.347,1.414,1.414,0,0,1-.863-.378c-1.735-1.405-2.427-4.254-4.628-4.617-2.626-.432-4.138,3.091-6.652,3.964,1.841-3.076,2.558-5.654.793-8.774-4.07,3.477-10.722,3.944-14.319,8.208l11.994-3.642C289.041,93.568,288.268,95.095,287.791,96.535Z" transform="translate(-132.239 -55.43)" fill="#fff"/><path d="M276.778,92.235c.147-.207.337-.362.5-.552l-1.529.465Z" transform="translate(-132.979 -51.332)" fill="#fff"/><path d="M299.382,101.229a27.681,27.681,0,0,0-6.875-4.867c-.638.457-1.5.064-2.283-.023-2.971-.339-5.055,3.935-8,3.431l.7.837c-.211.671.486,1.345,1.19,1.4a3.888,3.888,0,0,0,1.991-.616c2.512-1.277,5.466-2.165,8.125-1.235C295.947,100.756,297.775,102.08,299.382,101.229Z" transform="translate(-126.904 -46.981)" fill="#fff"/><path d="M285.327,99.489l-.029-.174a1.75,1.75,0,0,0-.3,2.494,3.428,3.428,0,0,0,2.675.752A7.759,7.759,0,0,0,291.1,102a2.656,2.656,0,0,0,1.564-2.838A9.383,9.383,0,0,1,285.327,99.489Z" transform="translate(-124.666 -44.31)" fill="#fff"/><path d="M289.319,81.362A20.7,20.7,0,0,0,274.608,94.52l-.143-1.051q.012,1.971.021,3.938A35.222,35.222,0,0,1,289.319,81.362Z" transform="translate(-134.18 -61.015)" fill="#fff"/><path d="M303.4,86.517c-5.315-2.239-9.98-3.359-14.94-.157A51.34,51.34,0,0,1,312.2,93.582,18.793,18.793,0,0,0,303.4,86.517Z" transform="translate(-121.046 -58.192)" fill="#fff"/><path d="M288.2,181.337a24.011,24.011,0,0,0,4.223,6.115,29.245,29.245,0,0,0,5.276,3.824l17.746,10.941c5.237,3.229,10.992,6.582,17.107,5.913-11.961-5.032-20.442-15.711-30.724-23.63-5.745-4.423-11.753-8.743-17.492-13.058C284.78,174.844,286.6,178.272,288.2,181.337Z" transform="translate(-124.917 26.435)" fill="#fff"/><path d="M315.6,217.553c6.288-6.02,12.924-12.143,16.223-20.2a53.282,53.282,0,0,1-28.854,10.848l1.016-1.1-5.421.362a10.488,10.488,0,0,0,17.579,3.82c-6.985,13.06-20.2,21.8-27.778,34.521Q301.41,231.141,315.6,217.553Z" transform="translate(-121.139 51.57)" fill="#fff"/><path d="M278.6,252.892c5.443,6.625,12.7,12.114,21.1,13.814a112.207,112.207,0,0,1-30.757-54.5,64.111,64.111,0,0,0-13,29.943q.5-1.012.99-2.023l-.217-.7,8.786-8.606C269.311,238.506,273.162,246.267,278.6,252.892Z" transform="translate(-151.554 65.984)" fill="#fff"/><path d="M323.022,204.432l-1.609-.095-.983.806a253.236,253.236,0,0,1-19.615,28.342A111.436,111.436,0,0,0,313.168,223C318.316,217.941,323.247,211.646,323.022,204.432Z" transform="translate(-109.458 58.214)" fill="#fff"/><path d="M322.269,219.261c1.008-1.958,1.469-3.717.3-5.572-5.611,3.134-10.013,14.453-14.346,19.634A32.947,32.947,0,0,0,322.269,219.261Z" transform="translate(-102.511 67.202)" fill="#fff"/><path d="M340.9,260.462a80.116,80.116,0,0,0-3.948,8.974L328.7,292.6c-6.53,18.337-13.075,36.709-21.394,54.308-4.483,9.484-9.488,18.754-13.029,28.627a104.387,104.387,0,0,0-5.442,23.28c10.7-16.345,31.315-23.687,43.158-39.225a129.745,129.745,0,0,1-21.27,4.314,470.841,470.841,0,0,0,30.114-95.045A17.851,17.851,0,0,0,340.9,260.462Z" transform="translate(-120.699 113.529)" fill="#fff"/><path d="M281.726,376.879c-2.979.859-6.206.744-9.088,1.886-4,1.585-6.77,5.425-8.111,9.516s-1.461,8.466-1.566,12.771l-.771,31.244c-.058,2.374-.835,4.8-.357,7.129l18.159-29.633a91.263,91.263,0,0,0,7.762-14.575c3.126-8.1,3.923-17.052,7.848-24.8-.688-8.987.279-18.1,4.082-26.268,6.7-14.393,19.58-25.206,26.22-39.626,3.456-7.5,5.082-15.7,7.346-23.642a149.945,149.945,0,0,1,14.43-34l.663-4.059c-5.264,7.607-9.612,15.806-14.55,23.627-15.917,25.2-37.886,46.354-52.163,72.52-1.87,3.427-3.64,7.072-3.768,10.976-.2,6.024,3.5,11.418,7.228,16.157a8.928,8.928,0,0,1,2.289,4.363C287.7,373.544,284.7,376.021,281.726,376.879Z" transform="translate(-146.178 97.034)" fill="#fff"/><path d="M334.66,258.528c-8.274,6.355-13.346,15.909-18.169,25.158q-5.335,10.237-10.674,20.475c-6.173,11.842-12.385,23.776-16.184,36.58a208.712,208.712,0,0,0-5.227,24.867q-1.7,10.1-3.4,20.2a415.426,415.426,0,0,0,32.515-61.635q-9.5,13.438-19.626,26.412,18.432-45.243,39.75-89.237Z" transform="translate(-128.039 111.527)" fill="#fff"/><path d="M263.574,453.443q31.117-71.63,62.232-143.26a18.411,18.411,0,0,0-8.625,9.088l.558-.68a430.19,430.19,0,0,0-51.079,82.185c-4.188,8.823-8.146,18.089-8.327,27.856C258.176,437.127,260.89,445.382,263.574,453.443Z" transform="translate(-149.321 161.956)" fill="#fff"/><path d="M332.7,368.215c1.82-13.048,3.834-26.216,2.351-39.309a3.116,3.116,0,0,0-1.219-2.572,2.58,2.58,0,0,0-2.213.147,6.576,6.576,0,0,0-3.741,5.809,234.515,234.515,0,0,1-13.492,71c-4.289,12.023-9.567,23.708-13,36s-4.96,25.474-1.609,37.789c.721,2.644.564,6.008,1.374,8.625.578-21.661,11.026-42.34,15.7-63.5,2.014-9.121,3-18.457,5.3-27.509a372.13,372.13,0,0,1,1.638,92.252,298.73,298.73,0,0,0,8.038-69.19C331.8,401.222,330.414,384.591,332.7,368.215Z" transform="translate(-112.19 178.846)" fill="#fff"/><path d="M268,133.034a2.506,2.506,0,0,0-.312,1.458q-.107,12.789-.215,25.582c-.043,5.045.095,10.6,3.45,14.366,1.994,2.239,4.834,3.485,7.466,4.921,9.36,5.113,16.709,13.162,23.873,21.062a31.163,31.163,0,0,0-16.634-24.633c-4.018-2.035-8.668-3.316-11.556-6.772-3.409-4.08-3.353-9.935-3.122-15.246C271.024,152.094,271.1,128.661,268,133.034Z" transform="translate(-140.745 -11.159)" fill="#fff"/><path d="M297.911,155.841l.434-.118a18.547,18.547,0,0,0-11.212,14.422c2.465-.558,3.915-3.008,5.534-4.948,4.5-5.39,11.641-7.635,18.374-9.619A11.85,11.85,0,0,0,297.911,155.841Z" transform="translate(-122.295 9.222)" fill="#fff"/><path d="M292.85,164.641l-.837-.114a9.32,9.32,0,0,0-4.632,9.871,31.669,31.669,0,0,0,8.018-10.065A1.894,1.894,0,0,0,292.85,164.641Z" transform="translate(-122.229 19.109)" fill="#fff"/><path d="M301.479,148.071a99.1,99.1,0,0,1-23.966-3.431c-1,.626-3.024.374-3.479,1.589-.38,1.01.754,1.909,1.741,2.347,11.4,5.059,24.714,1.58,37,3.729,5.619.983,10.957,3.136,16.246,5.276l18.884,7.638a49.78,49.78,0,0,0-32.934-16.888C310.49,147.937,305.98,148.158,301.479,148.071Z" transform="translate(-134.655 0.457)" fill="#fff"/><path d="M276.589,144.27l-1.058.593c.169.047.339.078.508.124A1.1,1.1,0,0,0,276.589,144.27Z" transform="translate(-133.18 0.041)" fill="#fff"/><path d="M621.023,229.494l-32.461-91.911c5.059-2.648,7.908-4.858,7.509-6.159-.405-1.329-4.107-1.5-9.941-.729l-.045-.128v.134a200.178,200.178,0,0,0-27.988,6.454c4.181-9.509,8.644-20.131,8.716-30.754a4.894,4.894,0,0,1,2.644-1.8,12.477,12.477,0,0,1,1.923-.287c1.539-.149,3.285-.318,4.5-1.669a6.65,6.65,0,0,0,1.174-2.127c1.855-4.7,4.161-10.555,3.159-16.37a10.822,10.822,0,0,0-1.506-4.095c-1.8-2.758-4.923-4.042-8.024-5.015a17.721,17.721,0,0,0-7.346-1.077c-4.557.552-6.743,3.454-9.055,6.529-.537.712-1.093,1.455-1.708,2.2-4.154,5.09-5.247,11.691-6.3,18.076-.426,2.577-.866,5.245-1.5,7.744-1.818,7.128-5.46,13.694-8.982,20.044a75.207,75.207,0,0,0-3.537,7.7c-1.771,4.272-3.6,8.689-6.553,12.016-.231.26-.428.55-.653.816-8.263,3.751-13.232,6.983-12.713,8.683.318,1.04,2.673,1.364,6.47,1.091a42.447,42.447,0,0,0-1.6,3.979,25.551,25.551,0,0,0-.926,3.965c-.461,2.619-.826,4.689-2.9,5.955a90.748,90.748,0,0,1-47.858,13.168l-4.167-.041c-3.632-.031-7.375-.065-10.864-.171a83.067,83.067,0,0,0-14.389.828l-.719.108a17.784,17.784,0,0,1-6.28.222,50.5,50.5,0,0,1-6.642-2.1c-2.436-8.086-7.386-22.873-12.914-28.063-2.717-2.55-6.02-4.384-8.766-6.9a12.484,12.484,0,0,1-3.648-10.394q4.128,5.211,8.259,10.419a2.4,2.4,0,0,0,.924.822c1.233.484,2.21-1.211,2.246-2.55.1-3.721-2.21-7.075-4.844-9.668s-5.71-4.769-7.877-7.773c-.63-.873-.874-2.528.182-2.654a1.559,1.559,0,0,1,.932.291,36.312,36.312,0,0,1,7.063,5.29,8.96,8.96,0,0,0,2.993,2.241,2.625,2.625,0,0,0,3.258-1.046c.727-1.567-.795-3.2-2.153-4.246l-4.347-3.352a73.25,73.25,0,0,0-1.752-16.97c-.134-7.315-.853-14.585-3.508-21.334-3.8-9.653-12.579-18.069-22.826-18.025-9.91.041-21.041-.238-29.91,5.056-5.584,3.334-10.776,7.836-13.381,13.856-4.351,10.056-.645,21.774-2.337,32.62.264-1.125.57-2.235.9-3.336a119.684,119.684,0,0,1-.6,13c-1.072,3.741-2.661,7.1-5.7,9.371a4.488,4.488,0,0,0-1.483,1.437c-.911,1.84,1.853,3.719,3.7,2.87s2.675-3.008,3.322-4.96c1.927,2.257.946,5.88-.967,8.151s-4.566,3.8-6.466,6.077-2.847,5.923-.888,8.149c5.981-.562,6.224-11.038,12.021-12.637-3.367,3.016-1.965,8.782-4.19,12.737-1.648,2.929-5.369,5.418-4.369,8.634.682,2.194,3.562,3.086,5.644,2.17a7.59,7.59,0,0,0,3.9-5.355,40.3,40.3,0,0,0,.6-6.865,34.825,34.825,0,0,1,1.93-9.375c.012.114.017.232.033.346.333,2.538,1.268,4.958,1.692,7.482,1.568,9.352-3.929,18.263-9.179,26.111l-.256.385c-5.109,5.591-12.071,9.336-18.822,12.947-8.011,4.286-16.292,8.717-21.648,16.3s-6.917,17.129-8.3,25.559c-.64,3.9-1.33,7.767-2.018,11.624-1.611,9.025-3.277,18.358-4.188,27.774-.946,9.763-4.466,19.136-7.869,28.2-2.547,6.782-5.181,13.795-6.78,21.021a24.176,24.176,0,0,1-2.578,6.063l-.638,1.2c-7.041,13.535-8.964,29.054-10.823,44.062-.4,3.236-.8,6.468-1.252,9.674a49.729,49.729,0,0,1-2.465,10.793,9.912,9.912,0,0,0,.638-3.484,10,10,0,0,0-19.925-1.417,6.326,6.326,0,0,0,.252,4.482c.056.12.143.22.2.338a10.06,10.06,0,0,0,5.342,5.874l4.185,8.76a36.07,36.07,0,0,0-4.836,22.944c-.349,1.887.537,4.209,1.514,6.035q4.71,8.8,9.455,17.575a6.651,6.651,0,0,0,1.173,1.565L220.793,468.7a10.294,10.294,0,0,0-8.313-4.238,10.545,10.545,0,0,0,0,21.088c5.19,0,8.691-2.4,9.716-6.619,8.162-1.441,16.624-3.2,19.448-3.8l56.973,232.4,19.295,28.283H278.358v29.811H254.568v29.809H482.122V765.627H458.333V735.816H429.08l.021-.352-.167-.012a139.3,139.3,0,0,1,1.316-15.336,117.732,117.732,0,0,0,1.3-18.424c-1.452-39.349-3.1-83.948,11.678-123.388l-1-.385a171.389,171.389,0,0,1,18.252-28.4c-2.987-2.07-6.981.619-9.141,3.566s-4.239,6.629-7.817,7.177c-4.446.68-8.131-4-12.622-4.2-3.76-.169-7.21,2.85-10.943,2.371-2.446-.315-4.712-2.119-7.135-1.655a5.876,5.876,0,0,0-4.122,4.05c1.6.273,4.022,1.038,5,2.55a8.267,8.267,0,0,1,.777,5.929,2.414,2.414,0,0,0,.054,1.6c.432.769,1.518.731,2.38.592l8.544-1.386c2.4-.389,4.888-.773,7.224-.1s4.468,2.737,4.423,5.2a26.756,26.756,0,0,1-.8,3.708c-.2,1.252.149,2.792,1.318,3.248a2.15,2.15,0,0,0,2.291-.633c-13.391,38.832-11.844,82-10.433,120.238a116.068,116.068,0,0,1-1.283,18.086,136.613,136.613,0,0,0-1.3,15.959H329.534a22.689,22.689,0,0,0,3.851-6.824c3.285-8.237,5.52-16.94,9.724-24.735,3.6-6.68,8.545-12.5,12.846-18.737a112.377,112.377,0,0,0,13.4-26.294,255.76,255.76,0,0,0,2.1,34.226c.607,4.693,1.525,9.731,4.917,12.979a791.844,791.844,0,0,1,19.867-124.093c.837-3.446,1.434-7.748-1.3-9.957-2.791-2.249-6.916-.556-9.834,1.518-15.655,11.127-23.078,30.462-29.666,48.662q-11.062,30.556-22.123,61.112c-3.685,10.181-7.15,20.479-11.065,30.572-.659,1.7-1.306,3.216-1.8,4.761l-1.82-20.259-21.853-81.838c-.882-16.24-1.413-32.612-1.549-48.829-.087-10.59-.132-22.325.027-34.362a24.339,24.339,0,0,0,3.26,6.885q4.942,7.988,9.887,15.977c-.281-12.843-.4-26.392,5.793-37.6,3.394-6.139,8.452-11.119,13.036-16.4,12.4-14.294,21.555-31.173,33.335-45.994,8.243-10.372,17.742-19.7,25.58-30.387S400.216,403,400.575,389.685c.047-1.791.739-2.422,1.128-4.17L301.025,517.838c-2.328,3.061-4.719,6.45-5.683,10.087.11-5.8.267-11.63.5-17.416.176-4.335.519-8.683.944-13,4.842-20.278,4.661-43.893,6.939-63.929a225.141,225.141,0,0,0,9.755,49.043,293.537,293.537,0,0,1-.878-70.933c8.276,10.05,21.725,16.747,34.211,13.425,10.867-2.892,18.6-12.361,25.563-21.3a38.8,38.8,0,0,1-36.1,13.7,38.142,38.142,0,0,1-17.293-7.97A39.872,39.872,0,0,1,312.555,403c-1.459-1.875-3.008-6.617-4.75-7.858a2.893,2.893,0,0,0-2.958-.556c-.159-11.41,2.768-22.753,6.032-33.355l1.178-3.777c1.581-5.05,3.219-10.274,4.4-15.55a138.83,138.83,0,0,0,2.925-26.131c3.394,11.375,4.066,23.577,8.04,34.8,4.336,12.24,12.381,22.7,20.3,32.937a331.573,331.573,0,0,1-24.875-93.054c5.018,8.571,10.129,17.263,17.275,24.1s16.731,11.707,26.528,10.913c-12.823-1.883-21.628-14.172-26.406-26.386s-7.229-25.618-14.74-36.328l-.083-.7a3.584,3.584,0,0,0-1.746,1,7.312,7.312,0,0,0-1.312,2.278q-3.434,8.089-6.867,16.179c-.5,1.176-.981,2.367-1.432,3.566a39.953,39.953,0,0,1-.9-5.021,3.278,3.278,0,0,0-.725-1.991,2.093,2.093,0,0,0-1.149-.631l.031-.035c3.345-4.488,1.963-10.848.266-16.2-1.268-4-2.593-8.426-2.031-12.442q-7.414,22.414-14.825,44.828c-1.349,4.077-2.7,8.162-3.648,12.356-2.062,9.106-2.241,18.739-5.9,27.312l.525.212a26.133,26.133,0,0,0-1.6,2.723c-1.122,2.235-.975,4.575-.833,6.835a23.643,23.643,0,0,1,.052,3.373c-1.258,15.523-9.257,29.384-18.8,44.606-.438.7-.884,1.4-1.33,2.092a79.544,79.544,0,0,0-4.568,7.791c-3.4,6.957-3.985,17.491-3.717,27.094-3.126-1.256-8.951,8.457-11.395,10.5-2.246,1.881-5.088,3.1-7.2,5.052l-2.882,1.146.611,1.531a1.161,1.161,0,0,1-.688.33c-.82.049-1.306-.891-1.58-1.675q-.733-2.12-1.469-4.24l.1-.018a33.906,33.906,0,0,1,4.654-23.416l2.175-3.128c.4-.537.8-1.077,1.2-1.6a46.959,46.959,0,0,0,4.906-7.429c2.087-4.235,2.88-9,3.514-13.514.45-3.218.853-6.46,1.254-9.71,1.837-14.819,3.735-30.143,10.6-43.338l.628-1.184a26.258,26.258,0,0,0,2.777-6.605c1.566-7.081,4.173-14.021,6.693-20.732,3.452-9.194,7.022-18.7,8-28.747.905-9.328,2.562-18.619,4.167-27.6.69-3.867,1.382-7.744,2.023-11.654,1.345-8.2,2.869-17.5,7.937-24.678s12.773-11.3,20.929-15.664a106.07,106.07,0,0,0,13.523-8.141c11.908-3.448,20.944-15.308,21.194-27.874q3.387,1.719,6.778,3.434A53.929,53.929,0,0,1,345,153.994c-.413-1.14-.731-4.26-1.483-6.6l8.695-.128c-4.6-2.556-9.548-5.5-11.416-10.474a17.556,17.556,0,0,1-.69-8.011,36.6,36.6,0,0,1,6.336-16.993,41.82,41.82,0,0,0-11.2,29.937l-1.291-1.264a43.869,43.869,0,0,1,5.2-31.049c-3.432,2.485-5.037,6.344-6.123,10.6,0-2.037-.033-4.073-.136-6.1l-.136.006a153.63,153.63,0,0,1,8.991-18.135c2.942-5.312,5.989-10.755,10.639-14.611s11.337-5.819,16.783-3.248a3.433,3.433,0,0,1,3.607-2.162,9.951,9.951,0,0,1,4.185,1.659,22.565,22.565,0,0,1,6.526,4.98,35.083,35.083,0,0,1,3.388,6.116c2.7,5.251,6.735,9.655,10.017,14.552a38.084,38.084,0,0,1,3.2,5.731l-.481.124a71.207,71.207,0,0,1,2.078,14.976l-1.027.625c.085.145.151.3.227.452L388.7,115.584a8.949,8.949,0,0,1,3.471,6.721c-.043,2.615-2.037,5.245-4.613,5.373-.4,2.845.176,5.735.081,8.6s-1.1,6.022-3.609,7.358c-2.177,1.16-4.873.617-7.094-.452s-4.2-2.622-6.47-3.568a13.5,13.5,0,0,0-9.714-.216c-2.291.836-4.547,2.646-4.7,5.109-.128,2.045.781,4.942-1.149,5.546,2.648.664,4.564,3.5,5.4,6.128s.847,5.447,1.058,8.206a54.335,54.335,0,0,0,5.943,20.835,122.409,122.409,0,0,1,11.013-28.85,9.426,9.426,0,0,1,1.992-2.8c1.675-1.441,4.729-1.966,6.458-.6a34.476,34.476,0,0,0,.112,16.189,6.149,6.149,0,0,0,1.834,3.489,6.355,6.355,0,0,0,3.706.977q4.812.221,9.629.012c-1.18-2.621-4.483-3.4-6.46-5.473-1.686-1.761-2.268-4.3-2.779-6.694-.754-3.523-1.489-7.3-.174-10.647,1.155,3.391,5.231,4.594,7.695,7.168,2.917,3.047,3.369,7.816,6,11.117.917,1.146,1.475,6.318,2.4,9.155-2.876-1.758-5.066-3.529-5.739-5.054l-1.9.861c2.675,6.063,21.619,13.608,27.577,14.862a19.577,19.577,0,0,0,7.007-.2l.711-.106a79.923,79.923,0,0,1,14.029-.808c3.5.106,7.262.142,10.91.173l4.161.041a92.259,92.259,0,0,0,48.953-13.47c2.882-1.759,3.386-4.622,3.875-7.39a23.469,23.469,0,0,1,.843-3.641,41.1,41.1,0,0,1,2.111-4.915c6.867-.81,17.087-3.083,28.639-6.47-2.262,6.464-4.264,12.981-6.22,19.374-1.506,4.928-3.066,10.024-4.723,15.021-.4,1.187-.8,2.391-1.277,3.56l-13.558-31.23-.775.346-1.184-.179L510.7,205.3q-3.268.917-6.5,1.775c2.6-2.2,4.38-5.613,3.681-8.939a462,462,0,0,1-58.227,19.584c-4.123,1.087-9.3,1.785-11.926-1.618q.948-6.293,1.892-12.582c-5.534,3.615-11.443,7.708-13.505,14.048-2.206,6.778.63,14.062,1.145,21.181a67.033,67.033,0,0,1-.876,10.557c-.206.423-.444.828-.63,1.264a49.007,49.007,0,0,0-2.628,9.444c-1.934,9.525-3.551,19.238-4.8,28.871-.039.3-.074.6-.11.9a34.494,34.494,0,0,0-4.386-8.55c-2.962-4.423-6.361-8.748-7.646-13.932a3.291,3.291,0,0,1-.072-1.809c.279-.836,1.107-1.323,1.777-1.885,3.824-3.2,2.932-9.263,1.692-14.131a20.788,20.788,0,0,1-12.641,3.786c-4.789-.171-10.1-1.885-14.036.883-3.4,2.387-4.165,7.079-4.5,11.259-.283,3.489-.393,7.288,1.583,10.16a15.684,15.684,0,0,0,3.665,3.44c2.983,2.253,20.262,18.243,23.239,16.918,2.091-.93-5.094-22.39-5.475-26.365a208.385,208.385,0,0,1,16.325,24.322c-.661,6.163-1.091,12.424-1.37,18.383-2.446-1.59-5.745-1.8-8.747-2.088-11.61-1.111-22.6-5.65-33.387-10.138a23.4,23.4,0,0,1-5.8-3.081c-2.2-1.763-3.692-4.246-5.206-6.639-6.35-10.032-13.782-19.3-21.2-28.553-3.5-4.368-7.342-8.968-12.674-10.543,5.787,9.635,13.25,18.44,17.422,28.9a208.371,208.371,0,0,0,10.464,22.291,29.6,29.6,0,0,0,5.764,8.1c5.2,4.7,12.718,5.361,19.669,5.8,11.284.712,22.935,1.317,33.616-2.292-.3,7.17-.4,13.838-.44,19.256-.025,3.56,1.4,6.122,2.915,8.835.314.564.638,1.144.957,1.752,7.695,14.557,14.587,28.895,14.426,44.246a54.506,54.506,0,0,0,1.6,12.086c.378,1.795.758,3.609,1.062,5.487-1.281,38.229-2.531,77.739-3.268,115.811a284.347,284.347,0,0,0-3.737-38.433q-2.5,20.17-5,40.342c-1.428,11.528-2.892,23.2-7.129,34a29.8,29.8,0,0,1,12.771-6.963c2.345-.6,5.111-.814,6.916.822,1.378,1.25,2.082,3.478,3.9,3.836,2.07.409,3.516-1.9,4.816-3.582a12.383,12.383,0,0,1,12.255-4.451,8.989,8.989,0,0,0-1.151-4.443q-6.5-51.566-13-103.133c-1.44-11.426-2.905-22.889-5.46-34.1l.14-.022c-.31-1.919-.7-3.775-1.085-5.609a52.858,52.858,0,0,1-1.554-11.624c.169-15.851-6.844-30.456-14.67-45.265-.328-.621-.659-1.215-.981-1.793-1.49-2.674-2.667-4.785-2.646-7.781.079-11.471.421-28.527,2.456-44.136,1.25-9.582,2.857-19.244,4.78-28.722a46.735,46.735,0,0,1,2.5-9.037c1.725-4.069,4.543-7.628,7.268-11.07,1.719-2.17,3.613-4.465,5.506-6.759,1.837-2.223,3.673-4.449,5.353-6.562,14.06-5.253,28.74-9.476,42.941-13.561,4.154-1.193,8.253-2.28,12.331-3.36,2.979-.79,6.006-1.6,9.049-2.446L501.3,243.181c-1.994,1.164-3.14,2.459-3.14,3.832a3.708,3.708,0,0,0,1.516,2.713l-.107.429,1.027.261c4.9,3.3,16.694,5.63,30.484,5.63,18.182,0,32.92-4.044,32.92-9.033,0-1.408-1.206-2.735-3.3-3.922l-4.375-10.075c4.679,3.425,16.686,5.866,30.8,5.866,18.182,0,32.92-4.044,32.92-9.031Zm-330.6,236.829a8.183,8.183,0,0,1-11.55.092l-.322-.311,1.337-3.639C287.617,457.595,289.832,463.583,290.425,466.323Zm-11.534-12.112a8.271,8.271,0,0,1,3.652-2.047A19.3,19.3,0,0,0,278.891,454.212Zm-35.713,18.434-.983.212c-.107.024-10.941,2.349-21.049,4.115l-.725.128-.124.735c-.775,4.632-4.677,5.6-7.817,5.6a8.437,8.437,0,0,1,0-16.871,8.256,8.256,0,0,1,6.978,3.873l.386.6L244.2,466.04l-.744-1.868a4,4,0,0,0,.1-1.193c-.2-3.232-2.39-6.026-2.865-9.228a9.015,9.015,0,0,1,2.8-7.854l5.07,13.932,3.293,5.683-3.293,5.534,71.05,261.946.169,1.872-19.186-28.028Zm17.316-70.829a77.8,77.8,0,0,1,4.452-7.578q.672-1.053,1.337-2.109C273.759,380.2,284,363.869,285.4,346.565a25.781,25.781,0,0,0-.05-3.68c-.13-2.07-.254-4.024.611-5.746a37.244,37.244,0,0,1,3.487-5.335c.725-.985,1.45-1.972,2.122-2.99,3.33-5.044,5.357-10.915,7.051-16.506,1.754-5.788,3.3-11.721,4.6-17.634l.058-.271c1.188-5.41,2.415-11.005,6.357-14.359.583-.5,1.186-.645,1.289-.533a2.03,2.03,0,0,1,.172.776,44.185,44.185,0,0,0,1.814,8.428,19.531,19.531,0,0,0-.56,3.315c-.43,6.326,2.7,12.2,5.07,18.114-.116,10.478-.7,21.051-2.993,31.3-1.161,5.19-2.783,10.37-4.355,15.379l-1.178,3.788c-3.508,11.386-6.673,23.63-6.107,36.015l.138-.006c-3.814,6.824-3.754,27.249-3.708,31.3.1,8.758.015,18.063-.3,27.5l-.33-.006c-.19,9.78-1.339,19.6-2.452,29.1-.988,8.447-2.012,17.182-2.367,25.911-.81,19.854-.771,40.3-.628,57.677.109,13.036.486,26.17,1.076,39.261L258.04,471.885l19.8-3.576a10.249,10.249,0,0,0,6.759,2.556,10.546,10.546,0,1,0-9.29-15.265l-20.425,3.9a7.8,7.8,0,0,0,.692-2.892q.358-6.8.494-13.616c.025-1.331.24-3.173.421-5.117l1.037-.081C256.683,426.683,256.073,410.866,260.494,401.817Zm-18.188.242c-.151.4-.308.786-.479,1.172,0-.03,0-.055,0-.085A10.7,10.7,0,0,0,242.306,402.058Zm-9.377-11.6a8.02,8.02,0,0,1,6.927,11.947l-.153.285.029.322A9.151,9.151,0,0,1,238.7,408.3l-3.167,4.555c-.3.409-.593.822-.888,1.239a12.243,12.243,0,0,1,1.921-10.7,8.754,8.754,0,0,1-8.776-1.665,8.9,8.9,0,0,1-2.661-4.7A7.988,7.988,0,0,1,232.929,390.462ZM558.1,225.3l27.99-82.367v77.9c-11.6.1-21.661,1.84-27.236,4.41Zm59.691,1.282c-4.657-3.285-16.1-5.632-29.623-5.748V142.7Zm-52.88-121.093-.173.265v.317c.021,10.814-4.648,21.413-9.164,31.661l-.093.21c-.882.267-1.766.537-2.661.816V104.4l.258.1c-.684-.977,1.01-2.186,2.01-1.551s1.184,2.025,1.155,3.222-.13,2.514.585,3.468a2.428,2.428,0,0,0,4.09-.867c.252-1.046-.178-2.3.5-3.128a2.785,2.785,0,0,1,1.611-.757q1.486-.336,2.973-.668A6.906,6.906,0,0,0,564.907,105.485ZM551.089,89.45c.118-.3.252-.594.382-.887A1.631,1.631,0,0,1,551.089,89.45Zm4.849-7.683c2.3-3.059,3.964-5.269,7.648-5.713a15.918,15.918,0,0,1,6.485,1c2.733.859,5.462,1.956,6.9,4.164a8.717,8.717,0,0,1,1.192,3.293,18.465,18.465,0,0,1-.372,7.2c-2.454.869-.828,4.594-3.929,5.524-2.186.621-3.712-2.139-4.322-4.358a9.28,9.28,0,0,1-2.407,3.324,3.1,3.1,0,0,1-3.793.155c-.764-.668-1.211-1.9-2.219-1.954-.83-.043-1.436.794-2.229,1.052-1.394.452-2.723-1.079-2.9-2.554s.347-2.941.362-4.425-.789-3.218-2.248-3.33a1.8,1.8,0,0,0-.833.149c.289-.423.57-.849.9-1.25C554.811,83.263,555.386,82.5,555.939,81.767Zm-21.768,55.31a73.806,73.806,0,0,1,3.431-7.488c3.59-6.468,7.3-13.156,9.183-20.551.248-.975.446-1.976.645-2.974.012.045.012.09.025.136a3.046,3.046,0,0,0,3.283-2.479v35.7c-8.131,2.609-15.568,5.341-21.685,7.917A55.881,55.881,0,0,0,534.171,137.077ZM524,163.8l12.5,28.8a13.822,13.822,0,0,1-.9,1.427c-2.921,3.971-7.764,5.852-13.327,7.734l-.174.057Zm-2.39,6.159L519.991,202.5q-3.492,1.129-6.983,2.139ZM512.42,207c2.479-.706,4.968-1.465,7.458-2.259l-1.7,33.957a57.649,57.649,0,0,0-14.444,3.279Zm44.131,34.291c-6.037-2.023-15.205-3.315-25.476-3.315-3.789,0-7.412.185-10.8.507l1.719-34.423c.314-.1.63-.2.946-.3,4.8-1.624,10.786-3.649,14.335-8.471.087-.12.151-.252.234-.374l20.13,46.372Zm-17.738-48.613a42.351,42.351,0,0,0,2.13-5.457c1.667-5.021,3.229-10.128,4.741-15.071,2.1-6.849,4.274-13.836,6.739-20.74,1.169-.352,2.343-.71,3.533-1.085A241.627,241.627,0,0,0,585.118,139.3L555.1,227.638l.149-.012a4.184,4.184,0,0,0-.777,1.122Z" transform="translate(-202.086 -70.864)" fill="#fff"/><path d="M257.534,163.212q.645-1.922,1.289-3.845A10.671,10.671,0,0,0,257.534,163.212Z" transform="translate(-150.065 14.634)" fill="#fff"/><path d="M272.6,134.342c-.091,1.735,1.459,3.177,3.115,3.7a23.638,23.638,0,0,0,5.167.547c5.481.471,10.3,3.675,14.839,6.78a27.734,27.734,0,0,0-21.826-11.833l2.4-.828C275.2,131.363,272.689,132.608,272.6,134.342Z" transform="translate(-135.936 -13.373)" fill="#fff"/><path d="M310.323,130.962a4.523,4.523,0,0,0-2.469.988,102.353,102.353,0,0,0-13.827,11.009l.386.019c-.147.093-.227.407-.043.529.256.169.595.027.864-.118q8.027-4.326,15.6-9.431a2.332,2.332,0,0,0,1.147-1.312C312.165,131.765,311.225,130.976,310.323,130.962Z" transform="translate(-115.827 -14.48)" fill="#fff"/><path d="M302.245,144.734c6.059-1.064,12.319,1.642,16.808,5.846s7.464,9.755,10.019,15.351c-1.946-6.136-4.392-12.315-8.8-17s-11.193-7.621-17.4-5.91Z" transform="translate(-108.117 -1.581)" fill="#fff"/></g></svg>