<svg xmlns="http://www.w3.org/2000/svg" width="119.412" height="13.482" viewBox="0 0 119.412 13.482"><path d="M-48.2-12.42H-50.67v5.346h-5.814V-12.42h-2.484V0h2.484V-5.094h5.814V0H-48.2Zm11.322,2.844h-2.484V-4.7c0,2.16-.864,3.186-2.106,3.186a1.687,1.687,0,0,1-1.854-1.62A12.965,12.965,0,0,1-43.4-4.446v-5.13h-2.484v5.652a11.59,11.59,0,0,0,.09,1.746A3.123,3.123,0,0,0-42.408.252,3.844,3.844,0,0,0-40.1-.4l.738-1.224V0h2.484Zm8.154-.252a4.234,4.234,0,0,0-2.484.666l-.72,1.044V-13.23h-2.484V0h2.484V-1.278l.63.99a4.472,4.472,0,0,0,2.25.54c2.466,0,4.59-1.764,4.59-5.22C-24.462-7.794-26.046-9.828-28.728-9.828Zm-.81,8.334c-1.152,0-2.394-.774-2.394-2.952V-4.9c0-2.34,1.116-3.186,2.484-3.186,1.476,0,2.412,1.314,2.412,3.276C-27.036-2.592-28.1-1.494-29.538-1.494ZM-11.9-7.272H-13.59V-8.946h-2.484v1.674h-.648c-.342,0-.738,0-1.062-.018a1.644,1.644,0,0,1-1.782-1.782c0-1.134.72-1.746,2.034-1.746a10.246,10.246,0,0,1,1.944.162v-1.836a8.885,8.885,0,0,0-1.962-.18c-2.862,0-4.644,1.314-4.644,3.546a2.87,2.87,0,0,0,2.3,2.772,3.239,3.239,0,0,0-2.952,3.186c0,2.628,2.124,3.42,5.022,3.42A20.821,20.821,0,0,0-13.59-.18V-5.328H-11.9Zm-8.3,3.78c0-1.008.72-1.692,2.3-1.8a9.1,9.1,0,0,1,1.008-.036h.81v3.582a7.867,7.867,0,0,1-1.692.144C-19.35-1.6-20.2-2.07-20.2-3.492Zm14.418-9.18c-2.376,0-4.446,1.35-4.446,3.636s1.6,3.168,4.14,3.78C-4.248-4.824-3.6-4.212-3.6-3.168c0,.954-.9,1.566-2.034,1.566a2.472,2.472,0,0,1-2.574-2.07h-2.538C-10.512-1.062-8.568.252-5.6.252c2.448,0,4.59-1.332,4.59-3.672,0-2-1.224-3.258-3.96-3.888-1.98-.468-2.646-.99-2.646-2.034,0-1.008.756-1.476,1.746-1.476A2.038,2.038,0,0,1-3.726-8.766h2.538C-1.458-10.98-2.808-12.672-5.778-12.672ZM5.076-9.828A4.676,4.676,0,0,0,.108-4.788,4.685,4.685,0,0,0,5.076.252a4.685,4.685,0,0,0,4.968-5.04A4.676,4.676,0,0,0,5.076-9.828Zm0,8.334c-1.494,0-2.394-1.242-2.394-3.294,0-2.07.9-3.294,2.394-3.294S7.47-6.858,7.47-4.788C7.47-2.736,6.57-1.494,5.076-1.494Zm9.18-11.736H11.772V-3.078c0,.63,0,1.08.036,1.512C11.862-.324,12.636.126,13.86.126A13.637,13.637,0,0,0,15.39.054v-1.71c-.846.054-1.062-.108-1.116-.594-.018-.252-.018-.5-.018-.882Zm4.032.09a1.281,1.281,0,0,0-1.368,1.314,1.271,1.271,0,0,0,1.368,1.314,1.271,1.271,0,0,0,1.368-1.314A1.281,1.281,0,0,0,18.288-13.14ZM19.53,0V-9.576H17.046V0Zm6.624-9.828c-2.628,0-4.788,1.836-4.788,5.112,0,3.312,1.962,4.968,4.572,4.968,2.394,0,4.158-1.206,4.572-3.564H28.026a1.969,1.969,0,0,1-1.944,1.818c-1.242,0-2.142-1.008-2.142-3.384,0-2.178.9-3.2,2.16-3.2,1.026,0,1.746.576,1.98,1.962h2.448A4.034,4.034,0,0,0,26.154-9.828Zm7.38-3.312a1.281,1.281,0,0,0-1.368,1.314,1.271,1.271,0,0,0,1.368,1.314A1.271,1.271,0,0,0,34.9-11.826,1.281,1.281,0,0,0,33.534-13.14ZM34.776,0V-9.576H32.292V0ZM40.23-7.866h1.98V-9.5H40.23v-2.358H37.746V-9.5h-1.4v1.638h1.4V-3.15c0,.54,0,.954.036,1.386C37.89-.414,38.556.2,40.41.2A10.042,10.042,0,0,0,42.048.072v-1.62c-1.386.108-1.728-.108-1.8-1.044-.018-.252-.018-.522-.018-.846ZM48.1-9.828a4.676,4.676,0,0,0-4.968,5.04A4.685,4.685,0,0,0,48.1.252a4.685,4.685,0,0,0,4.968-5.04A4.676,4.676,0,0,0,48.1-9.828Zm0,8.334C46.6-1.494,45.7-2.736,45.7-4.788c0-2.07.9-3.294,2.394-3.294S50.49-6.858,50.49-4.788C50.49-2.736,49.59-1.494,48.1-1.494ZM59.742-9.81a2.492,2.492,0,0,0-1.638.648L57.348-7.83V-9.576H54.864V0h2.484V-4.392c0-2.574,1.026-3.492,3.1-3.348v-2A2.716,2.716,0,0,0,59.742-9.81Z" transform="translate(58.968 13.23)" fill="#171717"/></svg>