<svg xmlns="http://www.w3.org/2000/svg" width="1440" height="768" viewBox="0 0 1440 768" fill="none"><path d="M1440 0H0V768H1440V0Z" fill="url(#paint0_linear_19_11)"></path><g style="mix-blend-mode:luminosity" opacity="0.189"><g style="mix-blend-mode:luminosity"><path d="M0 220.75L30 219.25C60 217.75 120 214.75 180 203.95C240 193.3 300 174.7 360 152.05C420 129.25 480 102.25 540 89.95C600 77.8 660 80.2 720 80.2C780 80.2 840 77.8 900 96.7C960 115.75 1020 156.25 1080 156.25C1140 156.25 1200 115.75 1260 100.75C1320 85.75 1380 96.25 1410 101.5L1440 106.75V0.25H0V220.75Z" fill="#6198FF"></path></g><g style="mix-blend-mode:luminosity"><path d="M0 303.75L30 301.05C60 298.2 120 292.8 180 298.2C240 303.75 300 320.25 360 342C420 363.75 480 390.75 540 384C600 377.25 660 336.75 720 328.5C780 320.25 840 344.25 900 364.5C960 384.75 1020 401.25 1080 383.7C1140 366.3 1200 314.7 1260 291.75C1320 268.8 1380 274.2 1410 277.05L1440 279.75V81.75L1410 76.5C1380 71.25 1320 60.75 1260 75.75C1200 90.75 1140 131.25 1080 131.25C1020 131.25 960 90.75 900 71.7C840 52.8 780 55.2 720 55.2C660 55.2 600 52.8 540 64.95C480 77.25 420 104.25 360 127.05C300 149.7 240 168.3 180 178.95C120 189.75 60 192.75 30 194.25L0 195.75V303.75Z" fill="#3C80FF"></path></g><g style="mix-blend-mode:luminosity"><path d="M0 594.75L30 589.5C60 584.25 120 573.75 180 565.8C240 557.7 300 552.3 360 561.75C420 571.2 480 595.8 540 610.5C600 625.2 660 630.3 720 615.3C780 600.3 840 565.2 900 557.25C960 549.3 1020 568.2 1080 567C1140 565.8 1200 544.2 1260 538.8C1320 533.25 1380 543.75 1410 549L1440 554.25V276.75L1410 274.05C1380 271.2 1320 265.8 1260 288.75C1200 311.7 1140 363.3 1080 380.7C1020 398.25 960 381.75 900 361.5C840 341.25 780 317.25 720 325.5C660 333.75 600 374.25 540 381C480 387.75 420 360.75 360 339C300 317.25 240 300.75 180 295.2C120 289.8 60 295.2 30 298.05L0 300.75V594.75Z" fill="#0066FF"></path></g><g style="mix-blend-mode:luminosity"><path d="M0 701.25L30 688.95C60 676.8 120 652.2 180 649.5C240 646.8 300 665.7 360 676.5C420 687.3 480 689.7 540 694.95C600 700.2 660 708.3 720 700.2C780 692.25 840 668.25 900 668.25C960 668.25 1020 692.25 1080 690.75C1140 689.25 1200 662.25 1260 651.45C1320 640.8 1380 646.2 1410 649.05L1440 651.75V551.25L1410 546C1380 540.75 1320 530.25 1260 535.8C1200 541.2 1140 562.8 1080 564C1020 565.2 960 546.3 900 554.25C840 562.2 780 597.3 720 612.3C660 627.3 600 622.2 540 607.5C480 592.8 420 568.2 360 558.75C300 549.3 240 554.7 180 562.8C120 570.75 60 581.25 30 586.5L0 591.75V701.25Z" fill="#0059DD"></path></g><g style="mix-blend-mode:luminosity"><path d="M0 767.622H1440V626.622L1410 623.922C1380 621.072 1320 615.672 1260 626.322C1200 637.122 1140 664.122 1080 665.622C1020 667.122 960 643.122 900 643.122C840 643.122 780 667.122 720 675.072C660 683.172 600 675.072 540 669.822C480 664.572 420 662.172 360 651.372C300 640.572 240 621.672 180 624.372C120 627.072 60 651.672 30 663.822L0 676.122V767.622Z" fill="#004CBB"></path></g></g><defs><linearGradient id="paint0_linear_19_11" x1="720" y1="-9.45282e-06" x2="910.033" y2="836.856" gradientUnits="userSpaceOnUse"><stop stop-color="#43576E"></stop><stop offset="0.246" stop-color="#243440"></stop><stop offset="0.493" stop-color="#202B2F"></stop><stop offset="1" stop-color="#24363C"></stop></linearGradient></defs></svg>