<svg xmlns="http://www.w3.org/2000/svg" width="58.824" height="58.825" viewBox="0 0 58.824 58.825"><path d="M30.412,1A29.413,29.413,0,1,0,59.824,30.413,29.446,29.446,0,0,0,30.412,1Zm0,55.016a25.6,25.6,0,1,1,25.6-25.6,25.632,25.632,0,0,1-25.6,25.6ZM40.4,21.834h.232V20.709h.418v-.2H39.987v.2H40.4Zm1.021-1.022h0l.367,1.022h.189l.367-1.022h.005v1.022h.218V20.511h-.32L41.9,21.545h-.006l-.363-1.035h-.326v1.323h.22V20.811Zm-6.68-.3H20.276l-2.2,3.528H32.534l2.212-3.528Zm2.957.034L28.857,34.628H19.045L21.309,31.1H27.19l2.246-3.529H15.841L13.6,31.1h3.221l-4.469,7.05H31l6.888-10.863L40.4,31.1H38.131l-2.145,3.531h6.706l2.329,3.519H49.3l-11.6-17.6Z" transform="translate(-1 -1)" fill="#fff"></path></svg>