<svg xmlns="http://www.w3.org/2000/svg" width="45.862" height="33.353" viewBox="0 0 45.862 33.353"><path d="M16.92,16.349c0,1.174-.123,1.76-.975,1.76-.889,0-1.029-.533-1.029-1.6V7.14h-6.9V18.146a6.892,6.892,0,0,0,1.542,4.731,5.152,5.152,0,0,0,4.083,1.857,6.7,6.7,0,0,0,3.437-1.041c-.648,2.454-2.1,3.681-4.289,3.681a7.19,7.19,0,0,1-2.415-.576,13.119,13.119,0,0,1-2.357-1.1v5.718a16.566,16.566,0,0,0,2.357,1.22,10.454,10.454,0,0,0,3.747.718,9.435,9.435,0,0,0,7.229-3.268,10.234,10.234,0,0,0,2.475-7.217V7.14h-6.9v9.209ZM32.568.084c-8.191.738-7.634,9.5-7.634,9.5V24.9c4.453,0,6.679-2.138,6.679-5.1v-2H34.9V11.137H31.614v-.892a3.7,3.7,0,0,1,.738-2.406A2.437,2.437,0,0,1,34.288,7c.549.006,1.559.188,1.763.98l.015.063v6.944a10.883,10.883,0,0,0,1.513,6.141A8.668,8.668,0,0,0,40.81,24a9.108,9.108,0,0,0,4.3,1.057c.168,0,.474,0,.757-.018V17.983c-1.412,0-2.017-.261-2.467-.8a4.9,4.9,0,0,1-.668-2.937h2.4V7.14H42.855C42.426,4.475,40.826.461,34.891.014c0,0-.7-.026-1.254-.007-.429.015-1.069.077-1.069.077ZM9.234,24.342l.005.011a9.046,9.046,0,0,1-2.338.969v.036l-.023-.033a5.636,5.636,0,0,1-1.2.139A5.2,5.2,0,0,1,1.555,23.59,6.954,6.954,0,0,1,0,18.818V.462H6.9V18.819A6.946,6.946,0,0,0,8.452,23.59,6.032,6.032,0,0,0,9.234,24.342Z" fill="#fff"></path></svg>