<svg height="34.641" viewBox="0 0 81.661 34.641" width="81.661" xmlns="http://www.w3.org/2000/svg"><path d="m128.38 72.5c-29.715-2.237-54.272 4.747-59.8 7.349-3.058 1.369-3.286 3.1-2.83 4.062.411.73 1.871 1.187 3.469.365 11.781-6.257 35.653-11.233 59.161-9.818a.982.982 0 1 0 0-1.963zm7.349-8.764c-1.232 1.369-3.058 2.419-3.652 1.917-.548-.5 0-2.145 0-2.145 2.921-1.871 8.581-6.619 8.581-10.27 0-3.378-3.058-4.428-6.3-1.278a23.482 23.482 0 0 0 -5.523 9.859c-1.689 1.643-4.336 3.743-6.756 3.743-1.232 0-1.6-.867-1.415-2.054 2.054-.046 7.714-1.6 7.714-6.3a2.95 2.95 0 0 0 -.913-2.054 2.875 2.875 0 0 0 -2.145-.73c-2.556 0-5.843 2.6-7.44 6.253a5.974 5.974 0 0 1 -1.278-.411 15.635 15.635 0 0 0 1-2.784c.365-1.917-.456-3.1-2.054-2.967-1 .091-2.237.959-2.465 2.967a5.569 5.569 0 0 0 .548 2.967c-.685 2.145-3.56 4.838-4.519 4.747s.137-3.926 1.1-6.756a5.322 5.322 0 0 0 1.232-1.917 1.183 1.183 0 0 0 -.456-1.552 2.971 2.971 0 0 0 -3.743 1.552 13.071 13.071 0 0 0 -1 2.145c-.776.959-2.054 2.145-2.419 2.054-.548-.365 1.232-2.693 1-3.971a2.064 2.064 0 0 0 -2.237-1.735c-1.6.228-3.743 3.241-3.743 3.241a5.733 5.733 0 0 0 .454-1.737c-.091-1.141-2.237-1.643-3.286.411a30.911 30.911 0 0 0 -1.6 6.117c-.456.959-2.237 3.743-3.652 3.834-1.141.091.274-4.93.456-5.2.639-.959 1.415-2.967 1.232-3.834a1.458 1.458 0 0 0 -.5-1.1 1.366 1.366 0 0 0 -1.187-.228 2.668 2.668 0 0 0 -1.684 1.28 2.226 2.226 0 0 0 -2.145-.776c-4.7.5-7.714 8.581-7.395 12.37.274 2.054 1.232 3.286 3.058 3.058 2.054-.274 3.743-3.2 3.743-3.2s.456 2.419 2.647 2.145a8.293 8.293 0 0 0 4.154-2.876 1.333 1.333 0 0 0 -.091.411c-.365 2.054 3.058 1.826 3.378.274 1-7.714 3.652-10.909 4.428-10.909.639 0-1.689 3.652-.365 5.021 1 1.232 2.83.274 4.336-1a12.962 12.962 0 0 0 -.456 2.967c-.091 2.145.685 3.88 2.83 3.834 2.83-.091 5.843-3.56 7.805-6.847a5.478 5.478 0 0 0 1.689.685 8.23 8.23 0 0 0 -.228 2.374c.183 2.511 1.963 3.469 4.017 3.378 2.419-.091 5.249-1.917 7.166-3.56a.649.649 0 0 1 -.091.274c-.183 1.232.091 3.469 1.871 3.56 2.054.183 5.569-1.917 7.349-4.062 1.506-.961.045-2.331-1.051-1.189zm1.917-10.453a.4.4 0 0 1 .365.411c0 2.145-5.523 6.756-5.523 6.756s3.606-7.171 5.158-7.171zm-13.283 4.517a.687.687 0 0 1 .5.183.515.515 0 0 1 .137.5c0 1.232-1.689 2.145-3.56 2.145 1.006-1.415 2.147-2.828 2.923-2.828zm-36.745 3.375c-.183 1.278-2.465 7.121-3.743 7.121-1.6.091.776-8.216 3.378-8.171.502.001.502.366.365 1.05zm-19.993 1.552c1.506 0-1.232 7.714-.867 11.092s4.154 2.419 3.88.411c-.456-3.286 1.871-13.785 4.154-13.785 1.689 0-1.871 7.212-1.141 11.685.456 2.967 4.519 2.054 4.062.183-1.232-5.888 2.921-11.594 2.374-15.748-.274-1.735-1.232-2.693-2.419-2.693-3.834 0-6.938 7.623-6.938 7.623s.365-4.336-2.739-4.519c-4.474-.228-9.084 10.864-8.991 20.906.091 3.2 4.154 2.693 3.88.091-.23-4.473 2.42-15.246 4.745-15.246z" fill="#fff" transform="translate(-58.997 -50.069)"/></svg>