<svg height="23.129" viewBox="0 0 64.263 23.129" width="64.263" xmlns="http://www.w3.org/2000/svg"><path d="m31.522 70.079c-4.182 4.911-8.191 11-8.231 15.553a5.389 5.389 0 0 0 1.843 4.34 8.939 8.939 0 0 0 6.037 2.21c3.024 0 6.027-1.216 8.379-2.157 3.96-1.584 47.734-20.593 47.734-20.593.422-.212.343-.475-.185-.344-.215.054-47.657 12.912-47.657 12.912a10.483 10.483 0 0 1 -2.761.4c-3.646.022-6.89-2-6.864-6.267a13.986 13.986 0 0 1 1.705-6.054z" fill="#fff" fill-rule="evenodd" transform="translate(-23.29 -69.054)"/></svg>