<svg height="49.645" viewBox="0 0 49.645 49.645" width="49.645" xmlns="http://www.w3.org/2000/svg"><g fill="#fff" fill-rule="evenodd"><path d="m27.616 2.865a24.823 24.823 0 1 0 24.822 24.823 24.823 24.823 0 0 0 -24.822-24.823zm0 47.42a22.6 22.6 0 1 1 22.6-22.6 22.6 22.6 0 0 1 -22.6 22.6z" transform="translate(-2.793 -2.865)"/><path d="m77.692 30.834a17.707 17.707 0 0 1 9.889 0l-4.942 10.953z" transform="translate(-57.817 -22.894)"/><path d="m57.084 40.477a17.7 17.7 0 0 1 4.765 4.471l-8.111 17.952-3.13-6.96h-5.93l-3.129 6.96-8.1-17.965a17.682 17.682 0 0 1 4.751-4.458l6.477 14.368h5.95zm-26.434 10.29a17.618 17.618 0 0 0 9.142 20.3z" transform="translate(-22.821 -30.496)"/><path d="m78 100.819a17.708 17.708 0 0 0 9.725 0l-4.86-10.793zm12.716-1.163a17.619 17.619 0 0 0 9.153-20.256z" transform="translate(-58.043 -59.09)"/></g></svg>