<svg xmlns="http://www.w3.org/2000/svg" width="31.965" height="31.896" viewBox="0 0 31.965 31.896"><path d="M15.953-13.311c-.008-.1-.015-.2-.015-.3v-.008l-.023-.3v-.008a15.9,15.9,0,0,0-.472-2.652c0-.008,0-.008-.008-.015l-.07-.258c-.008-.015-.008-.031-.015-.039-.023-.077-.046-.162-.07-.24-.008-.015-.008-.039-.015-.054-.023-.077-.046-.155-.07-.224-.008-.023-.015-.039-.023-.064-.023-.077-.046-.147-.077-.224l-.023-.07c-.023-.07-.054-.147-.077-.217a.541.541,0,0,0-.023-.064c-.031-.07-.054-.147-.085-.217-.008-.015-.015-.039-.023-.054-.031-.077-.064-.147-.093-.224,0-.008-.008-.015-.008-.023-.1-.247-.209-.495-.322-.735l-.023-.046c-.031-.064-.054-.116-.085-.17-.015-.031-.031-.07-.046-.1-.023-.054-.054-.1-.077-.155-.023-.039-.039-.077-.064-.116a.964.964,0,0,1-.077-.147c-.023-.039-.046-.085-.07-.124s-.054-.093-.077-.139a1.162,1.162,0,0,0-.077-.129c-.023-.046-.054-.085-.077-.129s-.054-.085-.077-.129-.054-.085-.077-.124-.054-.093-.085-.139a1,1,0,0,0-.077-.116l-.093-.137a1.007,1.007,0,0,0-.077-.116c-.031-.046-.07-.1-.1-.147-.023-.031-.046-.07-.07-.1l-.116-.162c-.023-.031-.039-.054-.064-.085-.064-.085-.116-.162-.178-.24a15.928,15.928,0,0,0-1.515-1.717,11.956,11.956,0,0,0-1.179-1.076c-.258-.224-.526-.433-.8-.634a10.463,10.463,0,0,0-1.586-.975c-.155-.085-.309-.162-.464-.24a16.479,16.479,0,0,0-3.573-1.261c-.124-.023-.247-.054-.363-.077H3.257c-.064-.008-.116-.023-.178-.031A15.191,15.191,0,0,0,.63-28.325H-.055A15.072,15.072,0,0,0-2.987-28a11.713,11.713,0,0,0-5.344,2.514c-.07.064-.124.108-.155.139l-.031.031h.008l-.008.008.008-.008a.008.008,0,0,0,.008-.008l-.008.008a.027.027,0,0,1,.015-.008,12.723,12.723,0,0,1,3.187-1.261l.379-.093c.023-.008.054-.008.077-.015.108-.023.217-.046.333-.07.015,0,.039-.008.054-.008A13.465,13.465,0,0,1,7.154-23.357a11,11,0,0,1,1.732,2.111,9.338,9.338,0,0,1,.247,9.513c-2.22,3.416-7.177,4.594-10.248,1.6a5.414,5.414,0,0,1-1.647-3.8q0-.04,0-.08a4.764,4.764,0,0,1,.4-1.918c.108-.247.843-1.655,1.176-1.585A3.654,3.654,0,0,0-4.71-15.7a6.292,6.292,0,0,0-.322,5.368,8.612,8.612,0,0,1-.781-2.529C-6.6-18.183-3.022-22.724.266-23.852c-1.771-1.547-6.218-1.438-9.52.99a11.12,11.12,0,0,0-4.029,5.824,15.4,15.4,0,0,1,1.663-5.406,9.017,9.017,0,0,0-3.21,4.053,16.437,16.437,0,0,0-1.036,8.043c.023.209.046.41.07.619A16.015,16.015,0,0,0-.021,3.572a16.011,16.011,0,0,0,16-16.011C15.977-12.731,15.969-13.025,15.953-13.311Z" transform="translate(15.981 28.324)" fill="#fff" opacity="0.297"></path></svg>